<svg width="24" height="24" viewBox="0 0 24 24" fill="none" xmlns="http://www.w3.org/2000/svg">
<path fill-rule="evenodd" clip-rule="evenodd" d="M9.80984 9.79362C10.178 9.42545 10.2713 8.48734 10.0197 8.23557C9.8942 8.11415 9.67489 7.90149 9.393 7.6273C8.92318 7.1703 8.45333 6.7113 8.01459 6.27993L7.96478 6.23094C7.39707 5.67247 6.92764 5.20552 6.58717 4.85917C6.39044 4.65905 6.23844 4.5009 6.13297 4.38604C6.0701 4.31757 6.02167 4.26231 5.98408 4.21511C5.94856 4.17024 5.94856 4.17024 5.89582 4.08783C5.8851 4.06953 5.87762 4.05675 5.871 4.04354C5.85564 4.01292 5.84491 3.97997 5.8093 3.87068C5.78667 3.75534 5.77196 3.68039 5.78271 3.60929C5.80267 3.47732 5.91033 3.35862 6.21782 3.01962C8.77813 1.79658 11.8621 2.29989 13.901 4.33887C16.5371 6.97491 16.5371 11.2488 13.901 13.8848C13.3432 14.4427 12.712 14.8825 12.0384 15.2042L15.6943 18.8601C17.1424 20.3082 18.6547 20.4958 19.5774 19.5732C20.4786 18.672 20.2704 17.0722 18.8763 15.6781L17.8285 14.6303C17.5356 14.3374 17.5356 13.8626 17.8285 13.5697C18.1214 13.2768 18.5963 13.2768 18.8892 13.5697L19.937 14.6174C21.8652 16.5456 22.1947 19.0772 20.638 20.6339C19.0635 22.2084 16.6178 21.9049 14.6337 19.9207L10.4456 15.7327C8.31027 16.1556 6.00994 15.5397 4.35509 13.8848C2.31197 11.8417 1.81106 8.74971 3.04282 6.18704C3.41443 5.86768 3.54044 5.75938 3.67534 5.74685C3.74456 5.74042 3.81612 5.7592 3.92439 5.78761L3.9244 5.78761C4.02794 5.82563 4.05955 5.83723 4.08893 5.85301C4.10184 5.85994 4.11432 5.86768 4.13228 5.87882C4.18195 5.91226 4.20193 5.92571 4.2211 5.94022C4.23399 5.94998 4.24652 5.96022 4.26748 5.97735C4.32714 6.02655 4.40234 6.09441 4.49831 6.18485C4.67527 6.35161 4.93165 6.60381 5.26976 6.94352C5.93801 7.61497 6.93043 8.6333 8.24807 9.99959C8.60985 10.3552 9.3604 10.2431 9.80984 9.79362ZM9.06621 5.21033L9.01668 5.16163C8.56186 4.71421 8.17117 4.32653 7.86201 4.01521C9.61354 3.58081 11.5121 4.07127 12.8403 5.39954C14.8906 7.44979 14.8906 10.7739 12.8403 12.8242C10.7901 14.8744 7.46597 14.8744 5.41572 12.8242C4.08335 11.4918 3.59414 9.58577 4.03531 7.83012C4.08967 7.8844 4.14676 7.94159 4.20655 8.00166C4.86903 8.6673 5.85852 9.68266 7.18349 11.0564C8.20945 12.0824 9.89041 11.8343 10.8705 10.8543C11.7829 9.94182 11.9697 8.06441 11.0715 7.16622C10.9381 7.03698 10.7197 6.82524 10.4389 6.55207C9.97082 6.0968 9.50281 5.6396 9.06621 5.21033Z" fill="#CB4B00"/>
</svg>
