<svg width="24" height="24" viewBox="0 0 24 24" fill="none" xmlns="http://www.w3.org/2000/svg">
<path d="M15.5859 18.9369C15.6745 18.9117 15.7693 18.9054 15.8705 18.918C15.9717 18.9306 16.0476 19 16.0982 19.1262L16.2879 19.6183C16.3385 19.7571 16.3512 19.8707 16.3259 19.959C16.3006 20.0473 16.2184 20.123 16.0792 20.1861C15.4847 20.4763 14.8523 20.6845 14.1819 20.8107C13.5115 20.9369 12.8159 21 12.0949 21C10.8426 21 9.6916 20.7666 8.64174 20.2997C7.59188 19.8328 6.68434 19.1924 5.91909 18.3785C5.15383 17.5647 4.55934 16.6057 4.1356 15.5016C3.71187 14.3975 3.5 13.2082 3.5 11.9338C3.5 10.6719 3.71187 9.49527 4.1356 8.40379C4.55934 7.3123 5.15383 6.36593 5.91909 5.56467C6.68434 4.7634 7.59188 4.13565 8.64174 3.68139C9.6916 3.22713 10.8426 3 12.0949 3C13.3851 3 14.5456 3.20189 15.5765 3.60568C16.6073 4.00947 17.4896 4.58044 18.2232 5.31861C18.9569 6.05679 19.5197 6.94006 19.9118 7.96845C20.3039 8.99685 20.5 10.1293 20.5 11.3659C20.5 12.123 20.4051 12.8076 20.2154 13.4196C20.0257 14.0315 19.76 14.552 19.4185 14.9811C19.077 15.4101 18.6722 15.7413 18.2042 15.9748C17.7362 16.2082 17.2176 16.3249 16.6484 16.3249C16.1045 16.3249 15.6112 16.224 15.1685 16.0221C14.7258 15.8202 14.378 15.4921 14.125 15.0379C13.7202 15.4416 13.2617 15.7539 12.7494 15.9748C12.2372 16.1956 11.7281 16.306 11.2221 16.306C10.7288 16.306 10.2608 16.205 9.81808 16.0032C9.37537 15.8013 8.99275 15.5142 8.6702 15.142C8.34766 14.7697 8.09152 14.3186 7.90179 13.7886C7.71205 13.2587 7.61719 12.6593 7.61719 11.9905C7.61719 11.3344 7.71205 10.7413 7.90179 10.2114C8.09152 9.68139 8.34766 9.22713 8.6702 8.84858C8.99275 8.47003 9.37537 8.17981 9.81808 7.97792C10.2608 7.77602 10.7288 7.67508 11.2221 7.67508C11.7534 7.67508 12.2214 7.78233 12.6261 7.99685C13.0309 8.21136 13.3914 8.45741 13.7076 8.73502V8.18612C13.7076 7.97161 13.8151 7.86435 14.0301 7.86435H15.5859C15.801 7.86435 15.9085 7.97161 15.9085 8.18612V13.3344C15.9085 13.8644 16.0033 14.2587 16.1931 14.5174C16.3828 14.776 16.699 14.9054 17.1417 14.9054C17.3694 14.9054 17.5908 14.8297 17.8058 14.6782C18.0208 14.5268 18.2169 14.3028 18.394 14.0063C18.5711 13.7098 18.7134 13.3407 18.8209 12.8991C18.9284 12.4574 18.9821 11.9464 18.9821 11.3659C18.9821 10.2555 18.8177 9.26814 18.4888 8.40379C18.16 7.53943 17.6951 6.81073 17.0943 6.21767C16.4935 5.6246 15.7693 5.17035 14.9219 4.85489C14.0744 4.53943 13.1321 4.3817 12.0949 4.3817C11.0703 4.3817 10.128 4.56151 9.26786 4.92114C8.40773 5.28076 7.66146 5.79179 7.02902 6.45426C6.39657 7.11672 5.90328 7.91167 5.54911 8.83912C5.19494 9.76657 5.01786 10.7981 5.01786 11.9338C5.01786 13.0694 5.19494 14.1073 5.54911 15.0473C5.90328 15.9874 6.39657 16.7981 7.02902 17.4795C7.66146 18.1609 8.40773 18.6877 9.26786 19.0599C10.128 19.4322 11.0703 19.6183 12.0949 19.6183C12.74 19.6183 13.3503 19.5584 13.9258 19.4385C14.5013 19.3186 15.0547 19.1514 15.5859 18.9369ZM13.7076 10.2114C13.4926 10.0347 13.2333 9.87066 12.9297 9.71924C12.6261 9.56782 12.2846 9.49211 11.9051 9.49211C11.3106 9.49211 10.83 9.72239 10.4632 10.183C10.0964 10.6435 9.91295 11.2461 9.91295 11.9905C9.91295 12.7476 10.0964 13.3565 10.4632 13.817C10.83 14.2776 11.3106 14.5079 11.9051 14.5079C12.2593 14.5079 12.5945 14.4322 12.9107 14.2808C13.2269 14.1293 13.5052 13.9527 13.7455 13.7508C13.7202 13.6498 13.7076 13.5552 13.7076 13.4669V10.2114Z" fill="#CB4B00"/>
</svg>
