<svg width="24" height="24" viewBox="0 0 24 24" fill="none" xmlns="http://www.w3.org/2000/svg">
<path d="M13.5 18.75C13.9142 18.75 14.25 19.0858 14.25 19.5C14.25 20.7426 13.2426 21.75 12 21.75C10.7574 21.75 9.75 20.7426 9.75 19.5C9.75 19.0858 10.0858 18.75 10.5 18.75C10.9142 18.75 11.25 19.0858 11.25 19.5C11.25 19.9142 11.5858 20.25 12 20.25C12.4142 20.25 12.75 19.9142 12.75 19.5C12.75 19.0858 13.0858 18.75 13.5 18.75ZM12 2.25C16.017 2.25 19.25 5.7317 19.25 10L19.2508 12.7613C20.652 12.888 21.75 14.0658 21.75 15.5C21.75 17.0188 20.5188 18.25 19 18.25H5C3.48122 18.25 2.25 17.0188 2.25 15.5C2.25 13.9812 3.48122 12.75 5 12.75H15.5C15.9142 12.75 16.25 13.0858 16.25 13.5C16.25 13.9142 15.9142 14.25 15.5 14.25H5C4.30964 14.25 3.75 14.8096 3.75 15.5C3.75 16.1904 4.30964 16.75 5 16.75H19C19.6904 16.75 20.25 16.1904 20.25 15.5C20.25 14.8096 19.6904 14.25 19 14.25H18.5C18.0858 14.25 17.75 13.9142 17.75 13.5V10C17.75 6.53631 15.1627 3.75 12 3.75C8.83729 3.75 6.25 6.53631 6.25 10V10.5C6.25 10.9142 5.91421 11.25 5.5 11.25C5.08579 11.25 4.75 10.9142 4.75 10.5V10C4.75 5.7317 7.98301 2.25 12 2.25Z" fill="#CB4B00"/>
<path d="M13.5 18.75C13.9142 18.75 14.25 19.0858 14.25 19.5C14.25 20.7426 13.2426 21.75 12 21.75C10.7574 21.75 9.75 20.7426 9.75 19.5C9.75 19.0858 10.0858 18.75 10.5 18.75C10.9142 18.75 11.25 19.0858 11.25 19.5C11.25 19.9142 11.5858 20.25 12 20.25C12.4142 20.25 12.75 19.9142 12.75 19.5C12.75 19.0858 13.0858 18.75 13.5 18.75ZM12 2.25C16.017 2.25 19.25 5.7317 19.25 10L19.2508 12.7613C20.652 12.888 21.75 14.0658 21.75 15.5C21.75 17.0188 20.5188 18.25 19 18.25H5C3.48122 18.25 2.25 17.0188 2.25 15.5C2.25 13.9812 3.48122 12.75 5 12.75H15.5C15.9142 12.75 16.25 13.0858 16.25 13.5C16.25 13.9142 15.9142 14.25 15.5 14.25H5C4.30964 14.25 3.75 14.8096 3.75 15.5C3.75 16.1904 4.30964 16.75 5 16.75H19C19.6904 16.75 20.25 16.1904 20.25 15.5C20.25 14.8096 19.6904 14.25 19 14.25H18.5C18.0858 14.25 17.75 13.9142 17.75 13.5V10C17.75 6.53631 15.1627 3.75 12 3.75C8.83729 3.75 6.25 6.53631 6.25 10V10.5C6.25 10.9142 5.91421 11.25 5.5 11.25C5.08579 11.25 4.75 10.9142 4.75 10.5V10C4.75 5.7317 7.98301 2.25 12 2.25Z" fill="#CB4B00"/>
</svg>
