<svg width="24" height="24" viewBox="0 0 24 24" fill="none" xmlns="http://www.w3.org/2000/svg">
<path fill-rule="evenodd" clip-rule="evenodd" d="M9.50159 3.75L14.501 3.75247C15.4667 3.75382 16.2491 4.53666 16.25 5.50297L16.249 6.772L16.5009 6.77217C16.8806 6.77273 17.194 7.05535 17.2431 7.4215L17.2498 7.52328C17.2492 7.93749 16.9129 8.27278 16.4987 8.27217L4.25 8.25408V18.753H19.75V8.25297H19C18.5858 8.25297 18.25 7.91718 18.25 7.50297C18.25 7.08875 18.5858 6.75297 19 6.75297H20.5C20.9142 6.75297 21.25 7.08875 21.25 7.50297V19.503C21.25 19.9172 20.9142 20.253 20.5 20.253H3.5C3.08579 20.253 2.75 19.9172 2.75 19.503V7.50297C2.75 7.08832 3.08646 6.75236 3.50111 6.75297L7.749 6.759L7.75 5.50018C7.74918 4.58174 8.45636 3.82835 9.35773 3.75573L9.50159 3.75ZM9.25 9.75297V10.752H14.75V9.75297H16.25V10.752L18.5 10.753C18.8797 10.753 19.1935 11.0351 19.2432 11.4012L19.25 11.503C19.25 11.9172 18.9142 12.253 18.5 12.253L16.25 12.252V13.253H14.75V12.252H9.25V13.253H7.75V12.252L5.5 12.253C5.1203 12.253 4.80651 11.9708 4.75685 11.6047L4.75 11.503C4.75 11.0888 5.08579 10.753 5.5 10.753L7.75 10.752V9.75297H9.25ZM9.49963 5.25L9.48591 5.24987C9.35426 5.25692 9.24988 5.36577 9.25 5.4995L9.249 6.761L14.749 6.769L14.75 5.50364C14.7499 5.38489 14.6673 5.28532 14.5569 5.25918L14.4996 5.25247L9.49963 5.25Z" fill="#CB4B00"/>
</svg>
