<svg width="24" height="24" viewBox="0 0 24 24" fill="none" xmlns="http://www.w3.org/2000/svg">
<path fill-rule="evenodd" clip-rule="evenodd" d="M16.8714 6.03998C17.5913 6.03998 18.2378 6.48087 18.5006 7.1511L19.4979 9.69398L19.9697 9.22385C20.1104 9.08319 20.3011 9.00418 20.5001 9.00418H21.4632C21.8775 9.00418 22.2132 9.33996 22.2132 9.75418C22.2132 10.1684 21.8775 10.5042 21.4632 10.5042H20.8107L20.1749 11.139C20.81 11.4084 21.2501 12.0299 21.2501 12.7542V19.7542C21.2501 20.1684 20.9143 20.5042 20.5001 20.5042H17.5001C17.0858 20.5042 16.7501 20.1684 16.7501 19.7542V18.5327H7.25005V19.7542C7.25005 20.1684 6.91427 20.5042 6.50005 20.5042H3.50005C3.08584 20.5042 2.75005 20.1684 2.75005 19.7542V12.7542C2.75005 12.0271 3.19346 11.4036 3.82461 11.1393L3.18939 10.5042H2.53687C2.12265 10.5042 1.78687 10.1684 1.78687 9.75418C1.78687 9.33996 2.12265 9.00418 2.53687 9.00418H3.50005C3.69896 9.00418 3.88973 9.08319 4.03038 9.22385L4.52387 9.71698L5.5888 7.12559C5.85831 6.46884 6.49788 6.03998 7.20778 6.03998H16.8714ZM16.8714 7.53998H7.20778C7.10636 7.53998 7.015 7.60124 6.97649 7.69507L5.1939 12.0389C5.0784 12.3204 4.8043 12.5042 4.50005 12.5042C4.36198 12.5042 4.25005 12.6161 4.25005 12.7542V19.0042H5.75005V17.7827C5.75005 17.3684 6.08584 17.0327 6.50005 17.0327H17.5001C17.9143 17.0327 18.2501 17.3684 18.2501 17.7827V19.0042H19.7501V12.7542C19.7501 12.6161 19.6381 12.5042 19.5001 12.5042C19.1915 12.5042 18.9145 12.3152 18.8018 12.028L17.1041 7.69871C17.0666 7.60296 16.9742 7.53998 16.8714 7.53998ZM12.0073 11.79C13.894 11.79 15.7817 11.9607 17.67 12.3019C18.0776 12.3756 18.3483 12.7657 18.2746 13.1734C18.201 13.581 17.8108 13.8517 17.4032 13.778C15.6026 13.4526 13.8041 13.29 12.0073 13.29C10.2112 13.29 8.43326 13.4525 6.67303 13.7775C6.26571 13.8527 5.87454 13.5835 5.79933 13.1762C5.72412 12.7688 5.99335 12.3777 6.40067 12.3024C8.25081 11.9608 10.1199 11.79 12.0073 11.79Z" fill="#CB4B00"/>
</svg>
