<svg width="24" height="24" viewBox="0 0 24 24" fill="none" xmlns="http://www.w3.org/2000/svg">
<path fill-rule="evenodd" clip-rule="evenodd" d="M16.0931 21.9521C15.772 21.8593 15.4467 21.4772 15.3782 21.1127C15.3337 20.8753 15.388 20.7104 15.7284 20.0521C17.1034 17.3921 17.7011 14.9443 17.7011 11.973C17.7011 9.10136 17.1719 6.86723 15.8576 4.18922C15.5752 3.61443 15.3444 3.08071 15.3444 3.00348C15.3444 2.71855 15.5829 2.30548 15.8411 2.14333C16.1951 1.92129 16.7883 1.96279 17.0724 2.22932C17.1815 2.332 17.4652 2.79748 17.7026 3.26382C18.643 5.11055 19.2875 7.13676 19.6056 9.24554C19.8026 10.5509 19.8418 13.0244 19.6845 14.2191C19.3943 16.4233 18.8124 18.3898 17.881 20.3165C17.318 21.4811 16.9646 21.9603 16.6688 21.9603C16.6095 21.9603 16.513 21.975 16.4542 21.9932C16.3952 22.011 16.2328 21.9928 16.0931 21.9521ZM12.2655 19.9499C11.7731 19.8066 11.418 19.2025 11.5604 18.7498C11.5949 18.6403 11.8268 18.1357 12.0753 17.6283C13.1287 15.4803 13.5668 13.1777 13.3522 10.9171C13.1757 9.05944 12.8427 7.88803 12.0041 6.17393C11.4415 5.02392 11.4154 4.84573 11.7425 4.3826C12.0535 3.94236 12.83 3.87091 13.2378 4.24527C13.5206 4.50453 14.3998 6.34057 14.739 7.3802C15.8621 10.8212 15.6907 14.5151 14.2515 17.8956C13.5141 19.6271 12.9965 20.1625 12.2655 19.9499ZM8.31835 17.9192C8.01416 17.7821 7.75232 17.4603 7.68109 17.136C7.63767 16.9386 7.71254 16.72 8.07341 15.9892C9.39905 13.3042 9.41338 10.7181 8.11705 8.09575C7.54782 6.94381 7.53541 6.71471 8.01672 6.26035C8.25438 6.03638 8.35535 5.99659 8.68906 5.99659C9.24866 5.99659 9.53895 6.27789 10.0393 7.30533C10.8085 8.88552 11.1234 10.2565 11.1209 12.013C11.1181 13.8184 10.8237 15.0578 10.0019 16.7242C9.53103 17.6783 9.29851 17.9303 8.82725 17.9949C8.6835 18.0146 8.45461 17.9804 8.31835 17.9192ZM4.63536 16.0275C4.39428 15.9278 4.11918 15.5999 4.03725 15.3148C3.94612 14.9962 4.02078 14.7434 4.38251 14.1485C4.84778 13.3833 4.95623 12.9728 4.95623 11.9728C4.95623 10.9729 4.84778 10.5622 4.38251 9.79702C4.22486 9.53775 4.06656 9.22693 4.03062 9.1065C3.88067 8.60208 4.30101 7.98408 4.86532 7.87819C5.34385 7.78835 5.67242 8.00205 6.11223 8.68872C7.38589 10.6766 7.38567 13.3326 6.11159 15.3038C5.66215 15.9993 5.16095 16.2451 4.63536 16.0275Z" fill="#CB4B00"/>
</svg>
