<svg width="24" height="24" viewBox="0 0 24 24" fill="none" xmlns="http://www.w3.org/2000/svg">
<path fill-rule="evenodd" clip-rule="evenodd" d="M19.5 3.75C20.4665 3.75 21.25 4.5335 21.25 5.5V14.5C21.25 14.9142 20.9142 15.25 20.5 15.25C20.0858 15.25 19.75 14.9142 19.75 14.5V5.5C19.75 5.36193 19.6381 5.25 19.5 5.25H4.5C4.36193 5.25 4.25 5.36193 4.25 5.5L4.25186 16.4417C4.25334 16.4609 4.25409 16.4804 4.25409 16.5C4.25409 16.9142 3.91831 17.25 3.50409 17.25H2.25V18.5C2.25 18.6381 2.36193 18.75 2.5 18.75H21.5C21.6381 18.75 21.75 18.6381 21.75 18.5V17.25H13.8107L13.5303 17.5303C13.3897 17.671 13.1989 17.75 13 17.75H11C10.8011 17.75 10.6103 17.671 10.4697 17.5303L10.1893 17.25H5.46386C5.04964 17.25 4.71386 16.9142 4.71386 16.5C4.71386 16.0858 5.04964 15.75 5.46386 15.75H10.5C10.6989 15.75 10.8897 15.829 11.0303 15.9697L11.3107 16.25H12.6893L12.9697 15.9697C13.1103 15.829 13.3011 15.75 13.5 15.75H22.5C22.9142 15.75 23.25 16.0858 23.25 16.5V18.5C23.25 19.4665 22.4665 20.25 21.5 20.25H2.5C1.5335 20.25 0.75 19.4665 0.75 18.5V16.5C0.75 16.0858 1.08579 15.75 1.5 15.75H2.75V5.5C2.75 4.5335 3.5335 3.75 4.5 3.75H19.5ZM12.5 5.75C12.9142 5.75 13.25 6.08579 13.25 6.5C13.25 6.91421 12.9142 7.25 12.5 7.25H11.5C11.0858 7.25 10.75 6.91421 10.75 6.5C10.75 6.08579 11.0858 5.75 11.5 5.75H12.5Z" fill="#CB4B00"/>
</svg>
