<svg width="24" height="24" viewBox="0 0 24 24" fill="none" xmlns="http://www.w3.org/2000/svg">
<path fill-rule="evenodd" clip-rule="evenodd" d="M18.5 1.75C19.4665 1.75 20.25 2.5335 20.25 3.5V20.5C20.25 21.4665 19.4665 22.25 18.5 22.25H5.5C4.5335 22.25 3.75 21.4665 3.75 20.5V19.5C3.75 19.0858 4.08579 18.75 4.5 18.75C4.91421 18.75 5.25 19.0858 5.25 19.5V20.5C5.25 20.6381 5.36193 20.75 5.5 20.75H18.5C18.6381 20.75 18.75 20.6381 18.75 20.5V3.5C18.75 3.36193 18.6381 3.25 18.5 3.25H5.5C5.36193 3.25 5.25 3.36193 5.25 3.5V16.75H17.5C17.9142 16.75 18.25 17.0858 18.25 17.5C18.25 17.9142 17.9142 18.25 17.5 18.25H4.5C4.08579 18.25 3.75 17.9142 3.75 17.5V3.5C3.75 2.5335 4.5335 1.75 5.5 1.75H18.5ZM12.5 18.75C12.9142 18.75 13.25 19.0858 13.25 19.5C13.25 19.9142 12.9142 20.25 12.5 20.25H11.5C11.0858 20.25 10.75 19.9142 10.75 19.5C10.75 19.0858 11.0858 18.75 11.5 18.75H12.5ZM13 3.75C13.4142 3.75 13.75 4.08579 13.75 4.5C13.75 4.91421 13.4142 5.25 13 5.25H11C10.5858 5.25 10.25 4.91421 10.25 4.5C10.25 4.08579 10.5858 3.75 11 3.75H13Z" fill="#CB4B00"/>
</svg>
