<svg width="24" height="24" viewBox="0 0 24 24" fill="none" xmlns="http://www.w3.org/2000/svg">
<path fill-rule="evenodd" clip-rule="evenodd" d="M15.5 3.75C16.4665 3.75 17.25 4.5335 17.25 5.5V18.5C17.25 19.4665 16.4665 20.25 15.5 20.25H8.5C7.5335 20.25 6.75 19.4665 6.75 18.5V17.497C6.75 17.0828 7.08579 16.747 7.5 16.747C7.91421 16.747 8.25 17.0828 8.25 17.497V18.5C8.25 18.6381 8.36193 18.75 8.5 18.75H15.5C15.6381 18.75 15.75 18.6381 15.75 18.5V5.5C15.75 5.36193 15.6381 5.25 15.5 5.25H8.5C8.36193 5.25 8.25 5.36193 8.25 5.5V14.75H14.4837C14.8979 14.75 15.2337 15.0858 15.2337 15.5C15.2337 15.9142 14.8979 16.25 14.4837 16.25H7.5C7.08579 16.25 6.75 15.9142 6.75 15.5V5.5C6.75 4.5335 7.5335 3.75 8.5 3.75H15.5ZM12.5 16.75C12.9142 16.75 13.25 17.0858 13.25 17.5C13.25 17.9142 12.9142 18.25 12.5 18.25H11.5C11.0858 18.25 10.75 17.9142 10.75 17.5C10.75 17.0858 11.0858 16.75 11.5 16.75H12.5Z" fill="#CB4B00"/>
</svg>
