<svg width="24" height="24" viewBox="0 0 24 24" fill="none" xmlns="http://www.w3.org/2000/svg">
<path fill-rule="evenodd" clip-rule="evenodd" d="M13.9648 3C14.5499 3 15.0963 3.29243 15.4209 3.77927L16.8272 5.88868C16.8735 5.95822 16.9516 6 17.0352 6H21.5C22.4665 6 23.25 6.7835 23.25 7.75V18.75C23.25 19.7165 22.4665 20.5 21.5 20.5H2.5C1.5335 20.5 0.75 19.7165 0.75 18.75V7.75C0.75 6.7835 1.5335 6 2.5 6H6.96482C7.0484 6 7.12646 5.95822 7.17283 5.88868L8.5791 3.77927C8.90366 3.29243 9.45007 3 10.0352 3H13.9648ZM13.9648 4.5H10.0352C9.9516 4.5 9.87354 4.54178 9.82717 4.61132L8.4209 6.72073C8.09634 7.20757 7.54993 7.5 6.96482 7.5H2.5C2.36193 7.5 2.25 7.61193 2.25 7.75V18.75C2.25 18.8881 2.36193 19 2.5 19H21.5C21.6381 19 21.75 18.8881 21.75 18.75V7.75C21.75 7.61193 21.6381 7.5 21.5 7.5H17.0352C16.4501 7.5 15.9037 7.20757 15.5791 6.72073L14.1728 4.61132C14.1265 4.54178 14.0484 4.5 13.9648 4.5ZM12 7.39286C14.9587 7.39286 17.3571 9.79133 17.3571 12.75C17.3571 15.7087 14.9587 18.1071 12 18.1071C9.04133 18.1071 6.64286 15.7087 6.64286 12.75C6.64286 9.79133 9.04133 7.39286 12 7.39286ZM12 9.10714C9.98811 9.10714 8.35714 10.7381 8.35714 12.75C8.35714 14.7619 9.98811 16.3929 12 16.3929C14.0119 16.3929 15.6429 14.7619 15.6429 12.75C15.6429 10.7381 14.0119 9.10714 12 9.10714ZM5.5 9C5.91421 9 6.25 9.33579 6.25 9.75C6.25 10.1642 5.91421 10.5 5.5 10.5H4.5C4.08579 10.5 3.75 10.1642 3.75 9.75C3.75 9.33579 4.08579 9 4.5 9H5.5Z" fill="#CB4B00"/>
</svg>
