<svg width="24" height="24" viewBox="0 0 24 24" fill="none" xmlns="http://www.w3.org/2000/svg">
<path fill-rule="evenodd" clip-rule="evenodd" d="M22.5 1.75C22.9142 1.75 23.25 2.08579 23.25 2.5V18.5C23.25 18.9142 22.9142 19.25 22.5 19.25C22.0858 19.25 21.75 18.9142 21.75 18.5V3.25H16.25V10.5C16.25 10.9142 15.9142 11.25 15.5 11.25H9.5C9.08579 11.25 8.75 10.9142 8.75 10.5V7.25H4.25V13C4.25 13.4142 3.91421 13.75 3.5 13.75H2.25V21.75H14.75V16.4352L12 14.8638L9.25 16.4352V18.5C9.25 18.9142 8.91421 19.25 8.5 19.25C8.08579 19.25 7.75 18.9142 7.75 18.5V16C7.75 15.7309 7.89421 15.4824 8.1279 15.3488L11.6279 13.3488C11.8585 13.2171 12.1415 13.2171 12.3721 13.3488L15.8721 15.3488C16.1058 15.4824 16.25 15.7309 16.25 16V21.75H21.75V21.5C21.75 21.0858 22.0858 20.75 22.5 20.75C22.9142 20.75 23.25 21.0858 23.25 21.5V22.5C23.25 22.9142 22.9142 23.25 22.5 23.25H1.5C1.08579 23.25 0.75 22.9142 0.75 22.5V13C0.75 12.5858 1.08579 12.25 1.5 12.25H2.75V6.5C2.75 6.08579 3.08579 5.75 3.5 5.75H9.5C9.91421 5.75 10.25 6.08579 10.25 6.5V9.75H14.75V2.5C14.75 2.08579 15.0858 1.75 15.5 1.75H22.5ZM13 17.75C13.4142 17.75 13.75 18.0858 13.75 18.5V19.5C13.75 19.9142 13.4142 20.25 13 20.25H11C10.5858 20.25 10.25 19.9142 10.25 19.5V18.5C10.25 18.0858 10.5858 17.75 11 17.75H13ZM11.75 18.75H11.5L11.25 19L11.5 19.25H11.75V18.75ZM12.5 18.75H12.25V19.25H12.5L12.75 19L12.5 18.75ZM7 10.75C7.41421 10.75 7.75 11.0858 7.75 11.5C7.75 11.9142 7.41421 12.25 7 12.25H6C5.58579 12.25 5.25 11.9142 5.25 11.5C5.25 11.0858 5.58579 10.75 6 10.75H7ZM20 10.75C20.4142 10.75 20.75 11.0858 20.75 11.5C20.75 11.9142 20.4142 12.25 20 12.25H18C17.5858 12.25 17.25 11.9142 17.25 11.5C17.25 11.0858 17.5858 10.75 18 10.75H20ZM7 8.75C7.41421 8.75 7.75 9.08579 7.75 9.5C7.75 9.91421 7.41421 10.25 7 10.25H6C5.58579 10.25 5.25 9.91421 5.25 9.5C5.25 9.08579 5.58579 8.75 6 8.75H7ZM20 7.75C20.4142 7.75 20.75 8.08579 20.75 8.5C20.75 8.91421 20.4142 9.25 20 9.25H18C17.5858 9.25 17.25 8.91421 17.25 8.5C17.25 8.08579 17.5858 7.75 18 7.75H20ZM20 4.75C20.4142 4.75 20.75 5.08579 20.75 5.5C20.75 5.91421 20.4142 6.25 20 6.25H18C17.5858 6.25 17.25 5.91421 17.25 5.5C17.25 5.08579 17.5858 4.75 18 4.75H20Z" fill="#CB4B00"/>
</svg>
