<svg width="24" height="24" viewBox="0 0 24 24" fill="none" xmlns="http://www.w3.org/2000/svg">
<path fill-rule="evenodd" clip-rule="evenodd" d="M20.9699 3.67678C21.5389 3.10774 22.4615 3.10774 23.0305 3.67678C23.3234 3.96967 23.3234 4.44454 23.0305 4.73744C22.7478 5.02015 22.2956 5.02998 22.0011 4.76691L21.5305 5.23744C21.2376 5.53033 20.7628 5.53033 20.4699 5.23744L20.4509 5.21849C20.4319 5.19949 20.41 5.18368 20.386 5.17167C20.2625 5.10992 20.1123 5.15997 20.0505 5.28347L19.671 6.04252C19.5041 6.37635 19.1171 6.53665 18.763 6.41862L18.5793 6.35736C18.5538 6.34886 18.5271 6.34453 18.5002 6.34453C18.3621 6.34453 18.2502 6.45646 18.2502 6.59453V7.20711C18.2502 7.40602 18.1712 7.59678 18.0305 7.73744L17.3931 8.37491C17.3814 8.38655 17.371 8.39931 17.3618 8.41301C17.2852 8.52789 17.3163 8.68311 17.4312 8.75969L17.9162 9.08307C18.31 9.3456 18.3652 9.90277 18.0305 10.2374L17.3931 10.8749C17.3814 10.8865 17.371 10.8993 17.3618 10.913C17.2852 11.0279 17.3163 11.1831 17.4312 11.2597L17.9162 11.5831C18.1249 11.7222 18.2502 11.9563 18.2502 12.2071C18.2502 12.3452 18.3621 12.4571 18.5002 12.4571H19.5002C19.9144 12.4571 20.2502 12.7929 20.2502 13.2071V13.7071C20.2502 13.8452 20.3621 13.9571 20.5002 13.9571H21.5002C21.9144 13.9571 22.2502 14.2929 22.2502 14.7071V22.7071C22.2502 23.1213 21.9144 23.4571 21.5002 23.4571H4.0002C3.58599 23.4571 3.2502 23.1213 3.2502 22.7071V22.2071C3.2502 21.9004 3.43692 21.6246 3.72166 21.5107L4.9086 21.036C4.93155 21.0268 4.95239 21.013 4.96987 20.9956C5.04115 20.9243 5.04115 20.8087 4.96987 20.7374C4.67698 20.4445 4.67698 19.9697 4.96987 19.6768C5.02366 19.623 5.06032 19.5545 5.07524 19.4799C5.11697 19.2712 4.98165 19.0682 4.77299 19.0265L4.35312 18.9425C3.8933 18.8506 3.62969 18.3639 3.80385 17.9286C3.84766 17.819 3.85123 17.6975 3.81393 17.5856C3.72681 17.3242 3.44432 17.183 3.18297 17.2701L2.73737 17.4186C2.34442 17.5496 1.91968 17.3372 1.78869 16.9443C1.70596 16.6961 1.51121 16.5013 1.26303 16.4186C0.870075 16.2876 0.657705 15.8629 0.788691 15.4699C0.919677 15.077 1.34442 14.8646 1.73737 14.9956C2.19051 15.1466 2.58013 15.4308 2.86092 15.8028C3.86345 15.5538 4.90473 16.1146 5.23695 17.1112C5.29332 17.2803 5.3264 17.4549 5.33633 17.6303C6.20139 17.9407 6.73175 18.8459 6.54611 19.7741C6.51489 19.9302 6.46419 20.0809 6.3958 20.2228C6.63162 20.7931 6.5404 21.4668 6.12212 21.9571L14.75 21.957L14.7502 16.6423L12.0002 15.0709L9.2502 16.6423V18.7071C9.2502 19.1213 8.91442 19.4571 8.5002 19.4571C8.08599 19.4571 7.7502 19.1213 7.7502 18.7071V16.2071C7.7502 15.938 7.89442 15.6895 8.1281 15.5559L11.6281 13.5559C11.8587 13.4242 12.1417 13.4242 12.3723 13.5559L15.8723 15.5559C16.106 15.6895 16.2502 15.938 16.2502 16.2071L16.25 21.957L20.7502 21.9571V15.4571H20.5002C19.6186 15.4571 18.8892 14.8052 18.7679 13.9571H18.5002C17.6851 13.9571 17.0001 13.3998 16.8055 12.6454L16.5991 12.5078C15.7949 11.9717 15.5776 10.8851 16.1138 10.081C16.1777 9.98507 16.2509 9.89573 16.3324 9.81425L16.3448 9.80184C15.7549 9.22506 15.6394 8.29249 16.1138 7.58096C16.1777 7.48507 16.2509 7.39573 16.3324 7.31425L16.7502 6.89645V6.59453C16.7502 5.62803 17.5337 4.84453 18.5002 4.84453C18.5308 4.84453 18.5613 4.84533 18.5918 4.84693L18.7089 4.61265C19.1136 3.80319 20.061 3.44447 20.8897 3.75695L20.9699 3.67678ZM13.0002 17.9571C13.4144 17.9571 13.7502 18.2929 13.7502 18.7071V19.7071C13.7502 20.1213 13.4144 20.4571 13.0002 20.4571H11.0002C10.586 20.4571 10.2502 20.1213 10.2502 19.7071V18.7071C10.2502 18.2929 10.586 17.9571 11.0002 17.9571H13.0002ZM11.7502 18.9571H11.5002L11.2502 19.2071L11.5002 19.4571H11.7502V18.9571ZM12.5002 18.9571H12.2502V19.4571H12.5002L12.7502 19.2071L12.5002 18.9571Z" fill="#CB4B00"/>
</svg>
