<svg width="24" height="24" viewBox="0 0 24 24" fill="none" xmlns="http://www.w3.org/2000/svg">
<path fill-rule="evenodd" clip-rule="evenodd" d="M12.0002 3.21353C12.0264 3.18573 12.0528 3.15825 12.0794 3.13106C14.7489 0.408687 19.0836 0.408687 21.7542 3.13117C24.4153 5.84707 24.4153 10.2433 21.7541 12.9593L11.9998 22.9107L2.24658 12.9593C-0.415543 10.2434 -0.415544 5.847 2.24668 3.13096C4.91605 0.408687 9.25071 0.408687 11.9223 3.13214C11.9485 3.15897 11.9744 3.1861 12.0002 3.21353ZM12.6093 4.83795L11.9984 5.68955L11.3894 4.83652C11.2085 4.5831 11.033 4.36852 10.8502 4.18127C8.76796 2.05859 5.39903 2.05859 3.3178 4.18106C1.22738 6.31373 1.22738 9.77665 3.31782 11.9093L11.9999 20.7678L20.6828 11.9094C22.7724 9.77672 22.7724 6.31365 20.6831 4.18127C18.6008 2.0586 15.232 2.05859 13.1506 4.18111C12.9686 4.36681 12.7952 4.57876 12.6093 4.83795Z" fill="#CB4B00"/>
</svg>
