<svg width="24" height="24" viewBox="0 0 24 24" fill="none" xmlns="http://www.w3.org/2000/svg">
<path fill-rule="evenodd" clip-rule="evenodd" d="M19.208 3.2981L21.3293 5.41942C21.6222 5.71231 21.6222 6.18719 21.3293 6.48008L19.9335 7.87596C19.8011 8.00831 19.6313 8.08101 19.4578 8.09364C19.4453 8.26668 19.373 8.43644 19.2401 8.56928L17.7938 10.0156C17.5009 10.3085 17.026 10.3085 16.7332 10.0156L16.5564 9.83884L14.7816 11.6136L14.9584 11.7903C15.2513 12.0832 15.2513 12.5581 14.9584 12.851L12.954 14.8554L10.5487 20.868C10.1932 21.7568 9.18951 22.195 8.29599 21.8515L5.03499 20.5979C4.57265 20.4202 4.20729 20.0549 4.02952 19.5925L2.77573 16.3319C2.43215 15.4384 2.8703 14.4346 3.75911 14.079L9.77206 11.6734L18.1474 3.2981C18.4403 3.00521 18.9151 3.00521 19.208 3.2981ZM18.6777 4.88909L10.7239 12.8429C10.6521 12.9147 10.5664 12.9712 10.4721 13.0089L4.31628 15.4717C4.1893 15.5225 4.12671 15.6659 4.17579 15.7935L5.42958 19.0542C5.45497 19.1202 5.50717 19.1724 5.57322 19.1978L8.83422 20.4514C8.96187 20.5005 9.10525 20.4379 9.15604 20.3109L11.6185 14.1553C11.6562 14.061 11.7127 13.9754 11.7845 13.9036L13.3674 12.3207L13.1906 12.1439C12.8978 11.851 12.8978 11.3761 13.1906 11.0832L16.026 8.24785C16.3189 7.95495 16.7938 7.95495 17.0867 8.24785L17.2635 8.42462L17.6245 8.06359L17.4649 7.91781C17.1491 7.62951 17.1379 7.13597 17.4403 6.83363L18.1474 6.12653C18.4349 5.83899 18.8992 5.83297 19.1941 6.11296L19.3896 6.29854L19.7384 5.94975L18.6777 4.88909ZM6.88263 16.2723L7.25485 17.3827L8.48317 17.7898C8.87635 17.9201 9.08945 18.3445 8.95913 18.7377C8.82882 19.1309 8.40444 19.344 8.01126 19.2137L6.42698 18.6886C6.20289 18.6143 6.02686 18.4389 5.95182 18.215L5.46041 16.7491C5.32876 16.3564 5.54041 15.9313 5.93314 15.7996C6.32588 15.668 6.75098 15.8796 6.88263 16.2723Z" fill="#CB4B00"/>
</svg>
