<svg width="24" height="24" viewBox="0 0 24 24" fill="none" xmlns="http://www.w3.org/2000/svg">
<path fill-rule="evenodd" clip-rule="evenodd" d="M13 20.75C13.4142 20.75 13.75 21.0858 13.75 21.5C13.75 21.9142 13.4142 22.25 13 22.25H11C10.5858 22.25 10.25 21.9142 10.25 21.5C10.25 21.0858 10.5858 20.75 11 20.75H13ZM14 18.25C14.4142 18.25 14.75 18.5858 14.75 19C14.75 19.4142 14.4142 19.75 14 19.75H10C9.58579 19.75 9.25 19.4142 9.25 19C9.25 18.5858 9.58579 18.25 10 18.25H14ZM14.6614 9.14643C14.8567 9.51172 14.7189 9.96616 14.3536 10.1614L12.75 11.018V16.5C12.75 16.9142 12.4142 17.25 12 17.25C11.5858 17.25 11.25 16.9142 11.25 16.5V11.018L9.64643 10.1614C9.28113 9.96616 9.1433 9.51172 9.33857 9.14643C9.53384 8.78113 9.98828 8.6433 10.3536 8.83857L12 9.71869L13.6464 8.83857C14.0117 8.6433 14.4662 8.78113 14.6614 9.14643ZM11.9467 1.75C15.549 1.75 18.75 4.80862 18.75 8.625C18.75 10.1995 18.3961 11.2052 17.5777 12.3714C17.4871 12.5004 17.3936 12.6289 17.2616 12.8071C17.1011 13.0229 17.0179 13.135 16.9394 13.2421C16.68 13.5965 16.4826 13.8851 16.2915 14.198C15.9171 14.811 15.6012 15.4693 15.3225 16.2561C15.2687 16.408 15.2165 16.5642 15.1659 16.7251C15.0416 17.1202 14.6205 17.3397 14.2254 17.2154C13.8303 17.0911 13.6107 16.6701 13.735 16.2749C13.791 16.0972 13.8488 15.924 13.9086 15.7553C14.2226 14.8689 14.5836 14.1167 15.0114 13.4162C15.2273 13.0627 15.447 12.7414 15.7291 12.356C15.6796 12.4237 16.2223 11.6914 16.3498 11.5097C16.9998 10.5836 17.25 9.87258 17.25 8.625C17.25 5.6527 14.7354 3.25 11.9467 3.25C9.19807 3.25 6.75 5.65588 6.75 8.625C6.75 9.88894 6.9864 10.6336 7.58408 11.5637C7.72954 11.79 8.31856 12.6408 8.36849 12.7149C8.72936 13.2502 9.01924 13.7275 9.30062 14.271C9.53668 14.7269 9.75523 15.2103 9.9597 15.7363C10.0247 15.9035 10.0882 16.0748 10.1501 16.2504C10.288 16.641 10.0831 17.0694 9.69246 17.2073C9.30186 17.3451 8.87347 17.1402 8.73563 16.7496C8.67888 16.5887 8.62088 16.4323 8.56162 16.2798C8.3766 15.8038 8.18011 15.3692 7.96856 14.9606C7.71647 14.4737 7.45558 14.0442 7.1247 13.5533C7.0875 13.4981 6.4842 12.6267 6.32217 12.3746C5.5747 11.2114 5.25 10.1886 5.25 8.625C5.25 4.82156 8.37543 1.75 11.9467 1.75Z" fill="#CB4B00"/>
</svg>
