<svg width="24" height="24" viewBox="0 0 24 24" fill="none" xmlns="http://www.w3.org/2000/svg">
<path fill-rule="evenodd" clip-rule="evenodd" d="M12 2.25C14.3472 2.25 16.25 4.15279 16.25 6.5V9.75H17.5C18.4182 9.75 19.1712 10.4571 19.2442 11.3565L19.25 11.5V12.5C19.25 12.9142 18.9142 13.25 18.5 13.25C18.0858 13.25 17.75 12.9142 17.75 12.5V11.5C17.75 11.3619 17.6381 11.25 17.5 11.25H6.5C6.36193 11.25 6.25 11.3619 6.25 11.5V19.5C6.25 19.6381 6.36193 19.75 6.5 19.75H17.5C17.6381 19.75 17.75 19.6381 17.75 19.5V15.5C17.75 15.0858 18.0858 14.75 18.5 14.75C18.9142 14.75 19.25 15.0858 19.25 15.5V19.5C19.25 20.4665 18.4665 21.25 17.5 21.25H6.5C5.5335 21.25 4.75 20.4665 4.75 19.5V11.5C4.75 10.5335 5.5335 9.75 6.5 9.75H14.75V6.5C14.75 4.98122 13.5188 3.75 12 3.75C10.4812 3.75 9.25 4.98122 9.25 6.5C9.25 6.91421 8.91421 7.25 8.5 7.25C8.08579 7.25 7.75 6.91421 7.75 6.5C7.75 4.15279 9.65279 2.25 12 2.25Z" fill="#CB4B00"/>
</svg>
