<svg width="24" height="24" viewBox="0 0 24 24" fill="none" xmlns="http://www.w3.org/2000/svg">
<path fill-rule="evenodd" clip-rule="evenodd" d="M12 3.25C14.3472 3.25 16.25 5.15279 16.25 7.5V9.75H17.5C18.4665 9.75 19.25 10.5335 19.25 11.5V12.5C19.25 12.9142 18.9142 13.25 18.5 13.25C18.0858 13.25 17.75 12.9142 17.75 12.5V11.5C17.75 11.3619 17.6381 11.25 17.5 11.25H6.5C6.36193 11.25 6.25 11.3619 6.25 11.5V19.5C6.25 19.6381 6.36193 19.75 6.5 19.75H17.5C17.6381 19.75 17.75 19.6381 17.75 19.5V15.5C17.75 15.0858 18.0858 14.75 18.5 14.75C18.9142 14.75 19.25 15.0858 19.25 15.5V19.5C19.25 20.4665 18.4665 21.25 17.5 21.25H6.5C5.5335 21.25 4.75 20.4665 4.75 19.5V11.5C4.75 10.5335 5.5335 9.75 6.5 9.75H7.75V7.5C7.75 5.22183 9.54251 3.36231 11.7941 3.2549L12 3.25ZM12 12.5C12.8284 12.5 13.5 13.1716 13.5 14C13.5 14.6066 13.1399 15.1291 12.6219 15.3654L13.5 18H10.5L11.3791 15.3659C10.8605 15.1298 10.5 14.607 10.5 14C10.5 13.1716 11.1716 12.5 12 12.5ZM12 4.75C10.4812 4.75 9.25 5.98122 9.25 7.5V9.75H14.75V7.5C14.75 6.03747 13.6083 4.8416 12.1675 4.75502L12 4.75Z" fill="#CB4B00"/>
</svg>
