<svg width="24" height="24" viewBox="0 0 24 24" fill="none" xmlns="http://www.w3.org/2000/svg">
<path fill-rule="evenodd" clip-rule="evenodd" d="M21.25 2.39537V17.6475C21.25 18.1773 20.7156 18.54 20.2232 18.3446L11.8401 15.0163L8.20668 15.0178C8.23473 15.0965 8.25 15.1812 8.25 15.2696V20.1874C8.25 20.5208 8.70607 20.8552 9.5 20.8552C10.2944 20.8552 10.75 20.5211 10.75 20.1874V18.4374C10.75 18.0232 11.0858 17.6874 11.5 17.6874C11.9142 17.6874 12.25 18.0232 12.25 18.4374V20.1874C12.25 21.4679 11.04 22.3552 9.5 22.3552C7.96049 22.3552 6.75 21.4678 6.75 20.1874V15.2696C6.75 15.1779 6.76645 15.0901 6.79656 15.0089L6.98017 15.0193C4.45723 14.9526 2.25 12.4274 2.25 9.76958C2.25 7.04805 4.43552 4.51958 7 4.51958H8.5C8.91421 4.51958 9.25 4.85537 9.25 5.26958C9.25 5.6838 8.91421 6.01958 8.5 6.01958H7C5.31646 6.01958 3.75 7.83185 3.75 9.76958C3.75 11.648 5.34751 13.4756 6.99949 13.5196L11.9828 13.5162C12.0778 13.5161 12.1719 13.5341 12.2601 13.5691L19.75 16.5428V3.4432L12.2252 6.00668C11.8331 6.14025 11.407 5.93069 11.2734 5.5386C11.1398 5.14652 11.3494 4.72039 11.7415 4.58681L20.2581 1.68543C20.7447 1.51968 21.25 1.88137 21.25 2.39537Z" fill="#CB4B00"/>
</svg>
