<svg width="24" height="24" viewBox="0 0 24 24" fill="none" xmlns="http://www.w3.org/2000/svg">
<g clip-path="url(#clip0_2_1601)">
<path fill-rule="evenodd" clip-rule="evenodd" d="M12 0.75C14.1861 0.75 16.2814 1.37539 18.0809 2.53352C18.4292 2.75769 18.5298 3.22178 18.3056 3.57009C18.0815 3.9184 17.6174 4.01903 17.2691 3.79486C15.7099 2.7914 13.896 2.25 12 2.25C6.61522 2.25 2.25 6.61522 2.25 12C2.25 17.3848 6.61522 21.75 12 21.75C17.3848 21.75 21.75 17.3848 21.75 12C21.75 10.0961 21.2041 8.27508 20.1928 6.7118C19.9678 6.36401 20.0674 5.89969 20.4152 5.67471C20.7629 5.44972 21.2273 5.54928 21.4522 5.89706C22.6194 7.70127 23.25 9.80486 23.25 12C23.25 18.2132 18.2132 23.25 12 23.25C5.7868 23.25 0.75 18.2132 0.75 12C0.75 5.7868 5.7868 0.75 12 0.75ZM7.80836 16.1926C8.91345 17.2975 10.4058 17.9286 12 17.9286C13.5851 17.9286 15.0696 17.3047 16.1731 16.2111C16.4673 15.9195 16.9422 15.9216 17.2338 16.2158C17.5253 16.51 17.5232 16.9849 17.229 17.2765C15.8474 18.6458 13.9846 19.4286 12 19.4286C10.004 19.4286 8.13142 18.6367 6.74783 17.2534C6.4549 16.9606 6.45484 16.4857 6.7477 16.1928C7.04056 15.8998 7.51543 15.8998 7.80836 16.1926ZM8.85714 8.5C9.27136 8.5 9.60714 8.83579 9.60714 9.25V10.8214C9.60714 11.2356 9.27136 11.5714 8.85714 11.5714C8.44293 11.5714 8.10714 11.2356 8.10714 10.8214V9.25C8.10714 8.83579 8.44293 8.5 8.85714 8.5ZM14.9566 8.90959C15.6606 8.90959 16.3049 9.2715 16.8842 9.9308C17.1576 10.242 17.127 10.7159 16.8158 10.9892C16.5046 11.2626 16.0308 11.232 15.7574 10.9209C15.439 10.5585 15.1739 10.4096 14.9566 10.4096C14.7357 10.4096 14.46 10.5621 14.1272 10.9294C13.8491 11.2363 13.3748 11.2597 13.0679 10.9816C12.7609 10.7035 12.7375 10.2292 13.0156 9.92227C13.6085 9.26788 14.2562 8.90959 14.9566 8.90959Z" fill="#CB4B00"/>
</g>
<defs>
<clipPath id="clip0_2_1601">
<rect width="24" height="24" fill="white"/>
</clipPath>
</defs>
</svg>
