<svg width="24" height="24" viewBox="0 0 24 24" fill="none" xmlns="http://www.w3.org/2000/svg">
<g clip-path="url(#clip0_2_1568)">
<path fill-rule="evenodd" clip-rule="evenodd" d="M12 0.75C14.1861 0.75 16.2814 1.37539 18.0809 2.53352C18.4292 2.75769 18.5298 3.22178 18.3056 3.57009C18.0815 3.9184 17.6174 4.01903 17.2691 3.79486C15.7099 2.7914 13.896 2.25 12 2.25C6.61522 2.25 2.25 6.61522 2.25 12C2.25 17.3848 6.61522 21.75 12 21.75C17.3848 21.75 21.75 17.3848 21.75 12C21.75 10.0961 21.2041 8.27508 20.1928 6.7118C19.9678 6.36401 20.0674 5.89969 20.4152 5.67471C20.7629 5.44972 21.2273 5.54928 21.4522 5.89706C22.6194 7.70127 23.25 9.80486 23.25 12C23.25 18.2132 18.2132 23.25 12 23.25C5.7868 23.25 0.75 18.2132 0.75 12C0.75 5.7868 5.7868 0.75 12 0.75ZM12.5085 6C13.096 6 13.6441 6.07909 14.1525 6.23729C14.661 6.39548 15.1017 6.63842 15.4746 6.9661C15.8475 7.29379 16.1412 7.70339 16.3559 8.19491C16.5706 8.68644 16.678 9.25988 16.678 9.91525C16.678 10.5819 16.5706 11.1582 16.3559 11.6441C16.1412 12.1299 15.8475 12.5367 15.4746 12.8644C15.1017 13.1921 14.661 13.435 14.1525 13.5932C13.6441 13.7514 13.096 13.8305 12.5085 13.8305H10.7458V17.7119C10.7458 17.904 10.6497 18 10.4576 18H9.28814C9.09604 18 9 17.904 9 17.7119V6.28814C9 6.09604 9.09604 6 9.28814 6H12.5085ZM12.4576 7.52542H10.7458V12.3051H12.4576C13.1921 12.3051 13.774 12.1102 14.2034 11.7203C14.6328 11.3305 14.8475 10.7288 14.8475 9.91525C14.8475 9.10169 14.6328 8.5 14.2034 8.11017C13.774 7.72034 13.1921 7.52542 12.4576 7.52542Z" fill="#CB4B00"/>
</g>
<defs>
<clipPath id="clip0_2_1568">
<rect width="24" height="24" fill="white"/>
</clipPath>
</defs>
</svg>
