<svg width="24" height="24" viewBox="0 0 24 24" fill="none" xmlns="http://www.w3.org/2000/svg">
<g clip-path="url(#clip0_2_1591)">
<path fill-rule="evenodd" clip-rule="evenodd" d="M20.2929 0.957092C21.8117 0.957092 23.0429 2.18831 23.0429 3.70709V9.87866C23.0429 10.608 22.7532 11.3075 22.2375 11.8232L18.0404 16.3402C18.0403 16.4516 18.0402 16.5485 18.0401 16.6306L18.0399 16.7068C18.0401 16.7626 18.0402 16.7904 18.0402 16.818L18.0402 16.9278C18.0394 17.8681 18.0748 18.236 18.2136 18.5223C18.353 18.8097 18.6295 18.9571 19.2896 18.9571C19.9545 18.9571 20.2343 18.8071 20.3758 18.5138C20.5162 18.2227 20.5518 17.8457 20.5482 16.9344C20.5477 16.8176 20.5477 16.8176 20.5475 16.7103C20.5474 16.2961 20.8831 15.9602 21.2973 15.9601C21.7115 15.96 22.0474 16.2957 22.0475 16.7099L22.0481 16.9172C22.0528 18.0851 22.0053 18.5882 21.7268 19.1656C21.316 20.0171 20.4953 20.4571 19.2896 20.4571C18.0903 20.4571 17.2738 20.0218 16.864 19.1769C16.6062 18.6454 16.5471 18.1842 16.5408 17.1945L16.5402 16.804C16.5402 16.7916 16.5401 16.7789 16.5401 16.7637L16.5399 16.7089C16.5415 15.7764 16.5415 12.442 16.5399 6.70729C16.5398 6.29308 16.8755 5.95709 17.2897 5.95709C17.704 5.95709 18.0398 6.29268 18.0399 6.70689C18.041 10.6311 18.0413 13.4312 18.0409 15.1062L21.1768 10.7625C21.4112 10.5281 21.5429 10.2102 21.5429 9.87866V3.70709C21.5429 3.01674 20.9833 2.45709 20.2929 2.45709H14.1214C13.7898 2.45709 13.4719 2.58879 13.2375 2.82321L2.53038 13.5303C2.43275 13.6279 2.43275 13.7862 2.53038 13.8839L10.1162 21.4697C10.2138 21.5673 10.3721 21.5673 10.4697 21.4697L13.6998 18.2395C13.9927 17.9467 14.4676 17.9467 14.7605 18.2395C15.0534 18.5324 15.0534 19.0073 14.7605 19.3002L11.5304 22.5303C10.847 23.2137 9.73892 23.2137 9.0555 22.5303L1.46972 14.9445C0.786299 14.2611 0.786299 13.1531 1.46972 12.4697L12.1768 1.76255C12.6925 1.24682 13.392 0.957092 14.1214 0.957092H20.2929ZM12.3233 15.6768C12.6162 15.9697 12.6162 16.4445 12.3233 16.7374L11.3233 17.7374C11.0304 18.0303 10.5555 18.0303 10.2626 17.7374C9.96972 17.4445 9.96972 16.9697 10.2626 16.6768L11.2626 15.6768C11.5555 15.3839 12.0304 15.3839 12.3233 15.6768ZM10.3237 13.6772C10.6164 13.9704 10.616 14.4453 10.3228 14.7379L9.32102 15.7379C9.02787 16.0305 8.553 16.0301 8.26036 15.737C7.96773 15.4438 7.96815 14.9689 8.2613 14.6763L9.26308 13.6763C9.55623 13.3837 10.0311 13.3841 10.3237 13.6772ZM8.32327 11.6768C8.61616 11.9697 8.61616 12.4445 8.32327 12.7374L7.32327 13.7374C7.03038 14.0303 6.5555 14.0303 6.26261 13.7374C5.96972 13.4445 5.96972 12.9697 6.26261 12.6768L7.26261 11.6768C7.5555 11.3839 8.03038 11.3839 8.32327 11.6768Z" fill="#CB4B00"/>
</g>
<defs>
<clipPath id="clip0_2_1591">
<rect width="24" height="24" fill="white"/>
</clipPath>
</defs>
</svg>
