<svg width="24" height="24" viewBox="0 0 24 24" fill="none" xmlns="http://www.w3.org/2000/svg">
<path fill-rule="evenodd" clip-rule="evenodd" d="M17.2592 2.29337C17.6772 2.43652 17.9 2.89142 17.7568 3.30941L15.533 9.8H16.408L19.3467 5.64399C19.6017 5.28319 20.1009 5.19743 20.4617 5.45245C20.8225 5.70747 20.9083 6.20668 20.6533 6.56749L18.368 9.8L20.5 9.80022C20.9142 9.80022 21.25 10.136 21.25 10.5502V21.5502C21.25 21.9644 20.9142 22.3002 20.5 22.3002H9.5C9.08579 22.3002 8.75 21.9644 8.75 21.5502V10.5502C8.75 10.136 9.08579 9.80022 9.5 9.80022L11.75 9.8V5.30022H4.25V17.8002H6.5C6.91421 17.8002 7.25 18.136 7.25 18.5502C7.25 18.9644 6.91421 19.3002 6.5 19.3002H3.5C3.08579 19.3002 2.75 18.9644 2.75 18.5502V4.55022C2.75 4.136 3.08579 3.80022 3.5 3.80022H12.5C12.9142 3.80022 13.25 4.136 13.25 4.55022V9.8H13.843L16.2432 2.79102C16.3863 2.37303 16.8412 2.15022 17.2592 2.29337ZM19.75 11.3002H10.25V20.8002H19.75V11.3002ZM9.5 6.80022C9.91421 6.80022 10.25 7.136 10.25 7.55022C10.25 7.96443 9.91421 8.30022 9.5 8.30022H6.5C6.08579 8.30022 5.75 7.96443 5.75 7.55022C5.75 7.136 6.08579 6.80022 6.5 6.80022H9.5Z" fill="#CB4B00"/>
</svg>
