<svg width="24" height="24" viewBox="0 0 24 24" fill="none" xmlns="http://www.w3.org/2000/svg">
<path d="M15 0.75C15.9665 0.75 16.75 1.5335 16.75 2.5V7.76772C17.5981 7.88903 18.25 8.61838 18.25 9.5L18.249 9.75H20.5C20.9142 9.75 21.25 10.0858 21.25 10.5V14.5C21.25 14.9142 20.9142 15.25 20.5 15.25C20.0858 15.25 19.75 14.9142 19.75 14.5V11.25H18.249L18.25 16.5C18.25 17.4665 17.4665 18.25 16.5 18.25H16.25V19.5C16.25 21.5711 14.5711 23.25 12.5 23.25H11.5C9.42893 23.25 7.75 21.5711 7.75 19.5L7.749 18.25H7.5L7.471 18.248L7.35647 18.2442C6.45711 18.1712 5.75 17.4182 5.75 16.5L5.749 11.25H4.25V14.5C4.25 14.9142 3.91421 15.25 3.5 15.25C3.08579 15.25 2.75 14.9142 2.75 14.5V10.5C2.75 10.0858 3.08579 9.75 3.5 9.75H5.749L5.75 9.5C5.75 8.61838 6.40193 7.88903 7.25 7.76772V2.5C7.25 1.5335 8.0335 0.75 9 0.75H15ZM15 2.25H9C8.86193 2.25 8.75 2.36193 8.75 2.5V8.5C8.75 8.91421 8.41421 9.25 8 9.25H7.5C7.36193 9.25 7.25 9.36193 7.25 9.5V16.5C7.25 16.6381 7.36193 16.75 7.5 16.75H8.514H13C13.4142 16.75 13.75 17.0858 13.75 17.5C13.75 17.9142 13.4142 18.25 13 18.25H9.249L9.25 19.497C9.25 20.7426 10.2574 21.75 11.5 21.75H12.5C13.7426 21.75 14.75 20.7426 14.75 19.5V17.5C14.75 17.0858 15.0858 16.75 15.5 16.75H16.5C16.6381 16.75 16.75 16.6381 16.75 16.5V9.5C16.75 9.36193 16.6381 9.25 16.5 9.25L16.0152 9.24985C16.0101 9.24995 16.0051 9.25 16 9.25H10.5C10.0858 9.25 9.75 8.91421 9.75 8.5C9.75 8.08579 10.0858 7.75 10.5 7.75H15.249L15.25 2.5C15.25 2.36193 15.1381 2.25 15 2.25ZM10.5 3.75C10.9142 3.75 11.25 4.08579 11.25 4.5C11.25 4.91421 10.9142 5.25 10.5 5.25C10.0858 5.25 9.75 4.91421 9.75 4.5C9.75 4.08579 10.0858 3.75 10.5 3.75ZM13.5 3.75C13.9142 3.75 14.25 4.08579 14.25 4.5C14.25 4.91421 13.9142 5.25 13.5 5.25C13.0858 5.25 12.75 4.91421 12.75 4.5C12.75 4.08579 13.0858 3.75 13.5 3.75Z" fill="#CB4B00"/>
</svg>
