<svg width="24" height="24" viewBox="0 0 24 24" fill="none" xmlns="http://www.w3.org/2000/svg">
<path fill-rule="evenodd" clip-rule="evenodd" d="M12 16.75C13.2426 16.75 14.25 17.7574 14.25 19V21C14.25 22.2426 13.2426 23.25 12 23.25C10.7574 23.25 9.75 22.2426 9.75 21V19C9.75 17.7574 10.7574 16.75 12 16.75ZM12 18.25C11.5858 18.25 11.25 18.5858 11.25 19V21C11.25 21.4142 11.5858 21.75 12 21.75C12.4142 21.75 12.75 21.4142 12.75 21V19C12.75 18.5858 12.4142 18.25 12 18.25ZM15 0.75C15.9665 0.75 16.75 1.5335 16.75 2.5V6.76772C17.5981 6.88903 18.25 7.61838 18.25 8.5L18.249 8.749L20.5 8.75C20.9142 8.75 21.25 9.08579 21.25 9.5V14.5C21.25 14.9142 20.9142 15.25 20.5 15.25C20.0858 15.25 19.75 14.9142 19.75 14.5V10.25L18.249 10.249L18.25 14.5C18.25 15.4665 17.4665 16.25 16.5 16.25H16.25V19.5C16.25 19.9142 15.9142 20.25 15.5 20.25C15.0858 20.25 14.75 19.9142 14.75 19.5V15.5C14.75 15.0858 15.0858 14.75 15.5 14.75H16.5C16.6381 14.75 16.75 14.6381 16.75 14.5V8.5C16.75 8.36193 16.6381 8.25 16.5 8.25H10.5C10.0858 8.25 9.75 7.91421 9.75 7.5C9.75 7.08579 10.0858 6.75 10.5 6.75L15.249 6.749L15.25 2.5C15.25 2.36193 15.1381 2.25 15 2.25H9C8.86193 2.25 8.75 2.36193 8.75 2.5V7.5C8.75 7.91421 8.41421 8.25 8 8.25H7.5C7.36193 8.25 7.25 8.36193 7.25 8.5V14.5C7.25 14.6183 7.33223 14.7175 7.44268 14.7434L7.5 14.75H13C13.4142 14.75 13.75 15.0858 13.75 15.5C13.75 15.9142 13.4142 16.25 13 16.25L9.249 16.249L9.25 19.494C9.25 19.9082 8.91421 20.244 8.5 20.244C8.08579 20.244 7.75 19.9082 7.75 19.494V16.25H7.5C6.5335 16.25 5.75 15.4665 5.75 14.5L5.749 10.249L4.25 10.25V14.5C4.25 14.9142 3.91421 15.25 3.5 15.25C3.08579 15.25 2.75 14.9142 2.75 14.5V9.5C2.75 9.08579 3.08579 8.75 3.5 8.75L5.749 8.749L5.75 8.5C5.75 7.61838 6.40193 6.88903 7.25 6.76772V2.5C7.25 1.5335 8.0335 0.75 9 0.75H15ZM10.5 3.75C10.9142 3.75 11.25 4.08579 11.25 4.5C11.25 4.91421 10.9142 5.25 10.5 5.25C10.0858 5.25 9.75 4.91421 9.75 4.5C9.75 4.08579 10.0858 3.75 10.5 3.75ZM13.5 3.75C13.9142 3.75 14.25 4.08579 14.25 4.5C14.25 4.91421 13.9142 5.25 13.5 5.25C13.0858 5.25 12.75 4.91421 12.75 4.5C12.75 4.08579 13.0858 3.75 13.5 3.75Z" fill="#CB4B00"/>
</svg>
