<svg width="24" height="24" viewBox="0 0 24 24" fill="none" xmlns="http://www.w3.org/2000/svg">
<path fill-rule="evenodd" clip-rule="evenodd" d="M19.6118 20.2337C19.8427 20.5776 19.751 21.0435 19.4071 21.2744C17.9405 22.2588 15.2875 22.75 12 22.75C8.70632 22.75 6.05371 22.2596 4.58872 21.2739C4.24505 21.0427 4.15388 20.5767 4.3851 20.233C4.61632 19.8893 5.08236 19.7982 5.42603 20.0294C6.5809 20.8064 8.98038 21.25 12 21.25C15.0141 21.25 17.4139 20.8057 18.5711 20.0289C18.915 19.7981 19.381 19.8898 19.6118 20.2337ZM12 1.25C14.3472 1.25 16.25 3.15279 16.25 5.5C16.25 5.59561 16.2468 5.69089 16.2405 5.78573C16.2468 5.85677 16.25 5.92822 16.25 6C16.25 6.49595 15.921 7.8012 15.2303 10.1365C14.7212 11.8577 15.7039 13.6657 17.4251 14.1748C19.5715 14.8088 20.75 15.6994 20.75 17C20.75 19.2717 16.8079 20.75 12 20.75C7.19206 20.75 3.25 19.2717 3.25 17C3.25 15.6994 4.42838 14.8089 6.57355 14.1752C8.29494 13.6667 9.2782 11.8591 8.76971 10.1377C8.07892 7.80232 7.75 6.49679 7.75 6C7.75 5.92813 7.75317 5.8566 7.75947 5.78549C7.75316 5.69073 7.75 5.59553 7.75 5.5C7.75 3.15279 9.65279 1.25 12 1.25ZM12 2.75C10.4812 2.75 9.25 3.98122 9.25 5.5C9.25 5.57842 9.25326 5.65636 9.25975 5.73369L9.25682 5.88739C9.25229 5.92448 9.25 5.96198 9.25 6C9.25 6.27888 9.58013 7.58921 10.2078 9.71104C10.9514 12.2286 9.51437 14.8706 6.99848 15.6138C5.42896 16.0774 4.75 16.5905 4.75 17C4.75 18.042 7.97139 19.25 12 19.25C16.0286 19.25 19.25 18.042 19.25 17C19.25 16.5905 18.571 16.0774 17.0013 15.6137C14.484 14.8692 13.0479 12.2267 13.7919 9.71106C14.4197 7.58857 14.75 6.27797 14.75 6C14.75 5.96222 14.7477 5.92495 14.7432 5.88806L14.7402 5.73396C14.7467 5.65654 14.75 5.57851 14.75 5.5C14.75 3.98122 13.5188 2.75 12 2.75ZM11.5 3.75C11.9142 3.75 12.25 4.08579 12.25 4.5C12.25 4.91421 11.9142 5.25 11.5 5.25C11.3619 5.25 11.25 5.36193 11.25 5.5C11.25 5.91421 10.9142 6.25 10.5 6.25C10.0858 6.25 9.75 5.91421 9.75 5.5C9.75 4.5335 10.5335 3.75 11.5 3.75Z" fill="#CB4B00"/>
</svg>
