<svg width="24" height="24" viewBox="0 0 24 24" fill="none" xmlns="http://www.w3.org/2000/svg">
<g clip-path="url(#clip0_2_1586)">
<path fill-rule="evenodd" clip-rule="evenodd" d="M11.4599 4.73218C11.3204 5.12216 10.891 5.32514 10.5011 5.18554C10.1111 5.04595 9.9081 4.61664 10.0477 4.22666L11.2939 0.745347C11.5312 0.0823614 12.4688 0.0823614 12.7061 0.745347L13.9415 4.1965C14.0811 4.58648 13.8781 5.01579 13.4881 5.15539C13.0981 5.29498 12.6688 5.092 12.5292 4.70202L12 3.22353L11.4599 4.73218ZM15.5281 8.62906H16.5324C16.9467 8.62906 17.2824 8.96485 17.2824 9.37906C17.2824 9.79327 16.9467 10.1291 16.5324 10.1291H15C14.6832 10.1291 14.4006 9.93005 14.2939 9.63182L13.4159 7.17909C13.2763 6.7891 13.4793 6.3598 13.8692 6.2202C14.2592 6.08061 14.6885 6.28358 14.8281 6.67357L15.5281 8.62906ZM20.2219 10.1291C19.8077 10.1291 19.4719 9.79327 19.4719 9.37906C19.4719 8.96485 19.8077 8.62906 20.2219 8.62906H23C23.7265 8.62906 24.0286 9.55884 23.4408 9.98586L20.6668 12.0009C20.3317 12.2444 19.8626 12.17 19.6192 11.8349C19.3758 11.4998 19.4501 11.0308 19.7852 10.7873L20.6914 10.1291H20.2219ZM17.5743 16.7746C17.7136 17.1647 17.5103 17.5939 17.1202 17.7331C16.7301 17.8724 16.301 17.6691 16.1617 17.279L15.2563 14.7433C15.1444 14.4297 15.2525 14.0799 15.5219 13.8843L17.6222 12.3585C17.9574 12.1151 18.4264 12.1894 18.6698 12.5245C18.9133 12.8597 18.839 13.3287 18.5038 13.5721L16.8578 14.7678L17.5743 16.7746ZM16.9653 19.5299C16.826 19.1398 17.0294 18.7106 17.4195 18.5714C17.8096 18.4321 18.2387 18.6354 18.378 19.0255L19.7063 22.7459C19.9562 23.4457 19.1455 24.0438 18.5506 23.5986L15.538 21.3442C15.2063 21.0961 15.1387 20.626 15.3868 20.2944C15.635 19.9627 16.105 19.8951 16.4367 20.1432L17.4569 20.9067L16.9653 19.5299ZM10.7177 19.6563C10.3861 19.9044 9.91603 19.8368 9.66786 19.5051C9.41969 19.1735 9.48736 18.7035 9.819 18.4553L11.5506 17.1595C11.817 16.9602 12.1829 16.9602 12.4493 17.1595L14.1159 18.4067C14.4476 18.6548 14.5153 19.1248 14.2671 19.4565C14.0189 19.7881 13.5489 19.8558 13.2173 19.6076L12 18.6967L10.7177 19.6563ZM7.59224 20.1216C7.92388 19.8734 8.39391 19.9411 8.64208 20.2727C8.89024 20.6044 8.82257 21.0744 8.49093 21.3226L5.44932 23.5986C4.85561 24.0429 4.04605 23.448 4.29267 22.7487L5.57784 19.1043C5.7156 18.7137 6.14394 18.5087 6.53458 18.6465C6.92521 18.7842 7.13021 19.2126 6.99246 19.6032L6.5291 20.9171L7.59224 20.1216ZM5.54736 13.6287C5.21285 13.3844 5.13971 12.9152 5.384 12.5807C5.62829 12.2461 6.0975 12.173 6.432 12.4173L8.4423 13.8854C8.70971 14.0807 8.81741 14.4282 8.70728 14.7405L7.8198 17.2571C7.68204 17.6478 7.25369 17.8528 6.86306 17.715C6.47242 17.5773 6.26742 17.1489 6.40518 16.7583L7.10714 14.7677L5.54736 13.6287ZM4.31302 10.8698C4.64753 11.1141 4.72067 11.5833 4.47638 11.9178C4.23209 12.2523 3.76289 12.3255 3.42838 12.0812L0.557653 9.98474C-0.0283307 9.55681 0.274367 8.62906 0.999976 8.62906H3.84226C4.25647 8.62906 4.59226 8.96485 4.59226 9.37906C4.59226 9.79327 4.25647 10.1291 3.84226 10.1291H3.29867L4.31302 10.8698ZM9.19011 6.62245C9.32971 6.23247 9.75902 6.02949 10.149 6.16909C10.539 6.30869 10.742 6.73799 10.6024 7.12797L9.7061 9.63182C9.59935 9.93005 9.31674 10.1291 8.99998 10.1291H7.36126C6.94704 10.1291 6.61126 9.79327 6.61126 9.37906C6.61126 8.96485 6.94704 8.62906 7.36126 8.62906H8.47184L9.19011 6.62245Z" fill="#CB4B00"/>
</g>
<defs>
<clipPath id="clip0_2_1586">
<rect width="24" height="24" fill="white"/>
</clipPath>
</defs>
</svg>
