<svg width="24" height="24" viewBox="0 0 24 24" fill="none" xmlns="http://www.w3.org/2000/svg">
<g clip-path="url(#clip0_2_1570)">
<path d="M3.30013 10.131L8.44376 13.8873C8.71117 14.0826 8.81887 14.4301 8.70875 14.7424L6.53057 20.919L11.5521 17.1614C11.8185 16.9621 12.1844 16.9621 12.4508 17.1614L17.4584 20.9086L15.2578 14.7451C15.1459 14.4316 15.254 14.0818 15.5233 13.8862L20.6929 10.131H15.0014C14.6847 10.131 14.4021 9.93194 14.2953 9.63371L12.0014 3.22543L9.70757 9.63371C9.60081 9.93194 9.3182 10.131 9.00144 10.131H3.30013ZM7.1086 14.7696L0.559118 9.98663C-0.0268659 9.5587 0.275832 8.63095 1.00144 8.63095H8.4733L11.2953 0.747239C11.5326 0.0842535 12.4702 0.0842535 12.7076 0.747239L15.5296 8.63095H23.0014C23.728 8.63095 24.0301 9.56073 23.4422 9.98775L16.8593 14.7697L19.7078 22.7478C19.9576 23.4476 19.147 24.0457 18.5521 23.6005L12.0014 18.6986L5.45079 23.6005C4.85708 24.0448 4.04752 23.4499 4.29413 22.7506L7.1086 14.7696Z" fill="#CB4B00"/>
</g>
<defs>
<clipPath id="clip0_2_1570">
<rect width="24" height="24" fill="white"/>
</clipPath>
</defs>
</svg>
