<svg width="24" height="24" viewBox="0 0 24 24" fill="none" xmlns="http://www.w3.org/2000/svg">
<g clip-path="url(#clip0_2_1573)">
<path fill-rule="evenodd" clip-rule="evenodd" d="M12.2527 0.292126C12.6427 0.431722 12.8457 0.86103 12.7061 1.25101V17.3108C12.7061 17.7771 12.781 18.1125 12.4493 18.3606L5.44932 23.5987C4.85561 24.043 4.04605 23.4481 4.29267 22.7488L7.10714 14.7679L0.557653 9.98489C-0.0283307 9.55695 0.274367 8.6292 0.999976 8.6292H8.47184L11.2939 0.745491C11.4334 0.355509 11.8628 0.152531 12.2527 0.292126ZM18.378 19.0257L19.7063 22.7461C19.9562 23.4458 19.1455 24.0439 18.5506 23.5987L15.538 21.3444C15.2063 21.0962 15.1387 20.6262 15.3868 20.2945C15.635 19.9629 16.105 19.8952 16.4367 20.1434L17.4569 20.9068L16.9653 19.53C16.826 19.1399 17.0294 18.7108 17.4195 18.5715C17.8096 18.4322 18.2387 18.6356 18.378 19.0257ZM18.6698 12.5247C18.9133 12.8598 18.839 13.3288 18.5038 13.5723L16.8578 14.7679L17.5743 16.7748C17.7136 17.1649 17.5103 17.594 17.1202 17.7333C16.7301 17.8726 16.301 17.6692 16.1617 17.2791L15.2563 14.7434C15.1444 14.4299 15.2525 14.0801 15.5219 13.8844L17.6222 12.3587C17.9574 12.1152 18.4264 12.1896 18.6698 12.5247ZM23 8.6292C23.7265 8.6292 24.0286 9.55898 23.4408 9.986L20.6668 12.0011C20.3317 12.2445 19.8626 12.1702 19.6192 11.835C19.3758 11.4999 19.4501 11.0309 19.7852 10.7875L20.6914 10.1292H20.2219C19.8077 10.1292 19.4719 9.79342 19.4719 9.3792C19.4719 8.96499 19.8077 8.6292 20.2219 8.6292H23ZM14.8281 6.67371L15.5281 8.6292H16.5324C16.9467 8.6292 17.2824 8.96499 17.2824 9.3792C17.2824 9.79342 16.9467 10.1292 16.5324 10.1292H15C14.6832 10.1292 14.4006 9.93019 14.2939 9.63196L13.4159 7.17923C13.2763 6.78925 13.4793 6.35994 13.8692 6.22034C14.2592 6.08075 14.6885 6.28373 14.8281 6.67371Z" fill="#CB4B00"/>
</g>
<defs>
<clipPath id="clip0_2_1573">
<rect width="24" height="24" fill="white"/>
</clipPath>
</defs>
</svg>
