<svg width="24" height="24" viewBox="0 0 24 24" fill="none" xmlns="http://www.w3.org/2000/svg">
<path fill-rule="evenodd" clip-rule="evenodd" d="M20.2989 16.0186L19.5438 14.0308C19.507 13.9337 19.4139 13.8695 19.3101 13.8695H14.6899C14.5861 13.8695 14.493 13.9337 14.4562 14.0308L13.7011 16.0186C13.6214 16.2286 13.454 16.3873 13.25 16.4595V18.9495C13.25 18.5353 13.5858 18.1995 14 18.1995H20C20.4142 18.1995 20.75 18.5353 20.75 18.9495V19.4723V16.4595C20.546 16.3873 20.3786 16.2286 20.2989 16.0186ZM19.3101 12.3695C20.0369 12.3695 20.688 12.8187 20.9461 13.4982L21.1467 14.0284C21.2526 13.9717 21.3737 13.9397 21.5022 13.9401L22.0022 13.9416C22.4164 13.9428 22.7512 14.2796 22.75 14.6938C22.7488 15.108 22.412 15.4428 21.9978 15.4416L21.9474 15.4399C22.1378 15.6661 22.25 15.9618 22.25 16.2827V19.9951C22.25 20.4094 21.9142 20.7451 21.5 20.7451H20C19.5858 20.7451 19.25 20.4094 19.25 19.9951V19.6995H14.75V19.9951C14.75 20.4094 14.4142 20.7451 14 20.7451H12.5C12.0858 20.7451 11.75 20.4094 11.75 19.9951V16.2827C11.75 15.9618 11.8622 15.6661 12.0526 15.4399L12 15.4416C11.5858 15.4416 11.25 15.1058 11.25 14.6916C11.25 14.2774 11.5858 13.9416 12 13.9416H12.5C12.6274 13.9416 12.7473 13.9734 12.8524 14.0294L13.0539 13.4982C13.312 12.8187 13.9631 12.3695 14.6899 12.3695H19.3101ZM22.75 3.97012V10.9701C22.75 11.3843 22.4142 11.7201 22 11.7201C21.5858 11.7201 21.25 11.3843 21.25 10.9701V4.84101L2.75 7.61601V19.2201H4.45V12.5555C4.45 12.1413 4.78579 11.8055 5.2 11.8055H9.2C9.61421 11.8055 9.95 12.1413 9.95 12.5555V19.2201C10.4114 19.2201 10.7472 19.5559 10.7472 19.9701C10.7472 20.3843 10.4114 20.7201 9.99719 20.7201H9.2C8.78579 20.7201 8.45 20.3843 8.45 19.9701V13.3055H5.95V19.9701C5.95 20.3843 5.61421 20.7201 5.2 20.7201H2C1.58579 20.7201 1.25 20.3843 1.25 19.9701V6.97012C1.25 6.59888 1.5216 6.28349 1.88874 6.22842L21.8887 3.22842C22.3422 3.1604 22.75 3.5116 22.75 3.97012Z" fill="#CB4B00"/>
</svg>
