<svg width="24" height="24" viewBox="0 0 24 24" fill="none" xmlns="http://www.w3.org/2000/svg">
<path fill-rule="evenodd" clip-rule="evenodd" d="M19.7803 15.4697L22.2803 17.9697C22.5732 18.2626 22.5732 18.7375 22.2803 19.0303L19.7803 21.5303C19.4874 21.8232 19.0126 21.8232 18.7197 21.5303C18.4268 21.2375 18.4268 20.7626 18.7197 20.4697L19.939 19.25H13.75C13.3358 19.25 13 18.9142 13 18.5C13 18.0858 13.3358 17.75 13.75 17.75H19.939L18.7197 16.5303C18.4268 16.2375 18.4268 15.7626 18.7197 15.4697C19.0126 15.1768 19.4874 15.1768 19.7803 15.4697ZM22.75 4.00009V10.0001C22.75 10.4143 22.4142 10.7501 22 10.7501C21.5858 10.7501 21.25 10.4143 21.25 10.0001V4.87098L2.75 7.64598V19.2501H4.45V12.5855C4.45 12.1712 4.78579 11.8355 5.2 11.8355H9.2C9.61421 11.8355 9.95 12.1712 9.95 12.5855V19.2501H11C11.4142 19.2501 11.75 19.5859 11.75 20.0001C11.75 20.4143 11.4142 20.7501 11 20.7501H9.2C8.78579 20.7501 8.45 20.4143 8.45 20.0001V13.3355H5.95V20.0001C5.95 20.4143 5.61421 20.7501 5.2 20.7501H2C1.58579 20.7501 1.25 20.4143 1.25 20.0001V7.00009C1.25 6.62885 1.5216 6.31346 1.88874 6.25839L21.8887 3.25839C22.3422 3.19037 22.75 3.54157 22.75 4.00009ZM15.7803 10.4697C16.0732 10.7626 16.0732 11.2375 15.7803 11.5303L14.56 12.75H20.75C21.1642 12.75 21.5 13.0858 21.5 13.5C21.5 13.9142 21.1642 14.25 20.75 14.25H14.56L15.7803 15.4697C16.0732 15.7626 16.0732 16.2375 15.7803 16.5303C15.4874 16.8232 15.0126 16.8232 14.7197 16.5303L12.2197 14.0303C11.9268 13.7375 11.9268 13.2626 12.2197 12.9697L14.7197 10.4697C15.0126 10.1768 15.4874 10.1768 15.7803 10.4697Z" fill="#CB4B00"/>
</svg>
