<svg width="24" height="24" viewBox="0 0 24 24" fill="none" xmlns="http://www.w3.org/2000/svg">
<path fill-rule="evenodd" clip-rule="evenodd" d="M22.75 4.00006V10.0001C22.75 10.4143 22.4142 10.7501 22 10.7501C21.5858 10.7501 21.25 10.4143 21.25 10.0001V4.87095L2.75 7.64595V19.2501H4.45V12.5854C4.45 12.1712 4.78579 11.8354 5.2 11.8354H9.2C9.61421 11.8354 9.95 12.1712 9.95 12.5854V19.2501H11C11.4142 19.2501 11.75 19.5858 11.75 20.0001C11.75 20.4143 11.4142 20.7501 11 20.7501H9.2C8.78579 20.7501 8.45 20.4143 8.45 20.0001V13.3354H5.95V20.0001C5.95 20.4143 5.61421 20.7501 5.2 20.7501H2C1.58579 20.7501 1.25 20.4143 1.25 20.0001V7.00006C1.25 6.62881 1.5216 6.31343 1.88874 6.25836L21.8887 3.25836C22.3422 3.19034 22.75 3.54154 22.75 4.00006ZM17 16.2501C17.4142 16.2501 17.75 16.5858 17.75 17.0001V20.0001C17.75 20.4143 17.4142 20.7501 17 20.7501H14C13.5858 20.7501 13.25 20.4143 13.25 20.0001V17.0001C13.25 16.5858 13.5858 16.2501 14 16.2501H17ZM22 12.2501C22.4142 12.2501 22.75 12.5858 22.75 13.0001V20.0001C22.75 20.4143 22.4142 20.7501 22 20.7501H20C19.5858 20.7501 19.25 20.4143 19.25 20.0001C19.25 19.5858 19.5858 19.2501 20 19.2501H21.25V13.7501H16.75V14.0146C16.75 14.4289 16.4142 14.7646 16 14.7646C15.5858 14.7646 15.25 14.4289 15.25 14.0146V13.0001C15.25 12.5858 15.5858 12.2501 16 12.2501H22ZM16.25 17.7501H14.75V19.2501H16.25V17.7501Z" fill="#CB4B00"/>
</svg>
