<svg width="24" height="24" viewBox="0 0 24 24" fill="none" xmlns="http://www.w3.org/2000/svg">
<path fill-rule="evenodd" clip-rule="evenodd" d="M22.2499 4.00009V6.76555C22.2499 7.17976 21.9141 7.51555 21.4999 7.51555C21.0857 7.51555 20.7499 7.17976 20.7499 6.76555V4.87098L2.24988 7.64598V19.2501H3.94988V12.5855C3.94988 12.1712 4.28566 11.8355 4.69988 11.8355H8.69988C9.11409 11.8355 9.44988 12.1712 9.44988 12.5855V19.2501H20.7499V16.0977C20.7499 15.6834 21.0857 15.3477 21.4999 15.3477C21.9141 15.3477 22.2499 15.6834 22.2499 16.0977V20.0001C22.2499 20.4143 21.9141 20.7501 21.4999 20.7501H8.69988C8.28566 20.7501 7.94988 20.4143 7.94988 20.0001V13.3355H5.44988V20.0001C5.44988 20.4143 5.11409 20.7501 4.69988 20.7501H1.49988C1.08566 20.7501 0.749878 20.4143 0.749878 20.0001V7.00009C0.749878 6.62885 1.02148 6.31346 1.38862 6.25839L21.3886 3.25839C21.8421 3.19037 22.2499 3.54157 22.2499 4.00009ZM20.1665 8.75009C20.398 8.75009 20.6165 8.85695 20.7586 9.03964L23.0919 12.0396C23.3851 12.4166 23.256 12.9679 22.8259 13.1755L21.2723 13.9255C21.0668 14.0247 20.8273 14.025 20.6216 13.9262L19.3865 13.3332L18.1722 13.9244C17.9687 14.0235 17.7313 14.0254 17.5263 13.9295L16.2415 13.329L14.9775 13.9279C14.7683 14.027 14.5251 14.0239 14.3184 13.9197L13.1066 13.3081L12.2287 13.5893C11.7447 13.7444 11.2499 13.3833 11.2499 12.8751V9.50009C11.2499 9.08588 11.5857 8.75009 11.9999 8.75009H20.1665ZM19.7997 10.2501H12.7499V11.8472L12.9414 11.7859C13.1288 11.7258 13.3324 11.7418 13.5081 11.8305L14.6668 12.4152L15.9182 11.8223C16.1202 11.7266 16.3544 11.726 16.5569 11.8207L17.8373 12.4191L19.0559 11.8258C19.2619 11.7255 19.5024 11.7248 19.7089 11.824L20.9454 12.4177L21.3382 12.2281L19.7997 10.2501Z" fill="#CB4B00"/>
</svg>
