<svg width="24" height="24" viewBox="0 0 24 24" fill="none" xmlns="http://www.w3.org/2000/svg">
<path fill-rule="evenodd" clip-rule="evenodd" d="M7.96967 6.2019C7.48151 5.71375 6.69006 5.71375 6.2019 6.2019C5.71375 6.69006 5.71375 7.48151 6.2019 7.96967C6.69006 8.45783 7.48151 8.45783 7.96967 7.96967C8.45783 7.48151 8.45783 6.69006 7.96967 6.2019ZM10.1716 1.25C10.9009 1.25 11.6004 1.53973 12.1161 2.05546L18.6208 8.5601C18.9137 8.853 18.9137 9.32787 18.6208 9.62076C18.3279 9.91366 17.853 9.91366 17.5601 9.62076L11.0555 3.11612C10.821 2.8817 10.5031 2.75 10.1716 2.75H4C3.30964 2.75 2.75 3.30964 2.75 4V10.1716C2.75 10.5031 2.8817 10.821 3.11612 11.0555L13 20.9393L20.9393 13L19.5437 11.6044C19.2508 11.3115 19.2508 10.8366 19.5437 10.5437C19.8366 10.2508 20.3115 10.2508 20.6044 10.5437L22.5303 12.4697C22.8232 12.7626 22.8232 13.2374 22.5303 13.5303L13.5303 22.5303C13.2374 22.8232 12.7626 22.8232 12.4697 22.5303L2.05546 12.1161C1.53973 11.6004 1.25 10.9009 1.25 10.1716V4C1.25 2.48122 2.48122 1.25 4 1.25H10.1716ZM9.03033 5.14124C10.1043 6.21518 10.1043 7.95639 9.03033 9.03033C7.95639 10.1043 6.21518 10.1043 5.14124 9.03033C4.0673 7.95639 4.0673 6.21518 5.14124 5.14124C6.21518 4.0673 7.95639 4.0673 9.03033 5.14124Z" fill="#CB4B00"/>
</svg>
