<svg width="24" height="24" viewBox="0 0 24 24" fill="none" xmlns="http://www.w3.org/2000/svg">
<path fill-rule="evenodd" clip-rule="evenodd" d="M15.5713 1.86377C16.8775 2.09149 17.5494 3.27561 18.5838 6.12008C18.6421 6.28037 18.844 6.84043 18.8397 6.82851C18.9397 7.10534 19.0149 7.31015 19.0879 7.50388C19.2895 8.03894 19.4584 8.44143 19.617 8.75441C21.6916 10.1107 22.1022 12.2855 20.2845 13.6906C19.7387 14.1065 17.946 14.6901 16.15 15.0809C17.004 16.3213 17.6122 17.7229 17.9355 19.2067C18.0656 19.7964 18.0592 20.5459 17.8367 21.1775C17.4967 22.1426 16.698 22.7412 15.5156 22.7412C14.5469 22.7412 14.0814 22.0218 13.5754 20.5885C13.5749 20.587 13.2445 19.6047 13.1677 19.4179C12.8118 18.5478 12.1922 17.8709 11.1406 17.0794C10.9325 16.9228 10.725 16.7732 10.3127 16.4779C10.0888 16.3196 8.50719 15.4572 8.13395 15.232C8.11046 15.2178 8.11046 15.2178 8.08695 15.2035C7.73298 14.9884 7.62042 14.5271 7.83554 14.1731C8.05067 13.8191 8.51201 13.7066 8.86598 13.9217C8.88736 13.9347 8.88736 13.9347 8.90877 13.9476C9.21624 14.1331 10.8699 15.0349 11.1844 15.2572C11.5986 15.5537 11.8203 15.7137 12.0425 15.8809C13.2907 16.8202 14.0774 17.6797 14.5555 18.8488C14.6538 19.0877 15.0057 20.1341 14.9899 20.0892C15.2638 20.8652 15.5071 21.2412 15.5156 21.2412C16.0448 21.2412 16.2882 21.0588 16.4219 20.6791C16.541 20.3409 16.5451 19.867 16.4703 19.528C16.1097 17.873 15.3441 16.3377 14.2448 15.0641C13.8618 14.6205 14.1129 13.9287 14.6912 13.8339C16.5848 13.5237 18.9631 12.8117 19.3713 12.5007C20.2946 11.7869 20.077 10.7791 18.6608 9.92484C18.5482 9.85697 18.4555 9.76072 18.3919 9.64575C18.1643 9.2344 17.9468 8.72954 17.6842 8.0328C17.6084 7.83158 17.5312 7.62109 17.429 7.33845C17.4327 7.34863 17.2315 6.79067 17.1741 6.63269C16.3768 4.44021 15.8017 3.42655 15.3158 3.34184C13.6966 3.06431 7.72781 4.03378 7.20386 4.80641L7.15424 4.8696C7.02574 5.09819 6.7809 5.25262 6.5 5.25262H4.25V12.7526H5.75V6.50262C5.75 6.08841 6.08579 5.75262 6.5 5.75262C6.91421 5.75262 7.25 6.08841 7.25 6.50262V13.5026C7.25 13.9168 6.91421 14.2526 6.5 14.2526H3.5C3.08579 14.2526 2.75 13.9168 2.75 13.5026V4.50262C2.75 4.08841 3.08579 3.75262 3.5 3.75262L6.15011 3.75209C7.57004 2.44851 13.5335 1.51448 15.5713 1.86377Z" fill="#CB4B00"/>
</svg>
