<svg width="24" height="24" viewBox="0 0 24 24" fill="none" xmlns="http://www.w3.org/2000/svg">
<path fill-rule="evenodd" clip-rule="evenodd" d="M15.5156 1.26141C16.698 1.26141 17.4967 1.86002 17.8367 2.82508C18.0592 3.45668 18.0656 4.20624 17.9359 4.79394C17.6123 6.2793 17.004 7.68125 16.15 8.92171C17.9461 9.31259 19.7395 9.89673 20.2887 10.3152C22.1024 11.7172 21.6916 13.8919 19.617 15.2482C19.4584 15.5612 19.2895 15.9637 19.0879 16.4987C19.0149 16.6925 18.9397 16.8973 18.8397 17.1741C18.844 17.1622 18.6421 17.7222 18.5838 17.8825C17.5494 20.727 16.8775 21.9111 15.5692 22.1392C13.5334 22.4881 7.57004 21.5541 6.15011 20.2505L3.5 20.25C3.08579 20.25 2.75 19.9142 2.75 19.5V10.5C2.75 10.0858 3.08579 9.74998 3.5 9.74998H6.5C6.91421 9.74998 7.25 10.0858 7.25 10.5V17.5C7.25 17.9142 6.91421 18.25 6.5 18.25C6.08579 18.25 5.75 17.9142 5.75 17.5V11.25H4.25V18.75H6.5C6.78016 18.75 7.02444 18.9036 7.15321 19.1312C7.17172 19.1515 7.18831 19.1733 7.20386 19.1962C7.72781 19.9688 13.6966 20.9383 15.3137 20.6611C15.8017 20.5761 16.3768 19.5624 17.1741 17.3699C17.2315 17.2119 17.4327 16.654 17.429 16.6642C17.5312 16.3815 17.6084 16.171 17.6842 15.9698C17.9468 15.2731 18.1643 14.7682 18.3919 14.3569C18.4555 14.2419 18.5482 14.1456 18.6608 14.0778C20.077 13.2235 20.2946 12.2157 19.3755 11.5051C18.9631 11.191 16.5848 10.479 14.6912 10.1687C14.1129 10.0739 13.8618 9.38213 14.2448 8.93847C15.3441 7.66493 16.1097 6.12957 16.4707 4.47268C16.5451 4.13565 16.541 3.66166 16.4219 3.32346C16.2882 2.94384 16.0448 2.76141 15.5156 2.76141C15.5071 2.76141 15.2638 3.13737 14.9899 3.91341C15.0057 3.86851 14.6538 4.91486 14.5561 5.15245C14.0774 6.32287 13.2907 7.18239 12.0425 8.12168C11.8203 8.28892 11.5986 8.44889 11.1786 8.74953C10.8699 8.96775 9.21624 9.86952 8.90877 10.055C8.88736 10.0679 8.88736 10.0679 8.86598 10.0809C8.51201 10.296 8.05067 10.1835 7.83554 9.82951C7.62042 9.47554 7.73298 9.0142 8.08695 8.79908C8.11046 8.78481 8.11046 8.78481 8.13395 8.77062C8.50719 8.54545 10.0888 7.68301 10.3069 7.52884C10.725 7.22942 10.9325 7.07978 11.1406 6.92316C12.1922 6.13174 12.8118 5.45481 13.1682 4.58333C13.2445 4.39794 13.5749 3.4156 13.5754 3.41409C14.0814 1.98079 14.5469 1.26141 15.5156 1.26141Z" fill="#CB4B00"/>
</svg>
