<svg width="24" height="24" viewBox="0 0 24 24" fill="none" xmlns="http://www.w3.org/2000/svg">
<path fill-rule="evenodd" clip-rule="evenodd" d="M7.25 20.2777C7.25 20.6919 6.91421 21.0277 6.5 21.0277C6.08579 21.0277 5.75 20.6919 5.75 20.2777V4C5.75 3.53425 6.17007 3.18112 6.62889 3.26116C8.45762 3.58019 10.2604 3.73957 12.0378 3.73957C13.8142 3.73957 15.5907 3.58035 17.3677 3.26177C17.8275 3.17933 18.25 3.53282 18.25 4V11C18.25 11.3524 18.0047 11.6572 17.6605 11.7326C15.7999 12.1402 13.9213 12.3441 12.0256 12.3441C11.224 12.3441 10.438 12.2988 9.69861 12.2234C9.43926 12.197 9.20381 12.1686 8.99623 12.1401C8.86956 12.1227 8.77888 12.1088 8.7282 12.1004C8.31959 12.0325 8.04342 11.6462 8.11134 11.2376C8.17927 10.829 8.56557 10.5528 8.97418 10.6207C9.13491 10.6474 9.43812 10.6891 9.85079 10.7312C10.5424 10.8017 11.2786 10.8441 12.0256 10.8441C13.6133 10.8441 15.1879 10.6925 16.75 10.3892V4.88393C15.1798 5.12099 13.609 5.23957 12.0378 5.23957C10.4592 5.23957 8.86321 5.11988 7.25 4.88069V20.2777Z" fill="#CB4B00"/>
</svg>
