<svg width="24" height="24" viewBox="0 0 24 24" fill="none" xmlns="http://www.w3.org/2000/svg">
<path fill-rule="evenodd" clip-rule="evenodd" d="M16.5 1.75C17.4665 1.75 18.25 2.5335 18.25 3.5V19.5C18.25 20.1904 18.8096 20.75 19.5 20.75C20.1904 20.75 20.75 20.1904 20.75 19.5V5.75H20C19.5858 5.75 19.25 5.41421 19.25 5C19.25 4.58579 19.5858 4.25 20 4.25H21.5C21.9142 4.25 22.25 4.58579 22.25 5V19.5C22.25 21.0188 21.0188 22.25 19.5 22.25H4.5C2.98122 22.25 1.75 21.0188 1.75 19.5V3.5C1.75 2.5335 2.5335 1.75 3.5 1.75H16.5ZM16.5 3.25H3.5C3.36193 3.25 3.25 3.36193 3.25 3.5V19.5C3.25 20.1904 3.80964 20.75 4.5 20.75H17.0499C16.8581 20.375 16.75 19.9501 16.75 19.5V3.5C16.75 3.36193 16.6381 3.25 16.5 3.25ZM8.5 13.75C8.91421 13.75 9.25 14.0858 9.25 14.5C9.25 14.9142 8.91421 15.25 8.5 15.25H5.5C5.08579 15.25 4.75 14.9142 4.75 14.5C4.75 14.0858 5.08579 13.75 5.5 13.75H8.5ZM14.5 13.75C14.9142 13.75 15.25 14.0858 15.25 14.5C15.25 14.9142 14.9142 15.25 14.5 15.25H11.5C11.0858 15.25 10.75 14.9142 10.75 14.5C10.75 14.0858 11.0858 13.75 11.5 13.75H14.5ZM14.5 4.75C14.9142 4.75 15.25 5.08579 15.25 5.5V10.5C15.25 10.9142 14.9142 11.25 14.5 11.25H5.5C5.08579 11.25 4.75 10.9142 4.75 10.5V8.16667C4.75 7.75245 5.08579 7.41667 5.5 7.41667C5.91421 7.41667 6.25 7.75245 6.25 8.16667V9.75H13.75V6.25H5.5C5.08579 6.25 4.75 5.91421 4.75 5.5C4.75 5.08579 5.08579 4.75 5.5 4.75H14.5ZM14.5 17.75C14.9142 17.75 15.25 18.0858 15.25 18.5C15.25 18.9142 14.9142 19.25 14.5 19.25H5.5C5.08579 19.25 4.75 18.9142 4.75 18.5C4.75 18.0858 5.08579 17.75 5.5 17.75H14.5Z" fill="#CB4B00"/>
</svg>
