<svg width="24" height="24" viewBox="0 0 24 24" fill="none" xmlns="http://www.w3.org/2000/svg">
<path fill-rule="evenodd" clip-rule="evenodd" d="M12.8528 8.1223C12.5611 8.62229 12.9217 9.2502 13.5006 9.2502H15.6843L10.6697 17.7124L11.7345 12.6547C11.8326 12.1886 11.477 11.7502 11.0006 11.7502H8.04612L11.0945 2.74058C11.2273 2.34822 11.0168 1.92252 10.6245 1.78977C10.2321 1.65701 9.80642 1.86746 9.67366 2.25983L6.29015 12.2598C6.12562 12.7461 6.48725 13.2502 7.00059 13.2502H10.0763L8.26667 21.8457C8.09191 22.6758 9.21332 23.1124 9.64581 22.3826L17.6458 8.88256C17.9421 8.3826 17.5817 7.7502 17.0006 7.7502H14.8064L17.6484 2.87811C17.9401 2.37811 17.5794 1.75 17.0006 1.75H13.0006C12.5864 1.75 12.2506 2.08599 12.2506 2.5002C12.2506 2.91442 12.5864 3.2502 13.0006 3.2502H15.6948L12.8528 8.1223Z" fill="#CB4B00"/>
</svg>
