<svg width="24" height="24" viewBox="0 0 24 24" fill="none" xmlns="http://www.w3.org/2000/svg">
<path fill-rule="evenodd" clip-rule="evenodd" d="M17.5 15.75C17.9142 15.75 18.25 16.0858 18.25 16.5V18.75H20.5C20.8797 18.75 21.1935 19.0322 21.2432 19.3982L21.25 19.5C21.25 19.9142 20.9142 20.25 20.5 20.25H18.25V22.5C18.25 22.8797 17.9678 23.1935 17.6018 23.2432L17.5 23.25C17.0858 23.25 16.75 22.9142 16.75 22.5V20.25H14.5C14.1203 20.25 13.8065 19.9678 13.7568 19.6018L13.75 19.5C13.75 19.0858 14.0858 18.75 14.5 18.75H16.75V16.5C16.75 16.1203 17.0322 15.8065 17.3982 15.7568L17.5 15.75ZM18.6176 1.75C19.5415 1.75 20.25 2.55294 20.25 3.5V14C20.25 14.4142 19.9142 14.75 19.5 14.75C19.0858 14.75 18.75 14.4142 18.75 14V3.5C18.75 3.34249 18.6684 3.25 18.6176 3.25H5.38235C5.33161 3.25 5.25 3.34249 5.25 3.5V19.9431C6.32869 19.1572 7.82795 19.2673 8.78033 20.2197C9.17779 20.6171 9.82221 20.6171 10.2197 20.2197C10.5288 19.9105 10.8993 19.6892 11.3035 19.5711C11.7011 19.455 12.1176 19.6832 12.2337 20.0808C12.3498 20.4784 12.1216 20.8949 11.724 21.011C11.5635 21.0579 11.4127 21.148 11.2803 21.2803C10.2971 22.2636 8.70292 22.2636 7.71967 21.2803C7.27827 20.8389 6.57557 20.8 6.08813 21.19L4.96852 22.0857C4.47745 22.4785 3.75 22.1289 3.75 21.5V3.5C3.75 2.55294 4.45848 1.75 5.38235 1.75H18.6176ZM8 13.75C8.41421 13.75 8.75 14.0858 8.75 14.5C8.75 14.9142 8.41421 15.25 8 15.25H7.5C7.08579 15.25 6.75 14.9142 6.75 14.5C6.75 14.0858 7.08579 13.75 7.5 13.75H8ZM15.15 13.75C15.4814 13.75 15.75 14.0858 15.75 14.5C15.75 14.9142 15.4814 15.25 15.15 15.25H10.35C10.0186 15.25 9.75 14.9142 9.75 14.5C9.75 14.0858 10.0186 13.75 10.35 13.75H15.15ZM8 9.75C8.41421 9.75 8.75 10.0858 8.75 10.5C8.75 10.9142 8.41421 11.25 8 11.25H7.5C7.08579 11.25 6.75 10.9142 6.75 10.5C6.75 10.0858 7.08579 9.75 7.5 9.75H8ZM15 9.75C15.4142 9.75 15.75 10.0858 15.75 10.5C15.75 10.9142 15.4142 11.25 15 11.25H10.5C10.0858 11.25 9.75 10.9142 9.75 10.5C9.75 10.0858 10.0858 9.75 10.5 9.75H15ZM8 5.75C8.41421 5.75 8.75 6.08579 8.75 6.5C8.75 6.91421 8.41421 7.25 8 7.25H7.5C7.08579 7.25 6.75 6.91421 6.75 6.5C6.75 6.08579 7.08579 5.75 7.5 5.75H8ZM16.5 5.75C16.9142 5.75 17.25 6.08579 17.25 6.5C17.25 6.91421 16.9142 7.25 16.5 7.25H10.5C10.0858 7.25 9.75 6.91421 9.75 6.5C9.75 6.08579 10.0858 5.75 10.5 5.75H16.5Z" fill="#CB4B00"/>
</svg>
