<svg width="24" height="24" viewBox="0 0 24 24" fill="none" xmlns="http://www.w3.org/2000/svg">
<path fill-rule="evenodd" clip-rule="evenodd" d="M20.5 3.75C21.4665 3.75 22.25 4.5335 22.25 5.5V18.5C22.25 19.4665 21.4665 20.25 20.5 20.25H3.5C2.5335 20.25 1.75 19.4665 1.75 18.5V8.75C1.75 8.33579 2.08579 8 2.5 8C2.91421 8 3.25 8.33579 3.25 8.75V18.5C3.25 18.6381 3.36193 18.75 3.5 18.75H20.5C20.6381 18.75 20.75 18.6381 20.75 18.5V5.5C20.75 5.36193 20.6381 5.25 20.5 5.25H3.5C3.36193 5.25 3.25 5.36193 3.25 5.5V6.25C3.25 6.66421 2.91421 7 2.5 7C2.08579 7 1.75 6.66421 1.75 6.25V5.5C1.75 4.5335 2.5335 3.75 3.5 3.75H20.5ZM15.9859 12.4287L19.5128 15.4287C19.8283 15.6971 19.8665 16.1704 19.5981 16.4859C19.3297 16.8015 18.8564 16.8397 18.5409 16.5713L15.5019 13.9862L12.4881 16.5694C12.1736 16.839 11.7001 16.8026 11.4306 16.4881C11.161 16.1736 11.1974 15.7001 11.5119 15.4306L15.0119 12.4306C15.292 12.1905 15.705 12.1897 15.9859 12.4287ZM11.0303 9.96967L12.5303 11.4697C12.8232 11.7626 12.8232 12.2374 12.5303 12.5303C12.2374 12.8232 11.7626 12.8232 11.4697 12.5303L10.5 11.5607L6.03033 16.0303C5.73744 16.3232 5.26256 16.3232 4.96967 16.0303C4.67678 15.7374 4.67678 15.2626 4.96967 14.9697L9.96967 9.96967C10.2626 9.67678 10.7374 9.67678 11.0303 9.96967ZM17 7.25C17.9665 7.25 18.75 8.0335 18.75 9C18.75 9.9665 17.9665 10.75 17 10.75C16.0335 10.75 15.25 9.9665 15.25 9C15.25 8.0335 16.0335 7.25 17 7.25Z" fill="#CB4B00"/>
</svg>
