<svg width="24" height="24" viewBox="0 0 24 24" fill="none" xmlns="http://www.w3.org/2000/svg">
<path d="M14.7372 3.78869C15.1301 3.91968 15.3425 4.34442 15.2115 4.73737L10.2115 19.7374C10.0805 20.1303 9.65579 20.3427 9.26283 20.2117C8.86987 20.0807 8.6575 19.656 8.78849 19.263L13.7885 4.26303C13.9195 3.87007 14.3442 3.65771 14.7372 3.78869ZM17.5303 6.46987L22.5303 11.4699C22.8232 11.7628 22.8232 12.2376 22.5303 12.5305L17.5303 17.5305C17.2374 17.8234 16.7626 17.8234 16.4697 17.5305C16.1768 17.2376 16.1768 16.7628 16.4697 16.4699L20.9393 12.0002L16.4697 7.53053C16.1768 7.23764 16.1768 6.76277 16.4697 6.46987C16.7626 6.17698 17.2374 6.17698 17.5303 6.46987ZM7.53033 6.46987C7.82322 6.76277 7.82322 7.23764 7.53033 7.53053L3.06066 12.0002L7.53033 16.4699C7.82322 16.7628 7.82322 17.2376 7.53033 17.5305C7.23744 17.8234 6.76256 17.8234 6.46967 17.5305L1.46967 12.5305C1.17678 12.2376 1.17678 11.7628 1.46967 11.4699L6.46967 6.46987C6.76256 6.17698 7.23744 6.17698 7.53033 6.46987Z" fill="#CB4B00"/>
</svg>
