<svg width="24" height="24" viewBox="0 0 24 24" fill="none" xmlns="http://www.w3.org/2000/svg">
<g clip-path="url(#clip0_2_1641)">
<path fill-rule="evenodd" clip-rule="evenodd" d="M16.1427 1.00098L16.6605 1.21019C17.3589 1.49237 17.7984 2.18979 17.7516 2.94158L17.6811 4.07356C18.5037 4.66225 19.2256 5.37365 19.8252 6.18154L20.9567 6.0912C21.7075 6.03125 22.4125 6.45849 22.7068 7.15187L22.925 7.66595C23.2194 8.35932 23.037 9.16324 22.4723 9.66172L21.6213 10.4129C21.7859 11.4054 21.7962 12.4188 21.6482 13.4196L22.5115 14.1552C23.0848 14.6437 23.2812 15.4443 22.999 16.1427L22.7898 16.6605C22.5076 17.3589 21.8102 17.7984 21.0584 17.7516L19.9264 17.6811C19.3378 18.5037 18.6264 19.2256 17.8185 19.8252L17.9088 20.9567C17.9688 21.7075 17.5415 22.4125 16.8481 22.7068L16.3341 22.925C15.6407 23.2194 14.8368 23.037 14.3383 22.4723L13.5871 21.6213C12.5946 21.7859 11.5812 21.7962 10.5805 21.6482L9.84485 22.5115C9.3563 23.0848 8.55569 23.2812 7.85729 22.999L7.33947 22.7898C6.64107 22.5076 6.20158 21.8102 6.24842 21.0584L6.31894 19.9264C5.49629 19.3377 4.77441 18.6263 4.17483 17.8185L3.04335 17.9088C2.29249 17.9688 1.5875 17.5415 1.29318 16.8481L1.07497 16.334C0.780647 15.6407 0.963035 14.8368 1.52775 14.3383L2.37879 13.5871C2.31669 13.1822 2.59143 12.8014 2.99667 12.7338C3.40523 12.6656 3.79172 12.9415 3.85992 13.3501C3.88007 13.4708 3.90291 13.5911 3.92842 13.7109C3.98481 13.9756 3.89415 14.2502 3.6912 14.4294L2.52041 15.4628C2.43973 15.5341 2.41368 15.6489 2.45572 15.748L2.67394 16.262C2.71599 16.3611 2.8167 16.4221 2.92396 16.4136L4.48068 16.2893C4.75052 16.2677 5.01104 16.3933 5.16232 16.6178C5.77835 17.5319 6.57121 18.3144 7.50209 18.918C7.72927 19.0653 7.85941 19.3237 7.84257 19.5939L7.74552 21.1517C7.73883 21.2591 7.80161 21.3587 7.90138 21.399L8.4192 21.6082C8.51897 21.6486 8.63334 21.6205 8.70313 21.5386L9.71543 20.3506C9.89105 20.1445 10.1641 20.0491 10.4299 20.1009C11.5188 20.3133 12.6327 20.3012 13.7109 20.0716C13.9756 20.0152 14.2502 20.1059 14.4294 20.3088L15.4628 21.4796C15.5341 21.5603 15.6489 21.5863 15.748 21.5443L16.262 21.3261C16.3611 21.284 16.4221 21.1833 16.4136 21.076L16.2893 19.5193C16.2677 19.2495 16.3933 18.989 16.6178 18.8377C17.5319 18.2217 18.3144 17.4288 18.918 16.4979C19.0653 16.2707 19.3237 16.1406 19.5939 16.1574L21.1517 16.2545C21.2591 16.2612 21.3587 16.1984 21.399 16.0986L21.6082 15.5808C21.6486 15.481 21.6205 15.3667 21.5386 15.2969L20.3506 14.2846C20.1445 14.109 20.0491 13.8359 20.1009 13.5701C20.3133 12.4812 20.3012 11.3673 20.0716 10.2891C20.0152 10.0244 20.1059 9.74977 20.3088 9.57062L21.4796 8.53716C21.5603 8.46595 21.5863 8.3511 21.5443 8.25205L21.3261 7.73796C21.284 7.63891 21.1833 7.57787 21.076 7.58644L19.5193 7.71073C19.2495 7.73228 18.989 7.60673 18.8377 7.38224C18.2217 6.46811 17.4288 5.68563 16.4979 5.08198C16.2707 4.93466 16.1406 4.67632 16.1574 4.40607L16.2545 2.84831C16.2612 2.74091 16.1984 2.64128 16.0986 2.60097L15.5808 2.39176C15.481 2.35145 15.3667 2.3795 15.2969 2.46141L14.2846 3.64939C14.109 3.85548 13.8359 3.95092 13.5701 3.89908C12.4812 3.68666 11.3673 3.69877 10.2892 3.92841C10.0244 3.98481 9.74977 3.89414 9.57063 3.69119L8.53717 2.5204C8.46595 2.43973 8.35111 2.41367 8.25206 2.45572L7.73797 2.67393C7.63892 2.71598 7.57788 2.81669 7.58645 2.92396L7.71074 4.48067C7.73229 4.75052 7.60674 5.01103 7.38225 5.16232C6.46812 5.77834 5.68564 6.5712 5.08199 7.50208C4.93467 7.72926 4.67633 7.8594 4.40608 7.84256L2.84832 7.74551C2.74092 7.73882 2.64129 7.8016 2.60098 7.90137L2.39177 8.41919C2.35146 8.51896 2.37951 8.63333 2.46142 8.70313L3.6494 9.71543C3.85549 9.89104 3.95092 10.1641 3.89908 10.4299C3.87012 10.5783 3.84532 10.7273 3.82467 10.8768C3.76795 11.2871 3.38935 11.5737 2.97904 11.517C2.56873 11.4603 2.28208 11.0817 2.33879 10.6714C2.34298 10.6411 2.34732 10.6107 2.3518 10.5804L1.48854 9.84484C0.915207 9.35629 0.718818 8.55568 1.00099 7.85728L1.2102 7.33946C1.49238 6.64106 2.1898 6.20157 2.94159 6.24841L4.07357 6.31894C4.66226 5.49628 5.37366 4.7744 6.18155 4.17482L6.09121 3.04334C6.03125 2.29248 6.4585 1.58749 7.15187 1.29318L7.66596 1.07496C8.35933 0.78064 9.16325 0.963027 9.66173 1.52775L10.4129 2.37872C11.4054 2.21408 12.4189 2.2038 13.4196 2.3518L14.1552 1.48853C14.6437 0.9152 15.4443 0.71881 16.1427 1.00098ZM12 6.25C13.0161 6.25 13.9954 6.51456 14.8584 7.00985C15.2177 7.21603 15.3418 7.6744 15.1356 8.03365C14.9295 8.39291 14.4711 8.51701 14.1118 8.31083C13.4745 7.94509 12.7524 7.75 12 7.75C9.6528 7.75 7.75001 9.65279 7.75001 12C7.75001 14.3472 9.6528 16.25 12 16.25C14.3472 16.25 16.25 14.3472 16.25 12C16.25 11.2719 16.0673 10.572 15.7237 9.94948C15.5235 9.58686 15.6552 9.13061 16.0178 8.93042C16.3804 8.73023 16.8367 8.86191 17.0369 9.22454C17.5023 10.0676 17.75 11.0167 17.75 12C17.75 15.1756 15.1756 17.75 12 17.75C8.82437 17.75 6.25001 15.1756 6.25001 12C6.25001 8.82436 8.82437 6.25 12 6.25Z" fill="#CB4B00"/>
</g>
<defs>
<clipPath id="clip0_2_1641">
<rect width="24" height="24" fill="white"/>
</clipPath>
</defs>
</svg>
