<svg width="24" height="24" viewBox="0 0 24 24" fill="none" xmlns="http://www.w3.org/2000/svg">
<path d="M13.5 1.75L13.5174 1.7502C13.5375 1.75066 13.5575 1.75192 13.5774 1.75398L13.5 1.75C13.5468 1.75 13.5927 1.75429 13.6372 1.76251C13.648 1.76458 13.6597 1.76701 13.6714 1.76973C13.6948 1.77517 13.7173 1.78158 13.7393 1.78898C13.7491 1.7923 13.7595 1.79603 13.7698 1.79999C13.7891 1.80745 13.8075 1.81544 13.8255 1.82414C13.84 1.83106 13.8546 1.8387 13.869 1.84686C13.8865 1.85681 13.9037 1.86746 13.9203 1.87876C13.9307 1.88569 13.9411 1.89318 13.9514 1.90097C13.9539 1.90285 13.9561 1.90456 13.9583 1.90627L14.0303 1.96967L19.0303 6.96967C19.0549 6.99427 19.0778 7.02057 19.0988 7.04838L19.0303 6.96967C19.0648 7.00411 19.0952 7.04107 19.1215 7.07995C19.1325 7.09634 19.1432 7.11349 19.1531 7.13108C19.1613 7.14538 19.1689 7.16001 19.1761 7.17483C19.1846 7.19249 19.1926 7.21091 19.1998 7.22969C19.204 7.24054 19.2077 7.25091 19.2112 7.26134C19.2184 7.28272 19.2248 7.30517 19.2302 7.32803C19.233 7.34027 19.2354 7.35197 19.2376 7.3637C19.2413 7.38322 19.2442 7.40388 19.2463 7.4248C19.2478 7.4409 19.2489 7.45624 19.2495 7.47159C19.2498 7.48042 19.25 7.49019 19.25 7.5V21.5C19.25 21.9142 18.9142 22.25 18.5 22.25H5.5C5.08579 22.25 4.75 21.9142 4.75 21.5V5.5C4.75 5.08579 5.08579 4.75 5.5 4.75C5.91421 4.75 6.25 5.08579 6.25 5.5V20.75H17.75V8.25H13.5C13.0858 8.25 12.75 7.91421 12.75 7.5V3.25H5.5C5.08579 3.25 4.75 2.91421 4.75 2.5C4.75 2.08579 5.08579 1.75 5.5 1.75H13.5ZM9 15.75C9.41421 15.75 9.75 16.0858 9.75 16.5C9.75 16.9142 9.41421 17.25 9 17.25H8C7.58579 17.25 7.25 16.9142 7.25 16.5C7.25 16.0858 7.58579 15.75 8 15.75H9ZM16 15.75C16.4142 15.75 16.75 16.0858 16.75 16.5C16.75 16.9142 16.4142 17.25 16 17.25H11C10.5858 17.25 10.25 16.9142 10.25 16.5C10.25 16.0858 10.5858 15.75 11 15.75H16ZM9 11.75C9.41421 11.75 9.75 12.0858 9.75 12.5C9.75 12.9142 9.41421 13.25 9 13.25H8C7.58579 13.25 7.25 12.9142 7.25 12.5C7.25 12.0858 7.58579 11.75 8 11.75H9ZM16 11.75C16.4142 11.75 16.75 12.0858 16.75 12.5C16.75 12.9142 16.4142 13.25 16 13.25H11C10.5858 13.25 10.25 12.9142 10.25 12.5C10.25 12.0858 10.5858 11.75 11 11.75H16ZM14.25 4.311V6.75H16.689L14.25 4.311Z" fill="#CB4B00"/>
</svg>
