<svg width="24" height="24" viewBox="0 0 24 24" fill="none" xmlns="http://www.w3.org/2000/svg">
<path fill-rule="evenodd" clip-rule="evenodd" d="M19.1756 8.00637C20.2102 6.97184 20.3259 4.56044 19.1756 3.41017C18.0254 2.25991 15.614 2.37564 14.5794 3.41017L4.67995 13.3097C3.61029 14.3793 3.76355 18.4037 5.38706 20.0272C7.01056 21.6507 11.0349 21.804 12.1046 20.7343L19.8224 13.0165C20.1153 12.7236 20.5902 12.7236 20.8831 13.0165C21.176 13.3094 21.176 13.7842 20.8831 14.0771L13.1652 21.7949C11.491 23.4692 6.51839 23.2798 4.3264 21.0878C2.1344 18.8958 1.94502 13.9233 3.61929 12.249L13.5188 2.34951C15.1176 0.750719 18.4763 0.589513 20.2363 2.34951C21.9963 4.10951 21.8351 7.46823 20.2363 9.06703L11.0439 18.2594C10.9628 18.3406 10.8641 18.402 10.7555 18.439C9.45002 18.8838 8.32572 18.7232 7.50838 17.9059C6.69103 17.0885 6.53042 15.9642 6.97523 14.6588C7.01224 14.5501 7.07368 14.4515 7.15482 14.3703L15.6401 5.88505C15.933 5.59215 16.4079 5.59215 16.7008 5.88505C16.9937 6.17794 16.9937 6.65281 16.7008 6.94571L8.34413 15.3023C8.13262 16.0173 8.22144 16.4976 8.56904 16.8452C8.91663 17.1928 9.39695 17.2816 10.1119 17.0701L19.1756 8.00637Z" fill="#CB4B00"/>
</svg>
