<svg width="24" height="24" viewBox="0 0 24 24" fill="none" xmlns="http://www.w3.org/2000/svg">
<path fill-rule="evenodd" clip-rule="evenodd" d="M9 6.75C9.16228 6.75 9.32018 6.80263 9.45 6.9L13.25 9.75H18.5C18.9142 9.75 19.25 10.0858 19.25 10.5V21.5C19.25 21.9142 18.9142 22.25 18.5 22.25H2.5C2.08579 22.25 1.75 21.9142 1.75 21.5V11.5929C1.75 11.1787 2.08579 10.8429 2.5 10.8429C2.91421 10.8429 3.25 11.1787 3.25 11.5929V20.75H17.75V11.25H13C12.8377 11.25 12.6798 11.1974 12.55 11.1L8.75 8.25H2.5C2.08579 8.25 1.75 7.91421 1.75 7.5C1.75 7.08579 2.08579 6.75 2.5 6.75H9ZM10 2.75C10.1623 2.75 10.3202 2.80263 10.45 2.9L14.25 5.75H21.5C21.9142 5.75 22.25 6.08579 22.25 6.5V18.5C22.25 18.9142 21.9142 19.25 21.5 19.25C21.0858 19.25 20.75 18.9142 20.75 18.5V7.25H14C13.8377 7.25 13.6798 7.19737 13.55 7.1L9.75 4.25H4.5C4.08579 4.25 3.75 3.91421 3.75 3.5C3.75 3.08579 4.08579 2.75 4.5 2.75H10Z" fill="#CB4B00"/>
</svg>
