<svg width="24" height="24" viewBox="0 0 24 24" fill="none" xmlns="http://www.w3.org/2000/svg">
<path fill-rule="evenodd" clip-rule="evenodd" d="M15 0.75C16.2426 0.75 17.25 1.75736 17.25 3V3.75H19.5C19.8797 3.75 20.1935 4.03215 20.2432 4.39823L20.25 4.5V21.5C20.25 21.9142 19.9142 22.25 19.5 22.25H4.5C4.49323 22.25 4.48648 22.2499 4.47976 22.2497C4.46222 22.2493 4.4445 22.2483 4.42693 22.2466C4.41103 22.2449 4.39542 22.2429 4.37996 22.2404C4.36489 22.2381 4.34984 22.2352 4.33495 22.2318C4.31497 22.2273 4.29529 22.222 4.27595 22.216C4.26745 22.2133 4.25874 22.2104 4.25009 22.2073C4.22815 22.1996 4.20712 22.191 4.18658 22.1816C4.17599 22.1767 4.16489 22.1712 4.15394 22.1655C4.13733 22.1569 4.12146 22.1479 4.10596 22.1383C4.09308 22.1302 4.0803 22.1218 4.06779 22.113C4.05422 22.1034 4.04098 22.0934 4.02809 22.083C4.01626 22.0733 4.00479 22.0635 3.99362 22.0532C3.98162 22.0423 3.96986 22.0308 3.95848 22.0189C3.94598 22.0059 3.93457 21.9931 3.9236 21.98C3.9145 21.969 3.90551 21.9575 3.89685 21.9458C3.88636 21.9318 3.87657 21.9175 3.86726 21.903C3.85973 21.8911 3.8523 21.8786 3.84522 21.866C3.83655 21.8506 3.82855 21.8351 3.82108 21.8192C3.81442 21.805 3.80804 21.7902 3.80212 21.7753C3.79627 21.7604 3.79091 21.7454 3.78602 21.7302C3.78086 21.7143 3.77625 21.6981 3.77219 21.6818C3.76263 21.6431 3.756 21.6032 3.75259 21.5623L3.76196 21.6341C3.7541 21.5906 3.75 21.5458 3.75 21.5L3.755 21.581L3.75259 21.5623C3.75141 21.5481 3.75063 21.534 3.75025 21.52L3.75 21.5V4.5C3.75 4.12176 4.03165 3.80271 4.40697 3.75579L11.3936 2.88246C11.8047 2.83108 12.1795 3.12263 12.2309 3.53364C12.2823 3.94466 11.9907 4.3195 11.5797 4.37087L5.25 5.16209V20.684L14.6938 19.8979C15.251 19.8515 15.6882 19.4136 15.744 18.8684L15.75 18.75C15.75 18.1977 15.3023 17.75 14.75 17.75H14C13.5858 17.75 13.25 17.4142 13.25 17V1.5C13.25 1.08579 13.5858 0.75 14 0.75H15ZM18.75 5.25H17.25V18.5L17.2447 18.5856L17.25 18.75C17.25 19.545 16.8988 20.2634 16.338 20.7514L18.75 20.75V5.25ZM15 2.25H14.75V16.25C15.1059 16.25 15.4444 16.3244 15.7508 16.4584L15.75 3C15.75 2.58579 15.4142 2.25 15 2.25Z" fill="#CB4B00"/>
</svg>
