<svg width="24" height="24" viewBox="0 0 24 24" fill="none" xmlns="http://www.w3.org/2000/svg">
<path fill-rule="evenodd" clip-rule="evenodd" d="M18.6176 1.75C19.5415 1.75 20.25 2.55294 20.25 3.5V4.5C20.25 4.91421 19.9142 5.25 19.5 5.25C19.0858 5.25 18.75 4.91421 18.75 4.5V3.5C18.75 3.34249 18.6684 3.25 18.6176 3.25H5.38235C5.33161 3.25 5.25 3.34249 5.25 3.5V19.9431C6.32869 19.1572 7.82795 19.2673 8.78033 20.2197C9.17779 20.6171 9.82221 20.6171 10.2197 20.2197C11.2029 19.2364 12.7971 19.2364 13.7803 20.2197C14.1778 20.6171 14.8222 20.6171 15.2197 20.2197C16.1721 19.2673 17.6713 19.1572 18.75 19.9431V7.5C18.75 7.08579 19.0858 6.75 19.5 6.75C19.9142 6.75 20.25 7.08579 20.25 7.5V21.5C20.25 22.1289 19.5226 22.4785 19.0315 22.0857L17.9119 21.19C17.4244 20.8 16.7217 20.8389 16.2803 21.2803C15.2971 22.2636 13.7029 22.2636 12.7197 21.2803C12.3222 20.8829 11.6778 20.8829 11.2803 21.2803C10.2971 22.2636 8.70292 22.2636 7.71967 21.2803C7.27827 20.8389 6.57557 20.8 6.08813 21.19L4.96852 22.0857C4.47745 22.4785 3.75 22.1289 3.75 21.5V3.5C3.75 2.55294 4.45848 1.75 5.38235 1.75H18.6176ZM8 13.75C8.41421 13.75 8.75 14.0858 8.75 14.5C8.75 14.9142 8.41421 15.25 8 15.25H7.5C7.08579 15.25 6.75 14.9142 6.75 14.5C6.75 14.0858 7.08579 13.75 7.5 13.75H8ZM16.5 13.75C16.9142 13.75 17.25 14.0858 17.25 14.5C17.25 14.9142 16.9142 15.25 16.5 15.25H10.5C10.0858 15.25 9.75 14.9142 9.75 14.5C9.75 14.0858 10.0858 13.75 10.5 13.75H16.5ZM8 9.75C8.41421 9.75 8.75 10.0858 8.75 10.5C8.75 10.9142 8.41421 11.25 8 11.25H7.5C7.08579 11.25 6.75 10.9142 6.75 10.5C6.75 10.0858 7.08579 9.75 7.5 9.75H8ZM15 9.75C15.4142 9.75 15.75 10.0858 15.75 10.5C15.75 10.9142 15.4142 11.25 15 11.25H10.5C10.0858 11.25 9.75 10.9142 9.75 10.5C9.75 10.0858 10.0858 9.75 10.5 9.75H15ZM8 5.75C8.41421 5.75 8.75 6.08579 8.75 6.5C8.75 6.91421 8.41421 7.25 8 7.25H7.5C7.08579 7.25 6.75 6.91421 6.75 6.5C6.75 6.08579 7.08579 5.75 7.5 5.75H8ZM16.5 5.75C16.9142 5.75 17.25 6.08579 17.25 6.5C17.25 6.91421 16.9142 7.25 16.5 7.25H10.5C10.0858 7.25 9.75 6.91421 9.75 6.5C9.75 6.08579 10.0858 5.75 10.5 5.75H16.5Z" fill="#CB4B00"/>
</svg>
