<svg width="24" height="24" viewBox="0 0 24 24" fill="none" xmlns="http://www.w3.org/2000/svg">
<g clip-path="url(#clip0_2_1518)">
<path fill-rule="evenodd" clip-rule="evenodd" d="M12 0.75C14.1861 0.75 16.2814 1.37539 18.0809 2.53352C18.4292 2.75769 18.5298 3.22178 18.3056 3.57009C18.0815 3.9184 17.6174 4.01903 17.2691 3.79486C15.7099 2.7914 13.896 2.25 12 2.25C6.61522 2.25 2.25 6.61522 2.25 12C2.25 17.3848 6.61522 21.75 12 21.75C17.3848 21.75 21.75 17.3848 21.75 12C21.75 10.0961 21.2041 8.27508 20.1928 6.7118C19.9678 6.36401 20.0674 5.89969 20.4152 5.67471C20.7629 5.44972 21.2273 5.54928 21.4522 5.89706C22.6194 7.70127 23.25 9.80486 23.25 12C23.25 18.2132 18.2132 23.25 12 23.25C5.7868 23.25 0.75 18.2132 0.75 12C0.75 5.7868 5.7868 0.75 12 0.75ZM12 10.25C12.4142 10.25 12.75 10.5858 12.75 11V17.5C12.75 17.9142 12.4142 18.25 12 18.25C11.5858 18.25 11.25 17.9142 11.25 17.5V11C11.25 10.5858 11.5858 10.25 12 10.25ZM12 5.75C12.4142 5.75 12.75 6.08579 12.75 6.5V7.5C12.75 7.91421 12.4142 8.25 12 8.25C11.5858 8.25 11.25 7.91421 11.25 7.5V6.5C11.25 6.08579 11.5858 5.75 12 5.75Z" fill="#CB4B00"/>
</g>
<defs>
<clipPath id="clip0_2_1518">
<rect width="24" height="24" fill="white"/>
</clipPath>
</defs>
</svg>
