<svg width="24" height="24" viewBox="0 0 24 24" fill="none" xmlns="http://www.w3.org/2000/svg">
<g clip-path="url(#clip0_2_1515)">
<path d="M4.75216 16.4194C4.45926 16.1265 4.45926 15.6517 4.75216 15.3588C5.04505 15.0659 5.51992 15.0659 5.81282 15.3588L7.58058 17.1265C7.87348 17.4194 8.34835 17.4194 8.64124 17.1265C8.93414 16.8336 8.93414 16.3588 8.64124 16.0659L6.87348 14.2981C6.58058 14.0052 6.58058 13.5303 6.87348 13.2374C7.16637 12.9445 7.64124 12.9445 7.93414 13.2374L9.7019 15.0052C10.5806 15.8839 10.5806 17.3085 9.7019 18.1872C8.82322 19.0659 7.3986 19.0659 6.51992 18.1872L4.75216 16.4194ZM8.28769 12.8839C7.9948 12.591 7.9948 12.1161 8.28769 11.8232C8.58058 11.5303 9.05546 11.5303 9.34835 11.8232L11.1161 13.591C11.409 13.8839 11.8839 13.8839 12.1768 13.591C12.4697 13.2981 12.4697 12.8232 12.1768 12.5303L10.409 10.7626C10.1161 10.4697 10.1161 9.9948 10.409 9.7019C10.7019 9.40901 11.1768 9.40901 11.4697 9.7019L13.2374 11.4697C14.1161 12.3483 14.1161 13.773 13.2374 14.6517C12.3588 15.5303 10.9341 15.5303 10.0555 14.6517L8.28769 12.8839ZM13.9445 6.16637C14.2374 5.87348 14.7123 5.87348 15.0052 6.16637C15.2981 6.45926 15.2981 6.93414 15.0052 7.22703L13.591 8.64124C13.4934 8.73887 13.4934 8.89716 13.591 8.9948C13.6886 9.09243 13.8469 9.09243 13.9445 8.9948L14.6517 8.28769C15.3351 7.60427 16.4431 7.60427 17.1265 8.28769C17.8099 8.97111 17.8099 10.0791 17.1265 10.7626L15.7123 12.1768C15.4194 12.4697 14.9445 12.4697 14.6517 12.1768C14.3588 11.8839 14.3588 11.409 14.6517 11.1161L16.0659 9.7019C16.1635 9.60427 16.1635 9.44598 16.0659 9.34835C15.9682 9.25072 15.8099 9.25072 15.7123 9.34835L15.0052 10.0555C14.3218 10.7389 13.2137 10.7389 12.5303 10.0555C11.8469 9.37204 11.8469 8.264 12.5303 7.58058L13.9445 6.16637ZM15.3588 5.81282C15.0659 5.51992 15.0659 5.04505 15.3588 4.75216C15.6517 4.45926 16.1265 4.45926 16.4194 4.75216L19.2478 7.58058C19.5407 7.87348 19.5407 8.34835 19.2478 8.64124C18.955 8.93414 18.4801 8.93414 18.1872 8.64124L15.3588 5.81282ZM20.2951 7.21084L19.6738 6.92819C19.2967 6.75666 19.1301 6.31197 19.3017 5.93494C19.4732 5.55791 19.9179 5.39131 20.2949 5.56284L21.4038 6.06732C21.6955 6.20003 21.8707 6.50341 21.8398 6.82238L21.5868 9.43122L23.1103 11.5641C23.2966 11.8248 23.2966 12.1752 23.1103 12.4359L21.5868 14.5688L21.8398 17.1776C21.8707 17.4966 21.6955 17.8 21.4038 17.9327L19.018 19.018L17.9327 21.4038C17.8 21.6955 17.4966 21.8707 17.1776 21.8398L14.5688 21.5868L12.4359 23.1103C12.1752 23.2966 11.8248 23.2966 11.5641 23.1103L9.43122 21.5868L6.82238 21.8398C6.50341 21.8707 6.20003 21.6955 6.06732 21.4038L4.98195 19.018L2.59616 17.9327C2.30446 17.8 2.12931 17.4966 2.16023 17.1776L2.41317 14.5688L0.8897 12.4359C0.703433 12.1752 0.703433 11.8248 0.8897 11.5641L2.41317 9.43122L2.16023 6.82238C2.12931 6.50341 2.30446 6.20003 2.59616 6.06732L4.98195 4.98195L6.06732 2.59616C6.20003 2.30446 6.50341 2.12931 6.82238 2.16023L9.43122 2.41317L11.5641 0.8897C11.8248 0.703433 12.1752 0.703433 12.4359 0.8897L14.5688 2.41317L17.1776 2.16023C17.4966 2.12931 17.8 2.30446 17.9327 2.59616L18.4344 3.69898C18.6059 4.07601 18.4393 4.5207 18.0623 4.69222C17.6852 4.86375 17.2406 4.69715 17.069 4.32012L16.7892 3.70493L14.4339 3.93328C14.2535 3.95076 14.073 3.90238 13.9256 3.79708L12 2.42168L10.0744 3.79708C9.92701 3.90238 9.74645 3.95076 9.56613 3.93328L7.21084 3.70493L6.23095 5.85885C6.15593 6.02375 6.02375 6.15593 5.85885 6.23095L3.70493 7.21084L3.93328 9.56613C3.95076 9.74645 3.90238 9.92701 3.79708 10.0744L2.42168 12L3.79708 13.9256C3.90238 14.073 3.95076 14.2535 3.93328 14.4339L3.70493 16.7892L5.85885 17.769C6.02375 17.8441 6.15593 17.9762 6.23095 18.1412L7.21084 20.2951L9.56613 20.0667C9.74645 20.0492 9.92701 20.0976 10.0744 20.2029L12 21.5783L13.9256 20.2029C14.073 20.0976 14.2535 20.0492 14.4339 20.0667L16.7892 20.2951L17.769 18.1412C17.8441 17.9762 17.9762 17.8441 18.1412 17.769L20.2951 16.7892L20.0667 14.4339C20.0492 14.2535 20.0976 14.073 20.2029 13.9256L21.5783 12L20.2029 10.0744C20.0976 9.92701 20.0492 9.74645 20.0667 9.56613L20.2951 7.21084Z" fill="#CB4B00"/>
</g>
<defs>
<clipPath id="clip0_2_1515">
<rect width="24" height="24" fill="white"/>
</clipPath>
</defs>
</svg>
