<svg width="24" height="24" viewBox="0 0 24 24" fill="none" xmlns="http://www.w3.org/2000/svg">
<g clip-path="url(#clip0_2_1513)">
<path fill-rule="evenodd" clip-rule="evenodd" d="M11.571 0.8897C11.8318 0.703433 12.1821 0.703433 12.4429 0.8897L14.5757 2.41317L17.1846 2.16023C17.5036 2.12931 17.8069 2.30446 17.9396 2.59616L18.4413 3.69898C18.6129 4.07601 18.4463 4.5207 18.0692 4.69222C17.6922 4.86375 17.2475 4.69715 17.076 4.32012L16.7961 3.70493L14.4408 3.93328C14.2605 3.95076 14.08 3.90238 13.9325 3.79708L12.007 2.42168L10.0814 3.79708C9.93398 3.90238 9.75342 3.95076 9.5731 3.93328L7.2178 3.70493L6.23792 5.85885C6.1629 6.02375 6.03072 6.15593 5.86581 6.23095L3.7119 7.21084L3.94025 9.56613C3.95773 9.74645 3.90935 9.92701 3.80405 10.0744L2.42864 12L3.80405 13.9256C3.90935 14.073 3.95773 14.2535 3.94025 14.4339L3.7119 16.7892L5.86581 17.769C6.03072 17.8441 6.1629 17.9762 6.23792 18.1412L7.2178 20.2951L9.5731 20.0667C9.75342 20.0492 9.93398 20.0976 10.0814 20.2029L12.007 21.5783L13.9325 20.2029C14.08 20.0976 14.2605 20.0492 14.4408 20.0667L16.7961 20.2951L17.776 18.1412C17.851 17.9762 17.9832 17.8441 18.1481 17.769L20.302 16.7892L20.0737 14.4339C20.0562 14.2535 20.1046 14.073 20.2099 13.9256L21.5853 12L20.2099 10.0744C20.1046 9.92701 20.0562 9.74645 20.0737 9.56613L20.302 7.21084L19.6807 6.92819C19.3037 6.75666 19.1371 6.31197 19.3086 5.93494C19.4801 5.55791 19.9248 5.39131 20.3019 5.56284L21.4108 6.06732C21.7025 6.20003 21.8777 6.50341 21.8467 6.82238L21.5938 9.43122L23.1173 11.5641C23.3035 11.8248 23.3035 12.1752 23.1173 12.4359L21.5938 14.5688L21.8467 17.1776C21.8777 17.4966 21.7025 17.8 21.4108 17.9327L19.025 19.018L17.9396 21.4038C17.8069 21.6955 17.5036 21.8707 17.1846 21.8398L14.5757 21.5868L12.4429 23.1103C12.1821 23.2966 11.8318 23.2966 11.571 23.1103L9.43818 21.5868L6.82934 21.8398C6.51037 21.8707 6.20699 21.6955 6.07429 21.4038L4.98892 19.018L2.60313 17.9327C2.31143 17.8 2.13627 17.4966 2.1672 17.1776L2.42013 14.5688L0.896666 12.4359C0.710399 12.1752 0.710399 11.8248 0.896666 11.5641L2.42013 9.43122L2.1672 6.82238C2.13627 6.50341 2.31143 6.20003 2.60313 6.06732L4.98892 4.98195L6.07429 2.59616C6.20699 2.30446 6.51037 2.12931 6.82934 2.16023L9.43818 2.41317L11.571 0.8897ZM10.1843 10.1619C10.543 9.95476 11.0017 10.0777 11.2088 10.4364L13.2088 13.9005C13.5706 14.5271 12.923 15.2521 12.2597 14.963L9.78865 13.8862L10.6656 15.4051C10.8727 15.7638 10.7498 16.2225 10.3911 16.4296C10.0323 16.6367 9.57365 16.5138 9.36654 16.1551L7.35084 12.6638C6.98908 12.0372 7.6367 11.3122 8.29998 11.6012L10.771 12.6781L9.90981 11.1864C9.7027 10.8277 9.82561 10.369 10.1843 10.1619ZM15.6965 7.7278L15.7533 7.81251L16.2176 8.61663C16.7074 9.465 16.5819 10.4998 15.9796 11.2042L16.4543 12.0266C16.9543 12.8926 15.6553 13.6426 15.1553 12.7766L14.6805 11.9543C13.8262 12.1132 12.93 11.7639 12.4177 11.0205L12.3205 10.8666L11.8562 10.0625C11.6491 9.70379 11.772 9.2451 12.1307 9.03799C12.4596 8.84814 12.8724 8.9356 13.0984 9.2278L13.1553 9.31251L13.6195 10.1166C13.8266 10.4754 14.2853 10.5983 14.644 10.3911C14.9729 10.2013 15.1035 9.80005 14.9635 9.45819L14.9186 9.36663L14.4543 8.56251C14.2472 8.20379 14.3701 7.7451 14.7288 7.53799C15.0576 7.34814 15.4705 7.4356 15.6965 7.7278Z" fill="#CB4B00"/>
</g>
<defs>
<clipPath id="clip0_2_1513">
<rect width="24" height="24" fill="white"/>
</clipPath>
</defs>
</svg>
