<svg width="24" height="24" viewBox="0 0 24 24" fill="none" xmlns="http://www.w3.org/2000/svg">
<g clip-path="url(#clip0_2_1514)">
<path fill-rule="evenodd" clip-rule="evenodd" d="M12.4359 0.8897L14.5688 2.41317L17.1776 2.16023C17.4966 2.12931 17.8 2.30446 17.9327 2.59616L19.018 4.98195L21.4038 6.06732C21.6955 6.20003 21.8707 6.50341 21.8398 6.82238L21.5868 9.43122L23.1103 11.5641C23.2966 11.8248 23.2966 12.1752 23.1103 12.4359L21.5868 14.5688L21.8398 17.1776C21.8707 17.4966 21.6955 17.8 21.4038 17.9327L19.018 19.018L17.9327 21.4038C17.8 21.6955 17.4966 21.8707 17.1776 21.8398L14.5688 21.5868L12.4359 23.1103C12.1752 23.2966 11.8248 23.2966 11.5641 23.1103L9.43122 21.5868L6.82238 21.8398C6.50341 21.8707 6.20003 21.6955 6.06732 21.4038L4.98195 19.018L2.59616 17.9327C2.30446 17.8 2.12931 17.4966 2.16023 17.1776L2.41317 14.5688L0.8897 12.4359C0.703433 12.1752 0.703433 11.8248 0.8897 11.5641L2.41317 9.43122L2.16023 6.82238C2.12931 6.50341 2.30446 6.20003 2.59616 6.06732L3.69898 5.56562C4.07601 5.39409 4.5207 5.56069 4.69222 5.93772C4.86375 6.31475 4.69715 6.75945 4.32012 6.93097L3.70493 7.21084L3.93328 9.56613C3.95076 9.74645 3.90238 9.92701 3.79708 10.0744L2.42168 12L3.79708 13.9256C3.90238 14.073 3.95076 14.2535 3.93328 14.4339L3.70493 16.7892L5.85885 17.769C6.02375 17.8441 6.15593 17.9762 6.23095 18.1412L7.21084 20.2951L9.56613 20.0667C9.74645 20.0492 9.92701 20.0976 10.0744 20.2029L12 21.5783L13.9256 20.2029C14.073 20.0976 14.2535 20.0492 14.4339 20.0667L16.7892 20.2951L17.769 18.1412C17.8441 17.9762 17.9762 17.8441 18.1412 17.769L20.2951 16.7892L20.0667 14.4339C20.0492 14.2535 20.0976 14.073 20.2029 13.9256L21.5783 12L20.2029 10.0744C20.0976 9.92701 20.0492 9.74645 20.0667 9.56613L20.2951 7.21084L18.1412 6.23095C17.9762 6.15593 17.8441 6.02375 17.769 5.85885L16.7892 3.70493L14.4339 3.93328C14.2535 3.95076 14.073 3.90238 13.9256 3.79708L12 2.42168L10.0744 3.79708C9.92701 3.90238 9.74645 3.95076 9.56613 3.93328L7.21084 3.70493L6.92819 4.32624C6.75666 4.70327 6.31197 4.86987 5.93494 4.69834C5.55791 4.52682 5.39131 4.08213 5.56284 3.7051L6.06732 2.59616C6.20003 2.30446 6.50341 2.12931 6.82238 2.16023L9.43122 2.41317L11.5641 0.8897C11.8248 0.703433 12.1752 0.703433 12.4359 0.8897ZM15.125 6.58734C15.4837 6.79445 15.6066 7.25314 15.3995 7.61186L9.89952 17.1381C9.69241 17.4969 9.23372 17.6198 8.875 17.4127C8.51628 17.2056 8.39337 16.7469 8.60048 16.3881L14.1005 6.86186C14.3076 6.50314 14.7663 6.38023 15.125 6.58734ZM14.9641 12.616C16.2067 12.616 17.2141 13.6234 17.2141 14.866C17.2141 16.1087 16.2067 17.116 14.9641 17.116C13.7215 17.116 12.7141 16.1087 12.7141 14.866C12.7141 13.6234 13.7215 12.616 14.9641 12.616ZM14.9641 14.116C14.5499 14.116 14.2141 14.4518 14.2141 14.866C14.2141 15.2802 14.5499 15.616 14.9641 15.616C15.3783 15.616 15.7141 15.2802 15.7141 14.866C15.7141 14.4518 15.3783 14.116 14.9641 14.116ZM9.5359 6.01795C10.7785 6.01795 11.7859 7.02531 11.7859 8.26795C11.7859 9.51059 10.7785 10.5179 9.5359 10.5179C8.29326 10.5179 7.2859 9.51059 7.2859 8.26795C7.2859 7.02531 8.29326 6.01795 9.5359 6.01795ZM9.5359 7.51795C9.12169 7.51795 8.7859 7.85374 8.7859 8.26795C8.7859 8.68216 9.12169 9.01795 9.5359 9.01795C9.95011 9.01795 10.2859 8.68216 10.2859 8.26795C10.2859 7.85374 9.95011 7.51795 9.5359 7.51795Z" fill="#CB4B00"/>
</g>
<defs>
<clipPath id="clip0_2_1514">
<rect width="24" height="24" fill="white"/>
</clipPath>
</defs>
</svg>
