<svg width="24" height="24" viewBox="0 0 24 24" fill="none" xmlns="http://www.w3.org/2000/svg">
<g clip-path="url(#clip0_2_1512)">
<path fill-rule="evenodd" clip-rule="evenodd" d="M12 0.75C14.1861 0.75 16.2814 1.37539 18.0809 2.53352C18.4292 2.75769 18.5298 3.22178 18.3056 3.57009C18.0815 3.9184 17.6174 4.01903 17.2691 3.79486C15.7099 2.7914 13.896 2.25 12 2.25C6.61522 2.25 2.25 6.61522 2.25 12C2.25 17.3848 6.61522 21.75 12 21.75C17.3848 21.75 21.75 17.3848 21.75 12C21.75 10.0961 21.2041 8.27508 20.1928 6.7118C19.9678 6.36401 20.0674 5.89969 20.4152 5.67471C20.7629 5.44972 21.2273 5.54928 21.4522 5.89706C22.6194 7.70127 23.25 9.80486 23.25 12C23.25 18.2132 18.2132 23.25 12 23.25C5.7868 23.25 0.75 18.2132 0.75 12C0.75 5.7868 5.7868 0.75 12 0.75ZM11.9429 14.4726C12.3356 14.4726 12.6528 14.5959 12.8944 14.8426C13.1361 15.0893 13.2569 15.3889 13.2569 15.7413C13.2569 16.1038 13.1361 16.4084 12.8944 16.6551C12.6528 16.9018 12.3356 17.0251 11.9429 17.0251C11.5502 17.0251 11.233 16.9018 10.9914 16.6551C10.7497 16.4084 10.6289 16.1038 10.6289 15.7413C10.6289 15.3889 10.7497 15.0893 10.9914 14.8426C11.233 14.5959 11.5502 14.4726 11.9429 14.4726ZM12.109 5.9994C12.542 5.9994 12.9448 6.05478 13.3173 6.16554C13.6899 6.2763 14.0121 6.4374 14.284 6.64886C14.5559 6.86031 14.7698 7.11707 14.9259 7.41915C15.082 7.72122 15.16 8.05854 15.16 8.4311C15.16 8.80366 15.092 9.1309 14.9561 9.41284C14.8202 9.69478 14.6515 9.9465 14.4501 10.168C14.2487 10.3895 14.0373 10.5909 13.8158 10.7722C13.5942 10.9534 13.3979 11.1246 13.2267 11.2857C13.0455 11.4569 12.907 11.6255 12.8114 11.7917C12.7157 11.9578 12.6628 12.197 12.6528 12.5091C12.6427 12.5897 12.6201 12.6551 12.5848 12.7055C12.5496 12.7558 12.4866 12.791 12.396 12.8112L11.5804 12.9471C11.3992 12.9773 11.2985 12.8917 11.2783 12.6904L11.2179 11.8899C11.1978 11.6079 11.2305 11.3587 11.3161 11.1422C11.4017 10.9257 11.5175 10.7294 11.6635 10.5532C11.8095 10.377 11.9681 10.2133 12.1393 10.0623C12.3104 9.91126 12.4715 9.76023 12.6226 9.60919C12.7736 9.45815 12.902 9.3046 13.0077 9.14853C13.1134 8.99245 13.1663 8.81373 13.1663 8.61234C13.1663 8.32034 13.0555 8.0963 12.834 7.94023C12.6125 7.78415 12.3104 7.70612 11.9278 7.70612C11.5754 7.70612 11.2355 7.76905 10.9083 7.89492C10.581 8.02078 10.2563 8.1844 9.93411 8.38579C9.75286 8.49655 9.6119 8.45124 9.5112 8.24985L9.05809 7.29832C9.00774 7.2077 8.99012 7.12714 9.00523 7.05666C9.02033 6.98617 9.07823 6.91569 9.17892 6.84521C9.52127 6.61361 9.94669 6.41475 10.4552 6.24861C10.9637 6.08247 11.515 5.9994 12.109 5.9994Z" fill="#CB4B00"/>
</g>
<defs>
<clipPath id="clip0_2_1512">
<rect width="24" height="24" fill="white"/>
</clipPath>
</defs>
</svg>
