<svg width="24" height="24" viewBox="0 0 24 24" fill="none" xmlns="http://www.w3.org/2000/svg">
<g clip-path="url(#clip0_2_1517)">
<path fill-rule="evenodd" clip-rule="evenodd" d="M12.7824 0.962602C13.1211 1.13194 13.3957 1.40655 13.5651 1.74523L23.0374 20.6899C23.4696 21.5543 23.1192 22.6055 22.2548 23.0377C22.0118 23.1592 21.7438 23.2225 21.4721 23.2225H2.52749C1.56099 23.2225 0.777489 22.439 0.777489 21.4725C0.777489 21.2008 0.840743 20.9329 0.962241 20.6899L6.95943 8.6955C7.14467 8.32501 7.59517 8.17484 7.96566 8.36009C8.33614 8.54533 8.48631 8.99583 8.30107 9.36632L2.30388 21.3607C2.28653 21.3954 2.27749 21.4337 2.27749 21.4725C2.27749 21.6106 2.38942 21.7225 2.52749 21.7225H21.4721C21.5109 21.7225 21.5492 21.7135 21.5839 21.6961C21.7074 21.6344 21.7575 21.4842 21.6957 21.3607L12.2234 2.41605C12.1992 2.36766 12.16 2.32843 12.1116 2.30424C11.9881 2.2425 11.838 2.29255 11.7762 2.41605L9.82036 6.32773C9.63512 6.69822 9.18461 6.84839 8.81413 6.66315C8.44364 6.4779 8.29348 6.0274 8.47872 5.65691L10.4346 1.74523C10.8668 0.880763 11.918 0.53037 12.7824 0.962602ZM11.9999 16.7225C12.4141 16.7225 12.7499 17.0583 12.7499 17.4725V18.4725C12.7499 18.8867 12.4141 19.2225 11.9999 19.2225C11.5857 19.2225 11.2499 18.8867 11.2499 18.4725V17.4725C11.2499 17.0583 11.5857 16.7225 11.9999 16.7225ZM11.9999 8.72249C12.4141 8.72249 12.7499 9.05828 12.7499 9.47249V14.4725C12.7499 14.8867 12.4141 15.2225 11.9999 15.2225C11.5857 15.2225 11.2499 14.8867 11.2499 14.4725V9.47249C11.2499 9.05828 11.5857 8.72249 11.9999 8.72249Z" fill="#CB4B00"/>
</g>
<defs>
<clipPath id="clip0_2_1517">
<rect width="24" height="24" fill="white"/>
</clipPath>
</defs>
</svg>
