<svg width="24" height="24" viewBox="0 0 24 24" fill="none" xmlns="http://www.w3.org/2000/svg">
<path fill-rule="evenodd" clip-rule="evenodd" d="M12 1.75C13.9917 1.75 15.9009 2.31983 17.5404 3.37502C17.8887 3.5992 17.9893 4.06328 17.7652 4.41159C17.541 4.7599 17.0769 4.86054 16.7286 4.63637C15.3294 3.73584 13.7016 3.25 12 3.25C9.83978 3.25 7.86239 4.03283 6.33605 5.33027C6.40676 5.36484 6.47214 5.41148 6.53033 5.46967L18.5303 17.4697C18.5885 17.5279 18.6352 17.5932 18.6702 17.663C19.9672 16.1376 20.75 14.1602 20.75 12C20.75 10.2913 20.2601 8.65716 19.3526 7.25424C19.1276 6.90645 19.2271 6.44213 19.5749 6.21714C19.9227 5.99216 20.387 6.09171 20.612 6.4395C21.6754 8.08335 22.25 10 22.25 12C22.25 17.6609 17.6609 22.25 12 22.25C6.33908 22.25 1.75 17.6609 1.75 12C1.75 6.33908 6.33908 1.75 12 1.75ZM5.32977 6.33705C4.03075 7.86763 3.25 9.84264 3.25 12C3.25 16.8325 7.16751 20.75 12 20.75C14.1602 20.75 16.1376 19.9672 17.6639 18.6697C17.5932 18.6352 17.5279 18.5885 17.4697 18.5303L5.46967 6.53033C5.41148 6.47214 5.36484 6.40676 5.32977 6.33705Z" fill="#CB4B00"/>
</svg>
