<svg width="24" height="24" viewBox="0 0 24 24" fill="none" xmlns="http://www.w3.org/2000/svg">
<path fill-rule="evenodd" clip-rule="evenodd" d="M12 1.75C13.9917 1.75 15.9009 2.31983 17.5404 3.37502C17.8887 3.5992 17.9893 4.06328 17.7652 4.41159C17.541 4.7599 17.0769 4.86054 16.7286 4.63637C15.3294 3.73584 13.7016 3.25 12 3.25C7.16751 3.25 3.25 7.16751 3.25 12C3.25 16.8325 7.16751 20.75 12 20.75C16.8325 20.75 20.75 16.8325 20.75 12C20.75 10.2913 20.2601 8.65716 19.3526 7.25424C19.1276 6.90645 19.2271 6.44213 19.5749 6.21714C19.9227 5.99216 20.387 6.09171 20.612 6.4395C21.6754 8.08335 22.25 10 22.25 12C22.25 17.6609 17.6609 22.25 12 22.25C6.33908 22.25 1.75 17.6609 1.75 12C1.75 6.33908 6.33908 1.75 12 1.75ZM16.9797 7.95967C17.2726 7.66678 17.7474 7.66678 18.0403 7.95967C18.3332 8.25257 18.3332 8.72744 18.0403 9.02033L10.5303 16.5303C10.2374 16.8232 9.76256 16.8232 9.46967 16.5303L5.50092 12.5616C5.20803 12.2687 5.20803 11.7938 5.50092 11.5009C5.79381 11.208 6.26869 11.208 6.56158 11.5009L10 14.9393L16.9797 7.95967Z" fill="#CB4B00"/>
</svg>
