<svg width="24" height="24" viewBox="0 0 24 24" fill="none" xmlns="http://www.w3.org/2000/svg">
<path fill-rule="evenodd" clip-rule="evenodd" d="M17.5004 14.7483C17.9146 14.7483 18.2504 15.0841 18.2504 15.4983L18.25 17.748L20.5004 17.7483C20.9146 17.7483 21.2504 18.0841 21.2504 18.4983C21.2504 18.9125 20.9146 19.2483 20.5004 19.2483L18.25 19.248L18.2504 21.4983C18.2504 21.9125 17.9146 22.2483 17.5004 22.2483C17.0862 22.2483 16.7504 21.9125 16.7504 21.4983L16.75 19.248L14.5004 19.2483C14.0862 19.2483 13.7504 18.9125 13.7504 18.4983C13.7504 18.0841 14.0862 17.7483 14.5004 17.7483L16.75 17.748L16.7504 15.4983C16.7504 15.0841 17.0862 14.7483 17.5004 14.7483ZM11.9986 2.25C14.9003 2.25112 17.2504 4.60207 17.2504 7.50173V8.24827C17.2504 8.29453 17.2462 8.33981 17.2382 8.38376C17.2461 8.42692 17.2502 8.4722 17.2502 8.51846C17.2496 8.93268 16.9134 9.26802 16.4992 9.26747L2.96127 9.24954L5.53861 19.5589C5.56643 19.6702 5.66643 19.7483 5.78115 19.7483H13.1875C13.6017 19.7483 13.9375 20.0841 13.9375 20.4983C13.9375 20.9125 13.6017 21.2483 13.1875 21.2483H5.78115C4.97813 21.2483 4.27816 20.7017 4.0834 19.9227L1.27276 8.68017C1.15432 8.20641 1.51303 7.74762 2.00136 7.74827L6.75 7.754L6.75037 7.49827C6.75037 4.59973 9.1001 2.25 11.9986 2.25ZM19.0052 7.74827L22.0052 7.76749C22.4912 7.7706 22.846 8.22814 22.7279 8.69965L21.1035 15.1869C21.0029 15.5887 20.5956 15.8328 20.1938 15.7322C19.792 15.6316 19.5478 15.2243 19.6484 14.8225L21.0409 9.26134L18.9956 9.24825C18.5814 9.2456 18.2477 8.90767 18.2504 8.49347C18.253 8.07926 18.591 7.74563 19.0052 7.74827ZM12.0001 3.75C9.92853 3.75 8.25037 5.42816 8.25037 7.49827L8.25 7.756L15.75 7.766L15.7504 7.50173C15.7504 5.43027 14.0715 3.7508 12.0001 3.75Z" fill="#CB4B00"/>
</svg>
