<svg width="24" height="24" viewBox="0 0 24 24" fill="none" xmlns="http://www.w3.org/2000/svg">
<path d="M11.9983 2.25C14.9 2.25112 17.25 4.60207 17.25 7.50173V8.24827C17.25 8.29453 17.2458 8.33981 17.2378 8.38376C17.2457 8.42692 17.2499 8.4722 17.2498 8.51846C17.2492 8.93268 16.913 9.26802 16.4988 9.26747L2.96091 9.24954L5.53825 19.5589C5.56607 19.6702 5.66606 19.7483 5.78078 19.7483H18.2192C18.3339 19.7483 18.4339 19.6702 18.4618 19.5589L21.0394 9.24827H19C18.5858 9.24827 18.25 8.91248 18.25 8.49827C18.25 8.08405 18.5858 7.74827 19 7.74827H22C22.4879 7.74827 22.846 8.20681 22.7276 8.68017L19.917 19.9227C19.7222 20.7017 19.0222 21.2483 18.2192 21.2483H5.78078C4.97776 21.2483 4.27779 20.7017 4.08303 19.9227L1.2724 8.68017C1.15396 8.20641 1.51266 7.74762 2.001 7.74827L6.74963 7.754L6.75 7.49827C6.75 4.59973 9.09974 2.25 11.9983 2.25ZM11.9997 3.75C9.92816 3.75 8.25 5.42816 8.25 7.49827L8.24963 7.756L15.7496 7.766L15.75 7.50173C15.75 5.43027 14.0712 3.7508 11.9997 3.75Z" fill="#CB4B00"/>
</svg>
