<svg width="24" height="24" viewBox="0 0 24 24" fill="none" xmlns="http://www.w3.org/2000/svg">
<path fill-rule="evenodd" clip-rule="evenodd" d="M17.5 9.5C17.5 9.08579 17.1642 8.75 16.75 8.75H5.75C5.33579 8.75 5 9.08579 5 9.5C5 9.91421 5.33579 10.25 5.75 10.25H16.75C17.1642 10.25 17.5 9.91421 17.5 9.5ZM3.28033 1.96967C3.13968 1.82902 2.94891 1.75 2.75 1.75H0.75C0.335786 1.75 0 2.08579 0 2.5C0 2.91421 0.335786 3.25 0.75 3.25H2.43934L5.21967 6.03033C5.36032 6.17098 5.55109 6.25 5.75 6.25H20.25C20.6642 6.25 21 5.91421 21 5.5C21 5.08579 20.6642 4.75 20.25 4.75H6.06066L3.28033 1.96967Z" fill="#CB4B00"/>
<path fill-rule="evenodd" clip-rule="evenodd" d="M5.85318 14.25C4.90682 14.5288 4.5 15.0658 4.5 16C4.5 16.9342 4.90682 17.4712 5.85318 17.75H11.7997V19.2503H8.69771C8.88935 19.6252 8.99744 20.05 8.99744 20.5C8.99744 22.0188 7.76622 23.25 6.24744 23.25C4.72865 23.25 3.49744 22.0188 3.49744 20.5C3.49744 19.7731 3.7795 19.112 4.24014 18.6203C3.42917 18.033 3 17.1427 3 16C3 14.3448 3.90051 13.2191 5.55588 12.7756L5.75 12.75H13.5V14.25H5.85318ZM4.99744 20.5C4.99744 19.8096 5.55708 19.25 6.24744 19.25C6.93779 19.25 7.49744 19.8096 7.49744 20.5C7.49744 21.1904 6.93779 21.75 6.24744 21.75C5.55708 21.75 4.99744 21.1904 4.99744 20.5Z" fill="#CB4B00"/>
<path fill-rule="evenodd" clip-rule="evenodd" d="M17.5 24C21.0899 24 24 21.0899 24 17.5C24 13.9101 21.0899 11 17.5 11C13.9101 11 11 13.9101 11 17.5C11 21.0899 13.9101 24 17.5 24ZM17.5 22.5C20.2614 22.5 22.5 20.2614 22.5 17.5C22.5 14.7386 20.2614 12.5 17.5 12.5C14.7386 12.5 12.5 14.7386 12.5 17.5C12.5 20.2614 14.7386 22.5 17.5 22.5Z" fill="#CB4B00"/>
<path d="M21.25 17.5C21.25 17.0858 20.9142 16.75 20.5 16.75H14.5C14.0858 16.75 13.75 17.0858 13.75 17.5C13.75 17.9142 14.0858 18.25 14.5 18.25H20.5C20.9142 18.25 21.25 17.9142 21.25 17.5Z" fill="#CB4B00"/>
<path d="M17.5 13.75C17.0858 13.75 16.75 14.0858 16.75 14.5V20.5C16.75 20.9142 17.0858 21.25 17.5 21.25C17.9142 21.25 18.25 20.9142 18.25 20.5V14.5C18.25 14.0858 17.9142 13.75 17.5 13.75Z" fill="#CB4B00"/>
</svg>
