<svg width="24" height="24" viewBox="0 0 24 24" fill="none" xmlns="http://www.w3.org/2000/svg">
<path fill-rule="evenodd" clip-rule="evenodd" d="M15.25 12.75C15.6642 12.75 16 13.0858 16 13.5C16 13.9142 15.6642 14.25 15.25 14.25H7.35318C6.40682 14.5288 6 15.0658 6 16C6 16.9342 6.40682 17.4712 7.35318 17.75H15.75C17.2688 17.75 18.5 18.9812 18.5 20.5C18.5 22.0188 17.2688 23.25 15.75 23.25C14.2312 23.25 13 22.0188 13 20.5C13 20.05 13.1081 19.6252 13.2997 19.2503H10.1977C10.3893 19.6252 10.4974 20.05 10.4974 20.5C10.4974 22.0188 9.26622 23.25 7.74744 23.25C6.22865 23.25 4.99744 22.0188 4.99744 20.5C4.99744 19.7731 5.2795 19.112 5.74014 18.6203C4.92917 18.033 4.5 17.1427 4.5 16C4.5 14.3448 5.40051 13.2191 7.05588 12.7756L7.25 12.75H15.25ZM15.75 19.25C15.0596 19.25 14.5 19.8096 14.5 20.5C14.5 21.1904 15.0596 21.75 15.75 21.75C16.4404 21.75 17 21.1904 17 20.5C17 19.8096 16.4404 19.25 15.75 19.25ZM7.74744 19.25C7.05708 19.25 6.49744 19.8096 6.49744 20.5C6.49744 21.1904 7.05708 21.75 7.74744 21.75C8.43779 21.75 8.99744 21.1904 8.99744 20.5C8.99744 19.8096 8.43779 19.25 7.74744 19.25ZM18.25 8.75C18.6642 8.75 19 9.08579 19 9.5C19 9.91421 18.6642 10.25 18.25 10.25H7.25C6.83579 10.25 6.5 9.91421 6.5 9.5C6.5 9.08579 6.83579 8.75 7.25 8.75H18.25ZM4.25 1.75C4.44891 1.75 4.63968 1.82902 4.78033 1.96967L7.56066 4.75H21.75C22.1642 4.75 22.5 5.08579 22.5 5.5C22.5 5.91421 22.1642 6.25 21.75 6.25H7.25C7.05109 6.25 6.86032 6.17098 6.71967 6.03033L3.93934 3.25H2.25C1.83579 3.25 1.5 2.91421 1.5 2.5C1.5 2.08579 1.83579 1.75 2.25 1.75H4.25Z" fill="#CB4B00"/>
</svg>
