<svg width="24" height="24" viewBox="0 0 24 24" fill="none" xmlns="http://www.w3.org/2000/svg">
<path fill-rule="evenodd" clip-rule="evenodd" d="M12.9931 17.6487C13.0545 18.099 12.7045 18.5 12.25 18.5L7.41288 18.5007C7.07406 19.9337 5.78655 21 4.25 21C2.45507 21 1 19.5449 1 17.75C1 15.9551 2.45507 14.5 4.25 14.5C5.78691 14.5 7.07466 15.5668 7.41312 17.0003L8.46634 17L4.86936 10.6183C4.84778 10.58 4.82992 10.5406 4.81567 10.5005L4.25 10.5C3.83579 10.5 3.5 10.1642 3.5 9.75C3.5 9.33579 3.83579 9 4.25 9H6.25C6.66421 9 7 9.33579 7 9.75C7 10.076 6.79195 10.3535 6.50137 10.4568L10.188 17H11.3908L10.0953 7.5H9.25C8.83579 7.5 8.5 7.16421 8.5 6.75C8.5 6.33579 8.83579 6 9.25 6H10.75C11.1251 6 11.4424 6.27705 11.4931 6.64866L12.359 13H21.75C22.2727 13 22.6241 13.5157 22.4605 13.991L22.4208 14.0854L20.4208 18.0854C20.2938 18.3395 20.0341 18.5 19.75 18.5L18.4887 18.5008C18.362 19.902 17.1842 21 15.75 21C14.2312 21 13 19.7688 13 18.25C13 16.7312 14.2312 15.5 15.75 15.5C16.8188 15.5 17.7451 16.1097 18.2003 17.0003L19.2865 17L20.5365 14.5H12.564L12.9931 17.6487ZM4.25 16C3.2835 16 2.5 16.7835 2.5 17.75C2.5 18.7165 3.2835 19.5 4.25 19.5C4.94776 19.5 5.55015 19.0916 5.83119 18.5008L4.25 18.5C3.83579 18.5 3.5 18.1642 3.5 17.75C3.5 17.3358 3.83579 17 4.25 17L5.83166 17.0001C5.55083 16.4088 4.94816 16 4.25 16ZM15.75 17C15.0596 17 14.5 17.5596 14.5 18.25C14.5 18.9404 15.0596 19.5 15.75 19.5C16.4404 19.5 17 18.9404 17 18.25C17 17.5596 16.4404 17 15.75 17Z" fill="#CB4B00"/>
</svg>
