<svg width="24" height="24" viewBox="0 0 24 24" fill="none" xmlns="http://www.w3.org/2000/svg">
<path fill-rule="evenodd" clip-rule="evenodd" d="M3.75 13C4.16421 13 4.5 13.3358 4.5 13.75V17L4.79972 17.0003C5.25486 16.1097 6.18123 15.5 7.25 15.5C8.76878 15.5 10 16.7312 10 18.25C10 19.7688 8.76878 21 7.25 21C5.81576 21 4.63797 19.902 4.51128 18.5008L3.75 18.5C3.33579 18.5 3 18.1642 3 17.75V13.75C3 13.3358 3.33579 13 3.75 13ZM19.25 7C21.2749 7 22.5 8.59155 22.5 10.75V17.75C22.5 18.1642 22.1642 18.5 21.75 18.5L20.9887 18.5008C20.862 19.902 19.6842 21 18.25 21C16.8158 21 15.638 19.902 15.5113 18.5008L11.75 18.5C11.3358 18.5 11 18.1642 11 17.75C11 17.3358 11.3358 17 11.75 17L15.7997 17.0003C16.2549 16.1097 17.1812 15.5 18.25 15.5C19.3188 15.5 20.2451 16.1097 20.7003 17.0003L21 17V10.75C21 9.34694 20.3481 8.5 19.25 8.5H16.793C16.3788 8.5 16.043 8.16421 16.043 7.75C16.043 7.33579 16.3788 7 16.793 7H19.25ZM7.25 17C6.55964 17 6 17.5596 6 18.25C6 18.9404 6.55964 19.5 7.25 19.5C7.94036 19.5 8.5 18.9404 8.5 18.25C8.5 17.5596 7.94036 17 7.25 17ZM18.25 17C17.5596 17 17 17.5596 17 18.25C17 18.9404 17.5596 19.5 18.25 19.5C18.9404 19.5 19.5 18.9404 19.5 18.25C19.5 17.5596 18.9404 17 18.25 17ZM12.75 5C14.2688 5 15.5 6.23122 15.5 7.75V13.75C15.5 14.1642 15.1642 14.5 14.75 14.5C14.3358 14.5 14 14.1642 14 13.75V7.75C14 7.05964 13.4404 6.5 12.75 6.5H2.5V6.75C2.5 7.44036 3.05964 8 3.75 8H7.75C8.16421 8 8.5 8.33579 8.5 8.75C8.5 9.16421 8.16421 9.5 7.75 9.5H3.75C3.66545 9.5 3.5818 9.49618 3.49919 9.48872L3.5 9.75C3.5 10.4404 4.05964 11 4.75 11H9.75C10.1642 11 10.5 11.3358 10.5 11.75C10.5 12.1642 10.1642 12.5 9.75 12.5H4.75C3.23122 12.5 2 11.2688 2 9.75V9.25C2 9.13454 2.02609 9.02518 2.07269 8.92748C1.42048 8.42693 1 7.63757 1 6.75V5.75C1 5.33579 1.33579 5 1.75 5H12.75Z" fill="#CB4B00"/>
</svg>
