<svg width="24" height="24" viewBox="0 0 24 24" fill="none" xmlns="http://www.w3.org/2000/svg">
<path fill-rule="evenodd" clip-rule="evenodd" d="M7.25 15.5C8.76878 15.5 10 16.7312 10 18.25C10 19.7688 8.76878 21 7.25 21C5.81576 21 4.63797 19.902 4.51128 18.5008L3.75 18.5C3.33579 18.5 3 18.1642 3 17.75V16.25C3 15.8358 3.33579 15.5 3.75 15.5C4.16421 15.5 4.5 15.8358 4.5 16.25V17L4.79972 17.0003C5.25486 16.1097 6.18123 15.5 7.25 15.5ZM19.25 7C21.2749 7 22.5 8.59155 22.5 10.75V17.75C22.5 18.1642 22.1642 18.5 21.75 18.5L20.9887 18.5008C20.862 19.902 19.6842 21 18.25 21C16.8158 21 15.638 19.902 15.5113 18.5008L11.75 18.5C11.3358 18.5 11 18.1642 11 17.75C11 17.3358 11.3358 17 11.75 17L15.7997 17.0003C16.2549 16.1097 17.1812 15.5 18.25 15.5C19.3188 15.5 20.2451 16.1097 20.7003 17.0003L21 17V10.75C21 9.34694 20.3481 8.5 19.25 8.5H16.793C16.3788 8.5 16.043 8.16421 16.043 7.75C16.043 7.33579 16.3788 7 16.793 7H19.25ZM7.25 17C6.55964 17 6 17.5596 6 18.25C6 18.9404 6.55964 19.5 7.25 19.5C7.94036 19.5 8.5 18.9404 8.5 18.25C8.5 17.5596 7.94036 17 7.25 17ZM18.25 17C17.5596 17 17 17.5596 17 18.25C17 18.9404 17.5596 19.5 18.25 19.5C18.9404 19.5 19.5 18.9404 19.5 18.25C19.5 17.5596 18.9404 17 18.25 17ZM3.75 13C4.16421 13 4.5 13.3358 4.5 13.75C4.5 14.1642 4.16421 14.5 3.75 14.5H3.65564C3.24143 14.5 2.90564 14.1642 2.90564 13.75C2.90564 13.3358 3.24143 13 3.65564 13H3.75ZM14.75 5C15.1642 5 15.5 5.33579 15.5 5.75V13.6482C15.5 14.0624 15.1642 14.3982 14.75 14.3982C14.3358 14.3982 14 14.0624 14 13.6482V6.5H4.5V7.25C4.5 7.66421 4.16421 8 3.75 8C3.33579 8 3 7.66421 3 7.25V5.75C3 5.33579 3.33579 5 3.75 5H14.75ZM3.75 11C4.16421 11 4.5 11.3358 4.5 11.75C4.5 12.1642 4.16421 12.5 3.75 12.5H2.75C2.33579 12.5 2 12.1642 2 11.75C2 11.3358 2.33579 11 2.75 11H3.75ZM3.75 9C4.16421 9 4.5 9.33579 4.5 9.75C4.5 10.1642 4.16421 10.5 3.75 10.5H1.75C1.33579 10.5 1 10.1642 1 9.75C1 9.33579 1.33579 9 1.75 9H3.75Z" fill="#CB4B00"/>
</svg>
