<svg width="24" height="24" viewBox="0 0 24 24" fill="none" xmlns="http://www.w3.org/2000/svg">
<path d="M13.4076 5.87443L14.8254 7.83721C14.956 8.01819 14.9162 8.2711 14.7368 8.40241L14.2389 8.76608C14.0589 8.89739 13.8074 8.85743 13.6768 8.67645L12.7161 7.34679V9.00244C12.7161 9.22624 12.5355 9.40721 12.3135 9.40721H11.6986C11.4766 9.40721 11.2967 9.22624 11.2967 9.00244V5.87443H10.3445C10.327 5.87481 10.3094 5.875 10.2917 5.875C8.95514 5.875 7.86728 4.7817 7.86728 3.43778C7.86728 2.09386 8.95514 1 10.2917 1C10.9605 1 11.567 1.27388 12.0061 1.71592C12.4452 1.27388 13.0517 1 13.7205 1C15.057 1 16.1449 2.09386 16.1449 3.43778C16.1449 3.7976 16.0669 4.13944 15.9271 4.44715H20.8291C21.0511 4.44715 21.2316 4.62813 21.2316 4.85193V22.5952C21.2316 22.819 21.0511 23 20.8291 23H12.0064H3.18255C2.96055 23 2.78 22.819 2.78 22.5952V4.85193C2.78 4.6287 2.96055 4.44715 3.18255 4.44715H6.26672C6.48928 4.44715 6.66927 4.6287 6.66927 4.85193V5.46965C6.66927 5.69345 6.48928 5.87443 6.26672 5.87443H4.19944V10.2681L12.3619 21.5727H19.8122V17.1674L15.069 10.6033C14.9384 10.4223 14.9781 10.1694 15.1581 10.0381L15.6555 9.6744C15.8355 9.54309 16.087 9.58305 16.2176 9.76403L19.8122 14.7386V5.87443H13.7733C13.7558 5.87481 13.7382 5.875 13.7205 5.875C13.7028 5.875 13.6852 5.87481 13.6676 5.87443H13.4076ZM11.2963 3.40901C11.2811 2.86506 10.8363 2.42727 10.2917 2.42727C9.73754 2.42727 9.28672 2.88058 9.28672 3.43778C9.28672 3.99442 9.73754 4.44772 10.2917 4.44772L10.3257 4.44715C10.8547 4.42937 11.2814 3.99858 11.2962 3.46653C11.2961 3.45696 11.2961 3.44738 11.2961 3.43778C11.2961 3.42818 11.2961 3.41859 11.2963 3.40901ZM12.7159 3.40901C12.716 3.41859 12.7161 3.42818 12.7161 3.43778C12.7161 3.44738 12.716 3.45696 12.7159 3.46653C12.7308 3.99858 13.1575 4.42937 13.6865 4.44715H13.7545C14.293 4.42905 14.7255 3.98298 14.7255 3.43778C14.7255 2.88058 14.2746 2.42727 13.7205 2.42727C13.1759 2.42727 12.7311 2.86506 12.7159 3.40901ZM4.19944 12.6979V21.5727H10.6057L4.19944 12.6979Z" fill="#CB4B00"/>
</svg>
