<svg width="24" height="24" viewBox="0 0 24 24" fill="none" xmlns="http://www.w3.org/2000/svg">
<path d="M15 3.75C18.0851 3.75 20.6027 6.17969 20.7438 9.22995L20.7498 9.44885L20.9573 9.56754C22.6621 10.5902 23.75 12.4453 23.75 14.5C23.75 15.5393 23.4732 16.5399 22.9563 17.4167C22.7459 17.7735 22.2861 17.8922 21.9293 17.6818C21.5725 17.4715 21.4538 17.0117 21.6641 16.6549C22.0459 16.0074 22.25 15.2695 22.25 14.5C22.25 12.7887 21.2295 11.2651 19.6857 10.5972C19.3909 10.4697 19.2101 10.1686 19.236 9.84838C19.2453 9.73302 19.25 9.61683 19.25 9.5C19.25 7.15279 17.3472 5.25 15 5.25C13.463 5.25 12.0702 6.07208 11.3157 7.37964C11.099 7.75537 10.6096 7.86938 10.2491 7.62817C9.88224 7.38274 9.45197 7.25 9 7.25C7.75736 7.25 6.75 8.25736 6.75 9.5C6.75 9.91421 6.41421 10.25 6 10.25C3.65279 10.25 1.75 12.1528 1.75 14.5C1.75 15.746 2.28827 16.9032 3.20993 17.706C3.52226 17.9781 3.55489 18.4519 3.28281 18.7642C3.01074 19.0765 2.53699 19.1091 2.22466 18.8371C0.979351 17.7523 0.25 16.1844 0.25 14.5C0.25 11.5554 2.46335 9.12782 5.3171 8.79013C5.64888 7.0585 7.17163 5.75 9 5.75C9.4929 5.75 9.9724 5.84563 10.4167 6.027C11.4882 4.61339 13.1691 3.75 15 3.75Z" fill="#CB4B00"/>
<path d="M8.213 12.08C8.631 12.08 9.03616 12.1295 9.4285 12.2285C9.82084 12.3275 10.1343 12.4503 10.369 12.597C10.4423 12.641 10.4827 12.6887 10.49 12.74C10.4949 12.7742 10.49 12.8117 10.4753 12.8524L10.083 13.73C10.0317 13.8547 9.93633 13.8877 9.797 13.829C9.56233 13.7263 9.32217 13.631 9.0765 13.543C8.83083 13.455 8.53567 13.411 8.191 13.411C7.83166 13.411 7.498 13.477 7.19 13.609C6.882 13.741 6.61433 13.9243 6.387 14.159C6.15967 14.3937 5.98 14.6778 5.848 15.0115C5.716 15.3452 5.65 15.71 5.65 16.106C5.65 16.502 5.716 16.8668 5.848 17.2005C5.98 17.5342 6.15967 17.8183 6.387 18.053C6.61433 18.2877 6.882 18.471 7.19 18.603C7.498 18.735 7.83166 18.801 8.191 18.801C8.53567 18.801 8.83083 18.757 9.0765 18.669C9.32217 18.581 9.56233 18.4857 9.797 18.383C9.93633 18.3243 10.0317 18.3573 10.083 18.482L10.446 19.296C10.4827 19.362 10.4973 19.4207 10.49 19.472C10.4827 19.5233 10.4423 19.571 10.369 19.615C10.1343 19.7543 9.82084 19.8753 9.4285 19.978C9.03616 20.0807 8.631 20.132 8.213 20.132C7.63366 20.132 7.09467 20.0312 6.596 19.8295C6.09733 19.6278 5.6665 19.3473 5.3035 18.988C4.9405 18.6287 4.65633 18.2033 4.451 17.712C4.24567 17.2207 4.143 16.6853 4.143 16.106C4.143 15.5267 4.24567 14.9913 4.451 14.5C4.65633 14.0087 4.9405 13.5833 5.3035 13.224C5.6665 12.8647 6.09733 12.5842 6.596 12.3825C7.09467 12.1808 7.63366 12.08 8.213 12.08Z" fill="#CB4B00"/>
<path fill-rule="evenodd" clip-rule="evenodd" d="M16.137 12.388C15.6457 12.1827 15.1103 12.08 14.531 12.08C13.959 12.08 13.4273 12.1827 12.936 12.388C12.4447 12.5933 12.0193 12.8775 11.66 13.2405C11.3007 13.6035 11.0202 14.0288 10.8185 14.5165C10.6168 15.0042 10.516 15.534 10.516 16.106C10.516 16.678 10.6168 17.2078 10.8185 17.6955C11.0202 18.1832 11.3007 18.6085 11.66 18.9715C12.0193 19.3345 12.4447 19.6187 12.936 19.824C13.4273 20.0293 13.959 20.132 14.531 20.132C15.1103 20.132 15.6457 20.0293 16.137 19.824C16.6283 19.6187 17.0537 19.3345 17.413 18.9715C17.7723 18.6085 18.0528 18.1832 18.2545 17.6955C18.4562 17.2078 18.557 16.678 18.557 16.106C18.557 15.534 18.4562 15.0042 18.2545 14.5165C18.0528 14.0288 17.7723 13.6035 17.413 13.2405C17.0537 12.8775 16.6283 12.5933 16.137 12.388ZM14.531 13.378C14.179 13.378 13.8508 13.4458 13.5465 13.5815C13.2422 13.7172 12.9763 13.906 12.749 14.148C12.5217 14.39 12.3438 14.6778 12.2155 15.0115C12.0872 15.3452 12.023 15.71 12.023 16.106C12.023 16.502 12.0872 16.8668 12.2155 17.2005C12.3438 17.5342 12.5217 17.822 12.749 18.064C12.9763 18.306 13.2422 18.4948 13.5465 18.6305C13.8508 18.7662 14.179 18.834 14.531 18.834C14.883 18.834 15.213 18.7662 15.521 18.6305C15.829 18.4948 16.0967 18.306 16.324 18.064C16.5513 17.822 16.7292 17.5342 16.8575 17.2005C16.9858 16.8668 17.05 16.502 17.05 16.106C17.05 15.71 16.9858 15.3452 16.8575 15.0115C16.7292 14.6778 16.5513 14.39 16.324 14.148C16.0967 13.906 15.829 13.7172 15.521 13.5815C15.213 13.4458 14.883 13.378 14.531 13.378Z" fill="#CB4B00"/>
<path d="M18.6895 17.935C18.7628 18.067 18.8728 18.0963 19.0195 18.023C19.1148 17.9717 19.2138 17.9313 19.3165 17.902C19.4192 17.8727 19.5108 17.858 19.5915 17.858C19.7382 17.858 19.8591 17.9002 19.9545 17.9845C20.0498 18.0688 20.0975 18.1843 20.0975 18.331C20.0975 18.4703 20.0682 18.606 20.0095 18.738C19.9508 18.87 19.8628 19.0203 19.7455 19.189L18.6565 20.696L18.552 20.8555C18.5263 20.8958 18.5135 20.9343 18.5135 20.971C18.5135 21.059 18.5722 21.103 18.6895 21.103H20.9005C21.0252 21.103 21.0875 21.0407 21.0875 20.916V20.432C21.0875 20.3073 21.0252 20.245 20.9005 20.245H19.9875L20.5155 19.574C20.6768 19.3687 20.8088 19.1523 20.9115 18.925C21.0142 18.6977 21.0655 18.4667 21.0655 18.232C21.0655 17.858 20.9427 17.5592 20.697 17.3355C20.4513 17.1118 20.1048 17 19.6575 17C19.4522 17 19.2597 17.0257 19.08 17.077C18.9003 17.1283 18.7592 17.1833 18.6565 17.242C18.5025 17.3373 18.4622 17.451 18.5355 17.583L18.6895 17.935Z" fill="#CB4B00"/>
</svg>
