<svg width="24" height="24" viewBox="0 0 24 24" fill="none" xmlns="http://www.w3.org/2000/svg">
<path fill-rule="evenodd" clip-rule="evenodd" d="M15 2.75C15 2.33579 14.6642 2 14.2501 2C13.8357 2 13.5 2.33568 13.5 2.75C13.5 3.16432 13.8357 3.5 14.2501 3.5C14.6642 3.5 15 3.16421 15 2.75ZM15.4292 5.02562C16.8397 5.27271 17.7827 6.61653 17.5356 8.02712L16.4937 13.971L19.2791 20.572C19.6862 21.5369 19.234 22.6488 18.2692 23.0557C17.3046 23.4628 16.1926 23.0107 15.7856 22.046L14.2859 18.4921L13.7186 21.7296C13.5378 22.7608 12.5556 23.4503 11.5237 23.2698C10.4927 23.0889 9.80333 22.1064 9.98448 21.0711L11.512 12.6227C11.5857 12.2151 11.9758 11.9444 12.3834 12.0181C12.791 12.0918 13.0617 12.4819 12.988 12.8895L11.4613 21.3338C11.4236 21.5493 11.5677 21.7546 11.7825 21.7923C11.9982 21.83 12.2034 21.686 12.2412 21.4706L13.248 15.7247C13.3771 14.9879 14.387 14.8734 14.6778 15.5625L17.1677 21.4629C17.2526 21.6643 17.4847 21.7587 17.6861 21.6736C17.8878 21.5886 17.9821 21.3566 17.8971 21.1551L15.0258 14.3506C14.9698 14.2178 14.9532 14.0716 14.9781 13.9295L16.0581 7.76821C16.1623 7.17365 15.7648 6.60726 15.1701 6.50307C14.8734 6.45097 14.5753 6.52744 14.3324 6.71055L10.5925 11.6998C10.4199 11.9302 10.1402 12.0329 9.87437 11.9908C9.83441 11.9964 9.79262 12 9.75 12H4.75C4.33579 12 4 11.6642 4 11.25V6.25C4 5.83579 4.33579 5.5 4.75 5.5H9.75C10.1642 5.5 10.5 5.83579 10.5 6.25V9.321L13.188 5.73642L13.3006 5.61634C13.8868 5.11485 14.659 4.89038 15.4292 5.02562ZM9 7H5.5V10.5H9V7ZM14.2501 0.5C15.4926 0.5 16.5 1.50736 16.5 2.75C16.5 3.99264 15.4926 5 14.2501 5C13.0073 5 12 3.99276 12 2.75C12 1.50724 13.0073 0.5 14.2501 0.5Z" fill="#CB4B00"/>
</svg>
