<svg width="24" height="24" viewBox="0 0 24 24" fill="none" xmlns="http://www.w3.org/2000/svg">
<path fill-rule="evenodd" clip-rule="evenodd" d="M11.5231 4.00738C11.5766 4.01305 11.5766 4.01305 11.61 4.01845C12.0182 4.0889 12.292 4.47691 12.2215 4.88509C12.1511 5.29327 11.763 5.56705 11.3549 5.4966C11.3711 5.49914 11.3764 5.49999 11.3809 5.50054L11.3851 5.50104C11.2214 5.48758 10.9353 5.56932 10.5563 5.88672C10.3694 6.04348 9.59158 6.74819 8.44349 7.79819L8.42402 7.816C7.94882 8.25064 7.44079 8.71639 6.93355 9.18216C6.88115 9.23028 6.83077 9.27655 6.78257 9.32082C6.82757 9.32736 6.87388 9.33558 6.92161 9.34406C7.51556 9.44955 8.10953 9.55551 8.664 9.65507L8.72828 9.66662C9.52744 9.8102 10.1702 9.92719 10.6037 10.0084C12.1852 10.305 12.9084 10.8418 12.9084 11.9462V13.8953L13.3767 14.7163C13.508 14.9466 13.508 15.2291 13.3767 15.4594L12.9063 16.2843L12.9049 16.4098C12.9068 16.4297 12.9068 16.4297 12.9091 16.4681C12.9238 16.7454 12.8921 17.0613 12.7688 17.3843C12.5103 18.0613 11.9211 18.5012 11.0664 18.5012L9.75014 18.502C9.25987 19.6754 8.10121 20.5 6.74994 20.5C5.39868 20.5 4.24014 19.6754 3.74993 18.502L3.25005 18.5012C2.83584 18.5012 2.50005 18.1654 2.50005 17.7512C2.50005 17.337 2.83584 17.0012 3.25005 17.0012L3.50942 17.0013C3.63641 15.3226 5.03863 14 6.74994 14C8.46127 14 9.86367 15.3226 9.99068 17.0013L11.0664 17.0012C11.275 17.0012 11.3232 16.9652 11.3674 16.8492C11.4037 16.7542 11.4158 16.6338 11.4112 16.5475C11.411 16.5439 11.411 16.5439 11.4084 16.4823V16.0816C11.4084 15.9514 11.4424 15.8233 11.5069 15.7101L11.8618 15.0879L11.5069 14.4656C11.4424 14.3524 11.4084 14.2244 11.4084 14.0941V11.9462C11.4084 11.8467 11.4068 11.8429 11.3601 11.8083C11.2146 11.7003 10.8855 11.5874 10.3274 11.4828C9.89853 11.4024 9.25877 11.2859 8.46303 11.143L8.3989 11.1315C7.84546 11.0321 7.25239 10.9263 6.6593 10.8209C6.30344 10.7577 6.02669 10.7087 5.86864 10.6808C5.73307 10.6569 5.60671 10.5961 5.50339 10.5051C5.36146 10.3801 5.09693 10.1541 4.73514 9.85667C4.13065 9.35964 3.47913 8.84949 2.80637 8.35585C2.47241 8.11081 2.40033 7.64144 2.64537 7.30748C2.89041 6.97352 3.35978 6.90144 3.69374 7.14648C4.30423 7.59443 4.89642 8.0544 5.45387 8.50692C5.57727 8.39119 5.73587 8.24547 5.91901 8.0773C6.42692 7.61092 6.93565 7.14452 7.41166 6.70915L7.43117 6.6913C8.61134 5.61196 9.37982 4.91569 9.59287 4.73705C10.2932 4.15044 10.9772 3.9581 11.5231 4.00738ZM19.5 9.75117C19.9143 9.75117 20.25 10.087 20.25 10.5012V14.5012C20.25 14.5891 20.2349 14.6736 20.2071 14.752L20.5 14.7512C20.9143 14.7512 21.25 15.087 21.25 15.5012V19.5012C21.25 19.9154 20.9143 20.2512 20.5 20.2512H16.5C16.0858 20.2512 15.75 19.9154 15.75 19.5012V15.5012C15.75 15.4134 15.7651 15.3291 15.7929 15.2508L15.5 15.2512C15.0858 15.2512 14.75 14.9154 14.75 14.5012V10.5012C14.75 10.087 15.0858 9.75117 15.5 9.75117H19.5ZM6.74994 15.5C5.78342 15.5 5.00005 16.2834 5.00005 17.25C5.00005 18.2166 5.78342 19 6.74994 19C7.71652 19 8.50005 18.2165 8.50005 17.25C8.50005 16.2835 7.71652 15.5 6.74994 15.5ZM19.75 16.2512H17.25V18.7512H19.75V16.2512ZM18.75 11.2512H16.25V13.7512H18.75V11.2512Z" fill="#CB4B00"/>
</svg>
