<svg width="24" height="24" viewBox="0 0 24 24" fill="none" xmlns="http://www.w3.org/2000/svg">
<path fill-rule="evenodd" clip-rule="evenodd" d="M8.02305 8.50622C8.07656 8.51188 8.07655 8.51188 8.11 8.51729C8.51818 8.58774 8.79196 8.97574 8.72151 9.38392C8.65105 9.7921 8.26305 10.0659 7.85487 9.99543C7.87106 9.99798 7.87643 9.99882 7.88092 9.99937C7.72135 9.98641 7.43529 10.0682 7.05633 10.3856L6.8584 10.5505C6.60837 10.7581 6.2061 11.0904 5.68796 11.5175L5.68302 11.5216C5.36438 11.7842 5.02302 12.0654 4.68166 12.3464C4.61852 12.3983 4.56632 12.4413 4.52271 12.4772C4.61477 12.5522 4.6983 12.6229 4.77676 12.6899C4.79686 12.7071 4.81581 12.7233 4.83361 12.7386C4.9881 12.766 5.18782 12.8014 5.42161 12.8429C6.01556 12.9484 6.60953 13.0543 7.164 13.1539L7.22828 13.1655C8.02744 13.309 8.67022 13.426 9.10375 13.5073C10.6852 13.8038 11.4084 14.3406 11.4084 15.4451V17.3941L11.8767 18.2152C12.008 18.4454 12.008 18.7279 11.8767 18.9582L11.4063 19.783L11.405 19.9093L11.4074 19.9397C11.4079 19.9462 11.4084 19.9547 11.4092 19.9675C11.4238 20.2457 11.3922 20.5627 11.2695 20.8866C11.0118 21.5675 10.4228 22.0111 9.56635 22.0111L7.98104 22.0126C7.40216 22.9076 6.39523 23.5 5.24994 23.5C4.10082 23.5 3.09106 22.9037 2.51319 22.0036L1.75839 22.0111C1.34421 22.0157 1.0047 21.6837 1.0001 21.2695C0.995489 20.8553 1.32752 20.5158 1.74171 20.5112L2.01019 20.5087C2.00347 20.4233 2.00005 20.3371 2.00005 20.25C2.00005 18.455 3.45497 17 5.24994 17C7.04493 17 8.50005 18.4551 8.50005 20.25C8.50005 20.3381 8.49655 20.4253 8.48967 20.5117L9.56635 20.5111C9.77327 20.5111 9.8216 20.4747 9.86668 20.3556C9.90361 20.2581 9.91589 20.1349 9.91123 20.0462C9.91096 20.0423 9.91096 20.0423 9.90845 19.9811V19.5805C9.90845 19.4502 9.94239 19.3221 10.0069 19.209L10.3618 18.5867L10.0069 17.9644C9.94239 17.8512 9.90845 17.7232 9.90845 17.5929V15.4451C9.90845 15.3455 9.90675 15.3418 9.86006 15.3071C9.71463 15.1992 9.38548 15.0862 8.82738 14.9816C8.39853 14.9012 7.75877 14.7848 6.96303 14.6418L6.8989 14.6303C6.34546 14.5309 5.75239 14.4251 5.1593 14.3198C4.80344 14.2566 4.52669 14.2076 4.36864 14.1797C4.23307 14.1557 4.10671 14.0949 4.00339 14.0039C3.86146 13.8789 3.59693 13.653 3.23514 13.3555C2.63065 12.8585 1.97913 12.3483 1.30637 11.8547C0.972407 11.6096 0.900325 11.1403 1.14537 10.8063C1.39041 10.4724 1.85978 10.4003 2.19374 10.6453C2.5834 10.9312 2.96561 11.222 3.33609 11.5127C3.3893 11.4673 3.45945 11.4095 3.72838 11.1882C4.06948 10.9075 4.41057 10.6265 4.72889 10.3641L4.73383 10.3601C5.42051 9.794 5.90456 9.39378 6.09287 9.23588C6.79325 8.64928 7.47724 8.45694 8.02305 8.50622ZM18.9293 5.02562C20.3397 5.27271 21.2828 6.61653 21.0357 8.02712L19.9937 13.971L22.7792 20.572C23.1862 21.5369 22.7341 22.6488 21.7692 23.0557C20.8046 23.4628 19.6927 23.0107 19.2857 22.046L17.786 18.4921L17.2187 21.7296C17.0379 22.7608 16.0556 23.4503 15.0238 23.2698C13.9928 23.0889 13.3034 22.1064 13.4845 21.0711L15.012 12.6227C15.0857 12.2151 15.4759 11.9444 15.8835 12.0181C16.2911 12.0918 16.5618 12.4819 16.4881 12.8895L14.9613 21.3338C14.9236 21.5493 15.0677 21.7546 15.2826 21.7923C15.4983 21.83 15.7034 21.686 15.7412 21.4706L16.7481 15.7247C16.8772 14.9879 17.887 14.8734 18.1778 15.5625L20.6677 21.4629C20.7527 21.6643 20.9847 21.7587 21.1862 21.6736C21.3878 21.5886 21.4822 21.3566 21.3972 21.1551L18.5259 14.3506C18.4698 14.2178 18.4532 14.0716 18.4781 13.9295L19.5582 7.76821C19.6623 7.17365 19.2649 6.60726 18.6701 6.50307C18.3734 6.45097 18.0753 6.52744 17.8325 6.71055L14.0926 11.6998C13.9199 11.9302 13.6402 12.0329 13.3744 11.9908C13.3345 11.9964 13.2927 12 13.2501 12H10.2501C9.83584 12 9.50005 11.6642 9.50005 11.25V8.25C9.50005 7.83579 9.83584 7.5 10.2501 7.5H13.2501C13.6643 7.5 14.0001 7.83579 14.0001 8.25L14 9.322L16.688 5.73642L16.8006 5.61634C17.3869 5.11485 18.159 4.89038 18.9293 5.02562ZM5.24994 18.5C4.28342 18.5 3.50005 19.2834 3.50005 20.25C3.50005 21.2166 4.28342 22 5.24994 22C6.21652 22 7.00005 21.2165 7.00005 20.25C7.00005 19.2835 6.21652 18.5 5.24994 18.5ZM12.5001 9H11.0001V10.5H12.5001V9ZM17.7502 0.5C18.9927 0.5 20 1.50736 20 2.75C20 3.99264 18.9927 5 17.7502 5C16.5073 5 15.5001 3.99276 15.5001 2.75C15.5001 1.50724 16.5073 0.5 17.7502 0.5ZM17.7502 2C17.3357 2 17 2.33568 17 2.75C17 3.16432 17.3357 3.5 17.7502 3.5C18.1642 3.5 18.5 3.16421 18.5 2.75C18.5 2.33579 18.1642 2 17.7502 2Z" fill="#CB4B00"/>
</svg>
