<svg width="24" height="24" viewBox="0 0 24 24" fill="none" xmlns="http://www.w3.org/2000/svg">
<path fill-rule="evenodd" clip-rule="evenodd" d="M20.5 4.75C21.4665 4.75 22.25 5.5335 22.25 6.5V17.5C22.25 18.4665 21.4665 19.25 20.5 19.25H3.5C2.5335 19.25 1.75 18.4665 1.75 17.5V15C1.75 14.5858 2.08579 14.25 2.5 14.25C2.91421 14.25 3.25 14.5858 3.25 15V17.5C3.25 17.6381 3.36193 17.75 3.5 17.75H20.5C20.6381 17.75 20.75 17.6381 20.75 17.5V12.75H14.5C14.1203 12.75 13.8065 12.4678 13.7568 12.1018L13.75 12C13.75 11.5858 14.0858 11.25 14.5 11.25H20.75V6.5C20.75 6.38165 20.6678 6.28251 20.5573 6.2566L20.5 6.25H3.5C3.36193 6.25 3.25 6.36193 3.25 6.5V11.25H3.5C3.91421 11.25 4.25 11.5858 4.25 12C4.25 12.4142 3.91421 12.75 3.5 12.75H2.5C2.08579 12.75 1.75 12.4142 1.75 12V6.5C1.75 5.5335 2.5335 4.75 3.5 4.75H20.5ZM10.75 7.75C12.1307 7.75 13.25 8.86929 13.25 10.25C13.25 11.5755 12.2185 12.66 10.9144 12.7447L10.75 12.75H10.1374L11.1894 15.2046C11.3525 15.5853 11.1762 16.0262 10.7954 16.1894C10.4464 16.3389 10.0469 16.2032 9.85702 15.8863L9.81064 15.7954L9 13.9039L8.18936 15.7954C8.02619 16.1762 7.58528 16.3525 7.20456 16.1894C6.85557 16.0398 6.67829 15.6568 6.77684 15.3008L6.81064 15.2046L7.8626 12.75H7.25C5.86929 12.75 4.75 11.6307 4.75 10.25C4.75 8.86929 5.86929 7.75 7.25 7.75C7.93136 7.75 8.54906 8.02258 9 8.46464C9.45094 8.02258 10.0686 7.75 10.75 7.75ZM10.75 9.25C10.2372 9.25 9.81449 9.63604 9.75673 10.1334L9.75 10.25V11.25H10.75C11.3023 11.25 11.75 10.8023 11.75 10.25C11.75 9.69772 11.3023 9.25 10.75 9.25ZM7.25 9.25C6.69772 9.25 6.25 9.69772 6.25 10.25C6.25 10.7628 6.63604 11.1855 7.13338 11.2433L7.25 11.25H8.25V10.25C8.25 9.69772 7.80228 9.25 7.25 9.25Z" fill="#CB4B00"/>
</svg>
