<svg width="24" height="24" viewBox="0 0 24 24" fill="none" xmlns="http://www.w3.org/2000/svg">
<path fill-rule="evenodd" clip-rule="evenodd" d="M13.037 1.71443L21.7834 4.89785C22.6208 5.20265 23.0283 6.14426 22.7207 6.98932L17.5184 21.2825C17.2109 22.1276 16.2934 22.587 15.456 22.2822L11.8347 20.9653C11.7513 21.0708 11.6386 21.1553 11.5029 21.2046L8.53701 22.2837C7.69957 22.5885 6.78215 22.1291 6.47458 21.284L1.27227 6.99082C0.964698 6.14576 1.3722 5.20416 2.20963 4.89935L7.99013 2.79542C8.37937 2.65375 8.80975 2.85444 8.95142 3.24368C9.09309 3.63291 8.8924 4.06329 8.50316 4.20496L2.72266 6.30889C2.68183 6.32375 2.65137 6.39415 2.68181 6.47779L6.14301 15.988L10.9746 2.71406C11.2822 1.86901 12.1996 1.40963 13.037 1.71443ZM7.36101 19.336L7.88412 20.771C7.91456 20.8546 7.98314 20.889 8.02407 20.8741L9.80601 20.225L7.36101 19.336ZM12.3841 3.22709L7.18181 17.5203C7.15137 17.604 7.18183 17.6743 7.22266 17.6892L15.969 20.8726C16.0099 20.8875 16.0784 20.8531 16.1089 20.7695L21.3112 6.47628C21.3416 6.39264 21.3112 6.32225 21.2703 6.30739L12.524 3.12397C12.4831 3.10911 12.4146 3.14345 12.3841 3.22709ZM10.1025 13.1505C10.3859 12.372 11.2466 11.9706 12.0251 12.254C12.8036 12.5373 13.2049 13.3981 12.9216 14.1765C12.6383 14.955 11.7775 15.3564 10.999 15.073C10.2206 14.7897 9.81919 13.9289 10.1025 13.1505ZM15.2294 10.7598C15.5127 9.9813 16.3735 9.57992 17.152 9.86326C17.9304 10.1466 18.3318 11.0074 18.0485 11.7858C17.7651 12.5643 16.9044 12.9657 16.1259 12.6823C15.3474 12.399 14.946 11.5382 15.2294 10.7598ZM11.4706 9.39169C11.7539 8.61322 12.6147 8.21184 13.3932 8.49518C14.1716 8.77852 14.573 9.63928 14.2897 10.4178C14.0064 11.1962 13.1456 11.5976 12.3671 11.3143C11.5887 11.0309 11.1873 10.1702 11.4706 9.39169ZM16.5975 7.001C16.8808 6.22253 17.7416 5.82115 18.52 6.10449C19.2985 6.38783 19.6999 7.24859 19.4165 8.02706C19.1332 8.80553 18.2724 9.20691 17.494 8.92357C16.7155 8.64023 16.3141 7.77947 16.5975 7.001ZM12.8387 5.63292C13.122 4.85445 13.9828 4.45307 14.7613 4.73641C15.5397 5.01975 15.9411 5.88051 15.6578 6.65898C15.3744 7.43745 14.5137 7.83883 13.7352 7.55549C12.9567 7.27215 12.5554 6.41139 12.8387 5.63292Z" fill="#CB4B00"/>
</svg>
