<svg width="24" height="24" viewBox="0 0 24 24" fill="none" xmlns="http://www.w3.org/2000/svg">
<path fill-rule="evenodd" clip-rule="evenodd" d="M20.75 8.75V6.5C20.75 6.36193 20.6381 6.25 20.5 6.25H3.5C3.36193 6.25 3.25 6.36193 3.25 6.5V8.75H20.75ZM20.5 4.75C21.4665 4.75 22.25 5.5335 22.25 6.5V17.5C22.25 18.4665 21.4665 19.25 20.5 19.25H3.5C2.5335 19.25 1.75 18.4665 1.75 17.5V12.5C1.75 12.0858 2.08579 11.75 2.5 11.75C2.91421 11.75 3.25 12.0858 3.25 12.5V17.5C3.25 17.6381 3.36193 17.75 3.5 17.75H20.5C20.6381 17.75 20.75 17.6381 20.75 17.5V10.25H2.5C2.08579 10.25 1.75 9.91421 1.75 9.5V6.5C1.75 5.5335 2.5335 4.75 3.5 4.75H20.5ZM6.5 12.75C6.91421 12.75 7.25 13.0858 7.25 13.5C7.25 13.9142 6.91421 14.25 6.5 14.25H5.5C5.08579 14.25 4.75 13.9142 4.75 13.5C4.75 13.0858 5.08579 12.75 5.5 12.75H6.5ZM18.5 12.75C18.9142 12.75 19.25 13.0858 19.25 13.5C19.25 13.9142 18.9142 14.25 18.5 14.25H17.5C17.0858 14.25 16.75 13.9142 16.75 13.5C16.75 13.0858 17.0858 12.75 17.5 12.75H18.5ZM14.5 12.75C14.9142 12.75 15.25 13.0858 15.25 13.5C15.25 13.9142 14.9142 14.25 14.5 14.25H13.5C13.0858 14.25 12.75 13.9142 12.75 13.5C12.75 13.0858 13.0858 12.75 13.5 12.75H14.5ZM10.5 12.75C10.9142 12.75 11.25 13.0858 11.25 13.5C11.25 13.9142 10.9142 14.25 10.5 14.25H9.5C9.08579 14.25 8.75 13.9142 8.75 13.5C8.75 13.0858 9.08579 12.75 9.5 12.75H10.5Z" fill="#CB4B00"/>
</svg>
