<svg width="24" height="24" viewBox="0 0 24 24" fill="none" xmlns="http://www.w3.org/2000/svg">
<path fill-rule="evenodd" clip-rule="evenodd" d="M5 1.75H18C19.1909 1.75 20.1656 2.67516 20.2448 3.84595L20.25 4V4.5C20.25 4.91421 19.9142 5.25 19.5 5.25C19.1203 5.25 18.8065 4.96785 18.7568 4.60177L18.75 4.5V4C18.75 3.6203 18.4678 3.30651 18.1018 3.25685L18 3.25H7.12197C7.18416 3.42594 7.22508 3.61192 7.24166 3.80486L7.25 4V19.742C8.08593 19.3763 9.0962 19.5355 9.78033 20.2197C10.1778 20.6171 10.8222 20.6171 11.2197 20.2197C12.2029 19.2364 13.7971 19.2364 14.7803 20.2197C15.1778 20.6171 15.8222 20.6171 16.2197 20.2197C16.2961 20.1433 16.3778 20.0724 16.4642 20.0076C17.0974 19.5327 17.897 19.4364 18.5917 19.68L18.75 19.7423V7.5C18.75 7.08579 19.0858 6.75 19.5 6.75C19.8797 6.75 20.1935 7.03215 20.2432 7.39823L20.25 7.5V21.5C20.25 22.1847 19.4219 22.495 18.9683 22.0299L18.9 21.95L18.4607 21.3642C18.2011 21.0182 17.7102 20.9481 17.3642 21.2076L17.321 21.2425L17.1487 21.403C16.1596 22.2617 14.6602 22.2208 13.7197 21.2803C13.3222 20.8829 12.6778 20.8829 12.2803 21.2803C11.2971 22.2636 9.70292 22.2636 8.71967 21.2803C8.41382 20.9745 7.91794 20.9745 7.61209 21.2803L7.57423 21.321L7.53934 21.3642L7.1 21.95C6.68917 22.4978 5.84054 22.2491 5.75671 21.6049L5.75 21.5V4C5.75 3.6203 5.46785 3.30651 5.10177 3.25685L5 3.25L4.89823 3.25685C4.56543 3.30199 4.30199 3.56543 4.25685 3.89823L4.25 4V12.75H4.5C4.91421 12.75 5.25 13.0858 5.25 13.5C5.25 13.8797 4.96785 14.1935 4.60177 14.2432L4.5 14.25H3.5C3.1203 14.25 2.80651 13.9678 2.75685 13.6018L2.75 13.5V4C2.75 2.80914 3.67516 1.83436 4.84595 1.75519L5 1.75ZM12 15.75H17C17.4142 15.75 17.75 16.0858 17.75 16.5C17.75 16.8797 17.4678 17.1935 17.1018 17.2432L17 17.25H12C11.5858 17.25 11.25 16.9142 11.25 16.5C11.25 16.1203 11.5322 15.8065 11.8982 15.7568L12 15.75ZM9 15.75H9.5C9.91421 15.75 10.25 16.0858 10.25 16.5C10.25 16.8797 9.96785 17.1935 9.60177 17.2432L9.5 17.25H9C8.58579 17.25 8.25 16.9142 8.25 16.5C8.25 16.1203 8.53215 15.8065 8.89823 15.7568L9 15.75ZM12 12.75H17C17.4142 12.75 17.75 13.0858 17.75 13.5C17.75 13.8797 17.4678 14.1935 17.1018 14.2432L17 14.25H12C11.5858 14.25 11.25 13.9142 11.25 13.5C11.25 13.1203 11.5322 12.8065 11.8982 12.7568L12 12.75ZM9 12.75H9.5C9.91421 12.75 10.25 13.0858 10.25 13.5C10.25 13.8797 9.96785 14.1935 9.60177 14.2432L9.5 14.25H9C8.58579 14.25 8.25 13.9142 8.25 13.5C8.25 13.1203 8.53215 12.8065 8.89823 12.7568L9 12.75Z" fill="#CB4B00"/>
<path d="M14.1099 6.34982H13.8077L13.8278 6.34982H13.7271C13.3913 6.34982 13.0958 6.46398 12.8407 6.69231C12.5855 6.92064 12.4377 7.20269 12.3974 7.53847H14.1099C14.2039 7.53847 14.2912 7.5754 14.3718 7.64927C14.4524 7.72314 14.4927 7.8138 14.4927 7.92125V8.5055C14.4927 8.59951 14.4524 8.68346 14.3718 8.75733C14.2912 8.8312 14.2039 8.86813 14.1099 8.86813L12.3974 8.88828C12.4377 9.22406 12.5821 9.50611 12.8306 9.73444C13.0791 9.96276 13.3779 10.0769 13.7271 10.0769H14.1099C14.2039 10.0769 14.2912 10.1139 14.3718 10.1877C14.4524 10.2616 14.4927 10.3523 14.4927 10.4597V11.044C14.4927 11.1514 14.4524 11.2421 14.3718 11.3159C14.2912 11.3898 14.2039 11.4267 14.1099 11.4267H13.7271C13.0153 11.4267 12.4008 11.1816 11.8837 10.6914C11.3666 10.2012 11.0946 9.60013 11.0678 8.88828H10.3828C10.2888 8.88828 10.2015 8.85134 10.1209 8.77747C10.0403 8.7036 10 8.61294 10 8.5055V7.92125C10 7.8138 10.0403 7.72314 10.1209 7.64927C10.2015 7.5754 10.2888 7.53846 10.3828 7.53846H11.0678C11.0946 6.82662 11.3666 6.22558 11.8837 5.73535C12.4008 5.24512 13.0153 5 13.7271 5H14.1099C14.2039 5 14.2912 5.03693 14.3718 5.11081C14.4524 5.18468 14.4927 5.27534 14.4927 5.38278V5.96703C14.4927 6.07448 14.4524 6.16514 14.3718 6.23901C14.2912 6.31288 14.2039 6.34982 14.1099 6.34982Z" fill="#CB4B00"/>
</svg>
