<svg width="24" height="24" viewBox="0 0 24 24" fill="none" xmlns="http://www.w3.org/2000/svg">
<path fill-rule="evenodd" clip-rule="evenodd" d="M5 1.75H18C19.1909 1.75 20.1656 2.67516 20.2448 3.84595L20.25 4V4.5C20.25 4.91421 19.9142 5.25 19.5 5.25C19.1203 5.25 18.8065 4.96785 18.7568 4.60177L18.75 4.5V4C18.75 3.6203 18.4678 3.30651 18.1018 3.25685L18 3.25H7.12197C7.18416 3.42594 7.22508 3.61192 7.24166 3.80486L7.25 4V19.742C8.08593 19.3763 9.0962 19.5355 9.78033 20.2197C10.1778 20.6171 10.8222 20.6171 11.2197 20.2197C12.2029 19.2364 13.7971 19.2364 14.7803 20.2197C15.1778 20.6171 15.8222 20.6171 16.2197 20.2197C16.2961 20.1433 16.3778 20.0724 16.4642 20.0076C17.0974 19.5327 17.897 19.4364 18.5917 19.68L18.75 19.7423V7.5C18.75 7.08579 19.0858 6.75 19.5 6.75C19.8797 6.75 20.1935 7.03215 20.2432 7.39823L20.25 7.5V21.5C20.25 22.1847 19.4219 22.495 18.9683 22.0299L18.9 21.95L18.4607 21.3642C18.2011 21.0182 17.7102 20.9481 17.3642 21.2076L17.321 21.2425L17.1487 21.403C16.1596 22.2617 14.6602 22.2208 13.7197 21.2803C13.3222 20.8829 12.6778 20.8829 12.2803 21.2803C11.2971 22.2636 9.70292 22.2636 8.71967 21.2803C8.41382 20.9745 7.91794 20.9745 7.61209 21.2803L7.57423 21.321L7.53934 21.3642L7.1 21.95C6.68917 22.4978 5.84054 22.2491 5.75671 21.6049L5.75 21.5V4C5.75 3.6203 5.46785 3.30651 5.10177 3.25685L5 3.25L4.89823 3.25685C4.56543 3.30199 4.30199 3.56543 4.25685 3.89823L4.25 4V12.75H4.5C4.91421 12.75 5.25 13.0858 5.25 13.5C5.25 13.8797 4.96785 14.1935 4.60177 14.2432L4.5 14.25H3.5C3.1203 14.25 2.80651 13.9678 2.75685 13.6018L2.75 13.5V4C2.75 2.80914 3.67516 1.83436 4.84595 1.75519L5 1.75ZM12 15.75H17C17.4142 15.75 17.75 16.0858 17.75 16.5C17.75 16.8797 17.4678 17.1935 17.1018 17.2432L17 17.25H12C11.5858 17.25 11.25 16.9142 11.25 16.5C11.25 16.1203 11.5322 15.8065 11.8982 15.7568L12 15.75ZM9 15.75H9.5C9.91421 15.75 10.25 16.0858 10.25 16.5C10.25 16.8797 9.96785 17.1935 9.60177 17.2432L9.5 17.25H9C8.58579 17.25 8.25 16.9142 8.25 16.5C8.25 16.1203 8.53215 15.8065 8.89823 15.7568L9 15.75ZM12 12.75H17C17.4142 12.75 17.75 13.0858 17.75 13.5C17.75 13.8797 17.4678 14.1935 17.1018 14.2432L17 14.25H12C11.5858 14.25 11.25 13.9142 11.25 13.5C11.25 13.1203 11.5322 12.8065 11.8982 12.7568L12 12.75ZM9 12.75H9.5C9.91421 12.75 10.25 13.0858 10.25 13.5C10.25 13.8797 9.96785 14.1935 9.60177 14.2432L9.5 14.25H9C8.58579 14.25 8.25 13.9142 8.25 13.5C8.25 13.1203 8.53215 12.8065 8.89823 12.7568L9 12.75Z" fill="#CB4B00"/>
<path d="M13.5598 7.36863C13.6254 7.36863 13.6637 7.38954 13.6746 7.43137C13.6855 7.4732 13.6691 7.51503 13.6254 7.55686L12.313 8.78823L13.732 10.8118C13.7648 10.8588 13.7703 10.9033 13.7484 10.9451C13.732 10.9817 13.6937 11 13.6336 11H12.8134C12.7149 11 12.6384 10.9634 12.5837 10.8902L11.5748 9.42353L11.0007 9.94902V10.8667C11.0007 10.9556 10.9542 11 10.8612 11H10.1394C10.0465 11 10 10.9556 10 10.8667V5.33725C10 5.25359 10.0383 5.20131 10.1148 5.18039L10.73 5.03137C10.7628 5.02092 10.7929 5.01307 10.8202 5.00784C10.853 5.00261 10.8804 5 10.9022 5C10.9679 5 11.0007 5.03399 11.0007 5.10196V8.89804L12.5017 7.46275C12.5673 7.4 12.6466 7.36863 12.7395 7.36863H13.5598Z" fill="#CB4B00"/>
<path d="M15.4782 7.88627C15.615 7.68235 15.7817 7.53333 15.9786 7.43922C16.1754 7.33987 16.3832 7.2902 16.602 7.2902C16.7223 7.2902 16.8234 7.30327 16.9054 7.32941C16.982 7.35556 17.0121 7.40523 16.9957 7.47843L16.8234 8.12157C16.807 8.21046 16.7469 8.24706 16.643 8.23137C16.5992 8.22091 16.5473 8.21307 16.4871 8.20784C16.4324 8.20261 16.3778 8.2 16.3231 8.2C16.1372 8.2 15.9731 8.23922 15.8309 8.31765C15.6888 8.39608 15.5712 8.49542 15.4782 8.61569V10.8667C15.4782 10.9556 15.4318 11 15.3388 11H14.617C14.5241 11 14.4776 10.9556 14.4776 10.8667V7.56471C14.4776 7.47059 14.5213 7.41569 14.6088 7.4L15.3224 7.29804C15.4263 7.28235 15.4782 7.31895 15.4782 7.40784V7.88627Z" fill="#CB4B00"/>
</svg>
