<svg width="24" height="24" viewBox="0 0 24 24" fill="none" xmlns="http://www.w3.org/2000/svg">
<path d="M18.0801 13.945L21.2197 10.8055C21.4541 10.571 21.5858 10.2531 21.5858 9.92157V3.75C21.5858 3.05964 21.0261 2.5 20.3358 2.5H14.1642C13.8327 2.5 13.5148 2.6317 13.2803 2.86612L2.57322 13.5732C2.47559 13.6709 2.47559 13.8291 2.57322 13.9268L10.159 21.5126C10.2566 21.6102 10.4149 21.6102 10.5126 21.5126L11.8055 20.2197C12.0983 19.9268 12.5732 19.9268 12.8661 20.2197C13.159 20.5126 13.159 20.9874 12.8661 21.2803L11.5732 22.5732C10.8898 23.2566 9.78177 23.2566 9.09835 22.5732L1.51256 14.9874C0.829146 14.304 0.829146 13.196 1.51256 12.5126L12.2197 1.80546C12.7354 1.28973 13.4349 1 14.1642 1H20.3358C21.8546 1 23.0858 2.23122 23.0858 3.75V9.92157C23.0858 10.6509 22.7961 11.3504 22.2803 11.8661L18.0791 16.0673C18.0791 16.0893 18.0791 16.1102 18.079 16.13C18.0792 16.1757 18.0792 16.1757 18.0792 16.221C18.0793 16.2874 18.0784 16.5718 18.0785 16.6453C18.0787 16.7991 18.0804 16.919 18.0845 17.0294C18.1203 17.9946 18.2966 18.2117 19.2996 18.2117C20.3555 18.2117 20.5457 17.9588 20.5757 16.8601C20.5784 16.7589 20.5796 16.6502 20.5797 16.5133C20.5798 16.4418 20.5791 16.1853 20.579 16.1389C20.5789 15.7193 20.9146 15.3834 21.3288 15.3833C21.743 15.3831 22.0789 15.7188 22.079 16.133C22.0791 16.1819 22.0798 16.4398 22.0797 16.5147C22.0796 16.6636 22.0783 16.7846 22.0751 16.9009C22.0253 18.7299 21.2868 19.7117 19.2996 19.7117C17.3987 19.7117 16.6487 18.7882 16.5856 17.085C16.5807 16.9539 16.5787 16.8174 16.5785 16.6473C16.5784 16.5695 16.5793 16.2843 16.5792 16.2218C16.5792 16.179 16.5792 16.179 16.579 16.1321C16.5806 15.1996 16.5806 11.8997 16.579 6.23398C16.5789 5.81976 16.9146 5.48389 17.3288 5.48378C17.7431 5.48367 18.0789 5.81936 18.079 6.23358C18.08 9.67961 18.0803 12.2503 18.0801 13.945ZM6.30546 12.7197L7.30546 11.7197C8.01256 11.0126 9.07322 12.0732 8.36612 12.7803L7.36612 13.7803C6.65901 14.4874 5.59835 13.4268 6.30546 12.7197ZM8.30415 14.7192L9.30593 13.7192C10.0137 13.0127 11.0734 14.0743 10.3656 14.7808L9.36387 15.7808C8.65614 16.4873 7.59642 15.4257 8.30415 14.7192ZM10.3055 16.7197L11.3055 15.7197C12.0126 15.0126 13.0732 16.0732 12.3661 16.7803L11.3661 17.7803C10.659 18.4874 9.59835 17.4268 10.3055 16.7197Z" fill="#CB4B00"/>
</svg>
