<svg width="24" height="24" viewBox="0 0 24 24" fill="none" xmlns="http://www.w3.org/2000/svg">
<path fill-rule="evenodd" clip-rule="evenodd" d="M12.0057 0.25C15.1717 0.249999 16.9205 1.09983 16.7422 2.93995L16.7425 5.04497C16.7474 5.07987 16.75 5.11555 16.75 5.15183C16.75 5.18811 16.7474 5.22378 16.7425 5.25869L16.7422 7C16.7422 7.41421 16.4064 7.75 15.9922 7.75C15.578 7.75 15.2422 7.41421 15.2422 7L15.2426 5.901L10.2749 5.90183C9.86072 5.90183 9.52494 5.56604 9.52494 5.15183C9.52494 4.73761 9.86072 4.40183 10.2749 4.40183L15.2436 4.401L15.2456 2.86899C15.3098 2.19367 14.3977 1.75025 12.0021 1.75C9.60671 1.75038 8.69489 2.19376 8.75907 2.86899L8.76244 7C8.76244 7.41421 8.42665 7.75 8.01244 7.75C7.59822 7.75 7.26244 7.41421 7.26244 7L7.26164 5.901L3.18696 5.90183L2.01375 19.4821C1.92 20.444 2.62381 21.2998 3.58575 21.3936C3.64217 21.3991 3.69882 21.4018 3.7555 21.4018H20.2445C20.3012 21.4018 20.3579 21.3991 20.4143 21.3936C21.3762 21.2998 22.08 20.444 21.9854 19.4727L20.8344 5.90183H18.3001C17.8859 5.90183 17.5501 5.56604 17.5501 5.15183C17.5501 4.73761 17.8859 4.40183 18.3001 4.40183H21.0641C21.7075 4.40183 22.2458 4.89022 22.3091 5.53994L23.4792 19.3366C23.6533 21.1231 22.3462 22.7124 20.5598 22.8865C20.455 22.8967 20.3498 22.9018 20.2445 22.9018H3.7555C3.65023 22.9018 3.54503 22.8967 3.44026 22.8865C1.6538 22.7124 0.346722 21.1231 0.520069 19.3448L1.71349 5.53058C1.77589 4.89022 2.3142 4.40183 2.95759 4.40183L7.26164 4.401L7.26244 2.93995C7.08955 1.15559 8.72878 0.302413 11.7202 0.252344L11.999 0.25H12.0057ZM16.4859 10.4287C16.8014 10.697 16.8397 11.1703 16.5714 11.4859L11.469 17.4859C11.1695 17.838 10.6258 17.838 10.3263 17.4859L7.42867 14.0784C7.16033 13.7628 7.1986 13.2895 7.51415 13.0212C7.82969 12.7528 8.30302 12.7911 8.57136 13.1067L10.8977 15.8423L15.4287 10.5141C15.697 10.1986 16.1703 10.1603 16.4859 10.4287Z" fill="#CB4B00"/>
</svg>
