<svg width="24" height="24" viewBox="0 0 24 24" fill="none" xmlns="http://www.w3.org/2000/svg">
<path fill-rule="evenodd" clip-rule="evenodd" d="M12 1.25C12.4142 1.25 12.75 1.58579 12.75 2L12.7509 4.28598C13.9138 4.39794 15.0243 4.76904 16.0139 5.36922C16.368 5.58402 16.481 6.04526 16.2662 6.39942C16.0514 6.75359 15.5902 6.86656 15.236 6.65176C14.2682 6.06477 13.1581 5.75 12 5.75C8.54822 5.75 5.75 8.54822 5.75 12C5.75 15.4518 8.54822 18.25 12 18.25C15.4518 18.25 18.25 15.4518 18.25 12C18.25 10.8427 17.9357 9.73333 17.3494 8.76598C17.1348 8.41174 17.2479 7.95054 17.6022 7.73586C17.9564 7.52119 18.4176 7.63433 18.6323 7.98858C19.2318 8.97788 19.6024 10.0879 19.7141 11.2503L22 11.25C22.4142 11.25 22.75 11.5858 22.75 12C22.75 12.4142 22.4142 12.75 22 12.75L19.7141 12.7503C19.3605 16.4316 16.4316 19.3605 12.7503 19.7141L12.75 22C12.75 22.4142 12.4142 22.75 12 22.75C11.5858 22.75 11.25 22.4142 11.25 22L11.2507 19.7142C7.56898 19.361 4.63952 16.4319 4.28585 12.7503L2 12.75C1.58579 12.75 1.25 12.4142 1.25 12C1.25 11.5858 1.58579 11.25 2 11.25L4.28575 11.2507C4.63899 7.56865 7.56865 4.63899 11.2507 4.28575L11.25 2C11.25 1.58579 11.5858 1.25 12 1.25ZM12 9C13.6569 9 15 10.3431 15 12C15 13.6569 13.6569 15 12 15C10.3431 15 9 13.6569 9 12C9 10.3431 10.3431 9 12 9Z" fill="#CB4B00"/>
</svg>
