<svg width="24" height="24" viewBox="0 0 24 24" fill="none" xmlns="http://www.w3.org/2000/svg">
<path fill-rule="evenodd" clip-rule="evenodd" d="M12 0.25C17.1001 0.25 21.25 4.18828 21.25 9.06656C21.25 13.4871 18.3115 18.3039 12.503 23.5563C12.2174 23.8146 11.7826 23.8146 11.497 23.5563C5.68846 18.3039 2.75 13.4871 2.75 9.06656C2.75 8.05658 2.92851 7.06885 3.27372 6.13509C3.41736 5.74658 3.84875 5.54807 4.23726 5.6917C4.62577 5.83534 4.82429 6.26673 4.68065 6.65524C4.39669 7.42331 4.25 8.235 4.25 9.06656C4.25 12.8552 6.81258 17.1727 12 21.9831C17.1874 17.1727 19.75 12.8552 19.75 9.06656C19.75 5.03477 16.2887 1.75 12 1.75C10.1837 1.75 8.46638 2.34096 7.09203 3.40416C6.76441 3.65761 6.29336 3.59748 6.03991 3.26985C5.78646 2.94223 5.84659 2.47118 6.17422 2.21773C7.81042 0.951967 9.85027 0.25 12 0.25ZM12 5.25C13.7949 5.25 15.25 6.70507 15.25 8.5C15.25 10.2949 13.7949 11.75 12 11.75C10.2051 11.75 8.75 10.2949 8.75 8.5C8.75 6.70507 10.2051 5.25 12 5.25ZM12 6.75C11.0335 6.75 10.25 7.5335 10.25 8.5C10.25 9.4665 11.0335 10.25 12 10.25C12.9665 10.25 13.75 9.4665 13.75 8.5C13.75 7.5335 12.9665 6.75 12 6.75Z" fill="#CB4B00"/>
</svg>
