<svg width="24" height="24" viewBox="0 0 24 24" fill="none" xmlns="http://www.w3.org/2000/svg">
<g clip-path="url(#clip0_2_1618)">
<path fill-rule="evenodd" clip-rule="evenodd" d="M12 0.75C18.2132 0.75 23.25 5.7868 23.25 12C23.25 18.2132 18.2132 23.25 12 23.25C5.7868 23.25 0.75 18.2132 0.75 12C0.75 5.7868 5.7868 0.75 12 0.75ZM12 2.25C11.6493 2.25 11.3029 2.26852 10.9618 2.30463L11.411 3.20382L11.8537 3.64645C12.0489 3.84171 12.0489 4.15829 11.8537 4.35355L11.3537 4.85355L11.2237 4.94721L10.2237 5.44721C10.0312 5.54346 9.79873 5.50573 9.64655 5.35355L9.14655 4.85355C9.05278 4.75979 9.0001 4.63261 9.0001 4.5V4H8.61814L7.0001 4.80902V5.5H7.5001C7.68949 5.5 7.86262 5.607 7.94732 5.77639L8.44732 6.77639C8.5177 6.91716 8.5177 7.08284 8.44732 7.22361L7.94732 8.22361C7.89893 8.32037 7.82047 8.39883 7.72371 8.44721L6.79628 8.91093L5.85365 9.85355C5.75989 9.94732 5.63271 10 5.5001 10H4.30912L4.03994 10.5384L4.42019 11.6791L7.15149 13.5H8.0001C8.13271 13.5 8.25989 13.5527 8.35365 13.6464L9.35365 14.6464C9.48757 14.7804 9.53433 14.9784 9.47444 15.1581L8.94732 16.7236L8.44732 17.7236C8.39893 17.8204 8.32047 17.8988 8.22371 17.9472L7.5001 18.309V20.5C7.5001 20.5512 7.49362 20.5989 7.4817 20.6427C8.83115 21.3494 10.3688 21.75 12 21.75C14.0696 21.75 15.9886 21.1052 17.567 20.0055L16.1582 20.4743C15.9785 20.5342 15.7805 20.4875 15.6465 20.3536L15.1465 19.8536C15.0528 19.7598 15.0001 19.6326 15.0001 19.5V16.5811L14.6397 15.5H13.0001C12.9225 15.5 12.8459 15.4819 12.7765 15.4472L11.7765 14.9472C11.6459 14.8819 11.5504 14.7629 11.515 14.6213L11.015 12.6213C10.9861 12.5055 10.9995 12.3831 11.0529 12.2764L12.0529 10.2764C12.1122 10.1578 12.2162 10.0676 12.342 10.0257L13.842 9.52566L14.0001 9.5H15.0001C15.0777 9.5 15.1543 9.51807 15.2237 9.55279L16.1181 10H17.293L17.5001 9.79289V8.80735L16.842 8.47434L15.9663 8.18244C15.8644 8.44407 15.5505 8.58422 15.2765 8.44721L14.536 8.07698L13.2775 8.91603C13.0791 9.04823 12.8151 9.02209 12.6465 8.85355L12.1465 8.35355C11.9944 8.20137 11.9566 7.96889 12.0529 7.77639L12.5529 6.77639C12.6376 6.607 12.8107 6.5 13.0001 6.5H13.793L14.0001 6.29289V5.5C14.0001 5.28478 14.1378 5.09372 14.342 5.02566L15.8083 4.5369L17.278 3.80074C15.7568 2.81946 13.9449 2.25 12 2.25ZM2.25 11.957V12C2.25 15.2429 3.8332 18.116 6.26883 19.8886L6.06309 19.2701L5.14655 18.3536C5.05278 18.2598 5.0001 18.1326 5.0001 18V16.809L4.27649 16.4472C4.15789 16.3879 4.06769 16.2839 4.02576 16.1581L3.52576 14.6581L3.5001 14.5V13.618L3.08917 12.7962L2.25 11.957ZM21.2237 12.1708L20.9473 12.7236C20.831 12.9562 20.5559 13.0608 20.3144 12.9642L18.8154 12.3646L18.9202 12.6791L20.2775 13.584C20.54 13.759 20.5768 14.1304 20.3537 14.3536L19.911 14.7962L19.5001 15.618V16.5L19.4744 16.6581L18.9744 18.1581L18.9161 18.2773L17.9551 19.7206C20.1575 18.0194 21.6119 15.3967 21.7407 12.4302L21.2237 12.1708Z" fill="#CB4B00"/>
</g>
<defs>
<clipPath id="clip0_2_1618">
<rect width="24" height="24" fill="white"/>
</clipPath>
</defs>
</svg>
