<svg width="24" height="24" viewBox="0 0 24 24" fill="none" xmlns="http://www.w3.org/2000/svg">
<path d="M15.5 1.75C15.9142 1.75 16.25 2.08579 16.25 2.5V2.749L21.5 2.75C21.9142 2.75 22.25 3.08579 22.25 3.5V20.5C22.25 20.9142 21.9142 21.25 21.5 21.25H2.5C2.08579 21.25 1.75 20.9142 1.75 20.5V10.0662C1.75 9.65203 2.08579 9.31624 2.5 9.31624C2.91421 9.31624 3.25 9.65203 3.25 10.0662V19.75H20.75V4.25L16.25 4.249V4.5C16.25 4.91421 15.9142 5.25 15.5 5.25C15.0858 5.25 14.75 4.91421 14.75 4.5V4.249H9.25V4.5C9.25 4.91421 8.91421 5.25 8.5 5.25C8.08579 5.25 7.75 4.91421 7.75 4.5V4.249L3.25 4.25V6.81194H18.5C18.9142 6.81194 19.25 7.14772 19.25 7.56194C19.25 7.97615 18.9142 8.31194 18.5 8.31194H2.5C2.08579 8.31194 1.75 7.97615 1.75 7.56194V3.5C1.75 3.08579 2.08579 2.75 2.5 2.75L7.75 2.749V2.5C7.75 2.08579 8.08579 1.75 8.5 1.75C8.91421 1.75 9.25 2.08579 9.25 2.5V2.749H14.75V2.5C14.75 2.08579 15.0858 1.75 15.5 1.75ZM12.5 16C13.0523 16 13.5 16.4477 13.5 17C13.5 17.5523 13.0523 18 12.5 18H11.5C10.9477 18 10.5 17.5523 10.5 17C10.5 16.4477 10.9477 16 11.5 16H12.5ZM7.5 16C8.05228 16 8.5 16.4477 8.5 17C8.5 17.5523 8.05228 18 7.5 18H6.5C5.94772 18 5.5 17.5523 5.5 17C5.5 16.4477 5.94772 16 6.5 16H7.5ZM17.5 13C18.0523 13 18.5 13.4477 18.5 14C18.5 14.5523 18.0523 15 17.5 15H16.5C15.9477 15 15.5 14.5523 15.5 14C15.5 13.4477 15.9477 13 16.5 13H17.5ZM12.5 13C13.0523 13 13.5 13.4477 13.5 14C13.5 14.5523 13.0523 15 12.5 15H11.5C10.9477 15 10.5 14.5523 10.5 14C10.5 13.4477 10.9477 13 11.5 13H12.5ZM7.5 13C8.05228 13 8.5 13.4477 8.5 14C8.5 14.5523 8.05228 15 7.5 15H6.5C5.94772 15 5.5 14.5523 5.5 14C5.5 13.4477 5.94772 13 6.5 13H7.5ZM17.5 10C18.0523 10 18.5 10.4477 18.5 11C18.5 11.5523 18.0523 12 17.5 12H16.5C15.9477 12 15.5 11.5523 15.5 11C15.5 10.4477 15.9477 10 16.5 10H17.5ZM12.5 10C13.0523 10 13.5 10.4477 13.5 11C13.5 11.5523 13.0523 12 12.5 12H11.5C10.9477 12 10.5 11.5523 10.5 11C10.5 10.4477 10.9477 10 11.5 10H12.5Z" fill="#CB4B00"/>
</svg>
