<svg width="24" height="24" viewBox="0 0 24 24" fill="none" xmlns="http://www.w3.org/2000/svg">
<g clip-path="url(#clip0_2_1488)">
<path fill-rule="evenodd" clip-rule="evenodd" d="M12 0.75C14.1861 0.75 16.2814 1.37539 18.0809 2.53352C18.4292 2.75769 18.5298 3.22178 18.3056 3.57009C18.0815 3.9184 17.6174 4.01903 17.2691 3.79486C15.7099 2.7914 13.896 2.25 12 2.25C6.61522 2.25 2.25 6.61522 2.25 12C2.25 17.3848 6.61522 21.75 12 21.75C17.3848 21.75 21.75 17.3848 21.75 12C21.75 10.0961 21.2041 8.27508 20.1928 6.7118C19.9678 6.36401 20.0674 5.89969 20.4152 5.67471C20.7629 5.44972 21.2273 5.54928 21.4522 5.89706C22.6194 7.70127 23.25 9.80486 23.25 12C23.25 18.2132 18.2132 23.25 12 23.25C5.7868 23.25 0.75 18.2132 0.75 12C0.75 5.7868 5.7868 0.75 12 0.75ZM12 4.25C12.4142 4.25 12.75 4.58579 12.75 5L12.7508 10.4188C13.1144 10.5918 13.4089 10.8864 13.5817 11.2501L16.5 11.25C16.9142 11.25 17.25 11.5858 17.25 12C17.25 12.4142 16.9142 12.75 16.5 12.75L13.5812 12.7508C13.3001 13.3416 12.6978 13.75 12 13.75C11.0335 13.75 10.25 12.9665 10.25 12C10.25 11.3018 10.6588 10.6992 11.2501 10.4183L11.25 5C11.25 4.58579 11.5858 4.25 12 4.25Z" fill="#CB4B00"/>
</g>
<defs>
<clipPath id="clip0_2_1488">
<rect width="24" height="24" fill="white"/>
</clipPath>
</defs>
</svg>
