<svg width="24" height="24" viewBox="0 0 24 24" fill="none" xmlns="http://www.w3.org/2000/svg">
<g clip-path="url(#clip0_2_1487)">
<path fill-rule="evenodd" clip-rule="evenodd" d="M23.0022 9.6616C23.5015 12.0105 23.2388 14.407 22.2849 16.556C22.0695 17.0412 21.4321 17.1552 21.0619 16.7748L18.6809 14.3009C18.392 14.004 18.3985 13.5292 18.6953 13.2403C18.9921 12.9514 19.467 12.9578 19.7559 13.2547L21.314 14.8832C21.8025 13.3113 21.8871 11.6299 21.535 9.97346C20.4157 4.70752 15.2394 1.34601 9.97346 2.46532C4.70752 3.58463 1.34601 8.7609 2.46532 14.0268C3.58463 19.2928 8.7609 22.6543 14.0268 21.535C14.9893 21.3304 15.9014 20.9877 16.7433 20.5194C17.1053 20.318 17.562 20.4482 17.7633 20.8102C17.9647 21.1722 17.8345 21.6288 17.4725 21.8302C16.5004 22.371 15.4477 22.7665 14.3387 23.0022C8.26245 24.2938 2.28965 20.415 0.998101 14.3387C-0.293449 8.26245 3.58533 2.28965 9.6616 0.998101C15.7379 -0.293449 21.7107 3.58533 23.0022 9.6616ZM11.9999 4.25C12.4141 4.25 12.7499 4.58579 12.7499 5L12.7499 10.4183C13.1136 10.5911 13.4082 10.8856 13.5812 11.2492L16.4999 11.25C16.9141 11.25 17.2499 11.5858 17.2499 12C17.2499 12.4142 16.9141 12.75 16.4999 12.75L13.5817 12.7499C13.3008 13.3412 12.6982 13.75 12 13.75C11.0335 13.75 10.25 12.9665 10.25 12C10.25 11.3022 10.6584 10.6999 11.2492 10.4188L11.2499 5C11.2499 4.58579 11.5857 4.25 11.9999 4.25Z" fill="#CB4B00"/>
</g>
<defs>
<clipPath id="clip0_2_1487">
<rect width="24" height="24" fill="white"/>
</clipPath>
</defs>
</svg>
