<svg width="24" height="24" viewBox="0 0 24 24" fill="none" xmlns="http://www.w3.org/2000/svg">
<g clip-path="url(#clip0_2_1498)">
<path fill-rule="evenodd" clip-rule="evenodd" d="M14.3385 0.998101C20.4148 2.28965 24.2936 8.26245 23.002 14.3387C21.7105 20.415 15.7377 24.2938 9.6614 23.0022C8.55246 22.7665 7.49968 22.371 6.52758 21.8302C6.16561 21.6288 6.03541 21.1722 6.23677 20.8102C6.43813 20.4482 6.89481 20.318 7.25678 20.5194C8.0987 20.9877 9.01087 21.3304 9.97327 21.535C15.2392 22.6543 20.4155 19.2928 21.5348 14.0268C22.6541 8.7609 19.2926 3.58463 14.0267 2.46532C8.76071 1.34601 3.58444 4.70752 2.46513 9.97346C2.11304 11.6299 2.19763 13.3113 2.68611 14.8832L4.24426 13.2547C4.53315 12.9578 5.00798 12.9514 5.30482 13.2403C5.60166 13.5292 5.6081 14.004 5.3192 14.3009L2.93823 16.7748C2.56801 17.1552 1.93062 17.0412 1.71526 16.556C0.761297 14.407 0.498643 12.0105 0.997909 9.6616C2.28946 3.58533 8.26225 -0.293449 14.3385 0.998101ZM11.9999 4.25C12.4141 4.25 12.7499 4.58579 12.7499 5L12.7499 10.4183C13.1136 10.5911 13.4082 10.8856 13.5812 11.2492L16.4999 11.25C16.9141 11.25 17.2499 11.5858 17.2499 12C17.2499 12.4142 16.9141 12.75 16.4999 12.75L13.5817 12.7499C13.3008 13.3412 12.6982 13.75 12 13.75C11.0335 13.75 10.25 12.9665 10.25 12C10.25 11.3022 10.6584 10.6999 11.2492 10.4188L11.2499 5C11.2499 4.58579 11.5857 4.25 11.9999 4.25Z" fill="#CB4B00"/>
</g>
<defs>
<clipPath id="clip0_2_1498">
<rect width="24" height="24" fill="white"/>
</clipPath>
</defs>
</svg>
