<svg width="24" height="24" viewBox="0 0 24 24" fill="none" xmlns="http://www.w3.org/2000/svg">
<g clip-path="url(#clip0_2_1516)">
<path fill-rule="evenodd" clip-rule="evenodd" d="M14.3385 0.998101C20.4148 2.28965 24.2936 8.26245 23.002 14.3387C21.7105 20.415 15.7377 24.2938 9.6614 23.0022C8.55246 22.7665 7.49968 22.371 6.52758 21.8302C6.16561 21.6288 6.03541 21.1722 6.23677 20.8102C6.43813 20.4482 6.89481 20.318 7.25678 20.5194C8.0987 20.9877 9.01087 21.3304 9.97327 21.535C15.2392 22.6543 20.4155 19.2928 21.5348 14.0268C22.6541 8.7609 19.2926 3.58463 14.0267 2.46532C8.76071 1.34601 3.58444 4.70752 2.46513 9.97346C2.11304 11.6299 2.19763 13.3113 2.68611 14.8832L4.24426 13.2547C4.53315 12.9578 5.00798 12.9514 5.30482 13.2403C5.60166 13.5292 5.6081 14.004 5.3192 14.3009L2.93823 16.7748C2.56801 17.1552 1.93062 17.0412 1.71526 16.556C0.761297 14.407 0.498643 12.0105 0.997909 9.6616C2.28946 3.58533 8.26225 -0.293449 14.3385 0.998101Z" fill="#CB4B00"/>
<path d="M13.3381 10.5456C13.671 10.5456 13.8919 10.9158 13.7524 11.2402C13.6779 11.4136 13.5161 11.5247 13.3381 11.5247H8.45691C8.14021 11.5247 7.91985 11.187 8.02819 10.8677C8.0938 10.6743 8.26512 10.5456 8.45691 10.5456H13.3381ZM12.5349 12.4753C12.8719 12.4753 13.0949 12.8508 12.9524 13.1785C12.8768 13.3526 12.714 13.4639 12.5349 13.4639H8.46107C8.14191 13.4639 7.91945 13.1241 8.02771 12.8019C8.09357 12.6059 8.2669 12.4753 8.46107 12.4753H12.5349ZM14.7828 7.66907C15.0004 7.83015 15.0554 8.14048 14.9437 8.39755L14.89 8.52104C14.7489 8.84572 14.3561 8.93606 14.0687 8.7538C13.8738 8.63023 13.6641 8.532 13.4397 8.45913C13.2152 8.38308 12.9746 8.34506 12.7177 8.34506C12.2452 8.34506 11.8244 8.48131 11.4552 8.7538C11.0861 9.0263 10.7952 9.43504 10.5826 9.98004C10.3729 10.5219 10.2681 11.1968 10.2681 12.0048C10.2681 12.8127 10.3729 13.4876 10.5826 14.0295C10.7952 14.5713 11.0861 14.9785 11.4552 15.251C11.8244 15.5203 12.2452 15.6549 12.7177 15.6549C12.9775 15.6549 13.2197 15.6185 13.4441 15.5456C13.6715 15.4728 13.8782 15.3777 14.0642 15.2605C14.3359 15.0874 14.7057 15.1754 14.8425 15.481L14.9118 15.6358C15.0291 15.8981 14.9751 16.2178 14.7496 16.3793C14.5268 16.5388 14.2836 16.6681 14.02 16.7671C13.6065 16.9224 13.1724 17 12.7177 17C11.9764 17 11.3194 16.7988 10.7465 16.3964C10.1766 15.994 9.72917 15.4205 9.40433 14.6759C9.0795 13.9281 8.91708 13.0377 8.91708 12.0048C8.91708 10.9686 9.0795 10.0767 9.40433 9.3289C9.72917 8.58112 10.1766 8.00602 10.7465 7.60361C11.3194 7.2012 11.9764 7 12.7177 7C13.1901 7 13.6302 7.08397 14.0377 7.2519C14.3044 7.35974 14.5528 7.4988 14.7828 7.66907Z" fill="#CB4B00"/>
</g>
<defs>
<clipPath id="clip0_2_1516">
<rect width="24" height="24" fill="white"/>
</clipPath>
</defs>
</svg>
