<svg width="24" height="24" viewBox="0 0 24 24" fill="none" xmlns="http://www.w3.org/2000/svg">
<g clip-path="url(#clip0_2_1485)">
<path fill-rule="evenodd" clip-rule="evenodd" d="M14.3385 0.998101C20.4148 2.28965 24.2936 8.26245 23.002 14.3387C21.7105 20.415 15.7377 24.2938 9.6614 23.0022C8.55246 22.7665 7.49968 22.371 6.52758 21.8302C6.16561 21.6288 6.03541 21.1722 6.23677 20.8102C6.43813 20.4482 6.89481 20.318 7.25678 20.5194C8.0987 20.9877 9.01087 21.3304 9.97327 21.535C15.2392 22.6543 20.4155 19.2928 21.5348 14.0268C22.6541 8.7609 19.2926 3.58463 14.0267 2.46532C8.76071 1.34601 3.58444 4.70752 2.46513 9.97346C2.11304 11.6299 2.19763 13.3113 2.68611 14.8832L4.24426 13.2547C4.53315 12.9578 5.00798 12.9514 5.30482 13.2403C5.60166 13.5292 5.6081 14.004 5.3192 14.3009L2.93823 16.7748C2.56801 17.1552 1.93062 17.0412 1.71526 16.556C0.761297 14.407 0.498643 12.0105 0.997909 9.6616C2.28946 3.58533 8.26225 -0.293449 14.3385 0.998101Z" fill="#CB4B00"/>
<path d="M9.81566 13.267C9.54774 13.5285 9.09713 13.3401 9.09503 12.9657L9.09345 12.6854C9.093 12.6047 9.15827 12.5391 9.23895 12.5391C9.27844 12.5391 9.31624 12.523 9.34366 12.4946L11.5983 10.1575C11.6953 10.0568 11.8291 10 11.969 10C12.4236 10 12.6553 10.5461 12.3393 10.873L10.4561 12.8216C10.4135 12.8657 10.3547 12.8906 10.2934 12.8906C10.2343 12.8906 10.1776 12.9137 10.1353 12.955L9.81566 13.267ZM8.59835 16C8.26789 16 8 15.7321 8 15.4017V8.59835C8 8.26789 8.26789 8 8.59835 8C8.9288 8 9.19669 8.26789 9.19669 8.59835V15.4017C9.19669 15.7321 8.9288 16 8.59835 16ZM12.1672 16C11.9875 16 11.8179 15.9167 11.7081 15.7744L9.99238 13.5518C9.81453 13.3215 9.83628 12.9946 10.0431 12.7899C10.2889 12.5465 10.6922 12.5728 10.9043 12.8461L12.6254 15.0646C12.921 15.4456 12.6494 16 12.1672 16Z" fill="#CB4B00"/>
<path d="M14.3084 16C13.978 16 13.7101 15.7321 13.7101 15.4017V10.5783C13.7101 10.2589 13.969 10 14.2884 10H14.3902C14.6534 10 14.8668 10.2134 14.8668 10.4766V10.9157C14.8668 10.9364 14.8835 10.9531 14.9042 10.9531C14.9201 10.9531 14.9343 10.943 14.9397 10.928C15.0532 10.617 15.2477 10.3715 15.5231 10.1914C15.8086 10.0039 16.1315 9.91016 16.4917 9.91016C16.5664 9.91016 16.6545 9.91276 16.7559 9.91797C16.8959 9.92498 17 10.0422 17 10.1825V10.7948C17 10.9258 16.8738 11.0283 16.7439 11.0117C16.6211 10.9935 16.4984 10.9844 16.3756 10.9844C16.0928 10.9844 15.8407 11.043 15.6192 11.1602C15.4004 11.2747 15.227 11.4349 15.0989 11.6406C14.9708 11.8438 14.9068 12.0755 14.9068 12.3359V15.4017C14.9068 15.7321 14.6389 16 14.3084 16Z" fill="#CB4B00"/>
</g>
<defs>
<clipPath id="clip0_2_1485">
<rect width="24" height="24" fill="white"/>
</clipPath>
</defs>
</svg>
