<svg width="24" height="24" viewBox="0 0 24 24" fill="none" xmlns="http://www.w3.org/2000/svg">
<path fill-rule="evenodd" clip-rule="evenodd" d="M13.5 0.75C13.9142 0.75 14.25 1.08579 14.25 1.5C14.25 1.91421 13.9142 2.25 13.5 2.25H12.75L12.7508 3.02708C14.8346 3.17793 16.7457 3.95171 18.2987 5.16309L19.7157 3.72368C20.0064 3.42859 20.4812 3.42501 20.7763 3.71569C21.0714 4.00637 21.075 4.48123 20.7843 4.77632L19.4126 6.17069C21.1704 8.01076 22.25 10.5043 22.25 13.25C22.25 18.9109 17.6609 23.5 12 23.5C6.33908 23.5 1.75 18.9109 1.75 13.25C1.75 11.0618 2.43821 8.97525 3.69572 7.24038C3.93882 6.905 4.40776 6.83019 4.74314 7.07329C5.07852 7.31639 5.15332 7.78533 4.91023 8.12071C3.83678 9.60165 3.25 11.3806 3.25 13.25C3.25 18.0825 7.16751 22 12 22C16.8325 22 20.75 18.0825 20.75 13.25C20.75 8.41751 16.8325 4.5 12 4.5C10.1156 4.5 8.32315 5.0963 6.83559 6.18582C6.50142 6.43057 6.03211 6.35808 5.78735 6.02391C5.5426 5.68975 5.61509 5.22044 5.94926 4.97568C7.49341 3.84472 9.32002 3.16676 11.2508 3.02703L11.25 2.25H10.5C10.0858 2.25 9.75 1.91421 9.75 1.5C9.75 1.08579 10.0858 0.75 10.5 0.75H13.5ZM12 6.5C12.4142 6.5 12.75 6.83579 12.75 7.25L12.7508 11.4188C13.3416 11.6999 13.75 12.3022 13.75 13C13.75 13.6978 13.3416 14.3001 12.7508 14.5812L12.75 15.25C12.75 15.6642 12.4142 16 12 16C11.5858 16 11.25 15.6642 11.25 15.25L11.2501 14.5817C10.6588 14.3008 10.25 13.6982 10.25 13C10.25 12.3018 10.6588 11.6992 11.2501 11.4183L11.25 7.25C11.25 6.83579 11.5858 6.5 12 6.5Z" fill="#CB4B00"/>
</svg>
