<svg width="24" height="24" viewBox="0 0 24 24" fill="none" xmlns="http://www.w3.org/2000/svg">
<path fill-rule="evenodd" clip-rule="evenodd" d="M0.25 10.8276C0.25 5.49695 5.54246 1.24939 12 1.24939C14.5005 1.24939 16.8868 1.88652 18.8732 3.05422C19.2303 3.26413 19.3496 3.72377 19.1397 4.08086C18.9298 4.43794 18.4702 4.55725 18.1131 4.34734C16.3592 3.31638 14.2357 2.74939 12 2.74939C6.30728 2.74939 1.75 6.40692 1.75 10.8276C1.75 13.2731 3.55483 15.7157 6.37539 17.3464C6.60722 17.4804 6.75 17.7279 6.75 17.9957V20.6459C9.80169 18.7526 11.3862 17.9059 12 17.9059C17.9906 17.9059 22.25 15.0224 22.25 10.8276C22.25 9.43771 21.8025 8.09728 20.957 6.90391C20.7176 6.56593 20.7974 6.09782 21.1354 5.85837C21.4734 5.61891 21.9415 5.69879 22.181 6.03678C23.202 7.47791 23.75 9.11939 23.75 10.8276C23.75 16.0029 18.7232 19.4059 12 19.4059C11.7687 19.4059 9.67022 20.5753 6.39954 22.6341C5.90009 22.9485 5.25 22.5895 5.25 21.9994V18.4208C2.21935 16.545 0.25 13.7651 0.25 10.8276Z" fill="#CB4B00"/>
</svg>
