<svg width="24" height="24" viewBox="0 0 24 24" fill="none" xmlns="http://www.w3.org/2000/svg">
<path fill-rule="evenodd" clip-rule="evenodd" d="M5.07902 7.23108C5.18779 7.26807 5.2866 7.32956 5.36783 7.41079L8.40133 10.4443C8.69423 10.7372 8.69423 11.2121 8.40133 11.505L6.5484 13.3579L8.61959 15.4291L10.6964 17.5058L12.5493 15.6529C12.8422 15.36 13.3171 15.36 13.6099 15.6529L16.6434 18.6864C16.7247 18.7676 16.7862 18.8664 16.8232 18.9752C17.5029 20.9736 13.7502 23.5075 11.1962 22.9847C10.1273 22.7659 9.27003 22.397 8.41022 21.7949C7.58995 21.2205 7.04734 20.7124 5.19038 18.8555C3.34384 17.009 2.83756 16.4684 2.26442 15.6516C1.65944 14.7895 1.28894 13.9301 1.06949 12.8581C0.546718 10.3041 3.08067 6.55134 5.07902 7.23108ZM4.47477 8.63906C3.74915 8.71181 2.23374 11.0658 2.53902 12.5573C2.7172 13.4277 3.00541 14.0962 3.49229 14.79C3.99398 15.505 4.47825 16.022 6.25104 17.7948C8.03376 19.5775 8.55283 20.0636 9.27061 20.5662C9.96234 21.0506 10.6291 21.3376 11.497 21.5152C12.9884 21.8205 15.3424 20.3051 15.4152 19.5795L13.0796 17.2439L11.2267 19.0968C10.9338 19.3897 10.4589 19.3897 10.166 19.0968L7.55894 16.4897L4.95741 13.8882C4.66451 13.5953 4.66451 13.1205 4.95741 12.8276L6.81034 10.9746L4.47477 8.63906ZM16.5585 1C20.2812 1 23.221 3.34873 23.221 6.49519C23.221 9.54105 20.3703 11.4529 16.5585 11.4529C16.6252 11.4529 16.3204 11.591 15.9323 11.8073C15.4085 12.0992 14.6743 12.5422 13.733 13.1347C13.2335 13.4491 12.5835 13.0902 12.5835 12.5V10.767C10.954 9.7029 9.89596 8.15551 9.89596 6.49519C9.89596 3.41951 12.9107 1 16.5585 1ZM16.5585 2.5C13.6755 2.5 11.396 4.32948 11.396 6.49519C11.396 7.66826 12.2902 8.87855 13.7088 9.69871C13.9407 9.83274 14.0835 10.0802 14.0835 10.348V11.1511C15.4725 10.3039 16.1774 9.95288 16.5585 9.95288C19.6389 9.95288 21.721 8.55656 21.721 6.49519C21.721 4.26051 19.5175 2.5 16.5585 2.5Z" fill="#CB4B00"/>
</svg>
