<svg width="24" height="24" viewBox="0 0 24 24" fill="none" xmlns="http://www.w3.org/2000/svg">
<path fill-rule="evenodd" clip-rule="evenodd" d="M12 1.24939C14.5005 1.24939 16.8868 1.88652 18.8732 3.05422C19.2303 3.26413 19.3496 3.72377 19.1397 4.08086C18.9298 4.43794 18.4702 4.55725 18.1131 4.34734C16.3592 3.31638 14.2357 2.74939 12 2.74939C6.30728 2.74939 1.75 6.40692 1.75 10.8276C1.75 13.2731 3.55483 15.7157 6.37539 17.3464C6.60722 17.4804 6.75 17.7279 6.75 17.9957V20.6459C9.80169 18.7526 11.3862 17.9059 12 17.9059C17.9906 17.9059 22.25 15.0224 22.25 10.8276C22.25 9.43771 21.8025 8.09728 20.957 6.90391C20.7176 6.56593 20.7974 6.09782 21.1354 5.85837C21.4734 5.61891 21.9415 5.69879 22.181 6.03678C23.202 7.47791 23.75 9.11939 23.75 10.8276C23.75 16.0029 18.7232 19.4059 12 19.4059C11.7687 19.4059 9.67022 20.5753 6.39954 22.6341C5.90009 22.9485 5.25 22.5895 5.25 21.9994V18.4208C2.21935 16.545 0.25 13.7651 0.25 10.8276C0.25 5.49695 5.54246 1.24939 12 1.24939ZM11.9429 13.4726C12.3356 13.4726 12.6528 13.5959 12.8944 13.8426C13.1361 14.0893 13.2569 14.3889 13.2569 14.7413C13.2569 15.1038 13.1361 15.4084 12.8944 15.6551C12.6528 15.9018 12.3356 16.0251 11.9429 16.0251C11.5502 16.0251 11.233 15.9018 10.9914 15.6551C10.7497 15.4084 10.6289 15.1038 10.6289 14.7413C10.6289 14.3889 10.7497 14.0893 10.9914 13.8426C11.233 13.5959 11.5502 13.4726 11.9429 13.4726ZM12.109 4.99939C12.542 4.99939 12.9448 5.05477 13.3173 5.16553C13.6899 5.27629 14.0121 5.4374 14.284 5.64885C14.5559 5.8603 14.7698 6.11706 14.9259 6.41914C15.082 6.72122 15.16 7.05853 15.16 7.43109C15.16 7.80365 15.092 8.1309 14.9561 8.41283C14.8202 8.69477 14.6515 8.9465 14.4501 9.16802C14.2487 9.38954 14.0373 9.59092 13.8158 9.77217C13.5942 9.95341 13.3979 10.1246 13.2267 10.2857C13.0455 10.4569 12.907 10.6255 12.8114 10.7917C12.7157 10.9578 12.6628 11.197 12.6528 11.5091C12.6427 11.5897 12.6201 11.6551 12.5848 11.7054C12.5496 11.7558 12.4866 11.791 12.396 11.8112L11.5804 11.9471C11.3992 11.9773 11.2985 11.8917 11.2783 11.6903L11.2179 10.8898C11.1978 10.6079 11.2305 10.3587 11.3161 10.1422C11.4017 9.92572 11.5175 9.72938 11.6635 9.55317C11.8095 9.37695 11.9681 9.21333 12.1393 9.06229C12.3104 8.91126 12.4715 8.76022 12.6226 8.60918C12.7736 8.45814 12.902 8.30459 13.0077 8.14852C13.1134 7.99245 13.1663 7.81372 13.1663 7.61234C13.1663 7.32033 13.0555 7.09629 12.834 6.94022C12.6125 6.78415 12.3104 6.70611 11.9278 6.70611C11.5754 6.70611 11.2355 6.76904 10.9083 6.89491C10.581 7.02077 10.2563 7.1844 9.93411 7.38578C9.75286 7.49654 9.6119 7.45123 9.5112 7.24985L9.05809 6.29831C9.00774 6.20769 8.99012 6.12714 9.00523 6.05665C9.02033 5.98617 9.07823 5.91568 9.17892 5.8452C9.52127 5.61361 9.94669 5.41474 10.4552 5.2486C10.9637 5.08246 11.515 4.99939 12.109 4.99939Z" fill="#CB4B00"/>
</svg>
