<svg width="24" height="24" viewBox="0 0 24 24" fill="none" xmlns="http://www.w3.org/2000/svg">
<path fill-rule="evenodd" clip-rule="evenodd" d="M20.5 4.75C21.4665 4.75 22.25 5.5335 22.25 6.5V17.5C22.25 18.4665 21.4665 19.25 20.5 19.25H3.5C2.5335 19.25 1.75 18.4665 1.75 17.5V9C1.75 8.58579 2.08579 8.25 2.5 8.25C2.91421 8.25 3.25 8.58579 3.25 9V17.5C3.25 17.6381 3.36193 17.75 3.5 17.75H20.5C20.6381 17.75 20.75 17.6381 20.75 17.5V6.5C20.75 6.36193 20.6381 6.25 20.5 6.25H3.5C3.36193 6.25 3.25 6.36193 3.25 6.5C3.25 6.91421 2.91421 7.25 2.5 7.25C2.08579 7.25 1.75 6.91421 1.75 6.5C1.75 5.5335 2.5335 4.75 3.5 4.75H20.5ZM19.5604 7.50157C19.8357 7.81108 19.8079 8.28515 19.4984 8.56042L15.886 11.773L19.5341 15.4735C19.8249 15.7685 19.8215 16.2433 19.5265 16.5341C19.2315 16.8249 18.7567 16.8215 18.4659 16.5265L14.764 12.771L12.5023 14.7826C12.2182 15.0353 11.79 15.0354 11.5057 14.7829L9.242 12.772L5.5336 16.527C5.24252 16.8217 4.76766 16.8247 4.47296 16.5336C4.17826 16.2425 4.17532 15.7677 4.4664 15.473L8.119 11.774L4.50188 8.56069C4.19222 8.28559 4.1642 7.81154 4.43931 7.50188C4.71441 7.19222 5.18846 7.1642 5.49812 7.43931L12.0036 13.2188L18.5016 7.43958C18.8111 7.16431 19.2851 7.19206 19.5604 7.50157Z" fill="#CB4B00"/>
</svg>
