<svg width="24" height="24" viewBox="0 0 24 24" fill="none" xmlns="http://www.w3.org/2000/svg">
<path d="M3 7.75C3.41421 7.75 3.75 8.08579 3.75 8.5C3.75 8.82655 3.5413 9.10436 3.25 9.20732V19.75H20.75V9.20732C20.4587 9.10436 20.25 8.82655 20.25 8.5C20.25 8.08579 20.5858 7.75 21 7.75H21.5C21.9142 7.75 22.25 8.08579 22.25 8.5V20.5C22.25 20.9142 21.9142 21.25 21.5 21.25H2.5C2.08579 21.25 1.75 20.9142 1.75 20.5V8.5C1.75 8.08579 2.08579 7.75 2.5 7.75H3ZM19 2.75C19.4142 2.75 19.75 3.08579 19.75 3.5V10C19.75 10.1051 19.7284 10.2052 19.6893 10.2961C19.684 10.3084 19.6781 10.3213 19.6717 10.3341C19.6631 10.3513 19.6541 10.3677 19.6445 10.3837C19.6369 10.3967 19.6289 10.4092 19.6206 10.4215C19.6085 10.4391 19.5956 10.4563 19.5821 10.4729C19.5761 10.4805 19.5698 10.488 19.5633 10.4953C19.5467 10.514 19.5294 10.5319 19.5112 10.5488C19.5075 10.5522 19.503 10.5564 19.4984 10.5604L15.886 13.773L19.5341 17.4735C19.8249 17.7685 19.8215 18.2433 19.5265 18.5341C19.2315 18.8249 18.7567 18.8215 18.4659 18.5265L14.764 14.771L12.5023 16.7826C12.2182 17.0353 11.79 17.0354 11.5057 16.7829L9.242 14.772L5.5336 18.527C5.24252 18.8217 4.76766 18.8247 4.47296 18.5336C4.17826 18.2425 4.17532 17.7677 4.4664 17.473L8.119 13.774L4.50188 10.5607L4.48788 10.5479C4.47262 10.5337 4.45796 10.5188 4.44394 10.5033L4.50188 10.5607C4.46957 10.532 4.44033 10.5011 4.41417 10.4685C4.40223 10.4535 4.39052 10.4376 4.37944 10.4213C4.37108 10.4092 4.36353 10.3974 4.35634 10.3854C4.34497 10.3663 4.3341 10.3462 4.32414 10.3255C4.31905 10.315 4.31446 10.3049 4.31011 10.2947C4.27147 10.2045 4.25 10.1047 4.25 10V3.5C4.25 3.08579 4.58579 2.75 5 2.75H19ZM18.25 4.25H5.75V9.663L12.0036 15.2188L18.25 9.662V4.25ZM15.5 8.75C15.9142 8.75 16.25 9.08579 16.25 9.5C16.25 9.91421 15.9142 10.25 15.5 10.25H8.5C8.08579 10.25 7.75 9.91421 7.75 9.5C7.75 9.08579 8.08579 8.75 8.5 8.75H15.5ZM16 5.75C16.4142 5.75 16.75 6.08579 16.75 6.5C16.75 6.91421 16.4142 7.25 16 7.25H8C7.58579 7.25 7.25 6.91421 7.25 6.5C7.25 6.08579 7.58579 5.75 8 5.75H16Z" fill="#CB4B00"/>
</svg>
