<svg width="24" height="24" viewBox="0 0 24 24" fill="none" xmlns="http://www.w3.org/2000/svg">
<path fill-rule="evenodd" clip-rule="evenodd" d="M6.36921 3.5301C6.05202 3.5473 5.44634 3.95668 4.85555 4.71864C4.08184 5.71652 3.56257 7.00173 3.53396 8.08278C3.523 8.49685 3.17845 8.82363 2.76438 8.81267C2.35031 8.80172 2.02353 8.45716 2.03449 8.04309C2.11474 5.01056 4.93721 1.37032 7.00219 2.13807C7.10321 2.17563 7.19494 2.23452 7.27115 2.31073L11.1541 6.19364C11.447 6.48654 11.447 6.96141 11.1541 7.2543L8.63354 9.77484L14.229 15.3703L16.7495 12.8497C17.0424 12.5569 17.5173 12.5569 17.8102 12.8497L21.6934 16.733C21.7746 16.8142 21.8361 16.913 21.8731 17.0218C22.6795 19.3923 18.044 22.5223 14.911 21.881C13.5668 21.6059 12.4935 21.1431 11.4134 20.3852C10.3821 19.6615 9.69341 19.0165 7.33995 16.663C4.98588 14.309 4.35744 13.639 3.63665 12.6168C3.39376 12.2723 3.18277 11.9315 2.99819 11.5833C2.80418 11.2174 2.94357 10.7634 3.30954 10.5694C3.67551 10.3754 4.12946 10.5148 4.32347 10.8807C4.47751 11.1713 4.65523 11.4584 4.86254 11.7524C5.51245 12.6741 6.11991 13.3217 8.40061 15.6024C10.6803 17.8821 11.3455 18.5051 12.275 19.1573C13.1868 19.7971 14.0692 20.1776 15.2118 20.4115C16.2809 20.6303 17.7235 20.2198 18.9401 19.3983C19.8911 18.7562 20.4452 18.0213 20.4674 17.6283L17.2798 14.4407L14.7593 16.9613C14.4664 17.2542 13.9915 17.2542 13.6987 16.9613L7.04255 10.3052C6.74965 10.0123 6.74965 9.5374 7.04255 9.24451L9.56308 6.72397L6.36921 3.5301Z" fill="#CB4B00"/>
</svg>
