<svg width="24" height="24" viewBox="0 0 24 24" fill="none" xmlns="http://www.w3.org/2000/svg">
<path d="M15.8438 15.3878C15.5189 15.3878 15.1954 15.3153 14.8933 15.171C14.3605 14.917 13.9585 14.4703 13.7616 13.9136C13.5644 13.3569 13.5959 12.7565 13.8502 12.2236C14.1043 11.6907 14.5512 11.2887 15.108 11.0918C15.6638 10.8949 16.2645 10.9264 16.7971 11.1808C17.3302 11.4351 17.7326 11.8815 17.9295 12.4382C18.1263 12.9949 18.0949 13.5947 17.8405 14.1276C17.5861 14.6605 17.1398 15.0625 16.5831 15.26C16.3419 15.3453 16.0921 15.3878 15.8438 15.3878ZM15.8463 12.2642C15.7436 12.2642 15.6408 12.2814 15.5412 12.3171C15.3116 12.3981 15.1275 12.5635 15.0227 12.7834C14.9178 13.0032 14.905 13.2502 14.9863 13.4801C15.0673 13.7097 15.233 13.8937 15.4528 13.9983C15.6723 14.1028 15.9197 14.1172 16.1496 14.035C16.3788 13.9537 16.5632 13.7883 16.6681 13.5684C16.7729 13.3486 16.7858 13.101 16.7044 12.8717H16.7041C16.6234 12.6424 16.4577 12.4581 16.2379 12.3529C16.1135 12.2942 15.9802 12.2642 15.8463 12.2642Z" fill="#CB4B00"/>
<path d="M8.13563 13.028C7.2255 13.028 6.3707 12.4606 6.04969 11.5547C5.85281 10.998 5.8843 10.3976 6.13835 9.8647C6.39271 9.33183 6.83937 8.93011 7.39609 8.73322C7.95189 8.53634 8.55294 8.56783 9.0855 8.82188C9.61838 9.07624 10.0207 9.5229 10.2176 10.0796C10.6242 11.2285 10.0201 12.4942 8.87119 12.9011C8.62845 12.987 8.3799 13.028 8.13563 13.028ZM8.13471 9.90536C8.03199 9.90536 7.92896 9.92279 7.8293 9.95825C7.5997 10.0393 7.41566 10.205 7.3111 10.4245C7.20624 10.6443 7.19309 10.8913 7.27441 11.1215C7.44225 11.5948 7.96351 11.843 8.43799 11.6761C8.91155 11.5086 9.16041 10.987 8.99287 10.5128C8.91186 10.2835 8.74585 10.0992 8.52603 9.99432C8.40191 9.93532 8.26831 9.90536 8.13471 9.90536Z" fill="#CB4B00"/>
<path d="M7.06996 22.0713C6.87827 22.1392 6.66763 22.0386 6.59976 21.8469L6.5059 21.5816C6.13996 20.5482 5.39491 19.7182 4.40652 19.2428C3.15856 18.6424 2.14693 17.6433 1.68529 16.3375L1.31353 15.2874C0.833857 13.9327 0.906619 12.4732 1.51776 11.1742C1.98765 10.1751 2.065 9.0363 1.69691 7.99532L1.60305 7.72995C1.53518 7.53826 1.63546 7.32762 1.82715 7.25975L13.1281 3.25969C13.3198 3.19182 13.5305 3.2921 13.5983 3.48379L13.786 4.01452C13.8539 4.20621 13.7533 4.41654 13.5616 4.48441L3.102 8.187C3.3689 9.36923 3.23255 10.5991 2.70151 11.7092C2.23039 12.6933 2.17445 13.8254 2.53825 14.8539L2.84489 15.7212C3.2087 16.7493 3.96353 17.5937 4.94825 18.0621C6.06077 18.591 6.94125 19.4611 7.47779 20.5485L20.8769 15.8059C20.6101 14.623 20.7467 13.3931 21.2784 12.2828C21.7492 11.2989 21.8051 10.1669 21.441 9.13871L21.1337 8.27169C20.7693 7.24294 20.0133 6.39823 19.0276 5.92925C17.917 5.40066 17.0374 4.53088 16.5008 3.44404L15.481 3.8051C15.2893 3.87297 15.0789 3.77269 15.0111 3.58101L14.8231 3.05028C14.7552 2.85859 14.8555 2.64795 15.0475 2.58008L16.909 1.92125C17.1007 1.85338 17.311 1.95365 17.3789 2.14565L17.4727 2.41071C17.839 3.44496 18.5843 4.27469 19.5721 4.74978C20.8192 5.3493 21.8302 6.34717 22.2921 7.65169L22.7311 8.89077C23.1934 10.1956 23.0353 11.6077 22.4425 12.8587C21.9733 13.849 21.9164 14.9633 22.2823 15.9979L22.3762 16.2632C22.4441 16.4549 22.3435 16.6653 22.1518 16.7331L7.06996 22.0713Z" fill="#CB4B00"/>
<path d="M14.2463 6.58912L13.7174 6.39743C13.526 6.32834 13.3148 6.42709 13.2457 6.61847L9.51158 16.9317C9.44248 17.1231 9.54123 17.334 9.73231 17.4034L10.2615 17.5951C10.4529 17.6642 10.6638 17.5654 10.7332 17.374L14.467 7.06085C14.5364 6.86947 14.4374 6.65852 14.2463 6.58912Z" fill="#CB4B00"/>
</svg>
