<svg width="24" height="24" viewBox="0 0 24 24" fill="none" xmlns="http://www.w3.org/2000/svg">
<path fill-rule="evenodd" clip-rule="evenodd" d="M18.0819 5.36629C17.9446 5.24025 17.7274 5.25799 17.6066 5.39991L17.2792 5.78521C17.1631 5.92153 17.1803 6.12196 17.3116 6.24334C19.4043 8.17454 20.3237 11.1207 19.5749 14.0117C18.7803 17.0795 16.1261 19.3888 12.9805 19.7729C8.22581 20.3537 4.16704 16.6419 4.16704 12.0002C4.16704 7.68092 7.68084 4.16712 11.9998 4.16712C13.2821 4.16712 14.5429 4.48053 15.6664 5.07623C15.8242 5.15995 16.0187 5.10984 16.109 4.95547L16.3639 4.51912C16.4582 4.35821 16.4028 4.14658 16.2385 4.0585C14.9403 3.36507 13.4825 3 11.9998 3C6.6986 3 2.45278 7.6081 3.0575 13.0288C3.51719 17.1508 6.84892 20.4828 10.9712 20.9425C16.3919 21.5472 21 17.3014 21 12.0002C21 9.46895 19.9406 7.07029 18.0819 5.36629ZM13.9963 16.5916C13.9963 16.023 13.7967 15.539 13.3974 15.1397C12.9982 14.7405 12.5142 14.5408 11.9455 14.5408C11.3769 14.5408 10.8929 14.7405 10.4936 15.1397C10.0944 15.539 9.89471 16.023 9.89471 16.5916C9.89471 17.1603 10.0944 17.6443 10.4936 18.0435C10.8929 18.4428 11.3769 18.6425 11.9455 18.6425C12.5142 18.6425 12.9982 18.4428 13.3974 18.0435C13.7967 17.6443 13.9963 17.1603 13.9963 16.5916ZM11.0925 16.5916C11.0925 16.3617 11.1772 16.1651 11.3466 16.0018C11.516 15.8385 11.7156 15.7568 11.9455 15.7568C12.1754 15.7568 12.3751 15.8385 12.5444 16.0018C12.7138 16.1651 12.7985 16.3617 12.7985 16.5916C12.7985 16.8215 12.7138 17.0212 12.5444 17.1905C12.3751 17.3599 12.1754 17.4446 11.9455 17.4446C11.7156 17.4446 11.516 17.3599 11.3466 17.1905C11.1772 17.0212 11.0925 16.8215 11.0925 16.5916ZM11.4737 13.6697L12.6715 13.4519C12.8893 13.4277 13.0738 13.3309 13.2251 13.1615C13.3763 12.9921 13.4519 12.7985 13.4519 12.5807L13.8875 6.84572C13.8875 6.84572 13.8875 6.84269 13.8875 6.83664C13.8875 6.83059 13.8875 6.82757 13.8875 6.82757C13.8875 6.59768 13.8088 6.40409 13.6516 6.2468C13.4943 6.08951 13.3067 6.01087 13.0889 6.01087C13.0768 6.01087 13.0708 6.01087 13.0708 6.01087C13.0708 6.01087 13.0647 6.01087 13.0526 6.01087H10.8385C10.8264 6.01087 10.8173 6.01087 10.8113 6.01087C10.8052 6.01087 10.8022 6.01087 10.8022 6.01087C10.5723 6.01087 10.3787 6.08951 10.2214 6.2468C10.0641 6.40409 9.9855 6.59768 9.9855 6.82757C9.9855 6.82757 9.9855 6.83059 9.9855 6.83664C9.9855 6.84269 9.9855 6.84572 9.9855 6.84572L10.4937 12.9074C10.4937 13.0284 10.5239 13.1403 10.5844 13.2432C10.6449 13.346 10.7175 13.4337 10.8022 13.5063C10.8748 13.5547 10.9504 13.5941 11.0291 13.6243C11.1077 13.6546 11.1894 13.6697 11.2741 13.6697C11.2862 13.6697 11.2922 13.6697 11.2922 13.6697H11.4737ZM12.6534 7.20868L12.236 12.2903L11.637 12.3992L11.2196 7.20868H12.6534Z" fill="#CB4B00"/>
</svg>
