<svg width="24" height="24" viewBox="0 0 24 24" fill="none" xmlns="http://www.w3.org/2000/svg">
<path fill-rule="evenodd" clip-rule="evenodd" d="M22.1739 5.37612L21.9716 5.08953C21.9492 5.05581 21.9155 5.02491 21.8705 4.99681C21.8255 4.96871 21.775 4.95467 21.7188 4.95467C21.6626 4.95467 21.612 4.96871 21.567 4.99681C21.5221 5.02491 21.4884 5.05581 21.4659 5.08953L19.2238 8.14087L17.9425 7.19681L20.1847 4.14547C20.2072 4.123 20.224 4.0949 20.2352 4.06118C20.2465 4.02747 20.2521 3.99375 20.2521 3.96003C20.2521 3.8926 20.2296 3.83079 20.1847 3.77459C20.1397 3.7184 20.0835 3.67906 20.0161 3.65658L19.6621 3.55544C19.471 3.49924 19.2631 3.45429 19.0383 3.42057C18.8135 3.38685 18.5831 3.37 18.3471 3.37C17.7065 3.37 17.1052 3.488 16.5433 3.72402C15.9814 3.97127 15.4897 4.30282 15.0682 4.71866C14.6467 5.13449 14.318 5.62338 14.082 6.18532C13.8347 6.74726 13.7111 7.34854 13.7111 7.98916C13.7111 8.12402 13.7167 8.25608 13.728 8.38532C13.7392 8.51457 13.7561 8.64663 13.7785 8.78149L9.32797 5.511L8.11417 4.63437C8.09169 4.61189 8.0636 4.59503 8.02988 4.58379C7.99616 4.57256 7.96245 4.56694 7.92873 4.56694C7.87254 4.56694 7.82477 4.57817 7.78544 4.60065C7.7461 4.62313 7.70958 4.65685 7.67586 4.7018L7.38927 5.08954C7.36679 5.11202 7.34993 5.14012 7.33869 5.17383C7.32746 5.20755 7.32184 5.24127 7.32184 5.27498C7.32184 5.33118 7.33588 5.37894 7.36398 5.41828C7.39208 5.45761 7.42299 5.49414 7.4567 5.52786L8.36705 6.20219L3.20843 13.2827C3.12976 13.3838 3.02861 13.4653 2.90498 13.5271C2.78135 13.5889 2.64649 13.6198 2.50038 13.6198C2.39923 13.6198 2.3037 13.603 2.21379 13.5692C2.12388 13.5355 2.04521 13.4906 1.97778 13.4344L1.79234 13.3164C1.75862 13.2939 1.72771 13.277 1.69962 13.2658C1.67152 13.2546 1.64061 13.2489 1.6069 13.2489C1.5507 13.2489 1.50013 13.2602 1.45517 13.2827C1.41022 13.3051 1.3765 13.3332 1.35402 13.3669L1.06743 13.7715C1.04496 13.794 1.0281 13.8221 1.01686 13.8558C1.00562 13.8895 1 13.9233 1 13.957C1 14.0019 1.01124 14.0469 1.03372 14.0918C1.05619 14.1368 1.08991 14.1761 1.13487 14.2099L1.32031 14.3447C1.47765 14.4683 1.65747 14.5639 1.85977 14.6313C2.06207 14.6987 2.26999 14.7325 2.48352 14.7325C2.506 14.7325 2.53129 14.7325 2.55938 14.7325C2.58748 14.7325 2.61839 14.7325 2.6521 14.7325C2.67458 14.7325 2.69987 14.7325 2.72797 14.7325C2.75606 14.7325 2.78135 14.7325 2.80383 14.7325C3.03984 14.6875 3.26181 14.6088 3.46973 14.4964C3.67765 14.3841 3.85466 14.238 4.00077 14.0581L6.49579 15.8788C6.5295 15.9013 6.56041 15.9153 6.58851 15.921C6.6166 15.9266 6.64751 15.9294 6.68123 15.9294C6.73742 15.9294 6.788 15.9182 6.83295 15.8957C6.87791 15.8732 6.91162 15.8451 6.9341 15.8114L7.22069 15.4236C7.24317 15.3899 7.26003 15.359 7.27126 15.3309C7.2825 15.3028 7.28812 15.2719 7.28812 15.2382C7.28812 15.182 7.27688 15.1314 7.25441 15.0865C7.23193 15.0415 7.19821 15.0022 7.15326 14.9685L4.6751 13.1646L9.2774 6.85968L16.341 12.0014C16.1612 12.1475 15.9589 12.2627 15.7341 12.347C15.5093 12.4313 15.2677 12.4791 15.0092 12.4903C14.7507 12.4903 14.5063 12.4482 14.2759 12.3639C14.0455 12.2796 13.8404 12.1644 13.6605 12.0183L12.6322 11.2765L12.1939 10.9731C12.1714 10.9506 12.1433 10.9338 12.1096 10.9225C12.0759 10.9113 12.0421 10.9057 12.0084 10.9057C11.9747 10.9057 11.941 10.9113 11.9073 10.9225C11.8736 10.9338 11.8455 10.9506 11.823 10.9731L11.6713 11.0742C11.0419 11.535 10.5614 11.771 10.2299 11.7823C9.89834 11.7935 9.55837 11.6699 9.20997 11.4114L9.00767 11.2597C8.98519 11.2372 8.95709 11.2203 8.92338 11.2091C8.88966 11.1979 8.85594 11.1922 8.82223 11.1922C8.77727 11.1922 8.73232 11.2063 8.68736 11.2344C8.64241 11.2625 8.60307 11.2934 8.56935 11.3271L8.28276 11.7149C8.26029 11.7486 8.24624 11.7795 8.24062 11.8076C8.235 11.8357 8.23219 11.8666 8.23219 11.9003C8.23219 11.9565 8.24343 12.0071 8.2659 12.052C8.28838 12.097 8.31648 12.1307 8.3502 12.1532L8.5525 12.3049C8.77727 12.4847 9.02733 12.6252 9.30268 12.7263C9.57804 12.8275 9.86744 12.8781 10.1709 12.8781C10.1709 12.8781 10.1737 12.8781 10.1793 12.8781C10.1849 12.8781 10.1877 12.8781 10.1877 12.8781L8.6705 14.9685C8.55811 15.1258 8.4682 15.3057 8.40077 15.508C8.33334 15.7103 8.29962 15.9182 8.29962 16.1317C8.29962 16.3677 8.33615 16.5897 8.4092 16.7976C8.48225 17.0055 8.58621 17.1938 8.72108 17.3624L6.73181 20.0934C6.70933 20.1271 6.69247 20.158 6.68123 20.1861C6.66999 20.2142 6.66437 20.2451 6.66437 20.2788C6.66437 20.3687 6.69528 20.4446 6.75709 20.5064C6.81891 20.5682 6.89477 20.5991 6.98468 20.5991H7.59158C7.63653 20.5991 7.68149 20.5879 7.72644 20.5654C7.7714 20.5429 7.81073 20.5148 7.84445 20.4811L9.58085 18.0873L10.7609 18.947C10.8059 18.9807 10.8508 19.0117 10.8958 19.0397C10.9407 19.0678 10.9857 19.0931 11.0307 19.1156L10.3226 20.1102C10.3001 20.1327 10.2833 20.1608 10.272 20.1945C10.2608 20.2283 10.2552 20.262 10.2552 20.2957C10.2552 20.3856 10.2861 20.4615 10.3479 20.5233C10.4097 20.5851 10.4856 20.616 10.5755 20.616H11.1824C11.2386 20.616 11.2863 20.6048 11.3257 20.5823C11.365 20.5598 11.4015 20.5261 11.4353 20.4811L12.1096 19.6045C12.2332 19.6382 12.3681 19.6635 12.5142 19.6804C12.6603 19.6972 12.8064 19.7056 12.9525 19.7056C12.9637 19.7056 12.9694 19.7056 12.9694 19.7056C12.9694 19.7056 12.975 19.7056 12.9862 19.7056C13.0874 19.7056 13.1885 19.7028 13.2897 19.6972C13.3908 19.6916 13.4863 19.6775 13.5763 19.6551C14.082 19.5764 14.5428 19.405 14.9586 19.1409C15.3745 18.8768 15.7285 18.5537 16.0207 18.1715L17.7908 15.744C17.9594 15.5192 18.0914 15.2635 18.187 14.9769C18.2825 14.6903 18.3303 14.3953 18.3303 14.0919C18.3303 13.8221 18.2937 13.5608 18.2207 13.3079C18.1476 13.0551 18.0437 12.8219 17.9088 12.6083C17.9875 12.6083 18.0662 12.6168 18.1448 12.6336C18.2235 12.6505 18.3022 12.6589 18.3808 12.6589C19.1451 12.6589 19.8531 12.4847 20.505 12.1363C21.1568 11.7879 21.6963 11.3271 22.1234 10.7539L22.1402 10.7371C22.41 10.3662 22.6207 9.95035 22.7724 9.48956C22.9241 9.02877 23 8.5455 23 8.03975C23 7.53401 22.9269 7.05636 22.7808 6.60681C22.6347 6.15726 22.4268 5.74142 22.1571 5.3593L22.1739 5.37612ZM16.8636 15.0865L15.1272 17.4635C14.8799 17.8006 14.5709 18.0647 14.2 18.2558C13.8291 18.4469 13.4245 18.5424 12.9862 18.5424C12.694 18.5424 12.413 18.4974 12.1433 18.4075C11.8736 18.3176 11.6263 18.1884 11.4015 18.0198L9.78314 16.8397C9.67075 16.761 9.58084 16.6599 9.51341 16.5363C9.44598 16.4126 9.41226 16.2778 9.41226 16.1317C9.41226 16.0305 9.42912 15.935 9.46283 15.8451C9.49655 15.7552 9.53589 15.6765 9.58084 15.6091L12.059 12.2037L13.0536 12.9455C13.3234 13.1478 13.6212 13.3079 13.9471 13.4259C14.273 13.5439 14.6215 13.6029 14.9923 13.6029C15.3295 13.6029 15.6554 13.5524 15.9701 13.4512C16.2848 13.3501 16.5714 13.2096 16.8299 13.0298C16.9423 13.1759 17.0322 13.3388 17.0996 13.5186C17.167 13.6985 17.2008 13.8895 17.2008 14.0918C17.2008 14.2829 17.1699 14.4627 17.108 14.6313C17.0462 14.7999 16.9647 14.9572 16.8636 15.1033V15.0865ZM21.1962 10.0796C20.8702 10.5179 20.46 10.8691 19.9655 11.1332C19.471 11.3973 18.9315 11.5294 18.3471 11.5294C18.1898 11.5294 18.0296 11.5181 17.8667 11.4957C17.7037 11.4732 17.5492 11.4395 17.4031 11.3945L15.3969 9.92784C15.2171 9.65811 15.0766 9.36028 14.9755 9.03436C14.8743 8.70843 14.8238 8.36565 14.8238 8.006C14.8238 7.5115 14.9137 7.0507 15.0935 6.62363C15.2845 6.19656 15.5374 5.82567 15.8521 5.51099C16.1668 5.1963 16.5377 4.94343 16.9647 4.75237C17.3918 4.57255 17.847 4.48264 18.3303 4.48264C18.364 4.48264 18.3977 4.48264 18.4314 4.48264C18.4651 4.48264 18.4988 4.48264 18.5326 4.48264L16.577 7.17995C16.5545 7.21367 16.5377 7.24458 16.5264 7.27267C16.5152 7.30077 16.5096 7.33168 16.5096 7.36539C16.5096 7.42159 16.5236 7.47216 16.5517 7.51712C16.5798 7.56207 16.6107 7.60141 16.6444 7.63513L19.2406 9.52325C19.2631 9.54573 19.2912 9.56258 19.3249 9.57382C19.3586 9.58506 19.3923 9.59068 19.4261 9.59068C19.471 9.59068 19.516 9.57663 19.5609 9.54854C19.6059 9.52044 19.6452 9.48953 19.6789 9.45582L21.6345 6.72478C21.7132 6.91584 21.7722 7.12095 21.8115 7.34011C21.8508 7.55927 21.8705 7.78124 21.8705 8.00601C21.8705 8.39937 21.8115 8.77307 21.6935 9.12709C21.5755 9.48111 21.4097 9.80422 21.1962 10.0964L21.6513 10.4167L21.1962 10.0796Z" fill="#CB4B00"/>
</svg>
