<svg width="24" height="24" viewBox="0 0 24 24" fill="none" xmlns="http://www.w3.org/2000/svg">
<path fill-rule="evenodd" clip-rule="evenodd" d="M5.9916 19.4841C5.45379 19.4841 4.94958 19.3832 4.479 19.1815C4.00841 18.9799 3.59664 18.7026 3.2437 18.3496C2.89076 17.9967 2.61345 17.5849 2.41177 17.1143C2.21009 16.6437 2.10925 16.1395 2.10925 15.6017C2.10925 15.0639 2.21009 14.5597 2.41177 14.0891C2.61345 13.6185 2.89076 13.2067 3.2437 12.8538C3.59664 12.5009 4.00841 12.2236 4.479 12.0219C4.94958 11.8202 5.45379 11.7194 5.9916 11.7194C6.52942 11.7194 7.03362 11.8202 7.50421 12.0219C7.9748 12.2236 8.38656 12.5009 8.7395 12.8538C9.09244 13.2068 9.36975 13.6185 9.57144 14.0891C9.77312 14.5597 9.87396 15.0639 9.87396 15.6017C9.87396 16.1395 9.77312 16.6437 9.57144 17.1143C9.36976 17.5849 9.09245 17.9967 8.7395 18.3496C8.38656 18.7026 7.97479 18.9799 7.50421 19.1815C7.03362 19.3832 6.52942 19.4841 5.9916 19.4841ZM5.9916 10.6101C5.30813 10.6101 4.65827 10.7389 4.04202 10.9966C3.43698 11.2655 2.91036 11.6241 2.46219 12.0723C2.01401 12.5205 1.65546 13.0527 1.38655 13.6689C1.12885 14.274 1 14.9182 1 15.6017C1 16.2964 1.12885 16.9462 1.38655 17.5513C1.65546 18.1563 2.01401 18.6857 2.46219 19.1395C2.91036 19.5933 3.43698 19.949 4.04202 20.2067C4.65827 20.4644 5.30813 20.5933 5.9916 20.5933C6.68628 20.5933 7.33614 20.4644 7.94118 20.2067C8.54623 19.949 9.07564 19.5933 9.52942 19.1395C9.9832 18.6857 10.3389 18.1563 10.5966 17.5513C10.8544 16.9462 10.9832 16.2964 10.9832 15.6017C10.9832 14.9182 10.8544 14.274 10.5966 13.6689C10.3389 13.0527 9.9832 12.5205 9.52942 12.0723C9.07564 11.6241 8.54623 11.2655 7.94118 10.9966C7.33614 10.7389 6.68628 10.6101 5.9916 10.6101ZM6.02521 17.1815H5.57143C5.4818 17.1815 5.40617 17.2123 5.34454 17.274C5.28292 17.3356 5.25211 17.4056 5.25211 17.484V17.9714C5.25211 18.0611 5.28292 18.1367 5.34454 18.1983C5.40617 18.26 5.4818 18.2908 5.57143 18.2908H6.04202C6.13166 18.2908 6.20729 18.26 6.26891 18.1983C6.33054 18.1367 6.36135 18.0611 6.36135 17.9714V17.484C6.36135 17.4056 6.33054 17.3356 6.26891 17.274C6.20729 17.2123 6.13166 17.1815 6.04202 17.1815H6.02521ZM5.9916 12.9294C5.62185 12.9294 5.29692 13.0415 5.01681 13.2656C4.7367 13.4897 4.55182 13.7698 4.46219 14.1059V14.1227C4.45098 14.1339 4.44538 14.1451 4.44538 14.1563C4.44538 14.1675 4.44538 14.1787 4.44538 14.1899C4.44538 14.2796 4.47619 14.3552 4.53782 14.4168C4.59944 14.4784 4.67507 14.5093 4.76471 14.5093H5.26891C5.26891 14.5093 5.27171 14.5093 5.27732 14.5093C5.28292 14.5093 5.28572 14.5093 5.28572 14.5093C5.34174 14.5093 5.39776 14.4925 5.45379 14.4588C5.50981 14.4252 5.54902 14.3804 5.57143 14.3244C5.60505 14.246 5.66107 14.1787 5.7395 14.1227C5.81793 14.0667 5.90197 14.0387 5.9916 14.0387C6.12605 14.0387 6.2381 14.0835 6.32773 14.1731C6.41737 14.2628 6.46219 14.3748 6.46219 14.5093C6.46219 14.5765 6.44818 14.6381 6.42017 14.6941C6.39216 14.7502 6.36135 14.795 6.32773 14.8286L5.60505 15.5513C5.53782 15.6073 5.479 15.6745 5.42858 15.753C5.37816 15.8314 5.34174 15.9154 5.31933 16.0051C5.29693 16.1059 5.30813 16.1871 5.35295 16.2488C5.39777 16.3104 5.45939 16.3412 5.53782 16.3412H6.26051C6.30533 16.3412 6.34735 16.3328 6.38656 16.316C6.42578 16.2992 6.46219 16.2796 6.49581 16.2572L7.10085 15.6017C7.24651 15.4672 7.36135 15.3048 7.44539 15.1143C7.52942 14.9238 7.57144 14.7165 7.57144 14.4925C7.56023 14.0667 7.40337 13.6997 7.10085 13.3916C6.79833 13.0835 6.42857 12.9294 5.9916 12.9294ZM18.2605 19.4841H15.4874C15.3978 19.4841 15.3221 19.5149 15.2605 19.5765C15.1989 19.6381 15.1681 19.7138 15.1681 19.8034V20.2908C15.1681 20.3804 15.1989 20.4561 15.2605 20.5177C15.3221 20.5793 15.3978 20.6101 15.4874 20.6101H18.2605C18.3501 20.6101 18.4258 20.5793 18.4874 20.5177C18.549 20.4561 18.5798 20.3804 18.5798 20.2908V19.8034C18.5798 19.7138 18.549 19.6381 18.4874 19.5765C18.4258 19.5149 18.3501 19.4841 18.2605 19.4841ZM19.3025 16.9462H17.8067L20.2605 13.5681C20.7535 13.5009 21.1653 13.2768 21.4958 12.8958C21.8263 12.5149 21.9916 12.0723 21.9916 11.5681C21.9916 11.1087 21.8543 10.6997 21.5798 10.3412C21.3053 9.98266 20.9552 9.74736 20.5294 9.63532L20.5126 9.61851V9.29918C20.5126 8.48126 20.3557 7.71375 20.042 6.99666C19.7395 6.27958 19.3193 5.65493 18.7815 5.12271C18.2437 4.5905 17.6162 4.17314 16.8992 3.87061C16.1821 3.55689 15.4202 3.40002 14.6134 3.40002C14.6134 3.40002 14.6106 3.40002 14.605 3.40002C14.5994 3.40002 14.5966 3.40002 14.5966 3.40002H13.6218C12.8151 3.40002 12.0588 3.55128 11.3529 3.85381C10.6358 4.15633 10.0112 4.56809 9.47898 5.0891C8.94677 5.61011 8.5238 6.21795 8.21008 6.91263C7.89635 7.61851 7.72828 8.36921 7.70588 9.16473V9.18154V9.23196C7.70588 9.31039 7.73669 9.38042 7.79831 9.44204C7.85994 9.50367 7.93557 9.53448 8.0252 9.53448H8.5126C8.60223 9.53448 8.67786 9.50367 8.73949 9.44204C8.80111 9.38042 8.83193 9.31039 8.83193 9.23196V9.19834C8.84313 8.54849 8.97759 7.93784 9.23529 7.36641C9.49299 6.79498 9.83753 6.29918 10.2689 5.87902C10.7003 5.45885 11.2017 5.12551 11.7731 4.87902C12.3557 4.63252 12.972 4.50927 13.6218 4.50927H14.5966C14.6078 4.50927 14.6134 4.50927 14.6134 4.50927C15.2745 4.50927 15.8964 4.63252 16.479 4.87902C17.0616 5.13672 17.5686 5.48126 18 5.91263C18.4314 6.34401 18.7703 6.85101 19.0168 7.43364C19.2745 8.00507 19.4034 8.62132 19.4034 9.28239V9.50087C18.8431 9.43365 18.3221 9.24597 17.8403 8.93785C17.3585 8.62973 17.0784 8.16194 17 7.53449C16.9888 7.44485 16.9524 7.37202 16.8908 7.316C16.8291 7.25998 16.7591 7.23197 16.6807 7.23197H15.9076C15.8627 7.23197 15.8151 7.24317 15.7647 7.26558C15.7143 7.28799 15.6779 7.3216 15.6555 7.36642C15.2633 8.00507 14.7395 8.52328 14.084 8.92104C13.4286 9.3188 12.7087 9.52328 11.9244 9.53449H11.2521C11.1737 9.53449 11.1036 9.5653 11.042 9.62693C10.9804 9.68855 10.9496 9.76418 10.9496 9.85382V10.3412C10.9496 10.4196 10.9804 10.4897 11.042 10.5513C11.1036 10.6129 11.1737 10.6437 11.2521 10.6437H11.9244C12.7759 10.6437 13.5658 10.4617 14.2941 10.0975C15.0224 9.73337 15.633 9.24317 16.126 8.62692V8.61012C16.4398 9.316 16.9552 9.83421 17.6723 10.1647C18.3894 10.4953 19.1513 10.6605 19.958 10.6605C20.2045 10.6605 20.4174 10.7474 20.5966 10.921C20.7759 11.0947 20.8655 11.3104 20.8655 11.5681C20.8655 11.5793 20.8655 11.5933 20.8655 11.6101C20.8655 11.6269 20.8655 11.6465 20.8655 11.6689C20.8319 11.893 20.7255 12.0835 20.5462 12.2404C20.3669 12.3972 20.1597 12.4757 19.9244 12.4757C19.9244 12.4757 19.9216 12.4757 19.916 12.4757C19.9104 12.4757 19.9076 12.4757 19.9076 12.4757H19.8235C19.7787 12.4757 19.7339 12.4869 19.6891 12.5093C19.6443 12.5317 19.605 12.5653 19.5714 12.6101L16.3109 17.0975C16.2885 17.1199 16.2717 17.1479 16.2605 17.1816C16.2493 17.2152 16.2437 17.2488 16.2437 17.2824V17.7362C16.2437 17.8258 16.2745 17.9014 16.3361 17.9631C16.3978 18.0247 16.4734 18.0555 16.563 18.0555H19.3361C19.9972 18.0555 20.5686 18.274 21.0504 18.711C21.5322 19.1479 21.8123 19.6858 21.8908 20.3244V20.3412C21.902 20.4196 21.9356 20.4841 21.9916 20.5345C22.0476 20.5849 22.1148 20.6101 22.1933 20.6101H22.6807C22.7703 20.6101 22.8459 20.5793 22.9076 20.5177C22.9692 20.4561 23 20.3804 23 20.2908C23 20.2796 23 20.2712 23 20.2656C23 20.26 23 20.2572 23 20.2572C22.9552 19.7866 22.8263 19.3496 22.6134 18.9463C22.4118 18.5429 22.1457 18.19 21.8151 17.8874C21.4846 17.5849 21.112 17.3496 20.6975 17.1816C20.2717 17.0135 19.8179 16.9294 19.3361 16.9294L19.3025 16.9462ZM15.8908 15.0975C15.902 15.0751 15.9132 15.0527 15.9244 15.0303C15.9356 15.0079 15.9412 14.9799 15.9412 14.9462C15.9412 14.879 15.9188 14.8174 15.8739 14.7614C15.8291 14.7053 15.7787 14.6717 15.7227 14.6605V14.6437L15.2521 14.4925C15.2297 14.4813 15.2101 14.4757 15.1933 14.4757C15.1765 14.4757 15.1625 14.4757 15.1513 14.4757C15.0952 14.4757 15.042 14.4869 14.9916 14.5093C14.9412 14.5317 14.9048 14.5653 14.8823 14.6101C14.7927 14.7334 14.6835 14.8286 14.5546 14.8958C14.4258 14.963 14.2829 14.9967 14.126 14.9967C13.9804 14.9967 13.8431 14.963 13.7143 14.8958C13.5854 14.8286 13.4762 14.7334 13.3865 14.6101C13.3641 14.5653 13.3277 14.5317 13.2773 14.5093C13.2269 14.4869 13.1737 14.4757 13.1176 14.4757C13.1064 14.4757 13.0896 14.4757 13.0672 14.4757C13.0448 14.4757 13.028 14.4813 13.0168 14.4925L12.5462 14.6605C12.4902 14.6829 12.4426 14.7222 12.4034 14.7782C12.3641 14.8342 12.3445 14.8958 12.3445 14.963C12.3445 14.9967 12.3473 15.0275 12.3529 15.0555C12.3585 15.0835 12.3669 15.1087 12.3781 15.1311C12.5686 15.4224 12.8151 15.6577 13.1176 15.837C13.4202 16.0163 13.7563 16.1059 14.126 16.1059C14.507 16.1059 14.8515 16.0135 15.1597 15.8286C15.4678 15.6437 15.7115 15.4 15.8908 15.0975Z" fill="#CB4B00"/>
</svg>
