<svg width="24" height="24" viewBox="0 0 24 24" fill="none" xmlns="http://www.w3.org/2000/svg">
<path fill-rule="evenodd" clip-rule="evenodd" d="M9.89525 18.0877L9.72382 18.0115C9.45716 17.8845 9.23811 17.694 9.06668 17.44C8.89525 17.1861 8.80953 16.894 8.80953 16.5638V16.4876C8.80953 16.4496 8.80319 16.4115 8.79049 16.3734C8.77779 16.3353 8.75874 16.3035 8.73335 16.2781L7.17144 14.1067C7.01906 13.8908 6.89843 13.6496 6.80954 13.3829C6.72065 13.1162 6.67621 12.8369 6.67621 12.5448C6.67621 12.5448 6.67621 12.5416 6.67621 12.5353C6.67621 12.5289 6.67621 12.5194 6.67621 12.5067V12.2019C6.67621 12.1003 6.64128 12.0146 6.57144 11.9448C6.5016 11.8749 6.41589 11.84 6.3143 11.84H5.74287C5.64128 11.84 5.55557 11.8749 5.48573 11.9448C5.41589 12.0146 5.38097 12.1003 5.38097 12.2019V12.5257C5.38097 12.9575 5.45081 13.3734 5.59049 13.7734C5.73017 14.1734 5.92065 14.5384 6.16192 14.8686L6.94287 15.9353H5.09525C4.53652 15.9353 4.00953 16.0432 3.51429 16.2591C3.00636 16.475 2.56826 16.767 2.2 17.1353C1.83175 17.5035 1.53969 17.9353 1.32381 18.4305C1.10794 18.9384 1 19.4718 1 20.0305V21.3829C1 21.4845 1.03492 21.5702 1.10476 21.64C1.1746 21.7099 1.26032 21.7448 1.36191 21.7448H1.91429C2.00318 21.7448 2.08254 21.7099 2.15238 21.64C2.22222 21.5702 2.25714 21.4845 2.25714 21.3829V20.0305C2.25714 19.2432 2.53651 18.5734 3.09524 18.021C3.65397 17.4686 4.32064 17.1924 5.09524 17.1924H7.62857C7.71746 17.5607 7.86667 17.894 8.07619 18.1924C8.28572 18.4908 8.53651 18.7416 8.82858 18.9448L8.84762 21.3829C8.84762 21.4845 8.88254 21.5702 8.95238 21.6401C9.02223 21.7099 9.10794 21.7448 9.20953 21.7448H9.76191C9.8508 21.7448 9.93334 21.7099 10.0095 21.6401C10.0857 21.5702 10.1238 21.4845 10.1238 21.3829V18.4115C10.1111 18.3353 10.0857 18.2686 10.0476 18.2115C10.0095 18.1543 9.95874 18.1131 9.89524 18.0877L9.89525 18.0877ZM14.0667 15.9353H13.5143C13.4127 15.9353 13.327 15.9702 13.2572 16.04C13.1873 16.1099 13.1524 16.1956 13.1524 16.2972V16.5638C13.1524 16.5638 13.1524 16.5702 13.1524 16.5829C13.1524 16.9003 13.0699 17.1861 12.9048 17.44C12.7397 17.694 12.5175 17.8845 12.2381 18.0115L12.0667 18.0876C12.0159 18.1257 11.9714 18.1734 11.9333 18.2305C11.8953 18.2876 11.8762 18.348 11.8762 18.4115V21.4019C11.8762 21.5035 11.9111 21.5892 11.981 21.6591C12.0508 21.7289 12.1365 21.7638 12.2381 21.7638H12.7714C12.873 21.7638 12.9587 21.7289 13.0286 21.6591C13.0984 21.5892 13.1333 21.5035 13.1333 21.4019V18.9638C13.5143 18.6972 13.8222 18.3543 14.0572 17.9353C14.2921 17.5162 14.4095 17.0654 14.4095 16.5829C14.4095 16.5702 14.4095 16.5638 14.4095 16.5638V16.2972C14.4095 16.1956 14.3746 16.1099 14.3048 16.04C14.2349 15.9702 14.1556 15.9353 14.0667 15.9353H14.0667ZM11.2476 4.77333H10.6952C10.6064 4.77333 10.5238 4.80825 10.4476 4.87809C10.3714 4.94793 10.3333 5.0273 10.3333 5.11619V6.81142C10.3333 6.91301 10.3714 6.99873 10.4476 7.06857C10.5238 7.13841 10.6064 7.17333 10.6952 7.17333H11.2476C11.3492 7.17333 11.4349 7.13841 11.5048 7.06857C11.5746 6.99873 11.6095 6.91301 11.6095 6.81142V5.13524C11.6095 5.13524 11.6095 5.12889 11.6095 5.11619C11.6095 5.0273 11.5746 4.94793 11.5048 4.87809C11.4349 4.80825 11.3492 4.77333 11.2476 4.77333ZM14.0476 6.27809H13.4952C13.3937 6.27809 13.3079 6.31301 13.2381 6.38285C13.1683 6.45269 13.1333 6.53841 13.1333 6.63999V7.57333C13.1333 7.67492 13.1683 7.76063 13.2381 7.83047C13.3079 7.90032 13.3937 7.93524 13.4952 7.93524H14.0476C14.1365 7.93524 14.2191 7.90032 14.2953 7.83047C14.3714 7.76063 14.4095 7.67492 14.4095 7.57333V6.65904C14.4095 6.65904 14.4095 6.65587 14.4095 6.64952C14.4095 6.64317 14.4095 6.64 14.4095 6.64C14.4095 6.53841 14.3746 6.45269 14.3048 6.38285C14.2349 6.31301 14.1492 6.27809 14.0476 6.27809ZM8.46668 6.27809H7.95239C7.93969 6.27809 7.93334 6.27809 7.93334 6.27809C7.83176 6.27809 7.74604 6.31301 7.6762 6.38285C7.60636 6.45269 7.57144 6.53841 7.57144 6.63999C7.57144 6.63999 7.57144 6.64317 7.57144 6.64952C7.57144 6.65587 7.57144 6.65904 7.57144 6.65904V7.57333C7.57144 7.66222 7.60636 7.74158 7.6762 7.81142C7.74604 7.88127 7.83176 7.91619 7.93334 7.91619C7.93334 7.91619 7.93969 7.91619 7.95239 7.91619H8.48572C8.58731 7.91619 8.67303 7.88127 8.74287 7.81142C8.81271 7.74158 8.84763 7.65587 8.84763 7.55428V6.65904C8.84763 6.65904 8.84763 6.65587 8.84763 6.64952C8.84763 6.64317 8.84763 6.64 8.84763 6.64C8.84763 6.53841 8.81271 6.45269 8.74287 6.38285C8.67303 6.31301 8.58731 6.27809 8.48572 6.27809C8.48572 6.27809 8.47937 6.27809 8.46668 6.27809ZM3.59048 10.4495H18.3715C18.4731 10.4495 18.5588 10.4146 18.6286 10.3448C18.6985 10.2749 18.7334 10.1892 18.7334 10.0876V9.53524C18.7334 9.43365 18.6985 9.34794 18.6286 9.2781C18.5588 9.20825 18.4731 9.17333 18.3715 9.17333H17.5905V7.57333C17.5905 6.60825 17.2794 5.77015 16.6572 5.05904C16.035 4.34793 15.2603 3.92253 14.3334 3.78285C14.1937 3.3384 13.9334 2.97015 13.5524 2.67809C13.1715 2.38602 12.7397 2.23999 12.2572 2.23999H9.72384C9.2413 2.23999 8.81272 2.38602 8.43812 2.67809C8.06352 2.97015 7.80638 3.3384 7.6667 3.78285C6.73971 3.92253 5.96193 4.3511 5.33336 5.06857C4.70479 5.78603 4.3905 6.62095 4.3905 7.57333V9.19238H3.5905C3.48891 9.19238 3.4032 9.2273 3.33336 9.29714C3.26352 9.36698 3.2286 9.44635 3.2286 9.53524V10.0876C3.2286 10.1892 3.26352 10.2749 3.33336 10.3448C3.4032 10.4146 3.48891 10.4495 3.5905 10.4495H3.59048ZM5.6476 7.57333C5.6476 7.57333 5.6476 7.57016 5.6476 7.56381C5.6476 7.55746 5.6476 7.54793 5.6476 7.53524C5.6476 6.83682 5.89207 6.24317 6.38096 5.75428C6.86985 5.26539 7.4635 5.02095 8.16191 5.02095H8.42858C8.53017 5.02095 8.61588 4.98603 8.68573 4.91618C8.75557 4.84634 8.79049 4.76063 8.79049 4.65904V4.39237C8.79049 4.1384 8.8762 3.92571 9.04763 3.75428C9.21906 3.58285 9.43176 3.49713 9.68573 3.49713C9.68573 3.49713 9.6889 3.49713 9.69525 3.49713C9.7016 3.49713 9.70477 3.49713 9.70477 3.49713H12.2381C12.4794 3.49713 12.6857 3.58285 12.8572 3.75428C13.0286 3.92571 13.1143 4.1384 13.1143 4.39237V4.65904C13.1143 4.76063 13.1492 4.84634 13.2191 4.91618C13.2889 4.98603 13.3746 5.02095 13.4762 5.02095H13.7429C14.4413 5.03364 15.0381 5.28761 15.5333 5.78285C16.0286 6.27809 16.2762 6.87492 16.2762 7.57333V9.19238H5.6476V7.57333ZM20.6762 11.7067H18.0095C17.3746 11.7067 16.8286 11.9352 16.3714 12.3924C15.9143 12.8495 15.6857 13.3956 15.6857 14.0305V19.421C15.6857 20.0686 15.9143 20.6178 16.3714 21.0686C16.8286 21.5194 17.3746 21.7448 18.0095 21.7448H20.6762C21.3238 21.7448 21.873 21.5194 22.3238 21.0686C22.7746 20.6178 23 20.0686 23 19.421V14.0305C23 13.3829 22.7746 12.8337 22.3238 12.3829C21.873 11.9321 21.3238 11.7067 20.6762 11.7067ZM21.7429 19.4209C21.7429 19.713 21.6381 19.9638 21.4286 20.1733C21.219 20.3828 20.9682 20.4876 20.6762 20.4876H18.0095C17.7175 20.4876 17.4698 20.3828 17.2667 20.1733C17.0635 19.9638 16.9555 19.713 16.9428 19.4209V14.0305C16.9555 13.7384 17.0635 13.4876 17.2667 13.2781C17.4698 13.0685 17.7174 12.9638 18.0095 12.9638H20.6762C20.9682 12.9638 21.219 13.0685 21.4286 13.2781C21.6381 13.4876 21.7429 13.7384 21.7429 14.0305V19.4209ZM19.6286 17.9543H19.0762C18.9746 17.9543 18.8889 17.9892 18.819 18.059C18.7492 18.1289 18.7143 18.2146 18.7143 18.3162V18.8686C18.7143 18.9701 18.7492 19.0559 18.819 19.1257C18.8889 19.1955 18.9746 19.2305 19.0762 19.2305H19.6286C19.7175 19.2305 19.7968 19.1955 19.8667 19.1257C19.9365 19.0559 19.9714 18.9701 19.9714 18.8686V18.3162C19.9714 18.2146 19.9365 18.1289 19.8667 18.059C19.7968 17.9892 19.7175 17.9543 19.6286 17.9543Z" fill="#CB4B00"/>
</svg>
