<svg width="24" height="24" viewBox="0 0 24 24" fill="none" xmlns="http://www.w3.org/2000/svg">
<path fill-rule="evenodd" clip-rule="evenodd" d="M18.0726 17.5322H16.6633L17.7107 16.1039C18.0027 15.7231 18.2281 15.2946 18.3868 14.8185C18.5455 14.3424 18.6248 13.8441 18.6248 13.3235V13.1521C18.6248 13.0506 18.5899 12.9649 18.5201 12.8951C18.4503 12.8252 18.3646 12.7903 18.263 12.7903H17.7107C17.6092 12.7903 17.5235 12.8252 17.4536 12.8951C17.3838 12.9649 17.3489 13.0506 17.3489 13.1521V13.3235C17.3489 13.7044 17.2918 14.0694 17.1775 14.4186C17.0632 14.7677 16.8982 15.0819 16.6824 15.3612L14.797 17.9893C14.7843 18.0274 14.7716 18.0623 14.7589 18.094C14.7462 18.1258 14.7399 18.1607 14.7399 18.1988C14.7145 18.8717 14.5495 19.3922 14.2448 19.7604C13.94 20.1286 13.5274 20.3825 13.0069 20.5221C12.9307 20.5475 12.8672 20.592 12.8165 20.6554C12.7657 20.7189 12.7403 20.7888 12.7403 20.8649C12.7403 20.8776 12.7403 20.8903 12.7403 20.903C12.7403 20.9157 12.7403 20.9284 12.7403 20.9411L12.8355 21.4553C12.8482 21.5442 12.8863 21.6172 12.9498 21.6743C13.0132 21.7314 13.0894 21.76 13.1783 21.76C13.191 21.76 13.2069 21.76 13.2259 21.76C13.2449 21.76 13.2608 21.7536 13.2735 21.7409C13.9718 21.5759 14.5653 21.2268 15.0541 20.6935C15.5429 20.1603 15.8381 19.5382 15.9397 18.8272L18.0916 18.8082C18.8407 18.8082 19.485 19.0558 20.0246 19.5509C20.5641 20.046 20.8784 20.6491 20.9672 21.3601C20.9799 21.4616 21.018 21.541 21.0815 21.5981C21.145 21.6552 21.2212 21.6838 21.31 21.6838H21.8623C21.9639 21.6838 22.0496 21.6489 22.1194 21.5791C22.1892 21.5092 22.2241 21.4235 22.2241 21.322C22.2241 21.322 22.2241 21.3156 22.2241 21.3029C22.2241 21.2902 22.2241 21.2839 22.2241 21.2839C22.1734 20.7507 22.0274 20.2555 21.7861 19.7985C21.5576 19.3414 21.2593 18.9447 20.8911 18.6082C20.5229 18.2718 20.0976 18.0083 19.6151 17.8179C19.1454 17.6275 18.6375 17.5322 18.0916 17.5322C18.0916 17.5322 18.0884 17.5322 18.0821 17.5322C18.0758 17.5322 18.0726 17.5322 18.0726 17.5322L18.0726 17.5322ZM3.90389 11.5144H20.0912C20.1927 11.5144 20.2784 11.4795 20.3483 11.4096C20.4181 11.3398 20.453 11.2541 20.453 11.1525V10.6193C20.453 10.5177 20.4181 10.432 20.3483 10.3622C20.2784 10.2924 20.1927 10.2575 20.0912 10.2575H19.2913V7.57228C19.2913 7.03905 19.1898 6.54391 18.9866 6.08686C18.7962 5.6298 18.5296 5.22988 18.1868 4.88709C17.844 4.5443 17.4441 4.27134 16.987 4.0682C16.53 3.86507 16.0412 3.75715 15.5206 3.74446C15.381 3.31279 15.1239 2.95413 14.7494 2.66848C14.3748 2.38282 13.9464 2.23999 13.4639 2.23999H10.5311C10.0487 2.23999 9.62021 2.37965 9.24568 2.65896C8.87115 2.93827 8.62041 3.3001 8.49344 3.74446C7.96022 3.74446 7.46507 3.84602 7.00802 4.04916C6.55096 4.25229 6.15104 4.52843 5.80825 4.87757C5.46546 5.2267 5.19885 5.6298 5.00841 6.08685C4.80527 6.54391 4.70371 7.03904 4.70371 7.57228V10.2575H3.90386C3.80229 10.2575 3.7166 10.2924 3.64677 10.3622C3.57694 10.432 3.54203 10.5177 3.54203 10.6193V11.1716C3.54203 11.2731 3.57694 11.3557 3.64677 11.4191C3.7166 11.4826 3.80229 11.5144 3.90386 11.5144H3.90389ZM5.96063 7.57229C5.96063 6.86131 6.21138 6.25826 6.71287 5.76312C7.21436 5.26798 7.81425 5.0204 8.51252 5.0204H9.29332C9.39489 5.0204 9.48059 4.98549 9.55041 4.91566C9.62024 4.84583 9.65515 4.76014 9.65515 4.65857V4.37291C9.65515 4.13169 9.74085 3.92538 9.91225 3.75398C10.0836 3.58259 10.29 3.49689 10.5312 3.49689H13.4639C13.7052 3.49689 13.9115 3.58259 14.0829 3.75398C14.2543 3.92538 14.34 4.13169 14.34 4.37291V4.65857C14.34 4.76014 14.3749 4.84583 14.4447 4.91566C14.5145 4.98549 14.6002 5.0204 14.7018 5.0204H15.4826C16.1809 5.0204 16.7744 5.2648 17.2632 5.75359C17.752 6.24239 17.9964 6.83592 17.9964 7.5342C17.9964 7.5342 17.9964 7.53737 17.9964 7.54372C17.9964 7.55007 17.9964 7.55959 17.9964 7.57229V10.2575H5.96063V7.57229ZM15.2541 6.75339H14.7018C14.6002 6.75339 14.5145 6.78831 14.4447 6.85814C14.3749 6.92796 14.34 7.01366 14.34 7.11523V8.54352C14.34 8.64509 14.3749 8.73079 14.4447 8.80062C14.5145 8.87044 14.6002 8.90536 14.7018 8.90536H15.2541C15.3556 8.90536 15.4413 8.87044 15.5112 8.80062C15.581 8.73079 15.6159 8.64509 15.6159 8.54352V7.11523C15.6159 7.01366 15.581 6.92796 15.5112 6.85814C15.4413 6.78831 15.3556 6.75339 15.2541 6.75339ZM12.2642 5.11562H11.7119C11.6103 5.11562 11.5246 5.15053 11.4548 5.22036C11.385 5.29019 11.3501 5.37589 11.3501 5.47745V7.53419C11.3501 7.63576 11.385 7.72146 11.4548 7.79129C11.5246 7.86111 11.6103 7.89603 11.7119 7.89603H12.2642C12.3657 7.89603 12.4514 7.86111 12.5213 7.79129C12.5911 7.72146 12.626 7.63576 12.626 7.53419V5.45841C12.626 5.36954 12.5911 5.29019 12.5213 5.22036C12.4514 5.15053 12.3657 5.11562 12.2642 5.11562ZM9.29333 6.75339H8.72202C8.62045 6.75339 8.53475 6.78831 8.46492 6.85814C8.3951 6.92796 8.36018 7.01366 8.36018 7.11523V8.54352C8.36018 8.64509 8.3951 8.73079 8.46492 8.80062C8.53475 8.87044 8.62045 8.90536 8.72202 8.90536H9.27429C9.37586 8.90536 9.46156 8.87044 9.53138 8.80062C9.60121 8.73079 9.63612 8.64509 9.63612 8.54352V7.11523C9.63612 7.01366 9.60121 6.92796 9.53138 6.85814C9.46156 6.78831 9.38221 6.75339 9.29333 6.75339ZM13.9781 15.4755C13.9908 15.4501 14.0004 15.4247 14.0067 15.3993C14.013 15.374 14.0162 15.3422 14.0162 15.3041C14.0162 15.228 13.9908 15.1581 13.94 15.0946C13.8893 15.0312 13.8321 14.9867 13.7686 14.9613L13.2354 14.7899C13.21 14.7772 13.1878 14.7709 13.1688 14.7709C13.1497 14.7709 13.1339 14.7709 13.1212 14.7709C13.0577 14.7709 13.0005 14.7836 12.9498 14.809C12.899 14.8344 12.8545 14.8725 12.8165 14.9232C12.7276 15.0629 12.6101 15.1708 12.4641 15.247C12.3181 15.3232 12.1563 15.3613 11.9785 15.3613C11.8135 15.3613 11.658 15.3232 11.5119 15.247C11.3659 15.1708 11.2422 15.0693 11.1406 14.9423C11.1152 14.8915 11.0739 14.8502 11.0168 14.8185C10.9597 14.7868 10.8994 14.7709 10.8359 14.7709C10.8232 14.7709 10.8073 14.7741 10.7883 14.7804C10.7692 14.7868 10.747 14.7899 10.7216 14.7899L10.2074 14.9804C10.1313 15.0058 10.071 15.0502 10.0265 15.1137C9.98209 15.1772 9.95987 15.247 9.95987 15.3232C9.95987 15.3613 9.96622 15.393 9.97891 15.4184C9.99161 15.4438 10.0043 15.4692 10.017 15.4946C10.2201 15.8374 10.4931 16.1103 10.8359 16.3135C11.1787 16.5166 11.5596 16.6182 11.9785 16.6182C12.4102 16.6182 12.8006 16.5134 13.1497 16.3039C13.4989 16.0944 13.7687 15.8183 13.9591 15.4755L13.9781 15.4755ZM11.0073 20.5031C10.4994 20.3635 10.0932 20.1095 9.78848 19.7414C9.48377 19.3732 9.31238 18.8526 9.27429 18.1798C9.27429 18.1417 9.26794 18.1068 9.25525 18.075C9.24255 18.0433 9.22986 18.0147 9.21716 17.9893L7.31277 15.3422C7.10963 15.0629 6.95093 14.7487 6.83667 14.3995C6.72241 14.0504 6.66527 13.6854 6.66527 13.3045V13.1331C6.66527 13.0442 6.63036 12.9649 6.56053 12.8951C6.49071 12.8252 6.40501 12.7903 6.30344 12.7903H5.73212C5.63056 12.7903 5.54486 12.8252 5.47503 12.8951C5.4052 12.9649 5.37029 13.0442 5.37029 13.1331V13.3045C5.37029 13.8377 5.44964 14.3424 5.60834 14.8185C5.76704 15.2946 5.99239 15.7294 6.2844 16.123L7.33181 17.5513H5.92256C5.37664 17.5513 4.8688 17.6465 4.39905 17.837C3.9166 18.0274 3.49447 18.2877 3.13263 18.6178C2.7708 18.9479 2.46927 19.3414 2.22805 19.7985C1.98683 20.2555 1.84082 20.7443 1.79004 21.2649C1.79004 21.2776 1.79004 21.2871 1.79004 21.2934C1.79004 21.2998 1.79004 21.3093 1.79004 21.322C1.79004 21.4236 1.82495 21.5093 1.89478 21.5791C1.96461 21.6489 2.05031 21.6838 2.15187 21.6838H2.70415C2.79302 21.6838 2.86919 21.6521 2.93267 21.5886C2.99615 21.5251 3.03424 21.4553 3.04694 21.3791C3.13581 20.6428 3.45003 20.027 3.98961 19.5319C4.52919 19.0367 5.17351 18.7892 5.92257 18.7892H8.09357C8.19514 19.5128 8.48714 20.1413 8.96959 20.6745C9.45204 21.2077 10.0424 21.5569 10.7407 21.7219C10.7661 21.7346 10.7851 21.741 10.7978 21.741C10.8105 21.741 10.8232 21.741 10.8359 21.741C10.9248 21.741 11.0041 21.7124 11.0739 21.6553C11.1438 21.5981 11.185 21.5251 11.1977 21.4363L11.2929 20.9221C11.2929 20.9094 11.2929 20.8999 11.2929 20.8935C11.2929 20.8872 11.2929 20.8776 11.2929 20.8649C11.2929 20.7761 11.2676 20.6999 11.2168 20.6364C11.166 20.5729 11.1025 20.5348 11.0263 20.5222L11.0073 20.5031Z" fill="#CB4B00"/>
</svg>
