<svg width="24" height="24" viewBox="0 0 24 24" fill="none" xmlns="http://www.w3.org/2000/svg">
<path fill-rule="evenodd" clip-rule="evenodd" d="M14.7614 5.59629H14.2328C14.1356 5.59629 14.0536 5.62971 13.9867 5.69654C13.9199 5.76338 13.8865 5.8454 13.8865 5.94261V6.45296C13.8865 6.55017 13.9199 6.6322 13.9867 6.69903C14.0536 6.76586 14.1356 6.79928 14.2328 6.79928H14.7614C14.8586 6.79928 14.9406 6.76586 15.0075 6.69903C15.0743 6.6322 15.1077 6.55017 15.1077 6.45296V5.94261C15.1077 5.8454 15.0743 5.76338 15.0075 5.69654C14.9406 5.62971 14.8586 5.59629 14.7614 5.59629ZM19.3364 7.14559H17.4225C17.3618 7.14559 17.3071 7.16078 17.2585 7.19115C17.2099 7.22153 17.1674 7.26102 17.1309 7.30963L17.058 7.41899C16.8514 7.74708 16.575 8.01137 16.2287 8.21186C15.8824 8.41236 15.5087 8.51261 15.1077 8.51261H6.28584C5.65397 8.51261 5.11019 8.28477 4.65452 7.8291C4.19885 7.37342 3.97101 6.82965 3.97101 6.19778C3.97101 5.55376 4.19885 5.00695 4.65452 4.55735C5.1102 4.10775 5.65397 3.88296 6.28584 3.88296H15.1077C15.5209 3.88296 15.8975 3.98017 16.2378 4.17459C16.578 4.36901 16.8514 4.63026 17.058 4.95835L17.1309 5.08594C17.1674 5.13455 17.2099 5.17404 17.2585 5.20442C17.3071 5.23479 17.3618 5.24998 17.4225 5.24998H19.3364C19.6037 5.24998 19.8285 5.34112 20.0108 5.52339C20.193 5.70566 20.2842 5.93046 20.2842 6.19778C20.2842 6.45296 20.193 6.67472 20.0108 6.86307C19.8285 7.05142 19.6037 7.14559 19.3364 7.14559V7.14559ZM14.5244 17.298C14.2693 17.5654 13.9655 17.775 13.6131 17.9269C13.2607 18.0788 12.8901 18.1547 12.5013 18.1547H10.3322C10.3322 18.1547 10.3292 18.1547 10.3231 18.1547C10.317 18.1547 10.314 18.1547 10.314 18.1547C10.0588 18.1547 9.83707 18.0605 9.64872 17.8722C9.46038 17.6839 9.3662 17.4621 9.3662 17.2069V12.6684H10.715C11.1038 12.6684 11.4775 12.6076 11.836 12.4861C12.1944 12.3646 12.5195 12.1945 12.8111 11.9758L12.7929 11.994C13.0724 11.7753 13.3184 11.5292 13.5311 11.2558C13.7437 10.9824 13.9108 10.6816 14.0323 10.3536V10.3171C14.4212 10.4265 14.7432 10.6422 14.9983 10.9642C15.2535 11.2862 15.3811 11.6538 15.3811 12.0669C15.3811 12.0669 15.3811 12.0699 15.3811 12.076C15.3811 12.0821 15.3811 12.0851 15.3811 12.0851V15.2748C15.3811 15.2748 15.3811 15.2779 15.3811 15.284C15.3811 15.29 15.3811 15.2931 15.3811 15.2931C15.3811 15.6819 15.3052 16.0495 15.1533 16.3958C15.0014 16.7421 14.7978 17.0429 14.5427 17.298L14.5244 17.298ZM22.6537 5.59631H21.396C21.2624 5.14671 21.0072 4.7761 20.6305 4.48447C20.2538 4.19283 19.8224 4.04702 19.3364 4.04702H17.8782C17.5623 3.62172 17.1643 3.28756 16.6843 3.04453C16.2044 2.80151 15.6788 2.67999 15.1077 2.67999H6.28583C5.31372 2.67999 4.48743 3.02327 3.80696 3.70982C3.12649 4.39637 2.78624 5.22569 2.78624 6.1978C2.78624 6.6474 2.86523 7.07269 3.0232 7.47369C3.18116 7.87468 3.39989 8.22707 3.67937 8.53085H1.34631C1.2491 8.53085 1.16708 8.56427 1.10025 8.6311C1.03342 8.69793 1 8.77996 1 8.87717V9.40575C1 9.50296 1.03342 9.58498 1.10025 9.65181C1.16708 9.71865 1.2491 9.75206 1.34631 9.75206H2.76802L2.80448 19.1754C2.80448 19.4428 2.7103 19.6676 2.52196 19.8498C2.33361 20.0321 2.11185 20.1232 1.85667 20.1232C1.84452 20.1232 1.83844 20.1232 1.83844 20.1232H1.34631C1.2491 20.1232 1.16708 20.1566 1.10025 20.2235C1.03342 20.2903 1 20.3723 1 20.4695V20.9981C1 21.0953 1.03342 21.1743 1.10025 21.2351C1.16708 21.2958 1.2491 21.3262 1.34631 21.3262H1.83844C2.3974 21.3262 2.88042 21.1409 3.28749 20.7703C3.69456 20.3997 3.9224 19.941 3.971 19.3941H6.83264C6.92985 19.3941 7.01187 19.3607 7.0787 19.2939C7.14553 19.2271 7.17895 19.1451 7.17895 19.0478V18.5193C7.17895 18.422 7.14553 18.34 7.0787 18.2732C7.01187 18.2064 6.92985 18.1729 6.83264 18.1729L4.00745 18.1912V9.77027H12.9752C12.9022 10.0254 12.7929 10.2624 12.6471 10.4811C12.5013 10.6998 12.3251 10.8821 12.1185 11.0279V11.0462C11.9119 11.192 11.6871 11.3044 11.4441 11.3834C11.2011 11.4623 10.9459 11.5018 10.6786 11.5018C10.6664 11.5018 10.6573 11.5018 10.6512 11.5018C10.6451 11.5018 10.6421 11.5018 10.6421 11.5018H8.67359C8.60068 11.5018 8.53385 11.5261 8.47309 11.5747C8.41233 11.6234 8.3698 11.678 8.3455 11.7388L8.29082 11.9211C8.03564 12.7352 7.76528 13.2516 7.47972 13.4703C7.19416 13.6891 6.81443 13.7924 6.34053 13.7802H6.08535C5.98814 13.7802 5.90612 13.8136 5.83929 13.8805C5.77246 13.9473 5.73904 14.0293 5.73904 14.1265V14.6551C5.73904 14.7523 5.77246 14.8343 5.83929 14.9012C5.90612 14.968 5.98814 15.0014 6.08535 15.0014H6.35876C6.38306 15.0014 6.4104 15.0014 6.44078 15.0014C6.47116 15.0014 6.50457 15.0014 6.54103 15.0014C6.84481 15.0014 7.1334 14.9558 7.40681 14.8647C7.68021 14.7736 7.93235 14.643 8.16323 14.4728V17.2616C8.16323 17.857 8.37588 18.3643 8.80117 18.7835C9.22647 19.2027 9.73683 19.4123 10.3322 19.4123H12.5195C12.5195 19.4123 12.5256 19.4123 12.5377 19.4123C12.9873 19.4123 13.4156 19.3425 13.8227 19.2027C14.2298 19.063 14.5974 18.8716 14.9254 18.6286C15.0105 18.5678 15.0956 18.501 15.1806 18.4281C15.2657 18.3552 15.3447 18.2823 15.4176 18.2094C15.7943 17.8448 16.0889 17.4135 16.3016 16.9152C16.5142 16.417 16.6206 15.8885 16.6206 15.3295V12.1398C16.6206 12.1276 16.6206 12.1185 16.6206 12.1124C16.6206 12.1064 16.6206 12.1033 16.6206 12.1033C16.6206 11.6659 16.5355 11.2588 16.3654 10.8821C16.1953 10.5054 15.9644 10.1773 15.6728 9.89786C15.6241 9.8614 15.5786 9.82495 15.536 9.7885C15.4935 9.75204 15.448 9.71559 15.3993 9.67913C15.8976 9.63053 16.3623 9.48775 16.7937 9.2508C17.2251 9.01385 17.5866 8.70703 17.8782 8.33034H19.3364C19.8224 8.33034 20.2538 8.18756 20.6305 7.902C21.0072 7.61645 21.2624 7.25494 21.396 6.8175V6.79927H22.6537C22.7509 6.79927 22.8329 6.76586 22.8998 6.69902C22.9666 6.63219 23 6.55017 23 6.45296V5.9426C23 5.84539 22.9666 5.76337 22.8998 5.69654C22.8329 5.62971 22.7509 5.59629 22.6537 5.59629L22.6537 5.59631Z" fill="#CB4B00"/>
</svg>
