<svg width="24" height="24" viewBox="0 0 24 24" fill="none" xmlns="http://www.w3.org/2000/svg">
<path fill-rule="evenodd" clip-rule="evenodd" d="M20.666 4.16016C20.7598 4.16016 20.8389 4.12793 20.9033 4.06348C20.9678 3.99902 21 3.91992 21 3.82617V3.33398C21 3.24023 20.9678 3.16113 20.9033 3.09668C20.8389 3.03223 20.7598 3 20.666 3H3.33398C3.24023 3 3.16113 3.03223 3.09668 3.09668C3.03223 3.16113 3 3.24023 3 3.33398V20.666C3 20.7598 3.03223 20.8389 3.09668 20.9033C3.16113 20.9678 3.24023 21 3.33398 21H3.84375C3.9375 21 4.01367 20.9678 4.07227 20.9033C4.13086 20.8389 4.16016 20.7598 4.16016 20.666V4.16012H7.79883V20.666C7.79883 20.7598 7.83106 20.8389 7.89551 20.9033C7.95996 20.9678 8.0332 21 8.11524 21H8.625C8.71875 21 8.79785 20.9678 8.86231 20.9033C8.92676 20.8389 8.95899 20.7598 8.95899 20.666V4.16012H12.5801V20.666C12.5801 20.7598 12.6123 20.8389 12.6768 20.9033C12.7412 20.9678 12.8203 21 12.9141 21H20.666C20.7598 21 20.8389 20.9678 20.9033 20.9033C20.9678 20.8389 21 20.7598 21 20.666V17.3613C21 17.2676 20.9678 17.1885 20.9033 17.124C20.8389 17.0596 20.7598 17.0273 20.666 17.0273H17.3789V15.3926H20.666C20.7598 15.3926 20.8389 15.3603 20.9033 15.2959C20.9678 15.2314 21 15.1523 21 15.0586V11.7539C21 11.6602 20.9678 11.581 20.9033 11.5166C20.8389 11.4521 20.7598 11.4199 20.666 11.4199H17.3789V9.76757H20.666C20.7598 9.76757 20.8389 9.73534 20.9033 9.67089C20.9678 9.60644 21 9.52734 21 9.43359V6.1289C21 6.03515 20.9678 5.95605 20.9033 5.89159C20.8389 5.82714 20.7598 5.79491 20.666 5.79491H17.3789V4.16015L20.666 4.16016ZM13.7402 4.16016H16.2011V5.8125H13.7402V4.16016ZM13.7402 9.76758H16.2011V11.4199H13.7402V9.76758ZM13.7402 15.3926H16.2011V17.0098H13.7402V15.3926ZM19.8398 18.1699V19.8047H13.7402V18.1699H19.8398ZM19.8398 12.5625V14.1973H13.7402V12.5801L19.8398 12.5625ZM19.8398 6.95508V8.60743H13.7402V6.97266L19.8398 6.95508ZM11.0156 5.53125H10.5234C10.4297 5.53125 10.3506 5.56348 10.2861 5.62793C10.2217 5.69239 10.1894 5.77149 10.1894 5.86524V6.375C10.1894 6.46875 10.2217 6.54786 10.2861 6.61231C10.3506 6.67676 10.4297 6.70899 10.5234 6.70899H11.0156C11.1094 6.70899 11.1885 6.67676 11.2529 6.61231C11.3174 6.54786 11.3496 6.46875 11.3496 6.375V5.86524C11.3496 5.77149 11.3174 5.69239 11.2529 5.62793C11.1885 5.56348 11.1094 5.53125 11.0156 5.53125ZM6.23436 5.53125H5.72459C5.63084 5.53125 5.55174 5.56348 5.48729 5.62793C5.42283 5.69239 5.39061 5.77149 5.39061 5.86524V6.375C5.39061 6.46875 5.42283 6.54786 5.48729 6.61231C5.55174 6.67676 5.63084 6.70899 5.72459 6.70899H6.23436C6.32811 6.70899 6.40721 6.67676 6.47166 6.61231C6.53611 6.54786 6.56834 6.46875 6.56834 6.375V5.86524C6.56834 5.77149 6.53611 5.69239 6.47166 5.62793C6.40721 5.56348 6.32811 5.53125 6.23436 5.53125Z" fill="#CB4B00"/>
</svg>
