<svg width="24" height="24" viewBox="0 0 24 24" fill="none" xmlns="http://www.w3.org/2000/svg">
<path fill-rule="evenodd" clip-rule="evenodd" d="M22.6677 11.4343H20.4293V6.0829C20.4293 6.0829 20.4293 6.07999 20.4293 6.07416C20.4293 6.06833 20.4293 6.05959 20.4293 6.04793C20.4293 5.22016 20.1349 4.51189 19.5461 3.92313C18.9573 3.33436 18.2491 3.03998 17.4213 3.03998C16.9083 3.03998 16.4361 3.15657 16.0048 3.38974C15.5734 3.62291 15.2178 3.9377 14.938 4.3341L14.221 5.33092C14.1277 5.29594 14.0257 5.26679 13.9149 5.24348C13.8042 5.22016 13.6905 5.2085 13.5739 5.2085C13.2475 5.2085 12.9473 5.28428 12.6733 5.43584C12.3993 5.58741 12.169 5.78561 11.9825 6.03044L11.8426 6.2403C11.8193 6.26361 11.8018 6.29276 11.7901 6.32774C11.7785 6.36271 11.7726 6.39769 11.7726 6.43267C11.7726 6.4793 11.7843 6.52594 11.8076 6.57257C11.8309 6.6192 11.8659 6.66001 11.9126 6.69499L12.3148 6.99228C12.3381 7.0156 12.3672 7.03018 12.4022 7.03601C12.4372 7.04183 12.4722 7.04475 12.5071 7.04475C12.5654 7.04475 12.6179 7.03309 12.6645 7.00977C12.7112 6.98646 12.7462 6.95731 12.7695 6.92233L12.9269 6.71248C12.9968 6.60755 13.0901 6.52594 13.2067 6.46764C13.3233 6.40935 13.4457 6.3802 13.5739 6.3802C13.8071 6.3802 14.0053 6.46181 14.1685 6.62503C14.3317 6.78826 14.4133 6.98062 14.4133 7.20214C14.4133 7.29541 14.3959 7.38577 14.3609 7.47321C14.3259 7.56065 14.2851 7.63934 14.2385 7.7093L14.0811 7.91915C14.0694 7.94247 14.0578 7.97162 14.0461 8.00659C14.0344 8.04157 14.0286 8.07655 14.0286 8.11152C14.0286 8.15816 14.0403 8.20479 14.0636 8.25143C14.0869 8.29806 14.1219 8.33887 14.1685 8.37384L14.5707 8.67114C14.5941 8.69446 14.6232 8.70903 14.6582 8.71486C14.6932 8.72069 14.7281 8.7236 14.7631 8.7236C14.8097 8.7236 14.8564 8.71195 14.903 8.68863C14.9496 8.66531 14.9905 8.63616 15.0254 8.60119L15.1828 8.39133C15.2994 8.22811 15.3898 8.0474 15.4539 7.8492C15.518 7.651 15.5501 7.44114 15.5501 7.21963C15.5501 7.00977 15.518 6.80574 15.4539 6.60755C15.3898 6.40935 15.2994 6.22864 15.1828 6.06542L15.8824 5.03361C16.0456 4.78878 16.2613 4.59058 16.5294 4.43902C16.7976 4.28746 17.0949 4.21167 17.4213 4.21167C17.9343 4.21167 18.3715 4.39238 18.7329 4.75381C19.0943 5.11523 19.275 5.55243 19.275 6.06542C19.275 6.06542 19.275 6.06833 19.275 6.07416C19.275 6.07999 19.275 6.0829 19.275 6.0829V11.4343H11.6328V11.0845C11.6328 10.5365 11.4404 10.0702 11.0557 9.68545C10.6709 9.30071 10.2046 9.10834 9.65661 9.10834H5.07473C4.98146 9.10834 4.90277 9.1404 4.83864 9.20452C4.77452 9.26865 4.74246 9.34734 4.74246 9.44061V9.94777C4.74246 10.041 4.77452 10.1197 4.83864 10.1839C4.90277 10.248 4.98146 10.28 5.07473 10.28H5.31957C5.54108 10.28 5.73054 10.3587 5.88793 10.5161C6.04532 10.6735 6.12985 10.863 6.14151 11.0845V14.8619C6.14151 14.9552 6.17357 15.0339 6.23769 15.098C6.30181 15.1621 6.38051 15.1942 6.47378 15.1942H11.318C11.4112 15.1942 11.4899 15.1621 11.5541 15.098C11.6182 15.0339 11.6503 14.9552 11.6503 14.8619V12.5885H20.6042C20.5575 12.7167 20.5167 12.8479 20.4817 12.982C20.4468 13.116 20.4293 13.2589 20.4293 13.4104V15.2467C20.4293 15.8646 20.2136 16.3892 19.7822 16.8206C19.3508 17.252 18.832 17.4676 18.2258 17.4676H5.77424C5.16799 17.4676 4.64917 17.252 4.2178 16.8206C3.78643 16.3892 3.57075 15.8646 3.57075 15.2467V13.3929C3.55909 13.2414 3.53869 13.0985 3.50954 12.9645C3.48039 12.8304 3.43667 12.6992 3.37838 12.571L4.63752 12.5885C4.71913 12.5885 4.79492 12.5564 4.86487 12.4923C4.93482 12.4282 4.9698 12.3495 4.9698 12.2562V11.7665C4.9698 11.6733 4.93482 11.5946 4.86487 11.5304C4.79492 11.4663 4.71913 11.4343 4.63752 11.4343H1.33227C1.239 11.4343 1.16031 11.4663 1.09618 11.5304C1.03206 11.5946 1 11.6733 1 11.7665V12.2737C1 12.367 1.03206 12.4457 1.09618 12.5098C1.16031 12.5739 1.239 12.606 1.33227 12.606H1.57711C1.81028 12.606 2.00557 12.6847 2.16296 12.842C2.32035 12.9994 2.39905 13.1889 2.39905 13.4104V15.2467C2.39905 16.1794 2.72841 16.9751 3.38712 17.6338C4.04584 18.2925 4.84155 18.6219 5.77424 18.6219H6.12401V18.9716C6.11235 19.1931 6.02782 19.3826 5.87043 19.54C5.71304 19.6974 5.52358 19.7819 5.30207 19.7936H5.07472C4.98145 19.7936 4.90275 19.8256 4.83863 19.8897C4.77451 19.9539 4.74245 20.0267 4.74245 20.1083V20.6155C4.74245 20.7088 4.77451 20.7875 4.83863 20.8516C4.90275 20.9157 4.98145 20.9478 5.07472 20.9478H5.31955C5.86751 20.9478 6.33386 20.7554 6.7186 20.3707C7.10334 19.9859 7.29571 19.5196 7.29571 18.9716V18.6393H16.7218V18.9716C16.7218 19.5196 16.9141 19.9859 17.2989 20.3707C17.6836 20.7554 18.15 20.9478 18.6979 20.9478H18.9428C19.036 20.9478 19.1147 20.9157 19.1789 20.8516C19.243 20.7875 19.275 20.7088 19.275 20.6155V20.1083C19.275 20.0267 19.243 19.9539 19.1789 19.8897C19.1147 19.8256 19.036 19.7936 18.9428 19.7936H18.6979C18.4648 19.7819 18.2695 19.6974 18.1121 19.54C17.9547 19.3826 17.876 19.1931 17.876 18.9716V18.6219H18.2258C19.1585 18.6219 19.9542 18.2925 20.6129 17.6338C21.2716 16.9751 21.601 16.1794 21.601 15.2467V13.3929C21.601 13.1714 21.6796 12.982 21.837 12.8246C21.9944 12.6672 22.1839 12.5885 22.4054 12.5885H22.6677C22.761 12.5885 22.8397 12.5564 22.9038 12.4923C22.9679 12.4282 23 12.3495 23 12.2562V11.7665C23 11.6733 22.9679 11.5946 22.9038 11.5304C22.8397 11.4663 22.761 11.4343 22.6677 11.4343H22.6677ZM10.4785 14.04H7.27822V11.0845C7.27822 10.9446 7.26365 10.8047 7.2345 10.6648C7.20536 10.5249 7.16164 10.3908 7.10334 10.2626L9.6566 10.28C9.88978 10.28 10.0851 10.3587 10.2424 10.5161C10.3998 10.6735 10.4785 10.863 10.4785 11.0845V14.04Z" fill="#CB4B00"/>
</svg>
