<svg width="24" height="24" viewBox="0 0 24 24" fill="none" xmlns="http://www.w3.org/2000/svg">
<path fill-rule="evenodd" clip-rule="evenodd" d="M14.8886 5.04948C15.628 5.25916 16.3343 5.53506 17.0075 5.87717C17.6807 6.21928 18.3125 6.61381 18.9029 7.06076C19.4933 7.50771 20.0368 8.00157 20.5334 8.54233C21.03 9.08308 21.4715 9.66798 21.8577 10.297C21.9019 10.3632 21.9488 10.4129 21.9984 10.446C22.0481 10.4791 22.1005 10.4957 22.1557 10.4957C22.1778 10.4957 22.2026 10.4929 22.2302 10.4874C22.2578 10.4819 22.2826 10.4736 22.3047 10.4626L22.7185 10.2143C22.7627 10.1922 22.8013 10.1563 22.8344 10.1067C22.8675 10.057 22.8841 10.0046 22.8841 9.9494C22.8841 9.91629 22.8785 9.88594 22.8675 9.85835C22.8565 9.83076 22.8454 9.80593 22.8344 9.78386C22.404 9.0886 21.9129 8.43749 21.3611 7.83051C20.8204 7.23458 20.2299 6.69106 19.5899 6.19997C18.9498 5.70887 18.2656 5.27572 17.5372 4.9005C16.8088 4.53632 16.0529 4.23835 15.2693 4.0066C15.2031 3.99556 15.159 3.98728 15.1369 3.98177C15.1148 3.97625 15.0983 3.97349 15.0872 3.97349C15.01 3.97349 14.9438 3.99556 14.8886 4.0397C14.8334 4.08385 14.8003 4.13903 14.7893 4.20524L14.6734 4.66875C14.6624 4.67978 14.6568 4.69358 14.6568 4.71013C14.6568 4.72669 14.6568 4.74048 14.6568 4.75152C14.6568 4.81773 14.6789 4.87843 14.723 4.93361C14.7672 4.98879 14.8224 5.02741 14.8886 5.04948L14.8886 5.04948ZM7.65461 19.0043C7.6215 18.9602 7.58288 18.9243 7.53873 18.8967C7.49459 18.8691 7.43941 18.8553 7.37319 18.8553C7.35112 18.8553 7.32905 18.8581 7.30698 18.8636C7.28491 18.8691 7.26284 18.8774 7.24076 18.8885L6.81037 19.1037C6.76622 19.1257 6.7276 19.1616 6.69449 19.2113C6.66138 19.2609 6.64483 19.3189 6.64483 19.3851C6.64483 19.4071 6.64759 19.432 6.6531 19.4596C6.65862 19.4872 6.6669 19.512 6.67794 19.5341C6.77726 19.6996 6.8821 19.8541 6.99246 19.9976C7.02556 20.0417 7.06419 20.0748 7.10833 20.0969C7.15248 20.119 7.19662 20.13 7.24076 20.13C7.28491 20.13 7.32353 20.1217 7.35664 20.1052C7.38975 20.0886 7.41734 20.0693 7.43941 20.0472L7.80359 19.7493C7.84774 19.7272 7.87808 19.6941 7.89464 19.6499C7.91119 19.6058 7.91947 19.5616 7.91947 19.5175C7.91947 19.4734 7.91395 19.4375 7.90291 19.4099C7.89188 19.3823 7.87533 19.352 7.85325 19.3189C7.78704 19.2195 7.72082 19.1147 7.65461 19.0043ZM7.82015 12.747C7.79807 12.7249 7.76773 12.7056 7.7291 12.6891C7.69047 12.6725 7.64909 12.6642 7.60495 12.6642C7.5608 12.6642 7.51942 12.6725 7.48079 12.6891C7.44217 12.7056 7.4063 12.7249 7.37319 12.747C7.2518 12.8905 7.1304 13.0395 7.00901 13.194C6.99797 13.216 6.98694 13.2436 6.9759 13.2767C6.96487 13.3098 6.95935 13.343 6.95935 13.3761C6.95935 13.4312 6.97038 13.4809 6.99246 13.525C7.01453 13.5692 7.04764 13.6078 7.09178 13.6409L7.48907 13.9058C7.51114 13.9168 7.53597 13.9279 7.56356 13.9389C7.59115 13.9499 7.6215 13.9554 7.65461 13.9554C7.70979 13.9554 7.75945 13.9416 7.80359 13.9141C7.84774 13.8865 7.88636 13.8561 7.91947 13.823C7.99672 13.7127 8.07397 13.6133 8.15122 13.525C8.18433 13.4919 8.20916 13.4561 8.22571 13.4174C8.24227 13.3788 8.25054 13.343 8.25054 13.3098C8.25054 13.2657 8.24227 13.2243 8.22571 13.1857C8.20916 13.1471 8.18433 13.1112 8.15122 13.0781L7.82015 12.747ZM6.7276 15.8426C6.73863 15.8426 6.74967 15.8426 6.7607 15.8426C6.77174 15.8426 6.78278 15.8426 6.79381 15.8426C6.87106 15.8426 6.93728 15.8205 6.99246 15.7764C7.04764 15.7322 7.08626 15.677 7.10834 15.6108C7.13041 15.4784 7.16351 15.3515 7.20766 15.2301C7.20766 15.219 7.21042 15.2053 7.21594 15.1887C7.22145 15.1721 7.22421 15.1528 7.22421 15.1308C7.22421 15.0645 7.2049 15.0066 7.16627 14.9569C7.12765 14.9073 7.08075 14.8714 7.02557 14.8493L6.57861 14.6673C6.55654 14.6673 6.53723 14.6645 6.52068 14.659C6.50412 14.6535 6.48481 14.6507 6.46274 14.6507C6.39652 14.6507 6.33582 14.67 6.28065 14.7086C6.22547 14.7473 6.18684 14.7997 6.16477 14.8659C6.10959 15.0425 6.05993 15.2246 6.01579 15.4122C6.01579 15.4232 6.01579 15.4315 6.01579 15.437C6.01579 15.4425 6.01579 15.4508 6.01579 15.4618C6.01579 15.5391 6.04062 15.6081 6.09028 15.6688C6.13994 15.7295 6.20339 15.7653 6.28065 15.7764L6.7276 15.8426ZM7.05867 17.5476C7.0366 17.4152 7.01453 17.2883 6.99246 17.1669C6.99246 17.0896 6.96211 17.0234 6.90141 16.9682C6.84072 16.9131 6.76622 16.8855 6.67794 16.8855H6.19788C6.12063 16.8965 6.05717 16.9324 6.00751 16.9931C5.95785 17.0538 5.93302 17.1172 5.93302 17.1834C5.93302 17.1945 5.93578 17.2055 5.94129 17.2165C5.94681 17.2276 5.94957 17.2386 5.94957 17.2496C5.94957 17.349 5.95785 17.4455 5.9744 17.5393C5.99096 17.6331 6.01027 17.7187 6.03234 17.7959C6.05441 17.8732 6.09304 17.9339 6.14822 17.978C6.20339 18.0222 6.26961 18.0442 6.34686 18.0442C6.3579 18.0442 6.36893 18.0442 6.37997 18.0442C6.391 18.0442 6.40756 18.0387 6.42963 18.0277L6.87658 17.9118C6.9428 17.8897 6.99522 17.8511 7.03384 17.7959C7.07247 17.7407 7.09178 17.68 7.09178 17.6138C7.09178 17.6028 7.08902 17.589 7.08351 17.5724C7.07799 17.5559 7.07523 17.5421 7.07523 17.5311L7.05867 17.5476ZM9.3762 12.5484C9.48656 12.4822 9.59692 12.4215 9.70728 12.3663C9.76245 12.3442 9.80936 12.3083 9.84798 12.2587C9.88661 12.209 9.90592 12.1511 9.90592 12.0849C9.90592 12.0628 9.90316 12.0435 9.89764 12.0269C9.89213 12.0104 9.88937 11.9911 9.88937 11.969L9.72383 11.522C9.70176 11.4669 9.66313 11.42 9.60795 11.3813C9.55277 11.3427 9.49208 11.3234 9.42586 11.3234C9.40379 11.3234 9.38172 11.3261 9.35965 11.3317C9.33757 11.3372 9.32102 11.3455 9.30999 11.3565C9.13341 11.4227 8.96236 11.5055 8.79682 11.6048C8.75267 11.6269 8.71681 11.6627 8.68922 11.7124C8.66163 11.7621 8.64783 11.8145 8.64783 11.8697C8.64783 11.9028 8.65059 11.9331 8.65611 11.9607C8.66163 11.9883 8.67542 12.0131 8.6975 12.0352L8.9458 12.449C8.97891 12.4932 9.01754 12.5291 9.06168 12.5566C9.10582 12.5842 9.15548 12.598 9.21066 12.598C9.24377 12.598 9.27688 12.5925 9.30999 12.5815C9.34309 12.5704 9.37068 12.5539 9.39275 12.5318L9.3762 12.5484ZM15.9315 14.8659C15.9757 14.9873 16.0198 15.1087 16.0639 15.2301C16.086 15.2963 16.1246 15.3487 16.1798 15.3873C16.235 15.426 16.2957 15.4453 16.3619 15.4453C16.373 15.4453 16.384 15.4453 16.395 15.4453C16.4061 15.4453 16.4171 15.4453 16.4281 15.4453L16.8916 15.3294C16.9689 15.3184 17.0296 15.2825 17.0737 15.2218C17.1179 15.1611 17.1399 15.0977 17.1399 15.0314C17.1399 15.0094 17.1399 14.9928 17.1399 14.9818C17.1399 14.9707 17.1344 14.9597 17.1234 14.9487C17.0682 14.7611 17.0075 14.5734 16.9413 14.3858C16.9082 14.3307 16.8668 14.2865 16.8171 14.2534C16.7675 14.2203 16.7095 14.2037 16.6433 14.2037C16.6213 14.2037 16.5992 14.2065 16.5771 14.212C16.555 14.2175 16.533 14.2258 16.5109 14.2369L16.0805 14.4521C16.0364 14.4741 16.0005 14.51 15.9729 14.5597C15.9453 14.6093 15.9315 14.6617 15.9315 14.7169C15.9315 14.739 15.9343 14.7638 15.9398 14.7914C15.9453 14.819 15.9536 14.8383 15.9646 14.8493L15.9315 14.8659ZM22.6523 17.1669C22.7406 17.1669 22.8151 17.1365 22.8758 17.0758C22.9365 17.0151 22.9669 16.9406 22.9669 16.8524V16.3723C22.9669 16.284 22.9365 16.2095 22.8758 16.1488C22.8151 16.0881 22.7406 16.0578 22.6523 16.0578H21.8412L19.6561 12.6146L20.848 11.9193C20.8921 11.8973 20.9307 11.8614 20.9638 11.8117C20.997 11.7621 21.0135 11.7096 21.0135 11.6545C21.0135 11.5883 20.997 11.5331 20.9638 11.4889C20.9307 11.4448 20.8921 11.4062 20.848 11.3731L16.5771 9.13829L17.2724 7.94642C17.2834 7.92434 17.2944 7.89951 17.3055 7.87193C17.3165 7.84434 17.322 7.81399 17.322 7.78088C17.322 7.69259 17.2917 7.6181 17.231 7.5574C17.1703 7.49671 17.0958 7.46636 17.0075 7.46636C17.0075 7.46636 17.0047 7.46636 16.9992 7.46636C16.9937 7.46636 16.9909 7.46636 16.9909 7.46636L12.1904 7.665V6.25793C12.1904 6.16965 12.16 6.09516 12.0993 6.03446C12.0386 5.97376 11.9641 5.94341 11.8758 5.94341C11.8427 5.94341 11.8124 5.94893 11.7848 5.95997C11.7572 5.971 11.7324 5.98204 11.7103 5.99307L7.63806 8.55891L6.95936 7.38359C6.92625 7.33945 6.88487 7.30358 6.83521 7.27599C6.78554 7.2484 6.73312 7.23461 6.67794 7.23461C6.62277 7.23461 6.57034 7.2484 6.52068 7.27599C6.47102 7.30358 6.42964 7.33945 6.39653 7.38359L4.17833 11.6545L2.9699 10.9758C2.94783 10.9537 2.923 10.9399 2.89541 10.9344C2.86782 10.9289 2.84299 10.9261 2.82092 10.9261C2.73263 10.9261 2.65814 10.9564 2.59744 11.0171C2.53674 11.0778 2.5064 11.1523 2.5064 11.2406C2.5064 11.2406 2.5064 11.2461 2.5064 11.2572L2.70504 16.0578H1.31452C1.22624 16.0578 1.15174 16.0881 1.09105 16.1488C1.03035 16.2095 1 16.284 1 16.3723C1 16.4054 1.00552 16.4357 1.01655 16.4633C1.02759 16.4909 1.03863 16.5158 1.04966 16.5378L3.4334 20.3121C3.46651 20.3562 3.50514 20.3921 3.54928 20.4197C3.59342 20.4473 3.64309 20.4611 3.69827 20.4611H4.24454C4.33283 20.4611 4.40732 20.4307 4.46802 20.37C4.52871 20.3093 4.55906 20.2348 4.55906 20.1466C4.55906 20.1134 4.5563 20.0859 4.55079 20.0638C4.54527 20.0417 4.53699 20.0196 4.52595 19.9976L2.73815 17.1669H3.51617C3.60446 17.1669 3.67895 17.1365 3.73965 17.0758C3.80035 17.0151 3.8307 16.9406 3.8307 16.8524C3.8307 16.8524 3.8307 16.8496 3.8307 16.8441C3.8307 16.8386 3.8307 16.8358 3.8307 16.8358L3.66516 12.6477L4.32731 13.0284C4.34938 13.0395 4.37421 13.0505 4.4018 13.0615C4.42939 13.0726 4.45974 13.0781 4.49285 13.0781C4.54803 13.0781 4.60045 13.0615 4.65011 13.0284C4.69977 12.9953 4.73564 12.9567 4.75771 12.9125L6.72761 9.18795L7.10835 9.8501C7.14145 9.89425 7.18008 9.93287 7.22422 9.96598C7.26837 9.99909 7.32355 10.0156 7.38976 10.0156C7.41183 10.0156 7.43666 10.0101 7.46425 9.99909C7.49184 9.98805 7.52219 9.97702 7.5553 9.96598L11.0978 7.71466V8.47614C11.0978 8.47614 11.0978 8.48166 11.0978 8.49269C11.0978 8.56994 11.1282 8.63892 11.1889 8.69961C11.2495 8.76031 11.324 8.79066 11.4123 8.79066C11.4123 8.79066 11.4151 8.79066 11.4206 8.79066C11.4261 8.79066 11.4289 8.79066 11.4289 8.79066L15.6335 8.62512L15.2362 9.30383C15.2252 9.3259 15.2142 9.34797 15.2031 9.37004C15.1921 9.39211 15.1866 9.4197 15.1866 9.45281C15.1866 9.51903 15.2031 9.5742 15.2362 9.61835C15.2694 9.66249 15.3135 9.70112 15.3687 9.73422L19.0767 11.6876L18.4146 12.0849C18.3704 12.1069 18.3318 12.1428 18.2987 12.1925C18.2656 12.2421 18.249 12.2945 18.249 12.3497C18.249 12.3828 18.2546 12.4132 18.2656 12.4408C18.2766 12.4684 18.2877 12.4932 18.2987 12.5153L20.55 16.0743H14.3424C14.2099 15.4342 13.8927 14.9073 13.3905 14.4934C12.8884 14.0796 12.3062 13.8727 11.6441 13.8727C10.8826 13.8727 10.2343 14.1403 9.69903 14.6755C9.16379 15.2108 8.89617 15.8591 8.89617 16.6206C8.89617 17.2828 9.10309 17.8649 9.51694 18.367C9.93078 18.8692 10.4522 19.1809 11.0813 19.3023L11.0978 20.1631C11.0978 20.2514 11.1282 20.3259 11.1889 20.3866C11.2496 20.4473 11.3241 20.4776 11.4123 20.4776H22.6855C22.7738 20.4776 22.8483 20.4473 22.909 20.3866C22.9697 20.3259 23 20.2514 23 20.1631V19.683C23 19.5948 22.9697 19.5203 22.909 19.4596C22.8483 19.3989 22.7738 19.3685 22.6855 19.3685H12.1904V17.1669H22.6523ZM11.3792 16.0743C11.2909 16.0743 11.2164 16.1047 11.1557 16.1654C11.095 16.2261 11.0647 16.3006 11.0647 16.3889V18.1767C10.7446 18.0553 10.4798 17.8539 10.2701 17.5724C10.0604 17.291 9.95557 16.9682 9.95557 16.604C9.95557 16.1516 10.1156 15.7653 10.4356 15.4453C10.7557 15.1252 11.1474 14.9652 11.6109 14.9652C11.9641 14.9652 12.2814 15.0673 12.5628 15.2715C12.8442 15.4756 13.0456 15.7377 13.167 16.0578L11.3792 16.0743ZM15.5507 12.4159C15.5287 12.3939 15.4983 12.3746 15.4597 12.358C15.4211 12.3415 15.3852 12.3332 15.3521 12.3332C15.2969 12.3332 15.25 12.3442 15.2114 12.3663C15.1728 12.3884 15.1369 12.4159 15.1038 12.4491L14.7893 12.8132C14.7672 12.8463 14.7506 12.8794 14.7396 12.9126C14.7286 12.9457 14.7231 12.9788 14.7231 13.0119C14.7231 13.056 14.7341 13.0974 14.7562 13.136C14.7782 13.1747 14.8003 13.2105 14.8224 13.2436C14.9217 13.3319 15.01 13.4257 15.0872 13.525C15.1203 13.5582 15.1562 13.583 15.1948 13.5995C15.2335 13.6161 15.2804 13.6244 15.3355 13.6244C15.3687 13.6244 15.4018 13.6189 15.4349 13.6078C15.468 13.5968 15.4956 13.5802 15.5176 13.5582L15.8984 13.2767C15.9315 13.2436 15.9591 13.205 15.9811 13.1609C16.0032 13.1167 16.0143 13.0726 16.0143 13.0284C16.0143 12.9843 16.0087 12.9457 15.9977 12.9126C15.9867 12.8794 15.9701 12.8519 15.948 12.8298C15.8487 12.6863 15.7273 12.5484 15.5839 12.4159H15.5507ZM11.2302 11.969H11.6109C11.622 11.969 11.6275 11.969 11.6275 11.969C11.7048 11.969 11.7737 11.9414 11.8344 11.8862C11.8951 11.831 11.931 11.7648 11.942 11.6876L11.9917 11.2075C11.9917 11.2075 11.9917 11.2048 11.9917 11.1992C11.9917 11.1937 11.9917 11.191 11.9917 11.191C11.9917 11.1027 11.9613 11.0282 11.9006 10.9675C11.8399 10.9068 11.771 10.8764 11.6937 10.8764C11.5944 10.8764 11.4978 10.8764 11.404 10.8764C11.3102 10.8764 11.2247 10.8764 11.1474 10.8764C11.0592 10.8764 10.9902 10.9068 10.9405 10.9675C10.8909 11.0282 10.866 11.0972 10.866 11.1744C10.866 11.1854 10.866 11.1965 10.866 11.2075C10.866 11.2186 10.866 11.2241 10.866 11.2241L10.9322 11.7041C10.9433 11.7814 10.9791 11.8448 11.0398 11.8945C11.1005 11.9442 11.1695 11.969 11.2468 11.969C11.2468 11.969 11.2495 11.969 11.255 11.969C11.2606 11.969 11.2633 11.969 11.2633 11.969H11.2302ZM13.5312 12.3663C13.5533 12.3773 13.5753 12.3856 13.5974 12.3911C13.6195 12.3966 13.6415 12.3994 13.6636 12.3994C13.7188 12.3994 13.7712 12.3828 13.8209 12.3497C13.8705 12.3166 13.9119 12.278 13.945 12.2339L14.1933 11.8035C14.2044 11.7814 14.2127 11.7593 14.2182 11.7372C14.2237 11.7152 14.2264 11.6876 14.2264 11.6545C14.2264 11.5993 14.2099 11.5469 14.1768 11.4972C14.1437 11.4475 14.1051 11.4117 14.0609 11.3896C13.8843 11.3013 13.6967 11.2296 13.4981 11.1744C13.487 11.1634 13.4733 11.1579 13.4567 11.1579C13.4401 11.1579 13.4263 11.1579 13.4153 11.1579C13.3381 11.1579 13.2718 11.1772 13.2167 11.2158C13.1615 11.2544 13.1284 11.3068 13.1173 11.3731L12.9849 11.8366C12.9849 11.8476 12.9822 11.8614 12.9766 11.8779C12.9711 11.8945 12.9684 11.9083 12.9684 11.9193C12.9684 11.9855 12.9877 12.0462 13.0263 12.1014C13.0649 12.1566 13.1173 12.1952 13.1836 12.2173C13.316 12.2725 13.4374 12.3221 13.5477 12.3663H13.5312ZM7.73737 4.93363C7.75944 4.99985 7.79807 5.05227 7.85325 5.0909C7.90843 5.12952 7.96912 5.14883 8.03534 5.14883C8.05741 5.14883 8.07672 5.14608 8.09328 5.14056C8.10983 5.13504 8.12363 5.13228 8.13466 5.13228L8.56506 5.0164C9.02857 4.88397 9.51966 4.78465 10.0383 4.71844C10.557 4.65222 11.0923 4.61911 11.6441 4.61911C11.8758 4.61911 12.1048 4.62463 12.331 4.63567C12.5573 4.6467 12.7863 4.66326 13.018 4.68533C12.996 4.68533 12.9849 4.68533 12.9849 4.68533C12.9849 4.68533 12.9904 4.68533 13.0015 4.68533C13.0787 4.68533 13.1449 4.6605 13.2001 4.61084C13.2553 4.56117 13.2884 4.49772 13.2994 4.42047L13.3657 3.95696C13.3657 3.94593 13.3657 3.93765 13.3657 3.93213C13.3657 3.92661 13.3657 3.91834 13.3657 3.9073C13.3657 3.83005 13.3408 3.76108 13.2912 3.70038C13.2415 3.63968 13.178 3.60381 13.1008 3.59278C12.8801 3.57071 12.6456 3.55139 12.3973 3.53484C12.149 3.51829 11.8924 3.51001 11.6275 3.51001C11.0316 3.51001 10.4439 3.54864 9.86453 3.62589C9.28515 3.70314 8.71956 3.81901 8.16777 3.97352L7.78703 4.05628C7.73185 4.07836 7.68219 4.11698 7.63805 4.17216C7.59391 4.22734 7.57183 4.28804 7.57183 4.35425C7.57183 4.37632 7.57459 4.39564 7.58011 4.41219C7.58563 4.42874 7.58839 4.44254 7.58839 4.45358L7.73737 4.93363ZM4.07899 6.90353C4.11209 6.93664 4.14796 6.96423 4.18659 6.9863C4.22521 7.00838 4.27211 7.01941 4.32729 7.01941C4.3604 7.01941 4.39351 7.01389 4.42662 7.00286C4.45972 6.99182 4.48731 6.97527 4.50939 6.9532C4.68596 6.8318 4.87081 6.70765 5.06394 6.58074C5.25706 6.45382 5.45295 6.32967 5.6516 6.20828C5.72885 6.16413 5.78403 6.11723 5.81713 6.06757C5.85024 6.01791 5.8668 5.96549 5.8668 5.91031C5.8668 5.8772 5.86404 5.84961 5.85852 5.82754C5.853 5.80547 5.84472 5.7834 5.83369 5.76132L5.61849 5.34748C5.58538 5.2923 5.544 5.25092 5.49434 5.22333C5.44467 5.19574 5.39225 5.18194 5.33707 5.18194C5.30397 5.18194 5.27638 5.1847 5.25431 5.19022C5.23223 5.19574 5.21016 5.20401 5.18809 5.21505C4.92323 5.35852 4.68044 5.50474 4.45973 5.65372C4.23901 5.80271 4.02381 5.95445 3.81413 6.10895C3.79205 6.13103 3.76998 6.16137 3.74791 6.2C3.72584 6.23863 3.7148 6.28553 3.7148 6.34071C3.7148 6.37381 3.72032 6.40692 3.73136 6.44003C3.74239 6.47314 3.75895 6.50624 3.78102 6.53935L4.07899 6.90353Z" fill="#CB4B00"/>
</svg>
