<svg width="24" height="24" viewBox="0 0 24 24" fill="none" xmlns="http://www.w3.org/2000/svg">
<path fill-rule="evenodd" clip-rule="evenodd" d="M7.65945 17.0776H8.15211C8.24272 17.0776 8.31916 17.0464 8.38145 16.9841C8.44375 16.9219 8.47489 16.8454 8.47489 16.7548V14.8861C8.47489 14.7955 8.44375 14.719 8.38145 14.6567C8.31916 14.5944 8.24272 14.5633 8.15211 14.5633H7.65945C7.56884 14.5633 7.49239 14.5944 7.4301 14.6567C7.36781 14.719 7.33667 14.7955 7.33667 14.8861V16.7548C7.33667 16.8454 7.36781 16.9219 7.4301 16.9841C7.49239 17.0464 7.56884 17.0776 7.65945 17.0776ZM8.47489 18.5216C8.47489 18.4423 8.44375 18.3715 8.38145 18.3092C8.31916 18.247 8.24272 18.2158 8.15211 18.2158H7.65945C7.56884 18.2158 7.49239 18.247 7.4301 18.3092C7.36781 18.3715 7.33667 18.4423 7.33667 18.5216V18.7255C7.33667 18.7255 7.33667 18.7283 7.33667 18.734C7.33667 18.7396 7.33667 18.7424 7.33667 18.7424C7.33667 18.9463 7.27438 19.1247 7.14979 19.2776C7.02521 19.4305 6.86665 19.5239 6.67412 19.5579C6.65147 19.5692 6.62882 19.5749 6.60616 19.5749C6.58351 19.5749 6.56086 19.5749 6.53821 19.5749C6.32303 19.5749 6.13615 19.4956 5.97759 19.337C5.81904 19.1785 5.73976 18.9916 5.73976 18.7764V18.5216C5.73976 18.4423 5.70861 18.3715 5.64632 18.3092C5.58403 18.247 5.50758 18.2158 5.41698 18.2158H4.9413C4.86202 18.2158 4.7884 18.247 4.72045 18.3092C4.6525 18.3715 4.61852 18.4423 4.61852 18.5216V18.7255C4.62985 18.7255 4.63551 18.7283 4.63551 18.734C4.63551 18.7396 4.63551 18.7424 4.63551 18.7424C4.63551 18.9463 4.57039 19.1247 4.44014 19.2776C4.3099 19.4305 4.15417 19.5239 3.97296 19.5579C3.95031 19.5692 3.92483 19.5749 3.89651 19.5749C3.8682 19.5749 3.84272 19.5749 3.82006 19.5749C3.60488 19.5749 3.418 19.4956 3.25945 19.337C3.10089 19.1785 3.02161 18.9916 3.02161 18.7764V5.84825H10.0718V8.37952C10.0718 8.47013 10.1029 8.54657 10.1652 8.60886C10.2275 8.67115 10.304 8.7023 10.3946 8.7023H10.8872C10.9778 8.69098 11.0515 8.657 11.1081 8.60037C11.1647 8.54374 11.193 8.47013 11.193 8.37952V5.84825H12.79V18.6745C12.79 18.6858 12.79 18.6943 12.79 18.7C12.79 18.7056 12.79 18.7085 12.79 18.7085C12.79 19.2181 12.9627 19.6626 13.3081 20.0421C13.6535 20.4215 14.0754 20.6395 14.5737 20.6961C14.5964 20.6961 14.619 20.6961 14.6417 20.6961C14.6643 20.6961 14.687 20.6961 14.7096 20.6961C14.9815 20.6961 15.2335 20.6451 15.4656 20.5432C15.6978 20.4413 15.9045 20.2997 16.0857 20.1185C16.2556 20.2997 16.4595 20.4413 16.6973 20.5432C16.9351 20.6451 17.1843 20.6961 17.4448 20.6961C17.7166 20.6961 17.9686 20.6451 18.2008 20.5432C18.4329 20.4413 18.634 20.2997 18.8039 20.1185C18.9851 20.2997 19.1918 20.4413 19.4239 20.5432C19.6561 20.6451 19.9081 20.6961 20.1799 20.6961C20.2026 20.6961 20.2252 20.6961 20.2479 20.6961C20.2705 20.6961 20.2932 20.6961 20.3158 20.6961C20.8142 20.6395 21.236 20.4215 21.5815 20.0421C21.9269 19.6626 22.0996 19.2181 22.0996 18.7085C22.0996 18.7085 22.0996 18.7056 22.0996 18.7C22.0996 18.6943 22.0996 18.6858 22.0996 18.6745V5.84825H22.6602C22.6602 5.84825 22.6631 5.84825 22.6687 5.84825C22.6744 5.84825 22.6772 5.84825 22.6772 5.84825C22.7678 5.84825 22.8414 5.81994 22.8981 5.76331C22.9547 5.70668 22.9887 5.63872 23 5.55945V5.04979C23 4.95919 22.9689 4.88274 22.9066 4.82045C22.8443 4.75816 22.7678 4.72701 22.6772 4.72701H20.2819V3.60578C20.2705 3.51517 20.2337 3.44156 20.1714 3.38493C20.1091 3.3283 20.0384 3.29999 19.9591 3.29999H19.4664C19.3758 3.29999 19.2994 3.33113 19.2371 3.39342C19.1748 3.45572 19.1436 3.53216 19.1436 3.62277V4.744H18.0054V3.62277C18.0054 3.53216 17.9771 3.45572 17.9205 3.39342C17.8638 3.33113 17.7902 3.29999 17.6996 3.29999H17.2069C17.1163 3.29999 17.0399 3.33113 16.9776 3.39342C16.9153 3.45572 16.8842 3.53216 16.8842 3.62277V4.744H15.7629V3.62277C15.7629 3.53216 15.7318 3.45572 15.6695 3.39342C15.6072 3.33113 15.5308 3.29999 15.4402 3.29999H14.9475C14.8569 3.29999 14.7804 3.33113 14.7181 3.39342C14.6559 3.45572 14.6247 3.53216 14.6247 3.62277V4.744H9.3583V3.62277C9.3583 3.53216 9.32716 3.45572 9.26486 3.39342C9.20257 3.33113 9.12613 3.29999 9.03552 3.29999H8.55984C8.46924 3.29999 8.39279 3.33113 8.3305 3.39342C8.26821 3.45572 8.23706 3.53216 8.23706 3.62277V4.744H7.11583V3.62277C7.11583 3.53216 7.08469 3.45572 7.02239 3.39342C6.9601 3.33113 6.88366 3.29999 6.79305 3.29999H6.30039C6.20978 3.29999 6.13333 3.33113 6.07104 3.39342C6.00875 3.45572 5.97761 3.53216 5.97761 3.62277V4.744H4.85637V3.62277C4.85637 3.53216 4.82523 3.45572 4.76294 3.39342C4.70065 3.33113 4.6242 3.29999 4.53359 3.29999H4.04093C3.95032 3.29999 3.87388 3.33113 3.81158 3.39342C3.74929 3.45572 3.71815 3.53216 3.71815 3.62277V4.744H1.32278C1.23218 4.744 1.15856 4.77515 1.10193 4.83744C1.0453 4.89973 1.01133 4.97051 1 5.04979V5.55945C1 5.65005 1.03115 5.7265 1.09344 5.78879C1.15573 5.85108 1.23218 5.88223 1.32278 5.88223H1.8834V18.6745C1.8834 18.6858 1.8834 18.6943 1.8834 18.7C1.8834 18.7056 1.8834 18.7085 1.8834 18.7085C1.8834 19.2181 2.05328 19.6626 2.39305 20.042C2.73282 20.4215 3.15753 20.6395 3.66718 20.6961C3.68984 20.6961 3.71249 20.6961 3.73514 20.6961C3.75779 20.6961 3.78044 20.6961 3.80309 20.6961C4.07491 20.6961 4.3269 20.6451 4.55908 20.5432C4.79125 20.4413 4.99794 20.2997 5.17916 20.1185C5.34904 20.2997 5.55007 20.4413 5.78225 20.5432C6.01442 20.6451 6.26642 20.6961 6.53823 20.6961C6.79871 20.6961 7.04788 20.6451 7.28572 20.5432C7.52356 20.4413 7.72742 20.2997 7.8973 20.1185C8.06719 20.2997 8.27105 20.4413 8.50889 20.5432C8.74673 20.6451 8.99589 20.6961 9.25638 20.6961C9.29035 20.6961 9.31867 20.6961 9.34132 20.6961C9.36397 20.6961 9.38662 20.6961 9.40927 20.6961C9.9076 20.6395 10.3295 20.4215 10.6749 20.042C11.0203 19.6626 11.1931 19.2181 11.1931 18.7085C11.1931 18.7085 11.1931 18.7056 11.1931 18.7C11.1931 18.6943 11.1931 18.6858 11.1931 18.6745V10.1633C11.1931 10.084 11.1619 10.0104 11.0996 9.94245C11.0373 9.8745 10.9609 9.84052 10.8703 9.84052H10.3776C10.287 9.84052 10.2106 9.8745 10.1483 9.94245C10.086 10.0104 10.0548 10.084 10.0548 10.1633V18.7255C10.0548 18.7255 10.0548 18.7283 10.0548 18.7339C10.0548 18.7396 10.0548 18.7424 10.0548 18.7424C10.0548 18.9463 9.99254 19.1247 9.86796 19.2776C9.74338 19.4305 9.58482 19.5239 9.39229 19.5579C9.36964 19.5692 9.34698 19.5749 9.32433 19.5749C9.30168 19.5749 9.27903 19.5749 9.25638 19.5749C9.02987 19.5749 8.84016 19.4956 8.68727 19.337C8.53437 19.1785 8.45792 18.9916 8.45792 18.7764L8.47489 18.5216ZM15.8478 18.2158C15.7572 18.2158 15.6808 18.247 15.6185 18.3092C15.5562 18.3715 15.5251 18.4423 15.5251 18.5216V18.7255C15.5251 18.7255 15.5251 18.7283 15.5251 18.734C15.5251 18.7396 15.5251 18.7424 15.5251 18.7424C15.5251 18.9463 15.4628 19.1247 15.3382 19.2776C15.2136 19.4305 15.055 19.5239 14.8625 19.5579C14.8399 19.5692 14.8172 19.5749 14.7946 19.5749C14.7719 19.5749 14.7493 19.5749 14.7266 19.5749C14.5001 19.5749 14.3104 19.4956 14.1575 19.337C14.0046 19.1785 13.9281 18.9916 13.9281 18.7764V5.84825H20.9783V18.7764C20.9783 18.9916 20.8991 19.1785 20.7405 19.337C20.5819 19.4956 20.3951 19.5749 20.1799 19.5749C20.1459 19.5749 20.1176 19.5749 20.0949 19.5749C20.0723 19.5749 20.0496 19.5692 20.027 19.5579C19.8458 19.5239 19.6901 19.4305 19.5598 19.2776C19.4296 19.1247 19.3644 18.9463 19.3644 18.7424C19.3644 18.7424 19.3644 18.7396 19.3644 18.734C19.3644 18.7283 19.3644 18.7255 19.3644 18.7255V18.5216C19.3644 18.4423 19.3333 18.3715 19.271 18.3092C19.2087 18.247 19.1379 18.2158 19.0587 18.2158H18.566C18.4754 18.2158 18.3989 18.247 18.3366 18.3092C18.2744 18.3715 18.2432 18.4423 18.2432 18.5216V18.7255C18.2432 18.7255 18.2432 18.7283 18.2432 18.734C18.2432 18.7396 18.2432 18.7424 18.2432 18.7424C18.2432 18.9463 18.1781 19.1247 18.0478 19.2776C17.9176 19.4305 17.7619 19.5239 17.5807 19.5579C17.558 19.5692 17.5354 19.5749 17.5127 19.5749C17.4901 19.5749 17.4674 19.5749 17.4447 19.5749C17.2182 19.5749 17.0257 19.4956 16.8671 19.337C16.7086 19.1785 16.6293 18.9916 16.6293 18.7764V18.5216C16.6293 18.4423 16.5982 18.3715 16.5359 18.3092C16.4736 18.247 16.3971 18.2158 16.3065 18.2158H15.8478ZM4.94127 17.0776H5.43393C5.52454 17.0776 5.60099 17.0464 5.66328 16.9841C5.72557 16.9219 5.75672 16.8454 5.75672 16.7548V13.493C5.75672 13.4024 5.72557 13.326 5.66328 13.2637C5.60099 13.2014 5.52454 13.1702 5.43393 13.1702H4.94127C4.86199 13.1702 4.78837 13.2014 4.72042 13.2637C4.65247 13.326 4.61849 13.4024 4.61849 13.493V16.7548C4.61849 16.8454 4.65247 16.9219 4.72042 16.9841C4.78837 17.0464 4.86199 17.0776 4.94127 17.0776ZM5.43393 8.71926H4.94127C4.86199 8.71926 4.79121 8.7504 4.72892 8.81269C4.66662 8.87499 4.63548 8.95143 4.63548 9.04204V10.8938C4.63548 10.9731 4.66662 11.0438 4.72892 11.1061C4.79121 11.1684 4.86199 11.1996 4.94127 11.1996H5.43393C5.52454 11.1996 5.60099 11.1684 5.66328 11.1061C5.72557 11.0438 5.75672 10.9674 5.75672 10.8768V9.04204C5.75672 8.95144 5.72557 8.87499 5.66328 8.8127C5.60099 8.75041 5.52454 8.71926 5.43393 8.71926ZM19.0587 12.1509H18.566C18.4754 12.1509 18.3989 12.1821 18.3366 12.2444C18.2744 12.3066 18.2432 12.3831 18.2432 12.4737V16.7718C18.2432 16.851 18.2744 16.9218 18.3366 16.9841C18.3989 17.0464 18.4754 17.0776 18.566 17.0776H19.0587C19.1379 17.0776 19.2087 17.0464 19.271 16.9841C19.3333 16.9218 19.3644 16.851 19.3644 16.7718V12.4737C19.3644 12.3831 19.3333 12.3066 19.271 12.2444C19.2087 12.1821 19.1379 12.1509 19.0587 12.1509Z" fill="#CB4B00"/>
</svg>
