<svg width="24" height="24" viewBox="0 0 24 24" fill="none" xmlns="http://www.w3.org/2000/svg">
<path fill-rule="evenodd" clip-rule="evenodd" d="M22.6812 16.7945H20.3822C20.2927 16.7945 20.2171 16.8252 20.1556 16.8868C20.0941 16.9483 20.0633 17.0238 20.0633 17.1133V17.5832C20.0633 17.6727 20.0941 17.7482 20.1556 17.8097C20.2171 17.8713 20.2927 17.902 20.3822 17.902H21.8086C21.6743 18.3607 21.4198 18.7383 21.045 19.0348C20.6702 19.3312 20.2423 19.4795 19.7613 19.4795H6.63844C6.1462 19.4795 5.71269 19.3312 5.33791 19.0348C4.96313 18.7383 4.71421 18.3663 4.59115 17.9188L18.6369 17.902C18.7264 17.902 18.8019 17.8713 18.8635 17.8097C18.925 17.7482 18.9558 17.6727 18.9558 17.5832V17.1301C18.9558 17.0406 18.925 16.9651 18.8635 16.9036C18.8019 16.842 18.7264 16.8113 18.6369 16.8113H16.4554C16.4889 16.7106 16.5281 16.6211 16.5728 16.5428C16.6176 16.4645 16.6679 16.3861 16.7239 16.3078L17.5629 15.1499C17.7755 14.8591 17.9685 14.543 18.1419 14.2018C18.3153 13.8606 18.4635 13.511 18.5866 13.153L19.9962 13.1027C20.5891 13.1027 21.0953 12.8901 21.5149 12.465C21.9344 12.0399 22.1442 11.5308 22.1442 10.9379C22.1442 10.3338 21.9344 9.82196 21.5149 9.40243C21.0953 8.9829 20.5891 8.77314 19.9962 8.77314C19.7948 8.77314 19.6046 8.79831 19.4256 8.84866C19.2466 8.899 19.0788 8.96892 18.9222 9.05842C18.9222 8.98011 18.8942 8.91298 18.8383 8.85705C18.7824 8.80111 18.7096 8.77314 18.6201 8.77314H7.77955C7.69005 8.77314 7.61454 8.80391 7.55301 8.86544C7.49148 8.92697 7.46071 9.00248 7.46071 9.09198V10.9379C7.46071 11.0162 7.46071 11.0945 7.46071 11.1728C7.46071 11.2512 7.46071 11.3295 7.46071 11.4078L5.31274 8.40396C5.27917 8.3704 5.24281 8.34523 5.20366 8.32845C5.1645 8.31167 5.12255 8.30328 5.0778 8.30328C4.9883 8.30328 4.91279 8.33124 4.85126 8.38718C4.78973 8.44312 4.75896 8.51024 4.75896 8.58855V11.9783H1.31884C1.22934 11.9783 1.15383 12.0091 1.0923 12.0706C1.03077 12.1322 1 12.2077 1 12.2972C1 12.3307 1.00559 12.3643 1.01678 12.3979C1.02797 12.4314 1.04475 12.4594 1.06712 12.4818L4.20519 16.7945H3.71854C3.62904 16.7945 3.55352 16.8253 3.49199 16.8868C3.43046 16.9483 3.3997 17.0238 3.3997 17.1133V17.3483C3.3997 18.2433 3.71574 19.0068 4.34782 19.6389C4.97991 20.271 5.74345 20.587 6.63844 20.587H19.7613C20.6562 20.587 21.4198 20.271 22.0519 19.6389C22.684 19.0068 23 18.2433 23 17.3483V17.1301C23 17.1189 23 17.1133 23 17.1133C23 17.0238 22.9692 16.9483 22.9077 16.8868C22.8462 16.8253 22.7707 16.7945 22.6812 16.7945L22.6812 16.7945ZM18.9222 10.9379C18.9222 10.647 19.0257 10.4009 19.2327 10.1995C19.4396 9.99816 19.6885 9.89747 19.9794 9.89747C20.2703 9.89747 20.5164 9.99816 20.7178 10.1995C20.9192 10.4009 21.0198 10.647 21.0198 10.9379C21.0198 11.2288 20.9192 11.4777 20.7178 11.6847C20.5164 11.8916 20.2703 11.9951 19.9794 11.9951H18.8551C18.8775 11.8385 18.8942 11.6791 18.9054 11.5168C18.9166 11.3546 18.9222 11.184 18.9222 11.005C18.9222 10.9938 18.9222 10.9826 18.9222 10.9715C18.9222 10.9603 18.9222 10.9491 18.9222 10.9379ZM8.58506 9.89747H17.8147V10.9379C17.8147 10.9379 17.8147 10.9435 17.8147 10.9547C17.8147 11.6147 17.7112 12.2496 17.5042 12.8593C17.2972 13.469 17.0092 14.02 16.64 14.5123L15.8177 15.6702C15.6946 15.8268 15.5912 15.9974 15.5073 16.182C15.4234 16.3666 15.359 16.5651 15.3143 16.7777L11.0854 16.7945C11.0407 16.5819 10.9764 16.3806 10.8925 16.1904C10.8086 16.0002 10.7051 15.8268 10.582 15.6702L9.74296 14.5123C9.37378 14.02 9.0885 13.4718 8.88713 12.8677C8.68576 12.2636 8.58506 11.6259 8.58506 10.9547C8.58506 10.9547 8.58506 10.9491 8.58506 10.9379V9.89747ZM5.84974 11.0554L8.83677 15.1499L9.67582 16.3246C9.73176 16.3917 9.77651 16.4645 9.81007 16.5428C9.84364 16.6211 9.8772 16.6994 9.91076 16.7777L5.84974 16.7945V11.0554ZM2.87949 13.1026H4.74219V15.6702L2.87949 13.1026ZM11.0687 6.80976H11.5553C11.6336 6.80976 11.7008 6.78459 11.7567 6.73425C11.8126 6.6839 11.8462 6.61958 11.8574 6.54127C11.9021 6.28396 11.9888 6.04902 12.1175 5.83646C12.2461 5.6239 12.4056 5.43931 12.5957 5.28268C12.8083 5.08131 12.9901 4.85756 13.1411 4.61144C13.2922 4.36532 13.4012 4.09682 13.4684 3.80595C13.4684 3.78357 13.4684 3.76959 13.4684 3.76399C13.4684 3.7584 13.4684 3.75001 13.4684 3.73882C13.4684 3.64932 13.4376 3.57381 13.3761 3.51228C13.3145 3.45075 13.239 3.41998 13.1495 3.41998H12.6629C12.5846 3.41998 12.5174 3.44236 12.4615 3.48711C12.4056 3.53186 12.372 3.58779 12.3608 3.65492C12.3049 3.83392 12.2294 3.99334 12.1343 4.13318C12.0392 4.27302 11.9301 4.39888 11.807 4.51075C11.5274 4.75687 11.298 5.04495 11.119 5.37498C10.94 5.70501 10.8225 6.06021 10.7666 6.44058C10.7666 6.45176 10.7666 6.46295 10.7666 6.47414C10.7666 6.48533 10.7666 6.49092 10.7666 6.49092C10.7666 6.58042 10.7946 6.65593 10.8505 6.71746C10.9065 6.77899 10.9792 6.80976 11.0687 6.80976H11.0687ZM14.4081 6.80976H14.8948C14.9731 6.80976 15.043 6.78459 15.1045 6.73425C15.166 6.6839 15.1968 6.61958 15.1968 6.54127C15.2416 6.28396 15.3283 6.04902 15.4569 5.83646C15.5856 5.6239 15.745 5.43931 15.9352 5.28268C16.1477 5.08131 16.3267 4.85756 16.4722 4.61144C16.6176 4.36532 16.7239 4.09682 16.791 3.80595C16.791 3.78357 16.7938 3.76959 16.7994 3.76399C16.805 3.7584 16.8078 3.75001 16.8078 3.73882C16.8078 3.64932 16.777 3.57381 16.7155 3.51228C16.654 3.45075 16.5785 3.41998 16.489 3.41998H16.0023C16.0023 3.41998 15.9995 3.41998 15.9939 3.41998C15.9883 3.41998 15.9855 3.41998 15.9855 3.41998C15.9184 3.41998 15.8569 3.44236 15.8009 3.48711C15.745 3.53186 15.7058 3.58779 15.6835 3.65492C15.6275 3.83392 15.5548 3.99334 15.4653 4.13318C15.3758 4.27302 15.2639 4.39888 15.1297 4.51075C14.85 4.75687 14.6207 5.04495 14.4417 5.37498C14.2627 5.70501 14.1452 6.06021 14.0893 6.44058C14.0893 6.45176 14.0893 6.46295 14.0893 6.47414C14.0893 6.48533 14.0893 6.49092 14.0893 6.49092C14.0893 6.58042 14.1172 6.65314 14.1732 6.70907C14.2291 6.76501 14.2962 6.79857 14.3745 6.80976H14.4081Z" fill="#CB4B00"/>
</svg>
