<svg width="24" height="24" viewBox="0 0 24 24" fill="none" xmlns="http://www.w3.org/2000/svg">
<path fill-rule="evenodd" clip-rule="evenodd" d="M19.0426 9.97588C19.0689 10.0021 19.1016 10.0218 19.141 10.0349C19.1803 10.048 19.2197 10.0546 19.259 10.0546C19.3246 10.0546 19.3836 10.0415 19.4361 10.0152C19.4885 9.989 19.5279 9.94965 19.5541 9.89719L19.8885 9.44474C19.9148 9.41851 19.9344 9.38572 19.9475 9.34638C19.9607 9.30703 19.9672 9.26769 19.9672 9.22834C19.9672 9.16277 19.9508 9.10375 19.918 9.0513C19.8853 8.99884 19.8492 8.95949 19.8098 8.93326L10.2689 2.00868C10.2426 1.98245 10.2098 1.96278 10.1705 1.94966C10.1312 1.93655 10.0918 1.92999 10.0525 1.92999C10.0131 1.92999 9.97378 1.93655 9.93444 1.94966C9.89509 1.96278 9.8623 1.98245 9.83608 2.00868L0.157377 9.03163C0.104918 9.07098 0.0655736 9.11688 0.0393445 9.16934C0.0131147 9.2218 0 9.27426 0 9.32671C0 9.32671 0 9.33327 0 9.34639V21.7004C0 21.8054 0.0360657 21.8939 0.108197 21.966C0.180328 22.0382 0.268852 22.0742 0.37377 22.0742H0.944261C1.03606 22.0742 1.11803 22.0382 1.19016 21.966C1.26229 21.8939 1.29836 21.8054 1.29836 21.7004V9.8185L10.0524 3.44474L19.0426 9.97588ZM18.6492 11.3726C17.9148 11.3726 17.2262 11.5169 16.5836 11.8054C15.9279 12.0808 15.3574 12.4611 14.8721 12.9464C14.3869 13.4316 14.0066 13.9956 13.7312 14.6382C13.4558 15.2939 13.318 15.989 13.318 16.7234C13.318 17.4578 13.4558 18.1529 13.7312 18.8087C14.0066 19.4513 14.3869 20.0152 14.8721 20.5005C15.3574 20.9857 15.9279 21.366 16.5836 21.6414C17.2262 21.93 17.9148 22.0742 18.6492 22.0742C19.3836 22.0742 20.0787 21.93 20.7344 21.6414C21.3771 21.366 21.941 20.9857 22.4262 20.5005C22.9115 20.0152 23.2984 19.4513 23.5869 18.8087C23.8623 18.1529 24 17.4578 24 16.7234C24 15.989 23.8557 15.2939 23.5672 14.6382C23.2918 13.9956 22.9115 13.4316 22.4262 12.9464C21.941 12.4611 21.3771 12.0808 20.7344 11.8054C20.0787 11.5169 19.3836 11.3726 18.6492 11.3726ZM18.6492 20.7562C18.0984 20.7562 17.5738 20.6513 17.0754 20.4414C16.5902 20.2316 16.1639 19.9431 15.7967 19.5759C15.4295 19.2087 15.141 18.7824 14.9312 18.2972C14.7213 17.8119 14.6164 17.2873 14.6164 16.7234C14.6164 16.1595 14.7213 15.6349 14.9312 15.1496C15.141 14.6644 15.4295 14.2382 15.7967 13.871C16.1639 13.5037 16.5902 13.2152 17.0754 13.0054C17.5738 12.7955 18.0984 12.6906 18.6492 12.6906C19.2131 12.6906 19.7377 12.7955 20.223 13.0054C20.7213 13.2152 21.1508 13.5037 21.5115 13.871C21.8721 14.2382 22.1639 14.6644 22.3869 15.1496C22.5967 15.6349 22.7016 16.1595 22.7016 16.7234C22.7016 17.2873 22.5967 17.8119 22.3869 18.2972C22.1639 18.7955 21.8721 19.225 21.5115 19.5857C21.1508 19.9464 20.7213 20.2382 20.223 20.4611C19.7377 20.6709 19.2131 20.7759 18.6492 20.7759V20.7562ZM20.4 14.7955C20.3738 14.7693 20.341 14.7529 20.3016 14.7464C20.2623 14.7398 20.223 14.7365 20.1836 14.7365C20.1311 14.7365 20.0787 14.7496 20.0262 14.7759C19.9738 14.8021 19.9279 14.8349 19.8885 14.8742L18.2951 17.0775L17.5672 16.0742C17.541 16.0218 17.5016 15.9824 17.4492 15.9562C17.3967 15.93 17.3377 15.9169 17.2721 15.9169C17.2328 15.9169 17.1935 15.9234 17.1541 15.9365C17.1148 15.9496 17.082 15.9693 17.0557 15.9955L16.6033 16.33C16.5508 16.3562 16.5115 16.3955 16.4853 16.448C16.459 16.5005 16.4459 16.5595 16.4459 16.6251C16.4459 16.6644 16.4525 16.7005 16.4656 16.7332C16.4787 16.766 16.4984 16.8021 16.5246 16.8414L18 18.848C18.0262 18.9005 18.0656 18.9398 18.118 18.966C18.1705 18.9923 18.2295 19.0054 18.2951 19.0054C18.3607 19.0054 18.4197 18.9923 18.4721 18.966C18.5246 18.9398 18.5639 18.9005 18.5902 18.848L20.9508 15.6021C20.9639 15.5759 20.9771 15.5431 20.9902 15.5037C21.0033 15.4644 21.0098 15.4251 21.0098 15.3857C21.0098 15.3201 20.9967 15.2611 20.9705 15.2087C20.9443 15.1562 20.9049 15.1169 20.8525 15.0906L20.4 14.7955ZM6.29508 20.7759H3.2459C3.1541 20.7759 3.07213 20.8119 3 20.8841C2.92787 20.9562 2.8918 21.0447 2.8918 21.1496V21.7005C2.8918 21.8054 2.92787 21.8939 3 21.966C3.07213 22.0382 3.1541 22.0742 3.2459 22.0742H6.29508C6.38688 22.0742 6.46885 22.0382 6.54098 21.966C6.61311 21.8939 6.64918 21.8054 6.64918 21.7005V21.1496C6.64918 21.0447 6.61311 20.9562 6.54098 20.8841C6.46885 20.8119 6.38688 20.7759 6.29508 20.7759ZM6.29508 17.648H3.2459C3.1541 17.648 3.07213 17.6841 3 17.7562C2.92787 17.8283 2.8918 17.9169 2.8918 18.0218V18.5726C2.8918 18.6775 2.92787 18.766 3 18.8382C3.07213 18.9103 3.1541 18.9464 3.2459 18.9464H6.29508C6.38688 18.9464 6.46885 18.9103 6.54098 18.8382C6.61311 18.766 6.64918 18.6775 6.64918 18.5726V18.0218C6.64918 17.9169 6.61311 17.8283 6.54098 17.7562C6.46885 17.6841 6.38688 17.648 6.29508 17.648ZM6.29508 14.5201H3.2459C3.1541 14.5201 3.07213 14.5562 3 14.6283C2.92787 14.7005 2.8918 14.7824 2.8918 14.8742V15.4447C2.8918 15.5496 2.92787 15.6382 3 15.7103C3.07213 15.7824 3.1541 15.8185 3.2459 15.8185H6.29508C6.38688 15.8185 6.46885 15.7824 6.54098 15.7103C6.61311 15.6382 6.64918 15.5496 6.64918 15.4447V14.8742C6.64918 14.7824 6.61311 14.7005 6.54098 14.6283C6.46885 14.5562 6.38688 14.5201 6.29508 14.5201ZM6.29508 11.3726H3.2459C3.1541 11.3726 3.07213 11.4087 3 11.4808C2.92787 11.5529 2.8918 11.6415 2.8918 11.7464V12.3365C2.8918 12.4415 2.92787 12.53 3 12.6021C3.07213 12.6742 3.1541 12.7103 3.2459 12.7103H6.29508C6.38688 12.7103 6.46885 12.6742 6.54098 12.6021C6.61311 12.53 6.64918 12.4415 6.64918 12.3365V11.7857C6.64918 11.7726 6.65246 11.766 6.65901 11.766C6.66557 11.766 6.66885 11.7595 6.66885 11.7464C6.66885 11.6415 6.62951 11.5529 6.55082 11.4808C6.47213 11.4087 6.38688 11.3726 6.29508 11.3726ZM11.4885 20.7562H8.59672C8.4918 20.7562 8.40328 20.7955 8.33115 20.8742C8.25902 20.9529 8.22295 21.0382 8.22295 21.13V21.7005C8.22295 21.8054 8.25902 21.8939 8.33115 21.966C8.40328 22.0382 8.4918 22.0742 8.59672 22.0742H11.5082C11.6 22.0742 11.682 22.0382 11.7541 21.966C11.8262 21.8939 11.8623 21.8054 11.8623 21.7005V21.13C11.8623 21.0382 11.8295 20.9562 11.7639 20.8841C11.6984 20.8119 11.6131 20.7759 11.5082 20.7759L11.4885 20.7562ZM11.4885 17.6283H8.59672C8.4918 17.6283 8.40328 17.6644 8.33115 17.7365C8.25902 17.8087 8.22295 17.8972 8.22295 18.0021V18.5726C8.22295 18.6775 8.25902 18.766 8.33115 18.8382C8.40328 18.9103 8.4918 18.9464 8.59672 18.9464H11.5082C11.6 18.9464 11.682 18.9103 11.7541 18.8382C11.8262 18.766 11.8623 18.6775 11.8623 18.5726V18.0021C11.8623 17.9103 11.8295 17.8283 11.7639 17.7562C11.6984 17.6841 11.6131 17.648 11.5082 17.648L11.4885 17.6283ZM11.4885 14.5005H8.59672C8.4918 14.5005 8.40328 14.5365 8.33115 14.6087C8.25902 14.6808 8.22295 14.7693 8.22295 14.8742V15.4447C8.22295 15.5496 8.25902 15.6382 8.33115 15.7103C8.40328 15.7824 8.4918 15.8185 8.59672 15.8185H11.5082C11.6 15.8185 11.682 15.7824 11.7541 15.7103C11.8262 15.6382 11.8623 15.5496 11.8623 15.4447V14.8742C11.8623 14.7824 11.8295 14.7005 11.7639 14.6283C11.6984 14.5562 11.6131 14.5201 11.5082 14.5201L11.4885 14.5005Z" fill="#CB4B00"/>
</svg>
