<svg width="24" height="24" viewBox="0 0 24 24" fill="none" xmlns="http://www.w3.org/2000/svg">
<path d="M17.3899 21.5735H3.7465V2.42612H17.3899V21.5735ZM21.2658 1H20.6476C20.4243 1 20.2429 1.18069 20.2429 1.40398V21.5735H18.8164V1.40398C18.8164 1.18069 18.6353 1 18.4124 1H2.72437C2.50108 1 2.32001 1.18069 2.32001 1.40398V22.5956C2.32001 22.8193 2.50108 23 2.72437 23H21.2658C21.4887 23 21.6694 22.8193 21.6694 22.596V1.40398C21.6694 1.18069 21.4887 1 21.2658 1ZM12.5177 11.8714V12.4892C12.5177 12.7125 12.6984 12.8932 12.9217 12.8932H15.5594C15.7823 12.8932 15.9634 12.7125 15.9634 12.4892V11.8714C15.9634 11.6478 15.7823 11.4671 15.5594 11.4671H12.9217C12.6984 11.4671 12.5177 11.6478 12.5177 11.8714ZM7.28878 5.27949H9.85495V15.7465H7.28878V5.27949ZM6.26665 17.1727H14.8701C15.0934 17.1727 15.2745 16.992 15.2745 16.7687V14.7244C15.2745 14.5011 15.0934 14.3197 14.8701 14.3197H14.2524C14.0287 14.3197 13.848 14.5011 13.848 14.7244V15.7462H11.2814V5.27949H13.848V9.6362C13.848 9.8595 14.0287 10.0406 14.2524 10.0406H14.8701C15.0934 10.0406 15.2745 9.8595 15.2745 9.6362V4.25698C15.2745 4.03368 15.0934 3.85299 14.8701 3.85299H6.26665C6.04335 3.85299 5.86228 4.03368 5.86228 4.25698V16.7687C5.86228 16.992 6.04335 17.1727 6.26665 17.1727Z" fill="#CB4B00"/>
</svg>
