<svg width="24" height="24" viewBox="0 0 24 24" fill="none" xmlns="http://www.w3.org/2000/svg">
<g clip-path="url(#clip0_2_1656)">
<path d="M23.9879 8.90248C23.9863 8.79222 23.9537 8.68465 23.8939 8.59203C23.834 8.49942 23.7493 8.42551 23.6495 8.37873C23.6269 8.36773 23.6036 8.35835 23.5797 8.35066L20.4356 7.33927C20.4926 7.28473 21.4462 6.51796 21.4478 6.47144L21.2585 6.33349L21.4494 6.46903C21.51 6.38593 21.5474 6.28821 21.5577 6.18591C21.5577 6.16666 21.5577 6.14901 21.5577 6.12816V4.80476C21.5581 4.70337 21.5323 4.60359 21.4828 4.51508C21.4334 4.42656 21.3619 4.3523 21.2754 4.29946C21.235 4.27439 21.1916 4.25445 21.1462 4.24011L14.194 2.00157C14.1461 1.98674 14.0965 1.97785 14.0464 1.9751C13.8987 1.96711 13.7535 2.01525 13.6398 2.10984C13.574 2.18043 0.182841 13.3114 0.139529 13.386C0.0884565 13.4466 0.0502527 13.517 0.0272412 13.5929C0.0729585 13.6033 0.205298 13.6426 0.251818 13.6571L0.0272412 13.5929C-0.0200803 13.6451 0.00959591 14.9901 0.00157532 15.0888C0.000820087 15.2151 0.0407552 15.3382 0.115468 15.4401C0.0721565 15.6582 3.46406 16.4988 3.62447 16.5934C3.47449 16.7466 2.52565 17.4436 2.47432 17.6513C2.44468 17.7233 2.42943 17.8005 2.42941 17.8783C2.44224 18.0171 2.39572 19.3036 2.4639 19.4022L2.68526 19.322L2.4655 19.4022C2.49621 19.4855 2.54534 19.5608 2.60923 19.6225C2.67311 19.6842 2.7501 19.7306 2.83445 19.7583C2.86332 19.7672 9.7891 21.9977 9.81637 22.0041C9.90378 22.0289 9.99577 22.033 10.0851 22.0161C10.1834 21.9968 10.2753 21.9529 10.3521 21.8886C10.3626 21.8886 23.7842 10.6782 23.7938 10.6734C23.8523 10.6205 23.8995 10.5564 23.9326 10.4849C24.0681 10.2531 23.9502 9.15272 23.9879 8.90248ZM23.0744 10.2836L10.3497 20.8997V19.9252L23.0744 9.30912V10.2836ZM19.1106 4.37406L20.2832 4.75102L7.49441 15.4184L6.65064 15.1473L6.12369 14.9765L2.09334 13.6844L1.32417 13.4365L14.113 2.76914L15.1717 3.11001L15.6995 3.27925L18.5813 4.20723L19.1106 4.37406ZM20.6233 6.00945L7.90105 16.6263L7.92431 15.9798L20.6939 5.26915L20.6233 6.00945ZM0.540559 13.7998L7.2193 15.8852V16.9175L0.540559 14.8321V13.7998ZM21.6347 8.51589L22.7079 8.86077L9.91903 19.5282L8.06146 18.933L7.53451 18.7862L5.37617 18.0684L4.84842 17.896L3.75361 17.5447L4.84601 16.6327L7.45912 17.4741C7.51132 17.4916 7.56689 17.4965 7.62137 17.4886C7.67584 17.4807 7.72769 17.46 7.77272 17.4284C7.8016 17.4147 19.3151 7.79885 19.344 7.77719L21.6347 8.51589ZM2.94513 17.9561L9.64713 20.181V21.1684L2.94513 18.9435V17.9561Z" fill="#CB4B00"/>
<path d="M16.7414 19.3903C17.6721 19.3904 18.5819 19.1145 19.3558 18.5976C20.1296 18.0806 20.7328 17.3457 21.0889 16.4859C21.4451 15.626 21.5382 14.6799 21.3566 13.7671C21.1749 12.8543 20.7267 12.0159 20.0685 11.358C19.4103 10.7 18.5717 10.252 17.6589 10.0707C16.7461 9.88934 15.7999 9.98281 14.9402 10.3393C14.0805 10.6957 13.3458 11.2991 12.8291 12.0732C12.3124 12.8472 12.0368 13.7571 12.0373 14.6878C12.0372 15.3056 12.1588 15.9174 12.3952 16.4882C12.6315 17.059 12.978 17.5777 13.4148 18.0146C13.8517 18.4515 14.3703 18.7981 14.941 19.0345C15.5118 19.271 16.1236 19.3927 16.7414 19.3927" fill="#CB4B00"/>
<path d="M16.8 18.7C19.0092 18.7 20.8 16.9092 20.8 14.7C20.8 12.4909 19.0092 10.7 16.8 10.7C14.5909 10.7 12.8 12.4909 12.8 14.7C12.8 16.9092 14.5909 18.7 16.8 18.7Z" fill="white"/>
<path d="M17.6394 15.45H15.6331C15.647 15.9714 15.8107 16.3724 16.1242 16.6532C16.4377 16.9339 16.8818 17.0743 17.4565 17.0743C17.8605 17.0743 18.2402 17.0289 18.5955 16.9379L18.7 17.5797C18.282 17.6599 17.864 17.7 17.4461 17.7C16.5822 17.7 15.9013 17.5048 15.4032 17.1144C14.9086 16.7214 14.6509 16.1666 14.63 15.45H13.7V14.9527H14.63V14.4032H13.7V13.9019H14.63C14.6648 13.2013 14.9295 12.6599 15.4241 12.2775C15.9222 11.8925 16.5944 11.7 17.4408 11.7C17.81 11.7 18.2298 11.7414 18.7 11.8243L18.5955 12.474C18.2158 12.3805 17.8344 12.3337 17.4513 12.3337C16.88 12.3337 16.4394 12.47 16.1294 12.7428C15.8229 13.0128 15.6592 13.3992 15.6383 13.9019H17.6394V14.4032H15.6331V14.9527H17.6394V15.45Z" fill="#CB4B00"/>
</g>
<defs>
<clipPath id="clip0_2_1656">
<rect width="24" height="24" fill="white"/>
</clipPath>
</defs>
</svg>
