<svg width="24" height="24" viewBox="0 0 24 24" fill="none" xmlns="http://www.w3.org/2000/svg">
<path fill-rule="evenodd" clip-rule="evenodd" d="M1.00001 20.0972V20.6009C1.00001 20.6848 1.03299 20.7598 1.09895 20.8257C1.16491 20.8917 1.24585 20.9246 1.34179 20.9246H2.7449C2.82885 20.9246 2.9038 20.8917 2.96976 20.8257C3.03571 20.7598 3.06869 20.6848 3.06869 20.6009V20.0972C3.06869 20.0012 3.03571 19.9233 2.96976 19.8633C2.9038 19.8034 2.82885 19.7734 2.7449 19.7734H1.34179C1.24585 19.7734 1.1679 19.8034 1.10794 19.8633C1.04798 19.9233 1.012 20.0012 1.00001 20.0972ZM5.64105 20.9246H9.05887C9.15481 20.9246 9.23575 20.8917 9.30171 20.8257C9.36767 20.7598 9.40065 20.6788 9.40065 20.5829V20.0792C9.40065 19.9952 9.36767 19.9203 9.30171 19.8543C9.23575 19.7884 9.15481 19.7554 9.05887 19.7554H5.64105C5.54511 19.7554 5.46416 19.7884 5.3982 19.8543C5.33224 19.9203 5.29927 19.9952 5.29927 20.0792V20.5829C5.29927 20.5829 5.29927 20.5859 5.29927 20.5919C5.29927 20.5979 5.29927 20.6009 5.29927 20.6009C5.29927 20.6848 5.33224 20.7598 5.3982 20.8257C5.46416 20.8917 5.54511 20.9246 5.64105 20.9246ZM10.5519 20.0972V20.6009C10.5519 20.6848 10.5849 20.7598 10.6509 20.8257C10.7168 20.8917 10.7918 20.9246 10.8757 20.9246H22.6582C22.7542 20.9246 22.8351 20.8917 22.9011 20.8257C22.967 20.7598 23 20.6848 23 20.6009V20.0972C23 20.0012 22.967 19.9203 22.9011 19.8543C22.8351 19.7884 22.7542 19.7554 22.6582 19.7554H10.8757C10.7798 19.7554 10.6988 19.7884 10.6329 19.8543C10.5669 19.9203 10.5339 20.0012 10.5339 20.0972H10.5519ZM7.20605 15.69C7.09812 15.2583 6.86727 14.9045 6.51349 14.6287C6.15972 14.3528 5.75498 14.2149 5.29927 14.2149C4.87953 14.2149 4.50477 14.3319 4.17498 14.5657C3.84519 14.7996 3.60834 15.1024 3.46443 15.4741L2.92478 15.3842C2.70891 15.3362 2.52903 15.2253 2.38512 15.0514C2.24121 14.8775 2.16926 14.6766 2.16926 14.4488V12.578H3.01472C3.09866 12.566 3.17062 12.53 3.23058 12.47C3.29054 12.4101 3.32052 12.3381 3.32052 12.2542V11.7505C3.32052 11.6666 3.28754 11.5916 3.22158 11.5256C3.15563 11.4597 3.08067 11.4267 2.99673 11.4267H2.16925V5.20269C2.16925 4.93886 2.26219 4.711 2.44808 4.51912C2.63396 4.32725 2.85881 4.23131 3.12264 4.23131H13.448C13.7119 4.23131 13.9367 4.32725 14.1226 4.51912C14.3085 4.711 14.4014 4.93886 14.4014 5.20269V11.4267H13.556C13.46 11.4267 13.3791 11.4567 13.3131 11.5166C13.2472 11.5766 13.2142 11.6546 13.2142 11.7505V12.2542C13.2142 12.3501 13.2472 12.4281 13.3131 12.488C13.3791 12.548 13.46 12.578 13.556 12.578H14.4014V14.107C14.4014 14.1909 14.4344 14.2659 14.5004 14.3318C14.5663 14.3978 14.6413 14.4308 14.7252 14.4308H15.2289C15.3249 14.4308 15.4058 14.3978 15.4718 14.3318C15.5377 14.2659 15.5707 14.1909 15.5707 14.107V7.01949H18.7367C18.9046 7.01949 19.0545 7.05547 19.1864 7.12743C19.3183 7.19938 19.4262 7.29532 19.5102 7.41524L21.6688 10.3654C21.7168 10.4493 21.7587 10.5392 21.7947 10.6352C21.8307 10.7311 21.8487 10.8331 21.8487 10.941V11.4447H20.9672C20.8833 11.4447 20.8143 11.4747 20.7604 11.5346C20.7064 11.5946 20.6794 11.6665 20.6794 11.7505V12.2542C20.6794 12.3501 20.7094 12.431 20.7694 12.497C20.8293 12.563 20.9073 12.5959 21.0032 12.5959H21.8307V14.4488C21.8307 14.6886 21.7587 14.8955 21.6148 15.0694C21.4709 15.2432 21.291 15.3542 21.0752 15.4021L20.5355 15.4921C20.3916 15.1203 20.1548 14.8145 19.825 14.5747C19.4952 14.3348 19.1204 14.2149 18.7007 14.2149C18.257 14.2149 17.8642 14.3438 17.5224 14.6017C17.1807 14.8595 16.9498 15.1863 16.8299 15.582L8.73505 15.6C8.63911 15.6 8.55816 15.633 8.4922 15.699C8.42624 15.7649 8.39327 15.8399 8.39327 15.9238V16.4275C8.39327 16.5234 8.42624 16.6014 8.4922 16.6613C8.55816 16.7213 8.63911 16.7513 8.73505 16.7513H16.8299C16.9498 17.171 17.1807 17.5128 17.5224 17.7766C17.8642 18.0405 18.257 18.1724 18.7007 18.1724C19.1564 18.1724 19.5611 18.0315 19.9149 17.7496C20.2687 17.4678 20.4995 17.1111 20.6075 16.6793L21.291 16.5354C21.7827 16.4275 22.1875 16.1817 22.5053 15.7979C22.8231 15.4141 22.982 14.9704 22.982 14.4667C22.982 14.4548 22.982 14.4488 22.982 14.4488C22.982 14.4488 22.982 14.4428 22.982 14.4308V10.923C22.982 10.6952 22.946 10.4733 22.874 10.2574C22.8021 10.0416 22.7061 9.84969 22.5862 9.6818L20.4276 6.73168C20.2357 6.46785 19.9929 6.25798 19.6991 6.10208C19.4053 5.94618 19.0785 5.86823 18.7187 5.86823C18.7187 5.86823 18.7157 5.86823 18.7097 5.86823C18.7037 5.86823 18.7007 5.86823 18.7007 5.86823H15.5707V5.20266C15.5707 4.61504 15.3638 4.11436 14.9501 3.70062C14.5364 3.28688 14.0357 3.08002 13.4481 3.08002H3.12264C2.53502 3.08002 2.03434 3.28689 1.6206 3.70062C1.20687 4.11436 1 4.61504 1 5.20266V14.4488C1 14.9644 1.1619 15.4142 1.48569 15.7979C1.80948 16.1817 2.21123 16.4215 2.69092 16.5174L3.39247 16.6614C3.5004 17.1051 3.73126 17.4708 4.08503 17.7587C4.43881 18.0465 4.84955 18.1904 5.31725 18.1904C5.8569 18.1904 6.31861 17.9985 6.70236 17.6147C7.08612 17.231 7.278 16.7693 7.278 16.2296C7.278 16.1337 7.272 16.0408 7.26001 15.9508C7.24802 15.8609 7.23003 15.7739 7.20604 15.69L7.20605 15.69ZM18.7007 16.9672C18.4729 16.9672 18.281 16.8862 18.1251 16.7243C17.9692 16.5624 17.8912 16.3736 17.8912 16.1577C17.8912 15.9298 17.9692 15.738 18.1251 15.5821C18.281 15.4262 18.4729 15.3482 18.7007 15.3482C18.9166 15.3482 19.1055 15.4262 19.2673 15.5821C19.4292 15.738 19.5102 15.9298 19.5102 16.1577C19.5102 16.3736 19.4292 16.5624 19.2673 16.7243C19.1055 16.8862 18.9166 16.9672 18.7007 16.9672ZM4.47181 16.1757C4.47181 16.1637 4.47181 16.1577 4.47181 16.1577C4.47181 15.9298 4.55276 15.738 4.71465 15.5821C4.87655 15.4262 5.06543 15.3482 5.28129 15.3482C5.50915 15.3482 5.70102 15.4262 5.85693 15.5821C6.01283 15.738 6.09078 15.9298 6.09078 16.1577C6.09078 16.3736 6.01283 16.5594 5.85693 16.7153C5.70102 16.8712 5.51514 16.9552 5.29928 16.9672C5.07143 16.9672 4.87955 16.8892 4.72365 16.7333C4.56775 16.5774 4.4838 16.3915 4.47181 16.1757ZM19.4383 9.39402H17.0458C16.9498 9.39402 16.8719 9.427 16.8119 9.49296C16.752 9.55892 16.722 9.63387 16.722 9.71782V10.2215C16.722 10.3174 16.752 10.3954 16.8119 10.4553C16.8719 10.5153 16.9498 10.5453 17.0458 10.5453H19.4383C19.5342 10.5453 19.6151 10.5153 19.6811 10.4553C19.7471 10.3954 19.78 10.3174 19.78 10.2215V9.71782C19.78 9.63387 19.7471 9.55892 19.6811 9.49296C19.6151 9.427 19.5342 9.39402 19.4383 9.39402Z" fill="#CB4B00"/>
</svg>
