<svg width="24" height="24" viewBox="0 0 24 24" fill="none" xmlns="http://www.w3.org/2000/svg">
<path fill-rule="evenodd" clip-rule="evenodd" d="M23.429 12.2032L22.4897 12.8663L17.2587 5.60915C17.2341 5.57231 17.1973 5.53854 17.1481 5.50785C17.099 5.47715 17.0438 5.4618 16.9824 5.4618C16.9455 5.4618 16.9087 5.46794 16.8719 5.48022C16.835 5.4925 16.8043 5.51092 16.7798 5.53547L14.7537 7.02742L11.604 2.71736C11.5794 2.66824 11.5426 2.6314 11.4935 2.60685C11.4444 2.58229 11.3891 2.57001 11.3277 2.57001C11.2909 2.57001 11.254 2.57615 11.2172 2.58843C11.1804 2.60071 11.1497 2.61913 11.1251 2.64368L5.94935 6.40117L5.34152 5.53548L4.42057 4.28298C4.05219 3.7918 3.59171 3.40193 3.03914 3.11337C2.48657 2.8248 1.88488 2.68052 1.23407 2.68052C1.23407 2.68052 1.23101 2.68052 1.22487 2.68052C1.21873 2.68052 1.21566 2.68052 1.21566 2.68052H0.349962C0.251727 2.68052 0.168841 2.71429 0.101305 2.78183C0.0337682 2.84936 0 2.92611 0 3.01206V3.54622C0 3.64445 0.0337682 3.72734 0.101305 3.79487C0.168841 3.86241 0.251727 3.89618 0.349962 3.89618H1.21566C1.21566 3.89618 1.21873 3.89618 1.22487 3.89618C1.23101 3.89618 1.23407 3.89618 1.23407 3.89618C1.68841 3.89618 2.10591 3.99441 2.48657 4.19088C2.86723 4.38735 3.18036 4.6575 3.42594 5.00132L4.95472 7.11951L8.30699 11.6874L12.9486 18.0973C12.8135 18.2692 12.7061 18.4656 12.6263 18.6867C12.5464 18.9077 12.5065 19.141 12.5065 19.3866C12.5065 19.9023 12.6754 20.3505 13.0131 20.7312C13.3507 21.1118 13.7713 21.339 14.2748 21.4127C14.2993 21.4127 14.327 21.4158 14.3577 21.4219C14.3884 21.428 14.416 21.4311 14.4405 21.4311C14.4651 21.4311 14.4897 21.428 14.5142 21.4219C14.5388 21.4158 14.5695 21.4127 14.6063 21.4127C15.1712 21.4127 15.6531 21.2101 16.0522 20.8049C16.4513 20.3996 16.6508 19.9146 16.6508 19.3498C16.6508 19.1164 16.6171 18.8954 16.5495 18.6867C16.482 18.4779 16.3868 18.2876 16.264 18.1157V18.1341C16.0798 17.8762 15.8404 17.6705 15.5457 17.5171C15.251 17.3636 14.9378 17.2868 14.6063 17.2868C14.4835 17.2868 14.3638 17.296 14.2471 17.3144C14.1305 17.3329 14.0169 17.3605 13.9064 17.3973L9.98313 11.9821L16.7797 7.04582L21.5318 13.5662L17.1849 16.7343C17.1358 16.7588 17.099 16.7956 17.0744 16.8448C17.0499 16.8939 17.0376 16.9491 17.0376 17.0105C17.0376 17.0474 17.0437 17.0842 17.056 17.1211C17.0683 17.1579 17.0867 17.1886 17.1113 17.2131L17.3139 17.4894L17.406 17.6368C17.4428 17.6859 17.4858 17.7227 17.5349 17.7473C17.584 17.7719 17.6393 17.7841 17.7007 17.7841C17.7375 17.7841 17.7713 17.778 17.802 17.7657C17.8327 17.7534 17.8665 17.7412 17.9033 17.7289L18.4006 17.3421L23.8526 13.4004C23.8895 13.3758 23.9233 13.339 23.954 13.2899C23.9847 13.2408 24 13.1855 24 13.1241V12.4794C24 12.4794 24 12.4733 24 12.461C24 12.3751 23.9662 12.2983 23.8987 12.2308C23.8312 12.1633 23.7483 12.1295 23.65 12.1295C23.6132 12.1295 23.5764 12.1356 23.5395 12.1479C23.5027 12.1602 23.4658 12.1786 23.429 12.2032L23.429 12.2032ZM14.109 18.6683C14.1827 18.6192 14.2625 18.5793 14.3485 18.5486C14.4344 18.5179 14.5265 18.5025 14.6247 18.5025C14.7721 18.5025 14.9041 18.5332 15.0208 18.5946C15.1374 18.656 15.2387 18.742 15.3247 18.8525C15.3738 18.9261 15.4137 19.006 15.4444 19.0919C15.4751 19.1779 15.4904 19.27 15.4904 19.3682C15.4904 19.6015 15.4076 19.8011 15.2418 19.9668C15.076 20.1326 14.8703 20.2155 14.6247 20.2155C14.4897 20.2155 14.3607 20.1848 14.2379 20.1234C14.1151 20.062 14.0169 19.976 13.9432 19.8655C13.8818 19.7918 13.8358 19.712 13.8051 19.6261C13.7744 19.5401 13.759 19.448 13.759 19.3498C13.759 19.2024 13.7928 19.0674 13.8604 18.9446C13.9279 18.8218 14.0169 18.7235 14.1274 18.6499L14.109 18.6683ZM13.759 7.76416L9.28321 11.0059L8.19649 9.49556L6.68613 7.37737L11.162 4.13561L13.7959 7.74575L13.759 7.76416ZM18.898 12.9031L18.5848 12.4794C18.5603 12.4426 18.5234 12.4088 18.4743 12.3781C18.4252 12.3474 18.3699 12.3321 18.3086 12.3321C18.2717 12.3321 18.2349 12.3382 18.198 12.3505C18.1612 12.3628 18.1305 12.3812 18.1059 12.4058L14.6616 14.9108C14.6247 14.9353 14.5971 14.9722 14.5787 15.0213C14.5603 15.0704 14.5511 15.1195 14.5511 15.1686C14.5511 15.1932 14.5541 15.2208 14.5603 15.2515C14.5664 15.2822 14.5756 15.3098 14.5879 15.3344L14.901 15.758C14.9379 15.8072 14.9808 15.844 15.03 15.8686C15.0791 15.8931 15.1282 15.9054 15.1773 15.9054C15.2141 15.9054 15.251 15.8993 15.2878 15.887C15.3247 15.8747 15.3554 15.8624 15.3799 15.8501L18.8427 13.3636C18.8795 13.3267 18.9072 13.2868 18.9256 13.2438C18.944 13.2009 18.9532 13.1548 18.9532 13.1057C18.9532 13.0689 18.9501 13.032 18.944 12.9952C18.9379 12.9583 18.9225 12.9276 18.898 12.9031L18.898 12.9031ZM8.45438 17.2868H2.08139C1.98316 17.2868 1.90027 17.3206 1.83274 17.3881C1.7652 17.4557 1.73143 17.5385 1.73143 17.6368V21.0812C1.73143 21.1794 1.7652 21.2623 1.83274 21.3298C1.90027 21.3973 1.98316 21.4311 2.08139 21.4311H8.45438C8.54033 21.4311 8.61708 21.3973 8.68462 21.3298C8.75215 21.2623 8.78592 21.1794 8.78592 21.0812V17.6368C8.78592 17.5385 8.75215 17.4557 8.68462 17.3881C8.61708 17.3206 8.54033 17.2868 8.45438 17.2868ZM7.57026 20.197H2.94708V18.5025H7.58868L7.57026 20.197Z" fill="#CB4B00"/>
</svg>
