<svg width="24" height="24" viewBox="0 0 24 24" fill="none" xmlns="http://www.w3.org/2000/svg">
<path fill-rule="evenodd" clip-rule="evenodd" d="M12.675 15.3382C12.6871 15.3139 12.6962 15.2896 12.7023 15.2653C12.7084 15.241 12.7114 15.2106 12.7114 15.1741C12.7114 15.1011 12.6902 15.0342 12.6476 14.9734C12.605 14.9126 12.5473 14.87 12.4743 14.8457L11.9635 14.6815C11.9392 14.6694 11.9179 14.6633 11.8997 14.6633C11.8814 14.6633 11.8662 14.6633 11.8541 14.6633C11.7933 14.6633 11.7385 14.6755 11.6899 14.6998C11.6412 14.7241 11.5987 14.7606 11.5622 14.8092C11.4771 14.943 11.3646 15.0464 11.2247 15.1193C11.0849 15.1923 10.9298 15.2288 10.7595 15.2288C10.6014 15.2288 10.4525 15.1923 10.3126 15.1193C10.1727 15.0464 10.0542 14.9491 9.95688 14.8275C9.93256 14.7788 9.89303 14.7393 9.83831 14.7089C9.78358 14.6785 9.72581 14.6633 9.66501 14.6633C9.65285 14.6633 9.63764 14.6663 9.6194 14.6724C9.60116 14.6785 9.57988 14.6815 9.55555 14.6815L9.06302 14.864C8.99005 14.8883 8.93228 14.9308 8.88972 14.9916C8.84715 15.0525 8.82587 15.1193 8.82587 15.1923C8.82587 15.2288 8.83195 15.2592 8.84411 15.2835C8.85627 15.3078 8.86843 15.3322 8.8806 15.3565C9.07518 15.6848 9.33969 15.9494 9.67413 16.15C10.0086 16.3507 10.3764 16.451 10.7778 16.451C11.1791 16.451 11.547 16.3476 11.8814 16.1409C12.2159 15.9342 12.4804 15.6666 12.675 15.3382H12.675ZM9.84743 20.1542C9.32449 20.0204 8.91708 19.7711 8.6252 19.4062C8.33333 19.0414 8.18131 18.5185 8.16915 17.8374C8.16915 17.8009 8.16307 17.7645 8.15091 17.728C8.13875 17.6915 8.12659 17.6611 8.11442 17.6368L4.88557 13.2039C4.86124 13.1674 4.82476 13.134 4.77611 13.1036C4.72747 13.0732 4.67882 13.058 4.63018 13.058H4.53897C4.53897 13.058 4.53593 13.058 4.52984 13.058C4.52376 13.058 4.52072 13.058 4.52072 13.058C4.26533 13.058 4.04035 12.9759 3.84577 12.8117C3.65119 12.6475 3.53565 12.4378 3.49917 12.1824C3.49917 12.1702 3.49917 12.155 3.49917 12.1368C3.49917 12.1185 3.49917 12.1033 3.49917 12.0912C3.49917 11.8236 3.59646 11.5925 3.79104 11.398C3.98562 11.2034 4.21669 11.1061 4.48424 11.1061H4.73963C4.83692 11.1061 4.91901 11.0726 4.9859 11.0058C5.05279 10.9389 5.08623 10.8568 5.08623 10.7595V9.30011C5.54837 9.25147 5.98922 9.16025 6.40878 9.02648C6.82835 8.8927 7.23272 8.72244 7.62188 8.5157C7.93808 8.33328 8.29076 8.1843 8.67993 8.06877C9.06909 7.95323 9.48258 7.89547 9.92039 7.89547H11.6352C12.0608 7.89547 12.4743 7.95323 12.8756 8.06877C13.2769 8.1843 13.654 8.34544 14.0066 8.55218C14.4323 8.79541 14.9066 8.98696 15.4295 9.12681C15.9525 9.26667 16.4997 9.34268 17.0713 9.35484H17.3632C17.4362 9.34268 17.503 9.30923 17.5639 9.25451C17.6247 9.19978 17.6611 9.12985 17.6733 9.04472C17.6733 8.15694 17.503 7.32996 17.1625 6.56379C16.8342 5.78546 16.3812 5.10746 15.8035 4.52979C15.2258 3.95212 14.5539 3.49911 13.7877 3.17075C13.0094 2.83023 12.1824 2.65997 11.3068 2.65997H10.2488C9.37314 2.65997 8.54616 2.83023 7.76783 3.17075C7.00166 3.49911 6.32974 3.95212 5.75207 4.52979C5.1744 5.10746 4.71531 5.77938 4.37479 6.54555C4.04643 7.32388 3.88225 8.15085 3.88225 9.02648V9.99331C3.42012 10.1271 3.04007 10.3855 2.74212 10.7686C2.44417 11.1517 2.29519 11.5925 2.29519 12.0912C2.29519 12.6384 2.47153 13.1158 2.82421 13.5232C3.17689 13.9306 3.6147 14.1708 4.13764 14.2437L6.38143 17.3084H4.95854C4.4356 17.3084 3.94914 17.3996 3.49917 17.582C3.03703 17.7645 2.62963 18.0168 2.27695 18.3391C1.92427 18.6614 1.63847 19.0414 1.41957 19.4792C1.1885 19.9049 1.04865 20.3731 1 20.8839C1 20.896 1 20.9051 1 20.9112C1 20.9173 1 20.9264 1 20.9386C1 21.0359 1.03344 21.118 1.10033 21.1849C1.16722 21.2517 1.24931 21.2852 1.3466 21.2852H1.87562C1.96075 21.2852 2.03372 21.2548 2.09453 21.194C2.15533 21.1332 2.19182 21.0663 2.20398 20.9933C2.28911 20.2879 2.59011 19.6981 3.10697 19.2238C3.62383 18.7495 4.24102 18.5124 4.95854 18.5124H7.03814C7.13543 19.2056 7.41819 19.8076 7.8864 20.3183C8.35461 20.8291 8.91708 21.1636 9.57379 21.3217C9.59812 21.3338 9.6194 21.3399 9.63764 21.3399C9.65588 21.3399 9.67109 21.3399 9.68325 21.3399C9.76838 21.3399 9.84135 21.3125 9.90215 21.2578C9.96296 21.2031 9.99944 21.1392 10.0116 21.0663L10.1028 20.5555C10.1028 20.5433 10.1028 20.5342 10.1028 20.5281C10.1028 20.5221 10.1028 20.5129 10.1028 20.5008C10.1028 20.4156 10.0785 20.3427 10.0298 20.2819C9.9812 20.2211 9.92039 20.1846 9.84743 20.1724V20.1542ZM10.2488 3.86396H11.3068C11.9392 3.86396 12.5351 3.97341 13.0945 4.19232C13.6539 4.39906 14.1586 4.69094 14.6086 5.06794C15.0586 5.44494 15.4356 5.88884 15.7396 6.39961C16.0437 6.91039 16.2565 7.46374 16.3781 8.05965C16.0254 8.02317 15.691 7.9502 15.3748 7.84074C15.0586 7.73129 14.7606 7.59752 14.4809 7.43942C14.0796 7.20835 13.6387 7.02593 13.1584 6.89215C12.678 6.75838 12.1703 6.69149 11.6352 6.69149H9.92039C9.38529 6.69149 8.87451 6.75838 8.38805 6.89215C7.90159 7.02593 7.43946 7.22051 7.00165 7.4759C6.74626 7.60968 6.46655 7.73129 6.16251 7.84074C5.85848 7.9502 5.54228 8.03533 5.21392 8.09613C5.32337 7.48806 5.53012 6.92864 5.83415 6.41786C6.12603 5.89492 6.49695 5.44495 6.94692 5.06794C7.39689 4.69094 7.90159 4.39906 8.46102 4.19232C9.02044 3.97341 9.61635 3.86396 10.2487 3.86396H10.2488ZM11.398 11.2155H10.194C10.0603 10.7899 9.81398 10.4433 9.45522 10.1757C9.09646 9.90816 8.68601 9.77438 8.22388 9.77438C7.65229 9.77438 7.16888 9.97505 6.77363 10.3764C6.37839 10.7777 6.18076 11.2581 6.18076 11.8175C6.18076 12.3891 6.37839 12.8755 6.77363 13.2769C7.16888 13.6782 7.65229 13.8789 8.22388 13.8789C8.68601 13.8789 9.09646 13.742 9.45522 13.4684C9.81398 13.1948 10.0542 12.8512 10.1758 12.4377L11.398 12.4195C11.5318 12.8451 11.7781 13.1948 12.1368 13.4684C12.4956 13.742 12.8999 13.8789 13.3499 13.8789C13.9215 13.8789 14.408 13.6782 14.8093 13.2769C15.2106 12.8755 15.4113 12.3891 15.4113 11.8175C15.4113 11.2581 15.2106 10.7777 14.8093 10.3764C14.408 9.97505 13.9215 9.77438 13.3499 9.77438C12.8999 9.77438 12.4956 9.90816 12.1368 10.1757C11.7781 10.4433 11.5318 10.7838 11.398 11.1973L11.398 11.2155ZM8.20564 12.6749C7.97457 12.6749 7.77695 12.5898 7.61277 12.4195C7.44859 12.2492 7.3665 12.0486 7.3665 11.8175C7.3665 11.5864 7.44859 11.3888 7.61277 11.2246C7.77695 11.0605 7.97457 10.9784 8.20564 10.9784C8.4367 10.9784 8.63433 11.0605 8.7985 11.2246C8.96268 11.3888 9.04477 11.5864 9.04477 11.8175C9.04477 12.0486 8.96268 12.2462 8.7985 12.4104C8.63433 12.5746 8.4367 12.6627 8.20564 12.6749ZM14.189 11.8175C14.189 12.0486 14.107 12.2492 13.9428 12.4195C13.7786 12.5898 13.581 12.6749 13.3499 12.6749C13.1188 12.6749 12.9212 12.5898 12.757 12.4195C12.5929 12.2492 12.5108 12.0486 12.5108 11.8175C12.5108 11.5864 12.5929 11.3888 12.757 11.2246C12.9212 11.0605 13.1188 10.9784 13.3499 10.9784C13.581 10.9784 13.7786 11.0605 13.9428 11.2246C14.107 11.3888 14.189 11.5864 14.189 11.8175ZM23 5.56047V4.70309C23 4.14367 22.7993 3.66329 22.398 3.26197C21.9967 2.86064 21.5102 2.65998 20.9386 2.65998C20.3671 2.65998 19.8806 2.86064 19.4793 3.26197C19.0779 3.66329 18.8773 4.14367 18.8773 4.70309V15.7213C18.8773 15.7335 18.8773 15.7426 18.8773 15.7487C18.8773 15.7548 18.8773 15.7639 18.8773 15.7761C18.8773 15.7882 18.8773 15.8004 18.8773 15.8125C18.8773 15.8247 18.8773 15.8308 18.8773 15.8308L20.592 21.1028C20.6164 21.1757 20.6589 21.2335 20.7197 21.2761C20.7805 21.3186 20.8474 21.3399 20.9204 21.3399C20.9934 21.3399 21.0603 21.3186 21.1211 21.2761C21.1819 21.2335 21.2244 21.1757 21.2488 21.1028L22.9635 15.8308C22.9635 15.8308 22.9635 15.8247 22.9635 15.8125C22.9635 15.8004 22.9635 15.7882 22.9635 15.7761C22.9635 15.7639 22.9635 15.7548 22.9635 15.7487C22.9635 15.7426 22.9635 15.7335 22.9635 15.7213V5.56044L23 5.56047ZM20.0813 4.70309C20.0813 4.47203 20.1664 4.2744 20.3366 4.11022C20.5069 3.94604 20.7076 3.86396 20.9386 3.86396C21.1697 3.86396 21.3673 3.94604 21.5315 4.11022C21.6957 4.2744 21.7778 4.47203 21.7778 4.70309V5.56047H20.0813V4.70309ZM20.9204 18.2023L20.3184 16.2869H21.5589L20.9204 18.2023ZM21.7595 15.0829H20.0813V6.76444H21.7778L21.7595 15.0829ZM17.1078 13.1492C17.0713 13.1249 17.0379 13.1097 17.0075 13.1036C16.9771 13.0975 16.9436 13.0945 16.9071 13.0945C16.8463 13.0945 16.7916 13.1066 16.743 13.131C16.6943 13.1553 16.6578 13.1857 16.6335 13.2222L13.4229 17.6368C13.4107 17.6611 13.3986 17.6885 13.3864 17.7189C13.3742 17.7493 13.3682 17.7827 13.3682 17.8192C13.3682 18.5124 13.2222 19.0414 12.9304 19.4063C12.6385 19.7711 12.225 20.0204 11.6899 20.1542C11.6169 20.1785 11.5592 20.2211 11.5166 20.2819C11.474 20.3427 11.4527 20.4096 11.4527 20.4825C11.4527 20.4947 11.4527 20.5069 11.4527 20.519C11.4527 20.5312 11.4527 20.5433 11.4527 20.5555L11.544 21.048C11.5561 21.1332 11.5926 21.2031 11.6534 21.2578C11.7142 21.3126 11.7872 21.3399 11.8723 21.3399C11.8845 21.3399 11.8997 21.3399 11.9179 21.3399C11.9362 21.3399 11.9514 21.3338 11.9635 21.3217C12.7054 21.1514 13.3226 20.7683 13.8151 20.1724C14.3076 19.5765 14.56 18.8894 14.5721 18.1111L17.5821 13.9336C17.6064 13.8971 17.6247 13.8637 17.6368 13.8333C17.649 13.8029 17.6551 13.7694 17.6551 13.733C17.6551 13.6721 17.6399 13.6174 17.6095 13.5688C17.579 13.5201 17.5456 13.4836 17.5091 13.4593L17.1078 13.1492ZM17.1625 20.0812H15.5755C15.4782 20.0812 15.3961 20.1146 15.3292 20.1815C15.2623 20.2484 15.2289 20.3244 15.2289 20.4096V20.9386C15.2289 21.0359 15.2623 21.118 15.3292 21.1849C15.3961 21.2517 15.4782 21.2852 15.5755 21.2852H17.1808C17.2781 21.2852 17.3601 21.2517 17.427 21.1849C17.4939 21.118 17.5274 21.0359 17.5274 20.9386V20.4096C17.5274 20.3244 17.4939 20.2484 17.427 20.1815C17.3601 20.1146 17.2781 20.0812 17.1808 20.0812H17.1625Z" fill="#CB4B00"/>
</svg>
