<svg width="24" height="24" viewBox="0 0 24 24" fill="none" xmlns="http://www.w3.org/2000/svg">
<path fill-rule="evenodd" clip-rule="evenodd" d="M23.4064 9.15071L22.0214 10.5357C21.8499 9.2958 21.4674 8.14164 20.8739 7.07322C20.2803 6.01798 19.5416 5.10125 18.6579 4.32301C17.7741 3.54478 16.7584 2.93142 15.6109 2.48294C14.4765 2.04766 13.2762 1.83002 12.0099 1.83002C11.0338 1.83002 10.0907 1.96192 9.18054 2.22573C8.28359 2.48954 7.446 2.86217 6.66776 3.34362C5.88953 3.82507 5.19043 4.40215 4.57048 5.07486C3.95053 5.74758 3.42951 6.49284 3.00742 7.31064C2.98104 7.36341 2.96455 7.40627 2.95796 7.43925C2.95136 7.47223 2.94806 7.50191 2.94806 7.52829C2.94806 7.60743 2.96785 7.67668 3.00742 7.73604C3.04699 7.79539 3.09975 7.83826 3.1657 7.86464L3.68013 8.10207C3.69332 8.11526 3.71311 8.12515 3.73949 8.13175C3.76587 8.13834 3.79225 8.14164 3.81863 8.14164C3.89777 8.14164 3.96702 8.12186 4.02638 8.08228C4.08574 8.04271 4.12861 7.99655 4.15499 7.94378C4.53751 7.2315 4.99917 6.58517 5.53998 6.00479C6.08079 5.41122 6.68755 4.90669 7.36026 4.49119C8.03297 4.07569 8.75844 3.75582 9.53668 3.53159C10.3149 3.30735 11.1261 3.19523 11.9703 3.19523C13.0915 3.19523 14.1467 3.38649 15.136 3.76901C16.1385 4.16473 17.0256 4.70224 17.7972 5.38155C18.5688 6.06086 19.2119 6.86877 19.7263 7.80529C20.2407 8.72862 20.5705 9.7245 20.7156 10.7929L19.7857 10.3379C19.7593 10.3247 19.7329 10.3148 19.7065 10.3082C19.6801 10.3016 19.6472 10.2983 19.6076 10.2983C19.5152 10.2983 19.4328 10.3346 19.3603 10.4071C19.2877 10.4797 19.2514 10.5687 19.2514 10.6742V11.3271C19.2514 11.3931 19.2679 11.4557 19.3009 11.5151C19.3339 11.5745 19.3768 11.6239 19.4295 11.6635L21.3289 12.6924C21.3553 12.7055 21.3817 12.7154 21.4081 12.722C21.4345 12.7286 21.4674 12.7319 21.507 12.7319C21.5598 12.7319 21.6059 12.722 21.6455 12.7022C21.6851 12.6825 21.7246 12.6594 21.7642 12.633L23.8813 10.4961C23.9209 10.4698 23.9505 10.4335 23.9703 10.3873C23.9901 10.3412 24 10.2917 24 10.2389V9.42772C23.9868 9.3222 23.9439 9.23976 23.8714 9.1804C23.7988 9.12104 23.7164 9.09137 23.6241 9.09137C23.5845 9.09137 23.5449 9.09796 23.5054 9.11115C23.4658 9.12434 23.4328 9.13753 23.4064 9.15072L23.4064 9.15071ZM20.8541 16.135L20.3594 15.8976C20.333 15.8844 20.3067 15.8745 20.2803 15.8679C20.2539 15.8613 20.2275 15.858 20.2011 15.858C20.1352 15.858 20.0725 15.8778 20.0132 15.9174C19.9538 15.957 19.9044 16.0031 19.8648 16.0559C19.4955 16.7814 19.0404 17.4343 18.4996 18.0147C17.9588 18.6083 17.3487 19.1161 16.6694 19.5382C15.9901 19.9603 15.2613 20.2834 14.4831 20.5077C13.6917 20.7451 12.8739 20.8638 12.0297 20.8638C10.9085 20.8638 9.84666 20.666 8.84418 20.2702C7.8549 19.8745 6.97114 19.3337 6.19291 18.6478C5.41467 17.9619 4.76834 17.1507 4.25392 16.2142C3.75268 15.2777 3.42952 14.2686 3.28442 13.187L4.19456 13.6618C4.22094 13.675 4.25062 13.6849 4.28359 13.6915C4.31657 13.6981 4.34625 13.7014 4.37263 13.7014C4.47815 13.7014 4.56719 13.6651 4.63974 13.5926C4.71228 13.52 4.74856 13.431 4.74856 13.3255V12.6726C4.74856 12.6066 4.73207 12.544 4.69909 12.4846C4.66612 12.4252 4.62325 12.3758 4.57049 12.3362L2.67106 11.3271C2.64468 11.3139 2.6183 11.3008 2.59192 11.2876C2.56554 11.2744 2.53257 11.2678 2.49299 11.2678C2.44023 11.2678 2.39077 11.2777 2.3446 11.2975C2.29843 11.3172 2.26216 11.3469 2.23578 11.3865L0.118714 13.5036C0.0791429 13.5431 0.0494641 13.586 0.0296783 13.6322C0.00989261 13.6783 0 13.7212 0 13.7608V14.572C0 14.572 0 14.5753 0 14.5819C0 14.5885 0 14.5918 0 14.5918C0 14.6973 0.0362739 14.7863 0.108821 14.8589C0.181369 14.9314 0.270404 14.9677 0.375928 14.9677C0.428689 14.9677 0.481451 14.9545 0.534213 14.9281C0.586974 14.9017 0.626545 14.8688 0.652927 14.8292L2.03792 13.464C2.2094 14.7039 2.59192 15.8515 3.18549 16.9067C3.76587 17.9751 4.50123 18.8985 5.39159 19.6767C6.28194 20.4549 7.29431 21.0617 8.42868 21.497C9.57625 21.9454 10.7832 22.1697 12.0495 22.1697C13.0255 22.1697 13.9687 22.0378 14.8788 21.774C15.7758 21.5102 16.6133 21.1375 17.3916 20.6561C18.1698 20.1746 18.8689 19.5975 19.4889 18.9248C20.1088 18.2521 20.6298 17.5069 21.0519 16.6891C21.0783 16.6363 21.0948 16.5967 21.1014 16.5703C21.108 16.544 21.1113 16.5176 21.1113 16.4912C21.1113 16.412 21.0849 16.3395 21.0321 16.2736C20.9794 16.2076 20.92 16.1614 20.8541 16.1351V16.135ZM8.40892 17.2628H15.6307C15.7362 17.2628 15.8253 17.2266 15.8978 17.154C15.9704 17.0815 16.0066 16.9924 16.0066 16.8869V10.8523L17.728 7.84486C17.7412 7.81848 17.7544 7.7921 17.7676 7.76572C17.7807 7.73934 17.7873 7.70636 17.7873 7.66679C17.7873 7.56126 17.7511 7.47223 17.6785 7.39968C17.606 7.32713 17.5169 7.29086 17.4114 7.29086H10.1105C10.0314 7.29086 9.96545 7.30735 9.91269 7.34032C9.85992 7.3733 9.81376 7.41617 9.77419 7.46893L8.68597 9.34857L7.59776 7.48871C7.57138 7.43595 7.52851 7.39308 7.46916 7.36011C7.4098 7.32713 7.34714 7.31064 7.28119 7.31064H6.62827C6.52274 7.31064 6.43371 7.34692 6.36116 7.41946C6.28861 7.49201 6.25234 7.57445 6.25234 7.66678C6.25234 7.70636 6.25893 7.74263 6.27212 7.77561C6.28532 7.80858 6.2985 7.83826 6.3117 7.86464L8.03305 10.8523V16.8869C8.03305 16.9924 8.06932 17.0815 8.14187 17.154C8.21442 17.2266 8.30345 17.2628 8.40898 17.2628H8.40892ZM10.6447 8.61652H15.7692L14.9382 10.0213H9.85327L10.6447 8.61652ZM9.31906 11.3469H14.6612V15.9372H9.33885L9.31906 11.3469Z" fill="#CB4B00"/>
</svg>
