<svg width="24" height="24" viewBox="0 0 24 24" fill="none" xmlns="http://www.w3.org/2000/svg">
<path fill-rule="evenodd" clip-rule="evenodd" d="M20.1235 7.35163C20.2249 7.35163 20.3104 7.31679 20.38 7.24712C20.4497 7.17744 20.4846 7.09193 20.4846 6.99059V6.43952C20.4846 6.35084 20.4497 6.2685 20.38 6.19249C20.3104 6.11648 20.2249 6.07847 20.1235 6.07847H17.5012C17.4125 6.07847 17.3333 6.11648 17.2637 6.19249C17.194 6.2685 17.1591 6.35084 17.1591 6.43952V6.99059C17.1591 7.09193 17.194 7.17744 17.2637 7.24712C17.3333 7.31679 17.4125 7.35163 17.5012 7.35163H20.1235ZM23.5439 6.42051L21.2066 3.19011C20.9913 2.89874 20.7221 2.66755 20.399 2.49652C20.076 2.3255 19.7245 2.23999 19.3444 2.23999C19.3317 2.23999 19.3254 2.23999 19.3254 2.23999C19.3254 2.23999 19.3191 2.23999 19.3064 2.23999H2.28028C1.65953 2.25266 1.12747 2.48385 0.684077 2.93358C0.240688 3.3833 0.0189941 3.91853 0.0189941 4.53928V11.5891C0.0189941 12.1465 0.193183 12.6374 0.541559 13.0618C0.889936 13.4862 1.33016 13.7491 1.86222 13.8504L2.62231 14.0024C2.749 14.4838 3.00236 14.8765 3.38241 15.1806C3.76246 15.4846 4.20585 15.6366 4.71258 15.6366C5.29532 15.6366 5.79571 15.4276 6.21376 15.0096C6.63181 14.5915 6.84084 14.0848 6.84084 13.4894C6.84084 12.894 6.63181 12.3872 6.21376 11.9692C5.79571 11.5511 5.29532 11.3421 4.71258 11.3421C4.24385 11.3421 3.82896 11.472 3.46793 11.7317C3.10688 11.9914 2.85035 12.3239 2.69833 12.7293L2.12826 12.6343C1.88756 12.5836 1.68487 12.4632 1.52018 12.2732C1.3555 12.0832 1.27315 11.8615 1.27315 11.6081C1.27315 11.6081 1.27315 11.605 1.27315 11.5986C1.27315 11.5923 1.27315 11.5891 1.27315 11.5891V9.57489H2.22327C2.31195 9.56222 2.38796 9.52105 2.4513 9.45137C2.51464 9.3817 2.54631 9.30252 2.54631 9.21384C2.54631 9.20117 2.54631 9.19167 2.54631 9.18534C2.54631 9.17901 2.54631 9.17584 2.54631 9.17584V8.62477C2.54631 8.52342 2.51147 8.43791 2.4418 8.36824C2.37212 8.29856 2.28661 8.26372 2.18527 8.26372H1.27315V4.48225C1.29849 4.20355 1.40933 3.96919 1.60569 3.77917C1.80205 3.58914 2.03958 3.49413 2.31828 3.49413H14.6318V8.30173H13.7007C13.5994 8.30173 13.5139 8.33657 13.4442 8.40624C13.3745 8.47592 13.3397 8.56143 13.3397 8.66278V9.17584C13.3397 9.27719 13.3745 9.3627 13.4442 9.43237C13.5139 9.50205 13.5994 9.53689 13.7007 9.53689H14.6318V11.1901C14.6318 11.2914 14.6667 11.3769 14.7363 11.4466C14.806 11.5163 14.8915 11.5511 14.9929 11.5511H15.5439C15.6326 11.5511 15.7118 11.5163 15.7815 11.4466C15.8512 11.3769 15.886 11.2914 15.886 11.1901V3.49416H19.3444C19.3444 3.49416 19.3476 3.49416 19.3539 3.49416C19.3603 3.49416 19.3634 3.49416 19.3634 3.49416C19.5281 3.49416 19.6865 3.53533 19.8385 3.61767C19.9905 3.70002 20.1108 3.80453 20.1995 3.93121L22.5368 7.16161C22.6002 7.23762 22.6508 7.32947 22.6888 7.43715C22.7268 7.54483 22.7458 7.65568 22.7458 7.76969C22.7458 7.76969 22.7458 7.77286 22.7458 7.77919C22.7458 7.78552 22.7458 7.78869 22.7458 7.78869V8.32076H21.7957C21.6944 8.32076 21.6089 8.3556 21.5392 8.42527C21.4695 8.49495 21.4347 8.58046 21.4347 8.6818V9.17587C21.4347 9.27721 21.4695 9.36272 21.5392 9.4324C21.6089 9.50207 21.6944 9.53691 21.7957 9.53691H22.7268V11.5702C22.7268 11.8235 22.6477 12.0452 22.4893 12.2352C22.331 12.4253 22.1314 12.5456 21.8907 12.5963L21.3207 12.7103C21.156 12.2923 20.8931 11.9534 20.5321 11.6937C20.171 11.434 19.7625 11.3041 19.3064 11.3041C18.825 11.3041 18.4006 11.4467 18.0333 11.7317C17.6659 12.0167 17.4125 12.3746 17.2732 12.8053L8.43709 12.8243C8.33575 12.8243 8.25024 12.8592 8.18056 12.9288C8.11088 12.9985 8.07605 13.084 8.07605 13.1854V13.7174C8.07605 13.8188 8.11088 13.9043 8.18056 13.974C8.25024 14.0436 8.33575 14.0785 8.43709 14.0785H17.2732C17.3998 14.5345 17.65 14.9051 18.0238 15.1901C18.3975 15.4752 18.8314 15.6177 19.3254 15.6177C19.8195 15.6177 20.2565 15.4656 20.6366 15.1616C21.0166 14.8576 21.2637 14.4712 21.3777 14.0025L22.1378 13.8314C22.6698 13.7301 23.1101 13.4704 23.4584 13.0524C23.8068 12.6343 23.981 12.1466 23.981 11.5892V7.76969C23.981 7.51633 23.943 7.27246 23.867 7.0381C23.791 6.80374 23.6833 6.59155 23.5439 6.40152L23.5439 6.42051ZM4.69359 12.5963C4.93428 12.5963 5.14014 12.6818 5.31116 12.8528C5.48218 13.0238 5.56769 13.2297 5.56769 13.4704C5.56769 13.7238 5.48218 13.9359 5.31116 14.107C5.14014 14.278 4.93428 14.3635 4.69359 14.3635C4.44022 14.3635 4.22803 14.278 4.05701 14.107C3.88598 13.9359 3.80047 13.7301 3.80047 13.4894C3.80047 13.236 3.88915 13.0238 4.06651 12.8528C4.24386 12.6818 4.45289 12.5963 4.69359 12.5963ZM19.3064 14.3635C19.0657 14.3635 18.8599 14.278 18.6888 14.107C18.5178 13.9359 18.4323 13.7301 18.4323 13.4894C18.4323 13.2487 18.5178 13.0397 18.6888 12.8623C18.8599 12.685 19.0657 12.5963 19.3064 12.5963C19.5598 12.5963 19.772 12.685 19.943 12.8623C20.114 13.0397 20.1995 13.2487 20.1995 13.4894C20.1995 13.7301 20.1108 13.9359 19.9335 14.107C19.7561 14.278 19.5471 14.3635 19.3064 14.3635ZM22.0998 17.5179C22.0618 17.4926 22.0206 17.4704 21.9762 17.4514C21.9319 17.4324 21.8844 17.4229 21.8337 17.4229H21.0736C21.061 17.4229 21.0546 17.4229 21.0546 17.4229C20.9533 17.4229 20.8678 17.4577 20.7981 17.5274C20.7284 17.5971 20.6936 17.6826 20.6936 17.7839C20.6936 17.8346 20.7031 17.8821 20.7221 17.9264C20.7411 17.9708 20.7696 18.012 20.8076 18.05L22.3468 19.5892L20.8266 21.0903C20.7886 21.1157 20.7601 21.1537 20.7411 21.2044C20.7221 21.255 20.7126 21.3057 20.7126 21.3564C20.7126 21.4577 20.7474 21.5432 20.8171 21.6129C20.8868 21.6826 20.9723 21.7174 21.0736 21.7174C21.0736 21.7174 21.08 21.7174 21.0926 21.7174H21.8527C21.9034 21.7174 21.9509 21.7079 21.9953 21.6889C22.0396 21.6699 22.0744 21.6414 22.0998 21.6034L23.905 19.8172C23.9303 19.7918 23.9525 19.757 23.9715 19.7127C23.9905 19.6683 24 19.6208 24 19.5701C24 19.5195 23.9905 19.472 23.9715 19.4276C23.9525 19.3833 23.9303 19.3485 23.905 19.3231L22.0998 17.5179ZM16.9311 17.5179C16.8931 17.4926 16.8519 17.4704 16.8076 17.4514C16.7633 17.4324 16.7158 17.4229 16.6651 17.4229H15.886C15.7846 17.4229 15.6991 17.4577 15.6295 17.5274C15.5598 17.5971 15.5249 17.6826 15.5249 17.7839C15.5249 17.8346 15.5344 17.8821 15.5534 17.9264C15.5724 17.9708 15.6009 18.012 15.639 18.05L17.1781 19.5892L15.639 21.1283C15.6009 21.1537 15.5724 21.1917 15.5534 21.2424C15.5344 21.293 15.5249 21.3437 15.5249 21.3944C15.5249 21.4957 15.5598 21.5812 15.6295 21.6509C15.6991 21.7206 15.7846 21.7554 15.886 21.7554C15.886 21.7554 15.8923 21.7554 15.905 21.7554H16.6651C16.7157 21.7554 16.7633 21.7459 16.8076 21.7269C16.8519 21.7079 16.8868 21.6794 16.9121 21.6414L18.7173 19.8552C18.7427 19.8298 18.7648 19.795 18.7838 19.7507C18.8028 19.7063 18.8123 19.6588 18.8123 19.6082C18.8123 19.5575 18.8028 19.51 18.7838 19.4656C18.7648 19.4213 18.7427 19.3865 18.7173 19.3611L16.9311 17.5179ZM11.7435 17.5179C11.7181 17.4926 11.6833 17.4704 11.639 17.4514C11.5946 17.4324 11.5471 17.4229 11.4964 17.4229H10.7363C10.7363 17.4229 10.73 17.4229 10.7173 17.4229C10.6287 17.4229 10.5463 17.4577 10.4703 17.5274C10.3943 17.5971 10.3563 17.6826 10.3563 17.7839C10.3563 17.8346 10.369 17.8821 10.3943 17.9264C10.4196 17.9708 10.4513 18.012 10.4893 18.05L12.0095 19.5511L10.4703 21.0903C10.4323 21.1157 10.4006 21.1537 10.3753 21.2044C10.35 21.255 10.3373 21.3057 10.3373 21.3564C10.3373 21.4577 10.3721 21.5432 10.4418 21.6129C10.5115 21.6826 10.597 21.7174 10.6983 21.7174C10.6983 21.7174 10.7015 21.7174 10.7078 21.7174C10.7142 21.7174 10.7173 21.7174 10.7173 21.7174H11.4774C11.5281 21.7174 11.5756 21.7079 11.62 21.6889C11.6643 21.6699 11.7055 21.6414 11.7435 21.6034L13.5297 19.8172C13.5677 19.7918 13.593 19.757 13.6057 19.7127C13.6184 19.6683 13.6247 19.6208 13.6247 19.5701C13.6247 19.5195 13.6184 19.472 13.6057 19.4276C13.593 19.3833 13.5677 19.3485 13.5297 19.3231L11.7435 17.5179ZM6.57482 17.5179C6.54948 17.4799 6.51465 17.4482 6.47031 17.4229C6.42597 17.3975 6.37846 17.3849 6.32779 17.3849H5.54869C5.54869 17.3849 5.54553 17.3849 5.53919 17.3849C5.53286 17.3849 5.52969 17.3849 5.52969 17.3849C5.42834 17.3849 5.34283 17.4197 5.27316 17.4894C5.20348 17.5591 5.16864 17.6446 5.16864 17.7459C5.16864 17.7966 5.18131 17.8441 5.20665 17.8884C5.23199 17.9328 5.26366 17.9739 5.30166 18.012L6.84086 19.5511L5.30166 21.0903C5.26366 21.1157 5.23199 21.1537 5.20665 21.2044C5.18131 21.255 5.16864 21.3057 5.16864 21.3564C5.16864 21.4577 5.20348 21.5432 5.27316 21.6129C5.34283 21.6826 5.42834 21.7174 5.52969 21.7174C5.52969 21.7174 5.53286 21.7174 5.53919 21.7174C5.54553 21.7174 5.54869 21.7174 5.54869 21.7174H6.32779C6.37846 21.7174 6.42597 21.7079 6.47031 21.6889C6.51465 21.6699 6.54948 21.6414 6.57482 21.6034L8.36104 19.8172C8.39905 19.7918 8.42755 19.757 8.44656 19.7127C8.46556 19.6683 8.47506 19.6208 8.47506 19.5702C8.47506 19.5195 8.46556 19.472 8.44656 19.4276C8.42755 19.3833 8.39905 19.3485 8.36104 19.3231L6.57482 17.5179ZM1.40617 17.5179C1.38084 17.4799 1.346 17.4482 1.30166 17.4229C1.25732 17.3975 1.20982 17.3849 1.15914 17.3849H0.380048C0.380048 17.3849 0.376881 17.3849 0.370546 17.3849C0.364213 17.3849 0.361045 17.3849 0.361045 17.3849C0.259699 17.3849 0.174189 17.4197 0.104513 17.4894C0.0348379 17.5591 0 17.6446 0 17.7459C0 17.7966 0.0126682 17.8441 0.038005 17.8884C0.0633412 17.9328 0.0950124 17.9739 0.133017 18.012L1.67221 19.5511L0.133017 21.0903C0.0950124 21.1157 0.0633412 21.1537 0.038005 21.2044C0.0126682 21.255 0 21.3057 0 21.3564C0 21.4577 0.0348379 21.5432 0.104513 21.6129C0.174189 21.6826 0.259699 21.7174 0.361045 21.7174C0.361045 21.7174 0.364213 21.7174 0.370546 21.7174C0.376881 21.7174 0.380048 21.7174 0.380048 21.7174H1.15914C1.20982 21.7174 1.25416 21.7079 1.29216 21.6889C1.33017 21.6699 1.36817 21.6414 1.40617 21.6034L3.1734 19.7982C3.2114 19.7602 3.2399 19.719 3.25891 19.6747C3.27791 19.6303 3.28741 19.5828 3.28741 19.5322C3.28741 19.4815 3.27791 19.434 3.25891 19.3896C3.2399 19.3453 3.2114 19.3041 3.1734 19.2661L1.40617 17.5179Z" fill="#CB4B00"/>
</svg>
