<svg width="24" height="24" viewBox="0 0 24 24" fill="none" xmlns="http://www.w3.org/2000/svg">
<path fill-rule="evenodd" clip-rule="evenodd" d="M19.3662 6.16797H18.0625V5.20117C18.0528 5.12305 18.0235 5.05957 17.9746 5.01074C17.9258 4.96191 17.8623 4.9375 17.7842 4.9375H17.3594C17.291 4.9375 17.23 4.96436 17.1763 5.01807C17.1226 5.07178 17.0957 5.1377 17.0957 5.21582V6.18262H16.1143V5.21582C16.1143 5.1377 16.0874 5.07178 16.0337 5.01807C15.98 4.96436 15.919 4.9375 15.8506 4.9375H15.4258C15.3477 4.9375 15.2818 4.96436 15.228 5.01807C15.1743 5.07178 15.1475 5.1377 15.1475 5.21582V6.18262H14.166V5.21582C14.166 5.1377 14.1416 5.07178 14.0928 5.01807C14.044 4.96436 13.9805 4.9375 13.9024 4.9375H13.4776C13.3994 4.9375 13.3335 4.96436 13.2798 5.01807C13.2261 5.07178 13.1992 5.1377 13.1992 5.21582V6.18262H11.8955C11.8174 6.18262 11.7515 6.20947 11.6978 6.26318C11.6441 6.31689 11.6172 6.38281 11.6172 6.46094V18.1943C11.6172 18.1943 11.6172 18.1968 11.6172 18.2017C11.6172 18.2065 11.6172 18.2139 11.6172 18.2236C11.6172 18.6631 11.7637 19.0464 12.0567 19.3735C12.3496 19.7007 12.7158 19.8838 13.1553 19.9228C13.1748 19.9228 13.1944 19.9253 13.2139 19.9302C13.2334 19.9351 13.2529 19.9375 13.2725 19.9375C13.5069 19.9375 13.7241 19.8936 13.9243 19.8057C14.1245 19.7178 14.3028 19.5957 14.459 19.4395C14.6055 19.5957 14.7788 19.7153 14.979 19.7983C15.1792 19.8813 15.3965 19.9228 15.6309 19.9228C15.8555 19.9228 16.0703 19.8813 16.2754 19.7983C16.4805 19.7153 16.6563 19.5957 16.8028 19.4395C16.9492 19.5957 17.125 19.7178 17.3301 19.8057C17.5352 19.8936 17.75 19.9375 17.9746 19.9375C18.0039 19.9375 18.0283 19.9351 18.0479 19.9302C18.0674 19.9253 18.0869 19.9228 18.1065 19.9228C18.5362 19.8838 18.8975 19.7007 19.1905 19.3735C19.4834 19.0464 19.6299 18.6631 19.6299 18.2236C19.6299 18.2139 19.6299 18.2065 19.6299 18.2017C19.6299 18.1968 19.6299 18.1943 19.6299 18.1943V6.44629C19.6299 6.36816 19.6055 6.30224 19.5567 6.24853C19.5078 6.19482 19.4444 6.16797 19.3662 6.16797L19.3662 6.16797ZM18.6631 18.2383C18.6631 18.2383 18.6631 18.2407 18.6631 18.2456C18.6631 18.2505 18.6631 18.2529 18.6631 18.2529C18.6631 18.4287 18.6094 18.5801 18.502 18.707C18.3945 18.834 18.2627 18.917 18.1065 18.956C18.0869 18.956 18.0674 18.9585 18.0479 18.9634C18.0283 18.9682 18.0088 18.9707 17.9893 18.9707C17.794 18.9707 17.6279 18.9023 17.4912 18.7656C17.3545 18.6289 17.2861 18.4629 17.2861 18.2676V18.0625C17.2861 17.9844 17.2593 17.9184 17.2056 17.8647C17.1519 17.811 17.0908 17.7842 17.0225 17.7842H16.5977C16.5195 17.7842 16.4536 17.811 16.3999 17.8647C16.3462 17.9184 16.3194 17.9844 16.3194 18.0625V18.2383C16.3194 18.2383 16.3194 18.2407 16.3194 18.2456C16.3194 18.2505 16.3194 18.2529 16.3194 18.2529C16.3194 18.4287 16.2656 18.5825 16.1582 18.7143C16.0508 18.8462 15.9141 18.9267 15.7481 18.956C15.7285 18.9658 15.709 18.9707 15.6895 18.9707C15.6699 18.9707 15.6504 18.9707 15.6309 18.9707C15.4356 18.9707 15.272 18.9023 15.1402 18.7656C15.0083 18.6289 14.9424 18.4678 14.9424 18.2822V18.0625C14.9424 17.9844 14.9131 17.9184 14.8545 17.8647C14.7959 17.811 14.7324 17.7842 14.6641 17.7842H14.2393C14.1611 17.7842 14.0952 17.811 14.0415 17.8647C13.9878 17.9184 13.961 17.9844 13.961 18.0625V18.2383C13.961 18.2383 13.961 18.2407 13.961 18.2456C13.961 18.2505 13.961 18.2529 13.961 18.2529C13.961 18.4287 13.9072 18.5825 13.7998 18.7143C13.6924 18.8462 13.5557 18.9267 13.3897 18.956C13.3701 18.9658 13.3506 18.9707 13.3311 18.9707C13.3115 18.9707 13.292 18.9707 13.2725 18.9707C13.0772 18.9707 12.9136 18.9023 12.7818 18.7656C12.6499 18.6289 12.584 18.4678 12.584 18.2822V7.13476H18.6485L18.6631 18.2383ZM16.5977 16.8174H17.0225C17.0908 16.8174 17.1519 16.7905 17.2056 16.7368C17.2593 16.6831 17.2861 16.6172 17.2861 16.539V13.624C17.2861 13.5459 17.2593 13.48 17.2056 13.4263C17.1519 13.3725 17.0908 13.3457 17.0225 13.3457H16.5977C16.5195 13.3457 16.4536 13.3725 16.3999 13.4263C16.3462 13.48 16.3194 13.5459 16.3194 13.624V16.539C16.3194 16.6172 16.3462 16.6831 16.3999 16.7368C16.4536 16.7905 16.5195 16.8174 16.5977 16.8174ZM4.27832 12.1445H4.70313C4.78125 12.1445 4.84473 12.1177 4.89355 12.064C4.94238 12.0102 4.9668 11.9443 4.9668 11.8662V11.4414C4.9668 11.3633 4.93994 11.2973 4.88623 11.2436C4.83252 11.1899 4.7666 11.1631 4.68848 11.1631H4.27832C4.2002 11.1631 4.13428 11.1899 4.08057 11.2436C4.02686 11.2973 4 11.3633 4 11.4414V11.8662C4 11.9443 4.02686 12.0102 4.08057 12.064C4.13428 12.1177 4.2002 12.1445 4.27832 12.1445ZM4.27832 14.0928H4.70313C4.77148 14.0928 4.83252 14.0659 4.88623 14.0122C4.93994 13.9585 4.9668 13.8926 4.9668 13.8144V13.3896C4.9668 13.3115 4.93994 13.2456 4.88623 13.1919C4.83252 13.1382 4.7666 13.1113 4.68848 13.1113H4.27832C4.2002 13.1113 4.13428 13.1382 4.08057 13.1919C4.02686 13.2456 4 13.3115 4 13.3896V13.8144C4 13.8926 4.02686 13.9585 4.08057 14.0122C4.13428 14.0659 4.2002 14.0928 4.27832 14.0928ZM4.27832 16.0264H4.70313C4.77148 16.0264 4.83252 16.0019 4.88623 15.9531C4.93994 15.9043 4.9668 15.8408 4.9668 15.7627V15.3379C4.9668 15.2598 4.93994 15.1938 4.88623 15.1401C4.83252 15.0864 4.7666 15.0596 4.68848 15.0596H4.27832C4.2002 15.0596 4.13428 15.0864 4.08057 15.1401C4.02686 15.1938 4 15.2598 4 15.3379V15.7627C4 15.8408 4.02686 15.9067 4.08057 15.9604C4.13428 16.0141 4.2002 16.041 4.27832 16.041V16.0264ZM4.27832 17.9746H4.70313C4.77148 17.9746 4.83252 17.9502 4.88623 17.9013C4.93994 17.8525 4.9668 17.789 4.9668 17.7109V17.2861C4.9668 17.208 4.93994 17.1421 4.88623 17.0884C4.83252 17.0346 4.7666 17.0078 4.68848 17.0078H4.27832C4.2002 17.0078 4.13428 17.0346 4.08057 17.0884C4.02686 17.1421 4 17.208 4 17.2861V17.7109C4 17.789 4.02686 17.855 4.08057 17.9087C4.13428 17.9624 4.2002 17.9892 4.27832 17.9892V17.9746ZM8.61426 6.88574C8.15528 6.88574 7.76465 7.04688 7.44239 7.36914C7.12012 7.69141 6.95899 8.08203 6.95899 8.54102V9.21485H4.27832C4.2002 9.21485 4.13428 9.2417 4.08057 9.29541C4.02686 9.34912 4 9.41504 4 9.49317V9.91797C4 9.9961 4.02686 10.062 4.08057 10.1157C4.13428 10.1694 4.2002 10.1963 4.27832 10.1963H6.95899V18.2822C6.95899 18.3994 6.97119 18.5166 6.99561 18.6338C7.02002 18.751 7.05664 18.8633 7.10547 18.9707L4.27832 18.9561C4.2002 18.9561 4.13428 18.9829 4.08057 19.0366C4.02686 19.0903 4 19.1563 4 19.2344V19.6592C4 19.7373 4.02686 19.8032 4.08057 19.8569C4.13428 19.9107 4.2002 19.9375 4.27832 19.9375H8.61426C9.06348 19.9375 9.44922 19.7764 9.77149 19.4541C10.0938 19.1319 10.2598 18.7412 10.2695 18.2822V8.55569C10.2695 8.55569 10.2695 8.55325 10.2695 8.54837C10.2695 8.54348 10.2695 8.54104 10.2695 8.54104C10.2695 8.08206 10.106 7.69143 9.77881 7.36917C9.45166 7.0469 9.06348 6.88574 8.61426 6.88574ZM9.28809 18.2822C9.28809 18.4678 9.22217 18.624 9.09034 18.751C8.9585 18.8779 8.79981 18.9414 8.61426 18.9414C8.41895 18.9414 8.25538 18.8755 8.12354 18.7437C7.9917 18.6118 7.92579 18.4483 7.92579 18.2529C7.92579 18.0674 7.9917 17.9087 8.12354 17.7769C8.25538 17.645 8.41895 17.5791 8.61426 17.5791C8.79981 17.5791 8.9585 17.645 9.09034 17.7769C9.22217 17.9087 9.28809 18.0674 9.28809 18.2529V18.2822ZM9.28809 16.7735C9.19043 16.7246 9.08301 16.688 8.96583 16.6636C8.84864 16.6392 8.73145 16.627 8.61426 16.627C8.48731 16.627 8.36524 16.6392 8.24805 16.6636C8.13086 16.688 8.01856 16.7295 7.91114 16.7881L7.92579 8.54105C7.92579 8.3555 7.9917 8.19437 8.12354 8.05765C8.25538 7.92093 8.41895 7.85257 8.61426 7.85257C8.79981 7.85257 8.9585 7.92093 9.09034 8.05765C9.22217 8.19437 9.28809 8.3555 9.28809 8.54105V16.7735Z" fill="#CB4B00"/>
</svg>
