<svg width="24" height="24" viewBox="0 0 24 24" fill="none" xmlns="http://www.w3.org/2000/svg">
<path fill-rule="evenodd" clip-rule="evenodd" d="M21.652 20.1758H21.3956C20.0769 20.1758 18.917 20.1086 17.9157 19.9743C16.9145 19.84 16.0171 19.6629 15.2234 19.4432C14.4298 19.2234 13.7155 18.9792 13.0806 18.7106C12.4457 18.4297 11.8291 18.1489 11.2308 17.8681C10.6203 17.5384 9.99145 17.2392 9.34432 16.9706C8.68498 16.7142 8.00428 16.4975 7.3022 16.3204C6.60012 16.1434 5.88278 16.006 5.15019 15.9084C4.41759 15.8107 3.67278 15.7618 2.91575 15.7618C2.85471 15.7618 2.79976 15.7618 2.75092 15.7618C2.70208 15.7618 2.64713 15.7618 2.58608 15.7618H2.34799C2.25031 15.7618 2.16789 15.7954 2.10074 15.8626C2.03358 15.9297 2 16.0121 2 16.1098V16.6043C2 16.702 2.03358 16.7844 2.10074 16.8516C2.16789 16.9187 2.25031 16.9523 2.34799 16.9523H2.6044C2.64103 16.9523 2.68071 16.9523 2.72345 16.9523C2.76618 16.9523 2.81197 16.9523 2.86081 16.9523C3.5812 16.9523 4.28938 17.0011 4.98535 17.0988C5.68132 17.1843 6.35897 17.3125 7.01832 17.4834C7.67766 17.6544 8.32478 17.8681 8.95971 18.1245C9.59463 18.3687 10.2051 18.6556 10.7912 18.9853C11.4017 19.2783 12.0366 19.5652 12.696 19.8461C13.3553 20.1391 14.0971 20.3986 14.9212 20.6245C15.7454 20.8503 16.6825 21.0304 17.7326 21.1648C18.7827 21.2991 20.0037 21.3662 21.3956 21.3662H21.652C21.7497 21.3662 21.8321 21.3326 21.8993 21.2655C21.9664 21.1983 22 21.1159 22 21.0182V20.5054C21.9878 20.4077 21.9512 20.3284 21.8901 20.2673C21.8291 20.2063 21.7497 20.1757 21.652 20.1757L21.652 20.1758ZM21.1209 9.8278H21.652C21.7497 9.8278 21.8321 9.79422 21.8993 9.72707C21.9664 9.65991 22 9.57749 22 9.47981V7.37359C22 7.27591 21.9664 7.19349 21.8993 7.12634C21.8321 7.05918 21.7497 7.0256 21.652 7.0256H21.3956C21.3223 7.0256 21.246 7.02866 21.1667 7.03476C21.0873 7.04087 21.0049 7.04392 20.9194 7.04392C20.138 7.04392 19.3626 6.99508 18.5934 6.8974C17.8242 6.79972 17.0733 6.65625 16.3406 6.467C15.608 6.27774 14.8938 6.0488 14.1978 5.78018C13.5018 5.49935 12.8303 5.188 12.1831 4.84612C11.536 4.49203 10.8584 4.18068 10.1502 3.91205C9.442 3.64343 8.7033 3.41144 7.93406 3.21609C7.16483 3.02073 6.37729 2.87421 5.57143 2.77652C4.76557 2.67884 3.94139 2.63 3.0989 2.63C3.01343 2.63 2.92796 2.63 2.84249 2.63C2.75702 2.63 2.67155 2.63 2.58608 2.63H2.34799C2.25031 2.63 2.16789 2.66358 2.10073 2.73074C2.03358 2.79789 2 2.88031 2 2.97799V13.8754C2 13.9731 2.03358 14.0555 2.10073 14.1226C2.16789 14.1898 2.25031 14.2234 2.34799 14.2234H2.6044C2.67766 14.2234 2.75397 14.2234 2.83333 14.2234C2.9127 14.2234 2.99512 14.2234 3.08059 14.2234C3.87424 14.2234 4.65568 14.2722 5.42491 14.3699C6.18193 14.4676 6.92673 14.611 7.65934 14.8003C8.39194 14.9896 9.10622 15.2185 9.8022 15.4871C10.4982 15.7557 11.1697 16.0671 11.8169 16.4212C12.464 16.7631 13.1416 17.0683 13.8498 17.3369C14.558 17.6178 15.2967 17.8528 16.0659 18.0421C16.8352 18.2313 17.6227 18.3748 18.4286 18.4725C19.2344 18.5823 20.0586 18.6373 20.9011 18.6373C20.9866 18.6373 21.069 18.6342 21.1483 18.6281C21.2277 18.622 21.3101 18.619 21.3956 18.619H21.6337C21.7314 18.619 21.8138 18.5854 21.8809 18.5182C21.9481 18.4511 21.9817 18.3687 21.9817 18.271V11.4212C21.9817 11.3235 21.9481 11.2411 21.8809 11.1739C21.8138 11.1068 21.7314 11.0732 21.6337 11.0732H21.1026C21.0049 11.0732 20.9225 11.1068 20.8553 11.1739C20.7882 11.2411 20.7546 11.3235 20.7546 11.4212V17.4102C19.9853 17.398 19.2222 17.3431 18.4652 17.2454C17.7082 17.1477 16.9695 17.0073 16.2491 16.8241C15.5287 16.641 14.8266 16.4151 14.1429 16.1465C13.4591 15.8779 12.7937 15.5665 12.1465 15.2124C11.475 14.8583 10.7271 14.5317 9.90293 14.2326C9.07876 13.9334 8.22711 13.6801 7.34799 13.4725L7.20147 4.33332C8.05617 4.54089 8.86814 4.78815 9.63737 5.07508C10.4066 5.36201 11.1392 5.68863 11.8352 6.05493C12.4701 6.3846 13.1355 6.68374 13.8315 6.95237C14.5275 7.22099 15.2509 7.44992 16.0018 7.63918C16.7527 7.82843 17.525 7.978 18.3187 8.0879C19.1245 8.18558 19.9365 8.23442 20.7546 8.23442L20.7729 9.51647C20.7729 9.61415 20.8065 9.69656 20.8736 9.76372C20.9408 9.83087 21.0232 9.86445 21.1209 9.86445L21.1209 9.8278ZM5.99268 13.2344C5.58975 13.1733 5.15325 13.1245 4.68316 13.0879C4.21307 13.0512 3.73383 13.0268 3.24543 13.0146L3.2088 3.83881C3.70941 3.85102 4.20086 3.8785 4.68316 3.92123C5.16546 3.96397 5.6447 4.01586 6.12089 4.07691L5.99268 13.2344ZM18.3553 11.1465C18.2698 10.7436 18.0653 10.4078 17.7418 10.1392C17.4182 9.87054 17.0488 9.73623 16.6337 9.73623C16.6215 9.73623 16.6123 9.73623 16.6062 9.73623C16.6001 9.73623 16.5971 9.73623 16.5971 9.73623H14.9121C14.8144 9.73623 14.732 9.7698 14.6648 9.83696C14.5977 9.90411 14.5641 9.98653 14.5641 10.0842V14.3882C14.5641 14.4859 14.5977 14.5683 14.6648 14.6355C14.732 14.7026 14.8144 14.7362 14.9121 14.7362H15.4432C15.5409 14.7362 15.6233 14.7026 15.6905 14.6355C15.7576 14.5683 15.7912 14.4859 15.7912 14.3882V13.2161L16.7802 14.5897C16.8169 14.6263 16.8596 14.6599 16.9084 14.6904C16.9573 14.721 17.0061 14.7362 17.055 14.7362C17.055 14.7362 17.058 14.7362 17.0641 14.7362C17.0702 14.7362 17.0733 14.7362 17.0733 14.7362H17.7143C17.7998 14.724 17.8761 14.6843 17.9432 14.6172C18.0104 14.55 18.044 14.4737 18.044 14.3882C18.044 14.3516 18.0409 14.315 18.0348 14.2784C18.0287 14.2417 18.0134 14.2112 17.989 14.1868L17.2015 13.0696C17.5434 12.9597 17.8242 12.7552 18.044 12.456C18.2637 12.1569 18.3736 11.818 18.3736 11.4395C18.3736 11.3907 18.3736 11.3388 18.3736 11.2838C18.3736 11.2289 18.3675 11.177 18.3553 11.1282V11.1465ZM16.652 11.934H15.7912V10.945H16.652C16.7863 10.9572 16.8962 11.0122 16.9817 11.1099C17.0672 11.2075 17.1099 11.3174 17.1099 11.4395C17.1099 11.5738 17.0672 11.6898 16.9817 11.7875C16.8962 11.8852 16.7863 11.9401 16.652 11.9523V11.934ZM10.5714 7.92304H10.022C9.92431 7.92304 9.84189 7.95662 9.77474 8.02378C9.70758 8.09093 9.67401 8.17335 9.67401 8.27103V12.5751C9.67401 12.6727 9.70758 12.7552 9.77474 12.8223C9.84189 12.8895 9.92431 12.923 10.022 12.923H10.5531C10.6508 12.923 10.7332 12.8895 10.8004 12.8223C10.8675 12.7552 10.9011 12.6727 10.9011 12.5751V10.8718L12.2931 12.7948C12.3297 12.8315 12.3724 12.865 12.4213 12.8956C12.4701 12.9261 12.5189 12.9414 12.5678 12.9414C12.5678 12.9414 12.5708 12.9414 12.5769 12.9414C12.583 12.9414 12.5861 12.9414 12.5861 12.9414H13.2271C13.3248 12.9414 13.4072 12.9047 13.4744 12.8315C13.5415 12.7582 13.5751 12.6788 13.5751 12.5934C13.5751 12.5567 13.569 12.5201 13.5568 12.4835C13.5446 12.4468 13.5263 12.4163 13.5018 12.3919L12.0916 10.4322L13.5018 8.4908C13.5263 8.45417 13.5446 8.4206 13.5568 8.39007C13.569 8.35955 13.5751 8.32597 13.5751 8.28934C13.5751 8.19166 13.5415 8.10924 13.4744 8.04209C13.4072 7.97493 13.3248 7.94135 13.2271 7.94135H12.5678C12.5067 7.94135 12.4548 7.95356 12.4121 7.97798C12.3694 8.0024 12.3297 8.03293 12.293 8.06956L10.9011 10.011V8.27103C10.9011 8.18556 10.8675 8.10619 10.8004 8.03293C10.7332 7.95967 10.6508 7.92304 10.5531 7.92304H10.5714Z" fill="#CB4B00"/>
</svg>
