<svg width="24" height="24" viewBox="0 0 24 24" fill="none" xmlns="http://www.w3.org/2000/svg">
<path fill-rule="evenodd" clip-rule="evenodd" d="M21.652 20.1758H21.3956C20.0769 20.1758 18.917 20.1086 17.9157 19.9743C16.9145 19.84 16.0171 19.6629 15.2234 19.4432C14.4298 19.2234 13.7155 18.9792 13.0806 18.7106C12.4457 18.4297 11.8291 18.1489 11.2308 17.8681C10.6203 17.5384 9.99145 17.2392 9.34432 16.9706C8.68498 16.7142 8.00428 16.4975 7.3022 16.3204C6.60012 16.1434 5.88278 16.006 5.15019 15.9084C4.41759 15.8107 3.67278 15.7618 2.91575 15.7618C2.85471 15.7618 2.79976 15.7618 2.75092 15.7618C2.70208 15.7618 2.64713 15.7618 2.58608 15.7618H2.34799C2.25031 15.7618 2.16789 15.7954 2.10074 15.8626C2.03358 15.9297 2 16.0121 2 16.1098V16.6043C2 16.702 2.03358 16.7844 2.10074 16.8516C2.16789 16.9187 2.25031 16.9523 2.34799 16.9523H2.6044C2.64103 16.9523 2.68071 16.9523 2.72345 16.9523C2.76618 16.9523 2.81197 16.9523 2.86081 16.9523C3.5812 16.9523 4.28938 17.0011 4.98535 17.0988C5.68132 17.1843 6.35897 17.3125 7.01832 17.4834C7.67766 17.6544 8.32478 17.8681 8.95971 18.1245C9.59463 18.3687 10.2051 18.6556 10.7912 18.9853C11.4017 19.2783 12.0366 19.5652 12.696 19.8461C13.3553 20.1391 14.0971 20.3986 14.9212 20.6245C15.7454 20.8503 16.6825 21.0304 17.7326 21.1648C18.7827 21.2991 20.0037 21.3662 21.3956 21.3662H21.652C21.7497 21.3662 21.8321 21.3326 21.8993 21.2655C21.9664 21.1983 22 21.1159 22 21.0182V20.5054C21.9878 20.4077 21.9512 20.3284 21.8901 20.2673C21.8291 20.2063 21.7497 20.1757 21.652 20.1757L21.652 20.1758ZM21.1209 9.8278H21.652C21.7497 9.8278 21.8321 9.79422 21.8993 9.72707C21.9664 9.65991 22 9.57749 22 9.47981V7.37359C22 7.27591 21.9664 7.19349 21.8993 7.12634C21.8321 7.05918 21.7497 7.0256 21.652 7.0256H21.3956C21.3223 7.0256 21.246 7.02866 21.1667 7.03476C21.0873 7.04087 21.0049 7.04392 20.9194 7.04392C20.138 7.04392 19.3626 6.99508 18.5934 6.8974C17.8242 6.79972 17.0733 6.65625 16.3406 6.46699C15.608 6.27774 14.8938 6.0488 14.1978 5.78018C13.5018 5.49935 12.8303 5.188 12.1831 4.84612C11.536 4.49203 10.8584 4.18068 10.1502 3.91205C9.442 3.64343 8.7033 3.41144 7.93406 3.21609C7.16483 3.02073 6.37729 2.8742 5.57143 2.77652C4.76557 2.67884 3.94139 2.63 3.0989 2.63C3.01343 2.63 2.92796 2.63 2.84249 2.63C2.75702 2.63 2.67155 2.63 2.58608 2.63H2.34799C2.25031 2.63 2.16789 2.66358 2.10073 2.73074C2.03358 2.79789 2 2.88031 2 2.97799V13.8754C2 13.9731 2.03358 14.0555 2.10073 14.1226C2.16789 14.1898 2.25031 14.2234 2.34799 14.2234H2.6044C2.67766 14.2234 2.75397 14.2234 2.83333 14.2234C2.9127 14.2234 2.99512 14.2234 3.08059 14.2234C3.87424 14.2234 4.65568 14.2722 5.42491 14.3699C6.18193 14.4676 6.92673 14.611 7.65934 14.8003C8.39194 14.9896 9.10622 15.2185 9.8022 15.4871C10.4982 15.7557 11.1697 16.0671 11.8169 16.4212C12.464 16.7631 13.1416 17.0683 13.8498 17.3369C14.558 17.6178 15.2967 17.8528 16.0659 18.0421C16.8352 18.2313 17.6227 18.3748 18.4286 18.4725C19.2344 18.5823 20.0586 18.6373 20.9011 18.6373C20.9866 18.6373 21.069 18.6342 21.1483 18.6281C21.2277 18.622 21.3101 18.619 21.3956 18.619H21.6337C21.7314 18.619 21.8138 18.5854 21.8809 18.5182C21.9481 18.4511 21.9817 18.3687 21.9817 18.271V11.4212C21.9817 11.3235 21.9481 11.2411 21.8809 11.1739C21.8138 11.1068 21.7314 11.0732 21.6337 11.0732H21.1026C21.0049 11.0732 20.9225 11.1068 20.8553 11.1739C20.7882 11.2411 20.7546 11.3235 20.7546 11.4212V17.4102C19.9853 17.398 19.2222 17.3431 18.4652 17.2454C17.7082 17.1477 16.9695 17.0073 16.2491 16.8241C15.5287 16.641 14.8266 16.4151 14.1429 16.1465C13.4591 15.8779 12.7937 15.5665 12.1465 15.2124C11.475 14.8583 10.7271 14.5317 9.90293 14.2326C9.07876 13.9334 8.22711 13.6801 7.34799 13.4725L7.20147 4.33332C8.05617 4.54089 8.86814 4.78814 9.63737 5.07508C10.4066 5.36201 11.1392 5.68863 11.8352 6.05493C12.4701 6.3846 13.1355 6.68374 13.8315 6.95237C14.5275 7.22099 15.2509 7.44992 16.0018 7.63918C16.7527 7.82843 17.525 7.978 18.3187 8.08789C19.1245 8.18558 19.9365 8.23441 20.7546 8.23441L20.7729 9.51646C20.7729 9.61414 20.8065 9.69656 20.8736 9.76372C20.9408 9.83087 21.0232 9.86445 21.1209 9.86445L21.1209 9.8278ZM5.99268 13.2344C5.58975 13.1733 5.15325 13.1245 4.68316 13.0879C4.21307 13.0512 3.73383 13.0268 3.24543 13.0146L3.2088 3.83881C3.70941 3.85102 4.20086 3.8785 4.68316 3.92123C5.16546 3.96397 5.6447 4.01586 6.12089 4.07691L5.99268 13.2344ZM14.5458 11.6593C15.022 11.6593 15.4279 11.4914 15.7637 11.1556C16.0995 10.8199 16.2674 10.4139 16.2674 9.93769C16.2674 9.87664 16.2643 9.81559 16.2582 9.75454C16.2521 9.69349 16.243 9.63244 16.2307 9.57139C16.1331 9.19288 15.9285 8.87542 15.6172 8.61901C15.3058 8.3626 14.9426 8.23439 14.5275 8.23439C14.5275 8.23439 14.5244 8.23439 14.5183 8.23439C14.5122 8.23439 14.503 8.23439 14.4908 8.23439H12.8058C12.7082 8.23439 12.6257 8.26797 12.5586 8.33513C12.4914 8.40228 12.4579 8.4847 12.4579 8.58238V10.4505H11.7619C11.6764 10.4505 11.5971 10.4841 11.5238 10.5512C11.4505 10.6184 11.4139 10.7008 11.4139 10.7985V11.3296C11.4139 11.4151 11.4505 11.4945 11.5238 11.5677C11.5971 11.641 11.6764 11.6776 11.7619 11.6776H12.4579V12.282H11.7619C11.6764 12.282 11.5971 12.3156 11.5238 12.3827C11.4505 12.4499 11.4139 12.5323 11.4139 12.63V13.1611C11.4139 13.2466 11.4505 13.3229 11.5238 13.3901C11.5971 13.4572 11.6764 13.4908 11.7619 13.4908H12.4579V14.26C12.4579 14.3577 12.4914 14.4401 12.5586 14.5073C12.6257 14.5744 12.7082 14.608 12.8058 14.608H13.337C13.4347 14.608 13.5171 14.5744 13.5842 14.5073C13.6514 14.4401 13.685 14.3577 13.685 14.26V13.5091H14.9487C15.0464 13.5091 15.1288 13.4755 15.1959 13.4084C15.2631 13.3412 15.2967 13.2588 15.2967 13.1611V12.63C15.2967 12.5323 15.2631 12.4499 15.1959 12.3827C15.1288 12.3156 15.0464 12.282 14.9487 12.282H13.685V11.6776L14.5458 11.6593ZM13.685 9.44319H14.5458C14.558 9.44319 14.5702 9.44319 14.5824 9.44319C14.5946 9.44319 14.6007 9.44319 14.6007 9.44319C14.7472 9.44319 14.8693 9.49203 14.967 9.58971C15.0647 9.68739 15.1135 9.80338 15.1135 9.93769C15.1135 10.0842 15.0647 10.2063 14.967 10.304C14.8693 10.4017 14.7472 10.4505 14.6007 10.4505C14.6007 10.4505 14.5946 10.4505 14.5824 10.4505C14.5702 10.4505 14.558 10.4505 14.5458 10.4505H13.685V9.44319Z" fill="#CB4B00"/>
</svg>
