<svg width="24" height="24" viewBox="0 0 24 24" fill="none" xmlns="http://www.w3.org/2000/svg">
<path fill-rule="evenodd" clip-rule="evenodd" d="M12 2.85999C12.3228 2.85999 12.5896 3.09985 12.6318 3.41106L12.6376 3.49758L12.6373 5.6433L13.1717 4.8439C13.3494 4.57763 13.6928 4.48815 13.9738 4.62094L14.056 4.66749C14.3223 4.8452 14.4117 5.18854 14.2789 5.46956L14.2324 5.55176L12.6373 7.94118V10.8937L15.1953 9.417L16.4671 6.84197C16.61 6.55255 16.9432 6.41957 17.2409 6.51951L17.3211 6.5526C17.6105 6.69553 17.7435 7.02872 17.6436 7.32645L17.6105 7.4066L17.1837 8.26848L19.0435 7.19603C19.323 7.03464 19.674 7.10899 19.8662 7.35739L19.9145 7.42941C20.0759 7.70895 20.0015 8.05991 19.7531 8.25208L19.6811 8.30038L17.8213 9.37364L18.7822 9.43609C19.1043 9.45702 19.3549 9.71368 19.3769 10.027L19.3771 10.1137C19.3562 10.4358 19.0995 10.6864 18.7862 10.7084L18.6995 10.7086L15.832 10.5222L13.2749 11.9988L15.832 13.4746L18.6995 13.289C19.0216 13.2681 19.3034 13.4901 19.3657 13.7979L19.3771 13.8839C19.398 14.206 19.176 14.4878 18.8681 14.5501L18.7822 14.5615L17.8213 14.6232L19.6811 15.6973C19.9606 15.8587 20.0717 16.1998 19.9527 16.4904L19.9145 16.5683C19.7531 16.8478 19.412 16.9589 19.1213 16.8398L19.0435 16.8016L17.1837 15.7283L17.6105 16.591C17.7534 16.8804 17.6564 17.2258 17.3961 17.4015L17.3211 17.445C17.0317 17.5879 16.6863 17.491 16.5106 17.2306L16.4671 17.1556L15.1953 14.5798L12.6373 13.1031V16.059L14.2322 18.4456C14.4101 18.7118 14.3611 19.0632 14.1308 19.2719L14.0563 19.33C13.7901 19.5078 13.4386 19.4589 13.23 19.2285L13.1719 19.154L12.6373 18.3544L12.6376 20.5001C12.6376 20.8229 12.3977 21.0896 12.0865 21.1319L12 21.1377C11.6772 21.1377 11.4104 20.8978 11.3682 20.5866L11.3624 20.5001L11.3621 18.3527L10.8285 19.1535C10.6509 19.4199 10.3076 19.5095 10.0265 19.3769L9.94427 19.3303C9.67791 19.1528 9.58826 18.8095 9.72092 18.5284L9.76743 18.4462L11.3621 16.0531V13.1031L8.80151 14.5815L7.53304 17.1554C7.39026 17.4449 7.05713 17.578 6.75935 17.4782L6.67918 17.4452C6.38969 17.3024 6.25655 16.9693 6.35635 16.6715L6.3894 16.5913L6.81476 15.7283L4.9565 16.8016C4.67695 16.963 4.326 16.8887 4.13383 16.6403L4.08553 16.5683C3.92413 16.2887 3.99848 15.9378 4.24689 15.7456L4.3189 15.6973L6.17802 14.6232L5.21812 14.5616C4.89601 14.5408 4.64523 14.2843 4.62313 13.971L4.62289 13.8843C4.64366 13.5622 4.9002 13.3114 5.21348 13.2893L5.3002 13.2891L8.16986 13.4738L10.7253 11.998L8.16561 10.5205L5.30082 10.7086C4.97872 10.7297 4.69685 10.5078 4.63439 10.2L4.62293 10.1141C4.60184 9.79197 4.82376 9.5101 5.13155 9.44764L5.2175 9.43618L6.17717 9.37279L4.3189 8.30038C4.03936 8.13898 3.92827 7.79787 4.04731 7.50725L4.08553 7.42941C4.24692 7.14986 4.58804 7.03877 4.87866 7.15781L4.9565 7.19603L6.81476 8.26848L6.38967 7.40695C6.2466 7.1176 6.34339 6.77216 6.60364 6.59637L6.67862 6.55281C6.96797 6.40974 7.31342 6.50652 7.4892 6.76678L7.53276 6.84176L8.80661 9.4187L11.3621 10.8937V7.94118L9.7676 5.55176C9.5899 5.28549 9.63902 4.9341 9.86947 4.72555L9.94401 4.66749C10.2103 4.48979 10.5617 4.53891 10.7702 4.76936L10.8283 4.8439L11.3621 5.6433L11.3624 3.49758C11.3624 3.20413 11.5606 2.95699 11.8305 2.88276L11.9135 2.86581L12 2.85999Z" fill="#CB4B00"/>
</svg>
