<svg width="24" height="24" viewBox="0 0 24 24" fill="none" xmlns="http://www.w3.org/2000/svg">
<path fill-rule="evenodd" clip-rule="evenodd" d="M14.9304 9.86443H15.2051C15.2906 9.86443 15.37 9.83085 15.4432 9.7637C15.5165 9.69654 15.5531 9.61412 15.5531 9.51644V8.98531C15.5531 8.88763 15.5165 8.80521 15.4432 8.73805C15.37 8.6709 15.2906 8.63732 15.2051 8.63732H14.9304C14.9182 8.63732 14.906 8.63732 14.8938 8.63732C14.8816 8.63732 14.8694 8.63732 14.8571 8.63732C14.21 8.63732 13.6514 8.86015 13.1813 9.30582C12.7112 9.75149 12.464 10.2979 12.4396 10.945H11.8169C11.7314 10.945 11.652 10.9786 11.5788 11.0457C11.5055 11.1129 11.4689 11.1953 11.4689 11.293V11.8241C11.4689 11.9218 11.5055 12.0042 11.5788 12.0714C11.652 12.1385 11.7314 12.1721 11.8169 12.1721H12.4396C12.464 12.8193 12.7112 13.3656 13.1813 13.8113C13.6514 14.257 14.21 14.4798 14.8571 14.4798C14.8694 14.4798 14.8816 14.4798 14.8938 14.4798C14.906 14.4798 14.9243 14.4798 14.9487 14.4798H15.2051C15.2906 14.4798 15.37 14.4462 15.4432 14.3791C15.5165 14.3119 15.5531 14.2295 15.5531 14.1318V13.6007C15.5531 13.503 15.5165 13.4206 15.4432 13.3534C15.37 13.2863 15.2906 13.2527 15.2051 13.2527H14.9304C14.9182 13.2527 14.906 13.2527 14.8938 13.2527C14.8816 13.2527 14.8694 13.2527 14.8571 13.2527C14.5397 13.2527 14.268 13.1489 14.0421 12.9414C13.8162 12.7338 13.685 12.4774 13.6484 12.1721L15.2051 12.1538C15.2906 12.1538 15.37 12.1202 15.4432 12.0531C15.5165 11.9859 15.5531 11.9096 15.5531 11.8241V11.293C15.5531 11.1953 15.5165 11.1129 15.4432 11.0457C15.37 10.9786 15.2906 10.945 15.2051 10.945H13.6484C13.685 10.6398 13.8193 10.3834 14.0513 10.1758C14.2833 9.96822 14.5519 9.86443 14.8571 9.86443C14.8694 9.86443 14.8816 9.86443 14.8938 9.86443C14.906 9.86443 14.9243 9.86443 14.9487 9.86443L14.9304 9.86443ZM21.1209 9.86443H21.652C21.7497 9.86443 21.8321 9.83085 21.8993 9.7637C21.9664 9.69654 22 9.61412 22 9.51644V7.37359C22 7.27591 21.9664 7.19349 21.8993 7.12634C21.8321 7.05918 21.7497 7.0256 21.652 7.0256H21.3956C21.3223 7.0256 21.246 7.02866 21.1667 7.03476C21.0873 7.04087 21.0049 7.04392 20.9194 7.04392C20.138 7.04392 19.3626 6.99508 18.5934 6.8974C17.8242 6.79972 17.0733 6.65625 16.3407 6.467C15.6081 6.27774 14.8938 6.0488 14.1978 5.78018C13.5018 5.49936 12.8303 5.188 12.1831 4.84612C11.536 4.49203 10.8584 4.18068 10.1502 3.91205C9.44201 3.64344 8.7033 3.41144 7.93407 3.21609C7.16484 3.02073 6.37729 2.87421 5.57143 2.77652C4.76557 2.67884 3.94139 2.63 3.0989 2.63C3.01343 2.63 2.92796 2.63 2.84249 2.63C2.75702 2.63 2.67155 2.63 2.58608 2.63H2.34799C2.25031 2.63 2.16789 2.66358 2.10073 2.73074C2.03358 2.79789 2 2.88031 2 2.97799V13.8754C2 13.9731 2.03358 14.0555 2.10073 14.1226C2.16789 14.1898 2.25031 14.2234 2.34799 14.2234H2.6044C2.67766 14.2234 2.75397 14.2234 2.83333 14.2234C2.9127 14.2234 2.99512 14.2234 3.08059 14.2234C3.87424 14.2234 4.65568 14.2722 5.42491 14.3699C6.18193 14.4676 6.92674 14.611 7.65934 14.8003C8.39194 14.9896 9.10623 15.2185 9.8022 15.4871C10.4982 15.7557 11.1697 16.0671 11.8169 16.4212C12.464 16.7631 13.1416 17.0683 13.8498 17.3369C14.558 17.6178 15.2967 17.8528 16.0659 18.0421C16.8352 18.2313 17.6227 18.3748 18.4286 18.4725C19.2344 18.5823 20.0586 18.6373 20.9011 18.6373C20.9866 18.6373 21.069 18.6342 21.1484 18.6281C21.2277 18.622 21.3101 18.619 21.3956 18.619H21.6337C21.7314 18.619 21.8138 18.5854 21.881 18.5182C21.9481 18.4511 21.9817 18.3687 21.9817 18.271V11.4212C21.9817 11.3235 21.9481 11.2411 21.881 11.1739C21.8138 11.1068 21.7314 11.0732 21.6337 11.0732H21.1026C21.0049 11.0732 20.9225 11.1068 20.8553 11.1739C20.7882 11.2411 20.7546 11.3235 20.7546 11.4212V17.4102C19.9854 17.398 19.2222 17.3431 18.4652 17.2454C17.7082 17.1477 16.9695 17.0073 16.2491 16.8241C15.5287 16.641 14.8266 16.4151 14.1429 16.1465C13.4591 15.8779 12.7937 15.5665 12.1465 15.2124C11.475 14.8583 10.7271 14.5317 9.90294 14.2326C9.07876 13.9334 8.22711 13.6801 7.34799 13.4725L7.20147 4.33332C8.05618 4.54089 8.86814 4.78815 9.63737 5.07508C10.4066 5.36201 11.1392 5.68863 11.8352 6.05493C12.4701 6.3846 13.1355 6.68374 13.8315 6.95237C14.5275 7.22099 15.2509 7.44992 16.0018 7.63918C16.7528 7.82843 17.525 7.978 18.3187 8.08789C19.1245 8.18558 19.9365 8.23442 20.7546 8.23442L20.7729 9.51647C20.7729 9.61414 20.8065 9.69656 20.8736 9.76372C20.9408 9.83087 21.0232 9.86443 21.1209 9.86443ZM5.99269 13.2344C5.58976 13.1733 5.15325 13.1245 4.68316 13.0879C4.21308 13.0512 3.73384 13.0268 3.24543 13.0146L3.2088 3.83881C3.70942 3.85102 4.20087 3.8785 4.68316 3.92123C5.16546 3.96397 5.6447 4.01586 6.1209 4.07691L5.99269 13.2344ZM21.652 20.1758H21.3956C20.0769 20.1758 18.917 20.1086 17.9157 19.9743C16.9145 19.84 16.0171 19.663 15.2234 19.4432C14.4298 19.2234 13.7155 18.9792 13.0806 18.7106C12.4457 18.4297 11.8291 18.1489 11.2308 17.8681C10.6203 17.5384 9.99145 17.2393 9.34432 16.9706C8.68498 16.7142 8.00427 16.4975 7.3022 16.3205C6.60012 16.1434 5.88278 16.006 5.15018 15.9084C4.41759 15.8107 3.67277 15.7618 2.91575 15.7618C2.8547 15.7618 2.79976 15.7618 2.75092 15.7618C2.70208 15.7618 2.64713 15.7618 2.58608 15.7618H2.34799C2.25031 15.7618 2.16789 15.7954 2.10073 15.8626C2.03358 15.9297 2 16.0121 2 16.1098V16.6043C2 16.702 2.03358 16.7844 2.10073 16.8516C2.16789 16.9187 2.25031 16.9523 2.34799 16.9523H2.6044C2.64103 16.9523 2.68071 16.9523 2.72344 16.9523C2.76618 16.9523 2.81197 16.9523 2.86081 16.9523C3.58119 16.9523 4.28938 17.0012 4.98535 17.0988C5.68132 17.1843 6.35897 17.3125 7.01831 17.4835C7.67766 17.6544 8.32478 17.8681 8.95971 18.1245C9.59463 18.3687 10.2051 18.6556 10.7912 18.9853C11.4017 19.2783 12.0366 19.5653 12.696 19.8461C13.3553 20.1391 14.0971 20.3986 14.9212 20.6245C15.7454 20.8504 16.6825 21.0305 17.7326 21.1648C18.7827 21.2991 20.0037 21.3662 21.3956 21.3662H21.652C21.7497 21.3662 21.8321 21.3327 21.8993 21.2655C21.9664 21.1983 22 21.1159 22 21.0182V20.5054C21.9878 20.4077 21.9512 20.3284 21.8901 20.2673C21.8291 20.2063 21.7497 20.1758 21.652 20.1758Z" fill="#CB4B00"/>
</svg>
