<svg width="24" height="24" viewBox="0 0 24 24" fill="none" xmlns="http://www.w3.org/2000/svg">
<path fill-rule="evenodd" clip-rule="evenodd" d="M20.666 3H6.95507C6.86132 3 6.78222 3.03223 6.71776 3.09668C6.65331 3.16113 6.62108 3.24023 6.62108 3.33398V3.84375C6.62108 3.9375 6.65331 4.01367 6.71776 4.07227C6.78222 4.13086 6.86132 4.16016 6.95507 4.16016H11.4199V5.8125H4.16015V4.16016H5.10937C5.20312 4.16016 5.28222 4.12793 5.34668 4.06348C5.41113 3.99902 5.44336 3.91992 5.44336 3.82617V3.33398C5.44336 3.24023 5.41113 3.16113 5.34668 3.09668C5.28222 3.03223 5.20312 3 5.10937 3H3.33398C3.24023 3 3.16113 3.03223 3.09668 3.09668C3.03223 3.16113 3 3.24023 3 3.33398V20.666C3 20.7598 3.03223 20.8389 3.09668 20.9033C3.16113 20.9678 3.24023 21 3.33398 21H17.0449C17.1387 21 17.2178 20.9678 17.2823 20.9033C17.3467 20.8389 17.3789 20.7598 17.3789 20.666V20.1562C17.3789 20.0625 17.3467 19.9834 17.2823 19.9189C17.2178 19.8545 17.1387 19.8223 17.0449 19.8223H12.5801V18.1699H19.8399V19.8047H18.8731C18.7793 19.8047 18.7002 19.8369 18.6358 19.9014C18.5713 19.9658 18.5391 20.0449 18.5391 20.1387V20.6484C18.5391 20.7422 18.5713 20.8213 18.6358 20.8857C18.7002 20.9502 18.7793 20.9824 18.8731 20.9824H20.666C20.7598 20.9824 20.8389 20.9502 20.9033 20.8857C20.9678 20.8213 21 20.7422 21 20.6484V3.33398C21 3.24023 20.9678 3.16113 20.9033 3.09668C20.8389 3.03223 20.7598 3 20.666 3ZM15.4102 4.16015H17.0098V11.4199H15.3926L15.4102 4.16015ZM12.5801 4.16015H14.2149V11.4199H12.5801V4.16015ZM4.16017 6.97266H11.4199V8.60742H4.16017V6.97266ZM4.16017 9.78516H11.4199V11.4199H4.16017V9.78516ZM5.81251 19.8398H4.16017V12.5801H5.81251V19.8398ZM8.60743 19.8398H6.97267V12.5801H8.60743V19.8398ZM11.4199 19.8398H9.78517V12.5801H11.4199V19.8398ZM19.8399 17.0098H12.5801V15.3926H19.8399V17.0098ZM19.8399 14.1973H12.5801V12.5801H19.8399V14.1973ZM18.1699 11.4199V4.16015H19.8047V11.4199H18.1699Z" fill="#CB4B00"/>
</svg>
