<svg width="24" height="24" viewBox="0 0 24 24" fill="none" xmlns="http://www.w3.org/2000/svg">
<path fill-rule="evenodd" clip-rule="evenodd" d="M15.4107 3.66145L15.5 3.2686C15.5 3.25669 15.5 3.24479 15.5 3.23288C15.5 3.22098 15.5 3.20312 15.5 3.17931C15.5 3.09598 15.4672 3.02157 15.4018 2.9561C15.3363 2.89062 15.2559 2.85788 15.1607 2.85788C15.1488 2.85788 15.1369 2.85788 15.125 2.85788C15.1131 2.85788 15.1012 2.85788 15.0893 2.85788L14.6964 2.94717C14.6607 2.95907 14.4583 3.01265 14.0893 3.10788C13.7202 3.20312 13.2768 3.35193 12.7589 3.55431C12.2411 3.75669 11.7024 4.00669 11.1428 4.30431C10.5833 4.60193 10.1012 4.95312 9.69642 5.35788C9.55356 5.48884 9.41963 5.63169 9.29463 5.78646C9.16963 5.94122 9.05356 6.10193 8.94642 6.2686C8.82737 6.10193 8.70535 5.94122 8.58035 5.78646C8.45535 5.63169 8.32142 5.48884 8.17856 5.35788C7.7738 4.95312 7.29166 4.60194 6.73213 4.30431C6.17261 4.00669 5.63689 3.75967 5.12499 3.56324C4.61309 3.36681 4.16666 3.22098 3.7857 3.12574C3.41666 3.0186 3.21428 2.96503 3.17856 2.96503L2.7857 2.85788C2.7738 2.85788 2.75892 2.85491 2.74106 2.84896C2.7232 2.843 2.70237 2.84003 2.67856 2.84003C2.59523 2.84003 2.52082 2.87276 2.45535 2.93824C2.38987 3.00372 2.35713 3.08407 2.35713 3.17931C2.35713 3.19122 2.35713 3.2061 2.35713 3.22396C2.35713 3.24181 2.35713 3.25669 2.35713 3.2686L2.44642 3.66146C2.45832 3.69717 2.51189 3.89955 2.60713 4.2686C2.70237 4.63764 2.85118 5.0811 3.05356 5.59895C3.25594 6.11681 3.50594 6.6555 3.80356 7.21503C4.10118 7.77455 4.45237 8.25669 4.85713 8.66145C5.19047 9.04241 5.5863 9.35193 6.04463 9.59003C6.50296 9.82812 6.99999 9.97098 7.5357 10.0186C7.5357 10.0186 7.53868 10.0186 7.54463 10.0186C7.55058 10.0186 7.55356 10.0186 7.55356 10.0186C7.69642 10.0186 7.83332 10.0067 7.96427 9.98288C8.09523 9.95907 8.22022 9.92336 8.33927 9.87574L8.32141 13.5186C8.21427 13.3876 8.10713 13.2626 7.99999 13.1436C7.89284 13.0245 7.7857 12.9055 7.67856 12.7864C7.13094 12.2388 6.47023 11.7567 5.69642 11.34C4.93452 10.9353 4.19939 10.596 3.49107 10.3222C2.78273 10.0484 2.16667 9.84002 1.64285 9.69717C1.13095 9.56622 0.851186 9.49479 0.803571 9.48288L0.410714 9.3936C0.398809 9.3936 0.386905 9.3936 0.374999 9.3936C0.363095 9.3936 0.35119 9.3936 0.339286 9.3936C0.244048 9.3936 0.16369 9.42633 0.0982143 9.49181C0.0327381 9.55729 0 9.63764 0 9.73288C0 9.74479 0 9.75669 0 9.7686C0 9.7805 0.00595257 9.79241 0.0178572 9.80431L0.107143 10.1972C0.107143 10.2448 0.178571 10.5245 0.321428 11.0364C0.464285 11.5484 0.669642 12.1614 0.937498 12.8757C1.20535 13.59 1.54762 14.3281 1.96428 15.09C2.36904 15.8638 2.85119 16.5305 3.41071 17.09C3.79166 17.5067 4.22619 17.8638 4.71428 18.1614C5.20237 18.4591 5.72023 18.6912 6.26785 18.8579C6.3988 18.8817 6.52678 18.9025 6.65178 18.9204C6.77678 18.9382 6.8988 18.9472 7.01785 18.9472C7.02975 18.9472 7.03868 18.9472 7.04464 18.9472C7.05059 18.9472 7.05356 18.9472 7.05356 18.9472C7.29166 18.9472 7.52083 18.9144 7.74106 18.8489C7.9613 18.7835 8.16666 18.6972 8.35713 18.59V20.8222C8.35713 20.9174 8.38987 20.9977 8.45535 21.0632C8.52082 21.1287 8.59523 21.1614 8.67856 21.1614H9.19642C9.29166 21.1614 9.37201 21.1287 9.43749 21.0632C9.50296 20.9977 9.5357 20.9174 9.5357 20.8222V9.87573C9.65475 9.92335 9.77678 9.95906 9.90177 9.98287C10.0268 10.0067 10.1607 10.0186 10.3036 10.0186C10.3036 10.0186 10.3065 10.0186 10.3125 10.0186C10.3184 10.0186 10.3214 10.0186 10.3214 10.0186C10.8571 9.97096 11.3512 9.82811 11.8036 9.59001C12.2559 9.35192 12.6488 9.0424 12.9821 8.66144C13.3869 8.25668 13.744 7.77454 14.0536 7.21501C14.3512 6.65549 14.5982 6.11977 14.7946 5.60787C14.9911 5.09597 15.1428 4.64954 15.25 4.26858C15.3452 3.89954 15.3988 3.69716 15.4107 3.66144L15.4107 3.66145ZM8.14287 8.62573C7.90477 8.86383 7.55656 8.9055 7.09823 8.75073C6.63989 8.59597 6.17858 8.28645 5.7143 7.82216C5.30954 7.34597 4.95537 6.82216 4.6518 6.25073C4.34823 5.6793 4.10716 5.07811 3.92859 4.44717C4.58335 4.60193 5.19645 4.83109 5.76787 5.13466C6.3393 5.43824 6.86906 5.79836 7.35716 6.21502C7.88097 6.73883 8.19347 7.22097 8.29466 7.66145C8.39585 8.10192 8.34525 8.42335 8.14287 8.62573L8.14287 8.62573ZM7.98215 17.3757C7.8512 17.4948 7.70239 17.5871 7.53573 17.6525C7.36906 17.718 7.18454 17.7507 6.98216 17.7507C6.91073 17.7507 6.8393 17.7448 6.76787 17.7329C6.69644 17.721 6.62501 17.7091 6.55359 17.6972C6.1012 17.5662 5.67858 17.3787 5.28573 17.1347C4.89287 16.8906 4.54763 16.596 4.25001 16.2507C3.90478 15.9055 3.58335 15.4948 3.28573 15.0186C3.00002 14.5543 2.74406 14.0752 2.51787 13.5811C2.29168 13.0871 2.09525 12.6019 1.92859 12.1257C1.76192 11.6615 1.62502 11.2507 1.51787 10.8936C1.86311 11.0007 2.27382 11.1377 2.75002 11.3043C3.2143 11.471 3.69347 11.6674 4.18752 11.8936C4.68156 12.1198 5.16668 12.3757 5.64287 12.6615C6.10715 12.9591 6.51787 13.2805 6.87501 13.6257C7.19644 13.9353 7.47918 14.2835 7.72323 14.6704C7.96727 15.0573 8.15477 15.471 8.28573 15.9115C8.30954 15.9948 8.32739 16.0752 8.3393 16.1525C8.3512 16.2299 8.35715 16.3043 8.35715 16.3757C8.35715 16.5662 8.32442 16.7478 8.25894 16.9204C8.19347 17.093 8.1012 17.2448 7.98215 17.3757ZM9.76787 8.62573C9.69644 8.5543 9.64287 8.468 9.60715 8.36681C9.57144 8.26561 9.55358 8.1555 9.55358 8.03645C9.55358 7.98883 9.55656 7.94121 9.56251 7.89359C9.56846 7.84597 9.57739 7.79835 9.5893 7.75074C9.68454 7.44121 9.81251 7.15847 9.97323 6.90252C10.1339 6.64657 10.3274 6.41145 10.5536 6.19716C11.0417 5.7924 11.5685 5.43823 12.1339 5.13467C12.6994 4.8311 13.2976 4.59003 13.9286 4.41146C13.7738 5.06622 13.5447 5.67931 13.2411 6.25074C12.9375 6.82217 12.5833 7.35193 12.1786 7.84002C11.6905 8.30431 11.2202 8.61086 10.7679 8.75967C10.3155 8.90848 9.97026 8.86383 9.73216 8.62574L9.76787 8.62573ZM23.0179 5.12574C22.875 5.0424 22.7173 4.9799 22.5446 4.93824C22.372 4.89657 22.1964 4.87574 22.0179 4.87574C21.6726 4.87574 21.3512 4.95312 21.0536 5.10788C20.756 5.26264 20.5119 5.47693 20.3214 5.75074L20.0536 6.05431C20.0417 6.09002 20.0298 6.12276 20.0179 6.15252C20.006 6.18228 20 6.21502 20 6.25074C20 6.31026 20.0119 6.36383 20.0357 6.41145C20.0595 6.45907 20.0953 6.49478 20.1429 6.51859L20.5536 6.82216C20.5774 6.84597 20.6072 6.86383 20.6429 6.87574C20.6786 6.88764 20.7143 6.89359 20.75 6.89359C20.7976 6.89359 20.8452 6.88169 20.8929 6.85788C20.9405 6.83407 20.9822 6.79835 21.0179 6.75074L21.2857 6.39359C21.3691 6.28645 21.4702 6.19717 21.5893 6.12574C21.7083 6.05431 21.8452 6.01859 22 6.01859C22.0714 6.01859 22.1399 6.02752 22.2054 6.04538C22.2708 6.06324 22.3333 6.09002 22.3929 6.12574C22.5119 6.18526 22.6131 6.2805 22.6964 6.41145C22.7798 6.5424 22.8214 6.68526 22.8214 6.84002C22.8214 6.93526 22.8066 7.02455 22.7768 7.10788C22.747 7.19121 22.7024 7.26859 22.6429 7.34002L18.3393 13.2864C18.3155 13.3103 18.3006 13.34 18.2947 13.3757C18.2887 13.4114 18.2857 13.4472 18.2857 13.4829C18.2857 13.5424 18.2976 13.596 18.3214 13.6436C18.3453 13.6912 18.375 13.7269 18.4107 13.7507L19.8393 14.7864C19.5417 15.1912 19.2322 15.5781 18.9107 15.9472C18.5893 16.3162 18.256 16.6763 17.9107 17.0275C17.5655 17.3787 17.2084 17.7091 16.8393 18.0186C16.4822 18.34 16.1072 18.6436 15.7143 18.9293C15.0119 19.4174 14.3929 19.7329 13.8572 19.8757C13.3214 20.0186 12.9048 19.9829 12.6072 19.7686C12.2738 19.5186 12.1072 19.1019 12.1072 18.5186C12.1072 17.9233 12.2322 17.2358 12.4822 16.4561C12.7322 15.6763 13.0893 14.846 13.5536 13.965C14.0179 13.0722 14.5417 12.2031 15.125 11.3579L16.5179 12.3936C16.5417 12.4174 16.5714 12.4323 16.6072 12.4382C16.6429 12.4442 16.6786 12.4472 16.7143 12.4472C16.7738 12.4472 16.8274 12.4353 16.875 12.4115C16.9226 12.3876 16.9583 12.3579 16.9822 12.3222L19.9464 8.25074C19.9583 8.22693 19.9702 8.19717 19.9822 8.16145C19.9941 8.12574 20 8.09003 20 8.05431C20 7.99479 19.9881 7.94419 19.9643 7.90253C19.9405 7.86086 19.9048 7.82217 19.8572 7.78646L19.4643 7.48288C19.4405 7.47098 19.4137 7.45907 19.3839 7.44717C19.3542 7.43527 19.3214 7.42931 19.2857 7.42931C19.2262 7.42931 19.1726 7.44122 19.125 7.46503C19.0774 7.48884 19.0357 7.52455 19 7.57217L16.5179 10.9472L15.1072 9.91145C15.0714 9.88764 15.0387 9.86979 15.0089 9.85788C14.9792 9.84598 14.9464 9.84002 14.9107 9.84002C14.8512 9.84002 14.7976 9.8549 14.75 9.88467C14.7024 9.91443 14.6667 9.94717 14.6429 9.98288L14.4822 10.1972C13.7679 11.1734 13.125 12.1912 12.5536 13.2507C11.9822 14.3222 11.5536 15.343 11.2679 16.3132C10.9822 17.2835 10.875 18.1555 10.9464 18.9293C11.0179 19.715 11.3334 20.3162 11.8929 20.7329C12.0833 20.8638 12.2887 20.965 12.5089 21.0364C12.7292 21.1079 12.9643 21.1436 13.2143 21.1436C13.2143 21.1436 13.2203 21.1436 13.2322 21.1436C13.2441 21.1436 13.256 21.1436 13.2679 21.1436C13.8393 21.1079 14.3869 20.9858 14.9107 20.7775C15.4345 20.5692 15.9048 20.2983 16.3214 19.965C16.7857 19.6198 17.2321 19.2567 17.6607 18.8757C18.1012 18.5067 18.5179 18.1168 18.9107 17.7061C19.3036 17.2954 19.6845 16.8757 20.0536 16.4471C20.4107 16.0186 20.75 15.5721 21.0714 15.1079L21.2679 14.8221C21.2917 14.7983 21.3095 14.7716 21.3214 14.7418C21.3333 14.712 21.3393 14.6793 21.3393 14.6436C21.3393 14.5841 21.3244 14.5305 21.2946 14.4829C21.2649 14.4352 21.2321 14.3936 21.1964 14.3579L19.7857 13.3043L23.6071 8.03644C23.7262 7.88168 23.8214 7.70311 23.8929 7.50073C23.9643 7.29835 24 7.08406 24 6.85787C24 6.48882 23.9107 6.15251 23.7321 5.84894C23.5536 5.54537 23.3155 5.3043 23.0179 5.12573L23.0179 5.12574ZM16.5178 13.9828C16.494 13.959 16.4643 13.9412 16.4286 13.9293C16.3928 13.9174 16.3571 13.9114 16.3214 13.9114C16.2738 13.9114 16.2262 13.9233 16.1786 13.9471C16.1309 13.9709 16.0893 14.0066 16.0536 14.0543L14.2857 16.5186C14.2619 16.5424 14.247 16.5691 14.2411 16.5989C14.2351 16.6287 14.2321 16.6614 14.2321 16.6971C14.2321 16.7566 14.244 16.8102 14.2679 16.8578C14.2917 16.9055 14.3214 16.9471 14.3571 16.9828L14.7679 17.2864C14.8036 17.2983 14.8363 17.3102 14.8661 17.3221C14.8958 17.334 14.9286 17.34 14.9643 17.34C15.0238 17.34 15.0774 17.3281 15.125 17.3043C15.1726 17.2805 15.2083 17.2447 15.2321 17.1971L17.0179 14.7328C17.0298 14.709 17.0417 14.6822 17.0536 14.6525C17.0655 14.6227 17.0714 14.59 17.0714 14.5543C17.0714 14.4947 17.0595 14.4412 17.0357 14.3936C17.0119 14.3459 16.9762 14.3043 16.9286 14.2686L16.5178 13.9828Z" fill="#CB4B00"/>
</svg>
