<svg width="24" height="24" viewBox="0 0 24 24" fill="none" xmlns="http://www.w3.org/2000/svg">
<path fill-rule="evenodd" clip-rule="evenodd" d="M23.9436 6.06364L22.0642 3.50765C21.8136 3.16935 21.4973 2.89684 21.1151 2.69011C20.733 2.48337 20.3164 2.38 19.8653 2.38H14.4902C13.9013 2.38 13.4002 2.58674 12.9867 3.00021C12.5732 3.41368 12.3665 3.91485 12.3665 4.50373C12.3665 4.54132 12.3665 4.57891 12.3665 4.6165C12.3665 4.65409 12.3665 4.69167 12.3665 4.72926C12.4166 5.16779 12.5889 5.54994 12.8833 5.8757C13.1778 6.20146 13.538 6.42073 13.964 6.53349C13.9139 6.69637 13.8544 6.84673 13.7854 6.98455C13.7165 7.12237 13.632 7.25393 13.5317 7.37922C13.5067 7.40428 13.4879 7.43561 13.4753 7.4732C13.4628 7.51078 13.4566 7.55464 13.4566 7.60475C13.4566 7.64234 13.4628 7.68306 13.4753 7.72691C13.4879 7.77077 13.5129 7.80522 13.5505 7.83028L13.9264 8.22496C13.964 8.26255 14.0047 8.29074 14.0486 8.30953C14.0924 8.32833 14.1394 8.33772 14.1895 8.33772C14.2396 8.33772 14.2866 8.32833 14.3305 8.30953C14.3743 8.29074 14.4151 8.26255 14.4526 8.22496C14.628 7.99943 14.7815 7.75824 14.9131 7.50139C15.0447 7.24453 15.148 6.97202 15.2232 6.68385L16.2757 6.64626L16.8583 7.43561V8.39411C16.2694 8.4317 15.7713 8.66349 15.3641 9.08948C14.9569 9.51548 14.7533 10.0292 14.7533 10.6306V16.0997L9.66015 12.3972L9.58498 12.3597L8.8708 11.8522C8.70792 11.7144 8.57636 11.5484 8.47613 11.3542C8.37589 11.16 8.32578 10.9438 8.32578 10.7058C8.32578 10.6306 8.33204 10.5523 8.34457 10.4708C8.3571 10.3894 8.37589 10.3048 8.40095 10.2171C8.47613 10.0167 8.59516 9.83812 8.75804 9.6815C8.92092 9.52488 9.10886 9.40899 9.32186 9.33381C9.39704 9.30875 9.47221 9.28996 9.54739 9.27743C9.62256 9.2649 9.70401 9.25863 9.79171 9.25863C10.1425 9.25863 10.4495 9.3714 10.7126 9.59693C10.9757 9.82245 11.1386 10.0981 11.2013 10.4239C11.2263 10.5116 11.2702 10.5836 11.3328 10.64C11.3955 10.6964 11.4706 10.7246 11.5584 10.7246H12.1034C12.2036 10.7246 12.2882 10.6901 12.3571 10.6212C12.426 10.5523 12.4605 10.4677 12.4605 10.3675C12.4605 10.355 12.4605 10.3456 12.4605 10.3393C12.4605 10.333 12.4605 10.3236 12.4605 10.3111C12.3602 9.65957 12.0595 9.11455 11.5584 8.67601C11.0572 8.23749 10.4683 8.01822 9.79171 8.01822C9.05248 8.01822 8.41975 8.28134 7.89351 8.80757C7.36728 9.33381 7.10416 9.96654 7.10416 10.7058C7.10416 11.1318 7.19813 11.5296 7.38607 11.8992C7.57401 12.2688 7.81834 12.5726 8.11904 12.8107L8.53251 13.1114L0.638998 18.8436C0.451057 18.9814 0.297572 19.16 0.178543 19.3792C0.0595148 19.5985 0 19.8334 0 20.084C0 20.51 0.150352 20.8734 0.451057 21.1741C0.751763 21.4748 1.11512 21.6251 1.54111 21.6251H17.6288C18.0548 21.6251 18.4182 21.4748 18.7189 21.1741C19.0196 20.8734 19.1699 20.51 19.1699 20.084C19.1699 19.8334 19.1104 19.5985 18.9914 19.3792C18.8724 19.16 18.7189 18.9814 18.5309 18.8436L16.0313 17.0018V10.6306C16.0313 10.355 16.1284 10.1169 16.3226 9.91643C16.5168 9.71596 16.7518 9.61572 17.0274 9.61572H21.0305C21.3062 9.61572 21.5411 9.71596 21.7353 9.91643C21.9295 10.1169 22.0266 10.355 22.0266 10.6306V20.3847H20.711C20.6233 20.3847 20.5419 20.4192 20.4667 20.4881C20.3915 20.557 20.354 20.6416 20.354 20.7418V21.2681C20.354 21.3683 20.3915 21.4529 20.4667 21.5218C20.5419 21.5907 20.6233 21.6251 20.711 21.6251H22.8912C22.9914 21.6251 23.076 21.5907 23.1449 21.5218C23.2138 21.4529 23.2482 21.3683 23.2482 21.2681V10.6306C23.2482 10.0292 23.0415 9.51239 22.628 9.08013C22.2146 8.64786 21.7134 8.4192 21.1245 8.39414V6.6275H23.6429C23.7432 6.6275 23.8277 6.59304 23.8966 6.52413C23.9655 6.45522 24 6.37064 24 6.27041C24 6.23282 23.9937 6.19836 23.9812 6.16704C23.9687 6.13572 23.9562 6.10126 23.9436 6.06367L23.9436 6.06364ZM17.892 20.178C17.8794 20.2407 17.8481 20.2908 17.798 20.3284C17.7479 20.366 17.6915 20.3847 17.6288 20.3847C17.6288 20.3847 17.6226 20.3847 17.61 20.3847H1.55994C1.48476 20.3847 1.41898 20.3566 1.3626 20.3002C1.30622 20.2438 1.27803 20.1717 1.27803 20.084C1.27803 20.0339 1.28742 19.9901 1.30622 19.9525C1.32501 19.9149 1.3532 19.8836 1.39079 19.8585L9.58498 13.9008L17.798 19.8585C17.8355 19.8836 17.8637 19.9149 17.8825 19.9525C17.9013 19.9901 17.9107 20.0339 17.9107 20.084C17.9107 20.0966 17.9107 20.1122 17.9107 20.131C17.9107 20.1498 17.9045 20.1655 17.8919 20.178H17.892ZM20.2224 5.38711C20.1347 5.38711 20.0564 5.42157 19.9875 5.49048C19.9186 5.55939 19.8841 5.64396 19.8841 5.7442V8.37537H18.1175V7.13496C18.1175 7.09737 18.1112 7.05978 18.0987 7.0222C18.0862 6.98461 18.0674 6.95328 18.0423 6.92823L17.0274 5.49988C17.0024 5.46229 16.9648 5.42783 16.9147 5.39651C16.8645 5.36519 16.8082 5.34953 16.7455 5.34953H14.4902C14.2396 5.34953 14.0298 5.26495 13.8606 5.09581C13.6915 4.92666 13.6069 4.72306 13.6069 4.485C13.6069 4.45994 13.61 4.43801 13.6163 4.41922C13.6226 4.40043 13.6257 4.3785 13.6257 4.35344C13.6633 4.14044 13.7667 3.96503 13.9358 3.82721C14.105 3.68938 14.296 3.62047 14.509 3.62047C14.5216 3.62047 14.5278 3.62047 14.5278 3.62047H19.8841C20.1222 3.633 20.3446 3.69252 20.5513 3.79902C20.7581 3.90552 20.9303 4.05274 21.0682 4.24068L21.8951 5.38712L20.2224 5.38711Z" fill="#CB4B00"/>
</svg>
