<svg width="24" height="24" viewBox="0 0 24 24" fill="none" xmlns="http://www.w3.org/2000/svg">
<path fill-rule="evenodd" clip-rule="evenodd" d="M17.8661 3C17.0712 3 16.3283 3.14399 15.6371 3.43197C14.9345 3.70842 14.3124 4.09431 13.771 4.58963C13.2296 5.08495 12.7862 5.66666 12.4406 6.33477C12.095 7.00287 11.8819 7.72282 11.8013 8.4946L8.60473 8.51188C8.51258 8.51188 8.43483 8.54355 8.37147 8.60691C8.30812 8.67026 8.27644 8.74802 8.27644 8.84017V9.30669C8.27644 9.39884 8.30812 9.4766 8.37147 9.53995C8.43483 9.60331 8.51258 9.63498 8.60473 9.63498H11.8186C11.8416 9.93448 11.8877 10.2196 11.9568 10.4903C12.0259 10.761 12.1123 11.0288 12.216 11.2937L8.60473 11.2419C8.51258 11.2419 8.43483 11.2736 8.37147 11.3369C8.30812 11.4003 8.27644 11.478 8.27644 11.5702V12.0713C8.27644 12.1634 8.30812 12.2412 8.37147 12.3045C8.43483 12.3679 8.51258 12.3996 8.60473 12.3996H12.7862C13.2815 13.1598 13.9179 13.7819 14.6954 14.2657C15.473 14.7495 16.334 15.0374 17.2786 15.1296L17.2959 17.3412C17.2959 17.3528 17.2959 17.37 17.2959 17.3931C17.2959 17.4161 17.2959 17.4334 17.2959 17.4449C17.2959 18.0554 17.0828 18.5738 16.6566 19C16.2304 19.4262 15.7178 19.6393 15.1188 19.6393C14.5083 19.6393 13.9899 19.4262 13.5637 19C13.1375 18.5738 12.9244 18.0554 12.9244 17.4449C12.9244 17.4334 12.9244 17.4161 12.9244 17.3931C12.9244 17.37 12.9301 17.3528 12.9417 17.3412L12.9244 15.2678C12.9244 15.1757 12.8927 15.0979 12.8294 15.0346C12.766 14.9712 12.694 14.9395 12.6134 14.9395H6.65226V4.14041H12.4406C12.5327 4.14041 12.6105 4.10874 12.6739 4.04538C12.7372 3.98203 12.7689 3.90427 12.7689 3.81212V3.32832C12.7689 3.23617 12.7372 3.15841 12.6739 3.09506C12.6105 3.0317 12.5327 3 12.4406 3H5.84017C5.74802 3 5.67026 3.0317 5.60691 3.09506C5.54355 3.15841 5.51187 3.23617 5.51187 3.32832V14.9395H0.345573C0.345573 14.9395 0.342693 14.9395 0.336933 14.9395C0.331173 14.9395 0.328294 14.9395 0.328294 14.9395C0.236141 14.9395 0.158388 14.9712 0.0950326 15.0346C0.0316776 15.0979 0 15.1757 0 15.2678V17.3413C0 18.2628 0.325414 19.049 0.97624 19.6998C1.62707 20.3506 2.41324 20.676 3.33477 20.676H15.1015C16.023 20.676 16.8092 20.3506 17.46 19.6998C18.1109 19.049 18.4363 18.2628 18.4363 17.3413V15.1469C19.2196 15.0778 19.951 14.8704 20.6307 14.5249C21.3103 14.1793 21.8978 13.7358 22.3931 13.1944C22.8884 12.653 23.2801 12.031 23.568 11.3283C23.856 10.6256 24 9.87691 24 9.0821C24 8.24121 23.8387 7.45215 23.5162 6.71493C23.2052 5.97771 22.7732 5.33264 22.2203 4.77972C21.6674 4.22681 21.0223 3.79484 20.2851 3.48382C19.5479 3.16129 18.7588 3 17.9179 3C17.9064 3 17.8978 3 17.892 3C17.8862 3 17.8776 3 17.8661 3H17.8661ZM3.33474 19.5529C2.72422 19.5529 2.20587 19.3398 1.77966 18.9136C1.35346 18.4874 1.14035 17.969 1.14035 17.3585C1.14035 17.3585 1.14035 17.3556 1.14035 17.3499C1.14035 17.3441 1.14035 17.3412 1.14035 17.3412V16.0972H11.7667V17.3412C11.7667 17.7675 11.8445 18.1677 12 18.5421C12.1555 18.9165 12.3599 19.2534 12.6134 19.5529H3.33474ZM17.8661 14.0238C17.1864 14.0238 16.5471 13.897 15.9481 13.6436C15.3492 13.3787 14.825 13.0245 14.3758 12.581C13.9265 12.1375 13.5752 11.6163 13.3218 11.0173C13.0569 10.4183 12.9244 9.77897 12.9244 9.09935C12.9244 8.4082 13.0569 7.76314 13.3218 7.16414C13.5752 6.56515 13.9265 6.04391 14.3758 5.60043C14.825 5.15694 15.3491 4.80273 15.9481 4.53779C16.5471 4.28437 17.1864 4.15766 17.8661 4.15766C18.5457 4.15766 19.1908 4.28437 19.8013 4.53779C20.4003 4.80273 20.9215 5.15694 21.365 5.60043C21.8085 6.04391 22.1627 6.56515 22.4276 7.16414C22.681 7.76313 22.8078 8.4082 22.8078 9.09935C22.8078 9.77897 22.6753 10.4183 22.4103 11.0173C22.1569 11.6163 21.8056 12.1375 21.3563 12.581C20.9071 13.0245 20.383 13.3787 19.784 13.6436C19.185 13.897 18.5457 14.0238 17.8661 14.0238H17.8661ZM18.8509 6.33477H18.609C18.5975 6.33477 18.586 6.33477 18.5745 6.33477C18.563 6.33477 18.5514 6.33477 18.5399 6.33477C17.9294 6.33477 17.4024 6.545 16.9589 6.96545C16.5155 7.38589 16.2764 7.90137 16.2419 8.51188H15.6717C15.5795 8.51188 15.5018 8.54356 15.4384 8.60691C15.3751 8.67027 15.3434 8.74802 15.3434 8.84018V9.3067C15.3434 9.39885 15.3751 9.4766 15.4384 9.53996C15.5018 9.60331 15.5795 9.63499 15.6717 9.63499H16.2419C16.2764 10.2455 16.5155 10.761 16.9589 11.1814C17.4024 11.6019 17.9294 11.8121 18.5399 11.8121C18.5514 11.8121 18.563 11.8121 18.5745 11.8121C18.586 11.8121 18.5975 11.8121 18.609 11.8121H18.8509C18.9431 11.8121 19.0209 11.7804 19.0842 11.7171C19.1476 11.6537 19.1792 11.576 19.1792 11.4838V11.0346C19.1792 10.9424 19.1476 10.8647 19.0842 10.8013C19.0209 10.7379 18.9431 10.7063 18.8509 10.7063H18.609C18.5975 10.7063 18.586 10.7063 18.5745 10.7063C18.563 10.7063 18.5514 10.7063 18.5399 10.7063C18.2404 10.7063 17.9813 10.6055 17.7624 10.4039C17.5435 10.2023 17.4226 9.95753 17.3995 9.66955H18.8509C18.9431 9.66955 19.0209 9.63787 19.0842 9.57452C19.1476 9.51116 19.1792 9.43341 19.1792 9.34126V8.84018C19.1792 8.74802 19.1476 8.67027 19.0842 8.60691C19.0209 8.54356 18.9431 8.51188 18.8509 8.51188H17.3995C17.4226 8.22391 17.5435 7.97913 17.7624 7.77754C17.9813 7.57596 18.2404 7.47516 18.5399 7.47516C18.5514 7.47516 18.563 7.47804 18.5745 7.4838C18.586 7.48956 18.5975 7.49244 18.609 7.49244H18.8509C18.9431 7.49244 19.0209 7.45789 19.0842 7.38877C19.1476 7.31966 19.1792 7.24478 19.1792 7.16415V6.66307C19.1792 6.57092 19.1476 6.49316 19.0842 6.42981C19.0209 6.36645 18.9431 6.33477 18.8509 6.33477Z" fill="#CB4B00"/>
</svg>
