<svg width="24" height="24" viewBox="0 0 24 24" fill="none" xmlns="http://www.w3.org/2000/svg">
<path fill-rule="evenodd" clip-rule="evenodd" d="M18.0819 5.36629C17.9446 5.24025 17.7274 5.25799 17.6066 5.39991L17.2792 5.78521C17.1631 5.92153 17.1803 6.12196 17.3116 6.24334C19.4043 8.17454 20.3237 11.1207 19.5749 14.0117C18.7803 17.0795 16.1261 19.3888 12.9805 19.7729C8.22581 20.3537 4.16704 16.6419 4.16704 12.0002C4.16704 7.68092 7.68084 4.16712 11.9998 4.16712C13.2821 4.16712 14.5429 4.48053 15.6664 5.07623C15.8242 5.15995 16.0187 5.10984 16.109 4.95547L16.3639 4.51912C16.4582 4.35821 16.4028 4.14658 16.2385 4.0585C14.9403 3.36507 13.4825 3 11.9998 3C6.6986 3 2.45278 7.6081 3.0575 13.0288C3.51719 17.1508 6.84892 20.4828 10.9712 20.9425C16.3919 21.5472 21 17.3014 21 12.0002C21 9.46895 19.9406 7.07029 18.0819 5.36629ZM14.0327 7.60072C14.0327 7.04416 13.8331 6.56322 13.4338 6.15789C13.0345 5.75257 12.5505 5.5499 11.9819 5.5499C11.4132 5.5499 10.9293 5.75257 10.53 6.15789C10.1307 6.56321 9.93107 7.04415 9.93107 7.60072C9.93107 8.16938 10.1307 8.65335 10.53 9.05263C10.9293 9.4519 11.4132 9.65154 11.9819 9.65154C12.5505 9.65154 13.0345 9.4519 13.4338 9.05263C13.8331 8.65335 14.0327 8.16938 14.0327 7.60072ZM11.1289 7.60072C11.1289 7.37083 11.2136 7.17422 11.383 7.01088C11.5524 6.84754 11.752 6.76587 11.9819 6.76587C12.2118 6.76587 12.4114 6.84754 12.5808 7.01088C12.7502 7.17422 12.8349 7.37083 12.8349 7.60072C12.8349 7.8427 12.7502 8.04537 12.5808 8.20871C12.4114 8.37205 12.2118 8.45371 11.9819 8.45371C11.752 8.45371 11.5524 8.37205 11.383 8.20871C11.2136 8.04537 11.1289 7.8427 11.1289 7.60072ZM9.314 16.657C9.21721 16.657 9.13554 16.6902 9.069 16.7568C9.00245 16.8233 8.96918 16.905 8.96918 17.0018V17.5281C8.96918 17.6249 9.00245 17.7066 9.069 17.7731C9.13554 17.8397 9.21721 17.8729 9.314 17.8729H14.6316C14.7284 17.8729 14.8101 17.8397 14.8766 17.7731C14.9432 17.7066 14.9764 17.6249 14.9764 17.5281V17.0018C14.9764 16.905 14.9432 16.8233 14.8766 16.7568C14.8101 16.6902 14.7284 16.657 14.6316 16.657H14.0327V11.1034C14.0327 11.0066 13.9994 10.925 13.9329 10.8584C13.8663 10.7919 13.7907 10.7586 13.706 10.7586H9.31401C9.21722 10.7586 9.13555 10.7919 9.069 10.8584C9.00246 10.925 8.96918 11.0066 8.96918 11.1034V11.6116C8.96918 11.7084 9.00246 11.7901 9.069 11.8566C9.13555 11.9231 9.21722 11.9564 9.31401 11.9564H9.91292V16.657L9.314 16.657ZM11.1107 11.9564H12.8349V16.657H11.1289V13.5172L11.1107 11.9564Z" fill="#CB4B00"/>
</svg>
