<svg width="24" height="24" viewBox="0 0 24 24" fill="none" xmlns="http://www.w3.org/2000/svg">
<path fill-rule="evenodd" clip-rule="evenodd" d="M1.78244 5.7907H0.324081C0.228057 5.7907 0.150038 5.82371 0.0900228 5.88973C0.0300074 5.95574 0 6.03076 0 6.11478V6.61891C0 6.71493 0.0300074 6.79595 0.0900228 6.86197C0.150038 6.92798 0.228057 6.96099 0.324081 6.96099H1.78244C1.87847 6.96099 1.95649 6.92798 2.0165 6.86197C2.07652 6.79595 2.10653 6.71493 2.10653 6.61891V6.11478C2.10653 6.03076 2.07652 5.95574 2.0165 5.88973C1.95649 5.82371 1.87847 5.7907 1.78244 5.7907ZM6.12153 4.31434H5.32933C4.76519 4.31434 4.27907 4.51539 3.87097 4.91749C3.46286 5.31959 3.25881 5.80271 3.25881 6.36685C3.25881 6.40286 3.26181 6.43887 3.26782 6.47488C3.27382 6.51088 3.27682 6.54689 3.27682 6.5829C3.34884 7.11103 3.58289 7.55215 3.97899 7.90623C4.37509 8.26032 4.84321 8.43736 5.38334 8.43736C5.39535 8.43736 5.40435 8.43736 5.41035 8.43736C5.41635 8.43736 5.41935 8.43736 5.41935 8.43736H6.12153C6.20555 8.43736 6.28057 8.40436 6.34659 8.33834C6.4126 8.27232 6.44561 8.1973 6.44561 8.11328V7.60916C6.44561 7.51313 6.4126 7.43211 6.34659 7.3661C6.28057 7.30008 6.20555 7.26707 6.12153 7.26707H5.38335C5.38335 7.26707 5.38035 7.26707 5.37434 7.26707C5.36834 7.26707 5.36534 7.26707 5.36534 7.26707C5.13729 7.26707 4.93624 7.19806 4.76219 7.06002C4.58815 6.92199 4.48312 6.74494 4.44711 6.52889C4.43511 6.50488 4.42911 6.48088 4.42911 6.45687C4.42911 6.43287 4.42911 6.40286 4.42911 6.36685C4.42911 6.12679 4.51613 5.91674 4.69017 5.73669C4.86422 5.55665 5.07727 5.46663 5.32933 5.46663H6.10353C6.19955 5.46663 6.28057 5.43362 6.34659 5.3676C6.41261 5.30159 6.44561 5.22657 6.44561 5.14255V4.63842C6.44561 4.5424 6.41261 4.46438 6.34659 4.40436C6.28057 4.34435 6.19955 4.31434 6.10353 4.31434H6.12153ZM21.3533 16.9355H16.7262C16.6422 16.9355 16.5671 16.9685 16.5011 17.0345C16.4351 17.1005 16.4021 17.1755 16.4021 17.2595V17.7637C16.4021 17.8597 16.4351 17.9407 16.5011 18.0067C16.5671 18.0728 16.6422 18.1058 16.7262 18.1058H21.3533C21.4494 18.1058 21.5304 18.0728 21.5964 18.0067C21.6624 17.9407 21.6954 17.8597 21.6954 17.7637V17.2595C21.6954 17.1755 21.6624 17.1005 21.5964 17.0345C21.5304 16.9685 21.4494 16.9355 21.3533 16.9355ZM23.6759 14.1448H23.4239C23.4239 14.1448 23.4209 14.1448 23.4149 14.1448C23.4088 14.1448 23.4058 14.1448 23.4058 14.1448C23.1778 14.1448 22.9647 14.0938 22.7667 13.9917C22.5686 13.8897 22.4036 13.7487 22.2716 13.5686L19.4809 9.73368H20.6332C21.5694 9.73368 22.3646 9.4066 23.0188 8.75243C23.6729 8.09827 24 7.30307 24 6.36684C24 5.44261 23.6729 4.65041 23.0188 3.99025C22.3646 3.33008 21.5754 3 20.6512 3H10.8027C9.87848 3 9.08628 3.33008 8.42612 3.99025C7.76595 4.65041 7.43587 5.44261 7.43587 6.36684C7.43587 7.30307 7.76595 8.09827 8.42612 8.75243C9.08628 9.4066 9.87848 9.73368 10.8027 9.73368H12.8732C12.8012 10.0578 12.6812 10.3518 12.5131 10.6159C12.3451 10.88 12.135 11.108 11.883 11.3001C11.847 11.3361 11.817 11.3751 11.793 11.4171C11.7689 11.4591 11.7569 11.5041 11.7569 11.5521C11.7569 11.5881 11.7629 11.6211 11.775 11.6512C11.787 11.6812 11.799 11.7082 11.811 11.7322L12.063 12.1463C12.099 12.1943 12.141 12.2333 12.1891 12.2633C12.2371 12.2933 12.2911 12.3083 12.3511 12.3083C12.3871 12.3083 12.4231 12.3023 12.4591 12.2903C12.4951 12.2783 12.5251 12.2603 12.5491 12.2363C12.8372 12.0323 13.0893 11.7892 13.3053 11.5071C13.5214 11.2251 13.6954 10.922 13.8275 10.5979L16.6902 14.5049L15.6279 15.045C14.9677 15.3811 14.4306 15.8642 14.0165 16.4944C13.6024 17.1245 13.3954 17.8297 13.3954 18.6099C13.3954 18.6099 13.3954 18.6129 13.3954 18.6189C13.3954 18.6249 13.3954 18.6339 13.3954 18.6459V20.5544C13.3954 20.6504 13.4284 20.7314 13.4944 20.7974C13.5604 20.8634 13.6414 20.8965 13.7374 20.8965H23.6759C23.7719 20.8965 23.85 20.8634 23.91 20.7974C23.97 20.7314 24 20.6504 24 20.5544V14.4689C24 14.3848 23.97 14.3098 23.91 14.2438C23.85 14.1778 23.7719 14.1448 23.6759 14.1448L23.6759 14.1448ZM22.8477 19.7082H14.5656V18.6459C14.5656 18.6339 14.5656 18.6279 14.5656 18.6279C14.5656 18.0757 14.7097 17.5776 14.9977 17.1335C15.2858 16.6894 15.6579 16.3473 16.114 16.1073L18.0945 15.135C18.1425 15.099 18.1845 15.057 18.2205 15.009C18.2565 14.961 18.2746 14.901 18.2746 14.8289C18.2746 14.8049 18.2716 14.7809 18.2655 14.7569C18.2595 14.7329 18.2505 14.7089 18.2385 14.6849L18.1665 14.5769L14.6557 9.75168H16.4021C16.4861 9.75168 16.5611 9.72167 16.6271 9.66166C16.6932 9.60164 16.7262 9.52362 16.7262 9.4276V8.92347C16.7262 8.82745 16.6932 8.74943 16.6271 8.68941C16.5611 8.6294 16.4861 8.59939 16.4021 8.59939H10.8027C10.2025 8.59939 9.68642 8.38334 9.25431 7.95123C8.82221 7.51912 8.60615 6.997 8.60615 6.38484C8.60615 5.77269 8.8222 5.25356 9.25431 4.82745C9.68642 4.40135 10.2025 4.18829 10.8027 4.18829H20.6512C21.2633 4.18829 21.7824 4.40135 22.2085 4.82745C22.6346 5.25356 22.8477 5.77269 22.8477 6.38484C22.8477 6.99699 22.6346 7.51912 22.2085 7.95123C21.7824 8.38334 21.2633 8.59939 20.6512 8.59939H18.7067C18.6106 8.59939 18.5296 8.6294 18.4636 8.68941C18.3976 8.74943 18.3646 8.82745 18.3646 8.92347V10.0398C18.3646 10.0398 18.3646 10.0428 18.3646 10.0488C18.3646 10.0548 18.3646 10.0578 18.3646 10.0578C18.3646 10.0938 18.3706 10.1268 18.3826 10.1568C18.3946 10.1868 18.4126 10.2138 18.4366 10.2378L21.3533 14.2888C21.5334 14.5409 21.7494 14.7509 22.0015 14.919C22.2535 15.087 22.5296 15.207 22.8297 15.2791L22.8477 19.7082Z" fill="#CB4B00"/>
</svg>
