<svg width="24" height="24" viewBox="0 0 24 24" fill="none" xmlns="http://www.w3.org/2000/svg">
<path fill-rule="evenodd" clip-rule="evenodd" d="M15.7755 12.5852C15.8698 12.5852 15.9494 12.5527 16.0142 12.4879C16.079 12.4231 16.1115 12.3435 16.1115 12.2492V11.754C16.1115 11.6597 16.079 11.5802 16.0142 11.5153C15.9494 11.4505 15.8698 11.4181 15.7755 11.4181H15.2627C15.2627 11.4181 15.2568 11.4181 15.245 11.4181C15.1507 11.4181 15.0711 11.4505 15.0062 11.5153C14.9414 11.5802 14.909 11.6597 14.909 11.754V12.2669C14.909 12.3612 14.9414 12.4408 15.0062 12.5056C15.0711 12.5704 15.1507 12.6028 15.245 12.6028L15.7755 12.5852ZM18.1274 12.5852C18.2217 12.5852 18.3013 12.5527 18.3661 12.4879C18.4309 12.4231 18.4634 12.3435 18.4634 12.2492V11.754C18.4634 11.6597 18.4309 11.5802 18.3661 11.5153C18.3013 11.4505 18.2217 11.4181 18.1274 11.4181H17.6146C17.5202 11.4181 17.4407 11.4505 17.3758 11.5153C17.311 11.5802 17.2786 11.6597 17.2786 11.754V12.2669C17.2786 12.3612 17.311 12.4408 17.3758 12.5056C17.4407 12.5704 17.5202 12.6028 17.6146 12.6028L18.1274 12.5852ZM9.42709 12.5852C9.5214 12.5852 9.60097 12.5527 9.66581 12.4879C9.73065 12.4231 9.76307 12.3435 9.76307 12.2492V11.754C9.76307 11.6597 9.73065 11.5802 9.66581 11.5153C9.60097 11.4505 9.5214 11.4181 9.42709 11.4181H7.03982C7.03982 11.4181 7.03392 11.4181 7.02213 11.4181C6.93961 11.4181 6.86593 11.4505 6.80109 11.5153C6.73625 11.5802 6.70383 11.6597 6.70383 11.754V12.2669C6.70383 12.3612 6.73625 12.4408 6.80109 12.5056C6.86593 12.5704 6.93961 12.6028 7.02213 12.6028L9.42709 12.5852ZM21.664 10.9406H21.1512C21.0569 10.9406 20.9773 10.973 20.9125 11.0379C20.8476 11.1027 20.8152 11.1823 20.8152 11.2766V18.4914H12.5571V11.2766C12.5571 11.1823 12.5246 11.1027 12.4598 11.0379C12.395 10.973 12.3213 10.9406 12.2388 10.9406H11.7436C11.6493 10.9406 11.5697 10.973 11.5049 11.0379C11.4401 11.1027 11.4076 11.1823 11.4076 11.2766V18.4914H3.16717V11.2766C3.16717 11.1823 3.13475 11.1027 3.06991 11.0379C3.00507 10.973 2.9255 10.9406 2.83118 10.9406H2.33605C2.24174 10.9406 2.16216 10.973 2.09732 11.0379C2.03248 11.1027 2.00006 11.1823 2.00006 11.2766V20.7195C2.00006 20.8139 2.03248 20.8934 2.09732 20.9583C2.16216 21.0231 2.24174 21.0555 2.33605 21.0555H2.84887C2.94318 21.0555 3.01981 21.0231 3.07875 20.9583C3.1377 20.8934 3.16717 20.8139 3.16717 20.7195V19.6585H11.3899V20.7195C11.3899 20.8139 11.4224 20.8934 11.4872 20.9583C11.552 21.0231 11.6316 21.0555 11.7259 21.0555H12.2388C12.3331 21.0555 12.4126 21.0231 12.4775 20.9583C12.5423 20.8934 12.5747 20.8139 12.5747 20.7195V19.6585H20.7975V20.7195C20.7975 20.8139 20.8299 20.8934 20.8948 20.9583C20.9596 21.0231 21.0333 21.0555 21.1158 21.0555H21.6286C21.723 21.0555 21.8025 21.0231 21.8674 20.9583C21.9322 20.8934 21.9646 20.8139 21.9646 20.7195V11.2766C21.9646 11.1823 21.9352 11.1027 21.8762 11.0379C21.8173 10.973 21.7465 10.9406 21.664 10.9406H21.664ZM19.6304 6.94414H21.664C21.7465 6.94414 21.8232 6.91173 21.8939 6.84689C21.9646 6.78205 22 6.70247 22 6.60816V6.09534C22 6.00103 21.9646 5.92145 21.8939 5.85661C21.8232 5.79177 21.7465 5.75935 21.664 5.75935H14.0955C14.0012 5.75935 13.9216 5.79177 13.8567 5.85661C13.7919 5.92145 13.7595 6.00103 13.7595 6.09534V7.77527C13.7595 7.91673 13.7742 8.0582 13.8037 8.19967C13.8332 8.34114 13.8774 8.47671 13.9363 8.60639L7.87091 8.5887V4.99896C7.87091 4.98717 7.87091 4.97833 7.87091 4.97243C7.87091 4.96654 7.87091 4.96359 7.87091 4.96359C7.87091 4.75139 7.93575 4.56866 8.06543 4.41541C8.19511 4.26215 8.36016 4.16194 8.56057 4.11479C8.58415 4.11479 8.60772 4.11479 8.6313 4.11479C8.65488 4.11479 8.67846 4.11479 8.70204 4.11479C8.92603 4.11479 9.12055 4.19436 9.28559 4.35351C9.45064 4.51266 9.53316 4.71013 9.53316 4.94591V5.19348C9.53316 5.28779 9.56558 5.36736 9.63042 5.4322C9.69526 5.49704 9.76894 5.52946 9.85146 5.52946H10.3643C10.4586 5.52946 10.5382 5.49704 10.603 5.4322C10.6678 5.36736 10.7003 5.28779 10.7003 5.19348V4.94591C10.7003 4.39183 10.5057 3.91732 10.1167 3.52239C9.72768 3.12746 9.25612 2.92999 8.70204 2.92999C8.66667 2.92999 8.6313 2.93294 8.59594 2.93883C8.56057 2.94473 8.5252 2.94768 8.48983 2.94768C7.98291 3.01841 7.55851 3.24535 7.21662 3.62849C6.87474 4.01163 6.7038 4.46845 6.7038 4.99896C6.7038 4.99896 6.7038 5.00485 6.7038 5.01664C6.7038 5.02843 6.7038 5.03433 6.7038 5.03433V5.77703H5.83731C5.743 5.77703 5.66637 5.80945 5.60743 5.87429C5.54848 5.93913 5.51901 6.01281 5.51901 6.09533V6.60815C5.51901 6.70247 5.55143 6.78204 5.61627 6.84688C5.68111 6.91172 5.76068 6.94414 5.855 6.94414H6.7038V8.5887H2.33599C2.24167 8.5887 2.1621 8.62112 2.09726 8.68596C2.03242 8.7508 2 8.83038 2 8.92469V9.40214C2 9.49645 2.03242 9.57603 2.09726 9.64087C2.1621 9.70571 2.24167 9.73813 2.33599 9.73813H21.664C21.7465 9.73813 21.8232 9.70571 21.8939 9.64087C21.9646 9.57603 22 9.49645 22 9.40214V8.88932C22 8.79501 21.9646 8.71543 21.8939 8.65059C21.8232 8.58575 21.7465 8.55334 21.664 8.55334H19.4536C19.5125 8.43545 19.5567 8.30871 19.5862 8.17314C19.6157 8.03757 19.6304 7.89315 19.6304 7.7399L19.6304 6.94414ZM18.4633 7.77527C18.4633 7.99926 18.3837 8.19083 18.2246 8.34998C18.0654 8.50913 17.8739 8.5887 17.6499 8.5887H15.7577C15.7577 8.5887 15.7548 8.5887 15.7489 8.5887C15.743 8.5887 15.7401 8.5887 15.7401 8.5887C15.5161 8.5887 15.3215 8.50913 15.1565 8.34998C14.9915 8.19083 14.9089 7.99926 14.9089 7.77527V6.94414H18.4279L18.4633 7.77527ZM14.237 14.106V14.6188C14.237 14.7013 14.2694 14.775 14.3342 14.8398C14.3991 14.9047 14.4786 14.9371 14.573 14.9371H18.8347C18.929 14.9371 19.0086 14.9047 19.0734 14.8398C19.1382 14.775 19.1707 14.7013 19.1707 14.6188V14.106C19.1707 14.0116 19.1382 13.9321 19.0734 13.8672C19.0086 13.8024 18.929 13.77 18.8347 13.77H14.5553C14.4728 13.77 14.3991 13.8024 14.3342 13.8672C14.2694 13.9321 14.237 14.0116 14.237 14.106Z" fill="#CB4B00"/>
</svg>
