<svg width="24" height="24" viewBox="0 0 24 24" fill="none" xmlns="http://www.w3.org/2000/svg">
<path fill-rule="evenodd" clip-rule="evenodd" d="M19.0715 13.5636L16.3826 11.6255C16.5455 11.5557 16.6998 11.48 16.8453 11.3986C16.9908 11.3171 17.1334 11.2298 17.273 11.1367H17.2556H17.2905C17.3254 11.1134 17.3545 11.0785 17.3778 11.0319C17.4011 10.9853 17.4127 10.9329 17.4127 10.8747C17.4127 10.8398 17.4098 10.8049 17.404 10.77C17.3982 10.7351 17.3836 10.706 17.3603 10.6827L17.0635 10.2811C17.0286 10.2345 16.9879 10.1996 16.9413 10.1763C16.8947 10.1531 16.8482 10.1414 16.8016 10.1414C16.7667 10.1414 16.7318 10.1472 16.6969 10.1589C16.6619 10.1705 16.6328 10.188 16.6096 10.2113L16.5572 10.2462C16.3709 10.4091 16.1527 10.5372 15.9024 10.6303C15.6522 10.7234 15.3873 10.77 15.108 10.77C14.8635 10.77 14.6278 10.7322 14.4008 10.6565C14.1738 10.5808 13.9672 10.4732 13.781 10.3335L13.6238 10.2287C13.6006 10.2054 13.5715 10.188 13.5365 10.1763C13.5016 10.1647 13.4667 10.1589 13.4318 10.1589C13.3969 10.1589 13.3619 10.1647 13.327 10.1763C13.2921 10.188 13.263 10.2054 13.2397 10.2287L11.5111 11.4859C11.3482 11.6139 11.1707 11.7158 10.9786 11.7914C10.7865 11.8671 10.5857 11.9224 10.3762 11.9573H10.3588C10.3355 11.9573 10.3064 11.9573 10.2715 11.9573C10.2365 11.9573 10.2016 11.9573 10.1667 11.9573C9.89898 11.9573 9.64289 11.9136 9.39845 11.8263C9.154 11.739 8.93866 11.6139 8.75241 11.4509V11.4684L15.7191 6.38745L20.3286 12.7256L19.0715 13.5636ZM19.0715 15.9906L13.9905 19.6748C13.9439 19.7213 13.8916 19.7533 13.8334 19.7708C13.7752 19.7882 13.7111 19.797 13.6413 19.797C13.5715 19.797 13.5074 19.7882 13.4492 19.7708C13.391 19.7533 13.3328 19.7213 13.2746 19.6748L12.227 18.924C12.227 18.889 12.227 18.8512 12.227 18.8105C12.227 18.7697 12.227 18.7319 12.227 18.697C12.227 18.3012 12.1397 17.9374 11.9651 17.6057C11.7905 17.274 11.5577 17.0033 11.2667 16.7938L11.2492 16.7763L7.60003 14.1224C7.36722 13.9478 7.10532 13.811 6.81431 13.7121C6.52331 13.6131 6.21484 13.5636 5.88892 13.5636C5.73759 13.5636 5.58918 13.5753 5.44368 13.5986C5.29818 13.6218 5.1614 13.6568 5.03336 13.7033H5.05082L3.70638 12.7081L8.31591 6.35251L11.0048 8.32553L7.28575 11.0319C7.25083 11.0552 7.21882 11.0901 7.18972 11.1366C7.16062 11.1832 7.14607 11.2356 7.14607 11.2938C7.14607 11.3287 7.15189 11.3636 7.16353 11.3985C7.17517 11.4335 7.19263 11.4626 7.21591 11.4858L7.30321 11.6081C7.54765 11.9573 7.84739 12.2541 8.20242 12.4985C8.55744 12.743 8.94448 12.9118 9.36353 13.0049H9.39845C9.50321 13.0282 9.6167 13.0485 9.73892 13.066C9.86115 13.0835 9.98628 13.0922 10.1143 13.0922C10.4868 13.0922 10.8418 13.034 11.1794 12.9176C11.517 12.8012 11.8254 12.6382 12.1048 12.4287H12.0873L13.4318 11.4684C13.618 11.5848 13.8217 11.6779 14.0429 11.7478C14.2641 11.8176 14.4969 11.8642 14.7413 11.8874H14.7588L19.0715 15.0303C19.153 15.0769 19.217 15.1438 19.2635 15.2311C19.3101 15.3184 19.3334 15.4144 19.3334 15.5192C19.3334 15.6123 19.3101 15.7025 19.2635 15.7898C19.217 15.8771 19.153 15.9441 19.0715 15.9906L19.0715 15.9906ZM10.6032 19.6748C10.5566 19.7097 10.5013 19.7388 10.4373 19.7621C10.3733 19.7853 10.3122 19.797 10.254 19.797C10.1841 19.797 10.1172 19.7853 10.0532 19.7621C9.98917 19.7388 9.93388 19.7097 9.88732 19.6748L4.87621 16.043C4.80637 15.9848 4.74526 15.915 4.69288 15.8335C4.6405 15.752 4.61431 15.6589 4.61431 15.5541C4.61431 15.4494 4.63759 15.3533 4.68415 15.266C4.73071 15.1787 4.79473 15.1118 4.87621 15.0652C5.02753 14.9605 5.1905 14.8761 5.3651 14.812C5.5397 14.748 5.72595 14.716 5.92383 14.716C6.11007 14.716 6.29341 14.748 6.47383 14.812C6.65425 14.8761 6.81431 14.9605 6.95399 15.0652L10.6032 17.7192C10.7545 17.824 10.8767 17.9636 10.9699 18.1382C11.063 18.3128 11.1095 18.4991 11.1095 18.697C11.1095 18.8949 11.063 19.0811 10.9699 19.2557C10.8767 19.4303 10.7545 19.57 10.6032 19.6747L10.6032 19.6748ZM22.9477 14.3843L16.6095 5.6716L19.3508 3.6462C19.3857 3.61128 19.4148 3.57345 19.4381 3.53271C19.4614 3.49197 19.473 3.44831 19.473 3.40175C19.473 3.30863 19.4439 3.23006 19.3857 3.16604C19.3275 3.10202 19.2519 3.07001 19.1587 3.07001H18.3381C18.2915 3.07001 18.2479 3.07583 18.2072 3.08747C18.1664 3.09911 18.1286 3.12239 18.0937 3.15731L12 7.59223L5.90637 3.15731C5.87145 3.12239 5.83362 3.09911 5.79287 3.08747C5.75213 3.07583 5.70848 3.07001 5.66192 3.07001H4.84129C4.74817 3.07001 4.67251 3.10202 4.61431 3.16604C4.5561 3.23006 4.527 3.30863 4.527 3.40175C4.527 3.44831 4.53864 3.49197 4.56192 3.53271C4.5852 3.57345 4.61431 3.61128 4.64923 3.6462L7.3905 5.6716L1.06984 14.3843C1.04656 14.4076 1.0291 14.4367 1.01746 14.4716C1.00582 14.5065 1 14.5414 1 14.5763C1 14.6578 1.03201 14.7306 1.09603 14.7946C1.16005 14.8586 1.23862 14.8906 1.33175 14.8906H1.94286C2.00106 14.8906 2.05344 14.879 2.1 14.8557C2.14656 14.8324 2.18148 14.8033 2.20476 14.7684L3.0254 13.616L3.98571 14.3144C3.82275 14.4658 3.69762 14.6462 3.61032 14.8557C3.52302 15.0652 3.47936 15.2922 3.47936 15.5367C3.47936 15.8277 3.5463 16.0954 3.68016 16.3398C3.81402 16.5843 3.99153 16.788 4.2127 16.9509L9.22381 20.6002C9.36349 20.7049 9.52064 20.7864 9.69524 20.8446C9.86984 20.9028 10.0561 20.9319 10.254 20.9319C10.4519 20.9319 10.6381 20.9028 10.8127 20.8446C10.9873 20.7864 11.1444 20.6991 11.2841 20.5827V20.6002C11.4005 20.5187 11.5053 20.4285 11.5984 20.3295C11.6915 20.2306 11.7788 20.1287 11.8603 20.024L12.646 20.6002C12.7857 20.7049 12.9429 20.7864 13.1175 20.8446C13.2921 20.9028 13.4783 20.9319 13.6762 20.9319C13.8741 20.9319 14.0603 20.9028 14.2349 20.8446C14.4095 20.7864 14.5725 20.6991 14.7238 20.5827L14.7064 20.6002L19.7698 16.8986C19.991 16.7472 20.1656 16.5465 20.2937 16.2962C20.4217 16.0459 20.4857 15.7811 20.4857 15.5017C20.4857 15.2689 20.445 15.0507 20.3635 14.847C20.282 14.6433 20.1656 14.4658 20.0143 14.3144L20.9571 13.616L21.7952 14.7684C21.8185 14.815 21.8534 14.8499 21.9 14.8732C21.9466 14.8964 21.9989 14.9081 22.0571 14.9081H22.6683C22.7614 14.9081 22.8399 14.8761 22.904 14.8121C22.968 14.748 23 14.6695 23 14.5763C23 14.5414 22.9942 14.5094 22.9825 14.4803C22.9709 14.4512 22.9534 14.4192 22.9302 14.3843L22.9477 14.3843ZM4.45716 6.40489C4.48044 6.42817 4.50954 6.44563 4.54446 6.45727C4.57938 6.46891 4.6143 6.47473 4.64923 6.47473C4.70743 6.47473 4.75981 6.46018 4.80637 6.43108C4.85293 6.40198 4.88785 6.36997 4.91113 6.33505L5.22542 5.95092C5.2487 5.92764 5.26325 5.89854 5.26907 5.86362C5.27489 5.8287 5.2778 5.79378 5.2778 5.75886C5.2778 5.7123 5.26616 5.66574 5.24288 5.61918C5.2196 5.57261 5.1905 5.53187 5.15557 5.49695L4.75399 5.20013C4.71907 5.18849 4.68706 5.17685 4.65796 5.16521C4.62886 5.15357 4.59684 5.14775 4.56192 5.14775C4.50372 5.14775 4.45134 5.15939 4.40478 5.18267C4.35822 5.20595 4.3233 5.23505 4.30002 5.26997H4.28256L4.00319 5.68902C3.97991 5.7123 3.96245 5.73849 3.95081 5.76759C3.93917 5.79669 3.93335 5.8287 3.93335 5.86362C3.93335 5.92182 3.94499 5.9742 3.96827 6.02076C3.99155 6.06732 4.02647 6.10806 4.07303 6.14298L4.45716 6.40489ZM18.8619 5.46203C18.827 5.49695 18.7979 5.53769 18.7746 5.58426C18.7513 5.63082 18.7397 5.6832 18.7397 5.7414C18.7397 5.77632 18.7426 5.80833 18.7484 5.83743C18.7542 5.86653 18.7688 5.89272 18.7921 5.916L19.0889 6.33505C19.1122 6.36997 19.1471 6.39907 19.1937 6.42235C19.2402 6.44563 19.2926 6.45727 19.3508 6.45727C19.3857 6.45727 19.4206 6.45145 19.4556 6.43981C19.4905 6.42817 19.5196 6.41653 19.5429 6.40489L19.9445 6.10806C19.991 6.07314 20.0259 6.0324 20.0492 5.98584C20.0725 5.93928 20.0841 5.89272 20.0841 5.84616C20.0841 5.81124 20.0783 5.77632 20.0667 5.7414C20.055 5.70648 20.0376 5.67738 20.0143 5.6541L19.7349 5.25251C19.7 5.20595 19.6593 5.17103 19.6127 5.14775C19.5661 5.12447 19.5138 5.11283 19.4556 5.11283C19.4206 5.11283 19.3886 5.11865 19.3595 5.13029C19.3304 5.14193 19.2984 5.15939 19.2635 5.18267V5.16521L18.8619 5.46203Z" fill="#CB4B00"/>
</svg>
