<svg width="24" height="24" viewBox="0 0 24 24" fill="none" xmlns="http://www.w3.org/2000/svg">
<path fill-rule="evenodd" clip-rule="evenodd" d="M15.9706 10.6292V10.1733C15.9706 9.94529 15.9326 9.72997 15.8566 9.52733C15.7806 9.32468 15.6793 9.14736 15.5527 8.99537C15.768 8.80539 15.9358 8.57424 16.0561 8.30193C16.1764 8.02963 16.2366 7.73515 16.2366 7.41852C16.2366 6.94989 16.0973 6.53193 15.8186 6.16463C15.54 5.79733 15.1854 5.54402 14.7547 5.4047V4.39779C14.7421 3.81518 14.5299 3.31489 14.1183 2.89693C13.7067 2.47897 13.2032 2.26999 12.6079 2.26999H11.3541C10.7714 2.26999 10.2712 2.47897 9.85319 2.89693C9.43523 3.31489 9.22625 3.81519 9.22625 4.39779V5.4047C8.78295 5.54402 8.42198 5.79733 8.14335 6.16463C7.8647 6.53193 7.72538 6.95623 7.72538 7.43752C7.72538 7.74149 7.78871 8.02963 7.91537 8.30194C8.04202 8.57425 8.21301 8.8054 8.42832 8.99538C8.289 9.16003 8.18451 9.34368 8.11485 9.54633C8.04519 9.74898 8.00402 9.96429 7.99136 10.1923V10.6292C7.99136 10.9079 7.94386 11.1707 7.84887 11.4177C7.75388 11.6646 7.62406 11.8831 7.45941 12.0731C7.05411 12.5797 6.73114 13.1497 6.4905 13.7829C6.24985 14.4162 6.12953 15.0812 6.12953 15.7778C6.12953 16.5884 6.28785 17.3483 6.60449 18.0576C6.90846 18.7668 7.32325 19.3843 7.84887 19.9099C8.37449 20.4355 8.99194 20.8566 9.7012 21.1733C10.4105 21.4772 11.1704 21.6292 11.981 21.6292C12.7789 21.6292 13.5325 21.4772 14.2418 21.1733C14.9511 20.8566 15.5717 20.4355 16.1036 19.9099C16.6356 19.3843 17.0535 18.7668 17.3575 18.0576C17.6615 17.3483 17.8135 16.5884 17.8135 15.7778C17.8135 15.0812 17.6963 14.4162 17.462 13.7829C17.2277 13.1497 16.9015 12.5797 16.4836 12.0731C16.3189 11.8831 16.1923 11.6646 16.1036 11.4177C16.015 11.1707 15.9706 10.9142 15.9706 10.6482C15.9706 10.6356 15.9706 10.6292 15.9706 10.6292L15.9706 10.6292ZM10.4991 4.39779C10.4991 4.15714 10.5846 3.95133 10.7556 3.78034C10.9266 3.60936 11.1324 3.52387 11.373 3.52387H12.6269C12.8676 3.52387 13.0734 3.60936 13.2444 3.78034C13.4154 3.95133 13.5072 4.15714 13.5198 4.39779V5.27171H10.4991V4.39779ZM9.87218 6.52559H14.1278C14.3684 6.52559 14.5743 6.61425 14.7452 6.79157C14.9162 6.96889 15.0017 7.17787 15.0017 7.41851C15.0017 7.65916 14.9162 7.86497 14.7452 8.03596C14.5743 8.20694 14.3684 8.29243 14.1278 8.29243H9.87218C9.63154 8.29243 9.42572 8.20694 9.25473 8.03596C9.08375 7.86497 8.99826 7.65916 8.99826 7.41851C8.99826 7.17787 9.08375 6.96889 9.25473 6.79157C9.42572 6.61425 9.63154 6.52559 9.87218 6.52559ZM12 20.3373C11.3667 20.3373 10.7714 20.2107 10.2141 19.9574C9.66953 19.7167 9.18824 19.3906 8.77028 18.9789C8.35232 18.5673 8.02934 18.0829 7.80137 17.5256C7.56072 16.9683 7.4404 16.373 7.4404 15.7397C7.4404 15.1951 7.52906 14.679 7.70638 14.1914C7.88369 13.7038 8.137 13.2573 8.46631 12.852C8.70696 12.5607 8.9001 12.2219 9.04576 11.8356C9.19141 11.4493 9.26424 11.0408 9.26424 10.6102V10.1732C9.26424 9.99592 9.32757 9.8471 9.45422 9.72678C9.58088 9.60646 9.72653 9.5463 9.89118 9.5463H14.1468C14.3114 9.5463 14.4571 9.60646 14.5838 9.72678C14.7104 9.8471 14.7737 9.99592 14.7737 10.1732V10.6102C14.7737 11.0408 14.8466 11.4493 14.9922 11.8356C15.1379 12.2219 15.3374 12.567 15.5907 12.871C15.9073 13.2636 16.1606 13.7069 16.3506 14.2009C16.5406 14.6948 16.6356 15.2205 16.6356 15.7777C16.6356 16.411 16.5152 17.0063 16.2746 17.5636C16.034 18.1209 15.7047 18.6053 15.2867 19.0169C14.8687 19.4286 14.3811 19.7547 13.8238 19.9954C13.2665 20.236 12.6713 20.3563 12.038 20.3563L12 20.3373ZM4.91365 19.1594C4.88832 19.1214 4.85033 19.0898 4.79966 19.0644C4.749 19.0391 4.69201 19.0264 4.62868 19.0264C4.59068 19.0264 4.55269 19.0296 4.51469 19.0359C4.47669 19.0423 4.44503 19.0581 4.4197 19.0834L2.2539 20.6413C2.20324 20.6793 2.16524 20.7236 2.13991 20.7743C2.11458 20.8249 2.10191 20.8756 2.10191 20.9263C2.10191 20.9643 2.10824 21.0023 2.12091 21.0403C2.13357 21.0782 2.15257 21.1099 2.1779 21.1352L2.50087 21.5722C2.52621 21.6229 2.5642 21.6609 2.61486 21.6862C2.66553 21.7115 2.72252 21.7242 2.78585 21.7242C2.82385 21.7242 2.85868 21.7179 2.89034 21.7052C2.922 21.6925 2.95683 21.6799 2.99483 21.6672L5.12264 20.1093C5.1733 20.0713 5.2113 20.027 5.23663 19.9764C5.26196 19.9257 5.27462 19.875 5.27462 19.8244C5.27462 19.7864 5.26829 19.7484 5.25562 19.7104C5.24296 19.6724 5.22396 19.6407 5.19863 19.6154L4.91365 19.1594ZM4.4197 13.6879C4.45769 13.7133 4.49252 13.7323 4.52419 13.7449C4.55585 13.7576 4.59068 13.7639 4.62868 13.7639C4.69201 13.7639 4.749 13.7481 4.79966 13.7164C4.85033 13.6848 4.88832 13.6499 4.91365 13.6119L5.23662 13.175C5.26195 13.137 5.28095 13.1021 5.29362 13.0705C5.30628 13.0388 5.31262 13.004 5.31262 12.966C5.31262 12.9027 5.29678 12.8457 5.26512 12.795C5.23346 12.7443 5.19863 12.7063 5.16063 12.681L3.01382 11.1232C2.98849 11.0978 2.95683 11.0788 2.91883 11.0662C2.88084 11.0535 2.84284 11.0472 2.80484 11.0472C2.75418 11.0472 2.70352 11.063 2.65286 11.0947C2.60219 11.1263 2.55786 11.1612 2.51987 11.1992L2.1969 11.6361C2.18423 11.6614 2.17157 11.6931 2.1589 11.7311C2.14624 11.7691 2.1399 11.8071 2.1399 11.8451C2.1399 11.9084 2.15257 11.9654 2.1779 12.0161C2.20323 12.0667 2.24123 12.1047 2.29189 12.1301L4.4197 13.6879ZM19.5613 19.0834C19.536 19.0708 19.5075 19.0581 19.4758 19.0454C19.4442 19.0328 19.4093 19.0264 19.3713 19.0264C19.308 19.0264 19.251 19.0391 19.2003 19.0644C19.1497 19.0898 19.1054 19.1278 19.0674 19.1784L18.7634 19.6154C18.7381 19.6407 18.7191 19.6724 18.7064 19.7104C18.6937 19.7484 18.6874 19.7864 18.6874 19.8244C18.6874 19.875 18.7001 19.9257 18.7254 19.9764C18.7507 20.027 18.7887 20.0713 18.8394 20.1093L20.9672 21.6672C21.0052 21.6799 21.04 21.6925 21.0717 21.7052C21.1033 21.7179 21.1382 21.7242 21.1762 21.7242C21.2395 21.7242 21.2965 21.7115 21.3472 21.6862C21.3978 21.6609 21.4358 21.6229 21.4611 21.5722L21.7841 21.1352C21.8094 21.1099 21.8284 21.0814 21.8411 21.0498C21.8538 21.0181 21.8601 20.9833 21.8601 20.9453C21.8601 20.8819 21.8443 20.8249 21.8126 20.7743C21.7809 20.7236 21.7398 20.6793 21.6891 20.6413L19.5613 19.0834ZM19.0674 13.6119C19.1054 13.6626 19.1497 13.7006 19.2003 13.7259C19.251 13.7513 19.308 13.7639 19.3713 13.7639C19.4093 13.7639 19.4442 13.7576 19.4758 13.7449C19.5075 13.7323 19.5423 13.7133 19.5803 13.6879L21.6891 12.1301C21.7398 12.1047 21.7778 12.0667 21.8031 12.0161C21.8284 11.9654 21.8411 11.9084 21.8411 11.8451C21.8411 11.8071 21.8348 11.7691 21.8221 11.7311C21.8094 11.6931 21.7968 11.6614 21.7841 11.6361L21.4611 11.1992C21.4231 11.1612 21.3788 11.1263 21.3282 11.0947C21.2775 11.063 21.2268 11.0472 21.1762 11.0472C21.1382 11.0472 21.1002 11.0535 21.0622 11.0662C21.0242 11.0788 20.9925 11.0978 20.9672 11.1232L18.8204 12.681C18.7824 12.7063 18.7476 12.7443 18.7159 12.795C18.6842 12.8457 18.6684 12.9027 18.6684 12.966C18.6684 13.004 18.6747 13.0388 18.6874 13.0705C18.7001 13.1021 18.7191 13.137 18.7444 13.175L19.0674 13.6119ZM22.639 15.7587H19.9983C19.8969 15.7587 19.8115 15.7936 19.7418 15.8632C19.6721 15.9329 19.6373 16.0184 19.6373 16.1197V16.6707C19.6373 16.772 19.6721 16.8575 19.7418 16.9271C19.8115 16.9968 19.8969 17.0316 19.9983 17.0316H22.639C22.7404 17.0316 22.8258 16.9968 22.8955 16.9271C22.9652 16.8575 23 16.772 23 16.6707V16.1197C23 16.0184 22.9652 15.9329 22.8955 15.8632C22.8258 15.7936 22.7404 15.7587 22.639 15.7587ZM4.36269 16.6707V16.1197C4.36269 16.0184 4.32786 15.9329 4.2582 15.8632C4.18854 15.7936 4.10305 15.7587 4.00172 15.7587H1.36097C1.25964 15.7587 1.17415 15.7936 1.10449 15.8632C1.03483 15.9329 1 16.0184 1 16.1197V16.6707C1 16.7593 1.03483 16.8385 1.10449 16.9081C1.17415 16.9778 1.25964 17.0126 1.36097 17.0126H4.00172C4.10305 17.0126 4.18854 16.9778 4.2582 16.9081C4.32786 16.8385 4.36269 16.7593 4.36269 16.6707Z" fill="#CB4B00"/>
</svg>
