<svg width="24" height="24" viewBox="0 0 24 24" fill="none" xmlns="http://www.w3.org/2000/svg">
<path fill-rule="evenodd" clip-rule="evenodd" d="M23.8936 7.93995C23.8108 7.66796 23.6837 7.41963 23.5122 7.19494C23.3407 6.97025 23.1427 6.77513 22.918 6.60957L22.6874 6.44993C22.6519 6.4381 22.6194 6.42628 22.5898 6.41445C22.5603 6.40263 22.5277 6.39671 22.4923 6.39671C22.4331 6.39671 22.3799 6.40854 22.3326 6.43219C22.2853 6.45584 22.2439 6.48541 22.2084 6.52088L21.9069 6.9466C21.8951 6.97025 21.8832 6.99982 21.8714 7.0353C21.8596 7.07077 21.8537 7.10625 21.8537 7.14172C21.8537 7.18903 21.8655 7.23633 21.8892 7.28363C21.9128 7.33093 21.9483 7.37232 21.9956 7.4078L22.3149 7.6384C22.4686 7.75666 22.5928 7.90448 22.6874 8.08186C22.782 8.25924 22.8293 8.44845 22.8293 8.64949C22.8293 8.79139 22.8086 8.92739 22.7672 9.05747C22.7258 9.18755 22.6637 9.30581 22.581 9.41224L15.8404 18.6539C15.7221 18.8077 15.5743 18.9318 15.3969 19.0264C15.2195 19.121 15.0244 19.1684 14.8116 19.1684C14.6696 19.1684 14.5366 19.1477 14.4124 19.1063C14.2883 19.0649 14.173 19.0028 14.0665 18.92L9.561 15.6562C9.44274 15.5616 9.34222 15.4522 9.25944 15.328C9.17666 15.2038 9.11754 15.0708 9.08206 14.9289C9.20031 14.7633 9.30083 14.583 9.38361 14.3879C9.46639 14.1927 9.53143 13.9947 9.57873 13.7936L11.7783 13.7759C12.6297 13.7759 13.36 13.4714 13.969 12.8624C14.578 12.2534 14.8825 11.5172 14.8825 10.6539V10.4056C14.8825 10.311 14.85 10.2312 14.7849 10.1661C14.7199 10.1011 14.6401 10.0686 14.5455 10.0686H12.0798L16.0355 4.6229C16.1537 4.46917 16.3016 4.345 16.479 4.25039C16.6563 4.15579 16.8515 4.10849 17.0643 4.10849C17.2062 4.10849 17.3393 4.12918 17.4634 4.17057C17.5876 4.21196 17.7029 4.26813 17.8093 4.33908L20.4878 6.30804C20.5233 6.31987 20.5558 6.33169 20.5854 6.34352C20.6149 6.35534 20.6475 6.36126 20.6829 6.36126C20.7421 6.36126 20.7953 6.34943 20.8426 6.32578C20.8899 6.30213 20.9313 6.26665 20.9668 6.21935L21.2683 5.81137C21.2801 5.78772 21.292 5.75815 21.3038 5.72267C21.3156 5.6872 21.3215 5.65172 21.3215 5.61625C21.3215 5.55712 21.3097 5.5039 21.2861 5.4566C21.2624 5.4093 21.2328 5.36791 21.1974 5.33243L18.5721 3.45216C18.3592 3.28661 18.1197 3.15652 17.8537 3.06192C17.5876 2.96732 17.3067 2.92001 17.0111 2.92001C17.0111 2.92001 17.0081 2.92001 17.0022 2.92001C16.9963 2.92001 16.9934 2.92001 16.9934 2.92001C16.6031 2.93184 16.2424 3.02644 15.9113 3.20383C15.5802 3.38121 15.3082 3.61772 15.0954 3.91336L10.5898 10.0686H0.337029C0.242425 10.0686 0.162602 10.1011 0.0975612 10.1661C0.0325204 10.2312 0 10.311 0 10.4056V10.92C0 11.0146 0.0325204 11.0944 0.0975612 11.1595C0.162602 11.2245 0.242425 11.257 0.337029 11.257H3.24612V19.1683C3.24612 19.3694 3.17517 19.5408 3.03326 19.6828C2.89136 19.8247 2.71989 19.8956 2.51885 19.8956H0.337034C0.242429 19.8956 0.162607 19.9281 0.0975661 19.9932C0.0325253 20.0582 0 20.138 0 20.2326V20.7471C0 20.8417 0.0325253 20.9215 0.0975661 20.9865C0.162607 21.0516 0.242429 21.0841 0.337034 21.0841H2.51885C2.93275 21.0841 3.30525 20.9599 3.63636 20.7116C3.96748 20.4632 4.19217 20.1499 4.31042 19.7715L8.51442 19.7537C8.60902 20.1321 8.81301 20.4485 9.12639 20.7027C9.43977 20.957 9.79749 21.0841 10.1996 21.0841C10.1996 21.0841 10.2055 21.0841 10.2173 21.0841H11.2816C11.5654 21.0841 11.8285 21.019 12.071 20.889C12.3134 20.7589 12.5174 20.5874 12.6829 20.3746L13.1619 19.7182L13.3925 19.8779C13.5817 20.0316 13.7975 20.1469 14.0399 20.2238C14.2823 20.3006 14.5395 20.345 14.8115 20.3568C14.8115 20.3568 14.8174 20.3568 14.8293 20.3568C15.2432 20.3568 15.6245 20.2593 15.9734 20.0641C16.3223 19.869 16.609 19.6118 16.8337 19.2925L23.5565 10.0686C23.6984 9.86752 23.8078 9.64579 23.8847 9.40337C23.9616 9.16094 24 8.90965 24 8.64948C24 8.5194 23.9911 8.39524 23.9734 8.27698C23.9557 8.15872 23.929 8.04047 23.8936 7.92221L23.8936 7.93995ZM6.59865 16.2237C6.89429 16.2237 7.17515 16.1853 7.44123 16.1084C7.7073 16.0316 7.95859 15.9222 8.19511 15.7803C8.26606 15.9458 8.36067 16.0966 8.47892 16.2326C8.59718 16.3686 8.72726 16.4898 8.86917 16.5962L9.63191 17.1639L8.79821 18.3346C8.76273 18.3701 8.73317 18.4085 8.70952 18.4499C8.68587 18.4913 8.66222 18.5356 8.63857 18.5829H4.41683V11.257H13.6053C13.4752 11.6473 13.2446 11.9665 12.9135 12.2149C12.5824 12.4632 12.204 12.5874 11.7783 12.5874H8.8337C8.73909 12.5874 8.65927 12.6199 8.59423 12.6849C8.52919 12.75 8.49667 12.8298 8.49667 12.9244V13.1727C8.49667 13.6931 8.31337 14.1336 7.94678 14.4943C7.58018 14.8549 7.14264 15.0353 6.63414 15.0353H6.3858C6.2912 15.0353 6.21137 15.0708 6.14633 15.1417C6.08129 15.2127 6.04877 15.2895 6.04877 15.3723V15.869C6.04877 15.9636 6.08129 16.0434 6.14633 16.1084C6.21137 16.1735 6.2912 16.206 6.3858 16.206L6.59865 16.2237ZM11.725 19.6827C11.6659 19.7418 11.5979 19.7921 11.5211 19.8335C11.4442 19.8749 11.3585 19.9015 11.2638 19.9133H10.1995C10.0458 19.9015 9.91869 19.8394 9.81817 19.7271C9.71766 19.6147 9.6674 19.4817 9.6674 19.328C9.6674 19.2688 9.67331 19.2127 9.68513 19.1594C9.69696 19.1062 9.72061 19.056 9.75609 19.0087L10.5898 17.8379L12.204 19.0087L11.725 19.6827ZM14.7228 15.3191L15.1308 15.6206C15.1545 15.6443 15.184 15.6591 15.2195 15.665C15.255 15.6709 15.2905 15.6739 15.3259 15.6739C15.3851 15.6739 15.4383 15.662 15.4856 15.6384C15.5329 15.6147 15.5684 15.5852 15.592 15.5497L19.5299 10.1217C19.5536 10.0981 19.5713 10.0685 19.5831 10.0331C19.595 9.99758 19.6009 9.9621 19.6009 9.92663C19.6009 9.87932 19.5891 9.83202 19.5654 9.78472C19.5418 9.73742 19.5063 9.69603 19.459 9.66055L19.051 9.359C19.0273 9.34717 18.9978 9.33535 18.9623 9.32352C18.9268 9.3117 18.8913 9.30578 18.8559 9.30578C18.7967 9.30578 18.7435 9.31761 18.6962 9.34126C18.6489 9.36491 18.6134 9.39448 18.5898 9.42995L14.6519 14.8579C14.6282 14.8815 14.6105 14.9111 14.5987 14.9466C14.5868 14.9821 14.5809 15.0175 14.5809 15.053C14.5809 15.1003 14.5927 15.1476 14.6164 15.1949C14.64 15.2422 14.6755 15.2836 14.7228 15.3191Z" fill="#CB4B00"/>
</svg>
