<svg width="24" height="24" viewBox="0 0 24 24" fill="none" xmlns="http://www.w3.org/2000/svg">
<path fill-rule="evenodd" clip-rule="evenodd" d="M23.7385 14.5526L20.1525 13.3573V5.94246C20.1525 5.84285 20.1214 5.75881 20.0591 5.69032C19.9969 5.62184 19.916 5.5876 19.8163 5.5876H18.1914C18.042 4.77826 17.6467 4.09966 17.0054 3.5518C16.3642 3.00394 15.6202 2.73001 14.7735 2.73001C14.7611 2.73001 14.7517 2.73001 14.7455 2.73001C14.7393 2.73001 14.73 2.73001 14.7175 2.73001C13.8833 2.75492 13.1518 3.03818 12.523 3.57982C11.8942 4.12145 11.5051 4.79071 11.3556 5.5876L11.0008 5.60628C10.8514 4.78449 10.456 4.09966 9.81479 3.5518C9.17354 3.00394 8.42957 2.73001 7.58288 2.73001C7.57043 2.73001 7.56109 2.73001 7.55486 2.73001C7.54864 2.73001 7.54552 2.73001 7.54552 2.73001C6.71128 2.75491 5.98288 3.03818 5.36031 3.57982C4.73774 4.12145 4.34552 4.79071 4.18366 5.5876L2.55875 5.60627C2.45914 5.60627 2.3751 5.6374 2.30661 5.69966C2.23813 5.76192 2.20389 5.84285 2.20389 5.94246V15.804C2.20389 16.6258 2.01089 17.4071 1.6249 18.1479C1.23891 18.8888 0.821786 19.5767 0.37354 20.2118L0.0747078 20.6226C0.0498047 20.6476 0.0311283 20.6756 0.0186765 20.7067C0.00622528 20.7378 0 20.7721 0 20.8094C0 20.909 0.0342405 20.99 0.102723 21.0522C0.171206 21.1145 0.249027 21.1518 0.336186 21.1643H13.4288C13.5284 21.1643 13.6093 21.13 13.6716 21.0616C13.7338 20.9931 13.765 20.909 13.765 20.8094V20.2865C13.765 20.1993 13.7338 20.1215 13.6716 20.053C13.6093 19.9845 13.5284 19.9503 13.4288 19.9503H1.97975C2.4031 19.3775 2.73929 18.7394 2.98831 18.0359C3.23734 17.3324 3.3743 16.5946 3.39921 15.8226V6.80163H4.18364C4.32061 7.54871 4.66613 8.18684 5.22022 8.71603C5.77431 9.24521 6.43111 9.55338 7.19065 9.64054C7.2031 9.64054 7.21555 9.64054 7.228 9.64054C7.24046 9.64054 7.24668 9.64054 7.24668 9.64054C7.34629 9.64054 7.43034 9.60941 7.49882 9.54716C7.5673 9.4849 7.60154 9.40397 7.60154 9.30436V8.80008C7.60154 8.78762 7.60154 8.7814 7.60154 8.7814C7.60154 8.69424 7.57353 8.62264 7.5175 8.56661C7.46147 8.51058 7.3961 8.47634 7.32139 8.46389C6.74863 8.38918 6.27236 8.13704 5.89259 7.70747C5.51283 7.2779 5.32294 6.77673 5.32294 6.20397C5.32294 5.56895 5.54396 5.03043 5.98598 4.5884C6.428 4.14638 6.9603 3.92537 7.58287 3.92537C8.10582 3.92537 8.56964 4.08101 8.97431 4.39229C9.37898 4.70358 9.64979 5.10202 9.78676 5.58763L6.94785 5.6063C6.86069 5.6063 6.78287 5.63743 6.71439 5.69969C6.6459 5.76194 6.61166 5.84288 6.61166 5.94249V6.46545C6.61166 6.55261 6.6459 6.63043 6.71439 6.69891C6.78287 6.76739 6.86069 6.80163 6.94785 6.80163H11.3556C11.4926 7.56117 11.8381 8.20241 12.3922 8.72537C12.9463 9.24833 13.6031 9.55961 14.3626 9.65922C14.3751 9.65922 14.3875 9.65922 14.4 9.65922C14.4124 9.65922 14.4187 9.65922 14.4187 9.65922C14.5183 9.65922 14.5992 9.62498 14.6615 9.5565C14.7237 9.48801 14.7611 9.41019 14.7735 9.32303V8.80008C14.7735 8.80008 14.7735 8.79696 14.7735 8.79074C14.7735 8.78451 14.7735 8.7814 14.7735 8.7814C14.7735 8.70669 14.7455 8.63821 14.6895 8.57595C14.6335 8.51369 14.5681 8.47634 14.4934 8.46389C13.9206 8.38918 13.4412 8.14015 13.0552 7.7168C12.6693 7.29346 12.4763 6.78918 12.4763 6.20396C12.4763 5.56894 12.7004 5.03042 13.1486 4.5884C13.5969 4.14637 14.1323 3.92536 14.7549 3.92536C15.2778 3.92536 15.7416 4.08412 16.1463 4.40163C16.551 4.71914 16.8156 5.11446 16.9401 5.58762L14.1385 5.60629C14.0389 5.60629 13.958 5.64054 13.8957 5.70902C13.8335 5.7775 13.8023 5.85532 13.8023 5.94248V6.46544C13.8023 6.56505 13.8335 6.64598 13.8957 6.70824C13.958 6.7705 14.0389 6.80163 14.1385 6.80163H18.9572V12.9837L16.3984 12.1619C16.386 12.1619 16.3704 12.1588 16.3517 12.1526C16.3331 12.1464 16.3175 12.1433 16.3051 12.1433C16.2054 12.1433 16.1245 12.1775 16.0623 12.246C16 12.3145 15.9689 12.3923 15.9689 12.4795V20.2117C15.9689 20.2989 16 20.3767 16.0623 20.4452C16.1245 20.5137 16.2054 20.5479 16.3051 20.5479C16.3424 20.5479 16.3766 20.5417 16.4078 20.5293C16.4389 20.5168 16.4669 20.4981 16.4918 20.4732L18.5089 18.9977L20.0591 21.1269C20.084 21.1643 20.1214 21.1954 20.1712 21.2203C20.221 21.2452 20.2708 21.2577 20.3206 21.2577C20.358 21.2577 20.3953 21.2514 20.4327 21.239C20.47 21.2265 20.5012 21.2141 20.5261 21.2016L23.2903 19.2032C23.3401 19.1658 23.3774 19.1222 23.4023 19.0724C23.4272 19.0226 23.4397 18.9728 23.4397 18.923C23.4397 18.8857 23.4335 18.8514 23.421 18.8203C23.4086 18.7892 23.3899 18.7549 23.365 18.7176L21.8335 16.6071L23.8693 15.1316C23.9066 15.1067 23.9377 15.0693 23.9626 15.0195C23.9875 14.9697 24 14.9199 24 14.8701C24 14.7954 23.9751 14.7269 23.9253 14.6647C23.8755 14.6024 23.8132 14.565 23.7385 14.5526L23.7385 14.5526ZM21.8708 18.7176L20.5261 19.7075L18.9759 17.597C18.951 17.5472 18.9136 17.5098 18.8638 17.4849C18.814 17.46 18.7642 17.4475 18.7144 17.4475C18.677 17.4475 18.6397 17.4538 18.6023 17.4662C18.565 17.4787 18.5338 17.4973 18.5089 17.5223L17.1455 18.5121V13.6561L21.7774 15.1689L20.414 16.1588C20.3766 16.1837 20.3455 16.2211 20.3206 16.2709C20.2957 16.3207 20.2833 16.3767 20.2833 16.439C20.2833 16.4763 20.2864 16.5106 20.2926 16.5417C20.2988 16.5728 20.3144 16.6008 20.3393 16.6257L21.8708 18.7176ZM7.24666 13.9549H6.74238C6.64277 13.9549 6.55872 13.9861 6.49024 14.0483C6.42176 14.1106 6.38751 14.1915 6.38751 14.2911V14.8141C6.38751 14.9012 6.42176 14.9791 6.49024 15.0475C6.55872 15.116 6.64277 15.1503 6.74238 15.1503H7.24666C7.34627 15.1503 7.43032 15.116 7.4988 15.0475C7.56728 14.9791 7.60152 14.9012 7.60152 14.8141V14.3098C7.60152 14.2226 7.56728 14.1448 7.4988 14.0763C7.43032 14.0079 7.34627 13.9736 7.24666 13.9736V13.9549ZM7.24666 11.5643H6.74238C6.64277 11.5643 6.55872 11.5954 6.49024 11.6577C6.42176 11.7199 6.38751 11.8009 6.38751 11.9005V12.4234C6.38751 12.5106 6.42176 12.5884 6.49024 12.6569C6.55872 12.7254 6.64277 12.7596 6.74238 12.7596H7.24666C7.34627 12.7596 7.43032 12.7254 7.4988 12.6569C7.56728 12.5884 7.60152 12.5106 7.60152 12.4234V11.9005C7.58907 11.8133 7.55172 11.7386 7.48946 11.6763C7.4272 11.6141 7.34627 11.583 7.24666 11.583V11.5643ZM9.99218 11.9005C9.99218 11.8009 9.95794 11.7199 9.88946 11.6577C9.82098 11.5954 9.73693 11.5643 9.63732 11.5643H9.11436C9.0272 11.5643 8.94938 11.5954 8.8809 11.6577C8.81242 11.7199 8.77818 11.8009 8.77818 11.9005V12.4234C8.77818 12.5106 8.81242 12.5884 8.8809 12.6569C8.94938 12.7254 9.0272 12.7596 9.11436 12.7596H9.63732C9.73693 12.7596 9.82098 12.7254 9.88946 12.6569C9.95794 12.5884 9.99218 12.5106 9.99218 12.4234V11.9005ZM9.99218 14.2911C9.99218 14.1915 9.95794 14.1106 9.88946 14.0483C9.82098 13.9861 9.73693 13.9549 9.63732 13.9549H9.11436C9.0272 13.9549 8.94938 13.9861 8.8809 14.0483C8.81242 14.1106 8.77818 14.1915 8.77818 14.2911V14.8141C8.77818 14.9012 8.81242 14.9791 8.8809 15.0475C8.94938 15.116 9.0272 15.1503 9.11436 15.1503H9.63732C9.73693 15.1503 9.82098 15.116 9.88946 15.0475C9.95794 14.9791 9.99218 14.9012 9.99218 14.8141V14.2911ZM12.3642 11.9005C12.3642 11.8009 12.333 11.7199 12.2708 11.6577C12.2085 11.5954 12.1276 11.5643 12.028 11.5643H11.505C11.4179 11.5643 11.34 11.5954 11.2716 11.6577C11.2031 11.7199 11.1688 11.8009 11.1688 11.9005V12.4234C11.1688 12.5106 11.2031 12.5884 11.2716 12.6569C11.34 12.7254 11.4179 12.7596 11.505 12.7596H12.028C12.1276 12.7596 12.2085 12.7254 12.2708 12.6569C12.333 12.5884 12.3642 12.5106 12.3642 12.4234V11.9005ZM12.3642 14.2911C12.3642 14.1915 12.333 14.1106 12.2708 14.0483C12.2085 13.9861 12.1276 13.9549 12.028 13.9549H11.505C11.4179 13.9549 11.34 13.9861 11.2716 14.0483C11.2031 14.1106 11.1688 14.1915 11.1688 14.2911V14.8141C11.1688 14.9012 11.2031 14.9791 11.2716 15.0475C11.34 15.116 11.4179 15.1503 11.505 15.1503H12.028C12.1276 15.1503 12.2085 15.116 12.2708 15.0475C12.333 14.9791 12.3642 14.9012 12.3642 14.8141V14.2911ZM14.4186 11.5643H13.9144C13.8148 11.5643 13.7307 11.5954 13.6622 11.6577C13.5937 11.7199 13.5595 11.8009 13.5595 11.9005V12.4234C13.5595 12.5106 13.5937 12.5884 13.6622 12.6569C13.7307 12.7254 13.8148 12.7596 13.9144 12.7596H14.4186C14.5183 12.7596 14.6023 12.7254 14.6708 12.6569C14.7393 12.5884 14.7735 12.5106 14.7735 12.4234V11.9005C14.7611 11.8133 14.7237 11.7386 14.6614 11.6763C14.5992 11.6141 14.5245 11.583 14.4373 11.583L14.4186 11.5643ZM14.4186 13.9549H13.9144C13.8148 13.9549 13.7307 13.9861 13.6622 14.0483C13.5937 14.1106 13.5595 14.1915 13.5595 14.2911V14.8141C13.5595 14.9012 13.5937 14.9791 13.6622 15.0476C13.7307 15.116 13.8148 15.1503 13.9144 15.1503H14.4186C14.5183 15.1503 14.6023 15.116 14.6708 15.0476C14.7393 14.9791 14.7735 14.9012 14.7735 14.8141V14.3098C14.7735 14.2226 14.7393 14.1448 14.6708 14.0763C14.6023 14.0079 14.5245 13.9736 14.4373 13.9736L14.4186 13.9549ZM7.26534 16.3269H6.74238C6.64277 16.3269 6.56184 16.3612 6.49958 16.4297C6.43732 16.4981 6.40619 16.5822 6.40619 16.6818V17.2047C6.40619 17.2919 6.43732 17.3697 6.49958 17.4382C6.56184 17.5067 6.64277 17.5409 6.74238 17.5409H7.26534C7.3525 17.5409 7.43032 17.5067 7.4988 17.4382C7.56728 17.3697 7.60152 17.2919 7.60152 17.2047V16.7005C7.60152 16.6133 7.56728 16.5355 7.4988 16.467C7.43032 16.3985 7.3525 16.3643 7.26534 16.3643C7.26534 16.3643 7.26222 16.3643 7.256 16.3643C7.24977 16.3643 7.24666 16.3643 7.24666 16.3643L7.26534 16.3269ZM9.13304 16.3269C9.04588 16.3269 8.96806 16.3612 8.89958 16.4297C8.8311 16.4981 8.79686 16.5822 8.79686 16.6818V17.2047C8.79686 17.2919 8.8311 17.3697 8.89958 17.4382C8.96806 17.5067 9.04588 17.5409 9.13304 17.5409H9.656C9.74316 17.5409 9.82098 17.5067 9.88946 17.4382C9.95795 17.3697 9.99219 17.2919 9.99219 17.2047V16.7005C9.99219 16.6133 9.95795 16.5355 9.88946 16.467C9.82098 16.3985 9.74316 16.3643 9.656 16.3643L9.13304 16.3269ZM11.5237 16.3269C11.4241 16.3269 11.3432 16.3612 11.2809 16.4297C11.2186 16.4981 11.1875 16.5822 11.1875 16.6818V17.2047C11.1875 17.2919 11.2186 17.3697 11.2809 17.4382C11.3432 17.5067 11.4241 17.5409 11.5237 17.5409H12.0467C12.1338 17.5409 12.2116 17.5067 12.2801 17.4382C12.3486 17.3697 12.3829 17.2919 12.3829 17.2047V16.7005C12.3829 16.6133 12.3486 16.5355 12.2801 16.467C12.2116 16.3985 12.1338 16.3643 12.0467 16.3643L11.5237 16.3269ZM14.4373 16.3269H13.9144C13.8148 16.3269 13.7338 16.3612 13.6716 16.4297C13.6093 16.4981 13.5782 16.5822 13.5782 16.6818V17.2047C13.5782 17.2919 13.6093 17.3697 13.6716 17.4382C13.7338 17.5067 13.8148 17.5409 13.9144 17.5409H14.4373C14.5245 17.5409 14.6023 17.5067 14.6708 17.4382C14.7393 17.3697 14.7735 17.2919 14.7735 17.2047V16.7005C14.7735 16.6133 14.7393 16.5355 14.6708 16.467C14.6023 16.3985 14.5245 16.3643 14.4373 16.3643V16.3269Z" fill="#CB4B00"/>
</svg>
