<svg width="24" height="24" viewBox="0 0 24 24" fill="none" xmlns="http://www.w3.org/2000/svg">
<path fill-rule="evenodd" clip-rule="evenodd" d="M22.6365 2.00003H5.18956C5.12579 2.00003 5.0684 2.01597 5.01738 2.04786C4.96637 2.07974 4.92173 2.12757 4.88347 2.19134L3.62086 4.41047L2.30087 2.19134C2.27536 2.12757 2.23391 2.07974 2.17652 2.04786C2.11913 2.01597 2.05855 2.00003 1.99478 2.00003H1.36348C1.26145 2.00003 1.17536 2.0351 1.10522 2.10525C1.03507 2.17539 1 2.26148 1 2.36351C1 2.40177 1.00319 2.43684 1.00956 2.46873C1.01594 2.50061 1.03188 2.52931 1.05739 2.55481L2.9513 5.86438V15.2C2.9513 15.3021 2.98637 15.3882 3.05652 15.4583C3.12666 15.5284 3.21275 15.5635 3.31478 15.5635H20.6852C20.7872 15.5635 20.8733 15.5284 20.9435 15.4583C21.0136 15.3882 21.0487 15.3021 21.0487 15.2V5.86438L22.9426 2.55481C22.9681 2.52931 22.9841 2.50061 22.9904 2.46873C22.9968 2.43684 23 2.40177 23 2.36351C23 2.26148 22.9649 2.17539 22.8948 2.10525C22.8246 2.0351 22.7386 2.00003 22.6365 2.00003H22.6365ZM20.0539 5.0609H6.45218C6.45218 5.0609 6.44899 5.0609 6.44262 5.0609C6.43624 5.0609 6.43305 5.0609 6.43305 5.0609C6.34378 5.0609 6.26406 5.09597 6.19392 5.16612C6.12378 5.23626 6.08233 5.32235 6.06957 5.42438V5.96003C6.06957 6.06206 6.10783 6.14814 6.18435 6.21829C6.26088 6.28843 6.34378 6.32351 6.43305 6.32351H19.7669V14.3009H4.23301V5.86439L5.72519 3.28178H21.0678L20.0539 5.0609ZM6.45218 12.4261H9.91478C10.0168 12.4261 10.1029 12.391 10.173 12.3209C10.2432 12.2508 10.2783 12.1647 10.2783 12.0626V11.527C10.2783 11.425 10.2432 11.3389 10.173 11.2687C10.1029 11.1986 10.0168 11.1635 9.91478 11.1635H6.45217C6.45217 11.1635 6.44899 11.1635 6.44261 11.1635C6.43623 11.1635 6.43304 11.1635 6.43304 11.1635C6.34377 11.1635 6.26087 11.1986 6.18435 11.2687C6.10783 11.3389 6.06957 11.425 6.06957 11.527V12.0818C6.08232 12.1838 6.12377 12.2667 6.19391 12.3305C6.26406 12.3942 6.34377 12.4261 6.43304 12.4261C6.43304 12.4261 6.43623 12.4261 6.44261 12.4261C6.44899 12.4261 6.45217 12.4261 6.45217 12.4261H6.45218ZM6.45218 9.38438H9.91479C10.0168 9.38438 10.1029 9.3493 10.173 9.27916C10.2432 9.20901 10.2783 9.12293 10.2783 9.0209V8.46612C10.2783 8.36409 10.2432 8.278 10.173 8.20786C10.1029 8.13771 10.0168 8.10264 9.91479 8.10264H6.45218C6.35015 8.10264 6.26406 8.13771 6.19392 8.20786C6.12378 8.278 6.0887 8.36409 6.0887 8.46612V8.98264C6.0887 8.99539 6.0887 9.00177 6.0887 9.00177C6.0887 9.00177 6.0887 9.00815 6.0887 9.0209C6.0887 9.12293 6.12378 9.20901 6.19392 9.27916C6.26406 9.3493 6.35015 9.38438 6.45218 9.38438ZM5.38088 17.247C5.34262 17.2087 5.30117 17.1832 5.25653 17.1704C5.21189 17.1577 5.16407 17.1513 5.11305 17.1513C5.06204 17.1513 5.0174 17.1577 4.97914 17.1704C4.94088 17.1832 4.90262 17.2087 4.86436 17.247L2.41567 19.7148C2.37741 19.7531 2.34552 19.7945 2.32001 19.8391C2.29451 19.8838 2.28175 19.938 2.28175 20.0018C2.28175 20.1038 2.31683 20.1899 2.38697 20.26C2.45712 20.3302 2.5432 20.3652 2.64523 20.3652C2.64523 20.3652 2.64842 20.3652 2.6548 20.3652C2.66117 20.3652 2.66436 20.3652 2.66436 20.3652H3.42958C3.4806 20.3652 3.52842 20.3557 3.57306 20.3365C3.6177 20.3174 3.65915 20.2887 3.69741 20.2504L4.48175 19.4661V21.2644C4.48175 21.3664 4.51683 21.4525 4.58697 21.5226C4.65712 21.5928 4.7432 21.6278 4.84523 21.6278H5.40001C5.48929 21.6278 5.57219 21.5928 5.64871 21.5226C5.72523 21.4525 5.76349 21.3664 5.76349 21.2644V19.4278L6.54784 20.2313C6.57334 20.2696 6.60842 20.2983 6.65305 20.3174C6.69769 20.3365 6.74552 20.3461 6.79653 20.3461H7.58088C7.58088 20.3461 7.58726 20.3461 7.60001 20.3461C7.70204 20.3461 7.78812 20.311 7.85827 20.2409C7.92841 20.1707 7.96349 20.0847 7.96349 19.9826C7.96349 19.9189 7.95073 19.8647 7.92523 19.82C7.89972 19.7754 7.86783 19.7339 7.82957 19.6957L5.38088 17.247ZM19.1357 17.247C19.0974 17.2087 19.0592 17.1832 19.0209 17.1704C18.9826 17.1577 18.938 17.1513 18.887 17.1513C18.836 17.1513 18.7881 17.1577 18.7435 17.1704C18.6989 17.1832 18.6574 17.2087 18.6192 17.247L16.1705 19.7148C16.1322 19.7531 16.1003 19.7945 16.0748 19.8391C16.0493 19.8838 16.0366 19.938 16.0366 20.0018C16.0366 20.1038 16.0716 20.1899 16.1418 20.26C16.2119 20.3302 16.298 20.3652 16.4 20.3652C16.4128 20.3652 16.4192 20.3652 16.4192 20.3652H17.2035C17.2545 20.3652 17.2992 20.3557 17.3374 20.3365C17.3757 20.3174 17.4139 20.2887 17.4522 20.2504L18.2365 19.4661V21.2644C18.2365 21.3664 18.2716 21.4525 18.3418 21.5226C18.4119 21.5928 18.498 21.6278 18.6 21.6278H19.1548C19.2568 21.6278 19.3429 21.5928 19.4131 21.5226C19.4832 21.4525 19.5183 21.3664 19.5183 21.2644V19.4278L20.3026 20.2313C20.3409 20.2568 20.3792 20.2791 20.4174 20.2983C20.4557 20.3174 20.5003 20.327 20.5513 20.327H21.3165C21.3165 20.327 21.3197 20.327 21.3261 20.327C21.3325 20.327 21.3357 20.327 21.3357 20.327C21.4377 20.327 21.5238 20.2919 21.5939 20.2218C21.6641 20.1516 21.6992 20.0655 21.6992 19.9635C21.6992 19.9125 21.6864 19.8647 21.6609 19.82C21.6354 19.7754 21.6035 19.7339 21.5652 19.6957L19.1357 17.247ZM12.2487 17.247C12.2232 17.2087 12.1881 17.1832 12.1435 17.1704C12.0989 17.1577 12.051 17.1513 12 17.1513C11.949 17.1513 11.9012 17.1577 11.8565 17.1704C11.8119 17.1832 11.7768 17.2087 11.7513 17.247L9.2835 19.7148C9.24524 19.7531 9.21654 19.7945 9.19741 19.8391C9.17828 19.8838 9.16872 19.938 9.16872 20.0018C9.16872 20.1038 9.20379 20.1899 9.27393 20.26C9.34408 20.3302 9.42379 20.3652 9.51306 20.3652C9.52582 20.3652 9.53219 20.3652 9.53219 20.3652H10.3165C10.3676 20.3652 10.4154 20.3557 10.46 20.3365C10.5047 20.3174 10.5397 20.2887 10.5652 20.2504L11.3496 19.4661V21.2644C11.3496 21.3664 11.3847 21.4525 11.4548 21.5226C11.5249 21.5928 11.611 21.6278 11.7131 21.6278H12.2678C12.3699 21.6278 12.456 21.5928 12.5261 21.5226C12.5962 21.4525 12.6313 21.3664 12.6313 21.2644V19.4278L13.4157 20.2313C13.4539 20.2568 13.4954 20.2791 13.54 20.2983C13.5846 20.3174 13.6261 20.327 13.6644 20.327H14.4678C14.4678 20.327 14.4742 20.327 14.487 20.327C14.5762 20.327 14.656 20.2919 14.7261 20.2218C14.7962 20.1516 14.8313 20.0655 14.8313 19.9635C14.8313 19.9125 14.8217 19.8647 14.8026 19.82C14.7835 19.7754 14.7548 19.7339 14.7165 19.6957L12.2487 17.247Z" fill="#CB4B00"/>
</svg>
