<svg width="24" height="24" viewBox="0 0 24 24" fill="none" xmlns="http://www.w3.org/2000/svg">
<path fill-rule="evenodd" clip-rule="evenodd" d="M18.3742 6.59267H17.8513C17.7551 6.59267 17.674 6.62873 17.6078 6.70086C17.5417 6.77298 17.5087 6.85112 17.5087 6.93527V7.81881C17.5087 7.91498 17.5417 7.99612 17.6078 8.06224C17.674 8.12836 17.7551 8.16141 17.8513 8.16141H18.3742C18.4703 8.16141 18.5515 8.12836 18.6176 8.06224C18.6837 7.99612 18.7168 7.91498 18.7168 7.81881V6.9533C18.7168 6.9533 18.7168 6.94729 18.7168 6.93527C18.7168 6.85112 18.6837 6.77298 18.6176 6.70086C18.5515 6.62873 18.4703 6.59267 18.3742 6.59267ZM15.7235 5.16818H15.2006C15.1045 5.16818 15.0233 5.20124 14.9572 5.26735C14.8911 5.33347 14.858 5.41461 14.858 5.51078V7.11558C14.858 7.19973 14.8911 7.27787 14.9572 7.34999C15.0233 7.42212 15.1045 7.45818 15.2006 7.45818H15.7235C15.8197 7.45818 15.9009 7.42212 15.967 7.34999C16.0331 7.27787 16.0661 7.19973 16.0661 7.11558V5.51078C16.0661 5.41461 16.0331 5.33347 15.967 5.26735C15.9009 5.20124 15.8197 5.16818 15.7235 5.16818ZM9.21414 9.3515H8.45682C8.37267 9.3515 8.29453 9.38456 8.22241 9.45067C8.15028 9.51679 8.11422 9.59793 8.11422 9.6941V10.217C8.11422 10.3132 8.15028 10.3943 8.22241 10.4604C8.29453 10.5266 8.37267 10.5596 8.45682 10.5596H22.4854C22.5815 10.5596 22.6627 10.5266 22.7288 10.4604C22.7949 10.3943 22.828 10.3132 22.828 10.217V9.6941C22.828 9.59793 22.7949 9.51679 22.7288 9.45067C22.6627 9.38456 22.5815 9.3515 22.4854 9.3515H21.728V7.81882C21.728 6.91725 21.4335 6.12686 20.8445 5.44767C20.2555 4.76848 19.5222 4.36277 18.6446 4.23054C18.5124 3.80981 18.266 3.4612 17.9054 3.18471C17.5447 2.90823 17.136 2.76999 16.6792 2.76999H14.281C13.8242 2.76999 13.4155 2.90823 13.0549 3.18471C12.6942 3.4612 12.4538 3.8098 12.3336 4.23054C11.4441 4.3748 10.7048 4.78351 10.1157 5.45669C9.5267 6.12987 9.23218 6.92325 9.23218 7.83685L9.21414 9.3515ZM10.4042 7.81882C10.4042 7.15766 10.6386 6.59267 11.1075 6.12385C11.5763 5.65503 12.1413 5.41462 12.8024 5.40259H13.0549C13.151 5.40259 13.2322 5.36953 13.2983 5.30342C13.3644 5.2373 13.3975 5.15616 13.3975 5.05999V4.80755C13.3975 4.57915 13.4786 4.3808 13.6409 4.21251C13.8032 4.04421 14.0045 3.96007 14.2449 3.96007C14.2449 3.96007 14.2479 3.96007 14.254 3.96007C14.26 3.96007 14.263 3.96007 14.263 3.96007H16.6612C16.8896 3.96007 17.0879 4.04421 17.2562 4.21251C17.4245 4.3808 17.5086 4.57915 17.5086 4.80755V5.05999C17.5086 5.15616 17.5417 5.2373 17.6078 5.30342C17.6739 5.36953 17.7491 5.40259 17.8332 5.40259H18.1037C18.7648 5.40259 19.3298 5.637 19.7987 6.10582C20.2675 6.57464 20.5019 7.13963 20.5019 7.80079C20.5019 7.80079 20.5019 7.80379 20.5019 7.8098C20.5019 7.81581 20.5019 7.82483 20.5019 7.83685V9.3515H10.4042V7.81882ZM13.0909 6.62874H12.568C12.4718 6.62874 12.3907 6.6618 12.3246 6.72791C12.2585 6.79403 12.2254 6.87517 12.2254 6.97134V7.81882C12.2254 7.91499 12.2585 7.99613 12.3246 8.06225C12.3907 8.12836 12.4718 8.16142 12.568 8.16142H13.0909C13.1871 8.16142 13.2682 8.12836 13.3343 8.06225C13.4005 7.99613 13.4335 7.91499 13.4335 7.81882V6.95331C13.4335 6.95331 13.4335 6.9473 13.4335 6.93528C13.4335 6.85113 13.4005 6.77299 13.3343 6.70087C13.2682 6.62874 13.1871 6.59268 13.0909 6.59268V6.62874ZM14.6236 17.5017L14.4613 17.4296C14.1968 17.2974 13.9835 17.1111 13.8212 16.8706C13.6589 16.6302 13.5778 16.3537 13.5778 16.0412V15.933C13.5778 15.8969 13.5718 15.8639 13.5597 15.8338C13.5477 15.8038 13.5297 15.7707 13.5056 15.7347L12.0271 13.6971C11.8708 13.4927 11.7506 13.2613 11.6664 13.0029C11.5823 12.7444 11.5402 12.4709 11.5402 12.1824C11.5402 12.0983 11.5071 12.0232 11.441 11.957C11.3749 11.8909 11.2938 11.8579 11.1976 11.8579H10.6747C10.5785 11.8579 10.4974 11.8909 10.4313 11.957C10.3651 12.0232 10.3321 12.0983 10.3321 12.1824C10.3321 12.1824 10.3321 12.1884 10.3321 12.2005C10.3321 12.6092 10.3982 13.0029 10.5304 13.3815C10.6627 13.7602 10.837 14.1058 11.0533 14.4184L11.973 15.6625H10.8189C10.278 15.6625 9.77311 15.7647 9.30429 15.9691C8.83547 16.1734 8.42375 16.4499 8.06913 16.7985C7.71451 17.1471 7.43502 17.5558 7.23066 18.0247C7.0263 18.5055 6.92412 19.0104 6.92412 19.5393V20.8917C6.92412 20.9878 6.95718 21.069 7.02329 21.1351C7.08941 21.2012 7.17055 21.2343 7.26672 21.2343H7.78963C7.87378 21.2343 7.94891 21.2012 8.01503 21.1351C8.08114 21.069 8.1142 20.9878 8.1142 20.8917V19.5213C8.1142 18.788 8.37866 18.1569 8.90759 17.628C9.43651 17.099 10.0736 16.8346 10.8189 16.8346H12.5139C12.6101 17.1351 12.7513 17.4056 12.9376 17.646C13.124 17.8864 13.3433 18.0908 13.5958 18.2591L13.6138 20.8737C13.6138 20.9698 13.6469 21.051 13.713 21.1171C13.7791 21.1832 13.8603 21.2163 13.9564 21.2163H14.4793C14.5635 21.2163 14.6416 21.1832 14.7137 21.1171C14.7859 21.051 14.8219 20.9698 14.8219 20.8737V17.7722C14.8099 17.7121 14.7859 17.655 14.7498 17.6009C14.7137 17.5468 14.6717 17.5018 14.6236 17.4657L14.6236 17.5017ZM20.1232 15.6986H18.9692L19.8708 14.4364C20.0992 14.1359 20.2765 13.7963 20.4027 13.4176C20.5289 13.0389 20.592 12.6392 20.592 12.2185C20.592 12.1344 20.559 12.0592 20.4929 11.9931C20.4267 11.927 20.3456 11.8939 20.2494 11.8939H19.7446C19.6604 11.8939 19.5823 11.927 19.5101 11.9931C19.438 12.0592 19.402 12.1344 19.402 12.2185C19.402 12.507 19.3599 12.7805 19.2757 13.0389C19.1916 13.2974 19.0714 13.5288 18.9151 13.7332L17.4365 15.7707C17.4125 15.7948 17.3944 15.8218 17.3824 15.8519C17.3704 15.8819 17.3644 15.909 17.3644 15.933V16.0232C17.3524 16.3598 17.2472 16.6603 17.0488 16.9247C16.8505 17.1892 16.6011 17.3695 16.3005 17.4657C16.2284 17.4897 16.1683 17.5288 16.1202 17.5829C16.0721 17.637 16.0481 17.7061 16.0481 17.7903C16.0481 17.7903 16.0481 17.7963 16.0481 17.8083C16.0481 17.8203 16.0481 17.8263 16.0481 17.8263L16.1202 18.3492C16.1322 18.4334 16.1713 18.5055 16.2374 18.5656C16.3035 18.6257 16.3787 18.6558 16.4628 18.6558C16.4748 18.6558 16.4899 18.6528 16.5079 18.6468C16.5259 18.6407 16.5409 18.6377 16.553 18.6377C16.9977 18.5055 17.3824 18.2831 17.707 17.9706C18.0316 17.658 18.266 17.2854 18.4102 16.8526V16.8346H20.1052C20.8505 16.8346 21.4876 17.099 22.0165 17.628C22.5455 18.1569 22.8099 18.794 22.8099 19.5393V20.8736C22.8099 20.9698 22.843 21.051 22.9091 21.1171C22.9752 21.1832 23.0564 21.2162 23.1525 21.2162H23.6574C23.7536 21.2162 23.8347 21.1832 23.9008 21.1171C23.9669 21.051 24 20.9698 24 20.8736V19.5213C24 18.9924 23.8978 18.4935 23.6935 18.0247C23.4891 17.5558 23.2126 17.1441 22.864 16.7895C22.5154 16.4349 22.1007 16.1554 21.6198 15.951C21.151 15.7587 20.6521 15.6625 20.1232 15.6625L20.1232 15.6986ZM6.11269 6.59268H5.58978C5.49361 6.59268 5.41247 6.62874 5.34635 6.70087C5.28024 6.773 5.24718 6.85113 5.24718 6.93528C5.24718 6.9473 5.24718 6.95331 5.24718 6.95331V7.81883C5.24718 7.91499 5.28024 7.99614 5.34635 8.06225C5.41247 8.12837 5.49361 8.16142 5.58978 8.16142H6.11269C6.20886 8.16142 6.29 8.12837 6.35612 8.06225C6.42223 7.99614 6.45529 7.91499 6.45529 7.81883V6.95331C6.45529 6.95331 6.45529 6.9473 6.45529 6.93528C6.45529 6.85113 6.42223 6.773 6.35612 6.70087C6.29 6.62874 6.20886 6.59268 6.11269 6.59268ZM8.87152 3.96008C8.96769 3.96008 9.04883 3.92702 9.11494 3.86091C9.18106 3.79479 9.21412 3.71365 9.21412 3.61748V3.1126C9.21412 3.01643 9.18106 2.93529 9.11494 2.86917C9.04883 2.80305 8.96769 2.77 8.87152 2.77H7.28474C6.82794 2.77 6.41923 2.90824 6.0586 3.18472C5.69797 3.46121 5.45755 3.80981 5.33733 4.23055C4.44778 4.3748 3.70548 4.78352 3.11044 5.4567C2.5154 6.12988 2.21788 6.92326 2.21788 7.83686V9.35151H1.47859C1.38242 9.35151 1.30128 9.38457 1.23517 9.45069C1.16905 9.5168 1.13599 9.59794 1.13599 9.69411V10.217C1.13599 10.3132 1.16905 10.3943 1.23517 10.4605C1.30128 10.5266 1.38242 10.5596 1.47859 10.5596H6.1127C6.19685 10.5596 6.27198 10.5266 6.33809 10.4605C6.40421 10.3943 6.43727 10.3132 6.43727 10.217V9.69411C6.43727 9.59794 6.40421 9.5168 6.33809 9.45069C6.27198 9.38457 6.19685 9.35151 6.1127 9.35151H3.426V7.81883C3.426 7.15768 3.66041 6.5957 4.12923 6.13289C4.59805 5.67008 5.16304 5.43867 5.82419 5.43867H6.07664C6.1728 5.43867 6.25395 5.40561 6.32006 5.3395C6.38618 5.27338 6.41924 5.19224 6.41924 5.09607V4.80757C6.41924 4.57917 6.50038 4.38082 6.66266 4.21253C6.82494 4.04423 7.02029 3.96008 7.24869 3.96008C7.26071 3.96008 7.26972 3.96008 7.27573 3.96008C7.28174 3.96008 7.28475 3.96008 7.28475 3.96008L8.87152 3.96008ZM5.28324 13.9135C5.10292 13.6731 4.95567 13.4086 4.84147 13.1201C4.72727 12.8316 4.65815 12.5251 4.6341 12.2005C4.6341 12.2005 4.6341 12.1975 4.6341 12.1915C4.6341 12.1855 4.6341 12.1825 4.6341 12.1825C4.6341 12.0863 4.60105 12.0052 4.53493 11.939C4.46882 11.8729 4.38767 11.8399 4.29151 11.8399H3.75056C3.66641 11.8399 3.59128 11.8729 3.52517 11.939C3.45905 12.0052 3.42599 12.0803 3.42599 12.1644C3.42599 12.1644 3.42599 12.1674 3.42599 12.1735C3.42599 12.1795 3.42599 12.1825 3.42599 12.1825C3.42599 12.6032 3.4891 13.0029 3.61532 13.3816C3.74154 13.7602 3.91885 14.1058 4.14725 14.4184L5.04883 15.6626H2.52441C1.8272 15.6626 1.23215 15.909 0.739292 16.4018C0.24643 16.8947 0 17.4837 0 18.1689V18.4394C0 18.5236 0.0330577 18.6017 0.0991735 18.6738C0.165289 18.7459 0.246431 18.782 0.3426 18.782H0.865514C0.961682 18.77 1.03982 18.7309 1.09992 18.6648C1.16003 18.5987 1.19008 18.5236 1.19008 18.4394V18.1689C1.19008 17.8083 1.31931 17.4988 1.57776 17.2403C1.83621 16.9819 2.15176 16.8526 2.52442 16.8526H6.32907C6.41322 16.8526 6.48835 16.8196 6.55447 16.7535C6.62058 16.6873 6.65364 16.6062 6.65364 16.51V15.933C6.65364 15.897 6.64763 15.8639 6.63561 15.8339C6.62359 15.8038 6.61157 15.7707 6.59955 15.7347L5.28324 13.9135ZM20.8986 20.0442H18.1578C18.0616 20.0442 17.9805 20.0773 17.9143 20.1434C17.8482 20.2095 17.8152 20.2907 17.8152 20.3868V20.8917C17.8152 20.9879 17.8482 21.069 17.9143 21.1351C17.9805 21.2012 18.0616 21.2343 18.1578 21.2343H20.8986C20.9947 21.2343 21.0759 21.2012 21.142 21.1351C21.2081 21.069 21.2412 20.9879 21.2412 20.8917V20.3868C21.2412 20.2907 21.2081 20.2095 21.142 20.1434C21.0759 20.0773 20.9947 20.0442 20.8986 20.0442Z" fill="#CB4B00"/>
</svg>
