<svg width="24" height="24" viewBox="0 0 24 24" fill="none" xmlns="http://www.w3.org/2000/svg">
<path fill-rule="evenodd" clip-rule="evenodd" d="M22.6333 4.56336C22.6333 4.56336 22.6394 4.56336 22.6517 4.56336C22.7494 4.56336 22.8319 4.59697 22.8992 4.66419C22.9664 4.73141 23 4.81391 23 4.91169V15.9484C23 16.4617 22.9328 16.9567 22.7983 17.4334C22.6761 17.91 22.5111 18.3653 22.3033 18.7992C22.0956 19.2331 21.8694 19.6456 21.625 20.0367C21.3683 20.44 21.1178 20.8067 20.8733 21.1367L20.8 21.2467C20.7633 21.2956 20.7206 21.3323 20.6717 21.3567C20.6228 21.3811 20.5739 21.3934 20.525 21.3934C20.525 21.3934 20.5189 21.3934 20.5067 21.3934H8.95667C8.8589 21.3934 8.7764 21.3598 8.70917 21.2925C8.64195 21.2253 8.60834 21.1428 8.60834 21.045C8.60834 21.0084 8.61445 20.9717 8.62667 20.935C8.6389 20.8984 8.65723 20.8678 8.68167 20.8434L8.97501 20.4217C9.43945 19.7861 9.87028 19.0895 10.2675 18.3317C10.6647 17.5739 10.8633 16.7795 10.8633 15.9484V11.9517L6.59167 17.7817L2.77834 20.5684L2.28333 21.2467C2.24667 21.2956 2.20389 21.3323 2.155 21.3567C2.10611 21.3811 2.05722 21.3934 2.00833 21.3934C1.99611 21.3934 1.99 21.3934 1.99 21.3934H1.34833C1.25056 21.3934 1.16806 21.3598 1.10083 21.2925C1.03361 21.2253 1 21.1428 1 21.045C1 21.0084 1.00611 20.9717 1.01833 20.935C1.03056 20.8984 1.04889 20.8678 1.07333 20.8434L1.78834 19.8534L3.23667 15.3434L10.68 5.14999L10.0017 4.63666C9.92833 4.58777 9.84583 4.54805 9.75416 4.51749C9.66249 4.48694 9.56777 4.47166 9.46999 4.47166C9.33555 4.47166 9.20721 4.50221 9.08499 4.56333C8.96277 4.62444 8.85888 4.70999 8.77333 4.81999L6.81165 7.53333C6.78721 7.57 6.75054 7.60361 6.70165 7.63416C6.65276 7.66472 6.59776 7.68 6.53665 7.68C6.49999 7.68 6.46332 7.67389 6.42665 7.66166C6.38999 7.64944 6.35943 7.63111 6.33499 7.60666L5.91332 7.295C5.86443 7.27055 5.82776 7.23389 5.80332 7.185C5.77887 7.13611 5.76665 7.08111 5.76665 7.02C5.76665 6.98333 5.77276 6.94666 5.78499 6.91C5.79721 6.87333 5.81554 6.84277 5.83999 6.81833L7.74666 4.14166C7.84444 3.995 7.9636 3.86361 8.10416 3.7475C8.24471 3.63138 8.40055 3.53055 8.57166 3.44499C8.7061 3.38388 8.8436 3.33805 8.98416 3.30749C9.12471 3.27694 9.27444 3.26166 9.43333 3.26166C9.66555 3.26166 9.88555 3.29833 10.0933 3.37166C10.3011 3.44499 10.4844 3.54277 10.6433 3.665L11.34 4.16L11.89 3.46333C12.0856 3.20666 12.33 3.00194 12.6233 2.84916C12.9167 2.69638 13.2344 2.62 13.5767 2.62C14.1389 2.62 14.6247 2.82166 15.0342 3.225C15.4436 3.62833 15.6483 4.11722 15.6483 4.69166C15.6483 4.92389 15.6117 5.14083 15.5383 5.3425C15.465 5.54417 15.3672 5.73055 15.245 5.90167L14.75 6.59833L14.145 7.405L12.055 10.2833V15.4533C12.055 15.4656 12.055 15.4747 12.055 15.4808C12.055 15.487 12.055 15.4961 12.055 15.5083C12.055 16.3761 11.9267 17.2072 11.67 18.0017C11.4133 18.7961 11.0589 19.5172 10.6067 20.165H20.0667C20.47 19.5783 20.855 18.9245 21.2217 18.2033C21.5884 17.4822 21.7717 16.7306 21.7717 15.9483V5.79164H20.7267C20.6411 5.79164 20.5647 5.75803 20.4975 5.69081C20.4303 5.62359 20.3967 5.54109 20.3967 5.44331V4.91164C20.3967 4.81386 20.4303 4.73136 20.4975 4.66414C20.5647 4.59692 20.6411 4.56331 20.7267 4.56331H22.6333L22.6333 4.56336ZM12.3667 4.87502L13.4667 5.66336L13.7417 5.88336L14.2367 5.20503C14.2856 5.1317 14.3253 5.05225 14.3559 4.9667C14.3864 4.88114 14.4017 4.78947 14.4017 4.6917C14.4017 4.45947 14.3192 4.25781 14.1542 4.0867C13.9892 3.91558 13.7906 3.83003 13.5584 3.83003C13.4117 3.83003 13.2772 3.86364 13.155 3.93086C13.0328 3.99808 12.935 4.0867 12.8617 4.1967L12.3667 4.87502ZM5.10665 17.3601L4.09832 16.6084L3.49332 18.5334L5.10665 17.3601ZM13.0266 6.87338L11.6516 5.86505L4.64829 15.4901L6.04162 16.4984L13.0266 6.87338ZM14.2183 10.8151H14.7316C14.8294 10.8151 14.9119 10.8517 14.9791 10.9251C15.0464 10.9984 15.08 11.0778 15.08 11.1634V11.6951C15.08 11.7928 15.0464 11.8753 14.9791 11.9426C14.9119 12.0098 14.8294 12.0434 14.7316 12.0434H14.2183C14.1205 12.0434 14.038 12.0098 13.9708 11.9426C13.9036 11.8753 13.87 11.7928 13.87 11.6951V11.1634C13.87 11.0778 13.9036 10.9984 13.9708 10.9251C14.038 10.8517 14.1205 10.8151 14.2183 10.8151ZM16.6383 10.8151H17.17C17.2678 10.8151 17.3503 10.8517 17.4175 10.9251C17.4847 10.9984 17.5183 11.0778 17.5183 11.1634V11.6951C17.5183 11.7928 17.4847 11.8753 17.4175 11.9426C17.3503 12.0098 17.2678 12.0434 17.17 12.0434H16.6383C16.5528 12.0434 16.4733 12.0098 16.4 11.9426C16.3266 11.8753 16.29 11.7928 16.29 11.6951V11.1634C16.29 11.0778 16.3266 10.9984 16.4 10.9251C16.4733 10.8517 16.5528 10.8151 16.6383 10.8151ZM19.0766 10.8151H19.6083C19.7061 10.8151 19.7886 10.8517 19.8558 10.9251C19.923 10.9984 19.9566 11.0778 19.9566 11.1634V11.6951C19.9566 11.7928 19.923 11.8753 19.8558 11.9426C19.7886 12.0098 19.7061 12.0434 19.6083 12.0434H19.0766C18.9911 12.0434 18.9147 12.0098 18.8475 11.9426C18.7802 11.8753 18.7466 11.7928 18.7466 11.6951V11.1634C18.7466 11.0778 18.7802 10.9984 18.8475 10.9251C18.9147 10.8517 18.9911 10.8151 19.0766 10.8151ZM14.2183 14.2434H14.7316C14.8294 14.2434 14.9119 14.277 14.9791 14.3442C15.0464 14.4115 15.08 14.494 15.08 14.5917V15.1051C15.08 15.2028 15.0464 15.2853 14.9791 15.3526C14.9119 15.4198 14.8294 15.4534 14.7316 15.4534H14.2183C14.1205 15.4534 14.038 15.4198 13.9708 15.3526C13.9036 15.2853 13.87 15.2028 13.87 15.1051V14.5917C13.87 14.494 13.9036 14.4115 13.9708 14.3442C14.038 14.277 14.1205 14.2434 14.2183 14.2434ZM16.6383 14.2434H17.17C17.2678 14.2434 17.3503 14.277 17.4175 14.3442C17.4847 14.4115 17.5183 14.494 17.5183 14.5917V15.1051C17.5183 15.2028 17.4847 15.2853 17.4175 15.3526C17.3503 15.4198 17.2678 15.4534 17.17 15.4534H16.6383C16.5528 15.4534 16.4733 15.4198 16.4 15.3526C16.3266 15.2853 16.29 15.2028 16.29 15.1051V14.5917C16.29 14.494 16.3266 14.4115 16.4 14.3442C16.4733 14.277 16.5528 14.2434 16.6383 14.2434ZM19.0766 14.2434H19.6083C19.7061 14.2434 19.7886 14.277 19.8558 14.3442C19.923 14.4115 19.9566 14.494 19.9566 14.5917V15.1051C19.9566 15.2028 19.923 15.2853 19.8558 15.3526C19.7886 15.4198 19.7061 15.4534 19.6083 15.4534H19.0766C18.9911 15.4534 18.9147 15.4198 18.8475 15.3526C18.7802 15.2853 18.7466 15.2028 18.7466 15.1051V14.5917C18.7466 14.494 18.7802 14.4115 18.8475 14.3442C18.9147 14.277 18.9911 14.2434 19.0766 14.2434ZM17.8666 8.13839C17.7811 8.13839 17.7047 8.10478 17.6375 8.03756C17.5702 7.97033 17.5366 7.88783 17.5366 7.79006V4.69172C17.5366 4.11728 17.7383 3.62839 18.1416 3.22505C18.545 2.82172 19.0339 2.62005 19.6083 2.62005C19.7061 2.62005 19.7855 2.65366 19.8466 2.72089C19.9078 2.78811 19.9383 2.87061 19.9383 2.96839V3.48172C19.9383 3.5795 19.9047 3.662 19.8375 3.72922C19.7703 3.79644 19.6878 3.83005 19.59 3.83005C19.3578 3.84228 19.1591 3.93089 18.9941 4.09589C18.8291 4.26089 18.7466 4.4595 18.7466 4.69172V7.79006C18.7466 7.88783 18.713 7.97033 18.6458 8.03756C18.5786 8.10478 18.4961 8.13839 18.3983 8.13839H17.8666Z" fill="#CB4B00"/>
</svg>
