<svg width="24" height="24" viewBox="0 0 24 24" fill="none" xmlns="http://www.w3.org/2000/svg">
<path fill-rule="evenodd" clip-rule="evenodd" d="M17.5898 3H6.39258C5.45508 3 4.65527 3.33138 3.99316 3.99413C3.33105 4.65689 3 5.45748 3 6.39589V16.1261C3.01172 16.2082 3.04688 16.2815 3.10547 16.3461C3.16406 16.4106 3.24024 16.4428 3.33399 16.4428H3.84375C3.92578 16.4428 3.99902 16.4106 4.06348 16.3461C4.12793 16.2815 4.16016 16.2082 4.16016 16.1261V6.39589C4.16016 5.78592 4.37988 5.26099 4.81934 4.82111C5.25879 4.38123 5.7832 4.16129 6.39258 4.16129H17.5898C18.1992 4.16129 18.7236 4.38123 19.1631 4.82111C19.6025 5.26099 19.8223 5.78592 19.8223 6.39589V17.6041C19.8223 17.6041 19.8223 17.607 19.8223 17.6129C19.8223 17.6188 19.8223 17.6217 19.8223 17.6217C19.8223 18.2317 19.6025 18.7566 19.1631 19.1965C18.7236 19.6364 18.1992 19.8563 17.5898 19.8563H6.39258C6.39258 19.8563 6.38965 19.8563 6.38379 19.8563C6.37793 19.8563 6.375 19.8563 6.375 19.8563C5.8125 19.8563 5.32324 19.6686 4.90723 19.2933C4.49121 18.9179 4.24219 18.4604 4.16015 17.9208C4.16015 17.827 4.13086 17.7507 4.07226 17.6921C4.01367 17.6334 3.94336 17.6041 3.86132 17.6041H3.35156C3.25781 17.6041 3.17871 17.6364 3.11425 17.7009C3.0498 17.7654 3.01757 17.8446 3.01757 17.9384C3.01757 17.9501 3.01757 17.9589 3.01757 17.9648C3.01757 17.9707 3.01757 17.9736 3.01757 17.9736C3.12304 18.8299 3.49218 19.5484 4.125 20.129C4.75781 20.7097 5.51367 21 6.39258 21H17.5898C17.5898 21 17.5928 21 17.5986 21C17.6045 21 17.6074 21 17.6074 21C18.5449 21 19.3447 20.6686 20.0068 20.0059C20.6689 19.3431 21 18.5425 21 17.6041V6.3959C21 5.45748 20.6689 4.65689 20.0068 3.99414C19.3447 3.33138 18.5449 3 17.6074 3C17.6074 3 17.6045 3 17.5986 3C17.5928 3 17.5898 3 17.5898 3ZM14.9707 10.4076C14.9004 9.90324 14.6719 9.47802 14.2852 9.13198C13.8984 8.78594 13.4473 8.61292 12.9316 8.61292C12.9316 8.61292 12.9258 8.61292 12.9141 8.61292H9.94336C9.84961 8.61292 9.77051 8.64518 9.70605 8.70969C9.6416 8.77421 9.60937 8.85339 9.60937 8.94723V12.2551C9.60937 12.349 9.6416 12.4282 9.70605 12.4927C9.77051 12.5572 9.84961 12.5895 9.94336 12.5895H12.9844C13.5352 12.5895 14.0039 12.3959 14.3906 12.0088C14.7773 11.6217 14.9707 11.1525 14.9707 10.6012C14.9707 10.566 14.9707 10.5308 14.9707 10.4956C14.9707 10.4604 14.9707 10.4311 14.9707 10.4076ZM10.7695 9.7918H12.9844C13.207 9.7918 13.4004 9.87098 13.5645 10.0293C13.7285 10.1877 13.8106 10.3783 13.8106 10.6012C13.8106 10.8358 13.7285 11.0323 13.5645 11.1906C13.4004 11.349 13.207 11.4282 12.9844 11.4282H10.7871L10.7695 9.7918ZM9.94336 17.6041H10.4531C10.5469 17.6041 10.626 17.5719 10.6904 17.5073C10.7549 17.4428 10.7871 17.3636 10.7871 17.2698V15.4047H12.8086C13.4766 15.4047 14.1094 15.2815 14.707 15.0352C15.293 14.7889 15.8115 14.4487 16.2627 14.0147C16.7139 13.5807 17.0742 13.0763 17.3438 12.5015C17.6133 11.915 17.7598 11.2933 17.7832 10.6364C17.7832 10.4018 17.7656 10.173 17.7305 9.95015C17.6953 9.72728 17.6484 9.51027 17.5898 9.29913C17.5664 9.2522 17.5283 9.20822 17.4756 9.16716C17.4229 9.1261 17.3555 9.10558 17.2734 9.10558C17.2617 9.10558 17.2441 9.10558 17.2207 9.10558C17.1973 9.10558 17.1797 9.11144 17.168 9.12317L16.6934 9.29913C16.6231 9.32259 16.5674 9.36071 16.5264 9.4135C16.4854 9.46628 16.4648 9.52786 16.4648 9.59825C16.4648 9.62171 16.4678 9.64223 16.4736 9.65983C16.4795 9.67742 16.4824 9.69209 16.4824 9.70382C16.5176 9.84458 16.5469 9.99121 16.5703 10.1437C16.5938 10.2962 16.6055 10.4546 16.6055 10.6188C16.6055 10.654 16.6025 10.6862 16.5967 10.7155C16.5908 10.7449 16.5879 10.7771 16.5879 10.8123C16.5527 11.2933 16.4297 11.739 16.2188 12.1496C16.0078 12.5719 15.7383 12.9355 15.4102 13.2405C15.082 13.5455 14.7012 13.7859 14.2676 13.9619C13.834 14.1496 13.3711 14.2434 12.8789 14.2434C12.8789 14.2434 12.873 14.2434 12.8613 14.2434C12.8496 14.2434 12.8379 14.2434 12.8262 14.2434H9.9082C9.81445 14.2434 9.73535 14.2757 9.6709 14.3402C9.60644 14.4047 9.57422 14.478 9.57422 14.5601V17.2874C9.58593 17.3812 9.62402 17.4575 9.68847 17.5161C9.75293 17.5748 9.82617 17.6041 9.9082 17.6041C9.91992 17.6041 9.92578 17.6041 9.92578 17.6041C9.92578 17.6041 9.93164 17.6041 9.94336 17.6041H9.94336ZM12.9844 5.81523H7.14844C7.06641 5.81523 6.99024 5.84752 6.91992 5.91203C6.84961 5.97655 6.81446 6.05573 6.81446 6.14957V17.305C6.81446 17.3988 6.84961 17.478 6.91992 17.5425C6.99024 17.607 7.06641 17.6393 7.14844 17.6393H7.67578C7.75781 17.6393 7.83399 17.607 7.9043 17.5425C7.97461 17.478 8.00977 17.3988 8.00977 17.305V6.97652H13.0195C13.0195 6.97652 13.0225 6.97652 13.0283 6.97652C13.0342 6.97652 13.0371 6.97652 13.0371 6.97652C13.5645 6.97652 14.0566 7.08209 14.5137 7.29323C14.9707 7.50438 15.3633 7.7859 15.6914 8.13781C15.7149 8.18473 15.75 8.21699 15.7969 8.23458C15.8438 8.25218 15.8906 8.26097 15.9375 8.26097C15.9727 8.26097 16.0078 8.25511 16.043 8.24338C16.0781 8.23165 16.1133 8.21405 16.1484 8.19059L16.5527 7.89147C16.5879 7.85628 16.6172 7.81523 16.6406 7.76831C16.6641 7.72138 16.6758 7.67446 16.6758 7.62754C16.6758 7.58062 16.6699 7.53957 16.6582 7.50438C16.6465 7.46918 16.6289 7.43986 16.6055 7.4164C16.1602 6.92373 15.6328 6.5337 15.0234 6.24631C14.4141 5.95892 13.752 5.81523 13.0371 5.81523C13.0371 5.81523 13.0313 5.81523 13.0195 5.81523C13.0078 5.81523 12.9961 5.81523 12.9844 5.81523Z" fill="#CB4B00"/>
</svg>
