<svg width="24" height="24" viewBox="0 0 24 24" fill="none" xmlns="http://www.w3.org/2000/svg">
<path fill-rule="evenodd" clip-rule="evenodd" d="M18.0327 12.2961C17.4484 12.2961 16.9511 12.5044 16.5408 12.9208C16.1306 13.3373 15.9254 13.8315 15.9254 14.4034C15.9254 14.9877 16.1306 15.4849 16.5408 15.8952C16.9511 16.3055 17.4483 16.5106 18.0327 16.5106C18.617 16.5106 19.1142 16.3055 19.5245 15.8952C19.9348 15.4849 20.1399 14.9877 20.1399 14.4034C20.1399 13.8315 19.9348 13.3404 19.5245 12.9302C19.1142 12.5199 18.617 12.3086 18.0327 12.2961ZM18.0327 15.2798C17.7964 15.2798 17.5944 15.1959 17.4266 15.0281C17.2588 14.8602 17.1748 14.6582 17.1748 14.422C17.1748 14.1734 17.2588 13.9651 17.4266 13.7973C17.5944 13.6295 17.7964 13.5456 18.0327 13.5456C18.2689 13.5456 18.474 13.6295 18.648 13.7973C18.8221 13.9651 18.9091 14.1734 18.9091 14.422C18.9091 14.6582 18.8221 14.8602 18.648 15.0281C18.474 15.1959 18.2689 15.2798 18.0327 15.2798ZM11.2821 5.37775C10.6977 5.37775 10.2005 5.58288 9.79021 5.99313C9.37995 6.40339 9.17483 6.90067 9.17483 7.48498C9.17483 8.06928 9.37995 8.56656 9.79021 8.97682C10.2005 9.38707 10.6977 9.5922 11.2821 9.5922C11.8664 9.5922 12.3636 9.38707 12.7739 8.97682C13.1842 8.56656 13.3893 8.06928 13.3893 7.48498C13.3768 6.90067 13.1655 6.4065 12.7552 6.00246C12.345 5.59842 11.8539 5.3964 11.2821 5.3964L11.2821 5.37775ZM11.2821 8.36143C11.0458 8.36143 10.8407 8.27441 10.6667 8.10036C10.4926 7.92631 10.4056 7.72118 10.4056 7.48498C10.4056 7.24877 10.4926 7.04675 10.6667 6.87892C10.8407 6.71108 11.0458 6.62717 11.2821 6.62717C11.5183 6.62717 11.7203 6.71108 11.8881 6.87892C12.0559 7.04675 12.1399 7.24877 12.1399 7.48498C12.1399 7.48498 12.1399 7.48808 12.1399 7.4943C12.1399 7.50052 12.1399 7.50362 12.1399 7.50362C12.1399 7.73983 12.0559 7.94496 11.8881 8.11901C11.7203 8.29306 11.5183 8.38008 11.2821 8.38008V8.36143ZM19.021 8.77169C19.021 8.18739 18.8158 7.6901 18.4056 7.27985C17.9953 6.86959 17.4981 6.66446 16.9138 6.66446C16.3419 6.66446 15.8508 6.86959 15.4406 7.27985C15.0303 7.6901 14.8252 8.18738 14.8252 8.77169C14.8252 9.35599 15.0303 9.85328 15.4406 10.2635C15.8508 10.6738 16.3419 10.8789 16.9138 10.8789C17.4981 10.8789 17.9953 10.6769 18.4056 10.2729C18.8158 9.86881 19.021 9.37464 19.021 8.79034V8.77169ZM16.0559 8.77169C16.0559 8.53548 16.1399 8.33346 16.3077 8.16563C16.4755 7.9978 16.6775 7.91388 16.9138 7.91388C17.15 7.91388 17.3551 7.9978 17.5291 8.16563C17.7032 8.33346 17.7902 8.53548 17.7902 8.77169C17.7902 9.0079 17.7032 9.21303 17.5291 9.38707C17.3551 9.56112 17.15 9.64815 16.9138 9.64815C16.6775 9.63571 16.4786 9.54869 16.317 9.38707C16.1554 9.22546 16.0684 9.02655 16.0559 8.79034V8.77169ZM11.9534 2.45001H11.9161C11.8788 2.45001 11.8446 2.45001 11.8135 2.45001C11.7824 2.45001 11.7545 2.45001 11.7296 2.45001C11.0334 2.45001 10.3497 2.50596 9.67832 2.61784C9.01942 2.72973 8.37607 2.89135 7.74825 3.10269C7.12043 3.31404 6.52059 3.56889 5.94872 3.86726C5.36441 4.17806 4.8174 4.52616 4.30769 4.91155C3.83528 4.53859 3.33178 4.18117 2.7972 3.83929C2.26263 3.49741 1.7094 3.17729 1.13753 2.87892L0.522144 2.54325C0.497281 2.53082 0.469309 2.5215 0.438229 2.51528C0.407148 2.50907 0.379176 2.50596 0.354313 2.50596C0.254857 2.50596 0.17094 2.54015 0.102564 2.60852C0.034188 2.6769 0 2.76081 0 2.86027C0 2.8727 0 2.88514 0 2.89757C0 2.91 0 2.91622 0 2.91622L0.0932398 3.45701C0.130536 3.66835 0.192696 3.97915 0.27972 4.38941C0.354313 4.78723 0.444444 5.2037 0.550117 5.63882C0.655788 6.07394 0.770785 6.4842 0.895105 6.86959C1.01942 7.26741 1.14996 7.55335 1.28671 7.7274C1.32401 7.77713 1.36441 7.82686 1.40793 7.87658C1.45144 7.92631 1.49806 7.97604 1.54779 8.02577C1.18726 8.64737 0.901324 9.32492 0.689975 10.0584C0.47863 10.7919 0.372959 11.5565 0.372959 12.3521C0.372959 13.011 0.422686 13.6264 0.522142 14.1983C0.609166 14.7701 0.749027 15.3016 0.941723 15.7927C1.13442 16.2837 1.37374 16.7282 1.65967 17.126C1.94561 17.5238 2.27506 17.8781 2.64801 18.1889C2.85936 18.363 3.09867 18.4997 3.36596 18.5992C3.63325 18.6987 3.91608 18.7484 4.21445 18.7484C4.26418 18.7484 4.31701 18.7453 4.37296 18.7391C4.4289 18.7328 4.48174 18.7297 4.53147 18.7297C4.86713 18.6924 5.17793 18.593 5.46386 18.4314C5.7498 18.2697 5.99222 18.0584 6.19114 17.7973L6.50815 17.3871C6.52059 17.3498 6.53302 17.3156 6.54545 17.2845C6.55788 17.2534 6.5641 17.213 6.5641 17.1633C6.5641 17.126 6.55788 17.0918 6.54545 17.0607C6.53302 17.0297 6.51437 16.9955 6.48951 16.9582L6.17249 16.5106C6.13519 16.4609 6.09168 16.4236 6.04195 16.3987C5.99223 16.3739 5.93628 16.3614 5.87412 16.3614C5.82439 16.3614 5.77467 16.3739 5.72494 16.3987C5.67521 16.4236 5.6317 16.4609 5.5944 16.5106L5.18415 17.0701C5.09712 17.1944 4.98523 17.2969 4.84848 17.3778C4.71173 17.4586 4.56876 17.5114 4.41958 17.5363C4.39471 17.5363 4.36674 17.5363 4.33566 17.5363C4.30458 17.5363 4.27661 17.5363 4.25174 17.5363C4.10256 17.5363 3.9627 17.5114 3.83216 17.4617C3.70163 17.4119 3.58042 17.3436 3.46853 17.2565C2.84693 16.7593 2.38384 16.1035 2.07925 15.2892C1.77466 14.4749 1.62237 13.5083 1.62237 12.3894C1.62237 11.6808 1.71561 11.0032 1.90209 10.3568C2.08857 9.71031 2.34343 9.10114 2.66666 8.52927L2.64801 8.56657C2.64801 8.6163 2.6449 8.66292 2.63869 8.70643C2.63247 8.74994 2.62936 8.79656 2.62936 8.84629C2.62936 9.10736 2.67288 9.356 2.7599 9.59221C2.84692 9.82842 2.95881 10.0398 3.09556 10.2262L7.98134 16.9395C8.01864 16.9893 8.06215 17.0266 8.11188 17.0514C8.16161 17.0763 8.21134 17.0887 8.26106 17.0887C8.31079 17.0887 8.3512 17.0825 8.38228 17.0701C8.41336 17.0577 8.44133 17.0452 8.46619 17.0328L8.91374 16.7158C8.95104 16.6785 8.98212 16.635 9.00699 16.5852C9.03185 16.5355 9.04428 16.4796 9.04428 16.4174C9.04428 16.3801 9.04117 16.3459 9.03496 16.3148C9.02874 16.2838 9.0132 16.2496 8.98834 16.2123L5.96736 12.0538L7.36596 11.0281L11.0023 16.0631L11.5058 15.7088L11.0023 16.0817C11.0769 16.1688 11.136 16.2713 11.1795 16.3894C11.223 16.5075 11.2448 16.635 11.2448 16.7717C11.2448 16.896 11.223 17.0173 11.1795 17.1354C11.136 17.2535 11.0769 17.3622 11.0023 17.4617L10.7786 17.7787C10.6418 17.9652 10.533 18.1796 10.4522 18.4221C10.3714 18.6645 10.331 18.9162 10.331 19.1773C10.331 19.3762 10.3528 19.5658 10.3963 19.7461C10.4398 19.9263 10.505 20.0973 10.5921 20.2589C10.791 20.6443 11.0769 20.9551 11.4499 21.1913C11.8228 21.4275 12.2393 21.5456 12.6993 21.5456C12.6993 21.5456 12.7024 21.5456 12.7086 21.5456C12.7148 21.5456 12.7179 21.5456 12.7179 21.5456C14.3217 21.5456 15.8135 21.3032 17.1935 20.8183C18.5734 20.3335 19.7669 19.6653 20.7739 18.8137C21.7809 17.9621 22.5703 16.952 23.1422 15.7834C23.7141 14.6272 24 13.3653 24 11.9978C24 10.6427 23.7016 9.38088 23.1049 8.21227C22.4957 7.04366 21.6566 6.03356 20.5874 5.18197C19.5183 4.33038 18.2502 3.66215 16.7832 3.17731C15.3038 2.69246 13.6939 2.45001 11.9534 2.45001H11.9534ZM3.50582 7.18661C3.43123 7.24877 3.35042 7.29539 3.2634 7.32647C3.17637 7.35755 3.08313 7.37309 2.98368 7.37309C2.83449 7.37309 2.69774 7.3389 2.57342 7.27053C2.4491 7.20215 2.34964 7.11202 2.27505 7.00013C2.11344 6.6396 1.97358 6.25421 1.85547 5.84395C1.73737 5.4337 1.64102 5.01722 1.56643 4.59454C1.96425 4.76858 2.34343 4.97371 2.70396 5.20992C3.06449 5.44613 3.40637 5.7072 3.7296 5.99314C3.7669 6.0553 3.80108 6.12989 3.83216 6.21691C3.86324 6.30394 3.87878 6.39096 3.87878 6.47799C3.87878 6.62717 3.8446 6.76392 3.77622 6.88824C3.70784 7.01256 3.61771 7.11202 3.50582 7.18661H3.50582ZM5.22144 11.0467L4.06526 9.46167C4.01553 9.38708 3.97513 9.30316 3.94405 9.20992C3.91297 9.11668 3.89743 9.01412 3.89743 8.90223C3.89743 8.75305 3.9285 8.61629 3.99066 8.49197C4.05282 8.36765 4.14607 8.26198 4.27038 8.17496C4.33255 8.12523 4.40403 8.08793 4.48484 8.06307C4.56565 8.03821 4.64956 8.02577 4.73659 8.02577C4.88577 8.02577 5.02252 8.05685 5.14684 8.11901C5.27116 8.18117 5.37062 8.2682 5.44521 8.38008L6.63868 10.0398L5.22144 11.0467ZM12.6993 20.3148C12.4755 20.3148 12.2766 20.2557 12.1025 20.1376C11.9285 20.0195 11.7979 19.8734 11.7109 19.6994C11.6612 19.6124 11.6239 19.5222 11.599 19.429C11.5742 19.3358 11.5617 19.2394 11.5617 19.14C11.5617 19.0156 11.5835 18.8944 11.627 18.7763C11.6705 18.6582 11.7296 18.5494 11.8042 18.45L12.0279 18.133C12.1771 17.9341 12.2921 17.7134 12.3729 17.471C12.4537 17.2285 12.4941 16.9768 12.4941 16.7157C12.4941 16.4422 12.4537 16.1842 12.3729 15.9418C12.2921 15.6994 12.1771 15.4787 12.0279 15.2798L6.48947 7.70875C6.31542 7.46011 6.10408 7.25498 5.85544 7.09336C5.6068 6.93174 5.3333 6.82607 5.03493 6.77634C5.03493 6.75148 5.03493 6.71729 5.03493 6.67378C5.03493 6.63027 5.03493 6.58986 5.03493 6.55257C5.03493 6.45311 5.02871 6.35055 5.01628 6.24488C5.00385 6.1392 4.97899 6.03664 4.94169 5.93718C5.41411 5.58909 5.91139 5.27828 6.43353 5.00479C6.95568 4.71885 7.49958 4.47953 8.06524 4.28684C8.63089 4.09414 9.2183 3.94806 9.82748 3.84861C10.4366 3.73672 11.0582 3.68078 11.6923 3.68078C11.7296 3.68078 11.7669 3.68078 11.8042 3.68078C11.8415 3.68078 11.8788 3.68078 11.9161 3.68078H11.9534C13.5198 3.68078 14.9619 3.89212 16.2797 4.31481C17.6099 4.72507 18.7537 5.30004 19.7109 6.03975C20.6682 6.77945 21.4203 7.65902 21.9673 8.67844C22.5019 9.68544 22.7692 10.7919 22.7692 11.9978C22.7692 13.1913 22.5143 14.2977 22.0046 15.3171C21.4949 16.3366 20.7894 17.2161 19.8881 17.9558C18.9868 18.6955 17.9207 19.2705 16.69 19.6808C15.4716 20.1035 14.1414 20.3148 12.6993 20.3148H12.6993Z" fill="#CB4B00"/>
</svg>
