<svg width="24" height="24" viewBox="0 0 24 24" fill="none" xmlns="http://www.w3.org/2000/svg">
<path fill-rule="evenodd" clip-rule="evenodd" d="M20.5484 11.5038C20.4887 10.6914 20.2796 9.92677 19.9212 9.20993C19.5628 8.50503 19.1028 7.89272 18.5412 7.37301C17.9797 6.85329 17.3346 6.4441 16.6058 6.14541C15.865 5.84672 15.0825 5.69738 14.2581 5.69738H12.5914V4.01278H15.2438C15.3393 4.01278 15.42 3.97993 15.4857 3.91422C15.5514 3.84851 15.5843 3.76786 15.5843 3.67228V3.17049C15.5843 3.07491 15.5514 2.99426 15.4857 2.92855C15.42 2.86284 15.3393 2.82999 15.2438 2.82999H8.75628C8.67264 2.82999 8.59499 2.86284 8.5233 2.92855C8.45162 2.99426 8.41577 3.07491 8.41577 3.17049V3.6902C8.41577 3.78578 8.45162 3.86643 8.5233 3.93214C8.59499 3.99785 8.67264 4.03071 8.75628 4.03071H11.4086V5.69737H9.74194C8.90562 5.69737 8.12307 5.84672 7.39427 6.1454C6.66547 6.44409 6.02032 6.85329 5.45879 7.37301C4.89726 7.89272 4.44325 8.50503 4.09678 9.20993C3.73835 9.91482 3.5233 10.6735 3.45161 11.4859C3.03345 11.6173 2.68698 11.8623 2.41219 12.2207C2.13739 12.5791 2 12.9853 2 13.4393C2 14.0008 2.19415 14.4787 2.58244 14.873C2.97073 15.2673 3.44564 15.4644 4.00717 15.4644C4.01912 15.4644 4.02808 15.4644 4.03405 15.4644C4.04002 15.4644 4.04898 15.4644 4.06093 15.4644H4.34767C4.14456 15.7631 3.93847 16.0588 3.72939 16.3515C3.52031 16.6442 3.36798 16.8682 3.2724 17.0236C3.12903 17.2267 3.01553 17.4566 2.9319 17.7135C2.84827 17.9704 2.80645 18.2362 2.80645 18.511C2.80645 19.2518 3.06631 19.882 3.58602 20.4017C4.10573 20.9214 4.73596 21.1813 5.4767 21.1813C6.21745 21.1813 6.84767 20.9214 7.36739 20.4017C7.8871 19.882 8.14695 19.2518 8.14695 18.511C8.14695 18.2362 8.10813 17.9704 8.03047 17.7135C7.95281 17.4566 7.83632 17.2207 7.681 17.0056L6.58782 15.4644H6.89247C6.89247 15.4644 6.89845 15.4644 6.91039 15.4644C7.45998 15.4644 7.9319 15.2673 8.32616 14.873C8.72043 14.4787 8.91756 14.0009 8.91756 13.4393C8.91756 12.9973 8.78913 12.603 8.53226 12.2565C8.27539 11.91 7.94384 11.6711 7.53763 11.5397C7.64516 11.014 7.90501 10.5839 8.3172 10.2493C8.72939 9.91482 9.2043 9.74756 9.74193 9.74756H14.2581C14.8076 9.74756 15.2855 9.91482 15.6918 10.2493C16.098 10.5839 16.3608 11.002 16.4803 11.5038C16.0741 11.6472 15.7395 11.8951 15.4767 12.2476C15.2139 12.6 15.0824 12.9973 15.0824 13.4393V16.2888C15.0824 16.7428 15.2168 17.146 15.4857 17.4985C15.7545 17.8509 16.092 18.0928 16.4982 18.2243L16.5161 20.8407C16.5161 20.9363 16.549 21.017 16.6147 21.0827C16.6804 21.1484 16.761 21.1813 16.8566 21.1813H17.3763C17.4719 21.1813 17.5526 21.1484 17.6183 21.0827C17.684 21.017 17.7168 20.9363 17.7168 20.8407V18.2959H19.3835V20.8228C19.3835 20.9184 19.4164 20.9991 19.4821 21.0648C19.5478 21.1305 19.6284 21.1633 19.724 21.1633H20.2437C20.3393 21.1633 20.42 21.1305 20.4857 21.0648C20.5514 20.9991 20.5842 20.9184 20.5842 20.8228V18.2243C20.9904 18.0928 21.328 17.8509 21.5968 17.4985C21.8656 17.146 22 16.7428 22 16.2888V13.4393C22 12.9853 21.8656 12.5821 21.5968 12.2296C21.328 11.8772 20.9845 11.6352 20.5663 11.5038L20.5484 11.5038ZM6.92835 18.511C6.92835 18.511 6.92835 18.514 6.92835 18.52C6.92835 18.526 6.92835 18.5349 6.92835 18.5469C6.92835 18.9531 6.78498 19.2996 6.49824 19.5863C6.2115 19.873 5.86502 20.0164 5.45881 20.0164C5.04065 20.0164 4.6882 19.873 4.40146 19.5863C4.11472 19.2996 3.97135 18.9531 3.97135 18.5469C3.97135 18.3916 3.99525 18.2422 4.04304 18.0988C4.09083 17.9555 4.15654 17.824 4.24017 17.7046C4.3477 17.5373 4.52392 17.2715 4.76884 16.9071C5.01377 16.5427 5.24376 16.2111 5.45881 15.9125L6.67745 17.7046C6.76108 17.8121 6.82381 17.9346 6.86562 18.072C6.90744 18.2094 6.92835 18.3557 6.92835 18.511ZM6.89251 14.2637H4.02512C3.79812 14.2637 3.60099 14.1831 3.43372 14.0218C3.26646 13.8605 3.18283 13.6663 3.18283 13.4393C3.18283 13.2004 3.26646 13.0003 3.43372 12.839C3.60099 12.6777 3.79812 12.597 4.02512 12.597H6.89251C7.11951 12.597 7.31365 12.6777 7.47494 12.839C7.63623 13.0003 7.71688 13.2004 7.71688 13.4393C7.71688 13.6663 7.63623 13.8605 7.47494 14.0218C7.31365 14.1831 7.11951 14.2637 6.89251 14.2637ZM14.2581 8.54686H9.74196C8.89369 8.55881 8.15295 8.8336 7.51974 9.37123C6.88652 9.90887 6.49226 10.5779 6.33695 11.3784L4.65235 11.4142C4.73599 10.7691 4.92117 10.1717 5.20791 9.62213C5.5066 9.07255 5.88294 8.59465 6.33694 8.18844C6.79094 7.78222 7.30468 7.46562 7.87816 7.23862C8.46359 6.99967 9.07888 6.88019 9.72404 6.88019H14.2581C14.9152 6.88019 15.5305 6.99369 16.104 7.2207C16.6894 7.45964 17.2091 7.78223 17.6631 8.18844C18.1171 8.59465 18.4875 9.06658 18.7742 9.60421C19.0729 10.1538 19.2581 10.7452 19.3298 11.3784L17.6631 11.4142C17.5198 10.5899 17.1285 9.90588 16.4893 9.36227C15.8501 8.81867 15.1064 8.54686 14.2581 8.54686L14.2581 8.54686ZM20.7993 16.2888C20.7993 16.5158 20.7187 16.7099 20.5574 16.8712C20.3961 17.0325 20.202 17.1131 19.975 17.1131H17.1255C16.8985 17.1131 16.7014 17.0325 16.5341 16.8712C16.3668 16.7099 16.2832 16.5158 16.2832 16.2888V13.4393C16.2832 13.2123 16.3668 13.0152 16.5341 12.8479C16.7014 12.6806 16.8985 12.597 17.1255 12.597H19.975C20.2139 12.597 20.414 12.6806 20.5753 12.8479C20.7366 13.0152 20.8173 13.2123 20.8173 13.4393L20.7993 16.2888Z" fill="#CB4B00"/>
</svg>
