<svg width="24" height="24" viewBox="0 0 24 24" fill="none" xmlns="http://www.w3.org/2000/svg">
<path fill-rule="evenodd" clip-rule="evenodd" d="M23.8614 10.7978L20.4996 8.35452V3.38123C20.4996 3.28881 20.4679 3.21083 20.4043 3.1473C20.3408 3.08376 20.2628 3.05199 20.1704 3.05199H16.8433C16.7509 3.05199 16.6729 3.08376 16.6094 3.1473C16.5458 3.21083 16.5141 3.28881 16.5141 3.38123V3.88376C16.5141 3.97618 16.5458 4.05416 16.6094 4.11769C16.6729 4.18123 16.7509 4.213 16.8433 4.213H19.3559V7.52275L13.2216 3.06931C13.1985 3.04621 13.1697 3.02888 13.135 3.01733C13.1003 3.00578 13.0657 3 13.031 3C12.9964 3 12.9617 3.00578 12.9271 3.01733C12.8924 3.02888 12.8635 3.04621 12.8404 3.06931L2.18335 10.7978C2.1487 10.8325 2.1227 10.87 2.10538 10.9105C2.08805 10.9509 2.07938 11 2.07938 11.0578C2.07938 11.1386 2.10826 11.2108 2.16603 11.2744C2.22379 11.3379 2.2931 11.3697 2.37397 11.3697H3.18841C3.23462 11.3697 3.27794 11.3639 3.31837 11.3523C3.3588 11.3408 3.39635 11.3235 3.43101 11.3004L13.0137 4.33432L22.6137 11.3177C22.6484 11.3408 22.6859 11.3581 22.7264 11.3697C22.7668 11.3812 22.8101 11.387 22.8563 11.387H23.6708C23.7632 11.387 23.8412 11.3552 23.9047 11.2917C23.9682 11.2282 24 11.156 24 11.0751C24 11.0173 23.9884 10.9653 23.9653 10.9191C23.9422 10.8729 23.9076 10.8325 23.8614 10.7978L23.8614 10.7978ZM21.574 12.2014H21.0715C20.979 12.2014 20.9011 12.2332 20.8375 12.2968C20.774 12.3603 20.7422 12.4383 20.7422 12.5307V19.6007H15.0065V14.4368C15.0065 14.3444 14.9747 14.2664 14.9112 14.2029C14.8476 14.1393 14.7696 14.1076 14.6772 14.1076H11.4021C11.3097 14.1076 11.2317 14.1393 11.1682 14.2029C11.1047 14.2664 11.0729 14.3444 11.0729 14.4368V19.6007H6.44618C6.35376 19.6007 6.27578 19.6325 6.21224 19.696C6.1487 19.7596 6.11693 19.8375 6.11693 19.93V20.4152C6.11693 20.5076 6.1487 20.5856 6.21224 20.6491C6.27578 20.7126 6.35376 20.7444 6.44618 20.7444H11.9047C11.9855 20.7444 12.0577 20.7126 12.1213 20.6491C12.1848 20.5856 12.2166 20.5076 12.2166 20.4152V15.2686H13.8281V20.4152C13.8281 20.5076 13.8599 20.5856 13.9234 20.6491C13.987 20.7126 14.065 20.7444 14.1574 20.7444H21.5567C21.6491 20.7444 21.7271 20.7126 21.7906 20.6491C21.8541 20.5856 21.8859 20.5076 21.8859 20.4152V12.5133C21.8859 12.5133 21.8859 12.5104 21.8859 12.5047C21.8859 12.4989 21.8859 12.496 21.8859 12.496C21.8859 12.4036 21.8541 12.3256 21.7906 12.2621C21.7271 12.1985 21.6491 12.1668 21.5567 12.1668L21.574 12.2014ZM7.38195 17.4173V17.6599C7.38195 17.7524 7.41372 17.8303 7.47725 17.8939C7.54079 17.9574 7.61877 17.9892 7.71119 17.9892H8.21372C8.30614 17.9892 8.38411 17.9574 8.44765 17.8939C8.51119 17.8303 8.54296 17.7524 8.54296 17.6599V17.4173C8.54296 16.5163 8.23104 15.7451 7.60722 15.104C6.98339 14.4628 6.22094 14.1249 5.31985 14.0903V12.5134C5.31985 12.5134 5.31985 12.5105 5.31985 12.5047C5.31985 12.4989 5.31985 12.496 5.31985 12.496C5.31985 12.4036 5.28808 12.3256 5.22455 12.2621C5.16101 12.1986 5.08303 12.1668 4.99061 12.1668H4.48808C4.39566 12.1668 4.31769 12.1986 4.25415 12.2621C4.19061 12.3256 4.15884 12.4036 4.15884 12.496V14.2116C3.58122 14.4079 3.09025 14.7372 2.68592 15.1993C2.28159 15.6614 2.02744 16.1928 1.92346 16.7935C1.3805 16.8051 0.924188 17.0014 0.554513 17.3827C0.184837 17.7639 0 18.2202 0 18.7516C0 19.2946 0.190614 19.7567 0.571842 20.1379C0.953069 20.5191 1.40939 20.7097 1.94079 20.7097C1.95235 20.7097 1.96101 20.7097 1.96679 20.7097C1.97256 20.7097 1.97545 20.7097 1.97545 20.7097H2.21805C2.31047 20.7097 2.38845 20.678 2.45198 20.6144C2.51552 20.5509 2.54729 20.4729 2.54729 20.3805V19.878C2.54729 19.7971 2.51552 19.7249 2.45198 19.6614C2.38845 19.5978 2.31047 19.5661 2.21805 19.5661H1.97545C1.75596 19.5661 1.56823 19.4852 1.41227 19.3235C1.25632 19.1617 1.17834 18.9711 1.17834 18.7516C1.17834 18.5321 1.25632 18.3444 1.41227 18.1884C1.56823 18.0325 1.75596 17.9545 1.97545 17.9545H2.70325C2.78412 17.9545 2.85632 17.9199 2.91986 17.8505C2.98339 17.7812 3.01516 17.7061 3.01516 17.6253V17.3653C3.01516 16.7646 3.22888 16.2505 3.65632 15.8231C4.08375 15.3957 4.59783 15.182 5.19855 15.182C5.81083 15.182 6.3278 15.3957 6.74946 15.8231C7.17112 16.2505 7.38195 16.7646 7.38195 17.3653L7.38195 17.4173ZM13.0137 12.0628C13.5567 12.0628 14.0188 11.8722 14.4 11.491C14.7812 11.1098 14.9718 10.6477 14.9718 10.1047C14.9718 9.57329 14.7812 9.11698 14.4 8.73575C14.0188 8.35452 13.5567 8.16391 13.0137 8.16391C12.4823 8.16391 12.026 8.35452 11.6448 8.73575C11.2635 9.11698 11.0729 9.5733 11.0729 10.1047C11.0729 10.6477 11.2635 11.1098 11.6448 11.491C12.026 11.8722 12.4823 12.0628 13.0137 12.0628ZM13.0137 9.30759C13.2448 9.30759 13.4383 9.38557 13.5942 9.54153C13.7502 9.69748 13.8282 9.88521 13.8282 10.1047C13.8282 10.3242 13.7502 10.5119 13.5942 10.6679C13.4383 10.8238 13.2448 10.9018 13.0137 10.9018C12.7942 10.9018 12.6065 10.8238 12.4505 10.6679C12.2946 10.5119 12.2166 10.3242 12.2166 10.1047C12.2166 9.88521 12.2946 9.69748 12.4505 9.54153C12.6065 9.38557 12.7942 9.30759 13.0137 9.30759Z" fill="#CB4B00"/>
</svg>
