<svg width="24" height="24" viewBox="0 0 24 24" fill="none" xmlns="http://www.w3.org/2000/svg">
<path fill-rule="evenodd" clip-rule="evenodd" d="M22.8032 13.9826L18.1592 10.598L21.8784 5.44238C22.0096 5.25872 22.1112 5.05538 22.1834 4.83236C22.2555 4.60935 22.2916 4.37977 22.2916 4.14363C22.2916 3.52705 22.0752 3.00231 21.6422 2.56939C21.2093 2.13647 20.6846 1.92001 20.068 1.92001C19.7007 1.92001 19.3629 2.00201 19.0546 2.16599C18.7463 2.32997 18.4872 2.54971 18.2773 2.8252L14.5581 7.98085L9.89445 4.59623C9.86821 4.56999 9.83541 4.55031 9.79606 4.53719C9.7567 4.52407 9.71735 4.51752 9.67799 4.51752C9.62551 4.51752 9.57304 4.53391 9.52057 4.56671C9.46809 4.59951 9.42217 4.63558 9.38282 4.67494L7.74954 6.91823L7.37566 7.44954L7.00178 7.96117L5.03397 10.6571C4.79784 10.9194 4.53218 11.1392 4.23701 11.3163C3.94184 11.4934 3.61716 11.6213 3.26295 11.7L2.71197 11.8771C2.63326 11.9033 2.57094 11.9493 2.52503 12.0148C2.47911 12.0804 2.45616 12.1526 2.45616 12.2313C2.45616 12.2838 2.46927 12.3363 2.49551 12.3887C2.52175 12.4412 2.5611 12.4871 2.61358 12.5265L6.37208 15.2617C6.39832 15.2748 6.43112 15.288 6.47047 15.3011C6.50983 15.3142 6.54918 15.3208 6.58854 15.3208C6.64102 15.3208 6.69349 15.3109 6.74597 15.2912C6.79844 15.2716 6.8378 15.242 6.86403 15.2027L7.19856 14.7304C7.2248 14.7042 7.24447 14.6747 7.25759 14.6419C7.27071 14.6091 7.27727 14.5664 7.27727 14.514C7.27727 14.4615 7.26415 14.409 7.23792 14.3565C7.21168 14.3041 7.17232 14.2581 7.11985 14.2188L4.77816 12.5068C5.04053 12.3756 5.27995 12.2215 5.49641 12.0444C5.71287 11.8673 5.90637 11.6672 6.07691 11.4442L8.04472 8.72861L19.4383 17.0131L17.4705 19.709C17.2868 19.932 17.0704 20.1255 16.8211 20.2895C16.5719 20.4535 16.3095 20.5748 16.034 20.6535L8.83181 15.4388C8.80558 15.4257 8.77278 15.4126 8.73342 15.3995C8.69407 15.3864 8.65471 15.3798 8.61535 15.3798C8.54976 15.3798 8.49073 15.3929 8.43825 15.4192C8.38578 15.4454 8.34642 15.4782 8.32018 15.5175L7.98566 15.9898C7.95942 16.0161 7.93974 16.0489 7.92662 16.0882C7.9135 16.1276 7.90694 16.1669 7.90694 16.2063C7.90694 16.2588 7.92006 16.3112 7.9463 16.3637C7.97254 16.4162 8.01189 16.4621 8.06437 16.5015L15.6601 22.0113C15.6995 22.0375 15.7355 22.0572 15.7683 22.0703C15.8011 22.0835 15.8372 22.09 15.8766 22.09C15.9028 22.09 15.9257 22.0867 15.9454 22.0802C15.9651 22.0736 15.9815 22.0703 15.9946 22.0703L16.1324 22.031C16.6309 21.8998 17.0835 21.703 17.4901 21.4406C17.8968 21.1783 18.2576 20.8634 18.5724 20.4961L20.5402 17.8002L22.9213 14.5336C22.9475 14.5074 22.9672 14.4746 22.9803 14.4353C22.9934 14.3959 23 14.35 23 14.2975C23 14.2319 22.9836 14.1696 22.9508 14.1106C22.918 14.0515 22.8688 14.0089 22.8032 13.9827L22.8032 13.9826ZM19.3596 3.61229C19.4383 3.49422 19.5432 3.39911 19.6744 3.32696C19.8056 3.25481 19.9434 3.21873 20.0877 3.21873C20.3369 3.21873 20.5534 3.31056 20.737 3.49422C20.9207 3.67788 21.0125 3.89434 21.0125 4.1436C21.0125 4.24855 20.9961 4.34694 20.9633 4.43877C20.9305 4.5306 20.8879 4.60931 20.8354 4.67491L17.0966 9.81087L15.6208 8.74826L19.3596 3.61229ZM20.2057 15.9701L8.83184 7.68561L9.89445 6.19008L21.288 14.4745L20.2057 15.9701ZM3.99106 16.0685L3.75492 15.7339C3.72869 15.6946 3.68933 15.6585 3.63686 15.6257C3.58438 15.5929 3.52535 15.5765 3.45975 15.5765C3.39416 15.5765 3.33513 15.5929 3.28265 15.6257C3.23018 15.6585 3.18426 15.6946 3.1449 15.7339L2.90877 16.0685C2.90877 16.0685 2.70215 16.3669 2.28891 16.9638C1.87567 17.5607 1.58378 17.9838 1.41324 18.2331C1.28205 18.4167 1.18038 18.6266 1.10823 18.8627C1.03608 19.0989 1 19.3416 1 19.5908C1 20.273 1.23942 20.8535 1.71825 21.3323C2.19708 21.8112 2.77102 22.0506 3.44008 22.0506C4.12226 22.0506 4.70275 21.8112 5.18159 21.3323C5.66042 20.8535 5.89984 20.273 5.89984 19.5908C5.89984 19.3416 5.86048 19.0989 5.78177 18.8627C5.70306 18.6266 5.59811 18.4102 5.46692 18.2134L3.99106 16.0685ZM3.45975 20.7322C3.45975 20.7322 3.45647 20.7322 3.44991 20.7322C3.44336 20.7322 3.44007 20.7322 3.44007 20.7322C3.12523 20.7322 2.85629 20.6207 2.63328 20.3976C2.41026 20.1746 2.29875 19.9057 2.29875 19.5908C2.29875 19.4728 2.31515 19.358 2.34795 19.2465C2.38074 19.135 2.42994 19.0333 2.49553 18.9415L3.44008 17.5837L4.38462 18.9415C4.45022 19.0333 4.49941 19.135 4.53221 19.2465C4.565 19.358 4.5814 19.4728 4.5814 19.5908C4.5814 19.9057 4.46989 20.1746 4.24688 20.3976C4.02386 20.6207 3.75492 20.7322 3.44008 20.7322H3.45975Z" fill="#CB4B00"/>
</svg>
