<svg width="24" height="24" viewBox="0 0 24 24" fill="none" xmlns="http://www.w3.org/2000/svg">
<path fill-rule="evenodd" clip-rule="evenodd" d="M19.7582 15.5863H22.4C22.4869 15.5863 22.5644 15.5522 22.6326 15.484C22.7008 15.4158 22.7349 15.332 22.7349 15.2328V14.6933C22.7349 14.5941 22.7008 14.5103 22.6326 14.4421C22.5644 14.3739 22.4869 14.3398 22.4 14.3398H19.7582C19.659 14.3398 19.5752 14.3739 19.507 14.4421C19.4388 14.5103 19.4047 14.5941 19.4047 14.6933V15.2328C19.4047 15.332 19.4388 15.4158 19.507 15.484C19.5752 15.5522 19.659 15.5863 19.7582 15.5863ZM19.7582 9.65141H22.4C22.4869 9.65141 22.5644 9.6173 22.6326 9.54909C22.7008 9.48087 22.7349 9.39715 22.7349 9.29792V8.75839C22.7349 8.65916 22.7008 8.57544 22.6326 8.50722C22.5644 8.43901 22.4869 8.4049 22.4 8.4049H19.7582C19.659 8.4049 19.5752 8.43901 19.507 8.50722C19.4388 8.57544 19.4047 8.65916 19.4047 8.75839V9.26071C19.4047 9.26071 19.4047 9.26381 19.4047 9.27002C19.4047 9.27622 19.4047 9.28552 19.4047 9.29792C19.4047 9.39715 19.4388 9.48087 19.507 9.54909C19.5752 9.6173 19.659 9.65141 19.7582 9.65141ZM19.7582 12.6096H22.4C22.4869 12.6096 22.5644 12.5754 22.6326 12.5072C22.7008 12.439 22.7349 12.3553 22.7349 12.2561V11.7351C22.7349 11.6359 22.7008 11.5522 22.6326 11.484C22.5644 11.4158 22.4869 11.3816 22.4 11.3816H19.7582C19.659 11.3816 19.5752 11.4158 19.507 11.484C19.4388 11.5522 19.4047 11.6359 19.4047 11.7351V12.2747C19.4171 12.3615 19.4543 12.439 19.5163 12.5072C19.5783 12.5754 19.659 12.6096 19.7582 12.6096ZM12.8 9.65141C12.8993 9.65141 12.983 9.6173 13.0512 9.54909C13.1194 9.48087 13.1535 9.39715 13.1535 9.29792V8.75839C13.1535 8.65916 13.1194 8.57544 13.0512 8.50722C12.983 8.43901 12.8993 8.4049 12.8 8.4049H8.65121C8.55198 8.4049 8.46826 8.43901 8.40004 8.50722C8.33183 8.57544 8.29772 8.65916 8.29772 8.75839V9.26071C8.29772 9.35994 8.33183 9.44366 8.40004 9.51188C8.46826 9.58009 8.55198 9.6142 8.65121 9.6142L12.8 9.65141ZM19.7582 18.5258H22.4C22.4869 18.5258 22.5644 18.4917 22.6326 18.4235C22.7008 18.3553 22.7349 18.2716 22.7349 18.1724V17.67C22.7349 17.5708 22.7008 17.4871 22.6326 17.4189C22.5644 17.3506 22.4869 17.3165 22.4 17.3165H19.7582C19.659 17.3165 19.5752 17.3506 19.507 17.4189C19.4388 17.4871 19.4047 17.5708 19.4047 17.67V18.191C19.4171 18.2902 19.4574 18.3708 19.5256 18.4328C19.5938 18.4948 19.6714 18.5258 19.7582 18.5258ZM13.1721 2.47H8.46513C7.73335 2.47 7.11009 2.72737 6.59536 3.2421C6.08063 3.75683 5.82327 4.38008 5.82327 5.11187V8.51653L1.82326 9.31653C1.30233 9.42816 0.868215 9.68863 0.520931 10.0979C0.173644 10.5072 0 10.9847 0 11.5305V17.9119C0 18.3956 0.145737 18.8235 0.43721 19.1956C0.728683 19.5677 1.09768 19.8158 1.54419 19.9398C1.68062 20.3863 1.93488 20.7522 2.30698 21.0375C2.67907 21.3227 3.10078 21.4654 3.5721 21.4654C4.03101 21.4654 4.44032 21.332 4.8 21.0654C5.15969 20.7987 5.41396 20.4545 5.56279 20.0328H6.95814C7.05737 20.0328 7.14109 19.9987 7.20931 19.9305C7.27752 19.8623 7.31163 19.7785 7.31163 19.6793V19.1398C7.31163 19.0406 7.27752 18.9568 7.20931 18.8886C7.14109 18.8204 7.05737 18.7863 6.95814 18.7863H5.56279C5.42636 18.3646 5.1752 18.0142 4.80931 17.7351C4.44341 17.4561 4.02481 17.3165 3.55349 17.3165C3.11938 17.3165 2.72558 17.4406 2.37209 17.6886C2.0186 17.9367 1.76744 18.2592 1.61861 18.6561C1.49458 18.5817 1.39845 18.4824 1.33023 18.3584C1.26202 18.2344 1.22791 18.0979 1.22791 17.9491C1.22791 17.9491 1.22791 17.9429 1.22791 17.9305C1.22791 17.9181 1.22791 17.9119 1.22791 17.9119V11.5305C1.22791 11.2824 1.30543 11.0654 1.46047 10.8793C1.61551 10.6933 1.81085 10.5755 2.04651 10.5258L6.79071 9.59561C6.87753 9.57081 6.94575 9.52739 6.99536 9.46538C7.04497 9.40336 7.06978 9.32894 7.06978 9.24212V5.11188C7.06978 4.72738 7.20621 4.3987 7.47908 4.12583C7.75195 3.85296 8.08063 3.71033 8.46513 3.69793H13.1721C13.5194 3.69793 13.814 3.81886 14.0558 4.06072C14.2977 4.30258 14.4186 4.59715 14.4186 4.94444V13.484C14.4186 13.5832 14.4527 13.667 14.5209 13.7352C14.5892 13.8034 14.6729 13.8375 14.7721 13.8375H15.3116C15.3985 13.8375 15.476 13.8034 15.5442 13.7352C15.6124 13.667 15.6465 13.5832 15.6465 13.484V4.94444C15.6465 4.26227 15.4078 3.67932 14.9303 3.1956C14.4527 2.71187 13.8729 2.47 13.1907 2.47C13.1907 2.47 13.1876 2.47 13.1814 2.47C13.1752 2.47 13.1721 2.47 13.1721 2.47H13.1721ZM3.5907 18.5258C3.82636 18.5258 4.02791 18.6096 4.19535 18.777C4.36279 18.9444 4.44652 19.146 4.44652 19.3817C4.44652 19.6297 4.36279 19.8375 4.19535 20.0049C4.02791 20.1724 3.82636 20.2561 3.5907 20.2561C3.35504 20.2561 3.15039 20.1724 2.97675 20.0049C2.8031 19.8375 2.71628 19.6297 2.71628 19.3817C2.72868 19.146 2.81861 18.9444 2.98605 18.777C3.15349 18.6096 3.35504 18.5258 3.5907 18.5258ZM23.6465 20.2561H18.1954V6.41418C18.1954 6.31495 18.1581 6.23123 18.0837 6.16301C18.0093 6.0948 17.9287 6.06069 17.8419 6.06069H17.2837C17.1969 6.06069 17.1163 6.0948 17.0419 6.16301C16.9674 6.23123 16.9302 6.31495 16.9302 6.41418V21.1677C16.9302 21.2669 16.9674 21.3506 17.0419 21.4188C17.1163 21.4871 17.1969 21.5212 17.2837 21.5212H23.6465C23.7457 21.5212 23.8295 21.4871 23.8977 21.4188C23.9659 21.3506 24 21.2669 24 21.1677V20.6281C24 20.5289 23.9659 20.4483 23.8977 20.3863C23.8295 20.3243 23.7457 20.2933 23.6465 20.2933L23.6465 20.2561ZM12.0372 14.3398C11.045 14.3398 10.1985 14.6902 9.4977 15.3909C8.79692 16.0917 8.44654 16.9382 8.44654 17.9305C8.44654 18.9227 8.79693 19.7693 9.4977 20.47C10.1985 21.1708 11.045 21.5212 12.0372 21.5212C13.0295 21.5212 13.876 21.1708 14.5768 20.47C15.2776 19.7692 15.6279 18.9227 15.6279 17.9305C15.6279 17.9305 15.6279 17.9274 15.6279 17.9212C15.6279 17.915 15.6279 17.9119 15.6279 17.9119C15.6155 16.9196 15.262 16.0762 14.5675 15.3816C13.8729 14.6871 13.0295 14.3398 12.0372 14.3398H12.0372ZM12.0372 20.2747C11.3923 20.2747 10.8372 20.0452 10.3721 19.5863C9.907 19.1274 9.67445 18.5755 9.67445 17.9305C9.67445 17.2731 9.907 16.715 10.3721 16.2561C10.8372 15.7972 11.3923 15.5677 12.0372 15.5677C12.6822 15.5677 13.2341 15.7972 13.6931 16.2561C14.152 16.715 14.3814 17.2669 14.3814 17.9119C14.3814 17.9119 14.3814 17.915 14.3814 17.9212C14.3814 17.9274 14.3814 17.9305 14.3814 17.9305C14.3814 18.5754 14.1551 19.1274 13.7024 19.5863C13.2496 20.0452 12.6946 20.2809 12.0372 20.2933L12.0372 20.2747ZM12.3163 17.2979H11.7768C11.6775 17.2979 11.5938 17.332 11.5256 17.4003C11.4574 17.4685 11.4233 17.5522 11.4233 17.6514V18.1723C11.4233 18.2716 11.4574 18.3553 11.5256 18.4235C11.5938 18.4917 11.6775 18.5258 11.7768 18.5258H12.3163C12.4031 18.5258 12.4806 18.4917 12.5489 18.4235C12.6171 18.3553 12.6512 18.2716 12.6512 18.1723V17.6514C12.6512 17.5522 12.6171 17.4685 12.5489 17.4003C12.4806 17.332 12.4031 17.2979 12.3163 17.2979Z" fill="#CB4B00"/>
</svg>
