<svg width="24" height="24" viewBox="0 0 24 24" fill="none" xmlns="http://www.w3.org/2000/svg">
<path fill-rule="evenodd" clip-rule="evenodd" d="M12.9038 5.57119H11.8996L9.8913 2.79608C9.85478 2.7474 9.81218 2.71088 9.7635 2.68654C9.71481 2.6622 9.66004 2.65003 9.59918 2.65003H8.96018C8.8628 2.65003 8.78065 2.6835 8.7137 2.75044C8.64676 2.81738 8.61329 2.89954 8.61329 2.99692C8.61329 3.03343 8.61937 3.06994 8.63154 3.10646C8.64372 3.14297 8.66197 3.1734 8.68632 3.19774L10.4025 5.57119H5.91121L3.90291 2.79609C3.86639 2.7474 3.82379 2.71089 3.77511 2.68654C3.72642 2.6622 3.67165 2.65003 3.61079 2.65003H2.97179C2.87441 2.65003 2.79226 2.6835 2.72531 2.75044C2.65837 2.81739 2.6249 2.89954 2.6249 2.99692C2.6249 3.03343 2.63099 3.06994 2.64316 3.10646C2.65533 3.14297 2.67358 3.1734 2.69793 3.19775L4.41411 5.57119H3.33693C2.69184 5.57119 2.14108 5.7994 1.68465 6.25583C1.22821 6.71227 1 7.26303 1 7.90812V19.0085C1 19.6536 1.22822 20.2044 1.68465 20.6608C2.14108 21.1173 2.69184 21.3455 3.33693 21.3455H12.9038C13.5489 21.3455 14.0996 21.1173 14.5561 20.6608C15.0125 20.2044 15.2407 19.6536 15.2407 19.0085V7.90812C15.2407 7.26303 15.0125 6.71226 14.5561 6.25583C14.0996 5.7994 13.5489 5.57119 12.9038 5.57119L12.9038 5.57119ZM14.0357 19.0085C14.0357 19.325 13.9231 19.5928 13.6979 19.8119C13.4728 20.0309 13.208 20.1405 12.9038 20.1405H3.33692C3.03263 20.1405 2.7679 20.0309 2.54273 19.8119C2.31755 19.5928 2.20497 19.325 2.20497 19.0085V7.90812C2.20497 7.59166 2.31755 7.32388 2.54273 7.1048C2.7679 6.88571 3.03263 6.77617 3.33692 6.77617H12.9038C13.208 6.77617 13.4728 6.88571 13.6979 7.1048C13.9231 7.32389 14.0357 7.59166 14.0357 7.90812V19.0085ZM10.2747 8.47409H5.98424C5.41218 8.47409 4.92228 8.67796 4.51453 9.08571C4.10679 9.49345 3.90291 9.97727 3.90291 10.5372C3.90291 11.1092 4.10679 11.5961 4.51453 11.9977C4.92228 12.3994 5.41218 12.6002 5.98424 12.6002H10.2747C10.8346 12.6002 11.3184 12.3994 11.7262 11.9977C12.1339 11.5961 12.3378 11.1092 12.3378 10.5372C12.3378 9.97727 12.1339 9.49346 11.7262 9.08571C11.3184 8.67796 10.8346 8.47409 10.2747 8.47409ZM10.2747 11.3953H5.98424C5.74081 11.3953 5.53694 11.3131 5.37263 11.1488C5.20831 10.9845 5.12615 10.7806 5.12615 10.5372C5.12615 10.3059 5.20831 10.1081 5.37263 9.9438C5.53694 9.77949 5.74081 9.69733 5.98424 9.69733H10.2747C10.506 9.69733 10.7037 9.77949 10.8681 9.9438C11.0324 10.1081 11.1145 10.3059 11.1145 10.5372C11.1145 10.7806 11.0324 10.9845 10.8681 11.1488C10.7037 11.3131 10.506 11.3953 10.2747 11.3953ZM5.96599 14.2982H5.43652C5.33915 14.2982 5.25699 14.3316 5.19005 14.3986C5.12311 14.4655 5.08964 14.5477 5.08964 14.645V15.1745C5.08964 15.2719 5.12311 15.354 5.19005 15.421C5.25699 15.4879 5.33915 15.5214 5.43652 15.5214H5.96599C6.05119 15.5214 6.12726 15.4879 6.1942 15.421C6.26115 15.354 6.29462 15.2719 6.29462 15.1745V14.645C6.29462 14.5477 6.26115 14.4655 6.1942 14.3986C6.12726 14.3316 6.05119 14.2982 5.96599 14.2982ZM5.96599 16.7264H5.43652C5.33915 16.7264 5.25699 16.7598 5.19005 16.8268C5.12311 16.8937 5.08964 16.9759 5.08964 17.0733V17.6027C5.08964 17.7001 5.12311 17.7823 5.19005 17.8492C5.25699 17.9161 5.33915 17.9496 5.43652 17.9496H5.96599C6.05119 17.9496 6.12726 17.9161 6.1942 17.8492C6.26115 17.7823 6.29462 17.7001 6.29462 17.6027V17.0733C6.29462 16.9759 6.26115 16.8937 6.1942 16.8268C6.12726 16.7598 6.05119 16.7264 5.96599 16.7264ZM8.37595 14.2982H7.84649C7.76129 14.2982 7.68217 14.3316 7.60914 14.3986C7.53611 14.4655 7.4996 14.5477 7.4996 14.645V15.1745C7.4996 15.2719 7.53611 15.354 7.60914 15.421C7.68217 15.4879 7.76129 15.5214 7.84649 15.5214H8.37595C8.47332 15.5214 8.55548 15.4879 8.62242 15.421C8.68937 15.354 8.72284 15.2719 8.72284 15.1745V14.645C8.72284 14.5477 8.68937 14.4655 8.62242 14.3986C8.55548 14.3316 8.47332 14.2982 8.37595 14.2982ZM8.37595 16.7264H7.84649C7.76129 16.7264 7.68217 16.7598 7.60914 16.8268C7.53611 16.8937 7.4996 16.9759 7.4996 17.0733V17.6027C7.4996 17.7001 7.53611 17.7823 7.60914 17.8492C7.68217 17.9161 7.76129 17.9496 7.84649 17.9496H8.37595C8.47332 17.9496 8.55548 17.9161 8.62242 17.8492C8.68937 17.7823 8.72284 17.7001 8.72284 17.6027V17.0733C8.72284 16.9759 8.68937 16.8937 8.62242 16.8268C8.55548 16.7598 8.47332 16.7264 8.37595 16.7264ZM10.8042 14.2982H10.2747C10.1773 14.2982 10.0952 14.3316 10.0282 14.3986C9.96129 14.4655 9.92782 14.5477 9.92782 14.645V15.1745C9.92782 15.2719 9.96129 15.354 10.0282 15.421C10.0952 15.4879 10.1773 15.5214 10.2747 15.5214H10.8042C10.9015 15.5214 10.9837 15.4879 11.0506 15.421C11.1176 15.354 11.1511 15.2719 11.1511 15.1745V14.645C11.1511 14.5477 11.1176 14.4655 11.0506 14.3986C10.9837 14.3316 10.9015 14.2982 10.8042 14.2982ZM10.8042 16.7264H10.2747C10.1773 16.7264 10.0952 16.7598 10.0282 16.8268C9.96129 16.8937 9.92782 16.9759 9.92782 17.0733V17.6027C9.92782 17.7001 9.96129 17.7823 10.0282 17.8492C10.0952 17.9161 10.1773 17.9496 10.2747 17.9496H10.8042C10.9015 17.9496 10.9837 17.9161 11.0506 17.8492C11.1176 17.7823 11.1511 17.7001 11.1511 17.6027V17.0733C11.1511 16.9759 11.1176 16.8968 11.0506 16.8359C10.9837 16.7751 10.9015 16.7385 10.8042 16.7264ZM6.02076 3.65414C6.0451 3.69066 6.08161 3.72109 6.1303 3.74543C6.17899 3.76977 6.23376 3.78194 6.29462 3.78194H6.93362C7.03099 3.78194 7.11315 3.74847 7.18009 3.68153C7.24704 3.61459 7.28051 3.53243 7.28051 3.43506C7.28051 3.39854 7.27442 3.36507 7.26225 3.33464C7.25008 3.30421 7.23791 3.27074 7.22574 3.23423L6.87885 2.79605C6.85451 2.74737 6.81799 2.71085 6.76931 2.68651C6.72062 2.66217 6.66585 2.64999 6.60499 2.64999H5.96599C5.86861 2.64999 5.78646 2.68347 5.71951 2.75041C5.65257 2.81735 5.6191 2.89951 5.6191 2.99688C5.6191 3.0334 5.62518 3.06991 5.63735 3.10643C5.64953 3.14294 5.66778 3.17337 5.69213 3.19771L6.02076 3.65414ZM20.9369 5.57116H20.5718V4.71307C20.5718 4.141 20.371 3.65414 19.9693 3.25248C19.5676 2.85082 19.0808 2.64999 18.5087 2.64999C17.9366 2.64999 17.4498 2.85082 17.0481 3.25248C16.6465 3.65414 16.4456 4.141 16.4456 4.71307V15.7039C16.4456 15.7161 16.4456 15.7283 16.4456 15.7404C16.4456 15.7526 16.4456 15.7587 16.4456 15.7587C16.4456 15.7709 16.4456 15.783 16.4456 15.7952C16.4456 15.8074 16.4456 15.8135 16.4456 15.8135L18.1618 21.1081C18.1862 21.1811 18.2288 21.2389 18.2896 21.2815C18.3505 21.3241 18.4174 21.3454 18.4905 21.3454C18.5635 21.3454 18.6304 21.3241 18.6913 21.2815C18.7521 21.2389 18.7947 21.1811 18.8191 21.1081L20.5353 15.8135C20.5474 15.8135 20.5535 15.8074 20.5535 15.7952C20.5535 15.783 20.5535 15.7709 20.5535 15.7587C20.5535 15.7587 20.5535 15.7526 20.5535 15.7404C20.5535 15.7283 20.5474 15.7161 20.5353 15.7039V8.32802C20.5353 8.23065 20.5018 8.14849 20.4349 8.08154C20.3679 8.0146 20.2918 7.98113 20.2066 7.98113H19.6772C19.5798 7.98113 19.4977 8.0146 19.4307 8.08154C19.3638 8.14849 19.3303 8.23065 19.3303 8.32802V15.0649H17.6689V6.77611H20.9369C21.1682 6.77611 21.366 6.85827 21.5303 7.02258C21.6946 7.1869 21.7829 7.38468 21.795 7.61594V10.3363C21.795 10.4336 21.8285 10.5158 21.8954 10.5827C21.9624 10.6497 22.0385 10.6832 22.1237 10.6832H22.6531C22.7505 10.6832 22.8326 10.6497 22.8996 10.5827C22.9665 10.5158 23 10.4336 23 10.3363V7.6342C23 7.06213 22.7992 6.57527 22.3975 6.17361C21.9959 5.77195 21.509 5.57112 20.9369 5.57112L20.9369 5.57116ZM19.1112 16.2699L18.5087 18.1869L17.9062 16.2699H19.1112ZM19.3485 5.57116H17.6689V4.71307C17.6689 4.48181 17.751 4.28098 17.9153 4.11058C18.0797 3.94017 18.2775 3.85497 18.5087 3.85497C18.7521 3.85497 18.956 3.94017 19.1203 4.11058C19.2846 4.28098 19.3668 4.48181 19.3668 4.71307L19.3485 5.57116Z" fill="#CB4B00"/>
</svg>
