<svg width="24" height="24" viewBox="0 0 24 24" fill="none" xmlns="http://www.w3.org/2000/svg">
<path fill-rule="evenodd" clip-rule="evenodd" d="M8.36016 7.37832C7.75687 7.37832 7.24743 7.58947 6.83182 8.01177C6.41622 8.43408 6.20842 8.94017 6.20842 9.53005C6.20842 10.1333 6.41622 10.6461 6.83182 11.0684C7.24743 11.4907 7.75687 11.7019 8.36016 11.7019C8.95004 11.7019 9.45614 11.4907 9.87844 11.0684C10.3007 10.6461 10.5119 10.1333 10.5119 9.53005C10.5119 8.94017 10.3007 8.43407 9.87844 8.01177C9.45614 7.58947 8.95004 7.37832 8.36016 7.37832ZM8.36016 10.435C8.10544 10.435 7.89428 10.3478 7.7267 10.1736C7.55912 9.99928 7.47533 9.78477 7.47533 9.53005C7.47533 9.28874 7.55912 9.08094 7.7267 8.90665C7.89428 8.73237 8.10544 8.64523 8.36016 8.64523C8.60148 8.64523 8.80928 8.73237 8.98356 8.90665C9.15785 9.08094 9.24499 9.28874 9.24499 9.53005C9.24499 9.53005 9.24499 9.5334 9.24499 9.54011C9.24499 9.54681 9.24499 9.55016 9.24499 9.55016C9.24499 9.79148 9.15785 9.99928 8.98356 10.1736C8.80928 10.3478 8.60148 10.435 8.36016 10.435ZM15.2578 20.5502C15.1639 20.5502 15.0801 20.587 15.0064 20.6608C14.9327 20.7345 14.8958 20.8183 14.8958 20.9121V21.4551C14.8958 21.5623 14.9327 21.6495 15.0064 21.7165C15.0801 21.7836 15.1639 21.8171 15.2578 21.8171H20.3656C20.4595 21.8171 20.5433 21.7836 20.617 21.7165C20.6907 21.6495 20.7276 21.5623 20.7276 21.4551V20.9121C20.7276 20.8183 20.6907 20.7345 20.617 20.6608C20.5433 20.587 20.4595 20.5502 20.3656 20.5502H15.2578ZM15.2578 17.5136C15.1639 17.5136 15.0801 17.5471 15.0064 17.6141C14.9327 17.6812 14.8958 17.7683 14.8958 17.8756V18.4185C14.8958 18.5124 14.9327 18.5962 15.0064 18.6699C15.0801 18.7436 15.1639 18.7805 15.2578 18.7805H20.3656C20.4595 18.7805 20.5433 18.7436 20.617 18.6699C20.6907 18.5962 20.7276 18.5124 20.7276 18.4185V17.8756C20.7276 17.7683 20.6907 17.6812 20.617 17.6141C20.5433 17.5471 20.4595 17.5136 20.3656 17.5136H15.2578ZM21.351 7.29786C21.3912 7.3649 21.4382 7.41852 21.4918 7.45874C21.5454 7.49896 21.6124 7.51907 21.6929 7.51907C21.7197 7.51907 21.7431 7.51572 21.7633 7.50901C21.7834 7.50231 21.8001 7.49896 21.8135 7.49896L22.3364 7.29786C22.4034 7.27105 22.457 7.22748 22.4973 7.16715C22.5375 7.10682 22.5576 7.03644 22.5576 6.956C22.5576 6.92918 22.5542 6.90237 22.5475 6.87556C22.5408 6.84875 22.5308 6.82193 22.5174 6.79512C22.4637 6.67446 22.4101 6.56386 22.3565 6.46331C22.3029 6.36276 22.2492 6.26556 22.1956 6.17172C22.1688 6.1315 22.1286 6.09463 22.075 6.06111C22.0213 6.0276 21.961 6.01084 21.894 6.01084C21.8538 6.01084 21.8169 6.01754 21.7834 6.03095C21.7499 6.04436 21.713 6.06447 21.6728 6.09128L21.2505 6.41304C21.1968 6.45325 21.16 6.49683 21.1399 6.54375C21.1197 6.59067 21.1097 6.64095 21.1097 6.69457C21.1097 6.73479 21.113 6.77166 21.1197 6.80517C21.1264 6.83869 21.1432 6.86886 21.17 6.89567C21.1968 6.94929 21.227 7.00962 21.2605 7.07666C21.294 7.14369 21.3242 7.21072 21.351 7.27775V7.29786ZM22.638 9.00719H22.1152C22.1018 9.00719 22.0951 9.00719 22.0951 9.00719C22.0012 9.00719 21.9208 9.0407 21.8538 9.10773C21.7867 9.17477 21.7465 9.2485 21.7331 9.32894C21.6392 10.3478 21.2203 11.2025 20.4762 11.8929C19.7322 12.5834 18.844 12.9286 17.8117 12.9286C17.2754 12.9286 16.766 12.828 16.2834 12.6269C15.8007 12.4258 15.3818 12.1477 15.0265 11.7924C14.6712 11.4371 14.3931 11.0182 14.192 10.5355C13.9775 10.0529 13.8702 9.54345 13.8702 9.00719C13.8702 7.97489 14.2188 7.08336 14.9159 6.3326C15.613 5.58184 16.4644 5.16624 17.4698 5.0858C17.5637 5.07239 17.6441 5.03217 17.7112 4.96514C17.7782 4.89811 17.8117 4.81767 17.8117 4.72382C17.8117 4.71041 17.8117 4.70371 17.8117 4.70371V4.18086C17.8117 4.16745 17.8117 4.16075 17.8117 4.16075C17.8117 4.0669 17.7748 3.98647 17.7011 3.91943C17.6274 3.8524 17.5436 3.81888 17.4497 3.81888C17.4497 3.81888 17.4464 3.81888 17.4397 3.81888C17.433 3.81888 17.4296 3.81888 17.4296 3.81888C16.7995 3.8591 16.2063 4.00993 15.6499 4.27135C15.0935 4.53278 14.6076 4.86459 14.192 5.26679C13.8568 4.79756 13.4747 4.37526 13.0457 3.99988C12.6167 3.6245 12.1475 3.29939 11.638 3.02456C11.1286 2.74972 10.5923 2.54527 10.0293 2.41121C9.45278 2.26374 8.86289 2.19 8.25961 2.19C7.25412 2.19 6.30896 2.37769 5.42414 2.75307C4.55272 3.12846 3.78855 3.64461 3.13163 4.30152C2.47471 4.95844 1.95186 5.72931 1.56307 6.61414C1.18769 7.49897 1 8.43742 1 9.4295C1 10.2205 1.11731 10.9712 1.35192 11.6818C1.58653 12.3923 1.91164 13.0425 2.32724 13.6324C2.39427 13.7263 2.60878 14.0279 2.97075 14.5374C3.31932 15.0468 3.73157 15.6468 4.2075 16.3372C4.68343 17.0276 5.18282 17.7549 5.70568 18.5191C6.22853 19.2698 6.69775 19.9469 7.11336 20.5502H3.93602C3.84217 20.5502 3.76173 20.587 3.6947 20.6608C3.62767 20.7345 3.59415 20.8183 3.59415 20.9121V21.4551C3.59415 21.5624 3.62767 21.6495 3.6947 21.7165C3.76173 21.7836 3.84217 21.8171 3.93602 21.8171H12.7642C12.8714 21.8171 12.9586 21.7836 13.0256 21.7165C13.0926 21.6495 13.1261 21.5624 13.1261 21.4551V20.9121C13.1261 20.8183 13.0926 20.7345 13.0256 20.6608C12.9586 20.587 12.8714 20.5502 12.7642 20.5502H9.56672C9.9421 20.0139 10.3711 19.4039 10.8537 18.7202C11.323 18.0364 11.7855 17.3661 12.2413 16.7092C12.6971 16.0523 13.1127 15.4423 13.4881 14.8792C13.8769 14.3296 14.1718 13.9072 14.3729 13.6123C14.4266 13.5319 14.4768 13.4514 14.5238 13.371C14.5707 13.2906 14.6143 13.2168 14.6545 13.1498C14.9628 13.3777 15.2946 13.5754 15.6499 13.743C16.0052 13.9106 16.3839 14.0346 16.7861 14.1151C16.947 14.1419 17.1146 14.1653 17.2888 14.1854C17.4631 14.2055 17.6374 14.2156 17.8117 14.2156C18.4954 14.2156 19.1389 14.0882 19.7422 13.8335C20.3589 13.5922 20.8985 13.2537 21.3611 12.818C21.8236 12.3823 22.2023 11.8695 22.4973 11.2796C22.7788 10.7031 22.9464 10.073 23 9.38927C23 9.38927 23 9.38592 23 9.37922C23 9.37251 23 9.36916 23 9.36916C23 9.26191 22.9665 9.17477 22.8995 9.10773C22.8324 9.0407 22.752 9.00719 22.6581 9.00719C22.6447 9.00719 22.638 9.00719 22.638 9.00719L22.638 9.00719ZM13.3272 12.8884C13.0993 13.2369 12.7641 13.7263 12.3217 14.3564C11.8927 14.9865 11.4335 15.6534 10.9442 16.3573C10.4549 17.0611 9.97559 17.7482 9.50636 18.4185C9.03713 19.1023 8.65505 19.6519 8.36011 20.0675C8.03835 19.5983 7.61604 18.9883 7.0932 18.2375C6.55694 17.4734 6.03073 16.7159 5.51458 15.9651C4.99843 15.2144 4.53926 14.5441 4.13706 13.9542C3.72146 13.3643 3.47344 13.009 3.39301 12.8884C3.03103 12.4057 2.7495 11.8661 2.5484 11.2695C2.3473 10.6729 2.24675 10.0462 2.24675 9.38926C2.24675 8.55806 2.40763 7.78049 2.72938 7.05653C3.03773 6.31918 3.46339 5.68237 4.00635 5.14611C4.54931 4.60985 5.18277 4.18085 5.90672 3.85909C6.63067 3.55074 7.40825 3.39657 8.23945 3.39657C9.32537 3.39657 10.3174 3.66135 11.2157 4.1909C12.1139 4.72046 12.8312 5.41425 13.3674 6.27226C13.1261 6.67446 12.9384 7.10681 12.8044 7.56934C12.6703 8.03186 12.6033 8.51785 12.6033 9.02729C12.6033 9.20158 12.6133 9.37251 12.6334 9.54009C12.6535 9.70767 12.677 9.8719 12.7038 10.0328C12.7842 10.435 12.9116 10.8204 13.0859 11.1891C13.2602 11.5578 13.4747 11.903 13.7294 12.2247C13.6624 12.3454 13.5953 12.4627 13.5283 12.5767C13.4613 12.6906 13.3875 12.8012 13.3071 12.9085L13.3272 12.8884ZM17.1682 6.71468V9.26861C17.1816 9.36246 17.2218 9.4429 17.2888 9.50993C17.3558 9.57696 17.4363 9.61048 17.5301 9.61048H20.0841C20.1913 9.61048 20.2785 9.57696 20.3455 9.50993C20.4125 9.4429 20.446 9.35575 20.446 9.2485V8.70554C20.446 8.61169 20.4125 8.5279 20.3455 8.45417C20.2785 8.38043 20.1913 8.34356 20.0841 8.34356H18.4351V6.71468C18.4351 6.60742 18.4016 6.52028 18.3345 6.45325C18.2675 6.38622 18.187 6.3527 18.0932 6.3527H17.5301C17.4363 6.3527 17.3525 6.38622 17.2788 6.45325C17.205 6.52028 17.1682 6.60742 17.1682 6.71468V6.71468ZM19.521 5.46788C19.588 5.49469 19.6551 5.5282 19.7221 5.56842C19.7891 5.60864 19.8494 5.64216 19.9031 5.66897C19.9299 5.68238 19.9601 5.69579 19.9936 5.70919C20.0271 5.7226 20.0572 5.7293 20.0841 5.7293C20.1511 5.7293 20.2081 5.71589 20.255 5.68908C20.3019 5.66227 20.3455 5.62875 20.3857 5.58853L20.7075 5.14612C20.7343 5.11931 20.751 5.08914 20.7577 5.05563C20.7644 5.02211 20.7678 4.98524 20.7678 4.94502C20.7678 4.87799 20.7544 4.81766 20.7276 4.76404C20.7008 4.71041 20.6605 4.66349 20.6069 4.62327C20.5265 4.56964 20.436 4.51602 20.3354 4.46239C20.2349 4.40876 20.131 4.36184 20.0237 4.32162C19.9835 4.30821 19.95 4.29481 19.9232 4.2814C19.8964 4.268 19.8696 4.26129 19.8427 4.26129C19.7623 4.26129 19.6919 4.28475 19.6316 4.33168C19.5713 4.3786 19.5277 4.43558 19.5009 4.50261L19.2998 5.02546C19.2998 5.03887 19.2964 5.05227 19.2897 5.06568C19.283 5.07909 19.2797 5.0992 19.2797 5.12601C19.2797 5.20645 19.3031 5.27683 19.3501 5.33716C19.397 5.39749 19.454 5.44106 19.521 5.46788Z" fill="#CB4B00"/>
</svg>
