<svg width="24" height="24" viewBox="0 0 24 24" fill="none" xmlns="http://www.w3.org/2000/svg">
<path fill-rule="evenodd" clip-rule="evenodd" d="M20.0905 17.3082H18.4615L21.1041 13.6702C21.635 13.5858 22.0784 13.3414 22.4344 12.9372C22.7903 12.533 22.9683 12.0594 22.9683 11.5164C22.9683 11.0217 22.8205 10.5812 22.5249 10.1951C22.2292 9.80899 21.8522 9.54957 21.3937 9.41683L21.3756 9.07294C21.3756 8.1921 21.2127 7.36555 20.8869 6.5933C20.549 5.82106 20.0935 5.14836 19.5204 4.57521C18.9472 4.00205 18.2745 3.55258 17.5023 3.22679C16.73 2.88893 15.9095 2.72 15.0407 2.72H13.9909C13.1222 2.72 12.3077 2.8829 11.5475 3.20869C10.7873 3.53448 10.1207 3.97792 9.5475 4.53901C8.97435 5.10009 8.51884 5.75469 8.18099 6.50281C7.84313 7.26299 7.66214 8.07143 7.638 8.92814V9.00054C7.638 9.08501 7.67118 9.16042 7.73755 9.22679C7.80391 9.29315 7.88536 9.32633 7.98189 9.32633H8.50678C8.59124 9.32633 8.66968 9.29315 8.74207 9.22679C8.81447 9.16042 8.85067 9.08501 8.85067 9.00054V8.96434C8.86274 8.2645 9.00753 7.60687 9.28506 6.99149C9.55052 6.37611 9.91553 5.84217 10.3801 5.38969C10.8446 4.9372 11.3846 4.57822 12 4.31276C12.6274 4.0473 13.2911 3.91457 13.9909 3.91457H15.0226C15.0226 3.91457 15.0287 3.91457 15.0407 3.91457C15.7406 3.91457 16.4042 4.0473 17.0317 4.31276C17.6591 4.59029 18.2051 4.96133 18.6697 5.42589C19.1342 5.89044 19.4992 6.43644 19.7647 7.0639C20.0422 7.67928 20.181 8.34293 20.181 9.05485C20.181 9.05485 20.181 9.05787 20.181 9.0639C20.181 9.06993 20.181 9.07295 20.181 9.07295V9.30825C19.5777 9.23585 19.0196 9.03374 18.5068 8.70191C17.994 8.37009 17.6893 7.86028 17.5928 7.1725C17.5807 7.08803 17.5445 7.01563 17.4842 6.9553C17.4238 6.89497 17.3454 6.8648 17.2489 6.8648H16.4344C16.3741 6.8648 16.3198 6.87687 16.2715 6.901C16.2232 6.92514 16.181 6.96133 16.1448 7.0096C15.7345 7.68532 15.1795 8.23132 14.4796 8.64761C13.7798 9.0639 13.0075 9.28411 12.1629 9.30825H11.4389C11.3544 9.30825 11.279 9.34143 11.2127 9.40779C11.1463 9.47416 11.1131 9.55561 11.1131 9.65214V10.1589C11.1131 10.2555 11.1463 10.3369 11.2127 10.4033C11.279 10.4696 11.3544 10.5028 11.4389 10.5028H12.1629C13.0679 10.5028 13.9125 10.3067 14.6968 9.91458C15.4811 9.52242 16.1388 8.99452 16.6697 8.33087C17.0075 9.07898 17.5626 9.628 18.3348 9.97793C19.1071 10.3279 19.9216 10.5028 20.7783 10.5028C21.0558 10.5028 21.2881 10.5993 21.4751 10.7924C21.6621 10.9855 21.7557 11.2147 21.7557 11.4802C21.7557 11.5043 21.7557 11.5254 21.7557 11.5435C21.7557 11.5616 21.7557 11.5767 21.7557 11.5888C21.7195 11.8422 21.6048 12.0503 21.4118 12.2132C21.2187 12.3761 20.9955 12.4576 20.7421 12.4576C20.7421 12.4576 20.7391 12.4576 20.733 12.4576C20.727 12.4576 20.724 12.4576 20.724 12.4576H20.6516C20.6516 12.4576 20.6456 12.4576 20.6335 12.4576C20.5852 12.4576 20.537 12.4726 20.4887 12.5028C20.4404 12.533 20.3982 12.5662 20.362 12.6024L16.8688 17.4349C16.8326 17.4711 16.8054 17.5104 16.7873 17.5526C16.7692 17.5948 16.7602 17.6401 16.7602 17.6883V18.1951C16.7602 18.2796 16.7934 18.358 16.8597 18.4304C16.9261 18.5028 17.0075 18.539 17.1041 18.539H20.0543C20.7662 18.539 21.3816 18.7713 21.9004 19.2358C22.4193 19.7004 22.7149 20.2766 22.7873 20.9644C22.7994 21.0488 22.8386 21.1212 22.905 21.1815C22.9713 21.2419 23.0468 21.272 23.1312 21.272H23.6561C23.7526 21.272 23.8341 21.2389 23.9005 21.1725C23.9668 21.1061 24 21.0247 24 20.9282C24 20.9161 24 20.907 24 20.901C24 20.895 24 20.8859 24 20.8739C23.9397 20.3791 23.8009 19.9146 23.5837 19.4802C23.3544 19.0458 23.0649 18.6687 22.7149 18.349C22.365 18.0292 21.9608 17.7788 21.5023 17.5978C21.0558 17.4168 20.5731 17.3263 20.0543 17.3263L20.0905 17.3082ZM16.362 15.3716C16.374 15.3474 16.3831 15.3203 16.3891 15.2901C16.3952 15.26 16.3982 15.2328 16.3982 15.2087C16.3982 15.1363 16.3831 15.076 16.3529 15.0277C16.3228 14.9794 16.2775 14.9372 16.2172 14.901H16.181L15.7104 14.6838C15.6863 14.6838 15.6651 14.6808 15.647 14.6747C15.6289 14.6687 15.6078 14.6657 15.5837 14.6657C15.5234 14.6657 15.4691 14.6808 15.4208 14.7109C15.3725 14.7411 15.3303 14.7803 15.2941 14.8286C15.2096 14.9493 15.098 15.0488 14.9593 15.1272C14.8205 15.2057 14.6667 15.2449 14.4977 15.2449C14.3409 15.2449 14.193 15.2087 14.0543 15.1363C13.9155 15.0639 13.8039 14.9613 13.7194 14.8286C13.6832 14.7803 13.638 14.7441 13.5837 14.72C13.5294 14.6959 13.4721 14.6838 13.4118 14.6838C13.3997 14.6838 13.3846 14.6838 13.3665 14.6838C13.3484 14.6838 13.3273 14.6898 13.3032 14.7019L12.8145 14.8829C12.7541 14.907 12.7029 14.9462 12.6606 15.0005C12.6184 15.0548 12.5973 15.1182 12.5973 15.1906C12.5973 15.2147 12.5973 15.2358 12.5973 15.2539C12.5973 15.272 12.6033 15.2931 12.6154 15.3173V15.3716C12.8084 15.6853 13.0679 15.9387 13.3937 16.1318C13.7194 16.3248 14.0814 16.4214 14.4796 16.4214C14.8778 16.4214 15.2458 16.3218 15.5837 16.1227C15.9216 15.9236 16.181 15.6612 16.362 15.3354L16.362 15.3716ZM18.9321 20.0413H15.9457C15.8492 20.0413 15.7677 20.0744 15.7013 20.1408C15.635 20.2072 15.6018 20.2826 15.6018 20.3671V20.8919C15.6018 20.9885 15.635 21.0699 15.7013 21.1363C15.7677 21.2026 15.8492 21.2358 15.9457 21.2358H18.9321C19.0286 21.2358 19.1101 21.2026 19.1765 21.1363C19.2428 21.0699 19.276 20.9885 19.276 20.8919V20.3671C19.276 20.2826 19.2428 20.2072 19.1765 20.1408C19.1101 20.0744 19.0286 20.0413 18.9321 20.0413ZM6.24434 13.7245L6.31674 13.8693L6.80543 14.539C6.82956 14.5631 6.85671 14.5873 6.88687 14.6114C6.91704 14.6355 6.95022 14.6536 6.98642 14.6657L8.97737 15.2992C8.98944 15.2992 9.00452 15.2992 9.02262 15.2992C9.04072 15.2992 9.06184 15.2992 9.08597 15.2992C9.12217 15.2992 9.15837 15.2962 9.19457 15.2901C9.23077 15.2841 9.26093 15.269 9.28507 15.2449L10.5339 14.3399C10.7029 14.2072 10.8386 14.0473 10.9412 13.8603C11.0437 13.6732 11.095 13.4651 11.095 13.2358C11.095 13.091 11.0709 12.9523 11.0226 12.8195C10.9744 12.6868 10.914 12.5601 10.8416 12.4395L9.95474 11.2449C9.83408 11.076 9.67722 10.9432 9.48416 10.8467C9.29109 10.7502 9.08597 10.7019 8.86877 10.7019C8.71191 10.7019 8.56711 10.723 8.43438 10.7652C8.30165 10.8075 8.18099 10.8708 8.07239 10.9553L3.9819 13.8874L1.95475 11.1001C1.93061 11.0639 1.89442 11.0307 1.84615 11.0005C1.79788 10.9704 1.74359 10.9553 1.68325 10.9553C1.64706 10.9553 1.61387 10.9613 1.58371 10.9734C1.55354 10.9855 1.52036 11.0036 1.48416 11.0277L0.289591 11.8784C0.253392 11.9146 0.223226 11.9568 0.199094 12.0051C0.174961 12.0533 0.162895 12.1016 0.162895 12.1499C0.162895 12.1861 0.168928 12.2223 0.180994 12.2585C0.193061 12.2947 0.205127 12.3248 0.217193 12.349L0.524885 12.7652C0.561085 12.8135 0.603317 12.8497 0.651583 12.8738C0.699848 12.898 0.748114 12.91 0.796378 12.91C0.832578 12.91 0.868777 12.904 0.904976 12.8919C0.941175 12.8799 0.971341 12.8618 0.995474 12.8376L1.46606 12.4938L2.98643 14.5933L0.144796 16.6928C0.0965308 16.717 0.0603318 16.7532 0.0361994 16.8014C0.0120663 16.8497 0 16.904 0 16.9643C0 16.9643 0 16.9704 0 16.9824V19.444C0 19.4923 0.00603333 19.5315 0.0180995 19.5616C0.0301657 19.5918 0.0482654 19.6189 0.0723984 19.6431L0.959278 20.8738C0.995477 20.9221 1.03469 20.9583 1.07693 20.9824C1.11916 21.0066 1.17044 21.0186 1.23077 21.0186C1.26697 21.0186 1.30317 21.0126 1.33937 21.0005C1.37557 20.9885 1.40573 20.9704 1.42987 20.9462L5.48416 17.9779L7.22172 20.3852C7.41478 20.6506 7.65913 20.8618 7.95475 21.0186C8.25038 21.1755 8.57315 21.2539 8.92307 21.2539C9.50226 21.2539 9.99698 21.0488 10.4072 20.6385C10.8175 20.2283 11.0226 19.7336 11.0226 19.1544C11.0226 18.5631 10.8175 18.0624 10.4072 17.6521C9.99698 17.2419 9.50226 17.0367 8.92307 17.0367C8.69381 17.0367 8.4736 17.0729 8.26244 17.1453C8.05128 17.2177 7.8552 17.3203 7.6742 17.453H7.6923L6.95022 17.9779L6.46154 17.272L7.38461 16.6024C7.43288 16.5662 7.46908 16.5239 7.49321 16.4757C7.51734 16.4274 7.52941 16.3791 7.52941 16.3309C7.52941 16.2947 7.52338 16.2585 7.51131 16.2223C7.49924 16.1861 7.48114 16.1499 7.45701 16.1137V16.1318L7.16742 15.6974C7.13122 15.6612 7.08899 15.631 7.04072 15.6069C6.99246 15.5827 6.93816 15.5707 6.87782 15.5707C6.84163 15.5707 6.80844 15.5737 6.77828 15.5797C6.74811 15.5858 6.71493 15.6008 6.67873 15.625L1.42986 19.4802L1.19457 19.1544V17.3806L6.24434 13.7245ZM7.33031 12.9462L8.74208 11.9146C8.75414 11.9146 8.76621 11.9115 8.77828 11.9055C8.79034 11.8995 8.79638 11.8965 8.79638 11.8965C8.80844 11.8965 8.82051 11.8995 8.83257 11.9055C8.84464 11.9115 8.85671 11.9146 8.86877 11.9146C8.88084 11.9146 8.89592 11.9206 8.91402 11.9327C8.93212 11.9447 8.94721 11.9568 8.95927 11.9689L9.84615 13.1634C9.84615 13.1755 9.84917 13.1906 9.8552 13.2087C9.86123 13.2268 9.86425 13.2419 9.86425 13.2539C9.86425 13.2781 9.85822 13.3022 9.84615 13.3263C9.83409 13.3505 9.82202 13.3686 9.80995 13.3806L8.90498 14.0322L7.60181 13.6159L7.27602 13.1634C7.26395 13.1514 7.25792 13.1393 7.25792 13.1272C7.25792 13.1152 7.25792 13.0971 7.25792 13.0729C7.25792 13.0488 7.26395 13.0277 7.27602 13.0096C7.28809 12.9915 7.30015 12.9764 7.31222 12.9643L7.33031 12.9462ZM8.38008 18.4304C8.45248 18.3701 8.53092 18.3278 8.61538 18.3037C8.69984 18.2796 8.79034 18.2675 8.88687 18.2675C9.1282 18.2675 9.33333 18.352 9.50226 18.5209C9.67119 18.6898 9.75565 18.895 9.75565 19.1363C9.75565 19.3897 9.67119 19.6008 9.50226 19.7698C9.33333 19.9387 9.1282 20.0232 8.88687 20.0232C8.74208 20.0232 8.60935 19.993 8.48868 19.9327C8.36802 19.8723 8.26545 19.7879 8.18099 19.6793L7.6742 18.9553L8.38008 18.4304Z" fill="#CB4B00"/>
</svg>
