<svg width="24" height="24" viewBox="0 0 24 24" fill="none" xmlns="http://www.w3.org/2000/svg">
<path fill-rule="evenodd" clip-rule="evenodd" d="M5.84107 11.4801C6.51045 11.4801 7.138 11.6056 7.72371 11.8567C8.32137 12.1196 8.83835 12.4693 9.27464 12.9056C9.71094 13.3419 10.0546 13.8529 10.3056 14.4386C10.5686 15.0243 10.7001 15.6518 10.7001 16.3212C10.7001 16.9906 10.5686 17.6241 10.3056 18.2218C10.0546 18.8075 9.71094 19.3185 9.27464 19.7548C8.83835 20.1911 8.32735 20.5347 7.74164 20.7857C7.14398 21.0487 6.51045 21.1802 5.84107 21.1802C5.17169 21.1802 4.54414 21.0487 3.95843 20.7857C3.37272 20.5347 2.85873 20.1911 2.41646 19.7548C1.97419 19.3185 1.62755 18.8075 1.37653 18.2218C1.12551 17.6241 1 16.9906 1 16.3212C1 15.6518 1.12551 15.0243 1.37653 14.4386C1.62755 13.8529 1.97419 13.3419 2.41646 12.9056C2.85873 12.4693 3.37272 12.1196 3.95843 11.8567C4.54414 11.6056 5.17169 11.4801 5.84107 11.4801ZM5.84107 19.9968C6.35506 19.9968 6.83319 19.9012 7.27546 19.7099C7.71773 19.5187 8.10621 19.2557 8.44091 18.921C8.7756 18.5863 9.03857 18.1979 9.22982 17.7556C9.42107 17.3133 9.5167 16.8352 9.5167 16.3212C9.5167 15.8192 9.42107 15.347 9.22982 14.9047C9.03857 14.4625 8.7756 14.074 8.44091 13.7393C8.10622 13.4046 7.71774 13.1416 7.27546 12.9504C6.83319 12.7591 6.35506 12.6635 5.84107 12.6635C5.33903 12.6635 4.86688 12.7591 4.42461 12.9504C3.97039 13.1416 3.57891 13.4046 3.2502 13.7393C2.92148 14.074 2.6615 14.4625 2.47025 14.9047C2.279 15.347 2.18337 15.8192 2.18337 16.3212C2.18337 16.8352 2.279 17.3133 2.47025 17.7556C2.6615 18.1979 2.92149 18.5863 3.2502 18.921C3.57891 19.2557 3.97039 19.5187 4.42461 19.7099C4.86688 19.9012 5.33904 19.9968 5.84107 19.9968ZM7.84922 14.8689C7.88508 14.8928 7.91795 14.9286 7.94783 14.9764C7.97772 15.0243 7.99266 15.0781 7.99266 15.1378C7.99266 15.1737 7.98668 15.2065 7.97473 15.2364C7.96278 15.2663 7.94485 15.2992 7.92094 15.335L5.78728 18.2755C5.76337 18.3234 5.72751 18.3592 5.6797 18.3831C5.63189 18.407 5.5781 18.419 5.51833 18.419C5.47052 18.419 5.42271 18.407 5.37489 18.3831C5.32708 18.3592 5.28524 18.3234 5.24938 18.2755L3.90464 16.4288C3.88074 16.4049 3.8658 16.375 3.85982 16.3391C3.85384 16.3033 3.85085 16.2674 3.85085 16.2315C3.85085 16.1718 3.86281 16.121 3.88671 16.0791C3.91062 16.0373 3.9405 15.9985 3.97636 15.9626L4.38875 15.6578C4.42461 15.6458 4.45748 15.6339 4.48737 15.6219C4.51725 15.61 4.55012 15.604 4.58598 15.604C4.64575 15.604 4.69954 15.6159 4.74735 15.6399C4.79516 15.6638 4.83102 15.6936 4.85493 15.7295L5.51833 16.6439L6.97066 14.6537C6.99456 14.6179 7.03042 14.585 7.07824 14.5551C7.12605 14.5252 7.17984 14.5103 7.2396 14.5103C7.27546 14.5103 7.31132 14.5162 7.34718 14.5282C7.38304 14.5402 7.41293 14.5581 7.43683 14.582L7.84922 14.8689ZM22.9462 6.4239C22.9582 6.44781 22.9701 6.47769 22.9821 6.51355C22.994 6.54941 23 6.5793 23 6.6032C23 6.66297 22.9851 6.71975 22.9552 6.77354C22.9253 6.82733 22.8864 6.86617 22.8386 6.89008L22.4621 7.19489C22.4262 7.20684 22.3934 7.21879 22.3635 7.23075C22.3336 7.2427 22.3007 7.24868 22.2649 7.24868C22.2051 7.24868 22.1513 7.23672 22.1035 7.21282C22.0557 7.18891 22.0198 7.15305 21.9959 7.10524L20.8843 5.5812C20.5257 5.10307 20.0774 4.72056 19.5395 4.43369C19.0016 4.14681 18.4099 4.00337 17.7645 4.00337H10.5925C10.2936 4.00337 10.0307 4.15577 9.80356 4.46058C9.57645 4.76539 9.4629 5.12698 9.4629 5.54534C9.4629 5.9637 9.57944 6.32529 9.81253 6.6301C10.0456 6.93491 10.3056 7.08731 10.5925 7.08731H11.471C11.5189 6.66895 11.6982 6.3223 12.0089 6.04737C12.3197 5.77245 12.6843 5.63499 13.1027 5.63499C13.5688 5.63499 13.9633 5.79636 14.286 6.11909C14.6088 6.44183 14.7701 6.83031 14.7701 7.28454C14.7701 7.28454 14.7701 7.29052 14.7701 7.30247C14.7701 7.31442 14.7701 7.3204 14.7701 7.3204V8.82651H16.4197V7.33833C16.4197 6.87215 16.5811 6.48068 16.9038 6.16392C17.2265 5.84716 17.621 5.6828 18.0872 5.67085H18.6251C18.9 5.67085 19.154 5.7336 19.3871 5.85911C19.6202 5.98462 19.8144 6.15496 19.9698 6.37011L21.0277 7.82244C21.0516 7.84634 21.0695 7.87623 21.0815 7.91209C21.0934 7.94795 21.0994 7.98381 21.0994 8.01967C21.0994 8.07943 21.0845 8.13322 21.0546 8.18104C21.0247 8.22885 20.9918 8.26471 20.956 8.28862L20.5436 8.59342C20.5197 8.61733 20.4898 8.63227 20.4539 8.63825C20.4181 8.64423 20.3822 8.64721 20.3463 8.64721C20.2866 8.64721 20.2328 8.63526 20.185 8.61135C20.1372 8.58745 20.1013 8.55756 20.0774 8.5217L19.0195 7.05145C18.9717 6.99169 18.9149 6.94387 18.8492 6.90802C18.7834 6.87216 18.7087 6.85423 18.6251 6.85423H18.0872C17.9557 6.85423 17.8421 6.89905 17.7465 6.9887C17.6509 7.07835 17.6031 7.18892 17.6031 7.3204V20.7141C17.6031 20.7977 17.5702 20.8724 17.5044 20.9382C17.4387 21.0039 17.358 21.0368 17.2624 21.0368H13.9274C13.8318 21.0368 13.7511 21.0039 13.6854 20.9382C13.6196 20.8724 13.5868 20.7977 13.5868 20.7141V7.33834C13.5868 7.20685 13.539 7.09329 13.4433 6.99767C13.3477 6.90204 13.2341 6.85423 13.1027 6.85423C12.9712 6.85423 12.8606 6.90204 12.771 6.99767C12.6813 7.09329 12.6365 7.20685 12.6365 7.33834V7.93002C12.6365 8.02565 12.6036 8.10633 12.5379 8.17208C12.4721 8.23782 12.3914 8.27069 12.2958 8.27069H10.5925C9.95895 8.27069 9.41508 8.00473 8.96085 7.47281C8.50663 6.94089 8.27952 6.2984 8.27952 5.54535C8.27952 4.79229 8.50663 4.14981 8.96085 3.61789C9.41508 3.08597 9.95895 2.82001 10.5925 2.82001H17.7645C18.6012 2.82001 19.3752 3.00827 20.0864 3.3848C20.7976 3.76133 21.3863 4.27233 21.8525 4.9178L22.9462 6.42392L22.9462 6.4239ZM14.7702 19.8534H16.4197V10.0099H14.7702V19.8534ZM1.8248 8.48588H5.05219C5.13586 8.48588 5.21057 8.51875 5.27631 8.58449C5.34205 8.65024 5.37493 8.73092 5.37493 8.82655V9.34651C5.37493 9.43019 5.34205 9.50489 5.27631 9.57064C5.21057 9.63638 5.13586 9.66925 5.05219 9.66925H1.8248C1.72918 9.66925 1.64849 9.63638 1.58275 9.57064C1.51701 9.50489 1.48414 9.43019 1.48414 9.34651V8.82655C1.48414 8.73092 1.51701 8.65024 1.58275 8.58449C1.64849 8.51875 1.72918 8.48588 1.8248 8.48588ZM1.8248 5.65295H5.05219C5.13586 5.65295 5.21057 5.68582 5.27631 5.75157C5.34205 5.81731 5.37493 5.89799 5.37493 5.99362V6.49566C5.37493 6.59128 5.34205 6.67197 5.27631 6.73771C5.21057 6.80345 5.13586 6.83633 5.05219 6.83633H1.8248C1.72918 6.83633 1.64849 6.80345 1.58275 6.73771C1.51701 6.67197 1.48414 6.59128 1.48414 6.49566V5.99362C1.48414 5.89799 1.51701 5.81731 1.58275 5.75157C1.64849 5.68582 1.72918 5.65295 1.8248 5.65295ZM1.8248 2.82002H5.05219C5.13586 2.82002 5.21057 2.8529 5.27631 2.91864C5.34205 2.98438 5.37493 3.06507 5.37493 3.16069V3.66273C5.37493 3.75836 5.34205 3.83904 5.27631 3.90478C5.21057 3.97053 5.13586 4.0034 5.05219 4.0034H1.8248C1.72918 4.0034 1.64849 3.97053 1.58275 3.90478C1.51701 3.83904 1.48414 3.75836 1.48414 3.66273V3.16069C1.48414 3.06507 1.51701 2.98438 1.58275 2.91864C1.64849 2.8529 1.72918 2.82002 1.8248 2.82002Z" fill="#CB4B00"/>
</svg>
