<svg width="24" height="24" viewBox="0 0 24 24" fill="none" xmlns="http://www.w3.org/2000/svg">
<path fill-rule="evenodd" clip-rule="evenodd" d="M1.3906 4.44142C1.42967 4.4935 1.47524 4.53257 1.52732 4.55861C1.5794 4.58465 1.638 4.59767 1.7031 4.59767C1.74217 4.59767 1.77797 4.59116 1.81052 4.57814C1.84308 4.56512 1.87888 4.54559 1.91795 4.51955L3.10935 3.66017L6.46872 8.28907C6.50778 8.32814 6.55336 8.36069 6.60544 8.38673C6.65752 8.41277 6.70961 8.42579 6.76169 8.42579C6.80075 8.42579 6.83982 8.42254 6.87888 8.41603C6.91794 8.40952 6.95049 8.39324 6.97653 8.3672L7.42575 8.03517C7.47783 8.00913 7.5169 7.97006 7.54294 7.91798C7.56898 7.8659 7.582 7.8073 7.582 7.7422C7.582 7.70314 7.57549 7.66407 7.56247 7.62501C7.54945 7.58595 7.52992 7.5534 7.50388 7.52736L3.59763 2.15627C3.57159 2.10419 3.53253 2.06512 3.48045 2.03908C3.42836 2.01304 3.36977 2.00002 3.30467 2.00002C3.2656 2.00002 3.2298 2.00653 3.19724 2.01955C3.16469 2.03257 3.12888 2.0521 3.08982 2.07815L1.17576 3.48439C1.12368 3.52345 1.08462 3.56903 1.05858 3.62111C1.03254 3.67319 1.01951 3.72528 1.01951 3.77736C1.01951 3.81642 1.02602 3.85548 1.03905 3.89455C1.05207 3.93361 1.06509 3.96616 1.07811 3.9922L1.3906 4.44142ZM17.8945 18.7383C17.9336 18.7773 17.9792 18.8131 18.0312 18.8457C18.0833 18.8782 18.1419 18.8945 18.207 18.8945C18.2461 18.8945 18.2819 18.888 18.3144 18.875C18.347 18.862 18.3828 18.8424 18.4219 18.8164L18.8711 18.4844C18.9101 18.4583 18.9427 18.4193 18.9687 18.3672C18.9948 18.3151 19.0078 18.2565 19.0078 18.1914C19.0078 18.1523 19.0013 18.1165 18.9883 18.084C18.9752 18.0514 18.9622 18.0156 18.9492 17.9766L18.6172 17.5273C18.5781 17.4883 18.5358 17.4557 18.4902 17.4297C18.4446 17.4036 18.3893 17.3906 18.3242 17.3906C18.2851 17.3906 18.2461 17.3939 18.207 17.4004C18.168 17.4069 18.1354 17.4232 18.1094 17.4492L17.6601 17.7812C17.6081 17.8073 17.569 17.8463 17.543 17.8984C17.5169 17.9505 17.5039 18.0091 17.5039 18.0742C17.5039 18.1133 17.5104 18.1523 17.5234 18.1914C17.5364 18.2305 17.556 18.263 17.582 18.2891L17.8945 18.7383ZM13.5391 6.78515C13.5651 6.9414 13.6107 7.09114 13.6758 7.23437C13.7409 7.3776 13.819 7.51432 13.9102 7.64452L14.8672 8.95312C14.8932 8.99218 14.9225 9.02148 14.9551 9.04101C14.9876 9.06054 15.0169 9.07681 15.043 9.08984L18.9101 10.3398C18.9362 10.3529 18.9557 10.3594 18.9687 10.3594C18.9818 10.3594 19.0013 10.3594 19.0273 10.3594C19.0664 10.3594 19.1055 10.3529 19.1445 10.3398C19.1836 10.3268 19.2161 10.3138 19.2422 10.3008L21.7031 8.5039C21.9766 8.29557 22.1946 8.03841 22.3574 7.73241C22.5202 7.42642 22.6016 7.09114 22.6016 6.72656C22.6016 6.49218 22.5657 6.26432 22.4941 6.04296C22.4225 5.82161 22.3216 5.61979 22.1914 5.4375L20.375 2.9375C20.1797 2.66406 19.9355 2.44271 19.6426 2.27344C19.3496 2.10417 19.0273 2.01302 18.6758 2C18.6628 2 18.6562 2 18.6562 2C18.6562 2 18.6497 2 18.6367 2C18.3763 2 18.1289 2.04232 17.8945 2.12695C17.6601 2.21159 17.4453 2.32552 17.25 2.46875L14.3984 4.57812L1.15625 14.1875C1.10417 14.2266 1.0651 14.2721 1.03906 14.3242C1.01302 14.3763 1 14.4284 1 14.4805V19.3828C1 19.4219 1.00651 19.4577 1.01953 19.4902C1.03255 19.5228 1.05208 19.5586 1.07812 19.5977L2.71875 21.8438C2.74479 21.8958 2.78385 21.9349 2.83594 21.9609C2.88802 21.987 2.94661 22 3.01172 22C3.05078 22 3.08659 21.9935 3.11914 21.9805C3.15169 21.9674 3.1875 21.9544 3.22656 21.9414L11.8398 15.6719L13.0312 17.3125L15.2383 20.3398C15.5768 20.8086 16.0097 21.1829 16.5371 21.4629C17.0644 21.7428 17.6406 21.8828 18.2656 21.8828C19.2942 21.8828 20.1731 21.5182 20.9023 20.7891C21.6315 20.0599 21.9961 19.181 21.9961 18.1524C21.9961 17.1107 21.6315 16.2253 20.9023 15.4961C20.1731 14.7669 19.2942 14.4024 18.2656 14.4024C17.8489 14.4024 17.4518 14.4675 17.0742 14.5977C16.6966 14.7279 16.3515 14.9037 16.039 15.125L14.0664 16.5703L12.875 14.9102L16.8984 12C16.9375 11.961 16.97 11.9154 16.9961 11.8633C17.0221 11.8112 17.0351 11.7526 17.0351 11.6875C17.0351 11.6485 17.0319 11.6127 17.0254 11.5801C17.0189 11.5476 17.0026 11.5117 16.9765 11.4727L16.6445 11.0235C16.6185 10.9844 16.5794 10.9518 16.5273 10.9258C16.4752 10.8998 16.4166 10.8867 16.3515 10.8867C16.3125 10.8867 16.2734 10.8933 16.2344 10.9063C16.1953 10.9193 16.1627 10.9323 16.1367 10.9453L3.20704 20.3399L2.28908 19.0703V14.9492L13.5391 6.78515ZM15.1601 5.61328L18.0898 3.48438C18.1549 3.43229 18.2363 3.38997 18.334 3.35742C18.4316 3.32487 18.5325 3.30859 18.6367 3.30859C18.7799 3.30859 18.9167 3.34115 19.0469 3.40625C19.1771 3.47135 19.2877 3.5625 19.3789 3.67969L21.1953 6.19922C21.2474 6.26432 21.2897 6.3457 21.3223 6.44336C21.3548 6.54101 21.3711 6.64192 21.3711 6.74609C21.3711 6.88932 21.3385 7.02604 21.2734 7.15625C21.2083 7.28646 21.1172 7.39062 21 7.46875L18.9101 8.99219L15.7266 7.95703L14.9453 6.86329C14.8932 6.79818 14.8542 6.72006 14.8281 6.62891C14.8021 6.53777 14.789 6.44662 14.789 6.35548C14.789 6.19923 14.8216 6.056 14.8867 5.92579C14.9518 5.79558 15.043 5.69141 15.1601 5.61329L15.1601 5.61328ZM16.8203 16.1601C17.0156 16.0169 17.237 15.903 17.4844 15.8183C17.7318 15.7337 17.9922 15.6914 18.2656 15.6914C18.9427 15.6914 19.5221 15.9323 20.0039 16.414C20.4857 16.8958 20.7265 17.4752 20.7265 18.1523C20.7265 18.8294 20.4857 19.4056 20.0039 19.8808C19.5221 20.3561 18.9427 20.5937 18.2656 20.5937C17.862 20.5937 17.4876 20.5026 17.1426 20.3203C16.7975 20.138 16.5143 19.8971 16.293 19.5976L14.8477 17.6054L16.8203 16.1601ZM17.8945 6.98048C17.9336 7.03256 17.9792 7.07162 18.0312 7.09766C18.0833 7.12371 18.1419 7.13673 18.207 7.13673C18.2461 7.13673 18.2819 7.13022 18.3144 7.1172C18.347 7.10417 18.3828 7.09116 18.4219 7.07813L18.8711 6.7461C18.9101 6.70704 18.9427 6.66147 18.9687 6.60938C18.9948 6.5573 19.0078 6.50522 19.0078 6.45314C19.0078 6.41407 19.0013 6.37501 18.9883 6.33595C18.9752 6.29688 18.9622 6.26433 18.9492 6.23829L18.6172 5.78907C18.5781 5.73699 18.5358 5.69793 18.4902 5.67188C18.4446 5.64584 18.3893 5.63282 18.3242 5.63282C18.2851 5.63282 18.2461 5.63933 18.207 5.65235C18.168 5.66537 18.1354 5.68491 18.1094 5.71095L17.6601 6.02345C17.6081 6.06251 17.569 6.10808 17.543 6.16017C17.5169 6.21225 17.5039 6.27084 17.5039 6.33595C17.5039 6.37501 17.5104 6.41082 17.5234 6.44337C17.5364 6.47592 17.556 6.50522 17.582 6.53126L17.8945 6.98048Z" fill="#CB4B00"/>
</svg>
