<svg width="24" height="24" viewBox="0 0 24 24" fill="none" xmlns="http://www.w3.org/2000/svg">
<path fill-rule="evenodd" clip-rule="evenodd" d="M11.2942 14.0294H11.806C11.9001 14.0294 11.9795 14.0617 12.0442 14.1264C12.1089 14.1912 12.1413 14.2706 12.1413 14.3647V14.8588C12.1413 14.9529 12.1089 15.0323 12.0442 15.097C11.9795 15.1617 11.9001 15.1941 11.806 15.1941H11.2942C11.2001 15.1941 11.1207 15.1617 11.056 15.097C10.9913 15.0323 10.9589 14.9529 10.9589 14.8588V14.3647C10.9589 14.2706 10.9913 14.1912 11.056 14.1264C11.1207 14.0617 11.2001 14.0294 11.2942 14.0294ZM11.2942 16.3764H11.806C11.9001 16.3764 11.9795 16.4088 12.0442 16.4735C12.1089 16.5382 12.1413 16.6176 12.1413 16.7117V17.2235C12.1413 17.3058 12.1089 17.3823 12.0442 17.4529C11.9795 17.5235 11.9001 17.5588 11.806 17.5588H11.2942C11.2001 17.5588 11.1207 17.5235 11.056 17.4529C10.9913 17.3823 10.9589 17.3058 10.9589 17.2235V16.7117C10.9589 16.6176 10.9913 16.5382 11.056 16.4735C11.1207 16.4088 11.2001 16.3764 11.2942 16.3764ZM11.2942 11.6823H11.806C11.9001 11.6823 11.9795 11.7147 12.0442 11.7794C12.1089 11.8441 12.1413 11.9235 12.1413 12.0176V12.5117C12.1413 12.6059 12.1089 12.6853 12.0442 12.75C11.9795 12.8147 11.9001 12.847 11.806 12.847H11.2942C11.2001 12.847 11.1207 12.8147 11.056 12.75C10.9913 12.6853 10.9589 12.6059 10.9589 12.5117V12.0176C10.9589 11.9235 10.9913 11.8441 11.056 11.7794C11.1207 11.7147 11.2001 11.6823 11.2942 11.6823ZM13.6412 14.0294H14.153C14.2471 14.0294 14.3265 14.0617 14.3912 14.1264C14.456 14.1911 14.4883 14.2706 14.4883 14.3647V14.8588C14.4883 14.9529 14.456 15.0323 14.3912 15.097C14.3265 15.1617 14.2471 15.1941 14.153 15.1941H13.6412C13.5589 15.1941 13.4824 15.1617 13.4118 15.097C13.3412 15.0323 13.306 14.9529 13.306 14.8588V14.3647C13.306 14.2706 13.3412 14.1911 13.4118 14.1264C13.4824 14.0617 13.5589 14.0294 13.6412 14.0294ZM8.94714 14.0294H9.45891C9.55302 14.0294 9.63243 14.0617 9.69714 14.1264C9.76185 14.1911 9.7942 14.2706 9.7942 14.3647V14.8588C9.7942 14.9529 9.76185 15.0323 9.69714 15.097C9.63243 15.1617 9.55302 15.1941 9.45891 15.1941H8.94714C8.85302 15.1941 8.77361 15.1617 8.70891 15.097C8.6442 15.0323 8.61185 14.9529 8.61185 14.8588V14.3647C8.61185 14.2706 8.6442 14.1911 8.70891 14.1264C8.77361 14.0617 8.85302 14.0294 8.94714 14.0294ZM13.6412 11.6823H14.153C14.2471 11.6823 14.3265 11.7147 14.3912 11.7794C14.456 11.8441 14.4883 11.9235 14.4883 12.0176V12.5117C14.4883 12.6059 14.456 12.6853 14.3912 12.75C14.3265 12.8147 14.2471 12.847 14.153 12.847H13.6412C13.5589 12.847 13.4824 12.8147 13.4118 12.75C13.3412 12.6853 13.306 12.6059 13.306 12.5117V12.0176C13.306 11.9235 13.3412 11.8441 13.4118 11.7794C13.4824 11.7147 13.5589 11.6823 13.6412 11.6823ZM13.6412 16.3764H14.153C14.2471 16.3764 14.3265 16.4088 14.3912 16.4735C14.456 16.5382 14.4883 16.6176 14.4883 16.7117V17.2235C14.4883 17.3058 14.456 17.3823 14.3912 17.4529C14.3265 17.5235 14.2471 17.5588 14.153 17.5588H13.6412C13.5589 17.5588 13.4824 17.5235 13.4118 17.4529C13.3412 17.3823 13.306 17.3058 13.306 17.2235V16.7117C13.306 16.6176 13.3412 16.5382 13.4118 16.4735C13.4824 16.4088 13.5589 16.3764 13.6412 16.3764ZM6.60006 11.6823H7.11183C7.19418 11.6823 7.27065 11.7147 7.34124 11.7794C7.41182 11.8441 7.44712 11.9235 7.44712 12.0176V12.5117C7.44712 12.6059 7.41182 12.6853 7.34124 12.75C7.27065 12.8147 7.19418 12.847 7.11183 12.847H6.60006C6.50594 12.847 6.42653 12.8147 6.36183 12.75C6.29712 12.6853 6.26477 12.6059 6.26477 12.5117V12.0176C6.26477 11.9235 6.29712 11.8441 6.36183 11.7794C6.42653 11.7147 6.50594 11.6823 6.60006 11.6823ZM6.60006 16.3764H7.11183C7.19418 16.3764 7.27065 16.4088 7.34124 16.4735C7.41182 16.5382 7.44712 16.6176 7.44712 16.7117V17.2235C7.44712 17.3058 7.41182 17.3823 7.34124 17.4529C7.27065 17.5235 7.19418 17.5588 7.11183 17.5588H6.60006C6.50594 17.5588 6.42653 17.5235 6.36183 17.4529C6.29712 17.3823 6.26477 17.3058 6.26477 17.2235V16.7117C6.26477 16.6176 6.29712 16.5382 6.36183 16.4735C6.42653 16.4088 6.50594 16.3764 6.60006 16.3764ZM8.94712 16.3764H9.45888C9.553 16.3764 9.63241 16.4088 9.69711 16.4735C9.76182 16.5382 9.79417 16.6176 9.79417 16.7117V17.2235C9.79417 17.3058 9.76182 17.3823 9.69711 17.4529C9.63241 17.5235 9.553 17.5588 9.45888 17.5588H8.94712C8.853 17.5588 8.77359 17.5235 8.70888 17.4529C8.64418 17.3823 8.61182 17.3058 8.61182 17.2235V16.7117C8.61182 16.6176 8.64418 16.5382 8.70888 16.4735C8.77359 16.4088 8.853 16.3764 8.94712 16.3764ZM8.94712 11.6823H9.45888C9.553 11.6823 9.63241 11.7147 9.69711 11.7794C9.76182 11.8441 9.79417 11.9235 9.79417 12.0176V12.5117C9.79417 12.6059 9.76182 12.6853 9.69711 12.75C9.63241 12.8147 9.553 12.847 9.45888 12.847H8.94712C8.853 12.847 8.77359 12.8147 8.70888 12.75C8.64418 12.6853 8.61182 12.6059 8.61182 12.5117V12.0176C8.61182 11.9235 8.64418 11.8441 8.70888 11.7794C8.77359 11.7147 8.853 11.6823 8.94712 11.6823ZM6.60006 14.0294H7.11183C7.19418 14.0294 7.27065 14.0617 7.34124 14.1264C7.41182 14.1911 7.44712 14.2706 7.44712 14.3647V14.8588C7.44712 14.9529 7.41182 15.0323 7.34124 15.097C7.27065 15.1617 7.19418 15.1941 7.11183 15.1941H6.60006C6.50594 15.1941 6.42653 15.1617 6.36183 15.097C6.29712 15.0323 6.26477 14.9529 6.26477 14.8588V14.3647C6.26477 14.2706 6.29712 14.1911 6.36183 14.1264C6.42653 14.0617 6.50594 14.0294 6.60006 14.0294ZM22.8529 4.6059C23.1941 4.7706 23.4706 5.01472 23.6824 5.33825C23.8941 5.66178 24 6.02354 24 6.42354C24 6.56472 23.9853 6.70884 23.9559 6.85589C23.9265 7.00295 23.8824 7.13531 23.8235 7.25295L23.4706 7.99413L19.3412 16.9412C19.3294 16.9647 19.3206 16.9823 19.3147 16.9941C19.3088 17.0059 19.3 17.0176 19.2882 17.0294L15.6177 20.9647C15.5824 21 15.5441 21.0294 15.503 21.0529C15.4618 21.0764 15.4118 21.0882 15.353 21.0882C15.2706 21.0882 15.1941 21.0558 15.1236 20.9911C15.053 20.9264 15.0177 20.847 15.0177 20.7529C15.0177 20.7411 15.0206 20.7294 15.0265 20.7176C15.0324 20.7058 15.0353 20.7 15.0353 20.7L15.6883 15.3529C15.6883 15.3529 15.6883 15.347 15.6883 15.3353C15.6883 15.3235 15.6883 15.3176 15.6883 15.3176C15.6883 15.3059 15.6883 15.2941 15.6883 15.2823C15.6883 15.2706 15.6883 15.2647 15.6883 15.2647L20.2059 5.55882C20.3588 5.21764 20.5971 4.94117 20.9206 4.72941C21.2441 4.51765 21.6059 4.41176 22.0059 4.41176C22.1588 4.41176 22.3059 4.42941 22.4471 4.46471C22.5882 4.5 22.7235 4.54706 22.8529 4.60588L22.8529 4.6059ZM17.8059 16.8529L16.7294 16.3411L16.4824 18.2647L17.8059 16.8529ZM21.9177 8.55883L20.4177 7.87059L16.9941 15.1765L18.5118 15.8823L21.9177 8.55883ZM22.7471 6.75883C22.7706 6.71178 22.7912 6.65883 22.8088 6.60001C22.8265 6.54119 22.8353 6.47648 22.8353 6.40589C22.8353 6.18237 22.7529 5.99119 22.5882 5.83237C22.4235 5.67354 22.2294 5.59413 22.0059 5.59413C21.8412 5.59413 21.6941 5.63825 21.5647 5.72648C21.4353 5.81472 21.3353 5.92942 21.2647 6.0706L20.9118 6.81178L22.4118 7.50001L22.7647 6.75884L22.7471 6.75883ZM14.2059 8.61177C14.2883 8.62353 14.3559 8.66177 14.4088 8.72648C14.4618 8.79118 14.4882 8.85883 14.4882 8.92942C14.4882 8.94118 14.4882 8.94706 14.4882 8.94706V9.45883C14.4765 9.55294 14.4382 9.63235 14.3735 9.69706C14.3088 9.76177 14.2294 9.79412 14.1353 9.79412C14.1353 9.79412 14.1294 9.79412 14.1177 9.79412C14.1059 9.79412 14.0941 9.79412 14.0824 9.79412C13.3412 9.7 12.6971 9.39412 12.15 8.87647C11.603 8.35883 11.2647 7.72942 11.1353 6.98824H6.8118C6.72945 6.98824 6.65298 6.95589 6.58239 6.89118C6.5118 6.82648 6.47651 6.74706 6.47651 6.65295V6.15883C6.47651 6.06471 6.5118 5.9853 6.58239 5.9206C6.65298 5.85589 6.72945 5.82354 6.8118 5.82354L9.58238 5.80589C9.45297 5.3353 9.19121 4.94413 8.79709 4.63237C8.40298 4.3206 7.95297 4.16472 7.4471 4.16472C6.82357 4.16472 6.29416 4.38237 5.85886 4.81766C5.42357 5.25295 5.20593 5.78236 5.20593 6.40589C5.20593 6.97059 5.39416 7.46177 5.77063 7.87942C6.1471 8.29706 6.61769 8.54118 7.18239 8.61177C7.25298 8.62353 7.31474 8.66177 7.36769 8.72647C7.42063 8.79118 7.4471 8.85882 7.4471 8.92941C7.4471 8.94118 7.4471 8.94706 7.4471 8.94706V9.45882C7.4471 9.55294 7.41474 9.63235 7.35004 9.69706C7.28533 9.76176 7.20592 9.79412 7.1118 9.79412C7.10004 9.79412 7.09122 9.79117 7.08533 9.78529C7.07945 9.77941 7.07063 9.77647 7.05886 9.77647C6.30592 9.69412 5.65887 9.39412 5.11769 8.87647C4.57651 8.35883 4.23534 7.72941 4.09416 6.98824H3.33534V15.847C3.30004 16.6 3.16181 17.3205 2.92063 18.0088C2.67946 18.697 2.35299 19.3235 1.94122 19.8882H13.5529C13.647 19.8882 13.7265 19.9205 13.7912 19.9852C13.8559 20.05 13.8882 20.1294 13.8882 20.2235V20.7352C13.8882 20.8294 13.8559 20.9088 13.7912 20.9735C13.7265 21.0382 13.647 21.0705 13.5529 21.0705H0.335293C0.241176 21.0705 0.161764 21.0382 0.0970587 20.9735C0.0323529 20.9088 0 20.8294 0 20.7352C0 20.7 0.00588263 20.6647 0.0176471 20.6294C0.0294117 20.5941 0.0470588 20.5647 0.0705884 20.5411L0.35294 20.1352C0.799998 19.5235 1.2147 18.8529 1.59705 18.1235C1.97941 17.3941 2.17058 16.6294 2.17058 15.8294V6.15881C2.17058 6.06469 2.20294 5.98528 2.26764 5.92058C2.33235 5.85587 2.41176 5.82352 2.50588 5.82352L4.11176 5.78822C4.25293 5.01176 4.6294 4.35881 5.24117 3.82941C5.85293 3.3 6.57057 3.02353 7.3941 3C7.40587 3 7.41469 3 7.42057 3C7.42645 3 7.4294 3 7.4294 3C8.26469 3 8.99704 3.26765 9.62645 3.80294C10.2559 4.33823 10.6412 5.01176 10.7823 5.82352L11.1353 5.78823C11.2882 5.01176 11.6706 4.35882 12.2823 3.82941C12.8941 3.3 13.6117 3.02353 14.4353 3C14.4353 3 14.4411 3 14.4529 3C14.4647 3 14.4764 3 14.4882 3C15.3235 3 16.0529 3.26765 16.6764 3.80294C17.3 4.33824 17.6882 5.01177 17.8411 5.82353H18.2117C18.2941 5.82353 18.3705 5.85588 18.4411 5.92058C18.5117 5.98529 18.547 6.0647 18.547 6.15882V6.65293C18.547 6.74705 18.5117 6.82646 18.4411 6.89117C18.3705 6.95587 18.2941 6.98823 18.2117 6.98823H13.8529C13.7706 6.98823 13.6941 6.95587 13.6235 6.89117C13.5529 6.82646 13.5176 6.74705 13.5176 6.65293V6.15882C13.5176 6.0647 13.5529 5.98529 13.6235 5.92058C13.6941 5.85588 13.7706 5.82353 13.8529 5.82353L16.6235 5.80588C16.4941 5.33529 16.2323 4.94412 15.8382 4.63235C15.4441 4.32059 14.9882 4.16471 14.4706 4.16471C13.8588 4.16471 13.3353 4.38235 12.9 4.81764C12.4647 5.25294 12.247 5.78235 12.247 6.40588C12.247 6.97058 12.4353 7.46175 12.8117 7.8794C13.1882 8.29705 13.6529 8.54116 14.2058 8.61175L14.2059 8.61177Z" fill="#CB4B00"/>
</svg>
