<svg width="24" height="24" viewBox="0 0 24 24" fill="none" xmlns="http://www.w3.org/2000/svg">
<path fill-rule="evenodd" clip-rule="evenodd" d="M15.0861 9.30472C15.047 9.27868 15.0112 9.25914 14.9786 9.24612C14.9461 9.2331 14.9103 9.22659 14.8712 9.22659C14.8061 9.22659 14.7475 9.23961 14.6954 9.26565C14.6434 9.2917 14.6043 9.33076 14.5783 9.38284L12.0197 12.7227L10.9454 11.3164C10.9064 11.2774 10.8608 11.2448 10.8087 11.2188C10.7566 11.1927 10.7046 11.1797 10.6525 11.1797C10.6134 11.1797 10.5743 11.1862 10.5353 11.1992C10.4962 11.2123 10.4637 11.2253 10.4376 11.2383L9.98841 11.5703C9.93633 11.5964 9.89726 11.6354 9.87122 11.6875C9.84518 11.7396 9.83216 11.7982 9.83216 11.8633C9.83216 11.9024 9.83867 11.9414 9.85169 11.9805C9.86471 12.0196 9.88424 12.0521 9.91028 12.0782L11.8243 14.4219C11.8504 14.474 11.8894 14.513 11.9415 14.5391C11.9936 14.5651 12.0522 14.5781 12.1173 14.5781C12.1694 14.5781 12.2215 14.5651 12.2736 14.5391C12.3256 14.513 12.3712 14.474 12.4103 14.4219L15.6134 10.125C15.6264 10.099 15.6394 10.0697 15.6525 10.0371C15.6655 10.0046 15.672 9.96878 15.672 9.92971C15.672 9.86461 15.659 9.80602 15.6329 9.75393C15.6069 9.70185 15.5678 9.65628 15.5157 9.61721L15.0861 9.30472ZM6.45327 8.38675C6.36212 8.38675 6.28074 8.42256 6.20913 8.49417C6.13751 8.56579 6.10171 8.65368 6.10171 8.75784V9.30472C6.10171 9.39586 6.13751 9.47724 6.20913 9.54886C6.28074 9.62047 6.36212 9.65628 6.45327 9.65628H7.00014C7.10431 9.65628 7.1922 9.62047 7.26381 9.54886C7.33543 9.47724 7.37124 9.39586 7.37124 9.30472V8.75784C7.37124 8.65368 7.33543 8.56579 7.26381 8.49417C7.1922 8.42256 7.10431 8.38675 7.00014 8.38675H6.45327ZM6.45327 10.9453C6.36212 10.9453 6.28074 10.9811 6.20913 11.0528C6.13751 11.1244 6.10171 11.2123 6.10171 11.3164V11.8633C6.10171 11.9675 6.13751 12.0554 6.20913 12.127C6.28074 12.1986 6.36212 12.2344 6.45327 12.2344H7.00014C7.10431 12.2344 7.1922 12.1986 7.26381 12.127C7.33543 12.0554 7.37124 11.9675 7.37124 11.8633V11.3164C7.37124 11.2123 7.33543 11.1244 7.26381 11.0528C7.1922 10.9811 7.10431 10.9453 7.00014 10.9453H6.45327ZM9.01186 8.38675C8.92071 8.38675 8.83933 8.42256 8.76772 8.49417C8.69611 8.56579 8.6603 8.65368 8.6603 8.75784V9.30472C8.6603 9.39586 8.69611 9.47724 8.76772 9.54886C8.83933 9.62047 8.92071 9.65628 9.01186 9.65628H9.57827C9.66941 9.65628 9.75079 9.62047 9.82241 9.54886C9.89402 9.47724 9.92983 9.39586 9.92983 9.30472V8.75784C9.92983 8.65368 9.89402 8.56579 9.82241 8.49417C9.75079 8.42256 9.66941 8.38675 9.57827 8.38675H9.01186ZM16.6877 12.8594C16.5835 12.8594 16.4956 12.8952 16.424 12.9668C16.3524 13.0384 16.3166 13.1263 16.3166 13.2305V13.7774C16.3166 13.8815 16.3524 13.9662 16.424 14.0313C16.4956 14.0964 16.5835 14.1289 16.6877 14.1289H17.2345C17.3387 14.1289 17.4266 14.0964 17.4982 14.0313C17.5698 13.9662 17.6056 13.8815 17.6056 13.7774V13.2305C17.6056 13.1263 17.5698 13.0384 17.4982 12.9668C17.4266 12.8952 17.3387 12.8594 17.2345 12.8594H16.6877ZM14.1291 15.418C14.0249 15.418 13.937 15.4538 13.8654 15.5254C13.7938 15.597 13.758 15.6849 13.758 15.7891V16.336C13.758 16.4401 13.7938 16.528 13.8654 16.5996C13.937 16.6712 14.0249 16.7071 14.1291 16.7071H14.6759C14.7801 16.7071 14.868 16.6712 14.9396 16.5996C15.0112 16.528 15.047 16.4401 15.047 16.336V15.7891C15.047 15.6849 15.0112 15.597 14.9396 15.5254C14.868 15.4538 14.7801 15.418 14.6759 15.418H14.1291ZM19.8908 3.26953V13.9727C19.8908 14.2331 19.8322 14.474 19.715 14.6953C19.5978 14.9167 19.4416 15.099 19.2462 15.2422L12.215 20.3594C12.1889 20.3854 12.1596 20.4017 12.1271 20.4082C12.0945 20.4147 12.0587 20.418 12.0197 20.418C11.9936 20.418 11.9611 20.4147 11.922 20.4082C11.883 20.4017 11.8504 20.3854 11.8244 20.3594L4.7931 15.2422C4.61081 15.099 4.46107 14.9167 4.34388 14.6953C4.22669 14.474 4.1681 14.2331 4.1681 13.9727V3.40627C4.1681 3.3672 4.17461 3.33791 4.18763 3.31838C4.20065 3.29884 4.22018 3.28257 4.24622 3.26953H19.8908ZM20.8478 2H3.48456C3.30227 2 3.14927 2.06185 3.02557 2.18555C2.90188 2.30924 2.84003 2.46224 2.84003 2.64453V13.9727C2.84003 14.4544 2.94745 14.8971 3.16229 15.3008C3.37714 15.7044 3.66685 16.0365 4.03143 16.2969L11.7854 21.9414C11.8114 21.9544 11.8407 21.9674 11.8732 21.9805C11.9058 21.9935 11.9416 22 11.9807 22C12.0067 22 12.036 21.9935 12.0686 21.9805C12.1011 21.9674 12.1304 21.9544 12.1565 21.9414L19.969 16.2969C20.3336 16.0365 20.6233 15.7044 20.8381 15.3008C21.053 14.8971 21.1604 14.4544 21.1604 13.9727V2.31253C21.1604 2.23441 21.1311 2.16279 21.0725 2.09769C21.0139 2.03258 20.939 2 20.8479 2H20.8478ZM6.41422 5.24218H19.9884C20.0796 5.24218 20.1544 5.27148 20.213 5.33008C20.2716 5.38867 20.3009 5.46354 20.3009 5.55468V6.19921C20.3009 6.29036 20.2716 6.36523 20.213 6.42382C20.1544 6.48242 20.0796 6.51171 19.9884 6.51171H6.41422C6.32308 6.51171 6.24821 6.48242 6.18961 6.42382C6.13102 6.36523 6.10172 6.29036 6.10172 6.19921V5.55468C6.10172 5.46354 6.13102 5.38867 6.18961 5.33008C6.24821 5.27148 6.32308 5.24218 6.41422 5.24218Z" fill="#CB4B00"/>
</svg>
