<svg width="24" height="24" viewBox="0 0 24 24" fill="none" xmlns="http://www.w3.org/2000/svg">
<path d="M14.9881 1.91497C14.9881 1.70202 14.8161 1.53 14.6031 1.53H14.015C13.8024 1.53 13.63 1.70202 13.63 1.9146V4.13061C13.63 4.34319 13.8024 4.51558 14.015 4.51558H14.6031C14.8161 4.51558 14.9881 4.34319 14.9881 4.13061V1.91497ZM3.85195 1.91497C3.85195 1.70202 3.67956 1.53 3.46698 1.53H2.87884C2.66626 1.53 2.49388 1.70202 2.49388 1.9146V4.13061C2.49388 4.34319 2.66626 4.51558 2.87884 4.51558H3.46698C3.67956 4.51558 3.85195 4.34319 3.85195 4.13061V1.91497ZM14.9881 17.8902V15.9386H20.1481L14.9881 17.8902ZM3.85195 17.8902V15.9386H9.01188L3.85195 17.8902ZM22.6154 14.5805H1.38497C1.17202 14.5805 1 14.7529 1 14.9655V15.5536C1 15.7662 1.17202 15.9386 1.38497 15.9386H2.49388V22.0897C2.49388 22.3023 2.66626 22.4747 2.87884 22.4747H3.46698C3.67956 22.4747 3.85195 22.3023 3.85195 22.0897V19.3428L10.1212 16.9711C10.2707 16.9146 10.37 16.7712 10.37 16.6107V15.9386H13.63V22.0897C13.63 22.3023 13.8024 22.4747 14.015 22.4747H14.6035C14.8157 22.4747 14.9881 22.3023 14.9881 22.0897V19.3428L21.2573 16.9711C21.4069 16.9146 21.5061 16.7712 21.5061 16.6107V15.9386H22.6154C22.828 15.9386 23 15.7662 23 15.5536V14.9655C23 14.7529 22.828 14.5805 22.6154 14.5805ZM14.9881 9.18335V7.23172H20.1481L14.9881 9.18335ZM3.85195 9.18335V7.23172H9.01188L3.85195 9.18335ZM22.6154 5.87365H1.38497C1.17202 5.87365 1 6.04603 1 6.25862V6.84675C1 7.05933 1.17202 7.23172 1.38497 7.23172H2.49388V12.8375C2.49388 13.05 2.66626 13.2224 2.87884 13.2224H3.46698C3.67956 13.2224 3.85195 13.05 3.85195 12.8375V10.6359L10.1212 8.26421C10.2707 8.20735 10.37 8.0643 10.37 7.90423V7.23172H13.63V12.8375C13.63 13.05 13.8024 13.2224 14.015 13.2224H14.6031C14.8161 13.2224 14.9881 13.05 14.9881 12.8375V10.6359L21.2573 8.26421C21.4069 8.20772 21.5061 8.0643 21.5061 7.90423V7.23172H22.6154C22.828 7.23172 23 7.05933 23 6.84675V6.25862C23 6.04603 22.828 5.87365 22.6154 5.87365Z" fill="#CB4B00"/>
</svg>
