<svg width="24" height="24" viewBox="0 0 24 24" fill="none" xmlns="http://www.w3.org/2000/svg">
<path fill-rule="evenodd" clip-rule="evenodd" d="M16.0351 8.26489C16.0936 8.2532 16.1433 8.21811 16.1842 8.15963C16.2252 8.10115 16.2456 8.03682 16.2456 7.96665C16.2456 7.91986 16.2339 7.87308 16.2105 7.8263C16.1871 7.77951 16.1579 7.74443 16.1228 7.72103L13.7895 6.05437C13.7661 6.03098 13.7398 6.01636 13.7105 6.01051C13.6813 6.00466 13.6491 6.00174 13.6141 6.00174C13.5556 6.00174 13.5059 6.01343 13.4649 6.03683C13.424 6.06022 13.386 6.08946 13.3509 6.12455L13.0702 6.51051C13.0585 6.5339 13.0468 6.56314 13.0351 6.59823C13.0234 6.63332 13.0176 6.66841 13.0176 6.70349C13.0176 6.75028 13.0293 6.79706 13.0526 6.84384C13.076 6.89063 13.1053 6.92571 13.1404 6.94911L14.193 7.72103L12.3684 8.31753L11.8772 7.9491L10.6842 7.07191V5.15963L11.7369 5.93156C11.7602 5.94326 11.7895 5.95495 11.8246 5.96665C11.8597 5.97835 11.8947 5.98419 11.9298 5.98419C11.9766 5.98419 12.0234 5.9725 12.0702 5.94911C12.117 5.92571 12.1521 5.89648 12.1754 5.86139L12.4562 5.45788C12.4795 5.43449 12.4971 5.40817 12.5088 5.37893C12.5205 5.34969 12.5263 5.31753 12.5263 5.28244C12.5263 5.23566 12.5146 5.18887 12.4912 5.14209C12.4678 5.09531 12.4328 5.06022 12.386 5.03683L10.0702 3.37016C10.0468 3.34677 10.0176 3.32923 9.98247 3.31753C9.94738 3.30584 9.91229 3.29999 9.8772 3.29999C9.79533 3.29999 9.72223 3.33215 9.65791 3.39648C9.59358 3.46081 9.56142 3.53391 9.56142 3.61578V7.15964L2.64912 16.721C2.63743 16.7327 2.62573 16.7503 2.61403 16.7737C2.60234 16.7971 2.59649 16.8204 2.59649 16.8438L2 20.3175C2 20.3292 2 20.338 2 20.3438C2 20.3497 2 20.3585 2 20.3702C2 20.452 2.03216 20.5251 2.09649 20.5895C2.16082 20.6538 2.23392 20.6859 2.31579 20.6859C2.33918 20.6859 2.3655 20.683 2.39474 20.6772C2.42398 20.6713 2.44444 20.6625 2.45614 20.6509L5.57894 19.0368C5.60233 19.0251 5.6228 19.0105 5.64035 18.993C5.65789 18.9754 5.67251 18.9608 5.68421 18.9491L12.6316 9.3877L16.0351 8.26489ZM4.91231 18.1245L3.36845 18.9315L3.6667 17.2122L4.15793 16.5456H6.07021L4.91231 18.1245ZM6.87723 15.4228H4.9474L6.17547 13.7736H8.10529L6.87723 15.4228ZM8.89477 12.6684H7.00003L8.2281 11.0017H10.1404L8.89477 12.6684ZM10.9299 9.89644H9.00003L10.2456 8.17715L11.5088 9.08943L10.9299 9.89644ZM21.9649 15.5631L19.3684 11.0894C19.345 11.0426 19.3099 11.0046 19.2632 10.9754C19.2164 10.9461 19.1637 10.9315 19.1053 10.9315H13.9298C13.8713 10.9315 13.8187 10.9432 13.7719 10.9666C13.7252 10.99 13.6901 11.0251 13.6667 11.0719L11.0702 15.5631C11.0585 15.5865 11.0497 15.6128 11.0439 15.6421C11.038 15.6713 11.0351 15.6976 11.0351 15.721C11.0351 15.7561 11.038 15.7853 11.0439 15.8087C11.0497 15.8321 11.0585 15.8555 11.0702 15.8789L13.6491 20.3701C13.6725 20.4169 13.7076 20.4549 13.7544 20.4842C13.8012 20.5134 13.8538 20.528 13.9123 20.528H19.1053C19.1637 20.528 19.2164 20.5134 19.2632 20.4842C19.3099 20.4549 19.345 20.4169 19.3684 20.3701L21.9649 15.8789C21.9766 15.8555 21.9854 15.8321 21.9912 15.8087C21.9971 15.7853 22 15.7561 22 15.721C22 15.6976 21.9971 15.6713 21.9912 15.6421C21.9854 15.6128 21.9766 15.5865 21.9649 15.5631V15.5631ZM18.6316 19.4227H14.386L12.2456 15.7385L14.386 12.0368H18.6316L20.7719 15.7385L18.6316 19.4227ZM16.5088 13.8438C15.9942 13.8438 15.5526 14.028 15.1842 14.3964C14.8158 14.7649 14.6316 15.2064 14.6316 15.721C14.6316 16.2473 14.8158 16.6947 15.1842 17.0631C15.5526 17.4315 15.9942 17.6157 16.5088 17.6157C17.0351 17.6157 17.4825 17.4315 17.8509 17.0631C18.2193 16.6947 18.4035 16.2473 18.4035 15.721C18.4035 15.2064 18.2193 14.7649 17.8509 14.3964C17.4825 14.028 17.0351 13.8438 16.5088 13.8438ZM16.5088 16.5105C16.2982 16.5105 16.117 16.4344 15.9649 16.2824C15.8129 16.1303 15.7368 15.9491 15.7368 15.7385C15.7368 15.5163 15.8129 15.3292 15.9649 15.1771C16.117 15.0251 16.2982 14.9491 16.5088 14.9491C16.731 14.9491 16.9181 15.0251 17.0702 15.1771C17.2222 15.3292 17.2982 15.5163 17.2982 15.7385C17.2982 15.9491 17.2222 16.1303 17.0702 16.2824C16.9181 16.4344 16.731 16.5105 16.5088 16.5105Z" fill="#CB4B00"/>
</svg>
