<svg width="24" height="24" viewBox="0 0 24 24" fill="none" xmlns="http://www.w3.org/2000/svg">
<path fill-rule="evenodd" clip-rule="evenodd" d="M9.92966 12.3711C9.42185 12.6966 9.00518 13.1263 8.67966 13.6601C8.35414 14.194 8.17836 14.7799 8.15231 15.4179C8.15231 15.431 8.15231 15.4407 8.15231 15.4472C8.15231 15.4537 8.15231 15.4635 8.15231 15.4765C8.15231 16.0104 8.25648 16.5182 8.46481 17C8.67315 17.4817 8.9531 17.8984 9.30465 18.25C9.65622 18.6015 10.0729 18.8815 10.5547 19.0898C11.0234 19.2981 11.5312 19.4023 12.0781 19.4023C12.0911 19.4023 12.1009 19.4023 12.1074 19.4023C12.1139 19.4023 12.1237 19.4023 12.1367 19.4023H12.2539C12.358 19.4023 12.4459 19.3665 12.5175 19.2949C12.5892 19.2233 12.625 19.1354 12.625 19.0312V18.7578C12.625 18.6015 12.6868 18.4616 12.8105 18.3379C12.9342 18.2142 13.1523 18.0481 13.4648 17.8398C13.8034 17.6315 14.1159 17.3906 14.4023 17.1172C14.6888 16.8437 14.9427 16.5442 15.164 16.2187V16.1992C15.4244 15.8086 15.6295 15.3724 15.7793 14.8906C15.929 14.4088 16.0039 13.9075 16.0039 13.3867C16.0039 13.0872 15.9778 12.7975 15.9258 12.5176C15.8737 12.2376 15.8021 11.9609 15.7109 11.6875C15.3984 10.8151 14.9199 10.0534 14.2754 9.40232C13.6308 8.75127 12.8789 8.263 12.0195 7.93747L11.3164 7.68356C11.3034 7.67054 11.2871 7.66403 11.2675 7.66403C11.248 7.66403 11.2252 7.66403 11.1992 7.66403C11.095 7.66403 11.0071 7.69984 10.9355 7.77145C10.8639 7.84307 10.8281 7.93096 10.8281 8.03513C10.8281 8.06117 10.8313 8.08721 10.8379 8.11325C10.8444 8.13929 10.8541 8.15882 10.8672 8.17185L11.1601 8.83591C11.2382 9.0182 11.3001 9.21351 11.3457 9.42185C11.3912 9.63018 11.414 9.84502 11.414 10.0664C11.414 10.1836 11.4108 10.2975 11.4043 10.4082C11.3978 10.5189 11.3815 10.6263 11.3554 10.7304C11.2252 11.082 11.0397 11.3978 10.7988 11.6777C10.5579 11.9577 10.2747 12.1888 9.94919 12.3711L9.92966 12.3711ZM12.6054 11.082C12.6445 10.9388 12.6738 10.7825 12.6933 10.6133C12.7129 10.444 12.7226 10.2747 12.7226 10.1054C12.7226 10.0534 12.7226 9.99802 12.7226 9.93942C12.7226 9.88083 12.7226 9.82549 12.7226 9.77341C13.1263 10.0729 13.4778 10.4179 13.7773 10.8086C14.0768 11.1992 14.3112 11.6289 14.4804 12.0976C14.5586 12.306 14.6172 12.5175 14.6562 12.7324C14.6953 12.9472 14.7148 13.1718 14.7148 13.4062C14.7148 13.7968 14.6562 14.1712 14.539 14.5293C14.4218 14.8873 14.2656 15.2226 14.0703 15.5351C13.888 15.7825 13.6862 16.0104 13.4648 16.2187C13.2435 16.427 13.0026 16.6093 12.7422 16.7656C12.4557 16.9218 12.2051 17.1106 11.9902 17.332C11.7754 17.5534 11.5963 17.7942 11.4531 18.0546C10.8802 17.9375 10.4049 17.651 10.0273 17.1953C9.64971 16.7395 9.4544 16.2122 9.44138 15.6132C9.44138 15.6132 9.44138 15.61 9.44138 15.6035C9.44138 15.597 9.44138 15.5937 9.44138 15.5937C9.44138 15.138 9.55206 14.7246 9.77341 14.3535C9.99477 13.9824 10.2812 13.6927 10.6328 13.4843C11.1015 13.2109 11.5052 12.8658 11.8437 12.4492C12.1823 12.0325 12.4362 11.5703 12.6054 11.0625L12.6054 11.082ZM21.6289 2H2.3711C2.26694 2 2.17905 2.03581 2.10743 2.10742C2.03582 2.17904 2.00001 2.26693 2.00001 2.37109V2.9375C2.00001 3.04167 2.03582 3.1263 2.10743 3.19141C2.17905 3.25651 2.26694 3.28906 2.3711 3.28906H21.6289C21.7331 3.28906 21.821 3.25326 21.8926 3.18164C21.9642 3.11003 22 3.02214 22 2.91797V2.37109C22 2.26693 21.9642 2.17904 21.8926 2.10742C21.821 2.03581 21.7331 2 21.6289 2ZM19.793 5.125H4.20703C3.59505 5.125 3.07422 5.33984 2.64453 5.76953C2.21484 6.19922 2 6.71355 2 7.3125V21.6289C2 21.7331 2.03581 21.821 2.10742 21.8926C2.17904 21.9642 2.26693 22 2.37109 22H2.9375C3.04167 22 3.1263 21.9642 3.19141 21.8926C3.25651 21.821 3.28906 21.7331 3.28906 21.6289V7.33203C3.30208 7.07162 3.39648 6.85352 3.57227 6.67773C3.74805 6.50195 3.95964 6.41406 4.20703 6.41406H19.7539C20.0143 6.41406 20.2324 6.50195 20.4082 6.67773C20.584 6.85352 20.6719 7.0651 20.6719 7.3125V21.6289C20.6719 21.7331 20.7077 21.821 20.7793 21.8926C20.8509 21.9642 20.9388 22 21.043 22H21.6094C21.7135 22 21.8014 21.9642 21.873 21.8926C21.9447 21.821 21.9805 21.7331 21.9805 21.6289V7.33203C21.9805 6.72006 21.7656 6.19922 21.3359 5.76953C20.9062 5.33985 20.3919 5.125 19.793 5.125H19.793ZM18.4844 19.1289H17.957C17.944 19.1289 17.9375 19.1289 17.9375 19.1289C17.8333 19.1289 17.7454 19.1647 17.6738 19.2364C17.6022 19.308 17.5664 19.3959 17.5664 19.5V19.793C17.5664 20.0404 17.4753 20.252 17.293 20.4278C17.1107 20.6035 16.8958 20.6914 16.6484 20.6914H7.33203C7.07162 20.6914 6.85352 20.6035 6.67774 20.4278C6.50196 20.252 6.41407 20.0404 6.41407 19.793V19.5C6.41407 19.3959 6.37826 19.308 6.30664 19.2364C6.23503 19.1647 6.14714 19.1289 6.04297 19.1289H5.47657C5.3724 19.1289 5.28451 19.1647 5.21289 19.2364C5.14128 19.308 5.10547 19.3959 5.10547 19.5V19.793C5.10547 20.405 5.32032 20.9258 5.75 21.3555C6.17969 21.7852 6.70052 22 7.3125 22H16.668C17.2799 22 17.8008 21.7852 18.2305 21.3555C18.6602 20.9258 18.875 20.405 18.875 19.793V19.5C18.875 19.3959 18.8392 19.308 18.7676 19.2364C18.696 19.1647 18.6081 19.1289 18.5039 19.1289H18.4844Z" fill="#CB4B00"/>
</svg>
