<svg width="24" height="24" viewBox="0 0 24 24" fill="none" xmlns="http://www.w3.org/2000/svg">
<path fill-rule="evenodd" clip-rule="evenodd" d="M22.654 17.1949H19.6308V12.478C19.6308 12.478 19.6308 12.475 19.6308 12.4689C19.6308 12.4628 19.6308 12.4598 19.6308 12.4598C19.6308 11.7556 19.5246 11.0848 19.3121 10.4474C19.0996 9.80996 18.7991 9.23021 18.4106 8.70814L15.9702 5.32072C15.6788 4.92006 15.3449 4.55582 14.9685 4.22801C14.5922 3.90019 14.1824 3.62094 13.7392 3.39026C13.2961 3.15957 12.8256 2.98352 12.3278 2.86211C11.8422 2.7407 11.3322 2.67999 10.798 2.67999H4.51491C4.02926 2.67999 3.57396 2.77105 3.14901 2.95317C2.72407 3.13529 2.35072 3.38722 2.02898 3.70897C1.70723 4.03071 1.4553 4.40405 1.27318 4.829C1.09106 5.25395 1 5.70925 1 6.1949V15.6469C1 15.7319 1.03339 15.8078 1.10017 15.8745C1.16695 15.9413 1.2489 15.9747 1.34603 15.9747H1.87418C1.95917 15.9747 2.03505 15.9413 2.10183 15.8745C2.1686 15.8078 2.20199 15.7319 2.20199 15.6469V13.079H18.447V17.1949H14.8593C14.665 16.7578 14.41 16.3572 14.0944 15.9929C13.7908 15.6408 13.4418 15.3373 13.0472 15.0823C12.6526 14.8274 12.2307 14.627 11.7815 14.4813C11.3201 14.3356 10.8344 14.2628 10.3245 14.2628C9.32892 14.2628 8.42743 14.5329 7.62003 15.0732C6.81264 15.6135 6.20861 16.3086 5.80795 17.1585L1.34603 17.1949C1.2489 17.1949 1.16694 17.2283 1.10017 17.2951C1.03339 17.3619 1 17.4438 1 17.5409V18.0509C1 18.148 1.03339 18.23 1.10017 18.2967C1.16694 18.3635 1.2489 18.3969 1.34603 18.3969H6.39073C6.46357 18.3969 6.52732 18.3757 6.58195 18.3332C6.63659 18.2907 6.67605 18.2391 6.70033 18.1784L6.77318 17.9962C7.04029 17.2556 7.49558 16.6516 8.13907 16.1842C8.78256 15.7167 9.51104 15.483 10.3245 15.483C11.1501 15.483 11.8847 15.7167 12.5281 16.1842C13.1716 16.6516 13.6209 17.2495 13.8758 17.978L13.9487 18.1784C13.973 18.2391 14.0155 18.2907 14.0762 18.3332C14.1369 18.3757 14.2036 18.3969 14.2765 18.3969C14.2765 18.3969 14.2795 18.3969 14.2856 18.3969C14.2917 18.3969 14.2947 18.3969 14.2947 18.3969H20.2682V19.2529C20.2682 19.4957 20.1832 19.699 20.0132 19.863C19.8433 20.0269 19.6429 20.1088 19.4123 20.1088H19.1391C19.0419 20.1088 18.96 20.1422 18.8932 20.209C18.8264 20.2758 18.793 20.3577 18.793 20.4548V20.983C18.793 21.0801 18.8264 21.1621 18.8932 21.2288C18.96 21.2956 19.0419 21.329 19.1391 21.329H19.394C19.9647 21.329 20.4503 21.1287 20.851 20.728C21.2517 20.3274 21.452 19.8417 21.452 19.2711V18.3969H22.654C22.7511 18.3969 22.8331 18.3635 22.8998 18.2967C22.9666 18.23 23 18.148 23 18.0509V17.5227C23 17.4256 22.9666 17.3467 22.8998 17.286C22.8331 17.2253 22.7511 17.1949 22.654 17.1949L22.654 17.1949ZM2.20198 11.877V6.19489C2.21412 5.56355 2.44481 5.02326 2.89403 4.57403C3.34326 4.12481 3.88355 3.89412 4.51489 3.88198H10.798C11.66 3.88198 12.4553 4.07624 13.1838 4.46476C13.9122 4.85328 14.5132 5.36929 14.9867 6.01277L17.4636 9.43661C17.7064 9.77657 17.9098 10.1469 18.0737 10.5475C18.2376 10.9482 18.3499 11.3731 18.4106 11.8224L2.20198 11.877ZM10.3245 17.1949C9.766 17.1949 9.28642 17.3952 8.88576 17.7959C8.48509 18.1966 8.28476 18.6761 8.28476 19.2346C8.28476 19.8053 8.48509 20.2909 8.88576 20.6916C9.28642 21.0922 9.766 21.2926 10.3245 21.2926C10.8951 21.2926 11.3808 21.0922 11.7814 20.6916C12.1821 20.2909 12.3824 19.8053 12.3824 19.2346C12.3824 18.6761 12.1821 18.1965 11.7814 17.7959C11.3808 17.3952 10.9012 17.1949 10.3427 17.1949H10.3245ZM10.3245 20.0906C10.0938 20.0906 9.89651 20.0086 9.73261 19.8447C9.5687 19.6808 9.48675 19.4835 9.48675 19.2528C9.48675 19.0222 9.5687 18.8218 9.73261 18.6518C9.89651 18.4819 10.0938 18.3969 10.3245 18.3969C10.5673 18.3969 10.7707 18.4819 10.9346 18.6518C11.0985 18.8218 11.1805 19.0222 11.1805 19.2528C11.1805 19.2528 11.1805 19.2559 11.1805 19.2619C11.1805 19.268 11.1805 19.2711 11.1805 19.2711C11.1805 19.5017 11.0985 19.699 10.9346 19.8629C10.7707 20.0268 10.5734 20.1149 10.3427 20.127L10.3245 20.0906Z" fill="#CB4B00"/>
</svg>
