<svg width="24" height="24" viewBox="0 0 24 24" fill="none" xmlns="http://www.w3.org/2000/svg">
<path fill-rule="evenodd" clip-rule="evenodd" d="M2.10893 6.6778V6.18979C2.10893 6.09683 2.07698 6.0184 2.01307 5.95449C1.94916 5.89059 1.87073 5.85863 1.77777 5.85863H0.331154C0.238199 5.85863 0.159767 5.89059 0.0958604 5.95449C0.0319534 6.0184 0 6.09683 0 6.18979V6.6778C0 6.77076 0.0319534 6.84919 0.0958604 6.9131C0.159767 6.977 0.238199 7.00896 0.331154 7.00896H1.79521C1.87654 7.00896 1.94916 6.977 2.01307 6.9131C2.07698 6.84919 2.10893 6.77076 2.10893 6.6778ZM21.3508 16.9959H16.732C16.6391 16.9959 16.5606 17.0278 16.4967 17.0918C16.4328 17.1557 16.4009 17.2341 16.4009 17.327V17.8151C16.4009 17.908 16.4328 17.9865 16.4967 18.0504C16.5606 18.1143 16.6391 18.1462 16.732 18.1462H21.3508C21.4437 18.1462 21.5221 18.1143 21.586 18.0504C21.65 17.9865 21.6819 17.908 21.6819 17.8151V17.327C21.6819 17.2341 21.65 17.1557 21.586 17.0918C21.5221 17.0278 21.4437 16.9959 21.3508 16.9959ZM23.6688 14.2072H23.4248C23.4132 14.2072 23.4074 14.2072 23.4074 14.2072C23.4074 14.2072 23.4016 14.2072 23.39 14.2072C23.1576 14.2072 22.9426 14.1549 22.7451 14.0504C22.5476 13.9458 22.3849 13.8064 22.2571 13.6321L19.4684 9.79765H20.6362C21.5657 9.79765 22.3587 9.4694 23.0152 8.81291C23.6717 8.15641 24 7.36339 24 6.43383C24 5.50428 23.6717 4.71125 23.0152 4.05475C22.3587 3.39825 21.5657 3.07001 20.6362 3.07001H10.8061C9.87658 3.07001 9.08355 3.39826 8.42705 4.05475C7.77055 4.71125 7.44231 5.50428 7.44231 6.43383C7.44231 7.36339 7.77056 8.15641 8.42705 8.81291C9.08355 9.46941 9.87658 9.79765 10.8061 9.79765H12.8802C12.7989 10.1114 12.674 10.4019 12.5055 10.6691C12.337 10.9364 12.1307 11.1629 11.8867 11.3488C11.8403 11.3837 11.8083 11.4244 11.7909 11.4709C11.7735 11.5173 11.7647 11.5638 11.7647 11.6103C11.7647 11.6451 11.7676 11.6771 11.7735 11.7061C11.7793 11.7352 11.7938 11.7613 11.817 11.7846L12.061 12.2029C12.0959 12.261 12.1366 12.3045 12.183 12.3336C12.2295 12.3626 12.2876 12.3772 12.3573 12.3772C12.3922 12.3772 12.427 12.3685 12.4619 12.351C12.4968 12.3336 12.5258 12.3133 12.549 12.29C12.8395 12.0809 13.0923 11.8369 13.3072 11.558C13.5222 11.2791 13.6936 10.977 13.8214 10.6517L16.6798 14.5558L15.6166 15.0961C14.9543 15.4331 14.4198 15.9182 14.0131 16.5514C13.6064 17.1847 13.4031 17.8906 13.4031 18.6691C13.4031 18.6691 13.4031 18.672 13.4031 18.6778C13.4031 18.6836 13.4031 18.6865 13.4031 18.6865V20.6037C13.4031 20.6967 13.435 20.7751 13.4989 20.839C13.5628 20.9029 13.6413 20.9349 13.7342 20.9349H23.6688C23.7618 20.9349 23.8402 20.9029 23.9041 20.839C23.968 20.7751 24 20.6967 24 20.6037V14.5384C24 14.4454 23.968 14.367 23.9041 14.3031C23.8402 14.2392 23.7618 14.2072 23.6688 14.2072L23.6688 14.2072ZM22.8322 19.7671H14.5534V18.6865C14.5534 18.1404 14.6986 17.6408 14.9891 17.1876C15.2796 16.7345 15.6514 16.3975 16.1046 16.1767L18.0915 15.1833C18.138 15.16 18.1786 15.1223 18.2135 15.07C18.2484 15.0177 18.2658 14.9567 18.2658 14.887C18.2658 14.8637 18.2629 14.8405 18.2571 14.8172C18.2513 14.794 18.2426 14.7708 18.2309 14.7475L18.1612 14.643L14.658 9.81508H16.4009C16.4938 9.81508 16.5723 9.78313 16.6362 9.71922C16.7001 9.65531 16.732 9.57688 16.732 9.48393V8.97848C16.732 8.88553 16.7001 8.8071 16.6362 8.74319C16.5723 8.67928 16.4938 8.64733 16.4009 8.64733H10.8061C10.2019 8.64733 9.68484 8.43237 9.25492 8.00245C8.825 7.57253 8.61004 7.05547 8.61004 6.45126C8.61004 5.83543 8.825 5.31255 9.25492 4.88263C9.68484 4.45271 10.2019 4.23776 10.8061 4.23776H20.6361C21.252 4.23776 21.7748 4.45272 22.2048 4.88263C22.6347 5.31255 22.8496 5.83543 22.8496 6.45126C22.8496 7.05547 22.6347 7.57254 22.2048 8.00245C21.7748 8.43237 21.252 8.64733 20.6361 8.64733H18.6841C18.6027 8.64733 18.5301 8.67928 18.4662 8.74319C18.4023 8.8071 18.3703 8.88553 18.3703 8.97848V10.1114C18.3703 10.1462 18.3733 10.1811 18.3791 10.216C18.3849 10.2508 18.3994 10.2799 18.4226 10.3031L21.3507 14.3467C21.525 14.5907 21.7371 14.7969 21.9869 14.9654C22.2367 15.1339 22.5127 15.253 22.8148 15.3227L22.8322 19.7671ZM5.42048 8.49045H6.11765C6.21061 8.49045 6.28904 8.4585 6.35295 8.39459C6.41685 8.33068 6.44881 8.25225 6.44881 8.1593V7.67128C6.44881 7.57833 6.41685 7.49989 6.35295 7.43599C6.28904 7.37208 6.21061 7.34013 6.11765 7.34013H5.38563C5.38563 7.34013 5.38272 7.34013 5.37691 7.34013C5.3711 7.34013 5.3682 7.34013 5.3682 7.34013C5.13581 7.34013 4.93537 7.26751 4.76689 7.12226C4.59841 6.97702 4.49093 6.79982 4.44445 6.59067C4.44445 6.56743 4.44155 6.54129 4.43574 6.51224C4.42993 6.48319 4.42703 6.45705 4.42703 6.43381C4.42703 6.1898 4.51708 5.97775 4.69718 5.79764C4.87728 5.61754 5.08933 5.52749 5.33334 5.52749H6.11766C6.21061 5.52749 6.28904 5.49554 6.35295 5.43163C6.41686 5.36772 6.44881 5.28929 6.44881 5.19634V4.69089C6.44881 4.59794 6.41686 4.51951 6.35295 4.4556C6.28904 4.39169 6.21061 4.35974 6.11766 4.35974H5.33334C4.76399 4.35974 4.27888 4.56308 3.87801 4.96976C3.47714 5.37644 3.2767 5.86446 3.2767 6.43381C3.2767 6.46867 3.2767 6.50353 3.2767 6.53838C3.2767 6.57324 3.2767 6.6081 3.2767 6.64296C3.34642 7.16583 3.58171 7.60447 3.98258 7.95886C4.38345 8.31325 4.85114 8.49045 5.38563 8.49045C5.39725 8.49045 5.40597 8.49045 5.41178 8.49045C5.41758 8.49045 5.42049 8.49045 5.42049 8.49045H5.42048ZM10.4575 15.7584H5.12419C4.99638 15.3517 4.76108 15.0177 4.41831 14.7562C4.07554 14.4948 3.68338 14.3641 3.24184 14.3641C2.69573 14.3641 2.23095 14.5558 1.84751 14.9392C1.46407 15.3227 1.27235 15.7875 1.27235 16.3336C1.27235 16.8797 1.46407 17.3445 1.84751 17.7279C2.23095 18.1113 2.69573 18.3031 3.24184 18.3031C3.68338 18.3031 4.07554 18.1724 4.41831 17.9109C4.76109 17.6495 4.99638 17.3212 5.12419 16.9262L6.86711 16.9087V17.9719C6.86711 18.0649 6.89906 18.1433 6.96297 18.2072C7.02688 18.2711 7.10531 18.3031 7.19826 18.3031H7.68628C7.77924 18.3031 7.85767 18.2711 7.92157 18.2072C7.98548 18.1433 8.01743 18.0649 8.01743 17.9719V16.9087H9.65578V17.9719C9.65578 18.0649 9.68773 18.1433 9.75164 18.2072C9.81554 18.2711 9.89398 18.3031 9.98693 18.3031H10.4749C10.5679 18.3031 10.6463 18.2711 10.7102 18.2072C10.7741 18.1433 10.8061 18.0649 10.8061 17.9719V16.0721C10.8061 15.9792 10.7741 15.9037 10.7102 15.8456C10.6463 15.7875 10.5679 15.7584 10.4749 15.7584C10.4749 15.7584 10.472 15.7584 10.4662 15.7584C10.4604 15.7584 10.4575 15.7584 10.4575 15.7584L10.4575 15.7584ZM3.25927 17.1353C3.24765 17.1353 3.24185 17.1353 3.24185 17.1353C3.02108 17.1353 2.82936 17.0569 2.66668 16.9C2.50401 16.7432 2.42267 16.5543 2.42267 16.3336C2.42267 16.1128 2.50401 15.9211 2.66668 15.7584C2.82936 15.5957 3.02108 15.5144 3.24185 15.5144C3.46261 15.5144 3.65143 15.5957 3.80829 15.7584C3.96516 15.9211 4.04359 16.1128 4.04359 16.3336C4.04359 16.5543 3.96806 16.7432 3.81701 16.9C3.66595 17.0569 3.48004 17.1353 3.25927 17.1353Z" fill="#CB4B00"/>
</svg>
