<svg width="24" height="24" viewBox="0 0 24 24" fill="none" xmlns="http://www.w3.org/2000/svg">
<path fill-rule="evenodd" clip-rule="evenodd" d="M21 7.78126V3.33399C21 3.24024 20.9678 3.16113 20.9034 3.09668C20.8389 3.03223 20.7598 3 20.666 3H18.8731C18.7793 3 18.7002 3.03223 18.6358 3.09668C18.5713 3.16113 18.5391 3.24024 18.5391 3.33399V3.84375C18.5391 3.9375 18.5713 4.0166 18.6358 4.08106C18.7002 4.14551 18.7793 4.17774 18.8731 4.17774H19.8223V8.95899L17.3614 11.4199H15.0235L12.5801 8.95899V4.16016H17.045C17.1387 4.16016 17.2178 4.12793 17.2823 4.06348C17.3467 3.99902 17.3789 3.91992 17.3789 3.82617V3.33398C17.3789 3.24023 17.3467 3.16113 17.2823 3.09668C17.2178 3.03223 17.1387 3 17.045 3H3.33399C3.24024 3 3.16113 3.03223 3.09668 3.09668C3.03223 3.16113 3 3.24023 3 3.33398V20.666C3 20.7598 3.03223 20.8389 3.09668 20.9033C3.16113 20.9678 3.24024 21 3.33399 21H5.10937C5.20312 21 5.28223 20.9678 5.34668 20.9033C5.41113 20.8389 5.44336 20.7598 5.44336 20.666V20.1562C5.44336 20.0625 5.41113 19.9834 5.34668 19.9189C5.28223 19.8545 5.20312 19.8223 5.10937 19.8223H4.16016V15.041L6.62109 12.5801H8.95899L11.4199 15.041V19.8223H6.95508C6.86133 19.8223 6.78223 19.8545 6.71777 19.9189C6.65332 19.9834 6.62109 20.0625 6.62109 20.1562V20.666C6.62109 20.7598 6.65332 20.8389 6.71777 20.9033C6.78223 20.9678 6.86133 21 6.95508 21H20.666C20.7598 21 20.8389 20.9678 20.9034 20.9033C20.9678 20.8389 21 20.7598 21 20.666V16.2012V7.78126ZM19.8399 10.6113V13.3887L18.4336 12L19.8399 10.6113ZM4.16018 4.16013H11.42V8.95897L8.95901 11.4199H6.62112L4.16018 8.95897V4.16013ZM4.16019 13.3887V10.5938L5.56644 11.9824L4.16019 13.3887ZM12 9.9961L13.9688 11.9824L12 13.9512L9.99613 12L12 9.9961ZM19.8399 19.8398H12.5801V15.041L15.041 12.5801H17.3789L19.8399 15.041V19.8398Z" fill="#CB4B00"/>
</svg>
