<svg width="24" height="24" viewBox="0 0 24 24" fill="none" xmlns="http://www.w3.org/2000/svg">
<path d="M7.92922 15.9589H18.4038V17.0284H7.92922V15.9589ZM10.3305 19.3609H9.09531V18.126H10.3305V19.3609ZM7.99771 19.3609H6.76284V18.126H7.99771V19.3609ZM5.66524 19.3609H4.43007V18.126H5.66524V19.3609ZM3.33247 19.3609H2.0976V18.126H3.33247V19.3609ZM3.26398 15.9589H6.83162V17.0284H3.26398V15.9589ZM2.0976 13.6267H3.33247V14.8616H2.0976V13.6267ZM5.66524 14.8613H4.43007V13.6265H5.66524V14.8613ZM3.26398 11.4596H6.83162V12.5289H3.26398V11.4596ZM2.0976 9.12717H3.33247V10.362H2.0976V9.12717ZM5.66524 10.362H4.43007V9.12717H5.66524V10.362ZM3.26398 6.96007H15.138V8.02957H3.26398V6.96007ZM2.0976 4.6276H3.33247V5.86247H2.0976V4.6276ZM19.5699 10.362H9.09531V9.12717H19.5699V10.362ZM6.76284 9.12717H7.99771V10.362H6.76284V9.12717ZM6.76284 13.6267H7.99771V14.8616H6.76284V13.6267ZM18.4035 12.5291H7.92893V11.4599H18.4035V12.5291ZM19.5699 14.8613H9.09531V13.6265H19.5699V14.8613ZM22.6892 17.0287H19.5011V15.9589H20.3564C20.5282 15.9589 20.6675 15.8199 20.6675 15.6481V12.8403C20.6675 12.6682 20.5282 12.5291 20.3564 12.5291H19.5011V11.4596H20.3564C20.5282 11.4596 20.6675 11.3203 20.6675 11.1485V8.3407C20.6675 8.16889 20.5282 8.02957 20.3564 8.02957H16.2359V6.96007H17.0911C17.2629 6.96007 17.4022 6.82104 17.4022 6.64923V3.84113C17.4022 3.66932 17.2629 3.53 17.0911 3.53H5.8391C5.667 3.53 5.52767 3.66932 5.52767 3.84113V4.31646C5.52767 4.48828 5.667 4.6276 5.8391 4.6276H16.3046V5.86247H4.43007V3.84113C4.43007 3.66932 4.29075 3.53 4.11894 3.53H1.31113C1.13932 3.53 1 3.66932 1 3.84113V6.64894C1 6.82075 1.13932 6.96007 1.31113 6.96007H2.16638V8.02957H1.31113C1.13932 8.02957 1 8.16889 1 8.3407V11.1485C1 11.3203 1.13932 11.4596 1.31113 11.4596H2.16638V12.5291H1.31113C1.13932 12.5291 1 12.6682 1 12.8403V15.6481C1 15.8199 1.13932 15.9589 1.31113 15.9589H2.16638V17.0287H1.31113C1.13932 17.0287 1 17.1677 1 17.3396V20.1474C1 20.3195 1.13932 20.4585 1.31113 20.4585H11.1169C11.2888 20.4585 11.4281 20.3195 11.4281 20.1477V18.1263H21.9024V19.3609H12.8368C12.665 19.3609 12.5257 19.5002 12.5257 19.672V20.1477C12.5257 20.3195 12.665 20.4585 12.8368 20.4585H22.6892C22.861 20.4585 23 20.3195 23 20.1477V17.3396C23 17.1677 22.861 17.0287 22.6892 17.0287Z" fill="#CB4B00"/>
</svg>
