<svg width="24" height="24" viewBox="0 0 24 24" fill="none" xmlns="http://www.w3.org/2000/svg">
<path fill-rule="evenodd" clip-rule="evenodd" d="M6.68101 11.5285V8.98504C6.68101 8.51471 6.54177 8.10009 6.26329 7.74115C5.98481 7.38222 5.63516 7.13468 5.21434 6.99853L5.19578 2.80276C5.19578 2.70374 5.16174 2.6202 5.09367 2.55212C5.0256 2.48405 4.94205 2.45001 4.84304 2.45001H4.30464C4.20562 2.45001 4.12208 2.48405 4.05401 2.55212C3.98593 2.6202 3.9519 2.70374 3.9519 2.80276V6.99853C3.53108 7.13468 3.18143 7.38531 2.90295 7.75043C2.62447 8.11555 2.48523 8.52709 2.48523 8.98503V11.5285C2.48523 11.5285 2.48523 11.5316 2.48523 11.5378C2.48523 11.544 2.48523 11.5471 2.48523 11.5471C2.48523 11.8689 2.42954 12.169 2.31814 12.4475C2.20675 12.726 2.05204 12.9766 1.85401 13.1994C1.59409 13.5088 1.38678 13.8615 1.23207 14.2576C1.07736 14.6537 1 15.0745 1 15.5201C1 15.5201 1 15.5231 1 15.5293C1 15.5355 1 15.5448 1 15.5572V17.8593C1 18.8494 1.34965 19.6942 2.04894 20.3935C2.74824 21.0928 3.59296 21.4424 4.58312 21.4424C5.57327 21.4424 6.418 21.0928 7.11729 20.3935C7.81659 19.6942 8.16624 18.8494 8.16624 17.8593V15.5572C8.16624 15.0992 8.08579 14.6691 7.92489 14.2669C7.76399 13.8646 7.5412 13.5026 7.25653 13.1808C7.08325 12.9704 6.94401 12.7291 6.83881 12.4568C6.7336 12.1845 6.681 11.8936 6.681 11.5842C6.681 11.5718 6.681 11.5625 6.681 11.5563C6.681 11.5502 6.681 11.5409 6.681 11.5285L6.68101 11.5285ZM6.92237 17.8593C6.92237 18.5029 6.69339 19.0537 6.23544 19.5116C5.77749 19.9696 5.22672 20.1985 4.58312 20.1985C3.92714 20.1985 3.37018 19.9696 2.91224 19.5116C2.45429 19.0537 2.22532 18.5029 2.22532 17.8593V15.5572C2.22532 15.2601 2.27792 14.9786 2.38312 14.7125C2.48833 14.4464 2.63376 14.2081 2.81941 13.9977C3.0917 13.6759 3.3083 13.3108 3.4692 12.9023C3.6301 12.4939 3.71055 12.0607 3.71055 11.6028C3.71055 11.5904 3.71055 11.578 3.71055 11.5656C3.71055 11.5532 3.71055 11.5409 3.71055 11.5285V8.98503C3.71055 8.74987 3.7941 8.54874 3.96118 8.38166C4.12827 8.21457 4.33559 8.13102 4.58312 8.13102C4.81829 8.13102 5.01941 8.21457 5.1865 8.38166C5.35359 8.54874 5.43713 8.74987 5.43713 8.98503V11.5285C5.43713 11.5285 5.43713 11.5347 5.43713 11.5471C5.43713 11.5594 5.43713 11.5656 5.43713 11.5656C5.43713 12.0359 5.51758 12.4784 5.67848 12.8931C5.83938 13.3077 6.06217 13.6759 6.34684 13.9977C6.53249 14.1957 6.67483 14.4278 6.77384 14.6939C6.87286 14.96 6.92237 15.2416 6.92237 15.5386V17.8593ZM22.9443 6.18168L21.7932 4.62218C21.2982 3.95383 20.6824 3.42471 19.946 3.03484C19.2096 2.64497 18.402 2.45003 17.5232 2.45003H10.0414C9.37301 2.45003 8.80368 2.72851 8.33335 3.28547C7.86303 3.84244 7.62787 4.51079 7.62787 5.29054C7.62787 6.07028 7.86303 6.73864 8.33335 7.2956C8.80368 7.85256 9.37301 8.13104 10.0414 8.13104H11.8236C11.9227 8.13104 12.0062 8.09701 12.0743 8.02893C12.1424 7.96086 12.1764 7.87732 12.1764 7.7783V7.16564C12.1764 7.02949 12.2228 6.91192 12.3156 6.8129C12.4085 6.71388 12.5291 6.66438 12.6777 6.66438C12.8138 6.66438 12.9283 6.71388 13.0211 6.8129C13.1139 6.91192 13.1604 7.02949 13.1604 7.16564V21.1083C13.1604 21.2073 13.1944 21.2909 13.2625 21.3589C13.3305 21.427 13.4141 21.461 13.5131 21.461H17.022C17.121 21.461 17.2045 21.427 17.2726 21.3589C17.3407 21.2909 17.3747 21.2073 17.3747 21.1083V7.14714C17.3747 7.01099 17.4211 6.89341 17.5139 6.79439C17.6068 6.69538 17.7213 6.64587 17.8574 6.64587H18.4329C18.5196 6.64587 18.5969 6.66444 18.665 6.70157C18.7331 6.7387 18.7919 6.78821 18.8414 6.85009L19.9553 8.39102C19.98 8.42815 20.0172 8.45909 20.0667 8.48385C20.1162 8.5086 20.1719 8.52098 20.2338 8.52098C20.2709 8.52098 20.308 8.51788 20.3452 8.51169C20.3823 8.50551 20.4132 8.49004 20.438 8.46528L20.865 8.14967C20.9145 8.11254 20.9516 8.06922 20.9764 8.01971C21.0011 7.9702 21.0135 7.9207 21.0135 7.87119C21.0135 7.83406 21.0073 7.79693 20.995 7.7598C20.9826 7.72267 20.964 7.69172 20.9393 7.66697L19.8253 6.14461C19.6644 5.9342 19.4633 5.76402 19.222 5.63406C18.9806 5.5041 18.7114 5.43912 18.4144 5.43912H17.8574C17.3747 5.43912 16.9663 5.60621 16.6321 5.94039C16.2979 6.27457 16.1308 6.68301 16.1308 7.1657V8.7252H14.3857V7.14714C14.3857 7.13476 14.3857 7.12548 14.3857 7.11929C14.3857 7.1131 14.3857 7.10382 14.3857 7.09144C14.3857 6.62112 14.2186 6.21577 13.8844 5.87541C13.5502 5.53504 13.1418 5.36486 12.6591 5.36486C12.2259 5.36486 11.8453 5.51029 11.5173 5.80115C11.1893 6.092 11.0006 6.45403 10.9511 6.88723H10.0414C9.73195 6.88723 9.45965 6.72942 9.22449 6.41381C8.98933 6.0982 8.87175 5.72379 8.87175 5.2906C8.87175 4.84503 8.98624 4.46444 9.21521 4.14883C9.44418 3.83321 9.71957 3.67541 10.0414 3.67541H17.5232C18.1916 3.67541 18.8104 3.82703 19.3797 4.13026C19.9491 4.4335 20.4132 4.83265 20.7722 5.32773L21.9603 6.92436C21.9851 6.97386 22.0222 7.01099 22.0717 7.03575C22.1212 7.0605 22.1769 7.07288 22.2388 7.07288C22.2759 7.07288 22.3131 7.06669 22.3502 7.05431C22.3873 7.04194 22.4183 7.02337 22.443 6.99862L22.87 6.68301C22.9072 6.65825 22.9381 6.62112 22.9629 6.57161C22.9876 6.5221 23 6.4726 23 6.42309C23 6.37358 22.9938 6.33026 22.9814 6.29313C22.9691 6.256 22.9505 6.22506 22.9257 6.2003L22.9443 6.18168ZM14.3856 9.93189H16.1308V20.2357H14.3856V9.93189Z" fill="#CB4B00"/>
</svg>
