<svg width="24" height="24" viewBox="0 0 24 24" fill="none" xmlns="http://www.w3.org/2000/svg">
<path d="M21.6351 11.4025H21.3567C20.6021 11.4025 19.99 10.7907 19.99 10.0362V3.57079C19.99 3.40085 19.8729 3.25323 19.7078 3.21513L14.6249 2.03898C14.5373 2.01873 14.4481 2.03349 14.3698 2.07674C13.756 2.41524 12.9087 2.6092 12 2.6092C11.0909 2.6092 10.244 2.41524 9.6302 2.07674C9.55124 2.03349 9.46232 2.01873 9.37478 2.03898L4.29256 3.21513C4.12709 3.25323 4.01002 3.40051 4.01002 3.57044V10.0362C4.01002 10.7907 3.39826 11.4025 2.64369 11.4025H2.36493C2.16341 11.4025 2 11.5659 2 11.7671V21.6085C2 21.81 2.16341 21.9734 2.36527 21.9734H9.19317C9.88733 21.9734 10.5393 21.7101 11.0364 21.258C11.1555 21.1498 11.1757 20.9693 11.1002 20.8275C11.1002 20.8275 10.955 20.5604 10.8297 20.3211C10.7078 20.088 10.4095 20.0667 10.2488 20.2349C9.97762 20.5178 9.59655 20.685 9.19146 20.686H3.28738V12.6109C4.44087 12.3222 5.2974 11.2772 5.2974 10.0362V4.30442L8.69539 3.51723L10.2852 7.82737C10.4026 8.14561 10.8527 8.14561 10.9704 7.82737L11.2674 7.02164C11.2976 6.93994 11.2976 6.85068 11.2674 6.76897L10.1146 3.64528C10.6968 3.80732 11.3395 3.89658 12 3.89658C12.6602 3.89658 13.3028 3.80732 13.8851 3.64528L11.3604 10.489C11.3302 10.5707 11.3302 10.6599 11.3604 10.7416L11.6574 11.5474C11.7748 11.8656 12.2249 11.8656 12.3426 11.5474L15.3043 3.51723L18.7026 4.30442V10.0362C18.7026 11.2772 19.5595 12.3222 20.7126 12.6109V20.686H14.8195C14.2805 20.686 13.7848 20.3891 13.5311 19.9136L12.3385 17.6801C12.2015 17.4236 11.8345 17.4223 11.6958 17.6777L11.3769 18.2647C11.3185 18.3722 11.3179 18.5023 11.3759 18.6108L12.3955 20.5195C12.8734 21.4149 13.8047 21.9734 14.8195 21.9734H21.6351C21.8366 21.9734 22 21.81 22 21.6085V11.7671C22 11.5659 21.8366 11.4025 21.6351 11.4025ZM16.3795 14.7195C16.3795 14.0758 16.8072 13.6583 17.3651 13.6583C17.9233 13.6583 18.3511 14.0758 18.3511 14.7195C18.3511 15.3632 17.9233 15.7803 17.3651 15.7803C16.8072 15.7803 16.3795 15.3632 16.3795 14.7195ZM19.2663 14.7195C19.2663 13.6532 18.4565 12.8787 17.3651 12.8787C16.2741 12.8787 15.4642 13.6532 15.4642 14.7195C15.4642 15.7854 16.2741 16.5599 17.3651 16.5599C18.4565 16.5599 19.2663 15.7854 19.2663 14.7195ZM13.3176 13.6734C13.5593 13.6734 13.7604 13.7438 13.9664 13.8492C14.032 13.8846 14.0722 13.8544 14.0972 13.7939L14.3334 13.256C14.3537 13.2107 14.3739 13.1554 14.2984 13.1101C14.0921 12.9793 13.6798 12.8787 13.3176 12.8787C12.2417 12.8787 11.3917 13.6031 11.3917 14.7195C11.3917 15.7854 12.2163 16.5599 13.2675 16.5599C14.2833 16.5599 15.0828 15.7652 15.0828 14.679V14.4579C15.0828 14.4074 15.0478 14.3724 14.9974 14.3724H13.5088C13.4384 14.3724 13.4082 14.4026 13.3931 14.463L13.2774 14.9958C13.2623 15.0714 13.3028 15.0964 13.3581 15.0964H14.1624C14.1072 15.5039 13.6949 15.7803 13.3176 15.7803C12.7093 15.7803 12.3069 15.3378 12.3069 14.7195C12.3069 14.0758 12.7395 13.6734 13.3176 13.6734ZM9.09602 15.7803C8.53781 15.7803 8.11041 15.3632 8.11041 14.7195C8.11041 14.0758 8.53781 13.6583 9.09602 13.6583C9.65423 13.6583 10.0816 14.0758 10.0816 14.7195C10.0816 15.3632 9.65423 15.7803 9.09602 15.7803ZM9.09602 12.8787C8.00467 12.8787 7.19517 13.6532 7.19517 14.7195C7.19517 15.7854 8.00467 16.5599 9.09602 16.5599C10.1874 16.5599 10.9969 15.7854 10.9969 14.7195C10.9969 13.6532 10.1874 12.8787 9.09602 12.8787ZM5.69014 12.9391H4.99118C4.94071 12.9391 4.9057 12.9745 4.9057 13.0246V16.414C4.9057 16.4645 4.94071 16.4995 4.99118 16.4995H6.83161C6.88173 16.4995 6.91709 16.4645 6.91709 16.414V15.8057C6.91709 15.7552 6.88173 15.7202 6.83161 15.7202H5.77562V13.0246C5.77562 12.9745 5.74026 12.9391 5.69014 12.9391Z" fill="#CB4B00"/>
</svg>
