<svg width="24" height="24" viewBox="0 0 24 24" fill="none" xmlns="http://www.w3.org/2000/svg">
<path fill-rule="evenodd" clip-rule="evenodd" d="M13.6561 20.1993V20.713C13.6561 20.8074 13.6915 20.8901 13.7624 20.9609C13.8332 21.0318 13.9159 21.0672 14.0103 21.0672H23.6635C23.7579 21.0672 23.8376 21.0347 23.9026 20.9698C23.9675 20.9048 24 20.8251 24 20.7307V20.217C24 20.1226 23.9675 20.0428 23.9026 19.9779C23.8376 19.913 23.7579 19.8805 23.6635 19.8805H13.9926C13.8982 19.8805 13.8185 19.91 13.7535 19.969C13.6886 20.0281 13.6561 20.1048 13.6561 20.1993ZM2.81626 9.5366V5.07314C2.81626 4.81336 2.91368 4.58606 3.10851 4.39122C3.30334 4.19639 3.53065 4.09897 3.79043 4.09897H14.2937C14.5535 4.11078 14.7778 4.21115 14.9668 4.40008C15.1557 4.58901 15.2502 4.81336 15.2502 5.07314V14.1418C15.2502 14.2244 15.2826 14.3012 15.3476 14.372C15.4125 14.4429 15.4922 14.4783 15.5867 14.4783H16.1003C16.1948 14.4783 16.2745 14.4429 16.3395 14.372C16.4044 14.3012 16.4369 14.2244 16.4369 14.1418V6.93293H19.6428C19.8081 6.93293 19.9586 6.96836 20.0944 7.03921C20.2302 7.11006 20.3454 7.20452 20.4398 7.3226L22.6184 10.3337C22.6775 10.4163 22.7247 10.5078 22.7601 10.6082C22.7955 10.7086 22.8132 10.8119 22.8132 10.9182V11.4318H21.9454C21.8509 11.4318 21.7712 11.4643 21.7062 11.5292C21.6413 11.5942 21.6088 11.6739 21.6088 11.7684V12.2643C21.6088 12.3588 21.6413 12.4385 21.7062 12.5034C21.7712 12.5683 21.8509 12.6008 21.9454 12.6008H22.8132V14.496C22.8132 14.7322 22.7394 14.9388 22.5918 15.1159C22.4442 15.2931 22.2583 15.4052 22.0339 15.4525L21.5026 15.5588C21.349 15.1809 21.104 14.868 20.7675 14.62C20.431 14.372 20.0502 14.2481 19.6251 14.2481C19.1764 14.2481 18.7808 14.3809 18.4383 14.6466C18.0959 14.9123 17.8597 15.2458 17.7299 15.6473L13.9926 15.665C13.8981 15.665 13.8184 15.6975 13.7535 15.7624C13.6885 15.8274 13.6561 15.9071 13.6561 16.0016V16.5152C13.6561 16.6097 13.6885 16.6894 13.7535 16.7543C13.8184 16.8193 13.8981 16.8517 13.9926 16.8517H17.7121C17.842 17.265 18.0811 17.6045 18.4295 17.8702C18.7778 18.1359 19.1763 18.2687 19.6251 18.2687C20.0974 18.2687 20.5107 18.127 20.8649 17.8436C21.2191 17.5602 21.4494 17.2001 21.5557 16.7632L22.2642 16.6215C22.7601 16.5152 23.1704 16.2672 23.4952 15.8776C23.8199 15.4879 23.9822 15.0333 23.9822 14.5137V10.9005C23.9822 10.6643 23.9468 10.4399 23.876 10.2274C23.8051 10.0149 23.7048 9.82002 23.5749 9.6429L21.3963 6.64955C21.1955 6.37796 20.9446 6.16246 20.6435 6.00305C20.3424 5.84364 20.0147 5.76394 19.6605 5.76394C19.6487 5.76394 19.6428 5.76394 19.6428 5.76394C19.6428 5.76394 19.6369 5.76394 19.6251 5.76394H16.4192V5.07316C16.4192 4.48276 16.2125 3.97796 15.7992 3.55877C15.3859 3.13959 14.8841 2.92999 14.2937 2.92999H3.79042C3.20002 2.92999 2.69522 3.13959 2.27603 3.55877C1.85685 3.97796 1.64725 4.48276 1.64725 5.07316V9.51891C1.64725 9.60157 1.67677 9.67242 1.73581 9.73146C1.79485 9.7905 1.8657 9.82002 1.94836 9.82002H2.53286C2.61552 9.82002 2.68341 9.79345 2.73655 9.74031C2.78969 9.68718 2.81625 9.61928 2.81625 9.53662L2.81626 9.5366ZM19.6251 17.0466C19.4007 17.0466 19.2088 16.9639 19.0494 16.7986C18.89 16.6333 18.8103 16.4385 18.8103 16.2141C18.8103 15.9897 18.89 15.7979 19.0494 15.6385C19.2088 15.479 19.4007 15.3993 19.6251 15.3993C19.8494 15.3993 20.0413 15.479 20.2007 15.6385C20.3601 15.7979 20.4398 15.9897 20.4398 16.2141C20.4398 16.4385 20.3601 16.6303 20.2007 16.7897C20.0413 16.9492 19.8494 17.0348 19.6251 17.0466ZM20.3867 9.32409H17.9601C17.8657 9.32409 17.786 9.35657 17.721 9.42151C17.6561 9.48646 17.6236 9.56616 17.6236 9.66062V10.1743C17.6236 10.2569 17.6561 10.3337 17.721 10.4045C17.786 10.4754 17.8657 10.5108 17.9601 10.5108H20.3867C20.4812 10.5108 20.5609 10.4754 20.6258 10.4045C20.6908 10.3337 20.7232 10.2569 20.7232 10.1743V9.66062C20.7232 9.56616 20.6908 9.48941 20.6258 9.43037C20.5609 9.37133 20.4812 9.34181 20.3867 9.34181V9.32409ZM13.8863 11.4318H3.84353C3.78449 11.4318 3.73136 11.4466 3.68412 11.4761C3.63689 11.5056 3.59556 11.544 3.56014 11.5912L2.39114 13.6636L1.20443 11.5912C1.18081 11.544 1.14243 11.5056 1.0893 11.4761C1.03616 11.4466 0.980073 11.4318 0.921032 11.4318H0.336531C0.242066 11.4318 0.162361 11.4643 0.0974168 11.5293C0.0324722 11.5942 0 11.6739 0 11.7684C0 11.792 0.0059036 11.8186 0.0177122 11.8481C0.0295201 11.8776 0.0413282 11.9042 0.0531362 11.9278L1.80664 14.992V20.6953C1.80664 20.7898 1.83911 20.8695 1.90406 20.9344C1.969 20.9993 2.04871 21.0318 2.14317 21.0318H12.0797C12.1741 21.0318 12.2538 20.9993 12.3188 20.9344C12.3837 20.8695 12.4162 20.7898 12.4162 20.6953V14.992L14.1697 11.9278C14.1815 11.9042 14.1933 11.8776 14.2051 11.8481C14.2169 11.8186 14.2228 11.792 14.2228 11.7684C14.2228 11.6739 14.1904 11.5942 14.1254 11.5293C14.0605 11.4643 13.9808 11.4318 13.8863 11.4318H13.8863ZM11.4775 14.2658H5.01249C4.91803 14.2658 4.83832 14.2983 4.77338 14.3632C4.70843 14.4281 4.67596 14.5078 4.67596 14.6023V15.0983C4.67596 15.1927 4.70843 15.2724 4.77338 15.3374C4.83832 15.4023 4.91803 15.4348 5.01249 15.4348H11.2295V19.8805H2.9579V15.0097L4.33945 12.6186H12.4339L11.4775 14.2658ZM11.0524 5.87024C11.0169 5.83481 10.9815 5.80825 10.9461 5.79053C10.9107 5.77282 10.8693 5.76397 10.8221 5.76397H10.0959C10.0959 5.76397 10.093 5.76397 10.087 5.76397C10.0811 5.76397 10.0782 5.76397 10.0782 5.76397C9.98373 5.76397 9.90402 5.79644 9.83908 5.86138C9.77414 5.92633 9.74166 6.00603 9.74166 6.1005C9.74166 6.14773 9.75347 6.19496 9.77709 6.24219C9.8007 6.28943 9.83022 6.32485 9.86565 6.34847L11.3003 7.80086L9.86565 9.21783C9.83022 9.25326 9.8007 9.29458 9.77709 9.34182C9.75347 9.38905 9.74166 9.43628 9.74166 9.48351C9.74166 9.57798 9.77414 9.65768 9.83908 9.72263C9.90402 9.78757 9.98373 9.82004 10.0782 9.82004C10.0782 9.82004 10.0811 9.82004 10.087 9.82004C10.093 9.82004 10.0959 9.82004 10.0959 9.82004H10.8044C10.8516 9.82004 10.8959 9.81119 10.9372 9.79348C10.9786 9.77576 11.0169 9.7492 11.0524 9.71377L12.7173 8.03112C12.7527 7.9957 12.7793 7.95732 12.797 7.91599C12.8147 7.87466 12.8236 7.83629 12.8236 7.80086C12.8236 7.75363 12.8147 7.70935 12.797 7.66802C12.7793 7.62669 12.7527 7.58832 12.7173 7.55289L11.0524 5.87024ZM6.23465 5.87024C6.19923 5.83481 6.16085 5.80825 6.11953 5.79053C6.0782 5.77282 6.03982 5.76397 6.0044 5.76397H5.26049C5.26049 5.76397 5.25753 5.76397 5.25163 5.76397C5.24573 5.76397 5.24277 5.76397 5.24277 5.76397C5.14831 5.76397 5.0686 5.79644 5.00366 5.86138C4.93871 5.92633 4.90624 6.00603 4.90624 6.1005C4.90624 6.14773 4.9151 6.19496 4.93281 6.24219C4.95052 6.28943 4.97709 6.32485 5.01251 6.34847L6.4472 7.80086L5.03023 9.21783C4.9948 9.25326 4.96824 9.29458 4.95052 9.34182C4.93281 9.38905 4.92396 9.43628 4.92396 9.48351C4.92396 9.57798 4.95643 9.65768 5.02137 9.72263C5.08632 9.78757 5.16602 9.82004 5.26049 9.82004C5.26049 9.82004 5.26344 9.82004 5.26934 9.82004C5.27525 9.82004 5.2782 9.82004 5.2782 9.82004H5.98669C6.03392 9.82004 6.0782 9.81119 6.11953 9.79348C6.16086 9.77576 6.19923 9.7492 6.23466 9.71377L7.8996 8.03112C7.93503 7.9957 7.96159 7.95732 7.97931 7.91599C7.99702 7.87466 8.00587 7.83629 8.00587 7.80086C8.00587 7.75363 7.99702 7.70935 7.97931 7.66802C7.96159 7.62669 7.93503 7.58832 7.8996 7.55289L6.23465 5.87024Z" fill="#CB4B00"/>
</svg>
