<svg width="24" height="24" viewBox="0 0 24 24" fill="none" xmlns="http://www.w3.org/2000/svg">
<path fill-rule="evenodd" clip-rule="evenodd" d="M21.5122 8.46536H5.8537C5.75614 8.46536 5.67382 8.4989 5.60675 8.56597C5.53968 8.63305 5.50614 8.71536 5.50614 8.81293V9.30683C5.50614 9.40439 5.53968 9.4867 5.60675 9.55378C5.67382 9.62085 5.75614 9.65439 5.8537 9.65439H21.5122C21.6098 9.65439 21.6921 9.62085 21.7592 9.55378C21.8262 9.4867 21.8598 9.40439 21.8598 9.30683V8.77634C21.8476 8.69097 21.8079 8.6178 21.7409 8.55683C21.6738 8.49585 21.5976 8.46536 21.5122 8.46536ZM23.6525 5.55683H6.42073L4.40853 2.77635C4.37195 2.72757 4.32927 2.69098 4.28048 2.66659C4.2317 2.6422 4.18292 2.63 4.13414 2.63H0.347561C0.25 2.63 0.167683 2.66354 0.10061 2.73061C0.0335365 2.79769 0 2.88001 0 2.97757V3.50805C0 3.60561 0.0335365 3.68488 0.10061 3.74586C0.167683 3.80683 0.25 3.83732 0.347561 3.83732H3.67683L5.70731 6.61781C5.7439 6.66659 5.78658 6.70317 5.83536 6.72756C5.88414 6.75195 5.93292 6.76415 5.9817 6.76415H23.6524C23.75 6.76415 23.8323 6.73061 23.8994 6.66354C23.9665 6.59646 24 6.51415 24 6.41659V5.8861C24 5.80073 23.9665 5.72451 23.8994 5.65744C23.8323 5.59037 23.75 5.55683 23.6524 5.55683H23.6525ZM19.4086 11.3922H5.98173C5.92076 11.3922 5.86588 11.4044 5.8171 11.4288C5.76832 11.4532 5.73173 11.4837 5.70734 11.5202L3.93295 13.9532C3.75003 14.1971 3.60978 14.4654 3.51222 14.758C3.41466 15.0507 3.36588 15.3556 3.36588 15.6727C3.36588 15.8556 3.38112 16.0294 3.41161 16.194C3.4421 16.3586 3.48173 16.5202 3.53051 16.6788C3.64027 16.9349 3.78051 17.1727 3.95124 17.3922C4.12198 17.6117 4.3171 17.7946 4.53661 17.941C4.39027 18.1239 4.27137 18.3312 4.1799 18.5629C4.08844 18.7946 4.04271 19.0385 4.04271 19.2946C4.04271 19.8678 4.24698 20.3556 4.65551 20.758C5.06405 21.1605 5.5488 21.3617 6.10978 21.3617C6.68295 21.3617 7.17076 21.1605 7.57319 20.758C7.97563 20.3556 8.17685 19.8678 8.17685 19.2946C8.17685 19.1361 8.16161 18.9837 8.13112 18.8373C8.10063 18.691 8.0549 18.5568 7.99393 18.4349H14.3049C14.2439 18.569 14.1982 18.7062 14.1677 18.8465C14.1372 18.9867 14.122 19.1361 14.122 19.2946C14.122 19.8678 14.3232 20.3556 14.7256 20.758C15.1281 21.1605 15.6159 21.3617 16.189 21.3617C16.75 21.3617 17.2317 21.1605 17.6341 20.758C18.0366 20.3556 18.2378 19.8678 18.2378 19.2946C18.2378 18.7215 18.0366 18.2337 17.6341 17.8312C17.2317 17.4288 16.75 17.2276 16.189 17.2276H6.10975C6.10975 17.2276 6.10366 17.2276 6.09146 17.2276C5.78658 17.2276 5.50609 17.1391 5.24999 16.9623C4.9939 16.7855 4.80487 16.5629 4.68292 16.2946C4.64634 16.1971 4.6189 16.0965 4.6006 15.9928C4.58231 15.8891 4.57316 15.7824 4.57316 15.6727C4.57316 15.5019 4.6006 15.3312 4.65548 15.1605C4.71036 14.9897 4.79268 14.8373 4.90243 14.7032L6.42072 12.5995H19.4268C19.5244 12.5995 19.6067 12.566 19.6738 12.4989C19.7409 12.4318 19.7744 12.3495 19.7744 12.2519V11.7397C19.7744 11.6422 19.7409 11.5599 19.6738 11.4928C19.6067 11.4257 19.5244 11.3922 19.4268 11.3922H19.4086ZM16.189 18.4166C16.4207 18.4166 16.6189 18.4989 16.7836 18.6635C16.9482 18.8282 17.0305 19.0263 17.0305 19.258C17.0305 19.5019 16.9482 19.7062 16.7836 19.8708C16.6189 20.0355 16.4207 20.1178 16.189 20.1178C15.9451 20.1178 15.7409 20.0355 15.5762 19.8708C15.4116 19.7062 15.3293 19.5019 15.3293 19.258C15.3293 19.0263 15.4116 18.8282 15.5762 18.6635C15.7409 18.4989 15.9451 18.4166 16.189 18.4166ZM6.10976 18.4166C6.35367 18.4166 6.55794 18.4989 6.72257 18.6635C6.8872 18.8282 6.96952 19.0263 6.96952 19.258C6.96952 19.5019 6.8872 19.7062 6.72257 19.8708C6.55794 20.0355 6.35367 20.1178 6.10976 20.1178C5.87806 20.1178 5.67989 20.0355 5.51525 19.8708C5.35062 19.7062 5.2683 19.5019 5.2683 19.258C5.2683 19.0263 5.35062 18.8282 5.51525 18.6635C5.67989 18.4989 5.87806 18.4166 6.10976 18.4166Z" fill="#CB4B00"/>
</svg>
