<svg width="24" height="24" viewBox="0 0 24 24" fill="none" xmlns="http://www.w3.org/2000/svg">
<path fill-rule="evenodd" clip-rule="evenodd" d="M22.6248 11.3496H21.4794V8.86129C21.4794 8.17667 21.3477 7.53813 21.0844 6.94567C20.8342 6.35321 20.4886 5.83316 20.0476 5.38553C19.6065 4.93789 19.0898 4.58241 18.4973 4.3191C17.9049 4.05578 17.2729 3.92413 16.6014 3.92413C16.4435 3.33167 16.1242 2.84453 15.6436 2.46273C15.1631 2.08092 14.6068 1.89001 13.9749 1.89001H10.0449C10.0449 1.89001 10.0416 1.89001 10.035 1.89001C10.0284 1.89001 10.0251 1.89001 10.0251 1.89001C9.40634 1.89001 8.85667 2.08092 8.37612 2.46273C7.89557 2.84453 7.5763 3.32509 7.41831 3.90438C6.74686 3.91754 6.1149 4.05578 5.52244 4.3191C4.92998 4.58241 4.40993 4.93789 3.9623 5.38553C3.51466 5.83316 3.16577 6.35321 2.91562 6.94567C2.66547 7.53813 2.5404 8.17667 2.5404 8.86129V11.3496H1.37522C1.2699 11.3496 1.18103 11.3858 1.10862 11.4582C1.03621 11.5307 1 11.6195 1 11.7248V12.2976C1 12.4029 1.03621 12.4918 1.10862 12.5642C1.18103 12.6366 1.2699 12.6728 1.37522 12.6728H22.6248C22.7301 12.6728 22.8189 12.6366 22.8914 12.5642C22.9638 12.4918 23 12.4029 23 12.2976V11.7248C23 11.6195 22.9638 11.5307 22.8914 11.4582C22.8189 11.3858 22.7301 11.3496 22.6248 11.3496L22.6248 11.3496ZM20.1562 11.3496H3.86357V8.86129C3.86357 7.86069 4.21576 7.00491 4.92013 6.29397C5.62449 5.58301 6.47698 5.22754 7.47757 5.22754H8.28727C8.39259 5.22754 8.48146 5.19134 8.55387 5.11892C8.62629 5.04651 8.66249 4.95764 8.66249 4.85232V4.57584C8.66249 4.19403 8.79744 3.86818 9.06734 3.59827C9.33724 3.32837 9.66309 3.19343 10.0449 3.19343H13.9749C14.3567 3.19343 14.6825 3.32837 14.9524 3.59827C15.2223 3.86817 15.3573 4.19402 15.3573 4.57584V4.85232C15.3573 4.95764 15.3935 5.04651 15.4659 5.11892C15.5383 5.19134 15.6272 5.22754 15.7325 5.22754H16.5225C17.5231 5.22754 18.3788 5.58302 19.0898 6.29397C19.8007 7.00492 20.1562 7.86069 20.1562 8.86129V11.3496ZM20.8079 14.4897H3.23162C2.69182 14.5028 2.21785 14.6806 1.80971 15.0229C1.40157 15.3652 1.14484 15.7931 1.03951 16.3065C1.03951 16.3197 1.03951 16.3329 1.03951 16.346C1.03951 16.3592 1.03951 16.3724 1.03951 16.3855C1.03951 16.4777 1.07572 16.56 1.14813 16.6324C1.22054 16.7048 1.30941 16.741 1.41473 16.741H1.98745C2.07961 16.741 2.1586 16.7147 2.22443 16.662C2.29026 16.6094 2.33634 16.5435 2.36267 16.4645C2.41533 16.2802 2.52395 16.1255 2.68852 16.0004C2.85309 15.8754 3.03412 15.8128 3.23161 15.8128H20.7882C20.9988 15.8128 21.1831 15.8754 21.3411 16.0004C21.4991 16.1255 21.611 16.2802 21.6768 16.4645C21.7032 16.5435 21.7493 16.6094 21.8151 16.662C21.8809 16.7147 21.9533 16.741 22.0323 16.741H22.6248C22.7301 16.741 22.819 16.7048 22.8914 16.6324C22.9638 16.56 23 16.4777 23 16.3855C23 16.3724 23 16.3592 23 16.346C23 16.3329 23 16.3197 23 16.3065C22.8947 15.7931 22.6379 15.3619 22.2298 15.013C21.8217 14.6641 21.3477 14.4897 20.8079 14.4897C20.8079 14.4897 20.8046 14.4897 20.798 14.4897C20.7914 14.4897 20.7881 14.4897 20.7881 14.4897H20.8079ZM16.3052 6.62966H15.7522C15.6469 6.62966 15.5581 6.66587 15.4856 6.73828C15.4132 6.81069 15.377 6.89956 15.377 7.00489V9.53272C15.377 9.63804 15.4132 9.72691 15.4856 9.79932C15.5581 9.87174 15.6469 9.90794 15.7522 9.90794H16.3052C16.4105 9.90794 16.4994 9.87174 16.5718 9.79932C16.6442 9.72691 16.6804 9.63804 16.6804 9.53272V7.02464C16.6804 6.91931 16.6442 6.83044 16.5718 6.75803C16.4994 6.68562 16.4105 6.64941 16.3052 6.64941V6.62966ZM12.2962 4.59555H11.7235C11.6182 4.59555 11.5293 4.63176 11.4569 4.70417C11.3845 4.77658 11.3483 4.86545 11.3483 4.97077V8.07131C11.3483 8.17664 11.3845 8.26551 11.4569 8.33792C11.5293 8.41033 11.6182 8.44654 11.7235 8.44654H12.2962C12.4016 8.44654 12.4904 8.41033 12.5628 8.33792C12.6353 8.26551 12.6715 8.17664 12.6715 8.07131V4.99053C12.6715 4.8852 12.6353 4.79633 12.5628 4.72392C12.4904 4.65151 12.4016 4.6153 12.2962 4.6153V4.59555ZM8.28725 6.62966H7.73429C7.62896 6.62966 7.54009 6.66587 7.46768 6.73828C7.39527 6.81069 7.35906 6.89956 7.35906 7.00489V9.53272C7.35906 9.63804 7.39527 9.72691 7.46768 9.79932C7.54009 9.87174 7.62896 9.90794 7.73429 9.90794H8.28725C8.39258 9.90794 8.48145 9.87174 8.55386 9.79932C8.62627 9.72691 8.66248 9.63804 8.66248 9.53272V7.02464C8.66248 6.91931 8.62627 6.83044 8.55386 6.75803C8.48145 6.68562 8.39258 6.64941 8.28725 6.64941V6.62966ZM20.0574 17.1162H19.4847C19.3926 17.1162 19.307 17.1524 19.228 17.2248C19.149 17.2972 19.1095 17.3861 19.1095 17.4914V19.881C19.1095 20.1443 19.0206 20.3648 18.8429 20.5426C18.6651 20.7203 18.4512 20.8092 18.2011 20.8092H15.377L13.7774 18.5973C13.593 18.334 13.3626 18.1201 13.0861 17.9555C12.8097 17.7909 12.5134 17.6889 12.1975 17.6494C12.158 17.6494 12.1218 17.6494 12.0888 17.6494C12.0559 17.6494 12.0263 17.6494 12 17.6494C11.6445 17.6494 11.3186 17.7284 11.0224 17.8864C10.7262 18.0444 10.4859 18.255 10.3016 18.5183L8.64269 20.7894H5.81864C5.56849 20.7894 5.35784 20.7006 5.18668 20.5228C5.01553 20.3451 4.92995 20.1311 4.92995 19.881V17.4914C4.92995 17.3861 4.89374 17.2972 4.82133 17.2248C4.74892 17.1524 4.66005 17.1162 4.55472 17.1162H3.96226C3.8701 17.1293 3.79111 17.1688 3.72528 17.2347C3.65945 17.3005 3.62654 17.3861 3.62654 17.4914V19.881C3.62654 20.4998 3.84377 21.0264 4.27824 21.4609C4.71271 21.8953 5.23276 22.1126 5.83838 22.1126H9.11666C9.18249 22.1126 9.24174 22.0994 9.2944 22.0731C9.34706 22.0468 9.38656 22.0073 9.41289 21.9546L11.3878 19.3083C11.4668 19.2029 11.5622 19.1207 11.6741 19.0614C11.786 19.0022 11.9078 18.9725 12.0395 18.9725C12.1711 18.9725 12.2962 19.0022 12.4147 19.0614C12.5332 19.1207 12.6253 19.1964 12.6912 19.2885L14.6265 21.9546C14.666 22.0073 14.7121 22.0468 14.7648 22.0731C14.8174 22.0994 14.8767 22.1126 14.9425 22.1126H18.2405C18.8593 22.1126 19.386 21.8953 19.8204 21.4609C20.2549 21.0264 20.4721 20.4998 20.4721 19.881V17.4914C20.4721 17.3861 20.4359 17.2972 20.3635 17.2248C20.2911 17.1524 20.2022 17.1162 20.0969 17.1162C20.0837 17.1162 20.0739 17.1162 20.0673 17.1162C20.0607 17.1162 20.0574 17.1162 20.0574 17.1162H20.0574Z" fill="#CB4B00"/>
</svg>
