<svg width="24" height="24" viewBox="0 0 24 24" fill="none" xmlns="http://www.w3.org/2000/svg">
<path fill-rule="evenodd" clip-rule="evenodd" d="M21.4445 6.33797L21.0038 6.64448C20.4674 7.0404 19.8608 7.41715 19.1839 7.77476C18.507 8.13235 17.7982 8.31115 17.0575 8.31115H11.023C10.9208 8.31115 10.8346 8.34628 10.7644 8.41652C10.6941 8.48676 10.659 8.57297 10.659 8.67514V9.19238C10.659 9.29455 10.6941 9.38076 10.7644 9.451C10.8346 9.52125 10.9208 9.55637 11.023 9.55637H17.0575C17.7471 9.53082 18.4049 9.41269 19.0307 9.20196C19.6565 8.99123 20.2376 8.70707 20.774 8.34947L20.7357 19.0774C20.2248 19.435 19.6533 19.7703 19.0211 20.0832C18.3889 20.3961 17.7408 20.5525 17.0766 20.5525H8.4751C8.75607 20.2205 8.97957 19.8469 9.14559 19.4318C9.31162 19.0168 9.39464 18.5793 9.39464 18.1196C9.39464 18.1196 9.39464 18.1164 9.39464 18.11C9.39464 18.1036 9.39464 18.1004 9.39464 18.1004V5.89733C9.39464 4.87562 9.03384 4.00397 8.31226 3.28239C7.59067 2.5608 6.71903 2.20001 5.69732 2.20001C4.67561 2.20001 3.80396 2.5608 3.08237 3.28239C2.36079 4.00397 2 4.87562 2 5.89733V18.1004C2 18.1004 2 18.1068 2 18.1196C2 18.8092 2.17241 19.4382 2.51724 20.0065C2.86207 20.5749 3.32184 21.0187 3.89656 21.338C4.0115 21.4018 4.12644 21.4529 4.24139 21.4912C4.44573 21.5934 4.66923 21.67 4.91188 21.7211C5.15454 21.7722 5.40358 21.7977 5.65901 21.7977C5.65901 21.7977 5.66221 21.7977 5.66859 21.7977C5.67498 21.7977 5.67817 21.7977 5.67817 21.7977H17.0575C17.977 21.7977 18.8359 21.5902 19.6341 21.1751C20.4323 20.76 21.1379 20.329 21.751 19.882L21.8659 19.8054C21.9042 19.7671 21.9361 19.7224 21.9617 19.6713C21.9872 19.6202 22 19.5691 22 19.518V6.64445C22 6.64445 22 6.63806 22 6.62529C22 6.53589 21.9649 6.45288 21.8946 6.37625C21.8244 6.29962 21.7382 6.26131 21.636 6.26131C21.5977 6.26131 21.5626 6.26769 21.5307 6.28046C21.4987 6.29323 21.47 6.31239 21.4444 6.33793L21.4445 6.33797ZM6.17624 20.4951C6.09961 20.5079 6.02298 20.5174 5.94635 20.5238C5.86973 20.5302 5.78671 20.5334 5.69731 20.5334C5.02043 20.5334 4.44572 20.2971 3.97317 19.8246C3.50063 19.352 3.26436 18.7837 3.26436 18.1196C3.26436 18.1068 3.26436 18.1004 3.26436 18.1004C3.26436 17.4236 3.50063 16.8489 3.97317 16.3763C4.44571 15.9038 5.02043 15.6675 5.69731 15.6675C6.36142 15.6675 6.92976 15.9038 7.40229 16.3763C7.87484 16.8488 8.1111 17.4236 8.1111 18.1004C8.1111 18.6752 7.92911 19.1828 7.56513 19.6234C7.20114 20.0641 6.74457 20.3418 6.19539 20.4568L6.17624 20.4951ZM8.09195 15.3418C7.7599 15.0608 7.38953 14.8373 6.98084 14.6713C6.57215 14.5053 6.13154 14.4223 5.659 14.4223C5.19923 14.4223 4.76181 14.5053 4.34674 14.6713C3.93167 14.8373 3.56449 15.0608 3.2452 15.3418V5.89734C3.2452 5.22045 3.48147 4.64574 3.95401 4.17319C4.42656 3.70065 4.99489 3.46438 5.659 3.46438C6.33588 3.46438 6.91059 3.70065 7.38314 4.17319C7.85568 4.64574 8.09195 5.22045 8.09195 5.89734V15.3418ZM15.2567 11.4721C15.2184 11.4465 15.1833 11.4274 15.1513 11.4146C15.1194 11.4018 15.0843 11.3955 15.046 11.3955C14.9821 11.3955 14.9246 11.4082 14.8736 11.4338C14.8225 11.4593 14.7842 11.4976 14.7586 11.5487L11.6552 15.8207C11.6296 15.8463 11.6105 15.8782 11.5977 15.9165C11.5849 15.9548 11.5785 15.9932 11.5785 16.0315C11.5785 16.0953 11.5913 16.1528 11.6168 16.2039C11.6424 16.255 11.6807 16.2933 11.7318 16.3188L12.1724 16.6445C12.1979 16.67 12.2299 16.6892 12.2682 16.702C12.3065 16.7147 12.3448 16.7211 12.3831 16.7211C12.447 16.7211 12.5045 16.7052 12.5555 16.6732C12.6066 16.6413 12.6449 16.6062 12.6705 16.5679L15.7739 12.2958C15.7995 12.2575 15.8186 12.2224 15.8314 12.1905C15.8442 12.1585 15.8506 12.1234 15.8506 12.0851C15.8506 12.0213 15.8378 11.9638 15.8123 11.9127C15.7867 11.8616 15.7484 11.8233 15.6973 11.7978L15.2567 11.4721ZM14.1647 18.1962L14.6245 18.5219C14.6501 18.5474 14.6788 18.5666 14.7107 18.5794C14.7426 18.5921 14.7778 18.5985 14.8161 18.5985C14.8799 18.5985 14.9374 18.5858 14.9885 18.5602C15.0396 18.5347 15.0843 18.4964 15.1226 18.4453L18.226 14.1732C18.2388 14.1477 18.2516 14.1158 18.2644 14.0774C18.2771 14.0391 18.2835 14.0008 18.2835 13.9625C18.2835 13.8986 18.2707 13.8412 18.2452 13.7901C18.2197 13.739 18.1813 13.7007 18.1303 13.6751L17.6896 13.3495C17.6641 13.3239 17.6322 13.3048 17.5939 13.292C17.5555 13.2792 17.5172 13.2728 17.4789 13.2728C17.4278 13.2728 17.3767 13.2888 17.3257 13.3207C17.2746 13.3527 17.2299 13.3878 17.1916 13.4261L14.0881 17.6981C14.0626 17.7237 14.0434 17.7556 14.0306 17.7939C14.0179 17.8322 14.0115 17.8706 14.0115 17.9089C14.0115 17.9727 14.0274 18.0302 14.0594 18.0813C14.0913 18.1324 14.1264 18.1707 14.1647 18.1962Z" fill="#CB4B00"/>
</svg>
