<svg width="24" height="24" viewBox="0 0 24 24" fill="none" xmlns="http://www.w3.org/2000/svg">
<path fill-rule="evenodd" clip-rule="evenodd" d="M10.5066 11.4424H2.00698C1.92733 11.4424 1.85337 11.4737 1.7851 11.5363C1.71683 11.5989 1.6827 11.6757 1.6827 11.7667V12.0057C1.6827 12.0057 1.6827 12.0085 1.6827 12.0142C1.6827 12.0199 1.6827 12.0227 1.6827 12.0227C1.6827 12.8989 1.93871 13.6783 2.45074 14.361C2.96276 15.0437 3.61133 15.5159 4.39643 15.7776L3.54306 17.0064C3.45203 16.9723 3.35247 16.9467 3.24438 16.9296C3.13628 16.9126 3.03103 16.904 2.92863 16.904C2.92863 16.904 2.92578 16.904 2.92009 16.904C2.9144 16.904 2.91156 16.904 2.91156 16.904C2.38816 16.904 1.93871 17.0918 1.56323 17.4673C1.18774 17.8428 1 18.2922 1 18.8156C1 19.3504 1.18774 19.8055 1.56323 20.181C1.93871 20.5565 2.38815 20.7442 2.91156 20.7442C3.34394 20.7442 3.72796 20.6162 4.06362 20.3602C4.39928 20.1042 4.62969 19.7828 4.75485 19.3959L8.11715 19.3788L9.02172 20.6077C9.04448 20.6532 9.07861 20.6873 9.12413 20.7101C9.16964 20.7329 9.22084 20.7442 9.27773 20.7442H9.8751C9.96612 20.7442 10.0429 20.7129 10.1055 20.6504C10.1681 20.5878 10.1994 20.511 10.1994 20.4199C10.1994 20.3858 10.1937 20.3517 10.1823 20.3175C10.1709 20.2834 10.1596 20.255 10.1482 20.2322L6.90535 15.7776C7.61081 15.5386 8.20817 15.1347 8.69743 14.5658C9.1867 13.9969 9.48254 13.3426 9.58495 12.603L10.5066 12.5689C10.5976 12.5689 10.6744 12.5376 10.737 12.475C10.7996 12.4124 10.8309 12.3413 10.8309 12.2617V11.7497C10.8195 11.67 10.7825 11.5989 10.7199 11.5363C10.6574 11.4737 10.5862 11.4424 10.5066 11.4424H10.5066ZM2.92861 19.6178C2.71242 19.6178 2.52468 19.5381 2.36538 19.3788C2.20608 19.2195 2.12644 19.0318 2.12644 18.8156C2.12644 18.5994 2.20608 18.4145 2.36538 18.2609C2.52468 18.1073 2.71242 18.0305 2.92861 18.0305C3.1448 18.0305 3.32969 18.1073 3.4833 18.2609C3.63691 18.4145 3.71371 18.5994 3.71371 18.8156C3.71371 19.0318 3.63691 19.2195 3.4833 19.3788C3.32969 19.5381 3.1448 19.6178 2.92861 19.6178ZM7.29789 18.2524H4.75483C4.7207 18.1386 4.67803 18.0362 4.62683 17.9452C4.57563 17.8541 4.52158 17.7631 4.46469 17.6721L5.67648 15.9995L7.29789 18.2524ZM5.65941 14.8559C5.65941 14.8559 5.65657 14.8559 5.65088 14.8559C5.64519 14.8559 5.64234 14.8559 5.64234 14.8559C4.95964 14.8559 4.36228 14.6426 3.85026 14.2159C3.33823 13.7892 3.01394 13.2516 2.87741 12.603L8.44142 12.586C8.30487 13.2345 7.97775 13.7721 7.46003 14.1988C6.94232 14.6255 6.3478 14.8389 5.67648 14.8389C5.67648 14.8389 5.67364 14.8389 5.66795 14.8389C5.66226 14.8389 5.65941 14.8389 5.65941 14.8389L5.65941 14.8559ZM22.9317 20.2493L20.3374 16.6651H21.8906C21.9816 16.6651 22.0584 16.6338 22.121 16.5712C22.1836 16.5086 22.2149 16.4318 22.2149 16.3408V15.8458C22.2149 15.7662 22.1836 15.6951 22.121 15.6325C22.0584 15.5699 21.9816 15.5386 21.8906 15.5386H16.0023C15.9113 15.5386 15.8345 15.5699 15.7719 15.6325C15.7093 15.6951 15.678 15.7662 15.678 15.8458V16.3408C15.678 16.4318 15.7093 16.5086 15.7719 16.5712C15.8345 16.6338 15.9113 16.6651 16.0023 16.6651H17.5555L14.9441 20.2493C14.9328 20.272 14.9214 20.3005 14.91 20.3346C14.8986 20.3687 14.8929 20.4029 14.8929 20.437C14.8929 20.528 14.9242 20.6048 14.9868 20.6674C15.0494 20.73 15.1262 20.7613 15.2172 20.7613H15.8146C15.8715 20.7613 15.9227 20.7499 15.9682 20.7272C16.0137 20.7044 16.0478 20.6703 16.0706 20.6248L16.9752 19.3959H20.9348L21.8223 20.6248C21.8565 20.6703 21.8963 20.7044 21.9418 20.7272C21.9873 20.7499 22.0328 20.7613 22.0784 20.7613C22.0897 20.7613 22.0954 20.7613 22.0954 20.7613H22.6928C22.7838 20.7499 22.8578 20.7129 22.9147 20.6504C22.9716 20.5878 23 20.5167 23 20.437C23 20.4029 22.9943 20.3687 22.9829 20.3346C22.9716 20.3005 22.9545 20.272 22.9317 20.2493H22.9317ZM17.7944 18.2524L18.9208 16.6822L20.0644 18.2524H17.7944ZM16.6338 9.85513C16.8955 9.85513 17.143 9.80393 17.3762 9.70152C17.6095 9.59912 17.8115 9.46257 17.9821 9.2919L18.0163 9.32604C18.1869 9.48533 18.3861 9.61334 18.6136 9.71005C18.8412 9.80677 19.0801 9.85513 19.3305 9.85513C19.3305 9.85513 19.3333 9.85513 19.339 9.85513C19.3447 9.85513 19.3475 9.85513 19.3475 9.85513H19.4499C19.962 9.80961 20.3943 9.59911 20.7471 9.22363C21.0998 8.84815 21.2762 8.40439 21.2762 7.89236C21.2762 7.88099 21.2762 7.87245 21.2762 7.86676C21.2762 7.86107 21.2762 7.85254 21.2762 7.84116V7.58515C21.2762 7.15277 21.151 6.76591 20.9007 6.42456C20.6503 6.08321 20.3318 5.84426 19.9449 5.70772L12.64 3.26707C12.6286 3.26707 12.6144 3.26422 12.5973 3.25853C12.5802 3.25284 12.5603 3.25 12.5376 3.25C12.5262 3.25 12.512 3.25284 12.4949 3.25853C12.4778 3.26422 12.4579 3.26707 12.4352 3.26707L5.16439 5.70772C4.77752 5.84426 4.45893 6.08321 4.2086 6.42456C3.95828 6.76591 3.83312 7.15277 3.83312 7.58515V7.85823C3.83312 7.85823 3.83312 7.86107 3.83312 7.86676C3.83312 7.87245 3.83312 7.88099 3.83312 7.89236C3.83312 8.40439 4.00664 8.84814 4.35368 9.22363C4.70072 9.59912 5.13025 9.80962 5.64227 9.85513C5.65365 9.85513 5.66787 9.85513 5.68494 9.85513C5.70201 9.85513 5.72192 9.85513 5.74468 9.85513C6.00638 9.85513 6.2567 9.80393 6.49565 9.70152C6.73459 9.59912 6.9394 9.46257 7.11008 9.2919V9.27483C7.28075 9.45689 7.48272 9.59912 7.71598 9.70152C7.94923 9.80393 8.2024 9.85513 8.47548 9.85513C8.73718 9.85513 8.98466 9.80393 9.21791 9.70152C9.45117 9.59912 9.65314 9.45689 9.82381 9.27483C9.99449 9.45689 10.1965 9.59627 10.4297 9.69299C10.663 9.7897 10.9161 9.83806 11.1892 9.83806C11.3258 9.83806 11.4623 9.82384 11.5988 9.79539C11.7354 9.76695 11.8662 9.72428 11.9914 9.66739V20.4199C11.9914 20.5109 12.0227 20.5877 12.0853 20.6503C12.1478 20.7129 12.2246 20.7442 12.3157 20.7442H12.7936C12.8846 20.7442 12.9614 20.7129 13.024 20.6503C13.0865 20.5877 13.1178 20.5109 13.1178 20.4199V9.66739C13.243 9.72428 13.3739 9.76695 13.5104 9.79539C13.6469 9.82384 13.7835 9.83806 13.92 9.83806C14.1931 9.83806 14.4434 9.7897 14.671 9.69299C14.8985 9.59627 15.1034 9.46257 15.2854 9.2919C15.4561 9.46257 15.6552 9.59912 15.8828 9.70152C16.1103 9.80393 16.3607 9.85513 16.6337 9.85513H16.6338ZM14.7052 7.67049V7.9265C14.7052 8.14269 14.6284 8.33043 14.4748 8.48973C14.3211 8.64902 14.1306 8.72867 13.903 8.72867C13.6868 8.72867 13.5019 8.64902 13.3483 8.48973C13.1947 8.33043 13.1179 8.14269 13.1179 7.9265V7.67049C13.1179 7.57946 13.0866 7.50265 13.024 7.44007C12.9614 7.37749 12.8846 7.3462 12.7936 7.3462H12.3157C12.2247 7.3462 12.1479 7.37749 12.0853 7.44007C12.0227 7.50265 11.9914 7.57946 11.9914 7.67049V7.9265C11.9914 8.14269 11.9146 8.33043 11.761 8.48973C11.6074 8.64902 11.4225 8.72867 11.2063 8.72867C10.9788 8.72867 10.7882 8.64902 10.6346 8.48973C10.481 8.33043 10.4042 8.14269 10.4042 7.9265V7.67049C10.4042 7.57946 10.3729 7.50265 10.3103 7.44007C10.2477 7.37749 10.1709 7.3462 10.0799 7.3462C10.0799 7.3462 10.077 7.3462 10.0713 7.3462C10.0656 7.3462 10.0571 7.3462 10.0457 7.3462H9.56784C9.47682 7.3462 9.40001 7.37749 9.33743 7.44007C9.27485 7.50265 9.24356 7.57946 9.24356 7.67049V7.9265C9.24356 8.14269 9.16676 8.33043 9.01315 8.48973C8.85954 8.64902 8.66896 8.72867 8.44139 8.72867C8.2252 8.72867 8.0403 8.64902 7.88669 8.48973C7.73309 8.33043 7.65628 8.14269 7.65628 7.9265V7.67049C7.65628 7.57946 7.62499 7.50265 7.56241 7.44007C7.49983 7.37749 7.42303 7.3462 7.332 7.3462H6.83704C6.74602 7.3462 6.66921 7.37749 6.60663 7.44007C6.54405 7.50265 6.51276 7.57946 6.51276 7.67049V7.9265C6.51276 8.04028 6.49 8.14553 6.44449 8.24225C6.39898 8.33896 6.3364 8.42146 6.25675 8.48973C6.18848 8.558 6.10883 8.61204 6.0178 8.65187C5.92677 8.69169 5.82437 8.7116 5.71059 8.7116C5.71059 8.7116 5.70774 8.7116 5.70205 8.7116C5.69636 8.7116 5.69352 8.7116 5.69352 8.7116C5.48871 8.67747 5.31519 8.58075 5.17296 8.42146C5.03073 8.26216 4.95962 8.07442 4.95962 7.85823V7.58515C4.95962 7.40309 5.01366 7.23811 5.12176 7.09019C5.22985 6.94227 5.36355 6.83987 5.52284 6.78297L12.5376 4.44473L19.5694 6.78297C19.7401 6.83987 19.8766 6.93943 19.979 7.08166C20.0814 7.22389 20.1326 7.38603 20.1326 7.56808V7.85823C20.1326 7.85823 20.1326 7.86107 20.1326 7.86676C20.1326 7.87245 20.1326 7.8753 20.1326 7.8753C20.1326 8.09148 20.0615 8.27923 19.9193 8.43852C19.777 8.59782 19.6035 8.69454 19.3987 8.72867C19.3987 8.72867 19.3959 8.72867 19.3902 8.72867C19.3845 8.72867 19.3816 8.72867 19.3816 8.72867C19.2792 8.72867 19.1797 8.70876 19.083 8.66894C18.9862 8.62911 18.9038 8.57506 18.8355 8.50679C18.7558 8.43852 18.6933 8.35603 18.6477 8.25931C18.6022 8.1626 18.5795 8.05735 18.5795 7.94357V7.67049C18.5795 7.57946 18.5482 7.50265 18.4856 7.44007C18.423 7.37749 18.3462 7.3462 18.2552 7.3462H17.7602C17.6692 7.3462 17.5924 7.37749 17.5298 7.44007C17.4672 7.50265 17.436 7.57946 17.436 7.67049V7.9265C17.436 8.14269 17.3591 8.33043 17.2055 8.48973C17.0519 8.64902 16.867 8.72867 16.6508 8.72867C16.4233 8.72867 16.2327 8.64902 16.0791 8.48973C15.9255 8.33043 15.8487 8.14269 15.8487 7.9265V7.67049C15.8487 7.57946 15.8174 7.50265 15.7548 7.44007C15.6922 7.37749 15.6154 7.3462 15.5244 7.3462H15.0294C14.9384 7.3462 14.8616 7.37749 14.799 7.44007C14.7364 7.50265 14.7051 7.57946 14.7051 7.67049H14.7052Z" fill="#CB4B00"/>
</svg>
