<svg width="24" height="24" viewBox="0 0 24 24" fill="none" xmlns="http://www.w3.org/2000/svg">
<path fill-rule="evenodd" clip-rule="evenodd" d="M5.14572 4.08503L11.9994 10.9384L18.8543 4.08503C19.1472 3.79213 19.6221 3.79213 19.9149 4.08503C20.2078 4.37792 20.2078 4.85279 19.9149 5.14569L13.0604 11.9994L19.9149 18.8543C20.2078 19.1472 20.2078 19.622 19.9149 19.9149C19.6221 20.2078 19.1472 20.2078 18.8543 19.9149L11.9994 13.0604L5.14572 19.9149C4.85282 20.2078 4.37795 20.2078 4.08506 19.9149C3.79216 19.622 3.79216 19.1472 4.08506 18.8543L10.9384 11.9994L4.08506 5.14569C3.79216 4.85279 3.79216 4.37792 4.08506 4.08503C4.37795 3.79213 4.85282 3.79213 5.14572 4.08503Z" fill="#CB4B00"/>
</svg>
