<svg width="24" height="24" viewBox="0 0 24 24" fill="none" xmlns="http://www.w3.org/2000/svg">
<path d="M5.5 4.75C5.91421 4.75 6.25 5.08579 6.25 5.5C6.25 5.91421 5.91421 6.25 5.5 6.25H5.25V20.75H15.75V20.6835C15.75 20.2693 16.0858 19.9335 16.5 19.9335C16.9142 19.9335 17.25 20.2693 17.25 20.6835V21.5C17.25 21.9142 16.9142 22.25 16.5 22.25H4.5C4.08579 22.25 3.75 21.9142 3.75 21.5V5.5C3.75 5.08579 4.08579 4.75 4.5 4.75H5.5ZM14.5 1.75C14.6989 1.75 14.8897 1.82902 15.0303 1.96967L15.06 1.999L15.25 2V2.189L19.81 6.749L20 6.75L19.999 6.938L20.0303 6.96967C20.171 7.11032 20.25 7.30109 20.25 7.5V18.5C20.25 18.9142 19.9142 19.25 19.5 19.25H7.5C7.08579 19.25 6.75 18.9142 6.75 18.5V2.5C6.75 2.08579 7.08579 1.75 7.5 1.75H14.5ZM13.75 3.249L8.25 3.25V17.75H18.75L18.749 8.249L14.5 8.25C14.0858 8.25 13.75 7.91421 13.75 7.5V3.249ZM15.25 4.31V6.75L17.688 6.749L15.25 4.31Z" fill="#CB4B00"/>
</svg>
