<svg width="24" height="24" viewBox="0 0 24 24" fill="none" xmlns="http://www.w3.org/2000/svg">
<g clip-path="url(#clip0_2_1668)">
<path d="M11.1507 16.8091C12.2705 16.4547 13.5445 16.7214 14.4324 17.6093C15.7016 18.8785 15.7016 20.9363 14.4324 22.2055C13.1632 23.4747 11.1054 23.4747 9.83621 22.2055C8.97052 21.3398 8.69529 20.1073 9.01052 19.0083L10.4803 13.5071L4.97908 14.9769C3.88012 15.2921 2.64757 15.0169 1.78189 14.1512C0.512686 12.882 0.512686 10.8242 1.78189 9.55502C3.05109 8.28581 5.10888 8.28581 6.37808 9.55502C7.26603 10.443 7.53276 11.7169 7.17828 12.8367L10.9271 11.8351L13.4607 2.35211C12.755 2.46134 12.1453 2.97449 11.9486 3.7086L10.2369 10.0966C10.1297 10.4967 9.71846 10.7342 9.31837 10.627C8.91827 10.5198 8.68083 10.1085 8.78804 9.7084L10.4997 3.32037C10.9798 1.52853 12.8216 0.465181 14.6134 0.945301C15.0133 1.05245 15.2508 1.46337 15.1439 1.86334L12.599 11.3884L22.1241 8.84351C22.5241 8.73664 22.935 8.97408 23.0421 9.37398C23.5222 11.1658 22.4589 13.0076 20.667 13.4877L14.279 15.1994C13.8789 15.3066 13.4677 15.0692 13.3605 14.6691C13.2533 14.269 13.4907 13.8577 13.8908 13.7505L20.2788 12.0388C21.0129 11.8421 21.5261 11.2324 21.6353 10.5267L12.1523 13.0604L11.1507 16.8091ZM10.4523 19.4233L10.4441 19.454C10.4425 19.4597 10.441 19.4654 10.4393 19.471C10.2907 20.0505 10.4432 20.6912 10.8969 21.1449C11.5803 21.8283 12.6883 21.8283 13.3717 21.1449C14.0552 20.4614 14.0552 19.3534 13.3717 18.67C12.6883 17.9866 11.5803 17.9866 10.8969 18.67C10.6796 18.8873 10.5314 19.1475 10.4523 19.4233ZM4.51642 13.5481C4.52206 13.5465 4.52774 13.5449 4.53344 13.5433L4.56413 13.5351C4.83995 13.456 5.10015 13.3078 5.31742 13.0906C6.00084 12.4071 6.00084 11.2991 5.31742 10.6157C4.63401 9.93226 3.52597 9.93226 2.84255 10.6157C2.15913 11.2991 2.15913 12.4071 2.84255 13.0906C3.2962 13.5442 3.93696 13.6967 4.51642 13.5481Z" fill="#CB4B00"/>
</g>
<defs>
<clipPath id="clip0_2_1668">
<rect width="24" height="24" fill="white"/>
</clipPath>
</defs>
</svg>
