<svg width="24" height="24" viewBox="0 0 24 24" fill="none" xmlns="http://www.w3.org/2000/svg">
<path d="M12 0.75C13.7949 0.75 15.25 2.20507 15.25 4V4.75H21.5C21.9142 4.75 22.25 5.08579 22.25 5.5C22.25 5.91421 21.9142 6.25 21.5 6.25H20.25V20.5C20.25 21.4665 19.4665 22.25 18.5 22.25H5.5C4.5335 22.25 3.75 21.4665 3.75 20.5V9.5C3.75 9.08579 4.08579 8.75 4.5 8.75C4.91421 8.75 5.25 9.08579 5.25 9.5V20.5C5.25 20.6381 5.36193 20.75 5.5 20.75H18.5C18.6381 20.75 18.75 20.6381 18.75 20.5V6.25H2.5C2.08579 6.25 1.75 5.91421 1.75 5.5C1.75 5.08579 2.08579 4.75 2.5 4.75H8.75V4C8.75 2.20507 10.2051 0.75 12 0.75ZM9.5 8.75C9.91421 8.75 10.25 9.08579 10.25 9.5V17.5C10.25 17.9142 9.91421 18.25 9.5 18.25C9.08579 18.25 8.75 17.9142 8.75 17.5V9.5C8.75 9.08579 9.08579 8.75 9.5 8.75ZM14.5 8.75C14.9142 8.75 15.25 9.08579 15.25 9.5V17.5C15.25 17.9142 14.9142 18.25 14.5 18.25C14.0858 18.25 13.75 17.9142 13.75 17.5V9.5C13.75 9.08579 14.0858 8.75 14.5 8.75ZM12 2.25C11.0335 2.25 10.25 3.0335 10.25 4V4.75H13.75V4C13.75 3.0335 12.9665 2.25 12 2.25Z" fill="#CB4B00"/>
</svg>
