<svg width="24" height="24" viewBox="0 0 24 24" fill="none" xmlns="http://www.w3.org/2000/svg">
<path d="M19.2374 3.17678L20.8232 4.76256C21.5067 5.44598 21.5067 6.55402 20.8232 7.23744L8.03034 20.0303C7.93422 20.1265 7.81379 20.1946 7.68191 20.2276L3.68191 21.2276C3.13263 21.3649 2.63508 20.8674 2.7724 20.3181L3.7724 16.3181C3.80537 16.1862 3.87356 16.0658 3.96968 15.9697L11.9697 7.96967C12.2626 7.67678 12.7374 7.67678 13.0303 7.96967C13.3232 8.26256 13.3232 8.73744 13.0303 9.03033L6.30933 15.7502L8.24533 17.6932L16.4394 9.5L13.9697 7.03033C13.6768 6.73744 13.6768 6.26256 13.9697 5.96967L16.7626 3.17678C17.446 2.49336 18.554 2.49336 19.2374 3.17678ZM14.6073 19.75C14.9623 19.75 15.2501 20.0858 15.2501 20.5C15.2501 20.9142 14.9623 21.25 14.6073 21.25H9.89287C9.53783 21.25 9.25001 20.9142 9.25001 20.5C9.25001 20.0858 9.53783 19.75 9.89287 19.75H14.6073ZM19.0019 19.75C19.4161 19.75 19.7519 20.0858 19.7519 20.5C19.7519 20.9142 19.4161 21.25 19.0019 21.25H17C16.5858 21.25 16.25 20.9142 16.25 20.5C16.25 20.0858 16.5858 19.75 17 19.75H19.0019ZM5.24833 16.8112L5.17723 16.8834L4.53079 19.4692L7.11657 18.8228L7.18433 18.7542L5.24833 16.8112ZM17.8232 4.23744L15.5607 6.5L17.5 8.43934L19.7626 6.17678C19.8602 6.07915 19.8602 5.92086 19.7626 5.82322L18.1768 4.23744C18.0792 4.13981 17.9209 4.13981 17.8232 4.23744Z" fill="#CB4B00"/>
</svg>
