<svg width="24" height="24" viewBox="0 0 24 24" fill="none" xmlns="http://www.w3.org/2000/svg">
<path d="M8.14088 16.0989L10.3606 18.3186C10.6534 18.6115 10.6534 19.0864 10.3606 19.3792C10.0677 19.6721 9.59279 19.6721 9.29989 19.3792L5.79989 15.8792C5.507 15.5864 5.507 15.1115 5.79989 14.8186L9.29989 11.3186C9.59279 11.0257 10.0677 11.0257 10.3606 11.3186C10.6534 11.6115 10.6534 12.0864 10.3606 12.3792L8.14088 14.5989H16.75C16.8881 14.5989 17 14.487 17 14.3489V5.30292C17 4.8887 17.3358 4.55292 17.75 4.55292C18.1642 4.55292 18.5 4.8887 18.5 5.30292V14.3489C18.5 15.3154 17.7165 16.0989 16.75 16.0989H8.14088Z" fill="#CB4B00"/>
</svg>
