<svg width="24" height="24" viewBox="0 0 24 24" fill="none" xmlns="http://www.w3.org/2000/svg">
<mask id="mask0_2_1643" style="mask-type:alpha" maskUnits="userSpaceOnUse" x="3" y="3" width="18" height="17">
<path d="M7.7604 19.8358C7.56516 19.8358 7.37761 19.7596 7.23762 19.6236L4.05586 16.5304C2.9817 15.4567 2.98133 13.7155 4.05517 12.6412L6.6101 10.0864C6.903 9.79352 7.37786 9.79352 7.67075 10.0864L11.6398 14.0555C11.9327 14.3483 11.9327 14.8232 11.6398 15.1161C11.3469 15.409 10.872 15.409 10.5791 15.1161L7.14041 11.6774L5.11593 13.7018C4.62788 14.19 4.62804 14.9815 5.10886 15.4622L8.06486 18.3358H10.2801L18.9344 9.76263C19.032 9.665 19.032 9.50672 18.9343 9.40909L14.3486 4.82322C14.251 4.72559 14.0927 4.72559 13.9951 4.82324L9.70152 9.11645C9.40861 9.40933 8.93374 9.40931 8.64085 9.1164C8.34797 8.8235 8.34799 8.34862 8.6409 8.05574L12.9344 3.76256C13.6178 3.07914 14.7259 3.07914 15.4093 3.76257L19.995 8.34844C20.6784 9.0318 20.6784 10.1397 19.9926 10.8257L12.411 18.335L14.6719 18.3358C15.0861 18.3358 15.4219 18.6716 15.4219 19.0858C15.4219 19.5 15.0861 19.8358 14.6719 19.8358H7.7604ZM17.6719 18.3358C18.0861 18.3358 18.4219 18.6716 18.4219 19.0858C18.4219 19.5 18.0861 19.8358 17.6719 19.8358H16.6719C16.2577 19.8358 15.9219 19.5 15.9219 19.0858C15.9219 18.6716 16.2577 18.3358 16.6719 18.3358H17.6719Z" fill="white"/>
</mask>
<g mask="url(#mask0_2_1643)">
<path d="M7.7604 19.8358C7.56516 19.8358 7.37761 19.7596 7.23762 19.6236L4.05586 16.5304C2.9817 15.4567 2.98133 13.7155 4.05517 12.6412L6.6101 10.0864C6.903 9.79352 7.37786 9.79352 7.67075 10.0864L11.6398 14.0555C11.9327 14.3483 11.9327 14.8232 11.6398 15.1161C11.3469 15.409 10.872 15.409 10.5791 15.1161L7.14041 11.6774L5.11593 13.7018C4.62788 14.19 4.62804 14.9815 5.10886 15.4622L8.06486 18.3358H10.2801L18.9344 9.76263C19.032 9.665 19.032 9.50672 18.9343 9.40909L14.3486 4.82322C14.251 4.72559 14.0927 4.72559 13.9951 4.82324L9.70152 9.11645C9.40861 9.40933 8.93374 9.40931 8.64085 9.1164C8.34797 8.8235 8.34799 8.34862 8.6409 8.05574L12.9344 3.76256C13.6178 3.07914 14.7259 3.07914 15.4093 3.76257L19.995 8.34844C20.6784 9.0318 20.6784 10.1397 19.9926 10.8257L12.411 18.335L14.6719 18.3358C15.0861 18.3358 15.4219 18.6716 15.4219 19.0858C15.4219 19.5 15.0861 19.8358 14.6719 19.8358H7.7604ZM17.6719 18.3358C18.0861 18.3358 18.4219 18.6716 18.4219 19.0858C18.4219 19.5 18.0861 19.8358 17.6719 19.8358H16.6719C16.2577 19.8358 15.9219 19.5 15.9219 19.0858C15.9219 18.6716 16.2577 18.3358 16.6719 18.3358H17.6719Z" fill="#CB4B00"/>
</g>
</svg>
