<svg width="24" height="24" viewBox="0 0 24 24" fill="none" xmlns="http://www.w3.org/2000/svg">
<path fill-rule="evenodd" clip-rule="evenodd" d="M15 1.75C15.9665 1.75 16.75 2.5335 16.75 3.5C16.75 3.91421 16.4142 4.25 16 4.25C15.5858 4.25 15.25 3.91421 15.25 3.5C15.25 3.36193 15.1381 3.25 15 3.25H5.5C5.36193 3.25 5.25 3.36193 5.25 3.5V20.5C5.25 20.6381 5.36193 20.75 5.5 20.75H15C15.1381 20.75 15.25 20.6381 15.25 20.5V19.994C15.25 19.5798 15.5858 19.244 16 19.244C16.4142 19.244 16.75 19.5798 16.75 19.994V20.5C16.75 21.4665 15.9665 22.25 15 22.25H5.5C4.5335 22.25 3.75 21.4665 3.75 20.5V3.5C3.75 2.5335 4.5335 1.75 5.5 1.75H15ZM17.0303 5.96967L22.506 11.444C22.5352 11.471 22.5622 11.5003 22.5867 11.5314L22.5303 11.4697C22.8489 11.7883 22.8087 12.1787 22.6035 12.4468C22.5979 12.4538 22.5921 12.4612 22.5861 12.4685C22.5709 12.4873 22.5552 12.5049 22.5387 12.5218C22.5361 12.5245 22.5332 12.5274 22.5303 12.5303L17.0303 18.0303C16.7374 18.3232 16.2626 18.3232 15.9697 18.0303C15.6768 17.7374 15.6768 17.2626 15.9697 16.9697L20.1893 12.75H7C6.58579 12.75 6.25 12.4142 6.25 12C6.25 11.5858 6.58579 11.25 7 11.25L20.188 11.249L15.9697 7.03033C15.2626 6.32322 16.3232 5.26256 17.0303 5.96967Z" fill="#CB4B00"/>
</svg>
