<svg width="24" height="24" viewBox="0 0 24 24" fill="none" xmlns="http://www.w3.org/2000/svg">
<path fill-rule="evenodd" clip-rule="evenodd" d="M10.5 5.75C10.9142 5.75 11.25 6.08579 11.25 6.5C11.25 6.91421 10.9142 7.25 10.5 7.25H3.25V18.75H20.75V11.5C20.75 11.0858 21.0858 10.75 21.5 10.75C21.9142 10.75 22.25 11.0858 22.25 11.5V19.5C22.25 19.9142 21.9142 20.25 21.5 20.25H2.5C2.08579 20.25 1.75 19.9142 1.75 19.5V6.5C1.75 6.08579 2.08579 5.75 2.5 5.75H10.5ZM17.9697 2.96967C18.2626 2.67678 18.7374 2.67678 19.0303 2.96967L22.0303 5.96967C22.3232 6.26256 22.3232 6.73744 22.0303 7.03033L19.0303 10.0303C18.7374 10.3232 18.2626 10.3232 17.9697 10.0303C17.6768 9.73744 17.6768 9.26256 17.9697 8.96967L19.689 7.25H18.5C15.3982 7.25 12.8701 9.70602 12.7542 12.7794L12.75 13C12.75 13.4142 12.4142 13.75 12 13.75C11.5858 13.75 11.25 13.4142 11.25 13C11.25 8.99594 14.4959 5.75 18.5 5.75H19.689L17.9697 4.03033C17.7034 3.76406 17.6792 3.3474 17.8971 3.05379L17.9697 2.96967Z" fill="#CB4B00"/>
</svg>
