<svg width="24" height="24" viewBox="0 0 24 24" fill="none" xmlns="http://www.w3.org/2000/svg">
<path fill-rule="evenodd" clip-rule="evenodd" d="M19.083 4.25L12.8798 13.3724C12.7952 13.4968 12.75 13.6437 12.75 13.7941V18.5986L11.25 19.5986V13.7941C11.25 13.6437 11.2048 13.4968 11.1202 13.3724L4.91697 4.25H16.5C16.9142 4.25 17.25 3.91421 17.25 3.5C17.25 3.08579 16.9142 2.75 16.5 2.75H3.5C2.89786 2.75 2.54121 3.4238 2.8798 3.92173L9.75 14.025V21C9.75 21.599 10.4176 21.9563 10.916 21.624L13.916 19.624C14.1247 19.4849 14.25 19.2508 14.25 19V14.025L21.1202 3.92173C21.4588 3.4238 21.1021 2.75 20.5 2.75H19C18.5858 2.75 18.25 3.08579 18.25 3.5C18.25 3.91421 18.5858 4.25 19 4.25H19.083Z" fill="#CB4B00"/>
</svg>
