<svg width="24" height="24" viewBox="0 0 24 24" fill="none" xmlns="http://www.w3.org/2000/svg">
<g clip-path="url(#clip0_2_1462)">
<path d="M19.2875 6.63147C18.7906 5.45346 17.4097 4.9524 16.2849 5.50549C15.74 4.21361 14.1404 3.74826 12.9917 4.55117L11.7208 1.96953C11.4789 1.48597 11.0693 1.10914 10.5675 0.908391L8.69076 0.157737C7.56191 -0.29364 6.27609 0.257339 5.82448 1.38618C5.37301 2.51502 5.92408 3.80085 7.05292 4.25246L8.14803 4.69047L9.04478 6.52262L9.04436 12.3649C9.04436 12.8047 8.68658 13.1625 8.24679 13.1625C8.06321 13.1625 7.8634 13.0682 6.68792 12.4597C5.69325 11.9448 5.14537 11.6612 4.1182 11.6612C2.58527 11.6612 1.78882 13.1733 1.55987 14.0668C1.48997 14.3396 1.58934 14.6277 1.81251 14.7993L6.69177 18.5527C8.51449 19.9547 9.04436 20.5934 9.04436 22.1234V23.2963C9.04436 23.685 9.35945 24.0001 9.7481 24.0001H20.6326C21.0212 24.0001 21.3363 23.685 21.3363 23.2963V21.3728C21.3363 19.7122 22.4623 18.8847 22.4623 16.4935V8.61165C22.4623 6.97668 20.7403 5.91713 19.2875 6.63147ZM21.0548 16.4935C21.0548 18.5833 19.9288 19.3037 19.9288 21.3728V22.5926H10.4518V22.1234C10.4518 19.8344 9.35546 18.8259 7.54986 17.437L3.08112 13.9995C3.2625 13.6031 3.60264 13.0687 4.11815 13.0687C5.03681 13.0687 5.31239 13.3734 7.11612 14.2534C7.37453 14.3794 7.76506 14.57 8.24674 14.57C9.46262 14.57 10.4518 13.5808 10.4518 12.365L10.4522 6.35973C10.4522 6.25248 10.4277 6.14664 10.3806 6.05032L9.29302 3.82834C9.21636 3.67169 9.08419 3.5491 8.92229 3.48431L7.57566 2.94567C7.16735 2.7823 6.96801 2.31718 7.13127 1.90892C7.29463 1.50066 7.75976 1.30136 8.16807 1.46458L10.0447 2.21523C10.2263 2.28781 10.3744 2.4242 10.46 2.5952L11.9631 5.64854C12.0183 5.75879 12.0474 5.88213 12.0474 6.00524L12.047 9.3623C12.0469 9.75095 12.362 10.0661 12.7506 10.0661C13.1393 10.0661 13.4544 9.75119 13.4545 9.36249L13.4548 6.33524C13.4678 5.90676 13.8204 5.56221 14.252 5.56221C14.6918 5.56221 15.0496 5.91999 15.0496 6.35978V9.3624C15.0496 9.75105 15.3647 10.0661 15.7533 10.0661C16.1419 10.0661 16.4571 9.75105 16.4571 9.3624V7.48576C16.4571 7.04597 16.8149 6.68819 17.2546 6.68819C17.6944 6.68819 18.0522 7.04597 18.0522 7.48576V9.3624C18.0522 9.75105 18.3673 10.0661 18.7559 10.0661C19.1446 10.0661 19.4597 9.75105 19.4597 9.3624V8.61174C19.4597 8.17195 19.8175 7.81417 20.2573 7.81417C20.697 7.81417 21.0548 8.17195 21.0548 8.61174L21.0548 16.4935Z" fill="#CB4B00"/>
<path d="M2.73906 7.73877C2.46427 7.46393 2.01866 7.46393 1.74383 7.73877C1.469 8.0136 1.469 8.45916 1.74383 8.73399L3.24514 10.2353C3.51992 10.5101 3.96553 10.5102 4.24036 10.2353L5.74167 8.73399C6.0165 8.45916 6.0165 8.0136 5.74167 7.73877C5.46688 7.46393 5.02128 7.46393 4.74644 7.73877L4.44646 8.03875V5.43145L4.74644 5.73143C5.02123 6.00626 5.46684 6.00631 5.74167 5.73143C6.0165 5.45659 6.0165 5.01103 5.74167 4.7362L4.24036 3.23489C3.96558 2.96006 3.51997 2.96006 3.24514 3.23489L1.74383 4.7362C1.469 5.01103 1.469 5.45659 1.74383 5.73143C2.01862 6.00626 2.46422 6.00626 2.73906 5.73143L3.03904 5.43145V8.03875L2.73906 7.73877Z" fill="#CB4B00"/>
</g>
<defs>
<clipPath id="clip0_2_1462">
<rect width="24" height="24" fill="white"/>
</clipPath>
</defs>
</svg>
