<svg width="24" height="24" viewBox="0 0 24 24" fill="none" xmlns="http://www.w3.org/2000/svg">
<path fill-rule="evenodd" clip-rule="evenodd" d="M7 13.5C7.82843 13.5 8.5 12.8284 8.5 12C8.5 11.1716 7.82843 10.5 7 10.5C6.17157 10.5 5.5 11.1716 5.5 12C5.5 12.8284 6.17157 13.5 7 13.5ZM7 15C8.65685 15 10 13.6569 10 12C10 10.3431 8.65685 9 7 9C5.34315 9 4 10.3431 4 12C4 13.6569 5.34315 15 7 15Z" fill="#CB4B00"/>
<path fill-rule="evenodd" clip-rule="evenodd" d="M17 8.5C17.8284 8.5 18.5 7.82843 18.5 7C18.5 6.17157 17.8284 5.5 17 5.5C16.1716 5.5 15.5 6.17157 15.5 7C15.5 7.82843 16.1716 8.5 17 8.5ZM17 10C18.6569 10 20 8.65685 20 7C20 5.34315 18.6569 4 17 4C15.3431 4 14 5.34315 14 7C14 8.65685 15.3431 10 17 10Z" fill="#CB4B00"/>
<path fill-rule="evenodd" clip-rule="evenodd" d="M17 18.5C17.8284 18.5 18.5 17.8284 18.5 17C18.5 16.1716 17.8284 15.5 17 15.5C16.1716 15.5 15.5 16.1716 15.5 17C15.5 17.8284 16.1716 18.5 17 18.5ZM17 20C18.6569 20 20 18.6569 20 17C20 15.3431 18.6569 14 17 14C15.3431 14 14 15.3431 14 17C14 18.6569 15.3431 20 17 20Z" fill="#CB4B00"/>
<path fill-rule="evenodd" clip-rule="evenodd" d="M15 9L9 12L8.32918 10.6584L14.3292 7.65836L15 9Z" fill="#CB4B00"/>
<path fill-rule="evenodd" clip-rule="evenodd" d="M9 14L15 17L15.6708 15.6584L9.67082 12.6584L9 14Z" fill="#CB4B00"/>
</svg>
