<svg width="24" height="24" viewBox="0 0 24 24" fill="none" xmlns="http://www.w3.org/2000/svg">
<path fill-rule="evenodd" clip-rule="evenodd" d="M14.6516 8.2877C14.3588 8.58059 13.8839 8.58059 13.591 8.2877C13.2981 7.99481 13.2981 7.51993 13.591 7.22704L15.0052 5.81283C16.4697 4.34836 18.844 4.34836 20.3085 5.81283C21.773 7.27729 21.773 9.65166 20.3085 11.1161L16.0659 15.3588C14.6014 16.8232 12.227 16.8232 10.7626 15.3588C9.29809 13.8943 9.29809 11.5199 10.7626 10.0555C11.0554 9.76257 11.5303 9.76257 11.8232 10.0555C12.1161 10.3484 12.1161 10.8232 11.8232 11.1161C10.9445 11.9948 10.9445 13.4194 11.8232 14.2981C12.7019 15.1768 14.1265 15.1768 15.0052 14.2981L19.2478 10.0555C20.1265 9.17679 20.1265 7.75217 19.2478 6.87349C18.3692 5.99481 16.9445 5.99481 16.0659 6.87349L14.6516 8.2877ZM9.34834 15.7123C9.64124 15.4194 10.1161 15.4194 10.409 15.7123C10.7019 16.0052 10.7019 16.4801 10.409 16.773L8.99479 18.1872C7.53032 19.6517 5.15596 19.6517 3.69149 18.1872C2.22702 16.7227 2.22702 14.3484 3.69149 12.8839L7.93413 8.64125C9.3986 7.17679 11.773 7.17679 13.2374 8.64125C14.7019 10.1057 14.7019 12.4801 13.2374 13.9446C12.9445 14.2374 12.4697 14.2374 12.1768 13.9446C11.8839 13.6517 11.8839 13.1768 12.1768 12.8839C13.0555 12.0052 13.0555 10.5806 12.1768 9.70191C11.2981 8.82324 9.87347 8.82324 8.99479 9.70191L4.75215 13.9446C3.87347 14.8232 3.87347 16.2479 4.75215 17.1265C5.63083 18.0052 7.05545 18.0052 7.93413 17.1265L9.34834 15.7123Z" fill="#CB4B00"/>
</svg>
