<svg width="24" height="24" viewBox="0 0 24 24" fill="none" xmlns="http://www.w3.org/2000/svg">
<path fill-rule="evenodd" clip-rule="evenodd" d="M14.9016 8.78771C14.6088 9.08061 14.1339 9.08061 13.841 8.78771C13.5481 8.49482 13.5481 8.01995 13.841 7.72706L15.9623 5.60573C17.4268 4.14127 19.8011 4.14127 21.2656 5.60573C22.7301 7.0702 22.7301 9.44457 21.2656 10.909L17.7301 14.4446C17.4372 14.7375 16.9623 14.7375 16.6694 14.4446C16.3765 14.1517 16.3765 13.6768 16.6694 13.3839L20.2049 9.84838C21.0836 8.9697 21.0836 7.54507 20.2049 6.66639C19.3263 5.78772 17.9016 5.78772 17.023 6.66639L14.9016 8.78771ZM9.59834 16.2123C9.89124 15.9194 10.3661 15.9194 10.659 16.2123C10.9519 16.5052 10.9519 16.9801 10.659 17.273L8.53768 19.3943C7.07322 20.8588 4.69885 20.8588 3.23438 19.3943C1.76992 17.9299 1.76992 15.5555 3.23438 14.091L6.76992 10.5555C7.06281 10.2626 7.53768 10.2626 7.83058 10.5555C8.12347 10.8484 8.12347 11.3232 7.83058 11.6161L4.29504 15.1517C3.41636 16.0304 3.41636 17.455 4.29504 18.3337C5.17372 19.2123 6.59834 19.2123 7.47702 18.3337L9.59834 16.2123ZM6.94669 8.25739C6.6538 7.96449 6.6538 7.48962 6.94669 7.19672C7.23959 6.90383 7.71446 6.90383 8.00735 7.19672L17.5533 16.7427C17.8462 17.0356 17.8462 17.5104 17.5533 17.8033C17.2604 18.0962 16.7855 18.0962 16.4926 17.8033L6.94669 8.25739Z" fill="#CB4B00"/>
</svg>
