<svg width="24" height="24" viewBox="0 0 24 24" fill="none" xmlns="http://www.w3.org/2000/svg">
<path fill-rule="evenodd" clip-rule="evenodd" d="M18 10.25C18.4142 10.25 18.75 10.5858 18.75 11V12C18.75 15.4752 16.1238 18.337 12.7477 18.7091C12.7496 18.7217 12.75 18.7358 12.75 18.75V21.75H16C16.4142 21.75 16.75 22.0858 16.75 22.5C16.75 22.9142 16.4142 23.25 16 23.25H8C7.58579 23.25 7.25 22.9142 7.25 22.5C7.25 22.0858 7.58579 21.75 8 21.75H11.25V18.75L11.2523 18.7091C7.87623 18.337 5.25 15.4752 5.25 12V11C5.25 10.5858 5.58579 10.25 6 10.25C6.41421 10.25 6.75 10.5858 6.75 11V12C6.75 14.8995 9.10051 17.25 12 17.25C14.8995 17.25 17.25 14.8995 17.25 12V11C17.25 10.5858 17.5858 10.25 18 10.25ZM12 0.75C13.7949 0.75 15.25 2.20507 15.25 4V12C15.25 13.7949 13.7949 15.25 12 15.25C10.2051 15.25 8.75 13.7949 8.75 12V6.96C8.75 6.54579 9.08579 6.21 9.5 6.21C9.91421 6.21 10.25 6.54579 10.25 6.96V12C10.25 12.9665 11.0335 13.75 12 13.75C12.9665 13.75 13.75 12.9665 13.75 12V4C13.75 3.0335 12.9665 2.25 12 2.25C11.0335 2.25 10.25 3.0335 10.25 4V4.1C10.25 4.51421 9.91421 4.85 9.5 4.85C9.08579 4.85 8.75 4.51421 8.75 4.1V4C8.75 2.20507 10.2051 0.75 12 0.75Z" fill="#CB4B00"/>
</svg>
