<svg width="24" height="24" viewBox="0 0 24 24" fill="none" xmlns="http://www.w3.org/2000/svg">
<path fill-rule="evenodd" clip-rule="evenodd" d="M6 13C6.55228 13 7 12.5523 7 12C7 11.4477 6.55228 11 6 11C5.44772 11 5 11.4477 5 12C5 12.5523 5.44772 13 6 13ZM6 14.5C7.38071 14.5 8.5 13.3807 8.5 12C8.5 10.6193 7.38071 9.5 6 9.5C4.61929 9.5 3.5 10.6193 3.5 12C3.5 13.3807 4.61929 14.5 6 14.5Z" fill="#CB4B00"/>
<path fill-rule="evenodd" clip-rule="evenodd" d="M12 13C12.5523 13 13 12.5523 13 12C13 11.4477 12.5523 11 12 11C11.4477 11 11 11.4477 11 12C11 12.5523 11.4477 13 12 13ZM12 14.5C13.3807 14.5 14.5 13.3807 14.5 12C14.5 10.6193 13.3807 9.5 12 9.5C10.6193 9.5 9.5 10.6193 9.5 12C9.5 13.3807 10.6193 14.5 12 14.5Z" fill="#CB4B00"/>
<path fill-rule="evenodd" clip-rule="evenodd" d="M18 13C18.5523 13 19 12.5523 19 12C19 11.4477 18.5523 11 18 11C17.4477 11 17 11.4477 17 12C17 12.5523 17.4477 13 18 13ZM18 14.5C19.3807 14.5 20.5 13.3807 20.5 12C20.5 10.6193 19.3807 9.5 18 9.5C16.6193 9.5 15.5 10.6193 15.5 12C15.5 13.3807 16.6193 14.5 18 14.5Z" fill="#CB4B00"/>
</svg>
