<svg width="24" height="24" viewBox="0 0 24 24" fill="none" xmlns="http://www.w3.org/2000/svg">
<path d="M8.75 4.25145V6.50145C8.75 6.91567 9.08579 7.25145 9.5 7.25145H12C16.8325 7.25145 20.75 11.169 20.75 16.0015V17.5015C20.75 17.9157 21.0858 18.2515 21.5 18.2515C21.9142 18.2515 22.25 17.9157 22.25 17.5015V16.0015C22.25 10.3405 17.6609 5.75145 12 5.75145H10.25V2.00145C10.25 1.2807 9.33245 0.974847 8.9 1.55145L1.4 11.5515C1.2 11.8181 1.2 12.1848 1.4 12.4515L8.9 22.4515C9.33245 23.0281 10.25 22.7222 10.25 22.0015V18.2515H18.4806C18.8948 18.2515 19.2306 17.9157 19.2306 17.5015C19.2306 17.0872 18.8948 16.7515 18.4806 16.7515H9.5C9.08579 16.7515 8.75 17.0872 8.75 17.5015V19.7515L2.9375 12.0015L8.75 4.25145Z" fill="#CB4B00"/>
</svg>
