<svg width="24" height="24" viewBox="0 0 24 24" fill="none" xmlns="http://www.w3.org/2000/svg">
<path fill-rule="evenodd" clip-rule="evenodd" d="M15.25 4.25145V6.50145C15.25 6.91567 14.9142 7.25145 14.5 7.25145H12C7.16751 7.25145 3.25 11.169 3.25 16.0015V17.5015C3.25 17.9157 2.91421 18.2515 2.5 18.2515C2.08579 18.2515 1.75 17.9157 1.75 17.5015V16.0015C1.75 10.3405 6.33908 5.75145 12 5.75145H13.75V2.00145C13.75 1.2807 14.6675 0.974847 15.1 1.55145L22.6 11.5515C22.8 11.8181 22.8 12.1848 22.6 12.4515L15.1 22.4515C14.6675 23.0281 13.75 22.7222 13.75 22.0015V18.2515H5.5194C5.10518 18.2515 4.7694 17.9157 4.7694 17.5015C4.7694 17.0872 5.10518 16.7515 5.5194 16.7515H14.5C14.9142 16.7515 15.25 17.0872 15.25 17.5015V19.7515L21.0625 12.0015L15.25 4.25145Z" fill="#CB4B00"/>
</svg>
