<svg width="24" height="24" viewBox="0 0 24 24" fill="none" xmlns="http://www.w3.org/2000/svg">
<g clip-path="url(#clip0_2_1651)">
<path fill-rule="evenodd" clip-rule="evenodd" d="M12.591 0.530339L23.591 11.5303C23.8839 11.8232 23.8839 12.2981 23.591 12.591L12.591 23.591C12.2981 23.8839 11.8232 23.8839 11.5303 23.591L0.530339 12.591C0.237446 12.2981 0.237446 11.8232 0.530339 11.5303L5.03167 7.02901C5.32456 6.73612 5.79943 6.73612 6.09233 7.02901C6.38522 7.3219 6.38522 7.79678 6.09233 8.08967L2.12133 12.0607L12.0607 22L22 12.0607L12.0607 2.12133L8.091 6.091C7.79811 6.38389 7.32323 6.38389 7.03034 6.091C6.73745 5.79811 6.73745 5.32323 7.03034 5.03034L11.5303 0.530339C11.8232 0.237446 12.2981 0.237446 12.591 0.530339ZM13.7912 7.98072L15.7908 10.0645C16.0777 10.3635 16.0678 10.8385 15.7687 11.1252L13.769 13.0424C13.47 13.329 12.9953 13.319 12.7086 13.02C12.422 12.721 12.432 12.2462 12.731 11.9596L13.4707 11.2497L11.2507 11.2507V15.0607C11.2507 15.4749 10.9149 15.8107 10.5007 15.8107C10.0865 15.8107 9.75067 15.4749 9.75067 15.0607V10.5007C9.75067 10.0865 10.0865 9.75067 10.5007 9.75067L13.4097 9.74967L12.7089 9.0193C12.4221 8.72044 12.4319 8.24566 12.7307 7.95887C13.0296 7.67207 13.5044 7.68185 13.7912 7.98072Z" fill="#CB4B00"/>
</g>
<defs>
<clipPath id="clip0_2_1651">
<rect width="24" height="24" fill="white"/>
</clipPath>
</defs>
</svg>
