<svg width="24" height="24" viewBox="0 0 24 24" fill="none" xmlns="http://www.w3.org/2000/svg">
<path d="M21.5 8.25C21.9142 8.25 22.25 8.58579 22.25 9V22C22.25 22.4142 21.9142 22.75 21.5 22.75H9.5C9.08579 22.75 8.75 22.4142 8.75 22V9C8.75 8.58579 9.08579 8.25 9.5 8.25H21.5ZM20.75 9.75H10.25V21.25H20.75V9.75ZM4.42709 3.25C4.84131 3.25 5.17709 3.58579 5.17709 4C5.17709 4.41421 4.84131 4.75 4.42709 4.75H3.5C3.36193 4.75 3.25 4.86193 3.25 5V19C3.25 19.1381 3.36193 19.25 3.5 19.25H7.5C7.91421 19.25 8.25 19.5858 8.25 20C8.25 20.4142 7.91421 20.75 7.5 20.75H3.5C2.5335 20.75 1.75 19.9665 1.75 19V5C1.75 4.0335 2.5335 3.25 3.5 3.25H4.42709ZM18.5 17.25C18.9142 17.25 19.25 17.5858 19.25 18C19.25 18.4142 18.9142 18.75 18.5 18.75H12.5C12.0858 18.75 11.75 18.4142 11.75 18C11.75 17.5858 12.0858 17.25 12.5 17.25H18.5ZM18.5 14.25C18.9142 14.25 19.25 14.5858 19.25 15C19.25 15.4142 18.9142 15.75 18.5 15.75H12.5C12.0858 15.75 11.75 15.4142 11.75 15C11.75 14.5858 12.0858 14.25 12.5 14.25H18.5ZM18.5 11.25C18.9142 11.25 19.25 11.5858 19.25 12C19.25 12.4142 18.9142 12.75 18.5 12.75H12.5C12.0858 12.75 11.75 12.4142 11.75 12C11.75 11.5858 12.0858 11.25 12.5 11.25H18.5ZM17.5 3.25C18.4665 3.25 19.25 4.0335 19.25 5V7C19.25 7.41421 18.9142 7.75 18.5 7.75C18.0858 7.75 17.75 7.41421 17.75 7V5C17.75 4.86193 17.6381 4.75 17.5 4.75H16.5C16.0858 4.75 15.75 4.41421 15.75 4C15.75 3.58579 16.0858 3.25 16.5 3.25H17.5ZM13.2192 1.25C14.1857 1.25 14.9692 2.0335 14.9692 3C14.9692 3.14308 14.9517 3.28563 14.917 3.42444L14.417 5.42444C14.2222 6.20348 13.5222 6.75 12.7192 6.75H8.28078C7.47776 6.75 6.77779 6.20348 6.58303 5.42444L6.08303 3.42444C5.84862 2.4868 6.4187 1.53666 7.35634 1.30225C7.49515 1.26755 7.63769 1.25 7.78078 1.25H13.2192ZM13.2192 2.75H7.78078C7.76034 2.75 7.73997 2.75251 7.72014 2.75746C7.58619 2.79095 7.50475 2.92669 7.53824 3.06063L8.03824 5.06063C8.06606 5.17193 8.16606 5.25 8.28078 5.25H12.7192C12.8339 5.25 12.9339 5.17193 12.9618 5.06063L13.4618 3.06063C13.4667 3.0408 13.4692 3.02044 13.4692 3C13.4692 2.86193 13.3573 2.75 13.2192 2.75Z" fill="#CB4B00"/>
</svg>
