<svg width="24" height="24" viewBox="0 0 24 24" fill="none" xmlns="http://www.w3.org/2000/svg">
<path d="M13.5 2.25C13.6989 2.25 13.8897 2.32902 14.0303 2.46967L19.0303 7.46967C19.171 7.61032 19.25 7.80109 19.25 8V17.9685C19.25 18.3827 18.9142 18.7185 18.5 18.7185C18.0858 18.7185 17.75 18.3827 17.75 17.9685V8.749L13.5 8.75C13.0858 8.75 12.75 8.41421 12.75 8V3.749L6.25 3.75V20.25H15.5C15.9142 20.25 16.25 20.5858 16.25 21C16.25 21.4142 15.9142 21.75 15.5 21.75H5.5C5.08579 21.75 4.75 21.4142 4.75 21V3C4.75 2.58579 5.08579 2.25 5.5 2.25H13.5ZM12.5 10.75C14.8472 10.75 16.75 12.6528 16.75 15C16.75 15.9028 16.4685 16.7398 15.9885 17.4281L18.5303 19.9697C18.8232 20.2626 18.8232 20.7374 18.5303 21.0303C18.2374 21.3232 17.7626 21.3232 17.4697 21.0303L14.9281 18.4885C14.2398 18.9685 13.4028 19.25 12.5 19.25C10.1528 19.25 8.25 17.3472 8.25 15C8.25 12.6528 10.1528 10.75 12.5 10.75ZM12.5 12.25C10.9812 12.25 9.75 13.4812 9.75 15C9.75 16.5188 10.9812 17.75 12.5 17.75C14.0188 17.75 15.25 16.5188 15.25 15C15.25 13.4812 14.0188 12.25 12.5 12.25ZM14.25 4.81V7.25L16.689 7.249L14.25 4.81Z" fill="#CB4B00"/>
</svg>
