<svg width="24" height="24" viewBox="0 0 24 24" fill="none" xmlns="http://www.w3.org/2000/svg">
<path fill-rule="evenodd" clip-rule="evenodd" d="M12.5 1.25L12.5174 1.2502C12.5375 1.25066 12.5575 1.25192 12.5774 1.25398L12.5 1.25C12.5468 1.25 12.5927 1.25429 12.6372 1.26251C12.648 1.26458 12.6597 1.26701 12.6714 1.26973C12.6948 1.27517 12.7173 1.28158 12.7393 1.28898C12.7491 1.2923 12.7595 1.29603 12.7698 1.29999C12.7891 1.30745 12.8075 1.31544 12.8255 1.32414C12.84 1.33106 12.8546 1.3387 12.869 1.34686C12.8865 1.35681 12.9037 1.36746 12.9203 1.37876C12.9307 1.38569 12.9411 1.39318 12.9514 1.40097C12.9539 1.40285 12.9561 1.40456 12.9583 1.40627L13.0303 1.46967L19.0303 7.46967C19.0549 7.49427 19.0778 7.52057 19.0988 7.54838L19.0303 7.46967C19.0648 7.50411 19.0952 7.54107 19.1215 7.57995C19.1325 7.59634 19.1432 7.61349 19.1531 7.63108C19.1613 7.64538 19.1689 7.66001 19.1761 7.67483C19.1846 7.69249 19.1926 7.71091 19.1998 7.72969C19.204 7.74054 19.2077 7.75091 19.2112 7.76134C19.2184 7.78272 19.2248 7.80517 19.2302 7.82803C19.233 7.84027 19.2354 7.85197 19.2376 7.8637C19.2413 7.88322 19.2442 7.90388 19.2463 7.9248C19.2478 7.9409 19.2489 7.95624 19.2495 7.97159C19.2498 7.98042 19.25 7.99019 19.25 8V9.25H21C21.9665 9.25 22.75 10.0335 22.75 11V21C22.75 21.9665 21.9665 22.75 21 22.75H3C2.0335 22.75 1.25 21.9665 1.25 21V10C1.25 9.58579 1.58579 9.25 2 9.25C2.41421 9.25 2.75 9.58579 2.75 10V21C2.75 21.1381 2.86193 21.25 3 21.25H21C21.1381 21.25 21.25 21.1381 21.25 21V11C21.25 10.8619 21.1381 10.75 21 10.75H19.25V14C19.25 14.4142 18.9142 14.75 18.5 14.75H5.5C5.08579 14.75 4.75 14.4142 4.75 14V6C4.75 5.58579 5.08579 5.25 5.5 5.25C5.91421 5.25 6.25 5.58579 6.25 6V13.25H17.75V8.75H12.5C12.0858 8.75 11.75 8.41421 11.75 8V2.75H5.5C5.08579 2.75 4.75 2.41421 4.75 2C4.75 1.58579 5.08579 1.25 5.5 1.25H12.5ZM18 17.25C18.4142 17.25 18.75 17.5858 18.75 18C18.75 18.4142 18.4142 18.75 18 18.75H6C5.58579 18.75 5.25 18.4142 5.25 18C5.25 17.5858 5.58579 17.25 6 17.25H18ZM16.689 7.25L13.25 3.811V7.25H16.689Z" fill="#CB4B00"/>
</svg>
