<svg width="24" height="24" viewBox="0 0 24 24" fill="none" xmlns="http://www.w3.org/2000/svg">
<path fill-rule="evenodd" clip-rule="evenodd" d="M12.5303 10.4697L18.5303 16.4697C18.8232 16.7626 18.8232 17.2374 18.5303 17.5303C18.2374 17.8232 17.7626 17.8232 17.4697 17.5303L12 12.0607L6.53033 17.5303C6.23744 17.8232 5.76256 17.8232 5.46967 17.5303C5.17678 17.2374 5.17678 16.7626 5.46967 16.4697L11.4697 10.4697C11.7626 10.1768 12.2374 10.1768 12.5303 10.4697ZM18 6.75C18.4142 6.75 18.75 7.08579 18.75 7.5C18.75 7.91421 18.4142 8.25 18 8.25H6C5.58579 8.25 5.25 7.91421 5.25 7.5C5.25 7.08579 5.58579 6.75 6 6.75H18Z" fill="#CB4B00"/>
</svg>
