<svg width="24" height="24" viewBox="0 0 24 24" fill="none" xmlns="http://www.w3.org/2000/svg">
<path fill-rule="evenodd" clip-rule="evenodd" d="M12.2803 13.5303L18.2803 7.53033C18.5732 7.23744 18.5732 6.76256 18.2803 6.46967C17.9874 6.17678 17.5126 6.17678 17.2197 6.46967L11.75 11.9393L6.28033 6.46967C5.98744 6.17678 5.51256 6.17678 5.21967 6.46967C4.92678 6.76256 4.92678 7.23744 5.21967 7.53033L11.2197 13.5303C11.5126 13.8232 11.9874 13.8232 12.2803 13.5303ZM17.75 17.25C18.1642 17.25 18.5 16.9142 18.5 16.5C18.5 16.0858 18.1642 15.75 17.75 15.75H5.75C5.33579 15.75 5 16.0858 5 16.5C5 16.9142 5.33579 17.25 5.75 17.25H17.75Z" fill="#CB4B00"/>
</svg>
