<svg width="24" height="24" viewBox="0 0 24 24" fill="none" xmlns="http://www.w3.org/2000/svg">
<path fill-rule="evenodd" clip-rule="evenodd" d="M3.5 8.75L3.51745 8.7502L3.55231 8.75182C3.56203 8.75249 3.57173 8.75335 3.58141 8.75441L3.5 8.75C3.54685 8.75 3.59269 8.75429 3.63716 8.76251C3.64803 8.76458 3.65973 8.76701 3.67137 8.76973C3.69483 8.77517 3.71728 8.78158 3.73928 8.78898C3.74909 8.7923 3.75946 8.79603 3.76975 8.79999C3.77757 8.803 3.78478 8.80591 3.79193 8.80894L3.82119 8.82203L3.85471 8.83896C3.85951 8.84154 3.86429 8.84417 3.86905 8.84686C3.88651 8.85681 3.90366 8.86746 3.92033 8.87876C3.93066 8.88569 3.94113 8.89318 3.95144 8.90097C3.95386 8.90285 3.95608 8.90456 3.9583 8.90627L4.03033 8.96967L6.53033 11.4697C6.82322 11.7626 6.82322 12.2374 6.53033 12.5303C6.23744 12.8232 5.76256 12.8232 5.46967 12.5303L4.25 11.311V12C4.25 16.2802 7.71979 19.75 12 19.75C13.8633 19.75 15.6229 19.0912 17.0137 17.91C17.3295 17.6418 17.8028 17.6804 18.0709 17.9961C18.339 18.3118 18.3005 18.7851 17.9847 19.0533C16.3252 20.4626 14.2224 21.25 12 21.25C6.89137 21.25 2.75 17.1086 2.75 12V11.31L1.53033 12.5303C1.23744 12.8232 0.762563 12.8232 0.46967 12.5303C0.176777 12.2374 0.176777 11.7626 0.46967 11.4697L2.96967 8.96967L3.0417 8.90627C3.04392 8.90456 3.04614 8.90286 3.04838 8.90117L2.96967 8.96967C3.00411 8.93523 3.04107 8.90484 3.07995 8.8785C3.09634 8.86746 3.11349 8.85681 3.13108 8.84686C3.13571 8.84417 3.14049 8.84154 3.14529 8.83896L3.17849 8.82221C3.19523 8.81426 3.2123 8.80691 3.22969 8.80019C3.24054 8.79603 3.25091 8.7923 3.26134 8.78881C3.28272 8.78158 3.30517 8.77517 3.32803 8.76981C3.34027 8.76701 3.35197 8.76458 3.3637 8.76242C3.37455 8.76035 3.38634 8.75846 3.39823 8.75685L3.41859 8.75441C3.42827 8.75335 3.43797 8.75249 3.44769 8.75182L3.48279 8.75019C3.48851 8.75006 3.49425 8.75 3.5 8.75ZM12 2.75C17.1086 2.75 21.25 6.89137 21.25 12L21.249 12.189L22.4697 10.9697C22.7626 10.6768 23.2374 10.6768 23.5303 10.9697C23.8232 11.2626 23.8232 11.7374 23.5303 12.0303L21.0303 14.5303C20.9238 14.6368 20.7933 14.7046 20.6561 14.7337L20.5523 14.7482H20.4477C20.2735 14.7361 20.1028 14.6635 19.9697 14.5303L17.4697 12.0303C17.1768 11.7374 17.1768 11.2626 17.4697 10.9697C17.7626 10.6768 18.2374 10.6768 18.5303 10.9697L19.749 12.188L19.75 12C19.75 7.71979 16.2802 4.25 12 4.25C10.1477 4.25 8.39781 4.90103 7.01051 6.06953C6.6937 6.33638 6.22056 6.29587 5.95371 5.97906C5.68687 5.66226 5.72738 5.18911 6.04418 4.92227C7.69949 3.52803 9.79079 2.75 12 2.75Z" fill="#CB4B00"/>
</svg>
