<svg width="24" height="24" viewBox="0 0 24 24" fill="none" xmlns="http://www.w3.org/2000/svg">
<path fill-rule="evenodd" clip-rule="evenodd" d="M21.5 5.25C21.9142 5.25 22.25 5.58579 22.25 6V19C22.25 19.4142 21.9142 19.75 21.5 19.75H19.5C19.0858 19.75 18.75 19.4142 18.75 19C18.75 18.5858 19.0858 18.25 19.5 18.25H20.75V6.75H19.5353C19.1211 6.75 18.7853 6.41421 18.7853 6C18.7853 5.58579 19.1211 5.25 19.5353 5.25H21.5ZM4.46467 5.25C4.87888 5.25 5.21467 5.58579 5.21467 6C5.21467 6.41421 4.87888 6.75 4.46467 6.75H3.25V18.25H4.5C4.91421 18.25 5.25 18.5858 5.25 19C5.25 19.4142 4.91421 19.75 4.5 19.75H2.5C2.08579 19.75 1.75 19.4142 1.75 19V6C1.75 5.58579 2.08579 5.25 2.5 5.25H4.46467ZM7 8.5C7.55228 8.5 8 8.94772 8 9.5V15.5C8 16.0523 7.55228 16.5 7 16.5H6C5.44772 16.5 5 16.0523 5 15.5V9.5C5 8.94772 5.44772 8.5 6 8.5H7ZM12 8.5C12.5523 8.5 13 8.94772 13 9.5V15.5C13 16.0523 12.5523 16.5 12 16.5C11.4477 16.5 11 16.0523 11 15.5V9.5C11 8.94772 11.4477 8.5 12 8.5ZM16.5 8.5C16.7761 8.5 17 8.72386 17 9V16C17 16.2761 16.7761 16.5 16.5 16.5C16.2239 16.5 16 16.2761 16 16V9C16 8.72386 16.2239 8.5 16.5 8.5ZM18.5 8.5C18.7761 8.5 19 8.72386 19 9V16C19 16.2761 18.7761 16.5 18.5 16.5C18.2239 16.5 18 16.2761 18 16V9C18 8.72386 18.2239 8.5 18.5 8.5ZM14.5 8.5C14.7761 8.5 15 8.72386 15 9V16C15 16.2761 14.7761 16.5 14.5 16.5C14.2239 16.5 14 16.2761 14 16V9C14 8.72386 14.2239 8.5 14.5 8.5ZM9.5 8.5C9.77614 8.5 10 8.72386 10 9V16C10 16.2761 9.77614 16.5 9.5 16.5C9.22386 16.5 9 16.2761 9 16V9C9 8.72386 9.22386 8.5 9.5 8.5Z" fill="#CB4B00"/>
</svg>
