<svg width="24" height="24" viewBox="0 0 24 24" fill="none" xmlns="http://www.w3.org/2000/svg">
<path fill-rule="evenodd" clip-rule="evenodd" d="M16.7803 15.7197L22.2803 21.2197C22.5732 21.5126 22.5732 21.9874 22.2803 22.2803C21.9874 22.5732 21.5126 22.5732 21.2197 22.2803L15.7197 16.7803C15.4268 16.4874 15.4268 16.0126 15.7197 15.7197C16.0126 15.4268 16.4874 15.4268 16.7803 15.7197ZM9.75 2C14.0302 2 17.5 5.46979 17.5 9.75C17.5 14.0302 14.0302 17.5 9.75 17.5C5.46979 17.5 2 14.0302 2 9.75C2 5.46979 5.46979 2 9.75 2ZM9.75 3.5C6.29822 3.5 3.5 6.29822 3.5 9.75C3.5 13.2018 6.29822 16 9.75 16C13.2018 16 16 13.2018 16 9.75C16 6.29822 13.2018 3.5 9.75 3.5Z" fill="#CB4B00"/>
</svg>
