<svg width="24" height="24" viewBox="0 0 24 24" fill="none" xmlns="http://www.w3.org/2000/svg">
<path fill-rule="evenodd" clip-rule="evenodd" d="M17.2412 2.69063C17.5999 2.89774 17.7228 3.35643 17.5157 3.71515L16.7091 5.10978C18.9911 6.17386 21.293 8.44519 22.6839 11.532L22.6957 11.5596C22.7027 11.5772 22.7092 11.595 22.7149 11.6131L22.6839 11.532C22.7029 11.5742 22.7177 11.6172 22.7285 11.6606C22.7324 11.6769 22.7359 11.6937 22.7389 11.7107C22.7423 11.729 22.7448 11.7474 22.7467 11.7657C22.7477 11.7769 22.7486 11.7886 22.7492 11.8003C22.7506 11.8243 22.7507 11.8479 22.7497 11.8715C22.7494 11.8799 22.7488 11.8886 22.7482 11.8973C22.7467 11.9159 22.7446 11.9342 22.7418 11.9525C22.7393 11.9702 22.7359 11.9879 22.7319 12.0056C22.7294 12.0161 22.7267 12.0269 22.7237 12.0376C22.711 12.0845 22.6935 12.1307 22.671 12.1757L22.7052 12.0959C22.6988 12.1136 22.6917 12.131 22.684 12.1481L22.671 12.1757C20.2173 17.0832 16.6356 19.5903 12.0002 19.5903C10.809 19.5903 9.68744 19.4248 8.63672 19.0955L7.5157 21.0357C7.3086 21.3944 6.8499 21.5173 6.49118 21.3102C6.13246 21.1031 6.00956 20.6444 6.21666 20.2857L7.22696 18.5349C4.83335 17.3684 2.86147 15.24 1.32934 12.1757L1.32472 12.1662C1.31518 12.1465 1.30652 12.1263 1.29876 12.1058C1.23561 11.9399 1.23548 11.7626 1.28864 11.6031C1.29756 11.5765 1.30629 11.5544 1.31616 11.5325C1.31917 11.5259 1.3219 11.5201 1.32472 11.5142L1.32934 11.5047C3.78306 6.59729 7.36469 4.09015 12.0002 4.09015C12.2102 4.09015 12.4272 4.09846 12.6514 4.11499C13.0645 4.14546 13.3747 4.50504 13.3442 4.91813C13.3138 5.33122 12.9542 5.6414 12.5411 5.61093C12.3529 5.59705 12.1726 5.59015 12.0002 5.59015C8.07232 5.59015 5.04275 7.64035 2.84293 11.8396C4.22305 14.4754 5.92977 16.264 7.98001 17.2312L16.2167 2.96515C16.4238 2.60643 16.8825 2.48353 17.2412 2.69063ZM15.9562 6.41481L11.0334 14.9438C12.4529 15.3874 14.04 14.807 14.8147 13.4652C15.2937 12.6356 15.378 11.658 15.0691 10.7705C14.933 10.3793 15.1398 9.95177 15.531 9.81565C15.9222 9.67953 16.3497 9.88633 16.4858 10.2775C16.9364 11.5726 16.813 13.004 16.1138 14.2152C14.9235 16.2767 12.4213 17.1085 10.2706 16.2648L9.40825 17.7574C10.2243 17.9798 11.088 18.0903 12.0002 18.0903C16.0314 18.0903 19.1164 15.9308 21.3293 11.5049L21.165 11.824C19.8838 9.17539 17.8692 7.26294 15.9562 6.41481Z" fill="#CB4B00"/>
</svg>
