<svg width="24" height="24" viewBox="0 0 24 24" fill="none" xmlns="http://www.w3.org/2000/svg">
<path fill-rule="evenodd" clip-rule="evenodd" d="M12 4.25C12.21 4.25 12.4271 4.25831 12.6513 4.27484C13.0644 4.30531 13.3745 4.66489 13.3441 5.07798C13.3136 5.49107 12.954 5.80125 12.5409 5.77078C12.3528 5.7569 12.1724 5.75 12 5.75C8.07217 5.75 5.0426 7.8002 2.84278 11.9994L2.67083 11.6648C4.88378 16.0906 7.96881 18.2502 12 18.2502C15.9328 18.2502 18.965 16.1948 21.1655 11.9849C19.7618 9.08207 17.476 7.06255 15.4087 6.36013C15.0165 6.22687 14.8066 5.80091 14.9399 5.40872C15.0731 5.01652 15.4991 4.80661 15.8913 4.93987C18.4264 5.80125 21.1262 8.23527 22.6838 11.6919C22.6884 11.702 22.6927 11.7123 22.6968 11.7225L22.7066 11.7488L22.7157 11.7758C22.7201 11.7894 22.724 11.8034 22.7276 11.8174C22.7318 11.835 22.7356 11.8527 22.7388 11.8705C22.7422 11.8889 22.7447 11.9072 22.7465 11.9255C22.7475 11.9368 22.7484 11.9485 22.7491 11.9602C22.7504 11.9841 22.7505 12.0078 22.7495 12.0313C22.7492 12.0397 22.7487 12.0484 22.748 12.0571C22.7466 12.0755 22.7445 12.0936 22.7417 12.1116C22.7391 12.13 22.7356 12.1488 22.7313 12.1674L22.7253 12.1911C22.7198 12.2124 22.7131 12.2341 22.7052 12.2557C22.6986 12.2735 22.6916 12.2909 22.6839 12.308L22.6708 12.3356C20.2171 17.243 16.6355 19.7502 12 19.7502C7.36455 19.7502 3.78291 17.243 1.32919 12.3356L1.32285 12.321L1.28519 12.2275C1.23849 12.0813 1.23916 11.9283 1.28076 11.7876L1.30201 11.7255L1.31685 11.691L1.32485 11.672L1.32919 11.6646C3.78291 6.75714 7.36455 4.25 12 4.25ZM12 7.22C14.6399 7.22 16.78 9.36008 16.78 12C16.78 14.6399 14.6399 16.78 12 16.78C11.4566 16.78 10.9245 16.689 10.421 16.5128C10.0143 16.3705 9.80005 15.9256 9.94232 15.519C10.0846 15.1124 10.5295 14.8981 10.9361 15.0403C11.2746 15.1588 11.6326 15.22 12 15.22C13.7784 15.22 15.22 13.7784 15.22 12C15.22 10.2216 13.7784 8.78 12 8.78C10.2217 8.78 8.78001 10.2216 8.78001 12C8.78001 12.5383 8.91163 13.0559 9.15985 13.5189C9.36341 13.8985 9.22066 14.3713 8.84101 14.5749C8.46136 14.7784 7.98857 14.6357 7.78501 14.256C7.41597 13.5677 7.22001 12.7971 7.22001 12C7.22001 9.36008 9.36009 7.22 12 7.22ZM2.67083 11.6648V12.3354L2.84185 12L2.67083 11.6648ZM1.29862 12.2656L1.32285 12.321L1.32485 12.327L1.31284 12.3005C1.30776 12.2889 1.30304 12.2773 1.29862 12.2656ZM1.32385 11.674L1.31685 11.691L1.30885 11.707L1.32385 11.674Z" fill="#CB4B00"/>
</svg>
