<svg width="24" height="24" viewBox="0 0 24 24" fill="none" xmlns="http://www.w3.org/2000/svg">
<path d="M12.663 4.189C12.366 4.189 12.125 4.494 12.125 4.871C12.125 5.248 12.365 5.554 12.663 5.554L22.696 5.554C22.993 5.554 23.234 5.248 23.234 4.871C23.234 4.494 22.994 4.189 22.696 4.189L12.663 4.189ZM10.759 11.189C10.409 11.189 10.125 11.494 10.125 11.871C10.125 12.248 10.409 12.554 10.759 12.554L22.6 12.554C22.951 12.554 23.235 12.248 23.235 11.871C23.235 11.494 22.951 11.189 22.601 11.189H10.76H10.759ZM10.759 18.189C10.409 18.189 10.125 18.494 10.125 18.871C10.125 19.248 10.409 19.554 10.759 19.554H22.6C22.951 19.554 23.235 19.248 23.235 18.871C23.235 18.494 22.951 18.189 22.601 18.189H10.76H10.759ZM6.143 6.31L8.903 9.024C9.133 9.249 9.504 9.249 9.733 9.024C9.78743 8.9709 9.83068 8.90744 9.86022 8.83737C9.88975 8.7673 9.90496 8.69203 9.90496 8.616C9.90496 8.53996 9.88975 8.46469 9.86022 8.39462C9.83068 8.32455 9.78743 8.26109 9.733 8.208L5.822 4.363C5.71104 4.25464 5.5621 4.19398 5.407 4.19398C5.25191 4.19398 5.10297 4.25464 4.992 4.363L1.079 8.209C1.02458 8.26209 0.981322 8.32555 0.95179 8.39562C0.922258 8.46569 0.907043 8.54096 0.907043 8.617C0.907043 8.69303 0.922258 8.7683 0.95179 8.83837C0.981322 8.90844 1.02458 8.9719 1.079 9.025C1.308 9.25 1.679 9.25 1.909 9.025L4.779 6.205L4.779 18.861C4.78576 19.0375 4.86062 19.2045 4.98788 19.327C5.11513 19.4494 5.28488 19.5179 5.4615 19.5179C5.63812 19.5179 5.80787 19.4494 5.93513 19.327C6.06238 19.2045 6.13725 19.0375 6.144 18.861L6.144 6.31H6.143Z" fill="#CB4B00"/>
</svg>
