<svg width="24" height="24" viewBox="0 0 24 24" fill="none" xmlns="http://www.w3.org/2000/svg">
<path d="M12.663 19.554C12.366 19.554 12.125 19.249 12.125 18.872C12.125 18.495 12.365 18.189 12.663 18.189H22.696C22.993 18.189 23.234 18.495 23.234 18.872C23.234 19.249 22.994 19.554 22.696 19.554H12.663ZM10.759 12.554C10.409 12.554 10.125 12.249 10.125 11.872C10.125 11.495 10.409 11.189 10.759 11.189L22.6 11.189C22.951 11.189 23.235 11.495 23.235 11.872C23.235 12.249 22.951 12.554 22.601 12.554H10.76H10.759ZM10.759 5.55402C10.409 5.55402 10.125 5.24902 10.125 4.87202C10.125 4.49502 10.409 4.18902 10.759 4.18902L22.6 4.18902C22.951 4.18902 23.235 4.49502 23.235 4.87202C23.235 5.24902 22.951 5.55402 22.601 5.55402L10.76 5.55402H10.759ZM6.143 17.433L8.903 14.719C9.133 14.494 9.504 14.494 9.733 14.719C9.78743 14.7721 9.83068 14.8356 9.86022 14.9056C9.88975 14.9757 9.90496 15.051 9.90496 15.127C9.90496 15.2031 9.88975 15.2783 9.86022 15.3484C9.83068 15.4185 9.78743 15.4819 9.733 15.535L5.822 19.38C5.71104 19.4884 5.5621 19.549 5.407 19.549C5.25191 19.549 5.10297 19.4884 4.992 19.38L1.079 15.534C1.02458 15.4809 0.981322 15.4175 0.95179 15.3474C0.922258 15.2773 0.907043 15.2021 0.907043 15.126C0.907043 15.05 0.922258 14.9747 0.95179 14.9046C0.981322 14.8346 1.02458 14.7711 1.079 14.718C1.308 14.493 1.679 14.493 1.909 14.718L4.779 17.538L4.779 4.88202C4.78576 4.70553 4.86062 4.53852 4.98788 4.41604C5.11513 4.29356 5.28488 4.22515 5.4615 4.22515C5.63812 4.22515 5.80787 4.29356 5.93513 4.41604C6.06238 4.53852 6.13725 4.70553 6.144 4.88202L6.144 17.433H6.143Z" fill="#CB4B00"/>
</svg>
