<svg width="24" height="24" viewBox="0 0 24 24" fill="none" xmlns="http://www.w3.org/2000/svg">
<path fill-rule="evenodd" clip-rule="evenodd" d="M16.0303 11.4697L19.5303 14.9697C19.5549 14.9943 19.5778 15.0206 19.5988 15.0484L19.5303 14.9697C19.5648 15.0041 19.5952 15.0411 19.6215 15.08C19.6325 15.0963 19.6432 15.1135 19.6531 15.1311C19.6613 15.1454 19.6689 15.16 19.6761 15.1748C19.6846 15.1925 19.6926 15.2109 19.6998 15.2297C19.704 15.2405 19.7077 15.2509 19.7112 15.2613C19.7184 15.2827 19.7248 15.3052 19.7302 15.328C19.733 15.3403 19.7354 15.352 19.7376 15.3637C19.7413 15.3832 19.7442 15.4039 19.7463 15.4248C19.7478 15.4409 19.7489 15.4562 19.7495 15.4716C19.7498 15.4804 19.75 15.4902 19.75 15.5L19.7494 15.5294C19.7489 15.5441 19.7479 15.5588 19.7464 15.5734L19.75 15.5C19.75 15.5468 19.7457 15.5927 19.7375 15.6372C19.7354 15.648 19.733 15.6597 19.7303 15.6714C19.7248 15.6948 19.7184 15.7173 19.711 15.7393C19.7077 15.7491 19.704 15.7595 19.7 15.7698C19.6925 15.7891 19.6846 15.8075 19.6759 15.8255C19.6689 15.84 19.6613 15.8546 19.6531 15.869C19.6432 15.8865 19.6325 15.9037 19.6212 15.9203C19.6143 15.9307 19.6068 15.9411 19.599 15.9514C19.5971 15.9539 19.5954 15.9561 19.5937 15.9583L19.5303 16.0303L16.0303 19.5303C15.7374 19.8232 15.2626 19.8232 14.9697 19.5303C14.6768 19.2374 14.6768 18.7626 14.9697 18.4697L17.19 16.249L5 16.25C4.58579 16.25 4.25 15.9142 4.25 15.5C4.25 15.0858 4.58579 14.75 5 14.75L17.188 14.749L14.9697 12.5303C14.6768 12.2374 14.6768 11.7626 14.9697 11.4697C15.2626 11.1768 15.7374 11.1768 16.0303 11.4697ZM9.03033 4.46967C9.32322 4.76256 9.32322 5.23744 9.03033 5.53033L6.81 7.75H19C19.4142 7.75 19.75 8.08579 19.75 8.5C19.75 8.91421 19.4142 9.25 19 9.25H6.81L9.03033 11.4697C9.32322 11.7626 9.32322 12.2374 9.03033 12.5303C8.73744 12.8232 8.26256 12.8232 7.96967 12.5303L4.46967 9.03033L4.40627 8.9583C4.40456 8.95608 4.40285 8.95386 4.40116 8.95162L4.46967 9.03033C4.43523 8.99589 4.40484 8.95893 4.3785 8.92005C4.36746 8.90366 4.35681 8.88651 4.34686 8.86892C4.3387 8.85462 4.33106 8.83999 4.32393 8.82517C4.31544 8.80751 4.30745 8.78909 4.30019 8.77031C4.29603 8.75946 4.2923 8.74909 4.28881 8.73866C4.28158 8.71728 4.27517 8.69483 4.26981 8.67197C4.26701 8.65973 4.26458 8.64803 4.26242 8.6363C4.25891 8.61767 4.25606 8.59792 4.254 8.57793C4.25192 8.55747 4.25066 8.53747 4.2502 8.51745C4.25007 8.5116 4.25 8.50581 4.25 8.5L4.25018 8.48355C4.25062 8.4632 4.25189 8.44286 4.25398 8.4226L4.25 8.5C4.25 8.45315 4.25429 8.40731 4.26251 8.36284C4.26458 8.35197 4.26701 8.34027 4.26973 8.32863C4.27517 8.30517 4.28158 8.28272 4.28898 8.26072C4.2923 8.25091 4.29603 8.24054 4.29999 8.23025C4.30745 8.21091 4.31545 8.19249 4.32414 8.17447C4.33106 8.16001 4.3387 8.14538 4.34686 8.13095C4.35681 8.11349 4.36746 8.09634 4.37876 8.07967C4.38569 8.06934 4.39318 8.05887 4.40097 8.04856C4.42217 8.02057 4.44507 7.99427 4.46967 7.96967L7.96967 4.46967C8.26256 4.17678 8.73744 4.17678 9.03033 4.46967Z" fill="#CB4B00"/>
</svg>
