<svg width="24" height="24" viewBox="0 0 24 24" fill="none" xmlns="http://www.w3.org/2000/svg">
<path fill-rule="evenodd" clip-rule="evenodd" d="M13 2.75C18.1086 2.75 22.25 6.89137 22.25 12C22.25 17.1086 18.1086 21.25 13 21.25C12.5858 21.25 12.25 20.9142 12.25 20.5C12.25 20.0858 12.5858 19.75 13 19.75C17.2802 19.75 20.75 16.2802 20.75 12C20.75 7.71979 17.2802 4.25 13 4.25C8.7198 4.25 5.25 7.71979 5.25 12L5.24948 14.189L6.46967 12.9697C7.17678 12.2626 8.23744 13.3232 7.53033 14.0303L5.03033 16.5303L5.01977 16.5407C5.00708 16.553 4.99401 16.5648 4.98058 16.5762L5.03033 16.5303C4.87447 16.6862 4.70142 16.7562 4.53392 16.763C4.52259 16.763 4.51123 16.7634 4.49984 16.7635C4.48878 16.7634 4.47742 16.763 4.4661 16.7623C4.31629 16.7569 4.16206 16.7003 4.01965 16.5769C4.006 16.5648 3.99293 16.553 3.98024 16.5407C3.97693 16.5375 3.9733 16.534 3.96967 16.5303L1.46967 14.0303C0.762565 13.3232 1.82323 12.2626 2.53033 12.9697L3.74948 14.189L3.75 12C3.75 6.89137 7.89137 2.75 13 2.75Z" fill="#CB4B00"/>
</svg>
