<svg width="24" height="24" viewBox="0 0 24 24" fill="none" xmlns="http://www.w3.org/2000/svg">
<path fill-rule="evenodd" clip-rule="evenodd" d="M15 3.75C18.1586 3.75 20.7223 6.29677 20.7498 9.44885C22.5734 10.4421 23.75 12.3631 23.75 14.5C23.75 17.6756 21.1756 20.25 18 20.25H13.5C13.0858 20.25 12.75 19.9142 12.75 19.5C12.75 19.0858 13.0858 18.75 13.5 18.75H18C20.3472 18.75 22.25 16.8472 22.25 14.5C22.25 12.7887 21.2295 11.2651 19.6857 10.5972C19.3909 10.4697 19.2101 10.1686 19.236 9.84838C19.2453 9.73302 19.25 9.61683 19.25 9.5C19.25 7.15279 17.3472 5.25 15 5.25C13.463 5.25 12.0702 6.07208 11.3157 7.37964C11.099 7.75537 10.6096 7.86938 10.2491 7.62817C9.88224 7.38274 9.45197 7.25 9 7.25C7.75736 7.25 6.75 8.25736 6.75 9.5C6.75 9.91421 6.41421 10.25 6 10.25C3.65279 10.25 1.75 12.1528 1.75 14.5C1.75 16.8472 3.65279 18.75 6 18.75H10.5C10.9142 18.75 11.25 19.0858 11.25 19.5C11.25 19.9142 10.9142 20.25 10.5 20.25H6C2.82436 20.25 0.25 17.6756 0.25 14.5C0.25 11.5554 2.46335 9.12782 5.3171 8.79013C5.64888 7.0585 7.17163 5.75 9 5.75C9.4929 5.75 9.9724 5.84563 10.4167 6.027C11.4882 4.61339 13.1691 3.75 15 3.75ZM12.5955 10.0397L15.0389 12.4832C15.3318 12.7761 15.3318 13.251 15.0389 13.5439C14.746 13.8367 14.2712 13.8367 13.9783 13.5439L12.7586 12.3242V16.5135C12.7586 16.9277 12.4228 17.2635 12.0086 17.2635C11.5944 17.2635 11.2586 16.9277 11.2586 16.5135V12.3291L10.0439 13.5439C9.33675 14.251 8.27608 13.1903 8.98319 12.4832L11.4163 10.0501C11.4682 9.98446 11.5306 9.92866 11.6 9.88414C11.9549 9.63288 12.3651 9.76308 12.5955 10.0397Z" fill="#CB4B00"/>
</svg>
