<svg width="24" height="24" viewBox="0 0 24 24" fill="none" xmlns="http://www.w3.org/2000/svg">
<path fill-rule="evenodd" clip-rule="evenodd" d="M20.25 13.25C20.6642 13.25 21 13.5858 21 14C21 14.4142 20.6642 14.75 20.25 14.75H7C6.58579 14.75 6.25 14.4142 6.25 14C6.25 13.5858 6.58579 13.25 7 13.25H20.25ZM20.25 9.25C20.6642 9.25 21 9.58579 21 10C21 10.4142 20.6642 10.75 20.25 10.75H7C6.58579 10.75 6.25 10.4142 6.25 10C6.25 9.58579 6.58579 9.25 7 9.25H20.25ZM20.25 5.25C20.6642 5.25 21 5.58579 21 6C21 6.41421 20.6642 6.75 20.25 6.75H7C6.58579 6.75 6.25 6.41421 6.25 6C6.25 5.58579 6.58579 5.25 7 5.25H20.25Z" fill="#CB4B00"/>
<path d="M4.5 6C4.5 6.41421 4.16421 6.75 3.75 6.75C3.33579 6.75 3 6.41421 3 6C3 5.58579 3.33579 5.25 3.75 5.25C4.16421 5.25 4.5 5.58579 4.5 6Z" fill="#CB4B00"/>
<path d="M4.5 10C4.5 10.4142 4.16421 10.75 3.75 10.75C3.33579 10.75 3 10.4142 3 10C3 9.58579 3.33579 9.25 3.75 9.25C4.16421 9.25 4.5 9.58579 4.5 10Z" fill="#CB4B00"/>
<path d="M4.5 14C4.5 14.4142 4.16421 14.75 3.75 14.75C3.33579 14.75 3 14.4142 3 14C3 13.5858 3.33579 13.25 3.75 13.25C4.16421 13.25 4.5 13.5858 4.5 14Z" fill="#CB4B00"/>
<path fill-rule="evenodd" clip-rule="evenodd" d="M20.25 17.25C20.6642 17.25 21 17.5858 21 18C21 18.4142 20.6642 18.75 20.25 18.75H7C6.58579 18.75 6.25 18.4142 6.25 18C6.25 17.5858 6.58579 17.25 7 17.25H20.25Z" fill="#CB4B00"/>
<path d="M4.5 18C4.5 18.4142 4.16421 18.75 3.75 18.75C3.33579 18.75 3 18.4142 3 18C3 17.5858 3.33579 17.25 3.75 17.25C4.16421 17.25 4.5 17.5858 4.5 18Z" fill="#CB4B00"/>
</svg>
