<svg width="24" height="24" viewBox="0 0 24 24" fill="none" xmlns="http://www.w3.org/2000/svg">
<path fill-rule="evenodd" clip-rule="evenodd" d="M9 13C10.1046 13 11 13.8954 11 15V20C11 21.1046 10.1046 22 9 22H4C2.89543 22 2 21.1046 2 20V15C2 13.8954 2.89543 13 4 13H9ZM20 13C21.1046 13 22 13.8954 22 15V20C22 21.1046 21.1046 22 20 22H15C13.8954 22 13 21.1046 13 20V15C13 13.8954 13.8954 13 15 13H20ZM9 14.5H4C3.72386 14.5 3.5 14.7239 3.5 15V20C3.5 20.2761 3.72386 20.5 4 20.5H9C9.27614 20.5 9.5 20.2761 9.5 20V15C9.5 14.7239 9.27614 14.5 9 14.5ZM20 14.5H15C14.7239 14.5 14.5 14.7239 14.5 15V20C14.5 20.2761 14.7239 20.5 15 20.5H20C20.2761 20.5 20.5 20.2761 20.5 20V15C20.5 14.7239 20.2761 14.5 20 14.5ZM9 2C10.1046 2 11 2.89543 11 4V9C11 10.1046 10.1046 11 9 11H4C2.89543 11 2 10.1046 2 9V4C2 2.89543 2.89543 2 4 2H9ZM20 2C21.1046 2 22 2.89543 22 4V9C22 10.1046 21.1046 11 20 11H15C13.8954 11 13 10.1046 13 9V4C13 2.89543 13.8954 2 15 2H20ZM9 3.5H4C3.72386 3.5 3.5 3.72386 3.5 4V9C3.5 9.27614 3.72386 9.5 4 9.5H9C9.27614 9.5 9.5 9.27614 9.5 9V4C9.5 3.72386 9.27614 3.5 9 3.5ZM20 3.5H15C14.7239 3.5 14.5 3.72386 14.5 4V9C14.5 9.27614 14.7239 9.5 15 9.5H20C20.2761 9.5 20.5 9.27614 20.5 9V4C20.5 3.72386 20.2761 3.5 20 3.5Z" fill="#CB4B00"/>
</svg>
