<svg width="24" height="24" viewBox="0 0 24 24" fill="none" xmlns="http://www.w3.org/2000/svg">
<path fill-rule="evenodd" clip-rule="evenodd" d="M7 16C8.10457 16 9 16.8954 9 18V20C9 21.1046 8.10457 22 7 22H4C2.89543 22 2 21.1046 2 20V18C2 16.8954 2.89543 16 4 16H7ZM7 17.5H4C3.72386 17.5 3.5 17.7239 3.5 18V20C3.5 20.2761 3.72386 20.5 4 20.5H7C7.27614 20.5 7.5 20.2761 7.5 20V18C7.5 17.7239 7.27614 17.5 7 17.5ZM21.25 18.25C21.6642 18.25 22 18.5858 22 19C22 19.4142 21.6642 19.75 21.25 19.75H12C11.5858 19.75 11.25 19.4142 11.25 19C11.25 18.5858 11.5858 18.25 12 18.25H21.25ZM7 9C8.10457 9 9 9.89543 9 11V13C9 14.1046 8.10457 15 7 15H4C2.89543 15 2 14.1046 2 13V11C2 9.89543 2.89543 9 4 9H7ZM7 10.5H4C3.72386 10.5 3.5 10.7239 3.5 11V13C3.5 13.2761 3.72386 13.5 4 13.5H7C7.27614 13.5 7.5 13.2761 7.5 13V11C7.5 10.7239 7.27614 10.5 7 10.5ZM21.25 11.25C21.6642 11.25 22 11.5858 22 12C22 12.4142 21.6642 12.75 21.25 12.75H12C11.5858 12.75 11.25 12.4142 11.25 12C11.25 11.5858 11.5858 11.25 12 11.25H21.25ZM7 2C8.10457 2 9 2.89543 9 4V6C9 7.10457 8.10457 8 7 8H4C2.89543 8 2 7.10457 2 6V4C2 2.89543 2.89543 2 4 2H7ZM7 3.5H4C3.72386 3.5 3.5 3.72386 3.5 4V6C3.5 6.27614 3.72386 6.5 4 6.5H7C7.27614 6.5 7.5 6.27614 7.5 6V4C7.5 3.72386 7.27614 3.5 7 3.5ZM21.25 4.25C21.6642 4.25 22 4.58579 22 5C22 5.41421 21.6642 5.75 21.25 5.75H12C11.5858 5.75 11.25 5.41421 11.25 5C11.25 4.58579 11.5858 4.25 12 4.25H21.25Z" fill="#CB4B00"/>
</svg>
