<svg width="24" height="24" viewBox="0 0 24 24" fill="none" xmlns="http://www.w3.org/2000/svg">
<path d="M18.404 9.06768H17.8545C17.6555 9.06768 17.4944 9.22876 17.4944 9.42741V9.97732C17.4944 10.1756 17.6555 10.3367 17.8545 10.3367H18.404C18.6027 10.3367 18.7638 10.1756 18.7638 9.97732V9.42741C18.7638 9.22876 18.6027 9.06768 18.404 9.06768ZM21.6541 10.0223C20.9428 10.3882 20.6034 11.2061 20.8474 11.9685C20.9079 12.1574 20.8064 12.2863 20.7597 12.3327C20.7123 12.3794 20.5827 12.4826 20.3953 12.421C19.6328 12.1777 18.8156 12.5151 18.4491 13.2271C18.3584 13.4034 18.1952 13.422 18.1293 13.422C18.0629 13.422 17.8998 13.4034 17.8091 13.2267C17.5228 12.6704 16.9597 12.3421 16.3645 12.3421C16.198 12.3421 16.0287 12.3675 15.8629 12.421C15.6754 12.4826 15.5452 12.38 15.4985 12.3327C15.4521 12.2863 15.3506 12.1574 15.4108 11.9678C15.6548 11.2061 15.3157 10.3882 14.6047 10.0227C14.4281 9.93198 14.4095 9.76852 14.4095 9.7022C14.4095 9.63621 14.4281 9.47309 14.6047 9.3824C15.3157 9.01658 15.6548 8.19796 15.4108 7.43654C15.3506 7.24771 15.4521 7.11877 15.4985 7.07207C15.5452 7.02504 15.6731 6.92182 15.8629 6.98375C16.6254 7.22673 17.4433 6.88866 17.8091 6.17732C17.8998 6.00135 18.0629 5.9824 18.1293 5.9824C18.1952 5.9824 18.3584 6.00135 18.4491 6.17732C18.8156 6.88933 19.6335 7.23147 20.3953 6.98375C20.5844 6.92182 20.7123 7.02537 20.7597 7.07207C20.8064 7.11877 20.9079 7.24771 20.8474 7.43722C20.6034 8.19796 20.9428 9.01658 21.6541 9.3824C21.8301 9.47309 21.8487 9.63621 21.8487 9.7022C21.8487 9.76852 21.8301 9.93198 21.6541 10.0223ZM19.4829 16.4663L18.3404 15.6359C18.2139 15.5445 18.0436 15.5445 17.9174 15.6359L16.7746 16.4663V13.9404C17.0731 14.4017 17.5719 14.691 18.1293 14.691C18.6863 14.691 19.1851 14.402 19.4829 13.9418V16.4663ZM22.2342 8.25414C22.0771 8.17326 22.002 7.99221 22.0558 7.82436C22.2436 7.2406 22.0907 6.60845 21.6568 6.17495C21.2237 5.74111 20.5909 5.58882 20.0078 5.77529C19.8399 5.83045 19.6589 5.75498 19.5773 5.59728C19.2974 5.05211 18.7421 4.71336 18.1293 4.71336C17.5161 4.71336 16.9607 5.05211 16.6809 5.59728C16.5996 5.75431 16.4196 5.83045 16.2507 5.77529C15.6656 5.5895 15.0345 5.74111 14.6013 6.17495C14.1675 6.60845 14.0149 7.2406 14.2024 7.82368C14.2562 7.99221 14.181 8.17326 14.0243 8.25414C13.4788 8.534 13.1401 9.08866 13.1401 9.7022C13.1397 10.3154 13.4785 10.8704 14.0243 11.1516C14.1814 11.2318 14.2562 11.4129 14.2024 11.5807C14.0149 12.1641 14.1675 12.7966 14.6013 13.2301C14.8514 13.4805 15.1699 13.6244 15.5056 13.6761V18.2511C15.5056 18.5448 15.8389 18.7147 16.0768 18.5421L18.1293 17.0511L20.1814 18.5421C20.4189 18.7147 20.7519 18.5448 20.7519 18.2511V13.6761C21.088 13.6247 21.4064 13.4809 21.6568 13.2301C22.0907 12.7966 22.2436 12.1641 22.0558 11.5814C22.002 11.4129 22.0768 11.2318 22.2342 11.1509C22.7797 10.8704 23.1184 10.3154 23.1181 9.7022C23.1181 9.08866 22.7793 8.534 22.2342 8.25414ZM7.50319 15.3069C7.50319 15.5056 7.66428 15.6667 7.86326 15.6667H13.8765C14.0751 15.6667 14.2365 15.5056 14.2365 15.3069V14.757C14.2365 14.5587 14.0751 14.3976 13.8765 14.3976H7.86326C7.66428 14.3976 7.50319 14.5587 7.50319 14.757V15.3069ZM7.86326 12.6159H11.5854C11.7841 12.6159 11.9452 12.4552 11.9452 12.2565V11.7069C11.9452 11.5079 11.7841 11.3472 11.5854 11.3472H7.86326C7.66428 11.3472 7.50319 11.5079 7.50319 11.7069V12.2565C7.50319 12.4552 7.66428 12.6159 7.86326 12.6159ZM11.5854 8.29644H7.86326C7.66428 8.29644 7.50319 8.45752 7.50319 8.65617V9.20575C7.50319 9.4044 7.66428 9.56548 7.86326 9.56548H11.5854C11.7841 9.56548 11.9452 9.4044 11.9452 9.20575V8.65617C11.9452 8.45752 11.7841 8.29644 11.5854 8.29644ZM17.7171 19.4822H17.0761C16.9496 19.4822 16.8331 19.5499 16.7682 19.6586C16.5922 19.9526 16.4112 20.2369 16.226 20.4988H2.95125C3.77561 19.2139 4.46461 17.7391 4.46461 15.5858V3.46429H18.404C18.6027 3.46429 18.7638 3.30354 18.7638 3.1049V2.55498C18.7638 2.35633 18.6027 2.19525 18.404 2.19525H3.55531C3.35632 2.19525 3.19558 2.35633 3.19558 2.55498V16.0934C3.19558 17.8244 2.20268 19.4244 1.23178 20.7607L0.914695 21.1966C0.742106 21.4345 0.911988 21.7679 1.20573 21.7679H16.692C16.8074 21.7679 16.9154 21.7127 16.9834 21.6196L17.0653 21.5063C17.3895 21.0602 17.7208 20.5614 18.0284 20.025C18.1665 19.7841 17.9949 19.4822 17.7171 19.4822Z" fill="#CB4B00"/>
</svg>
