<svg width="24" height="24" viewBox="0 0 24 24" fill="none" xmlns="http://www.w3.org/2000/svg">
<path fill-rule="evenodd" clip-rule="evenodd" d="M1.50763 12.5675C1.44359 12.5112 1.39008 12.4444 1.34868 12.3709C1.31965 12.32 1.29707 12.2663 1.28095 12.2112C1.20807 11.966 1.2566 11.6835 1.47041 11.4697L10.9704 1.96967C11.2633 1.67678 11.7382 1.67678 12.0311 1.96967C12.324 2.26256 12.324 2.73744 12.0311 3.03033L3.8114 11.25H22.0007C22.415 11.25 22.7507 11.5858 22.7507 12C22.7507 12.4142 22.415 12.75 22.0007 12.75H3.8114L12.0311 20.9697C12.324 21.2626 12.324 21.7374 12.0311 22.0303C11.7382 22.3232 11.2633 22.3232 10.9704 22.0303L1.50763 12.5675Z" fill="#CB4B00"/>
</svg>
