<svg width="24" height="24" viewBox="0 0 24 24" fill="none" xmlns="http://www.w3.org/2000/svg">
<path fill-rule="evenodd" clip-rule="evenodd" d="M11.5181 22.5707C11.4993 22.555 11.4808 22.5383 11.4629 22.5203L1.96291 13.0203C1.67002 12.7274 1.67002 12.2526 1.96291 11.9597C2.2558 11.6668 2.73068 11.6668 3.02357 11.9597L11.2432 20.1793V1.99C11.2432 1.57578 11.579 1.24 11.9932 1.24C12.4075 1.24 12.7432 1.57578 12.7432 1.99V20.1793L20.9629 11.9597C21.67 11.2526 22.7307 12.3132 22.0236 13.0203L12.5608 22.4831C12.5318 22.516 12.5001 22.5461 12.4662 22.5732C12.1474 22.8435 11.771 22.7824 11.518 22.5708L11.5181 22.5707Z" fill="#CB4B00"/>
</svg>
