<svg width="24" height="24" viewBox="0 0 24 24" fill="none" xmlns="http://www.w3.org/2000/svg">
<path fill-rule="evenodd" clip-rule="evenodd" d="M11.4325 1.50764C11.4888 1.4436 11.5556 1.39009 11.6291 1.34869C11.68 1.31965 11.7337 1.29708 11.7888 1.28095C12.034 1.20808 12.3165 1.25661 12.5303 1.47042L22.0303 10.9704C22.3232 11.2633 22.3232 11.7382 22.0303 12.0311C21.7374 12.324 21.2626 12.324 20.9697 12.0311L12.75 3.81141V22.0007C12.75 22.415 12.4142 22.7507 12 22.7507C11.5858 22.7507 11.25 22.415 11.25 22.0007V3.81141L3.03033 12.0311C2.73744 12.324 2.26256 12.324 1.96967 12.0311C1.67678 11.7382 1.67678 11.2633 1.96967 10.9704L11.4325 1.50764Z" fill="#CB4B00"/>
</svg>
