<svg width="24" height="24" viewBox="0 0 24 24" fill="none" xmlns="http://www.w3.org/2000/svg">
<path fill-rule="evenodd" clip-rule="evenodd" d="M12 4.06076L6.52305 9.53751C6.22619 9.82639 5.75136 9.81991 5.46249 9.52305C5.17362 9.22619 5.18009 8.75136 5.47695 8.46249L11.4929 2.46249C11.7898 2.17354 12.2648 2.18011 12.5537 2.47716L18.5377 8.47716C18.8265 8.77413 18.8198 9.24896 18.5228 9.53771C18.2259 9.82647 17.751 9.81981 17.4623 9.52284L12 4.06076Z" fill="#CB4B00"/>
<path fill-rule="evenodd" clip-rule="evenodd" d="M17.4623 14.4772C17.751 14.1802 18.2259 14.1735 18.5228 14.4623C18.8198 14.751 18.8265 15.2259 18.5377 15.5228L12.5537 21.5228C12.2648 21.8199 11.7898 21.8265 11.4929 21.5375L5.47695 15.5375C5.18009 15.2486 5.17362 14.7738 5.46249 14.477C5.75136 14.1801 6.22619 14.1736 6.52305 14.4625L12.0013 19.9392L17.4623 14.4772Z" fill="#CB4B00"/>
</svg>
