<svg width="24" height="24" viewBox="0 0 24 24" fill="none" xmlns="http://www.w3.org/2000/svg">
<g clip-path="url(#clip0_2_1572)">
<path d="M19.5 12.25C19.9142 12.25 20.25 12.5858 20.25 13V22.5C20.25 22.9142 19.9142 23.25 19.5 23.25H14.5C14.0858 23.25 13.75 22.9142 13.75 22.5V16.25H10.25V22.5C10.25 22.9142 9.91423 23.25 9.50001 23.25H4.50001C4.0858 23.25 3.75001 22.9142 3.75001 22.5C3.75001 22.0858 4.0858 21.75 4.50001 21.75H8.75001V15.5C8.75001 15.0858 9.0858 14.75 9.50001 14.75H14.5C14.9142 14.75 15.25 15.0858 15.25 15.5V21.75H18.75V13C18.75 12.5858 19.0858 12.25 19.5 12.25ZM4.50001 12.25C4.91423 12.25 5.25001 12.5858 5.25001 13V19C5.25001 19.4142 4.91423 19.75 4.50001 19.75C4.0858 19.75 3.75001 19.4142 3.75001 19V13C3.75001 12.5858 4.0858 12.25 4.50001 12.25ZM12.4902 0.932383L23.4902 10.4324C23.8037 10.7031 23.8384 11.1767 23.5676 11.4902C23.2969 11.8037 22.8233 11.8384 22.5098 11.5676L12 2.49098L1.49023 11.5676C1.17674 11.8384 0.703133 11.8037 0.432395 11.4902C0.161657 11.1767 0.196311 10.7031 0.509797 10.4324L11.5098 0.932383C11.7914 0.689206 12.2087 0.689206 12.4902 0.932383Z" fill="#CB4B00"/>
</g>
<defs>
<clipPath id="clip0_2_1572">
<rect width="24" height="24" fill="white"/>
</clipPath>
</defs>
</svg>
