<svg width="24" height="24" viewBox="0 0 24 24" fill="none" xmlns="http://www.w3.org/2000/svg">
<path d="M18.496 17.044C18.5753 17.044 18.615 17.0837 18.615 17.163V20.033C18.615 20.4437 18.7095 20.7505 18.8985 20.9535C19.0875 21.1565 19.3383 21.258 19.651 21.258C19.9637 21.258 20.2145 21.1565 20.4035 20.9535C20.5925 20.7505 20.687 20.4437 20.687 20.033V17.163C20.687 17.0837 20.7267 17.044 20.806 17.044H21.485C21.5643 17.044 21.604 17.0837 21.604 17.163V20.089C21.604 20.439 21.5527 20.74 21.45 20.992C21.3473 21.244 21.2073 21.4505 21.03 21.6115C20.8527 21.7725 20.645 21.8915 20.407 21.9685C20.169 22.0455 19.917 22.084 19.651 22.084C19.385 22.084 19.133 22.0455 18.895 21.9685C18.657 21.8915 18.4493 21.7725 18.272 21.6115C18.0947 21.4505 17.9547 21.244 17.852 20.992C17.7493 20.74 17.698 20.439 17.698 20.089V17.163C17.698 17.0837 17.7377 17.044 17.817 17.044H18.496ZM3.159 17.044C3.24767 17.044 3.31533 17.0743 3.362 17.135L4.874 18.969L6.4 17.135C6.44667 17.0743 6.512 17.044 6.596 17.044H7.163C7.24233 17.044 7.282 17.0837 7.282 17.163V21.881C7.282 21.9603 7.24233 22 7.163 22H6.491C6.41167 22 6.372 21.9603 6.372 21.881V18.43L4.965 20.124C4.937 20.1613 4.9055 20.1788 4.8705 20.1765C4.8355 20.1742 4.804 20.1567 4.776 20.124L3.376 18.437V21.881C3.376 21.9603 3.33633 22 3.257 22H2.585C2.50567 22 2.466 21.9603 2.466 21.881V17.163C2.466 17.0837 2.50567 17.044 2.585 17.044H3.159ZM11.237 17.044C11.3257 17.044 11.3607 17.0907 11.342 17.184L11.223 17.744C11.2043 17.8233 11.153 17.863 11.069 17.863H9.375V19.109H10.768C10.8473 19.109 10.887 19.1487 10.887 19.228V19.76C10.887 19.8393 10.8473 19.879 10.768 19.879H9.375V21.181H11.23C11.3093 21.181 11.349 21.2207 11.349 21.3V21.881C11.349 21.9603 11.3093 22 11.23 22H8.577C8.49767 22 8.458 21.9603 8.458 21.881V17.163C8.458 17.0837 8.49767 17.044 8.577 17.044H11.237ZM13.05 17.044C13.0967 17.044 13.134 17.0522 13.162 17.0685C13.19 17.0848 13.2157 17.1093 13.239 17.142L15.682 20.488V17.163C15.682 17.0837 15.7217 17.044 15.801 17.044H16.473C16.5523 17.044 16.592 17.0837 16.592 17.163V21.881C16.592 21.9603 16.5523 22 16.473 22H15.885C15.801 22 15.738 21.9673 15.696 21.902L13.26 18.57V21.881C13.26 21.9603 13.2203 22 13.141 22H12.462C12.3827 22 12.343 21.9603 12.343 21.881V17.163C12.343 17.0837 12.3827 17.044 12.462 17.044H13.05ZM21 12.75C21.4142 12.75 21.75 13.0858 21.75 13.5C21.75 13.9142 21.4142 14.25 21 14.25H3C2.58579 14.25 2.25 13.9142 2.25 13.5C2.25 13.0858 2.58579 12.75 3 12.75H21ZM21 7.75C21.4142 7.75 21.75 8.08579 21.75 8.5C21.75 8.91421 21.4142 9.25 21 9.25H3C2.58579 9.25 2.25 8.91421 2.25 8.5C2.25 8.08579 2.58579 7.75 3 7.75H21ZM21 2.75C21.4142 2.75 21.75 3.08579 21.75 3.5C21.75 3.91421 21.4142 4.25 21 4.25H3C2.58579 4.25 2.25 3.91421 2.25 3.5C2.25 3.08579 2.58579 2.75 3 2.75H21Z" fill="#CB4B00"/>
</svg>
