<svg width="24" height="24" viewBox="0 0 24 24" fill="none" xmlns="http://www.w3.org/2000/svg">
<g clip-path="url(#clip0_2_1569)">
<path fill-rule="evenodd" clip-rule="evenodd" d="M4.64866 13.1555C4.74702 13.2047 4.83603 13.2765 4.90748 13.3696C6.14488 14.9828 7.35957 16.6686 8.55158 18.427C8.63911 18.5561 8.68098 18.7028 8.68085 18.8478C8.68077 20.2113 9.70876 21.75 10.1923 21.75C10.6065 21.75 10.9423 22.0858 10.9423 22.5C10.9423 22.9142 10.6065 23.2501 10.1923 23.2501C8.81984 23.2501 7.38444 21.2373 7.20055 19.2655C7.04995 19.2743 6.8682 19.2864 6.66191 19.3025C6.00896 19.3533 5.35668 19.4259 4.75217 19.5237C3.70005 19.6938 2.91222 19.9259 2.57245 20.1726C1.92652 20.6416 1.65938 21.3531 1.77565 22.4186C1.82058 22.8304 1.5232 23.2006 1.11143 23.2456C0.699663 23.2905 0.329435 22.9931 0.284504 22.5814C0.113048 21.0101 0.580386 19.7653 1.69111 18.9588C2.27986 18.5313 3.23827 18.2489 4.51279 18.0429C5.09047 17.9495 5.7012 17.8783 6.31513 17.8258C5.52646 16.7013 4.72817 15.6088 3.92028 14.5481C2.53837 14.3769 1.74971 13.466 1.74971 12C1.74971 10.9415 2.20105 10.1824 2.95259 9.76562C3.16055 9.65029 3.36967 9.5697 3.57551 9.51587C3.80288 3.89285 6.97293 0.75 11.998 0.75C17.0259 0.75 20.1965 3.89233 20.4239 9.51587C20.6297 9.5697 20.8389 9.65029 21.0468 9.76562C21.7984 10.1824 22.2497 10.9415 22.2497 12C22.2497 13.466 21.461 14.3769 20.0791 14.5481C19.2712 15.6088 18.473 16.7013 17.6843 17.8258C18.2982 17.8783 18.9089 17.9495 19.4866 18.0429C20.7611 18.2489 21.7196 18.5313 22.3083 18.9588C23.419 19.7653 23.8864 21.0101 23.7149 22.5814C23.67 22.9931 23.2998 23.2905 22.888 23.2456C22.4762 23.2006 22.1788 22.8304 22.2238 22.4186C22.34 21.3531 22.0729 20.6416 21.427 20.1726C21.0872 19.9259 20.2994 19.6938 19.2472 19.5237C18.6427 19.4259 17.9905 19.3533 17.3375 19.3025C17.1312 19.2864 16.9495 19.2743 16.7989 19.2655C16.615 21.2373 15.1796 23.2501 13.8072 23.2501C13.3929 23.2501 13.0572 22.9142 13.0572 22.5C13.0572 22.0858 13.3929 21.75 13.8072 21.75C14.2907 21.75 15.3186 20.2113 15.3186 18.8478C15.3184 18.7028 15.3603 18.5561 15.4478 18.427C16.6398 16.6686 17.8545 14.9828 19.0919 13.3696C19.2348 13.1833 19.448 13.0827 19.6657 13.0764C20.4719 13.0534 20.7497 12.7736 20.7497 12C20.7497 11.1692 20.3074 10.9239 19.687 10.9239C19.2728 10.9239 18.937 10.5881 18.937 10.1739C18.937 9.76267 18.9211 9.36707 18.8897 8.98719C17.19 9.02836 15.6772 8.53257 14.6307 7.56419C12.9069 8.85666 9.4165 9.65429 7.28647 9.02264C6.88935 8.90487 6.66289 8.48748 6.78066 8.09036C6.89842 7.69324 7.31582 7.46677 7.71294 7.58454C9.58945 8.14102 13.1805 7.16179 14.0943 6.02908C14.4021 5.64755 14.9872 5.65903 15.2798 6.05235C15.9575 6.96327 17.1801 7.48422 18.6687 7.48969C17.9058 4.02777 15.5479 2.25 11.998 2.25C7.62644 2.25 5.06239 4.95018 5.06239 10.1739C5.06239 10.5881 4.72661 10.9239 4.31239 10.9239C3.69203 10.9239 3.24971 11.1692 3.24971 12C3.24971 12.7736 3.52755 13.0534 4.33373 13.0764C4.45107 13.0797 4.56135 13.1098 4.65887 13.1607L4.64866 13.1555Z" fill="#CB4B00"/>
</g>
<defs>
<clipPath id="clip0_2_1569">
<rect width="24" height="24" fill="white"/>
</clipPath>
</defs>
</svg>
