<svg width="24" height="24" viewBox="0 0 24 24" fill="none" xmlns="http://www.w3.org/2000/svg">
<path fill-rule="evenodd" clip-rule="evenodd" d="M4 2.25C4.41421 2.25 4.75 2.58579 4.75 3L4.75025 15.3781C5.62402 15.6871 6.25 16.5204 6.25 17.5C6.25 18.4796 5.62402 19.3129 4.75025 19.6219L4.75 21C4.75 21.4142 4.41421 21.75 4 21.75C3.58579 21.75 3.25 21.4142 3.25 21L3.25077 19.6222C2.37647 19.3136 1.75 18.4799 1.75 17.5C1.75 16.5201 2.37647 15.6864 3.25077 15.3778L3.25 3C3.25 2.58579 3.58579 2.25 4 2.25ZM12 2.25C12.4142 2.25 12.75 2.58579 12.75 3L12.7503 4.37812C13.624 4.68707 14.25 5.52043 14.25 6.5C14.25 7.47957 13.624 8.31293 12.7503 8.62188L12.75 21C12.75 21.4142 12.4142 21.75 12 21.75C11.5858 21.75 11.25 21.4142 11.25 21L11.2508 8.62224C10.3765 8.31358 9.75 7.47995 9.75 6.5C9.75 5.52005 10.3765 4.68642 11.2508 4.37776L11.25 3C11.25 2.58579 11.5858 2.25 12 2.25ZM20 2.25C20.4142 2.25 20.75 2.58579 20.75 3L20.7503 9.37812C21.624 9.68707 22.25 10.5204 22.25 11.5C22.25 12.4796 21.624 13.3129 20.7503 13.6219L20.75 21C20.75 21.4142 20.4142 21.75 20 21.75C19.5858 21.75 19.25 21.4142 19.25 21L19.2508 13.6222C18.3765 13.3136 17.75 12.4799 17.75 11.5C17.75 10.5201 18.3765 9.68642 19.2508 9.37776L19.25 3C19.25 2.58579 19.5858 2.25 20 2.25ZM4 16.75C3.58579 16.75 3.25 17.0858 3.25 17.5C3.25 17.9142 3.58579 18.25 4 18.25C4.41421 18.25 4.75 17.9142 4.75 17.5C4.75 17.0858 4.41421 16.75 4 16.75ZM20 10.75C19.5858 10.75 19.25 11.0858 19.25 11.5C19.25 11.9142 19.5858 12.25 20 12.25C20.4142 12.25 20.75 11.9142 20.75 11.5C20.75 11.0858 20.4142 10.75 20 10.75ZM12 5.75C11.5858 5.75 11.25 6.08579 11.25 6.5C11.25 6.91421 11.5858 7.25 12 7.25C12.4142 7.25 12.75 6.91421 12.75 6.5C12.75 6.08579 12.4142 5.75 12 5.75Z" fill="#CB4B00"/>
</svg>
