<svg width="24" height="24" viewBox="0 0 24 24" fill="none" xmlns="http://www.w3.org/2000/svg">
<path d="M5.43 7.89665C5.58667 8.00665 5.8 7.96665 5.91333 7.81332C7.31667 5.95665 9.48 4.81999 11.8033 4.71332L12.4867 5.72332L11.9667 6.67999C10.41 6.72999 8.95 7.38999 7.88667 8.51999C7.75 8.66666 7.77333 8.90332 7.92667 9.02999L8.34667 9.37666C8.49333 9.49665 8.70333 9.47666 8.83333 9.33999C9.48667 8.65665 10.3267 8.19999 11.2433 8.01332L11.0267 8.41666C10.9333 8.58999 10.9967 8.80332 11.17 8.89665L11.6467 9.15332C11.82 9.24665 12.0333 9.18332 12.1267 9.00999L13.8467 5.83665C13.91 5.71999 13.9033 5.57999 13.83 5.46999L11.79 2.46332C11.68 2.29999 11.46 2.25999 11.2967 2.36999L10.85 2.67332C10.6867 2.78332 10.6467 3.00332 10.7567 3.16666L11 3.52999C8.58333 3.84332 6.37667 5.11665 4.89667 7.08665C4.77667 7.24665 4.82 7.47666 4.98333 7.58999L5.43 7.89665ZM7.03333 15.35C7.13 15.5267 7.36 15.5767 7.53 15.47L7.99 15.18C8.15 15.08 8.19333 14.8733 8.10333 14.7067C7.65667 13.8733 7.48 12.9333 7.58667 12.0067L7.90333 12.3333C8.03667 12.4767 8.26333 12.48 8.40333 12.3467L8.79667 11.9733C8.94 11.84 8.94333 11.6133 8.81 11.4733L6.32333 8.85665C6.23333 8.75999 6.09667 8.72332 5.96667 8.75999L2.47667 9.76999C2.29 9.82332 2.18 10.02 2.23333 10.21L2.38333 10.73C2.43667 10.9167 2.63333 11.0267 2.82333 10.9733L3.24333 10.8533C2.79333 13.25 3.32333 15.7433 4.74 17.7567C4.85667 17.92 5.08667 17.95 5.24667 17.83L5.67667 17.5C5.83 17.3833 5.85667 17.17 5.74667 17.0133C4.41333 15.1033 4 12.6967 4.61667 10.4567L5.79 10.1167L6.54 10.9067C6.11 12.3967 6.28333 13.99 7.03333 15.35ZM14.8833 20.2267C14.82 20.0467 14.6267 19.9567 14.4433 20.01C12.2133 20.6867 9.8 20.3367 7.85667 19.0567L7.89667 17.8367L8.87667 17.3667C9.85667 18.03 10.9967 18.38 12.1567 18.38C12.5233 18.38 12.8967 18.3467 13.2633 18.2733C13.46 18.2367 13.58 18.0333 13.53 17.84L13.3933 17.31C13.3467 17.1267 13.1633 17.02 12.9767 17.0533C12.0467 17.22 11.0967 17.0967 10.25 16.71L10.6633 16.5133C10.84 16.43 10.9133 16.2167 10.83 16.04L10.5967 15.55C10.5133 15.3733 10.3 15.3 10.1233 15.3833L6.86667 16.9367C6.74667 16.9933 6.67 17.1133 6.66667 17.2433L6.55 20.8767C6.54333 21.0733 6.69667 21.2367 6.89333 21.2433L7.43333 21.26C7.63 21.2667 7.79333 21.1133 7.8 20.9167L7.81333 20.4733C9.15667 21.2067 10.6533 21.59 12.1667 21.59C13.0633 21.59 13.9667 21.4567 14.8433 21.1867C15.0333 21.1267 15.1367 20.9167 15.07 20.73L14.8833 20.2267ZM21.2333 12.66C21.2367 12.46 21.0667 12.2967 20.8667 12.3033L20.3267 12.3167C20.1367 12.32 19.9867 12.4767 19.9833 12.67C19.94 14.9967 18.86 17.1867 17.04 18.64L15.8933 18.2267L15.75 17.1467C16.98 16.19 17.7733 14.8 17.9667 13.26C17.9933 13.06 17.8333 12.8833 17.6333 12.87L17.09 12.8367C16.9 12.8233 16.7433 12.9667 16.7167 13.1533C16.59 14.09 16.1767 14.9533 15.5467 15.64L15.4867 15.1867C15.46 14.9933 15.2833 14.8567 15.09 14.8833L14.5533 14.9533C14.36 14.98 14.2233 15.1567 14.25 15.35L14.7233 18.9267C14.74 19.0567 14.83 19.17 14.9533 19.2133L18.37 20.45C18.5533 20.5167 18.7567 20.42 18.8233 20.2367L19.0067 19.7267C19.0733 19.5433 18.9767 19.34 18.7933 19.2733L18.3833 19.1233C20.16 17.45 21.1967 15.12 21.2333 12.66ZM21.5533 8.56999L21.1267 8.23665C20.9733 8.11665 20.75 8.14332 20.63 8.29999L20.36 8.64665C19.3167 6.44332 17.42 4.73999 15.09 3.94332C14.9 3.87999 14.6933 3.98999 14.6367 4.18332L14.4833 4.70332C14.43 4.88666 14.5333 5.07666 14.7133 5.13666C16.9133 5.89666 18.6633 7.60332 19.48 9.77999L18.73 10.7433L17.66 10.5467C17.13 9.08332 16.0533 7.89666 14.65 7.23665C14.4667 7.14999 14.25 7.24665 14.1767 7.43332L13.9767 7.93666C13.9067 8.11332 13.9933 8.30665 14.1633 8.38999C15.0133 8.79999 15.71 9.45665 16.1667 10.27L15.7167 10.1867C15.5233 10.15 15.34 10.2767 15.3033 10.47L15.2033 11.0033C15.1667 11.1967 15.2933 11.38 15.4867 11.4167L19.0367 12.0733C19.1667 12.0967 19.3 12.0467 19.38 11.9433L21.61 9.07665C21.7333 8.90999 21.7067 8.68999 21.5533 8.56999Z" fill="#CB4B00"/>
</svg>
