<svg width="24" height="24" viewBox="0 0 24 24" fill="none" xmlns="http://www.w3.org/2000/svg">
<path d="M14.9733 2.74332C14.6767 2.64999 14.37 2.57665 14.06 2.51332C13.9233 2.48665 13.7833 2.54332 13.7033 2.65332L5.80333 13.5267C5.63333 13.76 5.8 14.09 6.09 14.09H10.75L9.24333 19.9533C5.74667 18.8367 3.4 15.63 3.4 11.95C3.4 8.84332 5.09333 6.12665 7.60667 4.67332C8.68333 4.04999 9.91333 3.66332 11.2233 3.57332C11.41 3.55999 11.5567 3.40998 11.5567 3.22332V2.67999C11.5567 2.47665 11.3867 2.30999 11.1833 2.32332C9.72334 2.41665 8.34667 2.82998 7.13334 3.50332C4.16334 5.15332 2.14667 8.31999 2.14667 11.9533C2.14667 16.2067 4.87333 19.9133 8.93 21.1733C9.22667 21.2667 9.52667 21.3433 9.83667 21.4067C9.97334 21.4367 10.1167 21.3767 10.2 21.2633L18.0967 10.3933C18.2667 10.16 18.1 9.82998 17.81 9.82998H13.1533L14.66 3.95999C18.1567 5.07665 20.5033 8.28332 20.5033 11.9633C20.5033 15.07 18.81 17.7867 16.2967 19.24C15.22 19.8633 13.99 20.25 12.68 20.34C12.4933 20.3533 12.3467 20.5033 12.3467 20.69V21.2333C12.3467 21.4367 12.5167 21.6033 12.72 21.59C14.18 21.4967 15.5567 21.0833 16.77 20.41C19.74 18.76 21.7567 15.5933 21.7567 11.96C21.76 7.70998 19.0333 4.00332 14.9733 2.74332ZM16.0533 11.08L11.0533 17.9633L12.2567 13.28C12.3133 13.0567 12.1433 12.8367 11.9133 12.8367H7.85667L12.8567 5.95332L11.6533 10.6367C11.5967 10.86 11.7667 11.08 11.9967 11.08H16.0533Z" fill="#CB4B00"/>
</svg>
