<svg width="24" height="24" viewBox="0 0 24 24" fill="none" xmlns="http://www.w3.org/2000/svg">
<g clip-path="url(#clip0_2_1442)">
<path d="M21.2533 12.3033H20.7133C20.5167 12.3033 20.36 12.4633 20.36 12.6567V20.3733H14.0833V14.72C14.0833 14.5233 13.9233 14.3667 13.73 14.3667H10.1833C9.98667 14.3667 9.83 14.5267 9.83 14.72V20.3767H3.55V12.66C3.55 12.4633 3.39 12.3067 3.19667 12.3067H2.65667C2.46 12.3067 2.30334 12.4667 2.30334 12.66V21.2733C2.30334 21.47 2.46334 21.6267 2.65667 21.6267H10.7233C10.92 21.6267 11.0767 21.4667 11.0767 21.2733V15.6167H12.83V21.2733C12.83 21.47 12.99 21.6267 13.1833 21.6267H21.25C21.4467 21.6267 21.6033 21.4667 21.6033 21.2733V12.66C21.61 12.4633 21.45 12.3033 21.2533 12.3033ZM23.7733 10.79L20.11 8.12667V2.70334C20.11 2.50667 19.95 2.35 19.7567 2.35H16.1167C15.92 2.35 15.7633 2.51 15.7633 2.70334V3.24333C15.7633 3.44 15.9233 3.59667 16.1167 3.59667H18.86V7.21667L12.1633 2.35C12.04 2.26 11.87 2.26 11.7467 2.35L0.140003 10.79C-0.136664 10.9933 0.00667063 11.43 0.346671 11.43H1.24C1.33334 11.43 1.42334 11.4 1.5 11.3467L11.9567 3.74667L22.4133 11.3467C22.49 11.4 22.58 11.43 22.6733 11.43H23.5667C23.9067 11.43 24.05 10.99 23.7733 10.79ZM11.9567 12.1567C13.13 12.1567 14.0833 11.2033 14.0833 10.03C14.0833 8.85667 13.13 7.90333 11.9567 7.90333C10.7833 7.90333 9.83 8.85667 9.83 10.03C9.83 11.2033 10.7833 12.1567 11.9567 12.1567ZM11.9567 9.15333C12.44 9.15333 12.8333 9.54667 12.8333 10.03C12.8333 10.5133 12.44 10.9067 11.9567 10.9067C11.4733 10.9067 11.08 10.5133 11.08 10.03C11.0767 9.54667 11.47 9.15333 11.9567 9.15333Z" fill="#CB4B00"/>
</g>
<defs>
<clipPath id="clip0_2_1442">
<rect width="24" height="24" fill="white"/>
</clipPath>
</defs>
</svg>
