<svg width="24" height="24" viewBox="0 0 24 24" fill="none" xmlns="http://www.w3.org/2000/svg">
<path fill-rule="evenodd" clip-rule="evenodd" d="M15.5503 9.02898C15.7032 9.14026 15.7369 9.35443 15.6257 9.50736L7.82482 20.2283C7.82472 20.2285 7.82462 20.2286 7.82452 20.2287C7.82346 20.2302 7.82229 20.2319 7.82101 20.2336C7.817 20.2392 7.81191 20.2462 7.80573 20.2545C7.79337 20.271 7.77666 20.293 7.75559 20.3194C7.7135 20.3723 7.65377 20.4437 7.57648 20.5274C7.42238 20.6942 7.19557 20.9129 6.89638 21.131C6.3558 21.5252 5.56853 21.9243 4.55035 21.9991C4.36173 22.013 4.20811 21.8583 4.20811 21.6692V20.9843C4.20811 20.7952 4.36198 20.6439 4.55006 20.624C5.20971 20.5544 5.72276 20.2915 6.08934 20.0242C6.30381 19.8679 6.46493 19.712 6.57033 19.5979C6.6228 19.5411 6.66072 19.4954 6.68384 19.4664C6.69538 19.4519 6.70316 19.4416 6.70715 19.4363C6.70828 19.4348 6.7091 19.4336 6.70962 19.4329C6.70972 19.4328 6.70982 19.4326 6.70992 19.4325L6.71122 19.4306L14.5181 8.70144C14.6293 8.54851 14.8435 8.51475 14.9965 8.62602L15.5503 9.02898Z" fill="#CB4B00"/>
<path fill-rule="evenodd" clip-rule="evenodd" d="M10.9259 9.41604C11.078 9.30373 11.2924 9.33604 11.4048 9.4882L13.1919 11.9094L12.0898 12.7229L10.3027 10.3016C10.1904 10.1495 10.2227 9.93508 10.3748 9.82277L10.9259 9.41604Z" fill="#CB4B00"/>
<path fill-rule="evenodd" clip-rule="evenodd" d="M8.66075 12.5458C8.81489 12.4362 9.02869 12.4723 9.13828 12.6265L10.8875 15.0869L9.77111 15.8806L8.02187 13.4202C7.91229 13.266 7.94841 13.0522 8.10255 12.9426L8.66075 12.5458Z" fill="#CB4B00"/>
<path fill-rule="evenodd" clip-rule="evenodd" d="M20.4097 2.6636L19.7252 2.68489L19.5211 2.03111C19.7255 1.96733 19.9479 2.00277 20.1223 2.12692C20.2967 2.25106 20.4031 2.44962 20.4097 2.6636ZM19.0653 3.61047C19.0258 3.62295 18.9851 3.63583 18.9432 3.64909C18.3154 3.84769 17.419 4.13283 16.3448 4.4788C14.196 5.17088 11.3376 6.10587 8.49643 7.07837C6.01353 7.92822 4.8582 10.2599 4.82069 12.8428C4.78284 15.4497 5.897 18.0596 7.65558 19.2634L6.88187 20.3937C4.63811 18.8579 3.40866 15.7431 3.45106 12.8229C3.49381 9.87882 4.8426 6.88121 8.05284 5.78241C10.9048 4.80625 13.7717 3.86849 15.9249 3.17498C17.0016 2.82817 17.9004 2.54231 18.53 2.34311C18.8449 2.2435 19.0924 2.16556 19.2614 2.11249C19.3459 2.08595 19.4107 2.06564 19.4545 2.05194L19.521 2.03113C19.521 2.03113 19.5211 2.03111 19.7252 2.68489C20.4097 2.6636 20.4097 2.66368 20.4097 2.66368L20.4097 2.66388L20.4102 2.67805C20.4104 2.68751 20.4109 2.70157 20.4114 2.72013C20.4125 2.75726 20.4141 2.8124 20.4162 2.88477C20.4203 3.0295 20.4262 3.24311 20.4332 3.5192C20.4473 4.07138 20.4661 4.87352 20.4848 5.87446C20.5223 7.87619 20.5598 10.6736 20.5598 13.8572C20.5598 17.3419 18.6201 19.5901 16.2113 20.7674C13.9655 21.8651 11.2688 22.06 9.24317 21.4984C9.06092 21.4479 8.96392 21.2536 9.02329 21.074L9.23825 20.4237C9.29762 20.2441 9.49117 20.1476 9.67397 20.1961C11.3557 20.6422 13.6747 20.4826 15.6098 19.5368C17.6347 18.5471 19.1901 16.7291 19.1901 13.8572C19.1901 10.684 19.1527 7.89536 19.1153 5.90012C19.0972 4.93616 19.0792 4.15756 19.0653 3.61047Z" fill="#CB4B00"/>
</svg>
