<svg width="24" height="24" viewBox="0 0 24 24" fill="none" xmlns="http://www.w3.org/2000/svg">
<path d="M20 2.56665H11.17C9.99667 2.56665 9.04333 3.51998 9.04333 4.69332V6.10332C5.88333 6.39998 3.36333 8.91998 3.06667 12.08H2.14C1.94333 12.08 1.78667 12.24 1.78667 12.4333V12.9733C1.78667 13.17 1.94667 13.3267 2.14 13.3267H6.18667C6.38333 13.3267 6.54 13.1666 6.54 12.9733V12.4333C6.54 12.2367 6.38 12.08 6.18667 12.08H4.32333C4.63333 9.40332 6.91333 7.31998 9.67333 7.31998C12.43 7.31998 14.71 9.40332 15.02 12.08H8.14667C7.95 12.08 7.79333 12.24 7.79333 12.4333V12.9733C7.79333 13.17 7.95333 13.3267 8.14667 13.3267H17.2C17.3967 13.3267 17.5533 13.1666 17.5533 12.9733V12.4333C17.5533 12.2367 17.3933 12.08 17.2 12.08H16.2733C15.9767 8.91998 13.4567 6.39998 10.2967 6.10332V4.69332C10.2967 4.20998 10.69 3.81665 11.1733 3.81665H20C20.4833 3.81665 20.8767 4.20998 20.8767 4.69332V20.99C20.8767 21.1867 21.0367 21.3433 21.23 21.3433H21.77C21.9667 21.3433 22.1233 21.1833 22.1233 20.99V4.69332C22.1267 3.51665 21.1733 2.56665 20 2.56665ZM8.60333 14.7533H8.06333C7.86667 14.7533 7.71 14.9133 7.71 15.1067V15.6467C7.71 15.8433 7.87 16 8.06333 16H8.60333C8.8 16 8.95667 15.84 8.95667 15.6467V15.1067C8.95667 14.91 8.8 14.7533 8.60333 14.7533ZM11.2733 14.7533H10.7333C10.5367 14.7533 10.38 14.9133 10.38 15.1067V15.6467C10.38 15.8433 10.54 16 10.7333 16H11.2733C11.47 16 11.6267 15.84 11.6267 15.6467V15.1067C11.63 14.91 11.47 14.7533 11.2733 14.7533ZM5.93333 17.4233H5.39333C5.19667 17.4233 5.04 17.5833 5.04 17.7767V18.3166C5.04 18.5133 5.2 18.67 5.39333 18.67H5.93333C6.13 18.67 6.28667 18.51 6.28667 18.3166V17.7767C6.28667 17.5833 6.12667 17.4233 5.93333 17.4233ZM8.60333 17.4233H8.06333C7.86667 17.4233 7.71 17.5833 7.71 17.7767V18.3166C7.71 18.5133 7.87 18.67 8.06333 18.67H8.60333C8.8 18.67 8.95667 18.51 8.95667 18.3166V17.7767C8.95667 17.5833 8.8 17.4233 8.60333 17.4233ZM5.93333 14.7533H5.39333C5.19667 14.7533 5.04 14.9133 5.04 15.1067V15.6467C5.04 15.8433 5.2 16 5.39333 16H5.93333C6.13 16 6.28667 15.84 6.28667 15.6467V15.1067C6.28667 14.91 6.12667 14.7533 5.93333 14.7533ZM11.2733 17.4233H10.7333C10.5367 17.4233 10.38 17.5833 10.38 17.7767V18.3166C10.38 18.5133 10.54 18.67 10.7333 18.67H11.2733C11.47 18.67 11.6267 18.51 11.6267 18.3166V17.7767C11.63 17.5833 11.47 17.4233 11.2733 17.4233ZM13.9467 17.4233H13.4067C13.21 17.4233 13.0533 17.5833 13.0533 17.7767V18.3166C13.0533 18.5133 13.2133 18.67 13.4067 18.67H13.9467C14.1433 18.67 14.3 18.51 14.3 18.3166V17.7767C14.3 17.5833 14.1433 17.4233 13.9467 17.4233ZM13.9467 14.7533H13.4067C13.21 14.7533 13.0533 14.9133 13.0533 15.1067V15.6467C13.0533 15.8433 13.2133 16 13.4067 16H13.9467C14.1433 16 14.3 15.84 14.3 15.6467V15.1067C14.3 14.91 14.1433 14.7533 13.9467 14.7533ZM8.60333 20.0933H8.06333C7.86667 20.0933 7.71 20.2533 7.71 20.4466V20.9867C7.71 21.1833 7.87 21.34 8.06333 21.34H8.60333C8.8 21.34 8.95667 21.18 8.95667 20.9867V20.4466C8.95667 20.2533 8.8 20.0933 8.60333 20.0933ZM11.2733 20.0933H10.7333C10.5367 20.0933 10.38 20.2533 10.38 20.4466V20.9867C10.38 21.1833 10.54 21.34 10.7333 21.34H11.2733C11.47 21.34 11.6267 21.18 11.6267 20.9867V20.4466C11.63 20.2533 11.47 20.0933 11.2733 20.0933Z" fill="#CB4B00"/>
</svg>
