<svg width="24" height="24" viewBox="0 0 24 24" fill="none" xmlns="http://www.w3.org/2000/svg">
<path fill-rule="evenodd" clip-rule="evenodd" d="M5.34825 13.034C5.44678 13.0835 5.53588 13.1555 5.60729 13.249C6.53951 14.4696 8.21814 15.3104 10.5569 15.5523C10.8422 15.05 11.3812 14.7109 11.9997 14.7109C12.9167 14.7109 13.6588 15.4562 13.6588 16.3739C13.6588 17.2917 12.9167 18.037 11.9997 18.037C11.3239 18.037 10.7431 17.6322 10.4843 17.0519C7.86789 16.7947 5.86599 15.8595 4.63175 14.4263C3.35013 14.2611 2.61335 13.4032 2.61335 12.037C2.61335 11.0475 3.03642 10.3328 3.74079 9.9405C3.91928 9.84109 4.09844 9.76919 4.27522 9.71898C4.49935 4.58074 7.40583 1.7 11.9981 1.7C16.5931 1.7 19.5001 4.58027 19.7242 9.71898C19.901 9.76919 20.0801 9.84109 20.2586 9.9405C20.963 10.3328 21.3861 11.0475 21.3861 12.037C21.3861 13.3978 20.6551 14.2544 19.3827 14.4244C18.6764 15.3563 17.9781 16.3153 17.2879 17.3013C17.8091 17.3482 18.3262 17.4103 18.8174 17.4901C19.9864 17.6799 20.8658 17.9401 21.4125 18.3388C22.4426 19.0901 22.8759 20.249 22.7177 21.7049C22.673 22.1167 22.3029 22.4143 21.8911 22.3695C21.4793 22.3248 21.1818 21.9547 21.2265 21.5429C21.3299 20.5912 21.0955 19.9641 20.5286 19.5508C20.2312 19.3339 19.5231 19.1243 18.577 18.9707C18.0296 18.8818 17.4385 18.8157 16.8467 18.7694C16.6339 18.7528 16.4499 18.7408 16.3037 18.7326C16.0669 19.0563 15.6144 19.1373 15.2792 18.911C14.9358 18.6792 14.8454 18.2131 15.0771 17.8697C16.1614 16.2632 17.2664 14.7229 18.3921 13.249C18.535 13.062 18.7485 12.9609 18.9668 12.9545C19.6624 12.9347 19.8861 12.7084 19.8861 12.037C19.8861 11.3238 19.5195 11.1197 18.9882 11.1197C18.574 11.1197 18.2382 10.7839 18.2382 10.3697C18.2382 10.0527 18.2279 9.74605 18.2074 9.44976C17.1533 9.46608 16.4597 9.21903 15.7765 8.64049C15.7298 8.60098 15.6862 8.563 15.6418 8.52305C15.4384 8.71955 15.3252 8.81614 15.1783 8.92678C15.0825 8.99896 14.9855 9.06411 14.8785 9.12861C14.7109 9.22962 14.5785 9.29868 14.1546 9.51154C13.8651 9.6569 13.515 9.60001 13.2865 9.37048C12.858 8.94014 12.4356 8.59784 12.0205 8.34192C11.0814 8.88606 9.91146 9.29534 8.51114 9.57662C8.10504 9.65819 7.7097 9.39511 7.62813 8.98901C7.54656 8.58291 7.80964 8.18757 8.21574 8.10599C9.64129 7.81964 10.7633 7.39705 11.5825 6.84854C11.807 6.69824 12.095 6.68027 12.3364 6.8015C12.882 7.07551 13.4194 7.45275 13.95 7.93141C14.0113 7.89845 14.0576 7.87201 14.1043 7.84385C14.1681 7.80541 14.2222 7.76902 14.2758 7.72866C14.4337 7.60973 14.5677 7.4819 15.1047 6.94256C15.3978 6.64813 15.8745 6.64813 16.1676 6.94256C16.4786 7.25482 16.6008 7.37295 16.7458 7.49576C17.1031 7.79824 17.4301 7.93954 18.0003 7.9523C17.3185 4.80796 15.1984 3.2 11.9981 3.2C8.06325 3.2 5.76125 5.63477 5.76125 10.3697C5.76125 10.7839 5.42546 11.1197 5.01125 11.1197C4.47993 11.1197 4.11335 11.3238 4.11335 12.037C4.11335 12.7084 4.33701 12.9347 5.03268 12.9546C5.15028 12.9579 5.26079 12.9882 5.35847 13.0393L5.34825 13.034ZM2.77294 21.5429C2.81768 21.9547 2.52012 22.3248 2.10833 22.3695C1.69654 22.4143 1.32645 22.1167 1.28171 21.7049C1.12354 20.249 1.55681 19.0901 2.58695 18.3388C3.13364 17.9401 4.013 17.6799 5.18203 17.4901C5.77502 17.3938 6.40574 17.3233 7.03579 17.274C7.41363 17.2445 7.70898 17.2285 7.88176 17.2222C8.2957 17.2073 8.64338 17.5307 8.65832 17.9447C8.67326 18.3586 8.3498 18.7063 7.93586 18.7213C7.78281 18.7268 7.50797 18.7417 7.15271 18.7694C6.56094 18.8157 5.96983 18.8818 5.42244 18.9707C4.47634 19.1243 3.76821 19.3339 3.4708 19.5508C2.90398 19.9641 2.66954 20.5912 2.77294 21.5429ZM13.25 22.25C12.8358 22.25 12.5 21.9142 12.5 21.5C12.5 21.0858 12.8358 20.75 13.25 20.75H16.8864C17.3006 20.75 17.6364 21.0858 17.6364 21.5C17.6364 21.9142 17.3006 22.25 16.8864 22.25H13.25ZM11.9997 16.537C12.0868 16.537 12.1588 16.4647 12.1588 16.3739C12.1588 16.2831 12.0868 16.2109 11.9997 16.2109C11.9126 16.2109 11.8406 16.2831 11.8406 16.3739C11.8406 16.4647 11.9126 16.537 11.9997 16.537Z" fill="#CB4B00"/>
</svg>
