<svg width="24" height="24" viewBox="0 0 24 24" fill="none" xmlns="http://www.w3.org/2000/svg">
<path fill-rule="evenodd" clip-rule="evenodd" d="M18.9897 11.0854H18.9864L17.4525 11.0818C17.305 11.0815 17.1608 11.0376 17.0381 10.9558L14.5026 9.2646L9.50598 9.26623L6.95611 10.9601C6.83312 11.0418 6.68876 11.0854 6.54111 11.0854H5.01125C4.47993 11.0854 4.11335 11.2887 4.11335 11.9955C4.11335 12.6615 4.33626 12.886 5.03258 12.9058C5.14992 12.9092 5.2602 12.9393 5.35773 12.9902C5.44588 13.0342 5.53489 13.1059 5.60633 13.1991C6.73206 14.6666 7.83711 16.2002 8.92149 17.7999C9.15391 18.1428 9.06438 18.6091 8.72152 18.8416C8.38671 19.0685 7.93415 18.9885 7.69665 18.6653C7.55024 18.6734 7.36585 18.6854 7.15246 18.702C6.56061 18.7481 5.96941 18.814 5.42193 18.9025C4.47556 19.0555 3.7671 19.2642 3.46955 19.4803C2.90346 19.8913 2.66971 20.5139 2.7729 21.4596C2.81783 21.8713 2.52045 22.2416 2.10868 22.2865C1.69691 22.3314 1.32668 22.034 1.28175 21.6223C1.12337 20.1708 1.55732 19.015 2.5882 18.2665C3.13474 17.8696 4.01378 17.6106 5.18254 17.4217C5.67253 17.3425 6.18829 17.2808 6.70816 17.234C6.01941 16.2546 5.32262 15.3018 4.61779 14.3759C3.3453 14.2068 2.61335 13.353 2.61335 11.9955C2.61335 11.0083 3.0372 10.2954 3.74199 9.90457C3.92015 9.80578 4.09894 9.73429 4.27535 9.68435C4.5005 4.56795 7.40743 1.7 11.9981 1.7C16.5915 1.7 19.4989 4.56747 19.7241 9.68435C19.9005 9.73429 20.0793 9.80578 20.2574 9.90457C20.9622 10.2954 21.3861 11.0083 21.3861 11.9955C21.3861 13.353 20.6541 14.2068 19.3816 14.3759C18.6768 15.3018 17.98 16.2546 17.2913 17.234C17.8111 17.2808 18.3269 17.3425 18.8169 17.4217C19.9856 17.6106 20.8647 17.8696 21.4112 18.2665C22.4421 19.015 22.8761 20.1708 22.7177 21.6223C22.6727 22.034 22.3025 22.3314 21.8908 22.2865C21.479 22.2416 21.1816 21.8713 21.2265 21.4596C21.3297 20.5139 21.096 19.8913 20.5299 19.4803C20.2323 19.2642 19.5239 19.0555 18.5775 18.9025C18.03 18.814 17.4388 18.7481 16.847 18.702C16.6336 18.6854 16.4492 18.6734 16.3028 18.6653C16.0653 18.9885 15.6127 19.0685 15.2779 18.8416C14.9351 18.6091 14.8455 18.1428 15.0779 17.7999C16.1623 16.2002 17.2674 14.6666 18.3931 13.1991C18.4645 13.1059 18.5536 13.0342 18.6519 12.985C18.7392 12.9393 18.8495 12.9092 18.9668 12.9058C19.6632 12.886 19.8861 12.6615 19.8861 11.9955C19.8861 11.2893 19.5202 11.0858 18.9897 11.0854ZM18.2177 9.58359C17.9818 5.36548 15.7215 3.2 11.9981 3.2C8.27698 3.2 6.01694 5.36646 5.78164 9.58538H6.3147L8.86446 7.89158C8.98738 7.80993 9.13165 7.76635 9.27921 7.7663L14.7294 7.76453C14.8777 7.76448 15.0226 7.80834 15.1459 7.89058L17.6822 9.58235L18.2177 9.58359ZM12.9997 22.2455C12.5855 22.2455 12.2497 21.9097 12.2497 21.4955C12.2497 21.0812 12.5855 20.7455 12.9997 20.7455H16.4997C16.9139 20.7455 17.2497 21.0812 17.2497 21.4955C17.2497 21.9097 16.9139 22.2455 16.4997 22.2455H12.9997ZM10.0206 16.0603C9.78389 15.7204 9.86761 15.253 10.2076 15.0163C10.5475 14.7796 11.0149 14.8634 11.2516 15.2033C11.4075 15.4272 11.6289 15.5329 11.9997 15.5329C12.3711 15.5329 12.5942 15.4266 12.7519 15.2015C12.9896 14.8622 13.4573 14.7799 13.7965 15.0176C14.1358 15.2552 14.2181 15.7229 13.9805 16.0621C13.53 16.7052 12.8421 17.0329 11.9997 17.0329C11.1567 17.0329 10.4691 16.7046 10.0206 16.0603Z" fill="#CB4B00"/>
</svg>
