<svg width="24" height="24" viewBox="0 0 24 24" fill="none" xmlns="http://www.w3.org/2000/svg">
<path fill-rule="evenodd" clip-rule="evenodd" d="M7.66264 18.9816C7.51012 18.9897 7.31174 19.0023 7.07901 19.0204C6.48542 19.0666 5.89243 19.1327 5.34288 19.2215C4.3864 19.3761 3.6702 19.5872 3.36132 19.8114C2.77411 20.2378 2.53126 20.8846 2.63696 21.8533C2.6778 22.2276 2.40746 22.5642 2.03312 22.6051C1.65879 22.6459 1.32221 22.3756 1.28137 22.0012C1.1255 20.5728 1.55035 19.4412 2.5601 18.708C3.09533 18.3194 3.96661 18.0627 5.12526 17.8754C5.65043 17.7905 6.20563 17.7257 6.76376 17.678C5.9868 16.5702 5.19957 15.4965 4.4021 14.4569C4.17291 14.1581 4.22933 13.7301 4.52811 13.5009C4.82689 13.2717 5.25489 13.3281 5.48407 13.6269C6.60898 15.0934 7.71325 16.626 8.79689 18.2245C9.00818 18.5362 8.92679 18.9602 8.6151 19.1715C8.3034 19.3828 7.87944 19.3014 7.66815 18.9897C7.66632 18.987 7.66448 18.9843 7.66264 18.9816ZM17.0993 17.678C17.6575 17.7257 18.2127 17.7905 18.7378 17.8754C19.8965 18.0627 20.7678 18.3194 21.303 18.708C22.3128 19.4412 22.7376 20.5728 22.5817 22.0012C22.5409 22.3756 22.2043 22.6459 21.83 22.6051C21.4556 22.5642 21.1853 22.2276 21.2261 21.8533C21.3318 20.8846 21.089 20.2378 20.5018 19.8114C20.1929 19.5872 19.4767 19.3761 18.5202 19.2215C17.9707 19.1327 17.3777 19.0666 16.7841 19.0204C16.5514 19.0023 16.353 18.9897 16.2005 18.9816L16.195 18.9897C15.9837 19.3014 15.5597 19.3828 15.248 19.1715C14.9363 18.9602 14.8549 18.5362 15.0662 18.2245C16.1499 16.626 17.2541 15.0934 18.379 13.6269C18.6082 13.3281 19.0362 13.2717 19.335 13.5009C19.6338 13.7301 19.6902 14.1581 19.461 14.4569C18.6635 15.4965 17.8763 16.5702 17.0993 17.678ZM4.47035 10.7909C4.44522 10.7198 4.43155 10.6433 4.43155 10.5636V7.86388C4.43155 5.06571 5.79375 3.72376 8.52246 3.54016V3.29091C8.52246 2.41227 9.23474 1.7 10.1134 1.7H13.7497C14.6284 1.7 15.3406 2.41227 15.3406 3.29091V3.53961C18.0921 3.72031 19.4316 5.05235 19.4316 7.86197V10.5636C19.4316 10.6433 19.4179 10.7198 19.3928 10.7909H19.6588C20.0354 10.7909 20.3406 11.0962 20.3406 11.4727C20.3406 11.8493 20.0354 12.1545 19.6588 12.1545H4.20428C3.82772 12.1545 3.52246 11.8493 3.52246 11.4727C3.52246 11.0962 3.82772 10.7909 4.20428 10.7909H4.47035ZM5.75639 10.7909H18.1067C18.0816 10.7198 18.0679 10.6433 18.0679 10.5636V7.86197C18.0679 5.64014 17.1654 4.88182 14.6588 4.88182C14.2823 4.88182 13.977 4.57656 13.977 4.2V3.29091C13.977 3.16539 13.8753 3.06364 13.7497 3.06364H10.1134C9.98785 3.06364 9.8861 3.16539 9.8861 3.29091V4.2C9.8861 4.57656 9.58084 4.88182 9.20428 4.88182C6.72424 4.88182 5.79519 5.65556 5.79519 7.86388V10.5636C5.79519 10.6433 5.78152 10.7198 5.75639 10.7909ZM11.2497 6.01818C11.2497 5.64162 11.555 5.33636 11.9316 5.33636C12.3081 5.33636 12.6134 5.64162 12.6134 6.01818V7.83636C12.6134 8.21292 12.3081 8.51818 11.9316 8.51818C11.555 8.51818 11.2497 8.21292 11.2497 7.83636V6.01818ZM12.8406 21.7C12.4641 21.7 12.1588 21.3947 12.1588 21.0182C12.1588 20.6416 12.4641 20.3364 12.8406 20.3364H16.477C16.8536 20.3364 17.1588 20.6416 17.1588 21.0182C17.1588 21.3947 16.8536 21.7 16.477 21.7H12.8406ZM10.0083 16.4077C9.7932 16.0987 9.86931 15.6738 10.1784 15.4586C10.4874 15.2435 10.9123 15.3196 11.1275 15.6286C11.2966 15.8716 11.5393 15.9874 11.9316 15.9874C12.3244 15.9874 12.5686 15.8711 12.7396 15.627C12.9557 15.3186 13.3808 15.2437 13.6892 15.4598C13.9976 15.6758 14.0725 16.101 13.8565 16.4094C13.4193 17.0334 12.7526 17.3511 11.9316 17.3511C11.11 17.3511 10.4436 17.0329 10.0083 16.4077Z" fill="#CB4B00"/>
</svg>
