<svg width="24" height="24" viewBox="0 0 24 24" fill="none" xmlns="http://www.w3.org/2000/svg">
<path fill-rule="evenodd" clip-rule="evenodd" d="M6.70816 17.2386C5.95381 16.1658 5.18981 15.1251 4.41616 14.1166C4.16405 13.7879 4.22611 13.3171 4.55477 13.065C4.88343 12.8129 5.35423 12.8749 5.60633 13.2036C6.73206 14.6712 7.83711 16.2048 8.92149 17.8045C9.00902 17.9336 9.05089 18.0802 9.05076 18.2253C9.05068 19.4316 9.96186 20.7955 10.3566 20.7955C10.7708 20.7955 11.1066 21.1312 11.1066 21.5455C11.1066 21.9597 10.7708 22.2955 10.3566 22.2955C9.08247 22.2955 7.77074 20.4794 7.57555 18.677C7.4529 18.6845 7.31065 18.6943 7.15246 18.7066C6.56061 18.7527 5.96941 18.8185 5.42193 18.907C4.47556 19.06 3.7671 19.2687 3.46955 19.4848C2.90346 19.8958 2.66971 20.5184 2.7729 21.4641C2.81783 21.8759 2.52045 22.2461 2.10868 22.291C1.69691 22.336 1.32668 22.0386 1.28175 21.6268C1.12337 20.1754 1.55732 19.0196 2.5882 18.271C3.13474 17.8742 4.01378 17.6152 5.18254 17.4262C5.67253 17.347 6.18829 17.2853 6.70816 17.2386ZM17.2913 17.2386C17.8111 17.2853 18.3269 17.347 18.8169 17.4262C19.9856 17.6152 20.8647 17.8742 21.4112 18.271C22.4421 19.0196 22.8761 20.1754 22.7177 21.6268C22.6727 22.0386 22.3025 22.336 21.8908 22.291C21.479 22.2461 21.1816 21.8759 21.2265 21.4641C21.3297 20.5184 21.096 19.8958 20.5299 19.4848C20.2323 19.2687 19.5239 19.06 18.5775 18.907C18.03 18.8185 17.4388 18.7527 16.847 18.7066C16.6888 18.6943 16.5465 18.6845 16.4239 18.677C16.2287 20.4794 14.917 22.2955 13.6428 22.2955C13.2286 22.2955 12.8928 21.9597 12.8928 21.5455C12.8928 21.1312 13.2286 20.7955 13.6428 20.7955C14.0376 20.7955 14.9487 19.4316 14.9487 18.2253C14.9485 18.0802 14.9904 17.9336 15.0779 17.8045C16.1623 16.2048 17.2674 14.6712 18.3931 13.2036C18.6452 12.8749 19.116 12.8129 19.4447 13.065C19.7733 13.3171 19.8354 13.7879 19.5833 14.1166C18.8096 15.1251 18.0456 16.1658 17.2913 17.2386ZM4.44844 10.3409C4.43736 10.2896 4.43153 10.2364 4.43153 10.1818V7.48206C4.43153 4.66697 5.80174 3.29802 8.52244 3.09491V2.90909C8.52244 1.9928 9.26524 1.25 10.1815 1.25H13.8179C14.7342 1.25 15.477 1.9928 15.477 2.90909V3.09426C18.22 3.29426 19.5679 4.65366 19.5679 7.48015V10.1818C19.5679 10.2364 19.5621 10.2896 19.551 10.3409H19.727C20.1412 10.3409 20.477 10.6767 20.477 11.0909C20.477 11.5051 20.1412 11.8409 19.727 11.8409H4.27244C3.85823 11.8409 3.52244 11.5051 3.52244 11.0909C3.52244 10.6767 3.85823 10.3409 4.27244 10.3409H4.44844ZM5.91463 10.3409H18.0848C18.0737 10.2896 18.0679 10.2364 18.0679 10.1818V7.48015C18.0679 5.29886 17.1983 4.56818 14.727 4.56818C14.3128 4.56818 13.977 4.2324 13.977 3.81818V2.90909C13.977 2.82123 13.9058 2.75 13.8179 2.75H10.1815C10.0937 2.75 10.0224 2.82123 10.0224 2.90909V3.81818C10.0224 4.2324 9.68666 4.56818 9.27244 4.56818C6.82758 4.56818 5.93153 5.31444 5.93153 7.48206V10.1818C5.93153 10.2364 5.9257 10.2896 5.91463 10.3409ZM11.2497 5.63636C11.2497 5.22215 11.5855 4.88636 11.9997 4.88636C12.4139 4.88636 12.7497 5.22215 12.7497 5.63636V7.45455C12.7497 7.86876 12.4139 8.20455 11.9997 8.20455C11.5855 8.20455 11.2497 7.86876 11.2497 7.45455V5.63636Z" fill="#CB4B00"/>
</svg>
