<svg width="24" height="24" viewBox="0 0 24 24" fill="none" xmlns="http://www.w3.org/2000/svg">
<path fill-rule="evenodd" clip-rule="evenodd" d="M18.9668 12.9058C19.6632 12.886 19.8861 12.6615 19.8861 11.9955C19.8861 11.2887 19.5195 11.0854 18.9882 11.0854C18.574 11.0854 18.2382 10.7496 18.2382 10.3354C18.2382 9.98633 18.2256 9.64985 18.2006 9.32598C16.6868 9.34953 15.3366 8.90688 14.3868 8.05091C12.7852 9.21993 9.63374 9.92889 7.69557 9.35413C7.29845 9.23637 7.07199 8.81897 7.18976 8.42185C7.30752 8.02473 7.72492 7.79827 8.12204 7.91603C9.80234 8.41432 13.0381 7.53198 13.8509 6.52454C14.1587 6.143 14.7437 6.15448 15.0363 6.5478C15.6256 7.33996 16.6831 7.80204 17.9772 7.82606C17.2716 4.76514 15.1635 3.2 11.9981 3.2C8.06248 3.2 5.76125 5.62342 5.76125 10.3354C5.76125 10.7496 5.42546 11.0854 5.01125 11.0854C4.47993 11.0854 4.11335 11.2887 4.11335 11.9955C4.11335 12.6615 4.33626 12.886 5.03258 12.9058C5.26726 12.9125 5.47369 13.0263 5.60635 13.199C6.73206 14.6666 7.83711 16.2002 8.92149 17.7999C9.00902 17.929 9.05089 18.0757 9.05076 18.2208C9.05068 19.427 9.96186 20.7909 10.3566 20.7909C10.7708 20.7909 11.1066 21.1267 11.1066 21.5409C11.1066 21.9551 10.7708 22.291 10.3566 22.291C9.08247 22.291 7.77074 20.4749 7.57555 18.6724C7.4529 18.68 7.31065 18.6897 7.15246 18.702C6.56061 18.7481 5.96941 18.814 5.42193 18.9025C4.47556 19.0555 3.7671 19.2642 3.46955 19.4803C2.90346 19.8913 2.66971 20.5139 2.7729 21.4596C2.81783 21.8713 2.52045 22.2416 2.10868 22.2865C1.69691 22.3314 1.32668 22.034 1.28175 21.6223C1.12337 20.1708 1.55732 19.015 2.5882 18.2665C3.13474 17.8696 4.01378 17.6106 5.18254 17.4217C5.67253 17.3425 6.18829 17.2808 6.70816 17.234C6.01941 16.2546 5.32262 15.3018 4.61779 14.3759C3.3453 14.2068 2.61335 13.353 2.61335 11.9955C2.61335 11.0083 3.0372 10.2954 3.74199 9.90457C3.92015 9.80578 4.09894 9.73429 4.27535 9.68435C4.5005 4.56795 7.40743 1.7 11.9981 1.7C16.5915 1.7 19.4989 4.56747 19.7241 9.68435C19.9005 9.73429 20.0793 9.80578 20.2574 9.90457C20.9622 10.2954 21.3861 11.0083 21.3861 11.9955C21.3861 13.353 20.6541 14.2068 19.3816 14.3759C18.6768 15.3018 17.98 16.2546 17.2913 17.234C17.8111 17.2808 18.3269 17.3425 18.8169 17.4217C19.9856 17.6106 20.8647 17.8696 21.4112 18.2665C22.4421 19.015 22.8761 20.1708 22.7177 21.6223C22.6727 22.034 22.3025 22.3314 21.8908 22.2865C21.479 22.2416 21.1816 21.8713 21.2265 21.4596C21.3297 20.5139 21.096 19.8913 20.5299 19.4803C20.2323 19.2642 19.5239 19.0555 18.5775 18.9025C18.03 18.814 17.4388 18.7481 16.847 18.702C16.6888 18.6897 16.5465 18.68 16.4239 18.6724C16.2287 20.4749 14.917 22.291 13.6428 22.291C13.2286 22.291 12.8928 21.9551 12.8928 21.5409C12.8928 21.1267 13.2286 20.7909 13.6428 20.7909C14.0376 20.7909 14.9487 19.427 14.9487 18.2208C14.9485 18.0757 14.9904 17.929 15.0779 17.7999C16.1623 16.2002 17.2674 14.6666 18.3931 13.1991C18.536 13.0128 18.7491 12.9121 18.9668 12.9058V12.9058Z" fill="#CB4B00"/>
</svg>
