<svg width="24" height="24" viewBox="0 0 24 24" fill="none" xmlns="http://www.w3.org/2000/svg">
<path fill-rule="evenodd" clip-rule="evenodd" d="M12 0.75C14.1861 0.75 16.2814 1.3754 18.0809 2.53352C18.4292 2.75769 18.5298 3.22178 18.3056 3.57009C18.0815 3.9184 17.6174 4.01903 17.2691 3.79486C15.7099 2.7914 13.896 2.25 12 2.25C6.61522 2.25 2.25 6.61522 2.25 12C2.25 17.3848 6.61522 21.75 12 21.75C17.3848 21.75 21.75 17.3848 21.75 12C21.75 10.0961 21.2041 8.27508 20.1928 6.7118C19.9678 6.36401 20.0674 5.89969 20.4152 5.67471C20.7629 5.44972 21.2273 5.54928 21.4522 5.89706C22.6194 7.70127 23.25 9.80486 23.25 12C23.25 18.2132 18.2132 23.25 12 23.25C5.7868 23.25 0.75 18.2132 0.75 12C0.75 5.7868 5.7868 0.75 12 0.75Z" fill="#CB4B00"/>
<path fill-rule="evenodd" clip-rule="evenodd" d="M18.7461 14.8657C19.0963 15.0869 19.2009 15.5501 18.9797 15.9003C17.4782 18.2774 14.8648 19.75 12 19.75C9.13518 19.75 6.52184 18.2774 5.02032 15.9003C4.79912 15.5501 4.90369 15.0869 5.25389 14.8657C5.60409 14.6445 6.06731 14.749 6.28851 15.0992C7.51799 17.0457 9.65525 18.25 12 18.25C14.3448 18.25 16.482 17.0457 17.7115 15.0992C17.9327 14.749 18.3959 14.6445 18.7461 14.8657Z" fill="#CB4B00"/>
<path fill-rule="evenodd" clip-rule="evenodd" d="M9.01428 8.58076C9.39397 8.58076 9.70777 8.86291 9.75743 9.22899L9.76428 9.33076V10.75C9.76428 11.1642 9.42849 11.5 9.01428 11.5C8.63458 11.5 8.32079 11.2178 8.27112 10.8518L8.26428 10.75V9.33076C8.26428 8.91654 8.60006 8.58076 9.01428 8.58076Z" fill="#CB4B00"/>
<path fill-rule="evenodd" clip-rule="evenodd" d="M15.0074 8.5C15.3871 8.5 15.7009 8.78215 15.7505 9.14823L15.7574 9.25V10.75C15.7574 11.1642 15.4216 11.5 15.0074 11.5C14.6277 11.5 14.3139 11.2178 14.2642 10.8518L14.2574 10.75V9.25C14.2574 8.83579 14.5931 8.5 15.0074 8.5Z" fill="#CB4B00"/>
</svg>
