<svg width="24" height="24" viewBox="0 0 24 24" fill="none" xmlns="http://www.w3.org/2000/svg">
<path d="M7.74647 12.4528L8.70953 6.38258C8.33014 6.38258 7.6808 6.38258 7.6808 6.38258C7.19927 6.38258 6.57912 6.11263 6.39672 5.61651C6.33835 5.4487 6.19973 4.87232 6.99498 4.31053C7.27953 4.11354 7.46192 3.89466 7.4984 3.72686C7.53488 3.55175 7.49111 3.39854 7.36708 3.2818C7.19198 3.114 6.84907 3.01915 6.41131 3.01915C5.67442 3.01915 5.15641 3.44232 5.10534 3.74875C5.06886 3.97492 5.24396 4.15732 5.39717 4.27405C5.85682 4.61696 5.96626 5.11309 5.68171 5.58003C5.38988 6.06156 4.75513 6.37528 4.07661 6.38258C4.07661 6.38258 3.40538 6.38258 3.02599 6.38258C2.93844 6.97355 1.50844 16.0351 1.399 16.7501H7.07524C7.12631 16.4364 7.38897 14.7218 7.74647 12.4528Z" fill="#CB4B00"/>
<path d="M1.09257 18.8513H3.41997C4.41222 18.8513 4.65299 19.3548 4.58003 19.8144C4.52166 20.1865 4.2663 20.4637 3.82855 20.6461C4.38304 20.8577 4.60192 21.186 4.52166 21.7041C4.41952 22.3534 3.85773 22.8349 3.12084 22.8349H0.472412L1.09257 18.8513ZM2.63201 20.5002C3.08436 20.5002 3.29594 20.2595 3.33972 19.9749C3.38349 19.6685 3.24487 19.4569 2.79252 19.4569H2.39124L2.23073 20.5002H2.63201ZM2.38395 22.2148C2.85089 22.2148 3.12084 22.0251 3.1865 21.6384C3.23757 21.3028 3.04788 21.1058 2.59553 21.1058H2.14318L1.96808 22.2221H2.38395V22.2148Z" fill="#CB4B00"/>
<path d="M7.78295 22.8641C7.17738 22.9079 6.88555 22.8422 6.73963 22.5796C6.41861 22.7766 6.0611 22.8787 5.68172 22.8787C4.9959 22.8787 4.75513 22.5212 4.82079 22.1272C4.84998 21.9375 4.95942 21.7551 5.13452 21.6019C5.51391 21.2736 6.44779 21.2298 6.81259 20.9818C6.84177 20.7045 6.73233 20.6024 6.38942 20.6024C5.98814 20.6024 5.65253 20.7337 5.07615 21.1277L5.21478 20.223C5.7109 19.8655 6.19243 19.6977 6.74692 19.6977C7.45463 19.6977 8.08208 19.9895 7.96535 20.7629L7.82672 21.6384C7.77565 21.9448 7.79024 22.0397 8.13315 22.047L7.78295 22.8641ZM6.73233 21.4852C6.41131 21.6895 5.81304 21.653 5.74738 22.0761C5.71819 22.2731 5.84223 22.4191 6.03922 22.4191C6.22891 22.4191 6.46238 22.3388 6.65208 22.2075C6.63748 22.1345 6.64478 22.0616 6.66667 21.9229L6.73233 21.4852Z" fill="#CB4B00"/>
<path d="M8.91382 19.7487H10.1249L10.0593 20.15C10.446 19.8217 10.7378 19.6977 11.1172 19.6977C11.7957 19.6977 12.1094 20.1135 12 20.7921L11.6863 22.8276H10.4751L10.7378 21.1423C10.7889 20.8358 10.694 20.6899 10.4606 20.6899C10.2709 20.6899 10.0958 20.7921 9.92795 21.0182L9.65071 22.8203H8.43958L8.91382 19.7487Z" fill="#CB4B00"/>
<path d="M12.9485 18.8513H14.1596L13.8532 20.8067L15.0132 19.7487H16.5089L15.0205 21.062L16.2171 22.8276H14.6922L13.7729 21.3976H13.7583L13.5394 22.8203H12.3283L12.9485 18.8513Z" fill="#CB4B00"/>
<path d="M17.2312 18.8513H18.6247L18.0119 22.8276H16.6183L17.2312 18.8513Z" fill="#CB4B00"/>
<path d="M19.3032 18.8513H21.295C22.8345 18.8513 23.2795 19.9676 23.1336 20.8942C22.995 21.7989 22.28 22.8276 20.9302 22.8276H18.6831L19.3032 18.8513ZM20.5946 21.8792C21.2731 21.8792 21.6452 21.5435 21.7547 20.8358C21.8349 20.3105 21.6744 19.7925 20.9229 19.7925H20.5508L20.2298 21.8792H20.5946Z" fill="#CB4B00"/>
<path d="M15.378 1.07843H9.57775L8.80438 5.9886H9.78933C10.3292 5.9886 10.8399 5.74054 11.0588 5.38304C11.1318 5.2663 11.161 5.16416 11.161 5.06931C11.161 4.86502 11.0223 4.71181 10.8837 4.60967C10.5043 4.32512 10.4241 4.02599 10.4241 3.81441C10.4241 3.77063 10.4241 3.73415 10.4314 3.69767C10.5116 3.17966 11.212 2.61787 12.1386 2.61787C12.6931 2.61787 13.1163 2.7492 13.3716 2.98997C13.5978 3.20155 13.6854 3.50068 13.6197 3.81441C13.5394 4.1865 13.1674 4.49293 12.9558 4.64615C12.394 5.04013 12.4669 5.38304 12.5034 5.48518C12.6202 5.79161 13.0652 5.9886 13.4081 5.9886H14.9111C14.9111 5.9886 14.9111 5.9886 14.9111 5.99589C16.9539 6.01049 18.0483 6.95166 17.7054 9.14045C17.3844 11.176 15.8231 12.0515 13.9626 12.0661L13.2257 16.7647H14.3128C18.902 16.7647 22.6521 13.8171 23.389 9.16233C24.301 3.38395 20.6311 1.07843 15.378 1.07843Z" fill="#CB4B00"/>
</svg>
