<svg width="24" height="24" viewBox="0 0 24 24" fill="none" xmlns="http://www.w3.org/2000/svg">
<g clip-path="url(#clip0_2_1667)">
<path fill-rule="evenodd" clip-rule="evenodd" d="M12 0.75C14.1861 0.75 16.2814 1.37539 18.0809 2.53352C18.4292 2.75769 18.5298 3.22178 18.3056 3.57009C18.0815 3.9184 17.6174 4.01903 17.2691 3.79486C15.7099 2.7914 13.896 2.25 12 2.25C6.61522 2.25 2.25 6.61522 2.25 12C2.25 17.3848 6.61522 21.75 12 21.75C17.3848 21.75 21.75 17.3848 21.75 12C21.75 10.0961 21.2041 8.27508 20.1928 6.7118C19.9678 6.36401 20.0674 5.89969 20.4152 5.67471C20.7629 5.44972 21.2273 5.54928 21.4522 5.89706C22.6194 7.70127 23.25 9.80486 23.25 12C23.25 18.2132 18.2132 23.25 12 23.25C5.7868 23.25 0.75 18.2132 0.75 12C0.75 5.7868 5.7868 0.75 12 0.75ZM15 15.75C15.4142 15.75 15.75 16.0858 15.75 16.5C15.75 16.8797 15.4678 17.1935 15.1018 17.2432L15 17.25H9C8.58579 17.25 8.25 16.9142 8.25 16.5C8.25 16.1203 8.53215 15.8065 8.89823 15.7568L9 15.75H15ZM9.01428 8.55384C9.39397 8.55384 9.70777 8.83599 9.75743 9.20207L9.76428 9.30384V10.25C9.76428 10.6642 9.42849 11 9.01428 11C8.63458 11 8.32079 10.7178 8.27112 10.3518L8.26428 10.25V9.30384C8.26428 8.88962 8.60006 8.55384 9.01428 8.55384ZM15.0074 8.5C15.3871 8.5 15.7009 8.78215 15.7505 9.14823L15.7574 9.25V10.25C15.7574 10.6642 15.4216 11 15.0074 11C14.6277 11 14.3139 10.7178 14.2642 10.3518L14.2574 10.25V9.25C14.2574 8.83579 14.5931 8.5 15.0074 8.5Z" fill="#CB4B00"/>
</g>
<defs>
<clipPath id="clip0_2_1667">
<rect width="24" height="24" fill="white"/>
</clipPath>
</defs>
</svg>
