<svg width="24" height="24" viewBox="0 0 24 24" fill="none" xmlns="http://www.w3.org/2000/svg">
<path fill-rule="evenodd" clip-rule="evenodd" d="M22.9935 3.67024L23 3.77224V14.2445C23 14.6705 22.6564 15.0159 22.2326 15.0159C21.844 15.0159 21.5229 14.7257 21.4721 14.3491L21.4651 14.2445V4.95048L12.3069 8.96735C11.8317 9.17581 11.3032 8.86066 11.2391 8.36235L11.2326 8.26034V4.95048L2.53488 8.76537V19.4572H5.34884C5.77268 19.4572 6.11628 19.8026 6.11628 20.2286C6.11628 20.6191 5.82756 20.9419 5.45297 20.993L5.34884 21H1.76744C1.37892 21 1.05782 20.7098 1.00701 20.3333L1 20.2286V8.26034C1 7.99194 1.13843 7.74586 1.36042 7.60635L1.46051 7.55333L11.6931 3.06523C12.1683 2.85677 12.6968 3.17192 12.7609 3.67024L12.7674 3.77224V7.0821L21.9256 3.06523C22.4009 2.85677 22.9293 3.17192 22.9935 3.67024ZM22.2326 16.3716C22.6564 16.3716 23 16.717 23 17.143V20.2286C23 20.6546 22.6564 21 22.2326 21H13.5349C13.111 21 12.7674 20.6546 12.7674 20.2286V17.143C12.7674 16.717 13.111 16.3716 13.5349 16.3716H22.2326ZM11.4884 16.3716C11.9122 16.3716 12.2558 16.717 12.2558 17.143V20.2286C12.2558 20.6546 11.9122 21 11.4884 21H7.39535C6.9715 21 6.62791 20.6546 6.62791 20.2286V17.143C6.62791 16.717 6.9715 16.3716 7.39535 16.3716H11.4884ZM21.4651 17.9144H14.3023V19.4572H21.4651V17.9144ZM10.7209 17.9144H8.16279V19.4572H10.7209V17.9144ZM18.1395 11.229C18.5634 11.229 18.907 11.5744 18.907 12.0004V15.086C18.907 15.512 18.5634 15.8574 18.1395 15.8574H9.95349C9.52964 15.8574 9.18605 15.512 9.18605 15.086V12.0004C9.18605 11.5744 9.52964 11.229 9.95349 11.229H18.1395ZM17.3721 12.7718H10.7209V14.3146H17.3721V12.7718Z" fill="#CB4B00"/>
</svg>
