<svg width="24" height="24" viewBox="0 0 24 24" fill="none" xmlns="http://www.w3.org/2000/svg">
<path fill-rule="evenodd" clip-rule="evenodd" d="M12.75 5V19C12.75 19.6279 12.0245 19.9778 11.5331 19.587L6.70947 15.75H4C3.0335 15.75 2.25 14.9665 2.25 14V10C2.25 9.0335 3.0335 8.25 4 8.25H4.50339C4.91761 8.25 5.25339 8.58579 5.25339 9C5.25339 9.41421 4.91761 9.75 4.50339 9.75H4C3.86193 9.75 3.75 9.86193 3.75 10V14C3.75 14.1381 3.86193 14.25 4 14.25H6.97138C7.14097 14.25 7.30555 14.3075 7.43827 14.413L11.25 17.4451V6.55493L7.43827 9.58695C7.11411 9.84481 6.64229 9.79106 6.38443 9.46689C6.12657 9.14273 6.18033 8.6709 6.50449 8.41305L11.5331 4.41305C12.0245 4.02216 12.75 4.37209 12.75 5ZM15.9445 10.0555C17.0185 11.1294 17.0185 12.8706 15.9445 13.9445C15.6517 14.2374 15.1768 14.2374 14.8839 13.9445C14.591 13.6517 14.591 13.1768 14.8839 12.8839C15.372 12.3957 15.372 11.6043 14.8839 11.1161C14.591 10.8232 14.591 10.3484 14.8839 10.0555C15.1768 9.76256 15.6517 9.76256 15.9445 10.0555Z" fill="#CB4B00"/>
</svg>
