<svg width="24" height="24" viewBox="0 0 24 24" fill="none" xmlns="http://www.w3.org/2000/svg">
<path fill-rule="evenodd" clip-rule="evenodd" d="M12.75 5.0014V19.0014C12.75 19.6293 12.0245 19.9792 11.5331 19.5884L6.70947 15.7514H4C3.0335 15.7514 2.25 14.9679 2.25 14.0014V10.0014C2.25 9.03491 3.0335 8.2514 4 8.2514H4.50339C4.91761 8.2514 5.25339 8.58719 5.25339 9.0014C5.25339 9.41562 4.91761 9.7514 4.50339 9.7514H4C3.86193 9.7514 3.75 9.86333 3.75 10.0014V14.0014C3.75 14.1395 3.86193 14.2514 4 14.2514H6.97138C7.14097 14.2514 7.30555 14.3089 7.43827 14.4145L11.25 17.4465V6.55633L7.43827 9.58836C7.11411 9.84621 6.64229 9.79246 6.38443 9.46829C6.12657 9.14413 6.18033 8.67231 6.50449 8.41445L11.5331 4.41445C12.0245 4.02356 12.75 4.37349 12.75 5.0014ZM17.773 7.22843C20.409 9.86447 20.409 14.1383 17.773 16.7744C17.4801 17.0673 17.0052 17.0673 16.7123 16.7744C16.4194 16.4815 16.4194 16.0066 16.7123 15.7137C18.7626 13.6635 18.7626 10.3393 16.7123 8.28909C16.4194 7.9962 16.4194 7.52133 16.7123 7.22843C17.0052 6.93554 17.4801 6.93554 17.773 7.22843ZM15.9445 10.0569C17.0185 11.1308 17.0185 12.872 15.9445 13.9459C15.6517 14.2388 15.1768 14.2388 14.8839 13.9459C14.591 13.6531 14.591 13.1782 14.8839 12.8853C15.372 12.3971 15.372 11.6057 14.8839 11.1175C14.591 10.8246 14.591 10.3498 14.8839 10.0569C15.1768 9.76397 15.6517 9.76397 15.9445 10.0569Z" fill="#CB4B00"/>
</svg>
