<svg width="24" height="24" viewBox="0 0 24 24" fill="none" xmlns="http://www.w3.org/2000/svg">
<path fill-rule="evenodd" clip-rule="evenodd" d="M12.75 5V19C12.75 19.6279 12.0245 19.9778 11.5331 19.587L6.70947 15.75H4C3.0335 15.75 2.25 14.9665 2.25 14V10C2.25 9.0335 3.0335 8.25 4 8.25H4.50339C4.91761 8.25 5.25339 8.58579 5.25339 9C5.25339 9.41421 4.91761 9.75 4.50339 9.75H4C3.86193 9.75 3.75 9.86193 3.75 10V14C3.75 14.1381 3.86193 14.25 4 14.25H6.97138C7.14097 14.25 7.30555 14.3075 7.43827 14.413L11.25 17.4451V6.55493L7.43827 9.58695C7.11411 9.84481 6.64229 9.79106 6.38443 9.46689C6.12657 9.14273 6.18033 8.6709 6.50449 8.41305L11.5331 4.41305C12.0245 4.02216 12.75 4.37209 12.75 5ZM17.5303 9.46967L19 10.9396L20.4697 9.46967C20.7626 9.17678 21.2374 9.17678 21.5303 9.46967C21.8232 9.76256 21.8232 10.2374 21.5303 10.5303L20.06 11.9996L21.5303 13.4697C21.8232 13.7626 21.8232 14.2374 21.5303 14.5303C21.2374 14.8232 20.7626 14.8232 20.4697 14.5303L19 13.0606L17.5303 14.5303C17.2374 14.8232 16.7626 14.8232 16.4697 14.5303C16.1768 14.2374 16.1768 13.7626 16.4697 13.4697L17.939 11.9996L16.4697 10.5303C16.1768 10.2374 16.1768 9.76256 16.4697 9.46967C16.7626 9.17678 17.2374 9.17678 17.5303 9.46967Z" fill="#CB4B00"/>
</svg>
