<svg width="24" height="24" viewBox="0 0 24 24" fill="none" xmlns="http://www.w3.org/2000/svg">
<path fill-rule="evenodd" clip-rule="evenodd" d="M12.75 5.07106V19.0711C12.75 19.699 12.0245 20.0489 11.5331 19.658L6.70947 15.8211H4C3.0335 15.8211 2.25 15.0376 2.25 14.0711V10.0711C2.25 9.10456 3.0335 8.32106 4 8.32106H4.50339C4.91761 8.32106 5.25339 8.65685 5.25339 9.07106C5.25339 9.48527 4.91761 9.82106 4.50339 9.82106H4C3.86193 9.82106 3.75 9.93299 3.75 10.0711V14.0711C3.75 14.2091 3.86193 14.3211 4 14.3211H6.97138C7.14097 14.3211 7.30555 14.3785 7.43827 14.4841L11.25 17.5161V6.62599L7.43827 9.65801C7.11411 9.91587 6.64229 9.86212 6.38443 9.53795C6.12657 9.21379 6.18033 8.74196 6.50449 8.48411L11.5331 4.48411C12.0245 4.09322 12.75 4.44315 12.75 5.07106ZM19.6014 4.39859C23.7995 8.59673 23.7995 15.4033 19.6014 19.6014C19.3085 19.8943 18.8336 19.8943 18.5407 19.6014C18.2478 19.3085 18.2478 18.8336 18.5407 18.5407C22.1531 14.9284 22.1531 9.0716 18.5407 5.45925C18.2478 5.16636 18.2478 4.69149 18.5407 4.39859C18.8336 4.1057 19.3085 4.1057 19.6014 4.39859ZM17.773 7.22702C20.409 9.86306 20.409 14.1369 17.773 16.773C17.4801 17.0659 17.0052 17.0659 16.7123 16.773C16.4194 16.4801 16.4194 16.0052 16.7123 15.7123C18.7626 13.6621 18.7626 10.3379 16.7123 8.28768C16.4194 7.99479 16.4194 7.51991 16.7123 7.22702C17.0052 6.93413 17.4801 6.93413 17.773 7.22702ZM15.9445 10.0554C17.0185 11.1294 17.0185 12.8706 15.9445 13.9445C15.6517 14.2374 15.1768 14.2374 14.8839 13.9445C14.591 13.6516 14.591 13.1768 14.8839 12.8839C15.372 12.3957 15.372 11.6043 14.8839 11.1161C14.591 10.8232 14.591 10.3483 14.8839 10.0554C15.1768 9.76256 15.6517 9.76256 15.9445 10.0554Z" fill="#CB4B00"/>
</svg>
