<svg width="24" height="24" viewBox="0 0 24 24" fill="none" xmlns="http://www.w3.org/2000/svg">
<path d="M5.54754 19.6595L3.50696 19.6598V18.7586H5.60637C6.52819 18.7586 7.13337 19.3489 7.13337 20.1099C7.13337 20.8709 6.52819 21.4671 5.60637 21.4671H4.52067V22.5809H3.50696V20.566L5.54754 20.5666C5.98855 20.5666 6.11966 20.3656 6.11966 20.1099C6.11966 19.8604 5.98855 19.6595 5.54754 19.6595Z" fill="#006B4A"/>
<path d="M8.09695 22.581V18.7587H11.46V19.6596H9.11066V20.1768H10.7085V21.0779H9.11066V21.6804H11.46V22.581H8.09695Z" fill="#006B4A"/>
<path d="M12.5677 22.581V18.7587H15.9308V19.6596H13.5814V20.1768H15.1799V21.0779H13.5814V22.581H12.5677Z" fill="#006B4A"/>
<path d="M20.2973 21.9565C19.849 22.432 19.2403 22.6543 18.6249 22.6543C17.4008 22.6543 16.4201 21.7897 16.4201 20.6699C16.4201 19.5502 17.4008 18.6856 18.6249 18.6856C19.2432 18.6856 19.8557 18.9105 20.3046 19.3909L19.4888 19.9715C19.2699 19.7197 18.9752 19.5864 18.6249 19.5864C18.02 19.5864 17.4663 20.0677 17.4663 20.6699C17.4663 21.2722 18.02 21.7534 18.6249 21.7534C18.9597 21.7534 19.264 21.6271 19.4756 21.4153L20.2973 21.9565Z" fill="#006B4A"/>
<path d="M15.8719 11.7487H13.4669V13.4907H11.865V11.7487H9.3562L9.41327 11.7295C10.4946 11.124 11.2259 9.9629 11.2259 8.63023C11.2259 8.40382 11.2045 8.18221 11.1644 7.96748L12.6686 5.0416L15.8719 11.7487Z" fill="#006B4A"/>
<path d="M4.63231 8.68123C4.63231 7.03441 5.96002 5.69964 7.59735 5.69964C9.23497 5.69964 10.5624 7.03441 10.5624 8.68123C10.5624 10.0684 9.62008 11.2343 8.34417 11.567V13.542H6.74254V11.5367C5.52164 11.1678 4.63231 10.0289 4.63231 8.68123Z" fill="#006B4A"/>
<path d="M3.91496 9.35453C3.94364 9.23444 3.97466 9.11494 4.00831 8.99635C4.00831 8.99635 4.01299 8.98317 4.02645 8.98198C4.0484 8.98018 4.04694 8.99635 4.04694 8.99635C4.06772 9.23384 4.11074 9.46533 4.17365 9.68784C3.63666 13.1459 5.86102 15.8631 9.3613 15.8631C12.7545 15.8631 16.1649 13.3097 17.38 10.002L18.9681 8.48604L19.8844 9.52732C18.7589 13.8706 14.3792 17.3628 10.0154 17.3628C5.59355 17.3628 2.86204 13.7781 3.91496 9.35453ZM17.737 8.6801C18.3504 5.16065 16.114 2.37672 12.5707 2.37672C10.3285 2.37672 8.07895 3.49197 6.46006 5.20228C6.28711 5.26248 6.11972 5.33555 5.95993 5.4206C5.95993 5.4206 5.93945 5.43258 5.9216 5.41251C5.90609 5.39484 5.91721 5.37747 5.91721 5.37747C7.87088 2.96878 10.8529 1.34592 13.8273 1.34592C17.9275 1.34592 20.5736 4.42873 20.0983 8.40339L19.1522 7.32857L17.737 8.6801Z" fill="#006B4A"/>
<path d="M20.639 18.0558H21.1494V18.193H20.9779V18.6098H20.8102V18.193H20.639V18.0558Z" fill="#006B4A"/>
<path d="M21.2228 18.0558H21.4437L21.5271 18.393L21.6105 18.0558H21.8309V18.6098H21.6939V18.1873L21.5892 18.6098H21.4642L21.3603 18.1873V18.6098H21.2228V18.0558Z" fill="#006B4A"/>
</svg>
