<svg width="24" height="24" viewBox="0 0 24 24" fill="none" xmlns="http://www.w3.org/2000/svg">
<path d="M13.5332 1.08087C9.19356 1.08087 7.6622 7.9353 6.2356 13.4491C5.71957 12.9189 4.13157 11.3087 4.12995 11.3114C3.8106 10.9898 3.44379 11.0944 3.21906 11.3173C2.99292 11.5488 2.95991 11.9734 3.21906 12.2309C3.23211 12.2424 5.37077 14.4105 6.10991 15.1619C6.31382 15.3636 6.60889 15.4824 6.90375 15.3073C7.20928 15.1161 7.25115 14.7783 7.25945 14.7783C9.7932 3.23698 12.0575 2.37634 13.5273 2.37634C14.7637 2.37634 16.1886 3.30474 16.1886 5.16165C18.0324 5.16165 19.188 7.62466 17.7041 9.14079C18.9344 9.7459 19.4831 10.4901 19.4831 11.4317C19.4831 12.3744 18.7067 13.3366 17.5734 13.334C16.4497 13.334 15.8786 12.5999 15.0031 12.5967C14.6061 12.5967 14.3653 12.9228 14.3653 13.2445V15.5745H12.7122V13.253C12.7077 12.8893 12.4442 12.6032 12.1161 12.6032C12.1108 12.6032 11.9747 12.6072 11.9767 12.612L9.76277 12.8893C9.49575 12.9303 9.24912 13.2251 9.24912 13.5295C9.24912 13.8863 9.53675 14.1826 9.92903 14.1777C9.97898 14.1777 10.0461 14.1777 10.0395 14.1719C10.0355 14.1719 11.441 13.9904 11.441 13.9904V16.2902C11.441 16.5812 11.7656 16.8666 12.0573 16.8666H14.9985C15.3405 16.8666 15.6376 16.5665 15.6376 16.2141V14.1138C16.2531 14.4954 17.1091 14.6433 17.5482 14.6433C19.1981 14.6433 20.7718 13.3251 20.7671 11.3913C20.7607 9.63854 19.4408 8.76305 19.4408 8.76305C20.2155 6.66612 18.9627 4.6419 17.3402 4.07892C16.7552 1.91599 14.9379 1.08087 13.5332 1.08087Z" fill="#2A5132"/>
<path d="M13.5332 1.08087C9.19356 1.08087 7.6622 7.9353 6.2356 13.4491C5.71957 12.9189 4.13157 11.3087 4.12995 11.3114C3.8106 10.9898 3.44379 11.0944 3.21906 11.3173C2.99292 11.5488 2.95991 11.9734 3.21906 12.2309C3.23211 12.2424 5.37077 14.4105 6.10991 15.1619C6.31382 15.3636 6.60889 15.4824 6.90375 15.3073C7.20928 15.1161 7.25115 14.7783 7.25945 14.7783C9.7932 3.23698 12.0575 2.37634 13.5273 2.37634C14.7637 2.37634 16.1886 3.30474 16.1886 5.16165C18.0324 5.16165 19.188 7.62466 17.7041 9.14079C18.9344 9.7459 19.4831 10.4901 19.4831 11.4317C19.4831 12.3744 18.7067 13.3366 17.5734 13.334C16.4497 13.334 15.8786 12.5999 15.0031 12.5967C14.6061 12.5967 14.3653 12.9228 14.3653 13.2445V15.5745H12.7122V13.253C12.7077 12.8893 12.4442 12.6032 12.1161 12.6032C12.1108 12.6032 11.9747 12.6072 11.9767 12.612L9.76277 12.8893C9.49575 12.9303 9.24912 13.2251 9.24912 13.5295C9.24912 13.8863 9.53675 14.1826 9.92903 14.1777C9.97898 14.1777 10.0461 14.1777 10.0395 14.1719C10.0355 14.1719 11.441 13.9904 11.441 13.9904V16.2902C11.441 16.5812 11.7656 16.8666 12.0573 16.8666H14.9985C15.3405 16.8666 15.6376 16.5665 15.6376 16.2141V14.1138C16.2531 14.4954 17.1091 14.6433 17.5482 14.6433C19.1981 14.6433 20.7718 13.3251 20.7671 11.3913C20.7607 9.63854 19.4408 8.76305 19.4408 8.76305C20.2155 6.66612 18.9627 4.6419 17.3402 4.07892C16.7552 1.91599 14.9379 1.08087 13.5332 1.08087Z" fill="#2A5132"/>
<path d="M11.6809 19.4315C11.6809 19.9734 12.2757 20.3003 13.2558 20.7741C14.0331 21.1436 14.4801 21.5353 14.4801 21.8502C14.4801 22.3592 13.9419 22.5395 13.4373 22.5395C12.6568 22.5395 12.196 22.2232 11.9404 21.5134L11.9181 21.4534H11.8551C11.7179 21.4534 11.6086 21.4599 11.5478 21.5353C11.4935 21.6081 11.5088 21.7035 11.5311 21.7963C11.5293 21.7941 11.7035 22.5242 11.7035 22.5242C11.75 22.7016 11.8129 22.7304 12.0917 22.7863C12.214 22.8077 12.8451 22.9191 13.3798 22.9191C14.8712 22.9191 15.5368 22.3033 15.5368 21.6921C15.5368 21.2472 15.1036 20.822 14.1686 20.3472L13.7438 20.1389C13.1042 19.8292 12.7168 19.645 12.7168 19.3182C12.7168 19.0017 13.1179 18.7815 13.6903 18.7815C14.4378 18.7815 14.6373 19.206 14.7288 19.5756L14.7449 19.645H14.8157C14.982 19.645 15.0869 19.6311 15.1484 19.563C15.1843 19.5242 15.1988 19.4708 15.1902 19.4083L15.1318 18.7778C15.1154 18.5747 14.9638 18.5456 14.7531 18.5021C14.5024 18.4568 14.2027 18.4014 13.7499 18.4014C12.4542 18.4013 11.6809 18.7871 11.6809 19.4315Z" fill="#2A5132"/>
<path d="M15.9763 20.7078C15.9763 21.8055 16.9128 22.9191 18.7066 22.9191C19.6104 22.9191 20.1182 22.7083 20.4974 22.5036L20.5995 22.4488L20.4341 22.2606L20.4432 22.2701C20.4032 22.214 20.372 22.2026 20.3112 22.2026L20.2242 22.2333C20.0882 22.2973 19.6735 22.4928 18.9209 22.4928C17.9933 22.4928 16.9953 21.8781 16.9953 20.5244C16.9953 19.2366 18.0786 18.7815 19.0018 18.7815C19.6673 18.7815 20.021 19.0225 20.0868 19.522L20.0944 19.6037H20.177C20.2562 19.6037 20.4664 19.6037 20.4664 19.4434V18.693C20.4664 18.5079 20.258 18.4826 20.171 18.4693L20.0841 18.4567C19.8715 18.4285 19.6674 18.4012 19.1275 18.4012C17.301 18.4012 15.9763 19.3716 15.9763 20.7078Z" fill="#2A5132"/>
<path d="M9.21997 18.4555L7.60489 18.4688L6.52871 18.4507L6.36505 18.4469C6.26914 18.4469 6.2002 18.5169 6.2002 18.6184C6.2002 18.665 6.2002 18.8126 6.37843 18.8126C7.02888 18.8126 7.05283 18.8659 7.05877 19.1194L7.06502 19.279L7.07517 19.9555V21.4107C7.07517 21.6515 7.06664 22.0353 7.05121 22.3446C7.0469 22.4342 7.04248 22.5182 6.46819 22.5182C6.30528 22.5182 6.20904 22.5515 6.20904 22.7118C6.20904 22.7598 6.20904 22.8833 6.36516 22.8833H6.40119C6.46981 22.8799 6.65181 22.8713 7.55063 22.8713C8.50802 22.8713 8.70006 22.8814 8.76523 22.8833H8.79889C8.92458 22.8833 9.03387 22.8713 9.03387 22.7118C9.03387 22.533 8.88865 22.5182 8.6458 22.5182C8.06892 22.5182 8.06428 22.4342 8.06007 22.3465C8.04637 22.0625 8.03461 21.6788 8.03461 21.4106V20.8854H8.5186C9.25903 20.8854 9.34113 20.9068 9.44719 21.4865C9.47761 21.6128 9.57665 21.6287 9.65919 21.6287C9.83332 21.6287 9.8523 21.532 9.8523 21.4889L9.83763 21.2712C9.82522 21.149 9.81336 20.9928 9.81336 20.7814V19.8894C9.81336 19.7558 9.65498 19.7558 9.5705 19.7558C9.4309 19.7558 9.39842 19.846 9.30974 20.2677C9.26885 20.4278 8.9632 20.5206 8.47113 20.5206H8.03461V19.2107C8.03461 18.8539 8.09654 18.8512 8.17368 18.85C8.45699 18.8367 9.14316 18.8126 9.34944 18.8126C9.54569 18.8126 9.72629 18.8584 9.84152 18.9359C10.2087 19.1667 10.3962 19.3241 10.51 19.4189C10.6213 19.5096 10.6837 19.5632 10.7741 19.5632C10.8278 19.5632 10.9835 19.5632 10.9835 19.4259C10.9835 19.3923 10.9687 19.3616 10.9187 19.2482C10.8594 19.1135 10.7587 18.8927 10.631 18.5532C10.594 18.445 10.473 18.445 10.2465 18.445L9.21997 18.4555Z" fill="#2A5132"/>
<path d="M19.4608 2.40733H19.689C19.7933 2.40733 19.8656 2.38995 19.9077 2.35992C19.9479 2.32923 19.9685 2.28556 19.9685 2.22825C19.9685 2.17413 19.9479 2.13046 19.9099 2.09944C19.8714 2.06941 19.7932 2.05236 19.675 2.05236H19.4607L19.4608 2.40733ZM20.2489 3.06986H20.0195C19.876 2.80399 19.7803 2.65483 19.7378 2.61985C19.6931 2.58641 19.6389 2.57013 19.5719 2.57013H19.4609V3.06986H19.2734V1.89352H19.6753C19.7949 1.89352 19.8853 1.90232 19.9509 1.92124C20.0155 1.93653 20.0681 1.97327 20.1084 2.03003C20.1488 2.0847 20.1698 2.1474 20.1698 2.21175C20.1698 2.29216 20.1411 2.36421 20.0828 2.43032C20.0261 2.49643 19.945 2.53317 19.8379 2.54175V2.54505C19.906 2.56243 19.9972 2.66088 20.1065 2.84106L20.2489 3.06986ZM19.7442 3.37852C19.9914 3.37852 20.2019 3.29052 20.3776 3.111C20.5534 2.93115 20.6432 2.71665 20.6447 2.4631C20.6447 2.21186 20.5562 1.9967 20.3802 1.81916C20.2036 1.64162 19.9914 1.55065 19.7442 1.55065C19.4968 1.55065 19.284 1.64008 19.1102 1.81751C18.9346 1.99659 18.8476 2.21175 18.8462 2.46299C18.8462 2.71489 18.9346 2.93104 19.1086 3.10924C19.2841 3.28832 19.4952 3.37852 19.7442 3.37852ZM19.7487 1.36981C20.0418 1.36981 20.2938 1.47618 20.5049 1.6887C20.7178 1.90386 20.8231 2.16214 20.8231 2.46299C20.8231 2.76461 20.7177 3.02278 20.5076 3.23695C20.2969 3.45046 20.044 3.55848 19.7487 3.55848C19.4509 3.55848 19.1955 3.4531 18.9859 3.2397C18.773 3.02454 18.6677 2.76615 18.6677 2.46299C18.6677 2.16214 18.7731 1.90551 18.9859 1.69035C19.1955 1.47618 19.4509 1.36981 19.7487 1.36981Z" fill="#2A5132"/>
<path d="M19.7488 3.616C19.4346 3.616 19.1645 3.50281 18.9452 3.27907C18.7232 3.05522 18.6116 2.78099 18.6116 2.46309C18.6116 2.1475 18.7232 1.87393 18.9452 1.65041C19.166 1.42557 19.4364 1.31073 19.7488 1.31073C20.055 1.31073 20.3241 1.42491 20.5462 1.64832C20.7686 1.87217 20.8798 2.14563 20.8798 2.46298C20.8798 2.77923 20.7692 3.0528 20.5477 3.27643C20.3276 3.50193 20.0579 3.616 19.7488 3.616ZM19.7488 1.42711C19.4683 1.42711 19.2248 1.5293 19.0256 1.73236C18.8234 1.93718 18.7241 2.17577 18.7241 2.46298C18.7241 2.7525 18.8234 2.99274 19.0256 3.19668C19.2224 3.39743 19.4669 3.50017 19.7488 3.50017C20.0305 3.50017 20.2664 3.40073 20.4676 3.19492C20.6656 2.99274 20.7665 2.74755 20.7665 2.46298C20.7665 2.17852 20.665 1.93135 20.4661 1.73005C20.2664 1.52864 20.0245 1.42711 19.7488 1.42711Z" fill="#2A5132"/>
<path d="M19.7449 3.43696C19.4838 3.43696 19.2565 3.34082 19.0689 3.15063C18.883 2.9611 18.7886 2.72955 18.7886 2.46302C18.7908 2.1944 18.8855 1.96395 19.0705 1.77607C19.2547 1.58863 19.4814 1.49249 19.7448 1.49249C20.0057 1.49249 20.233 1.58863 20.4204 1.77761C20.6077 1.96549 20.7021 2.19704 20.7021 2.46291C20.7006 2.73021 20.6052 2.96165 20.4178 3.15217C20.2331 3.34181 20.0058 3.43696 19.7449 3.43696ZM19.7449 1.60832C19.5131 1.60832 19.3138 1.69313 19.1517 1.85857C18.9853 2.02665 18.9054 2.22377 18.9035 2.46368C18.9035 2.69787 18.9861 2.90181 19.1498 3.06824C19.3169 3.23797 19.5116 3.32113 19.7449 3.32113C19.9784 3.32113 20.1716 3.23863 20.3381 3.06923C20.5043 2.90005 20.5861 2.70128 20.5888 2.46203C20.5888 2.22542 20.5066 2.0283 20.3408 1.85945C20.1754 1.69313 19.9746 1.60832 19.7449 1.60832Z" fill="#2A5132"/>
<path d="M20.3522 3.12719H19.9863L19.9699 3.09716C19.7729 2.73284 19.7132 2.67289 19.7029 2.66453C19.6704 2.64121 19.6266 2.62757 19.5724 2.62757H19.5174V3.12719H19.2163V1.83557H19.675C19.8059 1.83557 19.8982 1.84481 19.966 1.86351C20.0423 1.88364 20.1064 1.92731 20.1548 1.99496C20.2022 2.06074 20.226 2.13367 20.226 2.21078C20.226 2.30692 20.1917 2.39371 20.1243 2.46906C20.0858 2.51438 20.0366 2.54782 19.9777 2.57081C20.0318 2.62416 20.09 2.70292 20.1559 2.81006L20.3522 3.12719ZM20.0531 3.01147H20.145L20.0586 2.87177C19.9182 2.64055 19.8439 2.60678 19.8253 2.60282L19.7948 2.59589C19.85 2.65661 19.9354 2.79565 20.0531 3.01147ZM19.3299 3.01147H19.4039V2.51174H19.5726C19.6503 2.51174 19.7184 2.53242 19.7719 2.57279C19.7744 2.57444 19.7776 2.57686 19.7812 2.58038V2.49205L19.8336 2.4827C19.9259 2.47577 19.993 2.44574 20.0393 2.39162C20.0894 2.33596 20.1131 2.27788 20.1131 2.21078C20.1131 2.15952 20.0958 2.1087 20.0629 2.06338C20.03 2.01806 19.9886 1.98968 19.9369 1.97703C19.8787 1.95899 19.7943 1.9514 19.6752 1.9514H19.33L19.3299 3.01147Z" fill="#2A5132"/>
<path d="M19.6895 2.46466H19.4042V1.99408H19.6754C19.8063 1.99408 19.8939 2.01377 19.9449 2.05403C19.9982 2.09605 20.0258 2.15688 20.0258 2.22827C20.0258 2.30362 19.9973 2.36368 19.9424 2.40647C19.8883 2.44662 19.8053 2.46466 19.6895 2.46466ZM19.5179 2.34905H19.6896C19.8022 2.34905 19.853 2.32837 19.8755 2.31198C19.9002 2.29229 19.9126 2.26666 19.9126 2.22827C19.9126 2.19285 19.8996 2.16557 19.8755 2.14478C19.8647 2.13719 19.8194 2.1098 19.6755 2.1098H19.5179V2.34905Z" fill="#2A5132"/>
</svg>
