<svg width="24" height="16" viewBox="0 0 24 16" fill="none" xmlns="http://www.w3.org/2000/svg">
<g clip-path="url(#clip0_167_430)">
<rect width="24" height="16" fill="#003399"/>
<rect width="24" height="16" fill="#003399"/>
<path d="M12 1.77777L11.7253 2.62315L12.148 2.7605L12 1.77777Z" fill="#FFCC00"/>
<path d="M12 1.77777L12.2747 2.62315L11.852 2.7605L12 1.77777Z" fill="#FFCC00"/>
<path d="M12.8454 2.39198H11.9565V2.83642L12.8454 2.39198Z" fill="#FFCC00"/>
<path d="M12.8454 2.39198L12.1263 2.91445L11.865 2.55489L12.8454 2.39198Z" fill="#FFCC00"/>
<path d="M12.5225 3.38579L12.2478 2.5404L11.8251 2.67774L12.5225 3.38579Z" fill="#FFCC00"/>
<path d="M12.5225 3.38579L11.8034 2.86331L12.0646 2.50375L12.5225 3.38579Z" fill="#FFCC00"/>
<path d="M11.1546 2.39198H12.0435V2.83642L11.1546 2.39198Z" fill="#FFCC00"/>
<path d="M11.1546 2.39198L11.8737 2.91445L12.135 2.55489L11.1546 2.39198Z" fill="#FFCC00"/>
<path d="M11.4775 3.38579L11.7522 2.5404L12.1749 2.67774L11.4775 3.38579Z" fill="#FFCC00"/>
<path d="M11.4775 3.38579L12.1967 2.86331L11.9354 2.50375L11.4775 3.38579Z" fill="#FFCC00"/>
<path d="M12 12.4444L11.7253 13.2898L12.148 13.4272L12 12.4444Z" fill="#FFCC00"/>
<path d="M12 12.4444L12.2747 13.2898L11.852 13.4272L12 12.4444Z" fill="#FFCC00"/>
<path d="M12.8454 13.0586H11.9565V13.5031L12.8454 13.0586Z" fill="#FFCC00"/>
<path d="M12.8454 13.0586L12.1263 13.5811L11.865 13.2216L12.8454 13.0586Z" fill="#FFCC00"/>
<path d="M12.5225 14.0525L12.2478 13.2071L11.8251 13.3444L12.5225 14.0525Z" fill="#FFCC00"/>
<path d="M12.5225 14.0525L11.8034 13.53L12.0646 13.1704L12.5225 14.0525Z" fill="#FFCC00"/>
<path d="M11.1546 13.0586H12.0435V13.5031L11.1546 13.0586Z" fill="#FFCC00"/>
<path d="M11.1546 13.0586L11.8737 13.5811L12.135 13.2216L11.1546 13.0586Z" fill="#FFCC00"/>
<path d="M11.4775 14.0525L11.7522 13.2071L12.1749 13.3444L11.4775 14.0525Z" fill="#FFCC00"/>
<path d="M11.4775 14.0525L12.1967 13.53L11.9354 13.1704L11.4775 14.0525Z" fill="#FFCC00"/>
<path d="M6.66667 7.1111L6.39199 7.95649L6.81468 8.09383L6.66667 7.1111Z" fill="#FFCC00"/>
<path d="M6.66667 7.1111L6.94135 7.95649L6.51866 8.09383L6.66667 7.1111Z" fill="#FFCC00"/>
<path d="M7.51206 7.72531H6.62317V8.16976L7.51206 7.72531Z" fill="#FFCC00"/>
<path d="M7.51206 7.72531L6.79293 8.24779L6.53169 7.88822L7.51206 7.72531Z" fill="#FFCC00"/>
<path d="M7.18915 8.71912L6.91447 7.87374L6.49177 8.01108L7.18915 8.71912Z" fill="#FFCC00"/>
<path d="M7.18915 8.71912L6.47002 8.19664L6.73126 7.83708L7.18915 8.71912Z" fill="#FFCC00"/>
<path d="M5.82129 7.72531H6.71018V8.16976L5.82129 7.72531Z" fill="#FFCC00"/>
<path d="M5.82129 7.72531L6.54042 8.24779L6.80165 7.88822L5.82129 7.72531Z" fill="#FFCC00"/>
<path d="M6.1442 8.71912L6.41888 7.87374L6.84157 8.01108L6.1442 8.71912Z" fill="#FFCC00"/>
<path d="M6.1442 8.71912L6.86332 8.19664L6.60209 7.83708L6.1442 8.71912Z" fill="#FFCC00"/>
<path d="M8.81086 4.10032L9.52999 3.57784L9.26875 3.21828L8.81086 4.10032Z" fill="#FFCC00"/>
<path d="M8.81086 4.10032L9.08555 3.25493L9.50824 3.39228L8.81086 4.10032Z" fill="#FFCC00"/>
<path d="M8.48796 3.10651L9.20708 3.62899L9.46832 3.26942L8.48796 3.10651Z" fill="#FFCC00"/>
<path d="M8.48796 3.10651H9.37685V3.55095L8.48796 3.10651Z" fill="#FFCC00"/>
<path d="M9.33334 2.4923L9.05866 3.33769L9.48135 3.47503L9.33334 2.4923Z" fill="#FFCC00"/>
<path d="M9.33334 2.4923L9.60802 3.33769L9.18533 3.47503L9.33334 2.4923Z" fill="#FFCC00"/>
<path d="M9.85582 4.10032L9.13669 3.57784L9.39793 3.21828L9.85582 4.10032Z" fill="#FFCC00"/>
<path d="M9.85582 4.10032L9.58113 3.25493L9.15844 3.39228L9.85582 4.10032Z" fill="#FFCC00"/>
<path d="M10.1787 3.10651L9.4596 3.62899L9.19836 3.26942L10.1787 3.10651Z" fill="#FFCC00"/>
<path d="M10.1787 3.10651H9.28983V3.55095L10.1787 3.10651Z" fill="#FFCC00"/>
<path d="M7.90368 6.05245L7.629 5.20707L7.20631 5.34441L7.90368 6.05245Z" fill="#FFCC00"/>
<path d="M7.90368 6.05245L7.18455 5.52998L7.44579 5.17041L7.90368 6.05245Z" fill="#FFCC00"/>
<path d="M6.85873 6.05245L7.57785 5.52998L7.31662 5.17041L6.85873 6.05245Z" fill="#FFCC00"/>
<path d="M6.85873 6.05245L7.13341 5.20707L7.5561 5.34441L6.85873 6.05245Z" fill="#FFCC00"/>
<path d="M6.53582 5.05865L7.25495 5.58112L7.51618 5.22156L6.53582 5.05865Z" fill="#FFCC00"/>
<path d="M6.53582 5.05865H7.42471V5.50309L6.53582 5.05865Z" fill="#FFCC00"/>
<path d="M8.22659 5.05865L7.50746 5.58112L7.24622 5.22156L8.22659 5.05865Z" fill="#FFCC00"/>
<path d="M8.22659 5.05865L7.3377 5.05865V5.50309L8.22659 5.05865Z" fill="#FFCC00"/>
<path d="M7.3812 4.44444L7.65589 5.28982L7.23319 5.42716L7.3812 4.44444Z" fill="#FFCC00"/>
<path d="M7.3812 4.44444L7.10652 5.28982L7.52921 5.42716L7.3812 4.44444Z" fill="#FFCC00"/>
<path d="M8.22659 10.392H7.3377V10.8364L8.22659 10.392Z" fill="#FFCC00"/>
<path d="M8.22659 10.392L7.50746 10.9145L7.24622 10.5549L8.22659 10.392Z" fill="#FFCC00"/>
<path d="M7.90368 11.3858L7.629 10.5404L7.20631 10.6777L7.90368 11.3858Z" fill="#FFCC00"/>
<path d="M7.90368 11.3858L7.18455 10.8633L7.44579 10.5037L7.90368 11.3858Z" fill="#FFCC00"/>
<path d="M6.85873 11.3858L7.57785 10.8633L7.31662 10.5037L6.85873 11.3858Z" fill="#FFCC00"/>
<path d="M6.85873 11.3858L7.13341 10.5404L7.5561 10.6777L6.85873 11.3858Z" fill="#FFCC00"/>
<path d="M7.3812 9.77777L7.65589 10.6232L7.23319 10.7605L7.3812 9.77777Z" fill="#FFCC00"/>
<path d="M7.3812 9.77777L7.10652 10.6232L7.52921 10.7605L7.3812 9.77777Z" fill="#FFCC00"/>
<path d="M6.53582 10.392H7.42471V10.8364L6.53582 10.392Z" fill="#FFCC00"/>
<path d="M6.53582 10.392L7.25495 10.9145L7.51618 10.5549L6.53582 10.392Z" fill="#FFCC00"/>
<path d="M10.1787 12.3441H9.28983V12.7886L10.1787 12.3441Z" fill="#FFCC00"/>
<path d="M10.1787 12.3441L9.4596 12.8666L9.19836 12.507L10.1787 12.3441Z" fill="#FFCC00"/>
<path d="M9.85581 13.3379L9.58113 12.4925L9.15844 12.6299L9.85581 13.3379Z" fill="#FFCC00"/>
<path d="M9.85581 13.3379L9.13669 12.8154L9.39793 12.4559L9.85581 13.3379Z" fill="#FFCC00"/>
<path d="M8.81086 13.3379L9.52999 12.8154L9.26875 12.4559L8.81086 13.3379Z" fill="#FFCC00"/>
<path d="M8.81086 13.3379L9.08555 12.4925L9.50824 12.6299L8.81086 13.3379Z" fill="#FFCC00"/>
<path d="M9.33334 11.7299L9.60802 12.5753L9.18533 12.7126L9.33334 11.7299Z" fill="#FFCC00"/>
<path d="M9.33334 11.7299L9.05866 12.5753L9.48135 12.7126L9.33334 11.7299Z" fill="#FFCC00"/>
<path d="M8.48796 12.3441H9.37684V12.7886L8.48796 12.3441Z" fill="#FFCC00"/>
<path d="M8.48796 12.3441L9.20708 12.8666L9.46832 12.507L8.48796 12.3441Z" fill="#FFCC00"/>
<path d="M17.3333 7.1111L17.608 7.95649L17.1853 8.09383L17.3333 7.1111Z" fill="#FFCC00"/>
<path d="M17.3333 7.1111L17.0587 7.95649L17.4813 8.09383L17.3333 7.1111Z" fill="#FFCC00"/>
<path d="M16.488 7.72531H17.3768V8.16976L16.488 7.72531Z" fill="#FFCC00"/>
<path d="M16.488 7.72531L17.2071 8.24779L17.4683 7.88822L16.488 7.72531Z" fill="#FFCC00"/>
<path d="M16.8109 8.71912L17.0855 7.87374L17.5082 8.01108L16.8109 8.71912Z" fill="#FFCC00"/>
<path d="M16.8109 8.71912L17.53 8.19664L17.2688 7.83708L16.8109 8.71912Z" fill="#FFCC00"/>
<path d="M18.1787 7.72531H17.2898V8.16976L18.1787 7.72531Z" fill="#FFCC00"/>
<path d="M18.1787 7.72531L17.4596 8.24779L17.1984 7.88822L18.1787 7.72531Z" fill="#FFCC00"/>
<path d="M17.8558 8.71912L17.5811 7.87374L17.1584 8.01108L17.8558 8.71912Z" fill="#FFCC00"/>
<path d="M17.8558 8.71912L17.1367 8.19664L17.3979 7.83708L17.8558 8.71912Z" fill="#FFCC00"/>
<path d="M15.1891 4.10032L14.47 3.57784L14.7313 3.21828L15.1891 4.10032Z" fill="#FFCC00"/>
<path d="M15.1891 4.10032L14.9145 3.25493L14.4918 3.39227L15.1891 4.10032Z" fill="#FFCC00"/>
<path d="M15.5121 3.10651L14.7929 3.62899L14.5317 3.26942L15.5121 3.10651Z" fill="#FFCC00"/>
<path d="M15.5121 3.10651H14.6232V3.55095L15.5121 3.10651Z" fill="#FFCC00"/>
<path d="M14.6667 2.4923L14.9414 3.33769L14.5187 3.47503L14.6667 2.4923Z" fill="#FFCC00"/>
<path d="M14.6667 2.4923L14.392 3.33769L14.8147 3.47503L14.6667 2.4923Z" fill="#FFCC00"/>
<path d="M14.1442 4.10032L14.8633 3.57784L14.6021 3.21828L14.1442 4.10032Z" fill="#FFCC00"/>
<path d="M14.1442 4.10032L14.4189 3.25493L14.8416 3.39227L14.1442 4.10032Z" fill="#FFCC00"/>
<path d="M13.8213 3.10651L14.5404 3.62899L14.8017 3.26942L13.8213 3.10651Z" fill="#FFCC00"/>
<path d="M13.8213 3.10651H14.7102V3.55095L13.8213 3.10651Z" fill="#FFCC00"/>
<path d="M16.0963 6.05245L16.371 5.20707L16.7937 5.34441L16.0963 6.05245Z" fill="#FFCC00"/>
<path d="M16.0963 6.05245L16.8155 5.52998L16.5542 5.17041L16.0963 6.05245Z" fill="#FFCC00"/>
<path d="M17.1413 6.05245L16.4222 5.52998L16.6834 5.17041L17.1413 6.05245Z" fill="#FFCC00"/>
<path d="M17.1413 6.05245L16.8666 5.20707L16.4439 5.34441L17.1413 6.05245Z" fill="#FFCC00"/>
<path d="M17.4642 5.05864L16.7451 5.58112L16.4838 5.22156L17.4642 5.05864Z" fill="#FFCC00"/>
<path d="M17.4642 5.05864H16.5753V5.50309L17.4642 5.05864Z" fill="#FFCC00"/>
<path d="M15.7734 5.05864L16.4925 5.58112L16.7538 5.22156L15.7734 5.05864Z" fill="#FFCC00"/>
<path d="M15.7734 5.05864H16.6623V5.50309L15.7734 5.05864Z" fill="#FFCC00"/>
<path d="M16.6188 4.44444L16.3441 5.28982L16.7668 5.42716L16.6188 4.44444Z" fill="#FFCC00"/>
<path d="M16.6188 4.44444L16.8935 5.28982L16.4708 5.42716L16.6188 4.44444Z" fill="#FFCC00"/>
<path d="M15.7734 10.392H16.6623V10.8364L15.7734 10.392Z" fill="#FFCC00"/>
<path d="M15.7734 10.392L16.4925 10.9145L16.7538 10.5549L15.7734 10.392Z" fill="#FFCC00"/>
<path d="M16.0963 11.3858L16.371 10.5404L16.7937 10.6777L16.0963 11.3858Z" fill="#FFCC00"/>
<path d="M16.0963 11.3858L16.8155 10.8633L16.5542 10.5037L16.0963 11.3858Z" fill="#FFCC00"/>
<path d="M17.1413 11.3858L16.4222 10.8633L16.6834 10.5037L17.1413 11.3858Z" fill="#FFCC00"/>
<path d="M17.1413 11.3858L16.8666 10.5404L16.4439 10.6777L17.1413 11.3858Z" fill="#FFCC00"/>
<path d="M16.6188 9.77777L16.3441 10.6232L16.7668 10.7605L16.6188 9.77777Z" fill="#FFCC00"/>
<path d="M16.6188 9.77777L16.8935 10.6232L16.4708 10.7605L16.6188 9.77777Z" fill="#FFCC00"/>
<path d="M17.4642 10.392H16.5753V10.8364L17.4642 10.392Z" fill="#FFCC00"/>
<path d="M17.4642 10.392L16.7451 10.9145L16.4838 10.5549L17.4642 10.392Z" fill="#FFCC00"/>
<path d="M13.8213 12.3441H14.7102V12.7886L13.8213 12.3441Z" fill="#FFCC00"/>
<path d="M13.8213 12.3441L14.5404 12.8666L14.8017 12.507L13.8213 12.3441Z" fill="#FFCC00"/>
<path d="M14.1442 13.3379L14.4189 12.4925L14.8416 12.6299L14.1442 13.3379Z" fill="#FFCC00"/>
<path d="M14.1442 13.3379L14.8633 12.8154L14.6021 12.4559L14.1442 13.3379Z" fill="#FFCC00"/>
<path d="M15.1891 13.3379L14.47 12.8154L14.7313 12.4559L15.1891 13.3379Z" fill="#FFCC00"/>
<path d="M15.1891 13.3379L14.9145 12.4925L14.4918 12.6299L15.1891 13.3379Z" fill="#FFCC00"/>
<path d="M14.6667 11.7299L14.392 12.5753L14.8147 12.7126L14.6667 11.7299Z" fill="#FFCC00"/>
<path d="M14.6667 11.7299L14.9414 12.5753L14.5187 12.7126L14.6667 11.7299Z" fill="#FFCC00"/>
<path d="M15.5121 12.3441H14.6232V12.7886L15.5121 12.3441Z" fill="#FFCC00"/>
<path d="M15.5121 12.3441L14.7929 12.8666L14.5317 12.507L15.5121 12.3441Z" fill="#FFCC00"/>
</g>
<defs>
<clipPath id="clip0_167_430">
<rect width="24" height="16" fill="white"/>
</clipPath>
</defs>
</svg>
